<svg xmlns="http://www.w3.org/2000/svg" xmlns:xlink="http://www.w3.org/1999/xlink" width="500" zoomAndPan="magnify" viewBox="0 0 375 281.25" height="375" preserveAspectRatio="xMidYMid meet" version="1.0"><defs><g/><clipPath id="d0184b26a6"><path d="M 28.550781 26.179688 L 347 26.179688 L 347 256.027344 L 28.550781 256.027344 Z M 28.550781 26.179688 " clip-rule="nonzero"/></clipPath><clipPath id="6a955fd44a"><path d="M 42.011719 26.179688 L 332.988281 26.179688 C 336.558594 26.179688 339.984375 27.597656 342.507812 30.121094 C 345.03125 32.644531 346.449219 36.070312 346.449219 39.640625 L 346.449219 242.5625 C 346.449219 246.132812 345.03125 249.558594 342.507812 252.082031 C 339.984375 254.609375 336.558594 256.027344 332.988281 256.027344 L 42.011719 256.027344 C 38.441406 256.027344 35.015625 254.609375 32.492188 252.082031 C 29.96875 249.558594 28.550781 246.132812 28.550781 242.5625 L 28.550781 39.640625 C 28.550781 32.207031 34.578125 26.179688 42.011719 26.179688 Z M 42.011719 26.179688 " clip-rule="nonzero"/></clipPath><clipPath id="9e4f9f2ee1"><path d="M 0.550781 0.179688 L 318.617188 0.179688 L 318.617188 230.027344 L 0.550781 230.027344 Z M 0.550781 0.179688 " clip-rule="nonzero"/></clipPath><clipPath id="a568d4951e"><path d="M 14.011719 0.179688 L 304.988281 0.179688 C 308.558594 0.179688 311.984375 1.597656 314.507812 4.121094 C 317.03125 6.644531 318.449219 10.070312 318.449219 13.640625 L 318.449219 216.5625 C 318.449219 220.132812 317.03125 223.558594 314.507812 226.082031 C 311.984375 228.609375 308.558594 230.027344 304.988281 230.027344 L 14.011719 230.027344 C 10.441406 230.027344 7.015625 228.609375 4.492188 226.082031 C 1.96875 223.558594 0.550781 220.132812 0.550781 216.5625 L 0.550781 13.640625 C 0.550781 6.207031 6.578125 0.179688 14.011719 0.179688 Z M 14.011719 0.179688 " clip-rule="nonzero"/></clipPath><clipPath id="2e43fbd188"><rect x="0" width="319" y="0" height="231"/></clipPath><clipPath id="55dd170847"><path d="M 132 63.015625 L 189 63.015625 L 189 124 L 132 124 Z M 132 63.015625 " clip-rule="nonzero"/></clipPath><clipPath id="9070f05235"><path d="M 211 63.015625 L 213 63.015625 L 213 64 L 211 64 Z M 211 63.015625 " clip-rule="nonzero"/></clipPath><clipPath id="91f65cc832"><path d="M 172 63.015625 L 189 63.015625 L 189 64 L 172 64 Z M 172 63.015625 " clip-rule="nonzero"/></clipPath><clipPath id="71dbe5709a"><path d="M 172 63.015625 L 246 63.015625 L 246 124 L 172 124 Z M 172 63.015625 " clip-rule="nonzero"/></clipPath><clipPath id="d6c00806b9"><path d="M 179 139 L 260 139 L 260 217.851562 L 179 217.851562 Z M 179 139 " clip-rule="nonzero"/></clipPath></defs><g clip-path="url(#d0184b26a6)"><g clip-path="url(#6a955fd44a)"><g transform="matrix(1, 0, 0, 1, 28, 26)"><g clip-path="url(#2e43fbd188)"><g clip-path="url(#9e4f9f2ee1)"><g clip-path="url(#a568d4951e)"><path fill="#d3d9dd" d="M 0.550781 0.179688 L 318.386719 0.179688 L 318.386719 230.027344 L 0.550781 230.027344 Z M 0.550781 0.179688 " fill-opacity="1" fill-rule="nonzero"/></g></g></g></g></g></g><g clip-path="url(#55dd170847)"><path fill="#38b2d8" d="M 167.425781 63.511719 C 151.710938 64.386719 132.578125 105.910156 132.578125 105.910156 L 156.101562 106.5625 L 169.949219 123.191406 L 187.894531 88.628906 L 188.070312 88.449219 C 181.144531 77.167969 173.128906 64.132812 172.5625 63.28125 C 170.792969 63.34375 169.070312 63.417969 167.425781 63.511719 " fill-opacity="1" fill-rule="nonzero"/></g><g clip-path="url(#9070f05235)"><path fill="#38b2d8" d="M 212.546875 63.507812 C 212.546875 63.507812 212.355469 63.503906 211.996094 63.488281 C 212.175781 63.503906 212.355469 63.515625 212.53125 63.527344 L 212.546875 63.507812 " fill-opacity="1" fill-rule="nonzero"/></g><g clip-path="url(#91f65cc832)"><path fill="#38b2d8" d="M 172.578125 63.28125 C 172.859375 63.277344 179.707031 63.117188 188.011719 63.066406 C 182.886719 63.058594 177.539062 63.113281 172.578125 63.28125 " fill-opacity="1" fill-rule="nonzero"/></g><g clip-path="url(#71dbe5709a)"><path fill="#1d97bd" d="M 228.535156 89.355469 C 228.535156 89.355469 225 64.605469 213.382812 63.597656 C 213.109375 63.574219 212.824219 63.550781 212.53125 63.527344 C 212.355469 63.515625 212.175781 63.503906 211.996094 63.488281 C 205.894531 63.070312 196.242188 63.015625 188.011719 63.0625 C 179.707031 63.113281 172.859375 63.273438 172.578125 63.28125 L 172.5625 63.28125 C 173.128906 64.132812 181.144531 77.167969 188.070312 88.449219 C 193.484375 97.265625 198.234375 105.011719 198.234375 105.011719 L 176.515625 118.140625 L 229.546875 123.191406 L 245.203125 80.261719 L 228.535156 89.355469 " fill-opacity="1" fill-rule="nonzero"/></g><path fill="#38b2d8" d="M 174.441406 181.824219 L 183.398438 162.460938 L 144.480469 163.921875 L 144.238281 163.855469 C 137.847656 175.445312 130.46875 188.851562 130.007812 189.765625 C 130.933594 191.273438 131.851562 192.738281 132.742188 194.121094 C 141.261719 207.351562 186.816406 203.496094 186.816406 203.496094 L 174.441406 181.824219 " fill-opacity="1" fill-rule="nonzero"/><path fill="#38b2d8" d="M 110.464844 154.878906 C 110.464844 154.878906 110.554688 155.050781 110.722656 155.371094 C 110.644531 155.207031 110.566406 155.046875 110.492188 154.886719 L 110.464844 154.878906 " fill-opacity="1" fill-rule="nonzero"/><path fill="#38b2d8" d="M 130 189.753906 C 129.867188 189.527344 126.339844 183.644531 122.191406 176.4375 C 124.714844 180.894531 127.402344 185.519531 130 189.753906 " fill-opacity="1" fill-rule="nonzero"/><path fill="#1d97bd" d="M 153.625 146.839844 L 175.765625 159.246094 L 153.976562 110.636719 L 108.914062 118.210938 L 125.050781 128.21875 C 125.050781 128.21875 105.273438 143.507812 110.128906 154.109375 C 110.242188 154.359375 110.367188 154.621094 110.492188 154.886719 C 110.566406 155.046875 110.644531 155.207031 110.722656 155.371094 C 113.371094 160.882812 118.085938 169.304688 122.191406 176.4375 C 126.339844 183.644531 129.867188 189.527344 130 189.753906 L 130.007812 189.765625 C 130.46875 188.851562 137.847656 175.445312 144.238281 163.855469 C 149.234375 154.792969 153.625 146.839844 153.625 146.839844 " fill-opacity="1" fill-rule="nonzero"/><path fill="#38b2d8" d="M 244.171875 107.910156 L 232.109375 126.582031 L 210 130.878906 L 230.222656 164.15625 L 230.285156 164.402344 C 243.519531 164.339844 258.824219 164.257812 259.84375 164.214844 C 260.710938 162.667969 261.542969 161.160156 262.316406 159.707031 C 269.726562 145.820312 244.171875 107.910156 244.171875 107.910156 " fill-opacity="1" fill-rule="nonzero"/><path fill="#38b2d8" d="M 259.839844 164.226562 C 259.710938 164.449219 256.289062 170.394531 252.011719 177.53125 C 254.675781 173.15625 257.40625 168.554688 259.839844 164.226562 " fill-opacity="1" fill-rule="nonzero"/><path fill="#38b2d8" d="M 238.890625 198.269531 C 238.890625 198.269531 238.996094 198.105469 239.195312 197.808594 C 239.089844 197.957031 238.984375 198.101562 238.882812 198.246094 L 238.890625 198.269531 " fill-opacity="1" fill-rule="nonzero"/><g clip-path="url(#d6c00806b9)"><path fill="#1d97bd" d="M 210.855469 164.488281 L 210.90625 139.109375 L 179.058594 181.808594 L 207.617188 217.480469 L 208.5 198.515625 C 208.5 198.515625 231.488281 208.34375 238.382812 198.9375 C 238.542969 198.71875 238.714844 198.484375 238.882812 198.246094 C 238.988281 198.101562 239.089844 197.957031 239.195312 197.808594 C 242.722656 192.808594 247.78125 184.589844 252.011719 177.53125 C 256.289062 170.394531 259.710938 164.449219 259.839844 164.226562 L 259.847656 164.214844 L 259.84375 164.214844 C 258.824219 164.257812 243.519531 164.339844 230.285156 164.402344 C 219.9375 164.449219 210.855469 164.488281 210.855469 164.488281 " fill-opacity="1" fill-rule="nonzero"/></g><g fill="#ffffff" fill-opacity="1"><g transform="translate(163.840102, 80.070323)"><g><path d="M 4.4375 -7.921875 C 4.9375 -7.921875 5.34375 -7.847656 5.65625 -7.703125 C 5.96875 -7.566406 6.25 -7.398438 6.5 -7.203125 C 6.59375 -7.140625 6.664062 -7.109375 6.71875 -7.109375 C 6.863281 -7.109375 6.957031 -7.328125 7 -7.765625 L 7.25 -7.765625 C 7.238281 -7.484375 7.226562 -7.140625 7.21875 -6.734375 C 7.207031 -6.328125 7.203125 -5.785156 7.203125 -5.109375 L 6.953125 -5.109375 C 6.898438 -5.546875 6.820312 -5.925781 6.71875 -6.25 C 6.613281 -6.582031 6.414062 -6.863281 6.125 -7.09375 C 5.957031 -7.257812 5.742188 -7.390625 5.484375 -7.484375 C 5.222656 -7.585938 4.957031 -7.640625 4.6875 -7.640625 C 4.289062 -7.640625 3.945312 -7.535156 3.65625 -7.328125 C 3.375 -7.117188 3.140625 -6.832031 2.953125 -6.46875 C 2.773438 -6.113281 2.640625 -5.707031 2.546875 -5.25 C 2.460938 -4.800781 2.421875 -4.335938 2.421875 -3.859375 C 2.421875 -2.546875 2.601562 -1.582031 2.96875 -0.96875 C 3.332031 -0.363281 3.851562 -0.0625 4.53125 -0.0625 C 4.707031 -0.0625 4.859375 -0.0820312 4.984375 -0.125 C 5.117188 -0.175781 5.226562 -0.226562 5.3125 -0.28125 C 5.414062 -0.351562 5.484375 -0.429688 5.515625 -0.515625 C 5.554688 -0.597656 5.578125 -0.710938 5.578125 -0.859375 L 5.578125 -1.9375 C 5.578125 -2.269531 5.546875 -2.515625 5.484375 -2.671875 C 5.429688 -2.835938 5.320312 -2.953125 5.15625 -3.015625 C 5 -3.078125 4.769531 -3.109375 4.46875 -3.109375 L 4.46875 -3.328125 C 4.613281 -3.328125 4.796875 -3.320312 5.015625 -3.3125 C 5.234375 -3.3125 5.457031 -3.304688 5.6875 -3.296875 C 5.925781 -3.296875 6.144531 -3.296875 6.34375 -3.296875 C 6.644531 -3.296875 6.921875 -3.300781 7.171875 -3.3125 C 7.429688 -3.320312 7.644531 -3.328125 7.8125 -3.328125 L 7.8125 -3.109375 C 7.664062 -3.109375 7.554688 -3.082031 7.484375 -3.03125 C 7.421875 -2.988281 7.375 -2.898438 7.34375 -2.765625 C 7.320312 -2.640625 7.3125 -2.441406 7.3125 -2.171875 L 7.3125 0 L 7.09375 0 C 7.082031 -0.125 7.050781 -0.257812 7 -0.40625 C 6.957031 -0.550781 6.882812 -0.625 6.78125 -0.625 C 6.726562 -0.625 6.660156 -0.609375 6.578125 -0.578125 C 6.492188 -0.554688 6.363281 -0.492188 6.1875 -0.390625 C 5.914062 -0.242188 5.628906 -0.113281 5.328125 0 C 5.023438 0.101562 4.710938 0.15625 4.390625 0.15625 C 3.535156 0.15625 2.816406 0 2.234375 -0.3125 C 1.648438 -0.632812 1.207031 -1.085938 0.90625 -1.671875 C 0.613281 -2.265625 0.46875 -2.972656 0.46875 -3.796875 C 0.46875 -4.628906 0.632812 -5.351562 0.96875 -5.96875 C 1.3125 -6.582031 1.78125 -7.0625 2.375 -7.40625 C 2.976562 -7.75 3.664062 -7.921875 4.4375 -7.921875 Z M 4.4375 -7.921875 "/></g></g></g><g fill="#ffffff" fill-opacity="1"><g transform="translate(171.897903, 80.070323)"><g><path d="M 5.71875 -5.796875 L 5.71875 -1.203125 C 5.71875 -0.867188 5.769531 -0.625 5.875 -0.46875 C 5.976562 -0.3125 6.160156 -0.234375 6.421875 -0.234375 L 6.421875 0 C 6.203125 -0.0195312 5.976562 -0.03125 5.75 -0.03125 C 5.4375 -0.03125 5.148438 -0.0195312 4.890625 0 C 4.628906 0.0195312 4.378906 0.0625 4.140625 0.125 L 4.140625 -0.859375 C 3.972656 -0.492188 3.734375 -0.234375 3.421875 -0.078125 C 3.109375 0.078125 2.757812 0.15625 2.375 0.15625 C 2.070312 0.15625 1.820312 0.113281 1.625 0.03125 C 1.4375 -0.0507812 1.289062 -0.15625 1.1875 -0.28125 C 1.0625 -0.414062 0.972656 -0.59375 0.921875 -0.8125 C 0.867188 -1.039062 0.84375 -1.335938 0.84375 -1.703125 L 0.84375 -4.46875 C 0.84375 -4.800781 0.789062 -5.046875 0.6875 -5.203125 C 0.59375 -5.359375 0.410156 -5.4375 0.140625 -5.4375 L 0.140625 -5.671875 C 0.378906 -5.648438 0.609375 -5.640625 0.828125 -5.640625 C 1.128906 -5.640625 1.410156 -5.648438 1.671875 -5.671875 C 1.941406 -5.703125 2.191406 -5.742188 2.421875 -5.796875 L 2.421875 -1.25 C 2.421875 -1.0625 2.4375 -0.898438 2.46875 -0.765625 C 2.5 -0.628906 2.5625 -0.519531 2.65625 -0.4375 C 2.757812 -0.363281 2.898438 -0.328125 3.078125 -0.328125 C 3.273438 -0.328125 3.453125 -0.378906 3.609375 -0.484375 C 3.765625 -0.597656 3.890625 -0.75 3.984375 -0.9375 C 4.085938 -1.132812 4.140625 -1.351562 4.140625 -1.59375 L 4.140625 -4.46875 C 4.140625 -4.800781 4.085938 -5.046875 3.984375 -5.203125 C 3.890625 -5.359375 3.707031 -5.4375 3.4375 -5.4375 L 3.4375 -5.671875 C 3.675781 -5.648438 3.90625 -5.640625 4.125 -5.640625 C 4.425781 -5.640625 4.710938 -5.648438 4.984375 -5.671875 C 5.253906 -5.703125 5.5 -5.742188 5.71875 -5.796875 Z M 5.71875 -5.796875 "/></g></g></g><g fill="#ffffff" fill-opacity="1"><g transform="translate(178.541472, 80.070323)"><g><path d="M 4.25 -5.828125 C 4.550781 -5.828125 4.796875 -5.785156 4.984375 -5.703125 C 5.179688 -5.628906 5.335938 -5.523438 5.453125 -5.390625 C 5.566406 -5.253906 5.648438 -5.070312 5.703125 -4.84375 C 5.753906 -4.625 5.78125 -4.332031 5.78125 -3.96875 L 5.78125 -1.015625 C 5.78125 -0.710938 5.828125 -0.503906 5.921875 -0.390625 C 6.015625 -0.285156 6.179688 -0.234375 6.421875 -0.234375 L 6.421875 0 C 6.285156 -0.0078125 6.082031 -0.0195312 5.8125 -0.03125 C 5.550781 -0.0390625 5.289062 -0.046875 5.03125 -0.046875 C 4.769531 -0.046875 4.507812 -0.0390625 4.25 -0.03125 C 4 -0.0195312 3.804688 -0.0078125 3.671875 0 L 3.671875 -0.234375 C 3.867188 -0.234375 4.003906 -0.285156 4.078125 -0.390625 C 4.160156 -0.503906 4.203125 -0.710938 4.203125 -1.015625 L 4.203125 -4.4375 C 4.203125 -4.613281 4.1875 -4.769531 4.15625 -4.90625 C 4.125 -5.039062 4.066406 -5.144531 3.984375 -5.21875 C 3.898438 -5.300781 3.773438 -5.34375 3.609375 -5.34375 C 3.421875 -5.34375 3.242188 -5.285156 3.078125 -5.171875 C 2.921875 -5.066406 2.789062 -4.914062 2.6875 -4.71875 C 2.59375 -4.53125 2.546875 -4.3125 2.546875 -4.0625 L 2.546875 -1.015625 C 2.546875 -0.710938 2.582031 -0.503906 2.65625 -0.390625 C 2.738281 -0.285156 2.878906 -0.234375 3.078125 -0.234375 L 3.078125 0 C 2.953125 -0.0078125 2.765625 -0.0195312 2.515625 -0.03125 C 2.273438 -0.0390625 2.03125 -0.046875 1.78125 -0.046875 C 1.5 -0.046875 1.210938 -0.0390625 0.921875 -0.03125 C 0.628906 -0.0195312 0.410156 -0.0078125 0.265625 0 L 0.265625 -0.234375 C 0.515625 -0.234375 0.691406 -0.285156 0.796875 -0.390625 C 0.910156 -0.503906 0.96875 -0.710938 0.96875 -1.015625 L 0.96875 -4.46875 C 0.96875 -4.800781 0.914062 -5.046875 0.8125 -5.203125 C 0.71875 -5.359375 0.535156 -5.4375 0.265625 -5.4375 L 0.265625 -5.671875 C 0.492188 -5.648438 0.71875 -5.640625 0.9375 -5.640625 C 1.25 -5.640625 1.535156 -5.648438 1.796875 -5.671875 C 2.066406 -5.703125 2.316406 -5.742188 2.546875 -5.796875 L 2.546875 -4.796875 C 2.722656 -5.171875 2.957031 -5.4375 3.25 -5.59375 C 3.550781 -5.75 3.882812 -5.828125 4.25 -5.828125 Z M 7.546875 -5.828125 C 7.847656 -5.828125 8.09375 -5.785156 8.28125 -5.703125 C 8.476562 -5.628906 8.632812 -5.523438 8.75 -5.390625 C 8.863281 -5.253906 8.945312 -5.070312 9 -4.84375 C 9.050781 -4.625 9.078125 -4.332031 9.078125 -3.96875 L 9.078125 -1.015625 C 9.078125 -0.710938 9.128906 -0.503906 9.234375 -0.390625 C 9.347656 -0.285156 9.53125 -0.234375 9.78125 -0.234375 L 9.78125 0 C 9.644531 -0.0078125 9.4375 -0.0195312 9.15625 -0.03125 C 8.875 -0.0390625 8.601562 -0.046875 8.34375 -0.046875 C 8.070312 -0.046875 7.804688 -0.0390625 7.546875 -0.03125 C 7.296875 -0.0195312 7.101562 -0.0078125 6.96875 0 L 6.96875 -0.234375 C 7.164062 -0.234375 7.300781 -0.285156 7.375 -0.390625 C 7.457031 -0.503906 7.5 -0.710938 7.5 -1.015625 L 7.5 -4.4375 C 7.5 -4.613281 7.484375 -4.769531 7.453125 -4.90625 C 7.421875 -5.039062 7.359375 -5.144531 7.265625 -5.21875 C 7.171875 -5.300781 7.03125 -5.34375 6.84375 -5.34375 C 6.65625 -5.34375 6.476562 -5.28125 6.3125 -5.15625 C 6.15625 -5.039062 6.023438 -4.882812 5.921875 -4.6875 C 5.828125 -4.5 5.773438 -4.28125 5.765625 -4.03125 L 5.71875 -4.703125 C 5.914062 -5.140625 6.175781 -5.4375 6.5 -5.59375 C 6.820312 -5.75 7.171875 -5.828125 7.546875 -5.828125 Z M 7.546875 -5.828125 "/></g></g></g><g fill="#ffffff" fill-opacity="1"><g transform="translate(188.462985, 80.070323)"><g><path d="M 4.03125 -5.828125 C 4.59375 -5.828125 5.0625 -5.59375 5.4375 -5.125 C 5.820312 -4.664062 6.015625 -3.953125 6.015625 -2.984375 C 6.015625 -2.222656 5.894531 -1.609375 5.65625 -1.140625 C 5.425781 -0.679688 5.117188 -0.347656 4.734375 -0.140625 C 4.359375 0.0546875 3.945312 0.15625 3.5 0.15625 C 3.195312 0.15625 2.914062 0.101562 2.65625 0 C 2.40625 -0.101562 2.1875 -0.269531 2 -0.5 L 2.15625 -0.5625 C 2.289062 -0.394531 2.445312 -0.269531 2.625 -0.1875 C 2.800781 -0.113281 2.976562 -0.078125 3.15625 -0.078125 C 3.5625 -0.078125 3.863281 -0.300781 4.0625 -0.75 C 4.257812 -1.207031 4.359375 -1.898438 4.359375 -2.828125 C 4.359375 -3.453125 4.316406 -3.945312 4.234375 -4.3125 C 4.160156 -4.6875 4.050781 -4.953125 3.90625 -5.109375 C 3.757812 -5.273438 3.582031 -5.359375 3.375 -5.359375 C 3.125 -5.359375 2.890625 -5.253906 2.671875 -5.046875 C 2.460938 -4.835938 2.34375 -4.546875 2.3125 -4.171875 L 2.265625 -4.546875 C 2.390625 -4.960938 2.609375 -5.28125 2.921875 -5.5 C 3.242188 -5.71875 3.613281 -5.828125 4.03125 -5.828125 Z M 2.34375 -8.578125 L 2.34375 -0.21875 C 2.164062 -0.25 1.976562 -0.25 1.78125 -0.21875 C 1.59375 -0.1875 1.414062 -0.132812 1.25 -0.0625 C 1.09375 0 0.960938 0.078125 0.859375 0.171875 L 0.6875 0.078125 C 0.71875 -0.0234375 0.738281 -0.128906 0.75 -0.234375 C 0.757812 -0.335938 0.765625 -0.4375 0.765625 -0.53125 L 0.765625 -7.265625 C 0.765625 -7.585938 0.710938 -7.828125 0.609375 -7.984375 C 0.515625 -8.140625 0.332031 -8.21875 0.0625 -8.21875 L 0.0625 -8.453125 C 0.300781 -8.429688 0.53125 -8.421875 0.75 -8.421875 C 1.050781 -8.421875 1.332031 -8.429688 1.59375 -8.453125 C 1.863281 -8.484375 2.113281 -8.523438 2.34375 -8.578125 Z M 2.34375 -8.578125 "/></g></g></g><g fill="#ffffff" fill-opacity="1"><g transform="translate(194.887298, 80.070323)"><g><path d="M 3.09375 -5.828125 C 3.625 -5.828125 4.085938 -5.726562 4.484375 -5.53125 C 4.890625 -5.332031 5.207031 -5.015625 5.4375 -4.578125 C 5.664062 -4.140625 5.78125 -3.554688 5.78125 -2.828125 C 5.78125 -2.109375 5.664062 -1.53125 5.4375 -1.09375 C 5.207031 -0.65625 4.890625 -0.335938 4.484375 -0.140625 C 4.085938 0.0546875 3.625 0.15625 3.09375 0.15625 C 2.570312 0.15625 2.109375 0.0546875 1.703125 -0.140625 C 1.296875 -0.335938 0.976562 -0.65625 0.75 -1.09375 C 0.519531 -1.53125 0.40625 -2.109375 0.40625 -2.828125 C 0.40625 -3.554688 0.519531 -4.140625 0.75 -4.578125 C 0.976562 -5.015625 1.296875 -5.332031 1.703125 -5.53125 C 2.109375 -5.726562 2.570312 -5.828125 3.09375 -5.828125 Z M 3.09375 -5.609375 C 2.800781 -5.609375 2.554688 -5.390625 2.359375 -4.953125 C 2.160156 -4.515625 2.0625 -3.804688 2.0625 -2.828125 C 2.0625 -1.847656 2.160156 -1.140625 2.359375 -0.703125 C 2.554688 -0.273438 2.800781 -0.0625 3.09375 -0.0625 C 3.394531 -0.0625 3.640625 -0.273438 3.828125 -0.703125 C 4.023438 -1.140625 4.125 -1.847656 4.125 -2.828125 C 4.125 -3.804688 4.023438 -4.515625 3.828125 -4.953125 C 3.640625 -5.390625 3.394531 -5.609375 3.09375 -5.609375 Z M 3.09375 -5.609375 "/></g></g></g><g fill="#ffffff" fill-opacity="1"><g transform="translate(201.081386, 80.070323)"><g><path d="M 3.09375 -5.828125 C 3.625 -5.828125 4.085938 -5.726562 4.484375 -5.53125 C 4.890625 -5.332031 5.207031 -5.015625 5.4375 -4.578125 C 5.664062 -4.140625 5.78125 -3.554688 5.78125 -2.828125 C 5.78125 -2.109375 5.664062 -1.53125 5.4375 -1.09375 C 5.207031 -0.65625 4.890625 -0.335938 4.484375 -0.140625 C 4.085938 0.0546875 3.625 0.15625 3.09375 0.15625 C 2.570312 0.15625 2.109375 0.0546875 1.703125 -0.140625 C 1.296875 -0.335938 0.976562 -0.65625 0.75 -1.09375 C 0.519531 -1.53125 0.40625 -2.109375 0.40625 -2.828125 C 0.40625 -3.554688 0.519531 -4.140625 0.75 -4.578125 C 0.976562 -5.015625 1.296875 -5.332031 1.703125 -5.53125 C 2.109375 -5.726562 2.570312 -5.828125 3.09375 -5.828125 Z M 3.09375 -5.609375 C 2.800781 -5.609375 2.554688 -5.390625 2.359375 -4.953125 C 2.160156 -4.515625 2.0625 -3.804688 2.0625 -2.828125 C 2.0625 -1.847656 2.160156 -1.140625 2.359375 -0.703125 C 2.554688 -0.273438 2.800781 -0.0625 3.09375 -0.0625 C 3.394531 -0.0625 3.640625 -0.273438 3.828125 -0.703125 C 4.023438 -1.140625 4.125 -1.847656 4.125 -2.828125 C 4.125 -3.804688 4.023438 -4.515625 3.828125 -4.953125 C 3.640625 -5.390625 3.394531 -5.609375 3.09375 -5.609375 Z M 3.09375 -5.609375 "/></g></g></g><g fill="#ffffff" fill-opacity="1"><g transform="translate(207.275474, 80.070323)"><g><path d="M 2.484375 -7.46875 L 2.484375 -5.671875 L 3.78125 -5.671875 L 3.78125 -5.453125 L 2.484375 -5.453125 L 2.484375 -1.015625 C 2.484375 -0.796875 2.523438 -0.640625 2.609375 -0.546875 C 2.691406 -0.460938 2.8125 -0.421875 2.96875 -0.421875 C 3.101562 -0.421875 3.234375 -0.46875 3.359375 -0.5625 C 3.492188 -0.664062 3.613281 -0.835938 3.71875 -1.078125 L 3.90625 -0.96875 C 3.789062 -0.644531 3.613281 -0.375 3.375 -0.15625 C 3.132812 0.0507812 2.8125 0.15625 2.40625 0.15625 C 2.164062 0.15625 1.953125 0.125 1.765625 0.0625 C 1.578125 0 1.425781 -0.09375 1.3125 -0.21875 C 1.144531 -0.375 1.035156 -0.570312 0.984375 -0.8125 C 0.929688 -1.050781 0.90625 -1.363281 0.90625 -1.75 L 0.90625 -5.453125 L -0.015625 -5.453125 L -0.015625 -5.671875 L 0.90625 -5.671875 L 0.90625 -7.125 C 1.21875 -7.125 1.503906 -7.148438 1.765625 -7.203125 C 2.023438 -7.253906 2.265625 -7.34375 2.484375 -7.46875 Z M 2.484375 -7.46875 "/></g></g></g></svg>