<svg xmlns="http://www.w3.org/2000/svg" xmlns:xlink="http://www.w3.org/1999/xlink" width="500" zoomAndPan="magnify" viewBox="0 0 375 281.25" height="375" preserveAspectRatio="xMidYMid meet" version="1.0"><defs><g/><clipPath id="04664b5030"><path d="M 28.550781 26.179688 L 347 26.179688 L 347 256.027344 L 28.550781 256.027344 Z M 28.550781 26.179688 " clip-rule="nonzero"/></clipPath><clipPath id="4a8e0959d1"><path d="M 42.011719 26.179688 L 332.988281 26.179688 C 336.558594 26.179688 339.984375 27.597656 342.507812 30.121094 C 345.03125 32.644531 346.449219 36.070312 346.449219 39.640625 L 346.449219 242.5625 C 346.449219 246.132812 345.03125 249.558594 342.507812 252.082031 C 339.984375 254.609375 336.558594 256.027344 332.988281 256.027344 L 42.011719 256.027344 C 38.441406 256.027344 35.015625 254.609375 32.492188 252.082031 C 29.96875 249.558594 28.550781 246.132812 28.550781 242.5625 L 28.550781 39.640625 C 28.550781 32.207031 34.578125 26.179688 42.011719 26.179688 Z M 42.011719 26.179688 " clip-rule="nonzero"/></clipPath><clipPath id="a0baf1c4a6"><path d="M 0.550781 0.179688 L 318.617188 0.179688 L 318.617188 230.027344 L 0.550781 230.027344 Z M 0.550781 0.179688 " clip-rule="nonzero"/></clipPath><clipPath id="802e20a24a"><path d="M 14.011719 0.179688 L 304.988281 0.179688 C 308.558594 0.179688 311.984375 1.597656 314.507812 4.121094 C 317.03125 6.644531 318.449219 10.070312 318.449219 13.640625 L 318.449219 216.5625 C 318.449219 220.132812 317.03125 223.558594 314.507812 226.082031 C 311.984375 228.609375 308.558594 230.027344 304.988281 230.027344 L 14.011719 230.027344 C 10.441406 230.027344 7.015625 228.609375 4.492188 226.082031 C 1.96875 223.558594 0.550781 220.132812 0.550781 216.5625 L 0.550781 13.640625 C 0.550781 6.207031 6.578125 0.179688 14.011719 0.179688 Z M 14.011719 0.179688 " clip-rule="nonzero"/></clipPath><clipPath id="7f58c5cac6"><rect x="0" width="319" y="0" height="231"/></clipPath><clipPath id="5587f2e40d"><path d="M 123.855469 52.96875 L 251.019531 52.96875 L 251.019531 227.253906 L 123.855469 227.253906 Z M 123.855469 52.96875 " clip-rule="nonzero"/></clipPath><clipPath id="b26ec45406"><path d="M -225.355469 -144.355469 L 271.144531 -144.355469 C 302.886719 -144.355469 328.625 -118.632812 328.625 -86.90625 L 328.625 225.988281 C 328.625 257.71875 302.886719 283.433594 271.144531 283.433594 L -225.355469 283.433594 C -257.09375 283.433594 -282.832031 257.71875 -282.832031 225.988281 L -282.832031 -86.90625 C -282.832031 -118.632812 -257.09375 -144.355469 -225.355469 -144.355469 " clip-rule="nonzero"/></clipPath><clipPath id="ea2fbf5a09"><path d="M 134.148438 60 L 244 60 L 244 181 L 134.148438 181 Z M 134.148438 60 " clip-rule="nonzero"/></clipPath><clipPath id="33db4891a6"><path d="M 161 119 L 215 119 L 215 219.761719 L 161 219.761719 Z M 161 119 " clip-rule="nonzero"/></clipPath></defs><g clip-path="url(#04664b5030)"><g clip-path="url(#4a8e0959d1)"><g transform="matrix(1, 0, 0, 1, 28, 26)"><g clip-path="url(#7f58c5cac6)"><g clip-path="url(#a0baf1c4a6)"><g clip-path="url(#802e20a24a)"><path fill="#d3d9dd" d="M 0.550781 0.179688 L 318.386719 0.179688 L 318.386719 230.027344 L 0.550781 230.027344 Z M 0.550781 0.179688 " fill-opacity="1" fill-rule="nonzero"/></g></g></g></g></g></g><g clip-path="url(#5587f2e40d)"><g clip-path="url(#b26ec45406)"><path fill="#d3d9dd" d="M -282.832031 -144.355469 L 328.625 -144.355469 L 328.625 283.433594 L -282.832031 283.433594 Z M -282.832031 -144.355469 " fill-opacity="1" fill-rule="nonzero"/></g></g><g clip-path="url(#ea2fbf5a09)"><path fill="#e6e6e6" d="M 243.3125 116.960938 C 242.582031 134.890625 235.652344 147.804688 224.269531 156.132812 C 215.117188 163.265625 209.316406 171.21875 209.832031 180.644531 L 166.914062 180.644531 C 167.371094 173.101562 162.628906 164.445312 154.039062 155.203125 C 142.222656 144.640625 134.164062 128.691406 134.386719 112.484375 C 134.832031 79.574219 159.683594 63.558594 191.609375 61 C 223.285156 59.660156 244.199219 95.191406 243.3125 116.960938 Z M 243.3125 116.960938 " fill-opacity="1" fill-rule="nonzero"/></g><g clip-path="url(#33db4891a6)"><path fill="#1d97bd" d="M 171.117188 123.050781 C 171.136719 123.046875 171.15625 123.039062 171.167969 123.039062 C 171.195312 123.039062 171.214844 123.039062 171.238281 123.039062 C 171.195312 123.050781 171.144531 123.0625 171.117188 123.050781 Z M 198.351562 123.007812 C 198.335938 123.027344 198.300781 123.046875 198.257812 123.0625 C 198.296875 123.058594 198.339844 123.03125 198.359375 123.007812 C 198.359375 123.007812 198.359375 123.007812 198.351562 123.007812 Z M 171.074219 123.0625 C 171.074219 123.0625 171.074219 123.0625 171.074219 123.070312 C 171.074219 123.0625 171.078125 123.0625 171.078125 123.0625 C 171.078125 123.0625 171.078125 123.0625 171.074219 123.0625 Z M 200.402344 122.820312 C 200.402344 122.820312 200.394531 122.816406 200.394531 122.816406 C 200.355469 122.828125 200.300781 122.828125 200.234375 122.816406 C 200.261719 122.835938 200.34375 122.847656 200.402344 122.820312 Z M 212.449219 199.734375 C 213.09375 200.238281 213.628906 200.882812 214.007812 201.597656 C 214.519531 202.5625 214.753906 203.65625 214.671875 204.722656 C 214.652344 205.257812 214.519531 205.78125 214.359375 206.285156 C 214.179688 206.789062 213.925781 207.261719 213.625 207.695312 C 213.003906 208.550781 212.175781 209.246094 211.210938 209.660156 C 211.097656 209.722656 210.976562 209.769531 210.847656 209.804688 C 210.726562 209.851562 210.605469 209.902344 210.476562 209.933594 C 210.222656 209.996094 209.972656 210.066406 209.710938 210.097656 C 209.195312 210.1875 208.671875 210.164062 208.175781 210.167969 C 207.167969 210.175781 206.15625 210.175781 205.148438 210.203125 C 204.886719 210.203125 204.621094 210.214844 204.359375 210.21875 C 204.320312 210.328125 204.277344 210.4375 204.230469 210.546875 C 204.015625 211.140625 203.835938 211.726562 203.605469 212.332031 C 203.507812 212.636719 203.351562 212.917969 203.234375 213.21875 C 203.101562 213.503906 202.933594 213.785156 202.789062 214.074219 C 202.144531 215.183594 201.3125 216.203125 200.3125 217.058594 C 199.3125 217.917969 198.136719 218.5625 196.886719 219.007812 C 196.265625 219.238281 195.628906 219.410156 194.972656 219.539062 C 194.320312 219.667969 193.664062 219.75 193 219.761719 C 192.65625 219.78125 192.347656 219.773438 192.035156 219.773438 L 191.097656 219.753906 C 190.472656 219.742188 189.847656 219.722656 189.222656 219.691406 C 186.71875 219.578125 178.425781 219.117188 176.839844 218.609375 C 175.257812 218.085938 173.757812 217.21875 172.578125 215.992188 C 172.273438 215.707031 172.023438 215.355469 171.753906 215.023438 C 171.53125 214.660156 171.289062 214.316406 171.117188 213.925781 C 170.914062 213.550781 170.78125 213.148438 170.632812 212.753906 C 170.5625 212.554688 170.523438 212.351562 170.464844 212.148438 C 170.410156 211.941406 170.363281 211.746094 170.328125 211.554688 C 170.242188 211.125 170.148438 210.699219 170.046875 210.277344 C 169.820312 210.289062 169.605469 210.304688 169.382812 210.308594 L 168.011719 210.355469 C 167.78125 210.367188 167.558594 210.378906 167.320312 210.378906 C 167.078125 210.367188 166.828125 210.386719 166.585938 210.347656 C 165.605469 210.253906 164.640625 209.894531 163.828125 209.316406 C 162.164062 208.1875 161.183594 206.140625 161.289062 204.109375 C 161.375 202.414062 162.226562 200.773438 163.554688 199.710938 C 162.976562 199.242188 162.472656 198.675781 162.101562 198.03125 C 161.558594 197.089844 161.277344 196.003906 161.289062 194.925781 C 161.304688 193.847656 161.609375 192.777344 162.164062 191.859375 C 162.578125 191.175781 163.128906 190.582031 163.765625 190.117188 C 163.152344 189.632812 162.644531 189.03125 162.265625 188.363281 C 161.757812 187.4375 161.507812 186.386719 161.539062 185.359375 C 161.582031 184.324219 161.863281 183.300781 162.417969 182.445312 C 162.957031 181.578125 163.726562 180.867188 164.609375 180.382812 C 165.5 179.917969 166.511719 179.664062 167.511719 179.6875 C 168.480469 179.675781 169.457031 179.683594 170.429688 179.65625 C 172.375 179.625 174.320312 179.53125 176.265625 179.464844 C 178.355469 179.371094 180.433594 179.332031 182.519531 179.324219 C 182.519531 178.191406 182.515625 177.0625 182.507812 175.925781 C 182.4375 168.355469 182.144531 160.785156 181.621094 153.226562 C 181.410156 150.152344 181.1875 147.070312 180.84375 144.011719 C 177.835938 142.570312 175.175781 140.394531 173.113281 137.757812 C 171.207031 135.316406 169.746094 132.574219 168.839844 129.613281 C 168.394531 128.128906 168.105469 126.605469 167.945312 125.066406 C 167.761719 123.289062 167.8125 121.113281 169.71875 120.25 C 171.460938 119.472656 173.371094 120.179688 174.839844 121.207031 C 176.265625 122.214844 177.433594 123.460938 178.429688 124.886719 C 180.390625 127.707031 181.527344 131.101562 182.355469 134.398438 C 182.972656 136.847656 183.402344 139.339844 183.726562 141.855469 C 183.734375 141.855469 183.746094 141.859375 183.753906 141.867188 C 184.070312 141.976562 184.390625 142.078125 184.714844 142.171875 C 185.324219 142.351562 185.949219 142.492188 186.574219 142.601562 C 186.644531 142.613281 186.714844 142.621094 186.785156 142.632812 C 186.886719 142.601562 187.191406 142.683594 187.289062 142.695312 C 187.582031 142.722656 187.875 142.742188 188.167969 142.761719 C 188.8125 142.785156 189.453125 142.777344 190.089844 142.742188 C 190.101562 142.742188 190.113281 142.734375 190.121094 142.734375 C 190.554688 137.988281 191.277344 133.269531 192.285156 128.613281 C 192.675781 126.832031 193.023438 125.023438 193.808594 123.363281 C 194.550781 121.800781 195.8125 120.628906 197.433594 120.027344 C 200.234375 118.984375 203.824219 120.097656 205.699219 122.363281 C 207.984375 125.125 208.371094 128.847656 207.585938 132.25 C 206.941406 135.035156 205.460938 137.601562 203.515625 139.6875 C 200.773438 142.621094 197.019531 144.636719 193.050781 145.46875 C 193.019531 145.960938 192.972656 146.453125 192.949219 146.945312 C 192.75 150.546875 192.71875 154.15625 192.851562 157.765625 C 192.992188 161.398438 193.304688 165.011719 193.785156 168.609375 C 193.789062 168.648438 193.789062 168.6875 193.796875 168.726562 C 193.816406 168.847656 193.828125 168.96875 193.847656 169.089844 C 193.878906 169.3125 193.910156 169.527344 193.945312 169.75 C 194.007812 170.191406 194.078125 170.632812 194.148438 171.070312 C 194.289062 171.945312 194.433594 172.824219 194.59375 173.699219 C 194.925781 175.5 195.304688 177.289062 195.71875 179.078125 C 195.757812 179.230469 195.761719 179.390625 195.757812 179.535156 C 199.042969 179.617188 202.054688 179.683594 202.585938 179.65625 C 203.566406 179.605469 204.554688 179.566406 205.546875 179.535156 L 208.875 179.421875 L 209.277344 179.433594 C 209.414062 179.425781 209.546875 179.445312 209.679688 179.464844 C 209.808594 179.484375 209.941406 179.496094 210.074219 179.523438 C 210.597656 179.632812 211.121094 179.789062 211.609375 180.035156 C 213.554688 180.972656 214.925781 183.054688 214.953125 185.261719 C 214.976562 186.355469 214.703125 187.464844 214.152344 188.421875 C 213.777344 189.082031 213.261719 189.664062 212.667969 190.136719 C 213.246094 190.609375 213.746094 191.175781 214.117188 191.828125 C 214.65625 192.765625 214.945312 193.847656 214.933594 194.925781 C 214.917969 196.003906 214.613281 197.074219 214.058594 197.992188 C 213.644531 198.675781 213.09375 199.269531 212.449219 199.734375 Z M 195.640625 141.40625 C 195.636719 141.414062 195.507812 141.464844 195.46875 141.484375 C 195.539062 141.457031 195.621094 141.433594 195.640625 141.40625 Z M 193.773438 138.179688 C 193.765625 138.246094 193.765625 138.226562 193.773438 138.179688 Z M 193.320312 142.1875 C 194.007812 142 194.691406 141.785156 195.355469 141.523438 C 195.375 141.515625 195.410156 141.503906 195.457031 141.484375 C 195.449219 141.484375 195.476562 141.476562 195.550781 141.441406 C 195.699219 141.375 195.839844 141.320312 195.980469 141.25 C 196.246094 141.128906 196.515625 141 196.777344 140.867188 C 197.34375 140.566406 197.898438 140.246094 198.429688 139.894531 C 198.703125 139.71875 198.972656 139.527344 199.242188 139.335938 C 199.285156 139.296875 199.335938 139.257812 199.386719 139.226562 C 199.503906 139.128906 199.617188 139.042969 199.730469 138.945312 C 200.203125 138.550781 200.65625 138.136719 201.085938 137.695312 C 201.328125 137.445312 201.558594 137.199219 201.773438 136.9375 C 201.863281 136.835938 201.953125 136.734375 202.035156 136.625 C 202.074219 136.578125 202.105469 136.535156 202.144531 136.488281 C 202.5 135.972656 202.863281 135.476562 203.179688 134.933594 C 203.34375 134.652344 203.492188 134.367188 203.636719 134.078125 C 203.699219 133.9375 203.769531 133.804688 203.835938 133.664062 C 203.859375 133.601562 203.886719 133.539062 203.917969 133.472656 C 204.039062 133.207031 203.886719 133.5625 203.878906 133.5625 C 203.929688 133.550781 204.066406 133.089844 204.082031 133.039062 C 204.136719 132.894531 204.1875 132.746094 204.238281 132.597656 C 204.332031 132.304688 204.414062 132.011719 204.492188 131.714844 C 204.589844 131.335938 204.671875 130.960938 204.726562 130.585938 C 204.742188 130.527344 204.746094 130.46875 204.761719 130.410156 C 204.761719 130.378906 204.761719 130.355469 204.765625 130.328125 C 204.785156 130.152344 204.796875 129.964844 204.8125 129.78125 C 204.835938 129.398438 204.84375 129.007812 204.832031 128.625 C 204.824219 128.441406 204.8125 128.261719 204.792969 128.082031 C 204.785156 128 204.78125 127.917969 204.773438 127.839844 C 204.761719 127.746094 204.761719 127.714844 204.761719 127.714844 C 204.722656 127.382812 204.621094 127.039062 204.535156 126.726562 C 204.492188 126.574219 204.449219 126.417969 204.398438 126.273438 C 204.363281 126.175781 204.328125 126.082031 204.292969 125.992188 C 204.28125 125.964844 204.277344 125.933594 204.261719 125.902344 C 204.160156 125.601562 203.960938 125.296875 203.796875 125.035156 C 203.699219 124.882812 203.59375 124.742188 203.496094 124.589844 C 203.496094 124.589844 203.492188 124.582031 203.492188 124.582031 C 203.492188 124.574219 203.492188 124.574219 203.484375 124.574219 C 203.4375 124.523438 203.394531 124.46875 203.351562 124.417969 C 203.140625 124.179688 202.898438 123.988281 202.667969 123.773438 C 202.617188 123.734375 202.558594 123.695312 202.507812 123.65625 C 202.394531 123.582031 202.273438 123.511719 202.148438 123.441406 C 201.992188 123.34375 201.820312 123.261719 201.644531 123.179688 C 201.628906 123.167969 201.613281 123.160156 201.601562 123.152344 C 201.542969 123.132812 201.492188 123.117188 201.492188 123.117188 C 201.207031 123.011719 200.90625 122.925781 200.605469 122.859375 C 200.535156 122.847656 200.472656 122.835938 200.402344 122.820312 C 200.410156 122.816406 200.410156 122.816406 200.414062 122.816406 C 200.410156 122.816406 200.402344 122.816406 200.394531 122.816406 C 200.382812 122.816406 200.363281 122.816406 200.351562 122.808594 C 200.222656 122.785156 200.203125 122.804688 200.234375 122.816406 C 200.148438 122.804688 200.058594 122.785156 200.007812 122.785156 C 199.71875 122.765625 199.425781 122.777344 199.136719 122.804688 C 199.132812 122.804688 199.132812 122.804688 199.125 122.804688 C 199.0625 122.820312 198.996094 122.828125 198.933594 122.839844 C 198.789062 122.875 198.640625 122.917969 198.5 122.960938 C 198.457031 122.976562 198.40625 122.996094 198.359375 123.007812 C 198.359375 123 198.367188 123 198.371094 122.996094 C 198.367188 123 198.359375 123.007812 198.351562 123.007812 C 198.328125 123.019531 198.296875 123.03125 198.269531 123.039062 C 198.148438 123.078125 198.195312 123.082031 198.257812 123.0625 C 198.167969 123.109375 198.046875 123.152344 198.015625 123.171875 C 197.875 123.25 197.742188 123.34375 197.605469 123.433594 C 197.601562 123.433594 197.601562 123.433594 197.601562 123.441406 C 197.550781 123.484375 197.5 123.53125 197.449219 123.574219 C 197.339844 123.683594 197.238281 123.804688 197.121094 123.917969 C 197.117188 123.925781 197.109375 123.933594 197.101562 123.9375 C 197.046875 124.019531 196.988281 124.105469 196.929688 124.1875 C 196.738281 124.488281 196.546875 124.8125 196.425781 125.136719 C 196.386719 125.246094 196.335938 125.390625 196.324219 125.429688 C 196.261719 125.609375 196.203125 125.789062 196.144531 125.964844 C 195.648438 127.625 195.316406 129.347656 194.976562 131.042969 C 194.625 132.785156 194.3125 134.539062 194.046875 136.300781 C 193.96875 136.785156 193.898438 137.273438 193.828125 137.765625 C 193.816406 137.863281 193.804688 137.964844 193.789062 138.058594 C 193.785156 138.078125 193.785156 138.089844 193.785156 138.105469 C 193.753906 138.347656 193.71875 138.582031 193.6875 138.816406 C 193.582031 139.703125 193.476562 140.585938 193.382812 141.472656 C 193.355469 141.707031 193.34375 141.949219 193.320312 142.1875 Z M 171.117188 123.019531 C 171.105469 123.03125 171.097656 123.039062 171.085938 123.046875 C 171.09375 123.046875 171.097656 123.046875 171.097656 123.039062 C 171.136719 123.007812 171.167969 122.96875 171.148438 122.949219 C 171.15625 122.957031 171.125 123 171.085938 123.046875 C 171.097656 123.039062 171.105469 123.03125 171.117188 123.019531 Z M 171.105469 123.039062 Z M 171.046875 123.078125 C 171.046875 123.078125 171.039062 123.082031 171.039062 123.082031 C 170.964844 123.121094 170.855469 123.238281 171.046875 123.078125 Z M 180.332031 140.164062 C 180.320312 140.0625 180.300781 139.953125 180.28125 139.84375 C 180.132812 138.953125 179.96875 138.054688 179.785156 137.167969 C 179.40625 135.414062 178.953125 133.675781 178.378906 131.972656 C 178.246094 131.566406 178.097656 131.15625 177.953125 130.757812 C 177.894531 130.601562 177.832031 130.449219 177.773438 130.304688 C 177.742188 130.226562 177.710938 130.152344 177.683594 130.074219 C 177.675781 130.066406 177.632812 129.960938 177.609375 129.894531 C 177.574219 129.824219 177.539062 129.734375 177.523438 129.714844 C 177.492188 129.640625 177.460938 129.570312 177.429688 129.492188 C 177.351562 129.328125 177.269531 129.160156 177.191406 128.996094 C 177.03125 128.664062 176.859375 128.339844 176.6875 128.015625 C 176.332031 127.375 175.949219 126.757812 175.515625 126.171875 C 175.507812 126.15625 175.488281 126.132812 175.464844 126.09375 C 175.417969 126.035156 175.367188 125.972656 175.324219 125.914062 C 175.195312 125.761719 175.066406 125.609375 174.933594 125.460938 C 174.710938 125.207031 174.472656 124.964844 174.230469 124.730469 C 173.96875 124.480469 173.683594 124.175781 173.375 123.984375 C 173.703125 124.1875 173.242188 123.894531 173.160156 123.84375 C 173.011719 123.742188 172.859375 123.636719 172.707031 123.550781 C 172.546875 123.445312 172.382812 123.351562 172.207031 123.269531 C 172.191406 123.253906 172.152344 123.238281 172.121094 123.21875 C 172.105469 123.21875 172.085938 123.210938 172.074219 123.210938 C 171.894531 123.152344 171.722656 123.097656 171.539062 123.050781 C 171.527344 123.050781 171.511719 123.050781 171.5 123.050781 C 171.550781 123.0625 171.53125 123.082031 171.390625 123.039062 C 171.40625 123.039062 171.417969 123.039062 171.417969 123.039062 C 171.425781 123.039062 171.429688 123.039062 171.429688 123.039062 C 171.390625 123.03125 171.355469 123.027344 171.320312 123.011719 C 171.347656 123.027344 171.371094 123.03125 171.390625 123.039062 C 171.355469 123.039062 171.296875 123.039062 171.238281 123.039062 C 171.300781 123.011719 171.347656 122.988281 171.21875 123.027344 C 171.199219 123.027344 171.1875 123.03125 171.167969 123.039062 C 171.148438 123.039062 171.128906 123.039062 171.117188 123.039062 C 171.117188 123.039062 171.109375 123.039062 171.109375 123.046875 C 171.109375 123.046875 171.109375 123.050781 171.117188 123.050781 C 171.105469 123.050781 171.09375 123.058594 171.078125 123.058594 C 171.078125 123.058594 171.078125 123.058594 171.085938 123.058594 C 171.078125 123.058594 171.078125 123.058594 171.074219 123.0625 C 171.074219 123.0625 171.066406 123.0625 171.066406 123.070312 C 171.066406 123.070312 171.066406 123.070312 171.058594 123.070312 C 171.066406 123.070312 171.066406 123.070312 171.074219 123.070312 C 171.066406 123.070312 171.066406 123.078125 171.058594 123.082031 C 171.058594 123.089844 171.054688 123.089844 171.054688 123.097656 C 171.046875 123.117188 171.039062 123.132812 171.039062 123.152344 C 171.027344 123.199219 171.003906 123.414062 170.996094 123.429688 C 170.996094 123.433594 170.996094 123.445312 170.996094 123.445312 C 170.984375 123.632812 170.988281 123.8125 170.996094 123.996094 C 171.015625 124.332031 171.039062 124.671875 171.078125 125.007812 C 171.09375 125.195312 171.136719 125.386719 171.144531 125.570312 C 171.128906 125.144531 171.144531 125.582031 171.164062 125.710938 C 171.214844 126.042969 171.277344 126.375 171.339844 126.707031 C 171.480469 127.390625 171.648438 128.058594 171.851562 128.726562 C 172.050781 129.390625 172.277344 130.046875 172.539062 130.691406 C 172.546875 130.710938 172.558594 130.742188 172.574219 130.777344 C 172.597656 130.832031 172.625 130.882812 172.648438 130.941406 C 172.714844 131.09375 172.78125 131.246094 172.851562 131.40625 C 172.988281 131.695312 173.128906 131.980469 173.273438 132.261719 C 173.59375 132.878906 173.945312 133.484375 174.316406 134.074219 C 174.507812 134.371094 174.703125 134.667969 174.90625 134.960938 C 175.003906 135.09375 175.105469 135.234375 175.203125 135.367188 C 175.238281 135.417969 175.398438 135.636719 175.417969 135.667969 C 175.414062 135.65625 175.386719 135.621094 175.328125 135.546875 C 176.121094 136.636719 177.117188 137.625 178.125 138.511719 C 178.390625 138.75 178.660156 138.972656 178.933594 139.195312 C 178.972656 139.21875 179.011719 139.25 179.050781 139.277344 C 179.070312 139.296875 179.089844 139.308594 179.105469 139.320312 C 179.242188 139.417969 179.375 139.519531 179.507812 139.617188 C 179.777344 139.808594 180.050781 139.992188 180.332031 140.164062 Z M 191.027344 142.652344 C 191.035156 142.652344 191.039062 142.652344 191.039062 142.652344 C 191.070312 142.644531 191.125 142.636719 191.167969 142.632812 C 191.28125 142.605469 191.117188 142.574219 191.027344 142.652344 Z M 186.804688 142.632812 C 186.828125 142.636719 186.855469 142.644531 186.878906 142.644531 C 187.128906 142.691406 186.890625 142.644531 186.804688 142.632812 Z M 184.109375 145.226562 C 184.128906 145.445312 184.15625 145.667969 184.175781 145.886719 C 184.542969 149.792969 184.8125 153.71875 185.035156 157.640625 C 185.449219 164.867188 185.65625 172.097656 185.65625 179.339844 C 186.421875 179.34375 187.179688 179.355469 187.945312 179.363281 C 189.105469 179.382812 190.785156 179.421875 192.597656 179.464844 C 192.214844 177.800781 191.871094 176.136719 191.5625 174.457031 C 190.183594 166.90625 189.535156 159.214844 189.648438 151.535156 C 189.679688 149.648438 189.757812 147.761719 189.878906 145.871094 C 189.363281 145.898438 188.84375 145.910156 188.328125 145.890625 C 186.886719 145.835938 185.476562 145.605469 184.109375 145.226562 Z M 184.109375 145.226562 " fill-opacity="1" fill-rule="nonzero"/></g><path fill="#1d97bd" d="M 212.449219 199.734375 C 213.09375 200.238281 213.628906 200.882812 214.007812 201.597656 C 214.519531 202.5625 214.753906 203.65625 214.671875 204.722656 C 214.652344 205.257812 214.519531 205.78125 214.359375 206.285156 C 214.179688 206.789062 213.925781 207.261719 213.625 207.695312 C 213.003906 208.550781 212.175781 209.246094 211.210938 209.660156 C 211.097656 209.722656 210.976562 209.769531 210.847656 209.804688 C 210.726562 209.851562 210.605469 209.902344 210.476562 209.933594 C 210.222656 209.996094 209.972656 210.066406 209.710938 210.097656 C 209.195312 210.1875 208.671875 210.164062 208.175781 210.167969 C 207.167969 210.175781 206.15625 210.175781 205.148438 210.203125 C 203.125 210.234375 201.109375 210.328125 199.09375 210.386719 C 195.054688 210.566406 191.019531 210.539062 186.980469 210.480469 C 182.949219 210.417969 178.910156 210.304688 174.875 210.042969 C 173.957031 210.105469 173.042969 210.144531 172.132812 210.1875 C 171.214844 210.238281 170.300781 210.277344 169.386719 210.308594 L 168.011719 210.355469 C 167.78125 210.359375 167.558594 210.375 167.320312 210.378906 C 167.078125 210.367188 166.828125 210.386719 166.585938 210.347656 C 165.605469 210.253906 164.640625 209.894531 163.828125 209.316406 C 162.164062 208.1875 161.183594 206.140625 161.289062 204.109375 C 161.375 202.414062 162.226562 200.773438 163.554688 199.710938 C 162.976562 199.242188 162.472656 198.675781 162.105469 198.03125 C 161.558594 197.089844 161.277344 196.003906 161.289062 194.925781 C 161.304688 193.847656 161.609375 192.777344 162.164062 191.859375 C 162.578125 191.175781 163.128906 190.582031 163.765625 190.117188 C 163.160156 189.632812 162.644531 189.03125 162.265625 188.363281 C 161.757812 187.4375 161.507812 186.386719 161.539062 185.351562 C 161.582031 184.324219 161.863281 183.300781 162.417969 182.445312 C 162.957031 181.578125 163.726562 180.867188 164.609375 180.382812 C 165.5 179.910156 166.511719 179.664062 167.511719 179.6875 C 168.480469 179.675781 169.457031 179.683594 170.429688 179.65625 C 172.375 179.625 174.320312 179.523438 176.265625 179.464844 C 180.160156 179.285156 184.050781 179.304688 187.945312 179.363281 C 191.839844 179.425781 201.59375 179.703125 202.585938 179.65625 C 203.566406 179.605469 204.554688 179.566406 205.546875 179.535156 L 208.875 179.421875 L 209.277344 179.433594 C 209.414062 179.425781 209.546875 179.445312 209.679688 179.464844 C 209.808594 179.484375 209.941406 179.496094 210.074219 179.523438 C 210.597656 179.632812 211.121094 179.789062 211.609375 180.027344 C 213.554688 180.972656 214.925781 183.054688 214.953125 185.261719 C 214.976562 186.355469 214.703125 187.464844 214.152344 188.421875 C 213.777344 189.082031 213.261719 189.664062 212.667969 190.136719 C 213.246094 190.601562 213.746094 191.175781 214.117188 191.828125 C 214.65625 192.765625 214.945312 193.847656 214.933594 194.925781 C 214.917969 196.003906 214.613281 197.074219 214.058594 197.988281 C 213.644531 198.675781 213.09375 199.269531 212.449219 199.734375 Z M 212.449219 199.734375 " fill-opacity="1" fill-rule="nonzero"/><path fill="#ffffff" d="M 175.226562 75.402344 C 184.574219 80.222656 165.035156 95.242188 157.550781 108.203125 C 151.707031 118.324219 149.0625 131.707031 145.050781 126.546875 C 141.035156 121.386719 143.390625 102.449219 150.191406 91.773438 C 156.996094 81.097656 169.835938 72.625 175.226562 75.402344 Z M 187.710938 69.296875 C 184.402344 70.296875 181.953125 73.671875 182.839844 76.109375 C 183.96875 79.226562 186.515625 80.824219 190.445312 79.726562 C 192.992188 79.015625 196.476562 75.75 195.375 72.8125 C 194.121094 69.898438 191.53125 68.144531 187.710938 69.296875 Z M 187.710938 69.296875 " fill-opacity="1" fill-rule="nonzero"/><path fill="#f5b95b" d="M 206.828125 156.863281 C 198.519531 153.910156 214.585938 142.714844 220.375 133.433594 C 224.894531 126.195312 226.484375 116.828125 230.210938 120.234375 C 233.929688 123.636719 232.871094 136.839844 227.554688 144.507812 C 222.238281 152.175781 211.609375 158.566406 206.828125 156.863281 Z M 206.828125 156.863281 " fill-opacity="1" fill-rule="nonzero"/><g fill="#ffffff" fill-opacity="1"><g transform="translate(161.677899, 197.937636)"><g><path d="M 4.84375 -8.640625 C 5.382812 -8.640625 5.828125 -8.5625 6.171875 -8.40625 C 6.515625 -8.257812 6.820312 -8.078125 7.09375 -7.859375 C 7.1875 -7.785156 7.269531 -7.75 7.34375 -7.75 C 7.488281 -7.75 7.585938 -7.988281 7.640625 -8.46875 L 7.90625 -8.46875 C 7.894531 -8.15625 7.882812 -7.773438 7.875 -7.328125 C 7.863281 -6.890625 7.859375 -6.304688 7.859375 -5.578125 L 7.59375 -5.578125 C 7.53125 -6.054688 7.441406 -6.472656 7.328125 -6.828125 C 7.210938 -7.179688 7 -7.488281 6.6875 -7.75 C 6.5 -7.925781 6.257812 -8.066406 5.96875 -8.171875 C 5.6875 -8.273438 5.40625 -8.328125 5.125 -8.328125 C 4.6875 -8.328125 4.3125 -8.210938 4 -7.984375 C 3.6875 -7.753906 3.429688 -7.441406 3.234375 -7.046875 C 3.035156 -6.660156 2.882812 -6.222656 2.78125 -5.734375 C 2.6875 -5.242188 2.640625 -4.738281 2.640625 -4.21875 C 2.640625 -2.78125 2.835938 -1.726562 3.234375 -1.0625 C 3.628906 -0.40625 4.195312 -0.078125 4.9375 -0.078125 C 5.132812 -0.078125 5.300781 -0.0976562 5.4375 -0.140625 C 5.582031 -0.191406 5.703125 -0.25 5.796875 -0.3125 C 5.898438 -0.394531 5.972656 -0.476562 6.015625 -0.5625 C 6.054688 -0.65625 6.078125 -0.78125 6.078125 -0.9375 L 6.078125 -2.109375 C 6.078125 -2.472656 6.046875 -2.742188 5.984375 -2.921875 C 5.929688 -3.109375 5.816406 -3.234375 5.640625 -3.296875 C 5.460938 -3.359375 5.207031 -3.394531 4.875 -3.40625 L 4.875 -3.640625 C 5.039062 -3.628906 5.238281 -3.617188 5.46875 -3.609375 C 5.707031 -3.609375 5.953125 -3.609375 6.203125 -3.609375 C 6.460938 -3.609375 6.703125 -3.609375 6.921875 -3.609375 C 7.253906 -3.609375 7.5625 -3.609375 7.84375 -3.609375 C 8.125 -3.617188 8.347656 -3.628906 8.515625 -3.640625 L 8.515625 -3.40625 C 8.367188 -3.394531 8.253906 -3.363281 8.171875 -3.3125 C 8.097656 -3.269531 8.046875 -3.175781 8.015625 -3.03125 C 7.992188 -2.882812 7.984375 -2.664062 7.984375 -2.375 L 7.984375 0 L 7.75 0 C 7.738281 -0.132812 7.707031 -0.28125 7.65625 -0.4375 C 7.601562 -0.601562 7.515625 -0.6875 7.390625 -0.6875 C 7.335938 -0.6875 7.265625 -0.671875 7.171875 -0.640625 C 7.078125 -0.609375 6.9375 -0.539062 6.75 -0.4375 C 6.457031 -0.257812 6.144531 -0.113281 5.8125 0 C 5.488281 0.113281 5.144531 0.171875 4.78125 0.171875 C 3.863281 0.171875 3.082031 0 2.4375 -0.34375 C 1.800781 -0.6875 1.320312 -1.175781 1 -1.8125 C 0.675781 -2.457031 0.515625 -3.234375 0.515625 -4.140625 C 0.515625 -5.046875 0.695312 -5.832031 1.0625 -6.5 C 1.4375 -7.175781 1.945312 -7.703125 2.59375 -8.078125 C 3.25 -8.453125 4 -8.640625 4.84375 -8.640625 Z M 4.84375 -8.640625 "/></g></g></g><g fill="#ffffff" fill-opacity="1"><g transform="translate(170.47446, 197.937636)"><g><path d="M 6.25 -6.3125 L 6.25 -1.296875 C 6.25 -0.941406 6.300781 -0.675781 6.40625 -0.5 C 6.519531 -0.332031 6.722656 -0.25 7.015625 -0.25 L 7.015625 0 C 6.765625 -0.0195312 6.515625 -0.03125 6.265625 -0.03125 C 5.929688 -0.03125 5.617188 -0.0195312 5.328125 0 C 5.046875 0.0195312 4.78125 0.0625 4.53125 0.125 L 4.53125 -0.953125 C 4.332031 -0.546875 4.0625 -0.253906 3.71875 -0.078125 C 3.382812 0.0859375 3.007812 0.171875 2.59375 0.171875 C 2.257812 0.171875 1.988281 0.125 1.78125 0.03125 C 1.570312 -0.0507812 1.410156 -0.160156 1.296875 -0.296875 C 1.160156 -0.453125 1.0625 -0.648438 1 -0.890625 C 0.945312 -1.140625 0.921875 -1.460938 0.921875 -1.859375 L 0.921875 -4.890625 C 0.921875 -5.242188 0.863281 -5.503906 0.75 -5.671875 C 0.644531 -5.847656 0.445312 -5.9375 0.15625 -5.9375 L 0.15625 -6.1875 C 0.40625 -6.164062 0.648438 -6.15625 0.890625 -6.15625 C 1.234375 -6.15625 1.550781 -6.164062 1.84375 -6.1875 C 2.132812 -6.21875 2.398438 -6.257812 2.640625 -6.3125 L 2.640625 -1.359375 C 2.640625 -1.160156 2.65625 -0.984375 2.6875 -0.828125 C 2.726562 -0.679688 2.800781 -0.566406 2.90625 -0.484375 C 3.007812 -0.398438 3.160156 -0.359375 3.359375 -0.359375 C 3.578125 -0.359375 3.769531 -0.414062 3.9375 -0.53125 C 4.113281 -0.65625 4.253906 -0.820312 4.359375 -1.03125 C 4.472656 -1.25 4.53125 -1.488281 4.53125 -1.75 L 4.53125 -4.890625 C 4.53125 -5.242188 4.472656 -5.503906 4.359375 -5.671875 C 4.253906 -5.847656 4.054688 -5.9375 3.765625 -5.9375 L 3.765625 -6.1875 C 4.015625 -6.164062 4.257812 -6.15625 4.5 -6.15625 C 4.832031 -6.15625 5.144531 -6.164062 5.4375 -6.1875 C 5.726562 -6.21875 6 -6.257812 6.25 -6.3125 Z M 6.25 -6.3125 "/></g></g></g><g fill="#ffffff" fill-opacity="1"><g transform="translate(177.72713, 197.937636)"><g><path d="M 4.625 -6.359375 C 4.96875 -6.359375 5.238281 -6.316406 5.4375 -6.234375 C 5.644531 -6.148438 5.816406 -6.035156 5.953125 -5.890625 C 6.078125 -5.734375 6.164062 -5.535156 6.21875 -5.296875 C 6.28125 -5.054688 6.3125 -4.734375 6.3125 -4.328125 L 6.3125 -1.109375 C 6.3125 -0.773438 6.363281 -0.546875 6.46875 -0.421875 C 6.570312 -0.304688 6.75 -0.25 7 -0.25 L 7 0 C 6.851562 -0.0078125 6.632812 -0.0195312 6.34375 -0.03125 C 6.050781 -0.0390625 5.769531 -0.046875 5.5 -0.046875 C 5.207031 -0.046875 4.921875 -0.0390625 4.640625 -0.03125 C 4.359375 -0.0195312 4.148438 -0.0078125 4.015625 0 L 4.015625 -0.25 C 4.222656 -0.25 4.367188 -0.304688 4.453125 -0.421875 C 4.535156 -0.546875 4.578125 -0.773438 4.578125 -1.109375 L 4.578125 -4.828125 C 4.578125 -5.035156 4.5625 -5.210938 4.53125 -5.359375 C 4.5 -5.503906 4.4375 -5.617188 4.34375 -5.703125 C 4.257812 -5.785156 4.125 -5.828125 3.9375 -5.828125 C 3.726562 -5.828125 3.535156 -5.765625 3.359375 -5.640625 C 3.179688 -5.523438 3.039062 -5.359375 2.9375 -5.140625 C 2.832031 -4.929688 2.78125 -4.695312 2.78125 -4.4375 L 2.78125 -1.109375 C 2.78125 -0.773438 2.820312 -0.546875 2.90625 -0.421875 C 3 -0.304688 3.144531 -0.25 3.34375 -0.25 L 3.34375 0 C 3.21875 -0.0078125 3.019531 -0.0195312 2.75 -0.03125 C 2.488281 -0.0390625 2.21875 -0.046875 1.9375 -0.046875 C 1.632812 -0.046875 1.320312 -0.0390625 1 -0.03125 C 0.6875 -0.0195312 0.445312 -0.0078125 0.28125 0 L 0.28125 -0.25 C 0.5625 -0.25 0.757812 -0.304688 0.875 -0.421875 C 0.988281 -0.546875 1.046875 -0.773438 1.046875 -1.109375 L 1.046875 -4.890625 C 1.046875 -5.242188 0.992188 -5.503906 0.890625 -5.671875 C 0.785156 -5.847656 0.582031 -5.9375 0.28125 -5.9375 L 0.28125 -6.1875 C 0.539062 -6.164062 0.789062 -6.15625 1.03125 -6.15625 C 1.363281 -6.15625 1.675781 -6.164062 1.96875 -6.1875 C 2.257812 -6.21875 2.53125 -6.257812 2.78125 -6.3125 L 2.78125 -5.25 C 2.96875 -5.644531 3.222656 -5.925781 3.546875 -6.09375 C 3.878906 -6.269531 4.238281 -6.359375 4.625 -6.359375 Z M 8.234375 -6.359375 C 8.566406 -6.359375 8.835938 -6.316406 9.046875 -6.234375 C 9.253906 -6.148438 9.421875 -6.035156 9.546875 -5.890625 C 9.679688 -5.734375 9.773438 -5.535156 9.828125 -5.296875 C 9.878906 -5.054688 9.90625 -4.734375 9.90625 -4.328125 L 9.90625 -1.109375 C 9.90625 -0.773438 9.960938 -0.546875 10.078125 -0.421875 C 10.191406 -0.304688 10.390625 -0.25 10.671875 -0.25 L 10.671875 0 C 10.523438 -0.0078125 10.300781 -0.0195312 10 -0.03125 C 9.695312 -0.0390625 9.394531 -0.046875 9.09375 -0.046875 C 8.8125 -0.046875 8.53125 -0.0390625 8.25 -0.03125 C 7.96875 -0.0195312 7.753906 -0.0078125 7.609375 0 L 7.609375 -0.25 C 7.828125 -0.25 7.976562 -0.304688 8.0625 -0.421875 C 8.144531 -0.546875 8.1875 -0.773438 8.1875 -1.109375 L 8.1875 -4.828125 C 8.1875 -5.035156 8.164062 -5.210938 8.125 -5.359375 C 8.09375 -5.503906 8.023438 -5.617188 7.921875 -5.703125 C 7.828125 -5.785156 7.675781 -5.828125 7.46875 -5.828125 C 7.257812 -5.828125 7.066406 -5.765625 6.890625 -5.640625 C 6.710938 -5.515625 6.570312 -5.34375 6.46875 -5.125 C 6.363281 -4.90625 6.304688 -4.664062 6.296875 -4.40625 L 6.234375 -5.140625 C 6.453125 -5.617188 6.738281 -5.941406 7.09375 -6.109375 C 7.445312 -6.273438 7.828125 -6.359375 8.234375 -6.359375 Z M 8.234375 -6.359375 "/></g></g></g><g fill="#ffffff" fill-opacity="1"><g transform="translate(188.558266, 197.937636)"><g><path d="M 4.390625 -6.359375 C 5.015625 -6.359375 5.53125 -6.101562 5.9375 -5.59375 C 6.351562 -5.082031 6.5625 -4.300781 6.5625 -3.25 C 6.5625 -2.425781 6.4375 -1.757812 6.1875 -1.25 C 5.9375 -0.75 5.601562 -0.382812 5.1875 -0.15625 C 4.769531 0.0625 4.3125 0.171875 3.8125 0.171875 C 3.488281 0.171875 3.1875 0.113281 2.90625 0 C 2.625 -0.113281 2.382812 -0.296875 2.1875 -0.546875 L 2.359375 -0.609375 C 2.503906 -0.429688 2.671875 -0.296875 2.859375 -0.203125 C 3.054688 -0.117188 3.253906 -0.078125 3.453125 -0.078125 C 3.890625 -0.078125 4.210938 -0.320312 4.421875 -0.8125 C 4.640625 -1.3125 4.75 -2.070312 4.75 -3.09375 C 4.75 -3.78125 4.707031 -4.320312 4.625 -4.71875 C 4.539062 -5.125 4.414062 -5.410156 4.25 -5.578125 C 4.09375 -5.753906 3.90625 -5.84375 3.6875 -5.84375 C 3.40625 -5.84375 3.148438 -5.726562 2.921875 -5.5 C 2.691406 -5.269531 2.5625 -4.953125 2.53125 -4.546875 L 2.46875 -4.96875 C 2.613281 -5.425781 2.851562 -5.769531 3.1875 -6 C 3.53125 -6.238281 3.929688 -6.359375 4.390625 -6.359375 Z M 2.5625 -9.359375 L 2.5625 -0.234375 C 2.363281 -0.265625 2.160156 -0.265625 1.953125 -0.234375 C 1.742188 -0.203125 1.550781 -0.148438 1.375 -0.078125 C 1.195312 -0.00390625 1.050781 0.0820312 0.9375 0.1875 L 0.75 0.078125 C 0.78125 -0.0234375 0.800781 -0.132812 0.8125 -0.25 C 0.832031 -0.363281 0.84375 -0.476562 0.84375 -0.59375 L 0.84375 -7.921875 C 0.84375 -8.285156 0.785156 -8.550781 0.671875 -8.71875 C 0.566406 -8.894531 0.367188 -8.984375 0.078125 -8.984375 L 0.078125 -9.234375 C 0.328125 -9.203125 0.570312 -9.1875 0.8125 -9.1875 C 1.132812 -9.1875 1.441406 -9.203125 1.734375 -9.234375 C 2.035156 -9.265625 2.3125 -9.304688 2.5625 -9.359375 Z M 2.5625 -9.359375 "/></g></g></g><g fill="#ffffff" fill-opacity="1"><g transform="translate(195.571581, 197.937636)"><g><path d="M 3.375 -6.359375 C 3.957031 -6.359375 4.46875 -6.25 4.90625 -6.03125 C 5.34375 -5.8125 5.6875 -5.460938 5.9375 -4.984375 C 6.1875 -4.503906 6.3125 -3.875 6.3125 -3.09375 C 6.3125 -2.300781 6.1875 -1.664062 5.9375 -1.1875 C 5.6875 -0.71875 5.34375 -0.375 4.90625 -0.15625 C 4.46875 0.0625 3.957031 0.171875 3.375 0.171875 C 2.8125 0.171875 2.304688 0.0625 1.859375 -0.15625 C 1.421875 -0.375 1.070312 -0.71875 0.8125 -1.1875 C 0.5625 -1.664062 0.4375 -2.300781 0.4375 -3.09375 C 0.4375 -3.875 0.5625 -4.503906 0.8125 -4.984375 C 1.070312 -5.460938 1.421875 -5.8125 1.859375 -6.03125 C 2.304688 -6.25 2.8125 -6.359375 3.375 -6.359375 Z M 3.375 -6.109375 C 3.050781 -6.109375 2.78125 -5.867188 2.5625 -5.390625 C 2.351562 -4.921875 2.25 -4.15625 2.25 -3.09375 C 2.25 -2.019531 2.351562 -1.25 2.5625 -0.78125 C 2.78125 -0.3125 3.050781 -0.078125 3.375 -0.078125 C 3.695312 -0.078125 3.960938 -0.3125 4.171875 -0.78125 C 4.390625 -1.25 4.5 -2.019531 4.5 -3.09375 C 4.5 -4.15625 4.390625 -4.921875 4.171875 -5.390625 C 3.960938 -5.867188 3.695312 -6.109375 3.375 -6.109375 Z M 3.375 -6.109375 "/></g></g></g><g fill="#ffffff" fill-opacity="1"><g transform="translate(202.333566, 197.937636)"><g><path d="M 3.375 -6.359375 C 3.957031 -6.359375 4.46875 -6.25 4.90625 -6.03125 C 5.34375 -5.8125 5.6875 -5.460938 5.9375 -4.984375 C 6.1875 -4.503906 6.3125 -3.875 6.3125 -3.09375 C 6.3125 -2.300781 6.1875 -1.664062 5.9375 -1.1875 C 5.6875 -0.71875 5.34375 -0.375 4.90625 -0.15625 C 4.46875 0.0625 3.957031 0.171875 3.375 0.171875 C 2.8125 0.171875 2.304688 0.0625 1.859375 -0.15625 C 1.421875 -0.375 1.070312 -0.71875 0.8125 -1.1875 C 0.5625 -1.664062 0.4375 -2.300781 0.4375 -3.09375 C 0.4375 -3.875 0.5625 -4.503906 0.8125 -4.984375 C 1.070312 -5.460938 1.421875 -5.8125 1.859375 -6.03125 C 2.304688 -6.25 2.8125 -6.359375 3.375 -6.359375 Z M 3.375 -6.109375 C 3.050781 -6.109375 2.78125 -5.867188 2.5625 -5.390625 C 2.351562 -4.921875 2.25 -4.15625 2.25 -3.09375 C 2.25 -2.019531 2.351562 -1.25 2.5625 -0.78125 C 2.78125 -0.3125 3.050781 -0.078125 3.375 -0.078125 C 3.695312 -0.078125 3.960938 -0.3125 4.171875 -0.78125 C 4.390625 -1.25 4.5 -2.019531 4.5 -3.09375 C 4.5 -4.15625 4.390625 -4.921875 4.171875 -5.390625 C 3.960938 -5.867188 3.695312 -6.109375 3.375 -6.109375 Z M 3.375 -6.109375 "/></g></g></g><g fill="#ffffff" fill-opacity="1"><g transform="translate(209.095552, 197.937636)"><g><path d="M 2.71875 -8.15625 L 2.71875 -6.1875 L 4.125 -6.1875 L 4.125 -5.953125 L 2.71875 -5.953125 L 2.71875 -1.109375 C 2.71875 -0.867188 2.757812 -0.695312 2.84375 -0.59375 C 2.9375 -0.5 3.070312 -0.453125 3.25 -0.453125 C 3.382812 -0.453125 3.523438 -0.503906 3.671875 -0.609375 C 3.816406 -0.722656 3.945312 -0.910156 4.0625 -1.171875 L 4.265625 -1.0625 C 4.128906 -0.707031 3.929688 -0.410156 3.671875 -0.171875 C 3.421875 0.0546875 3.070312 0.171875 2.625 0.171875 C 2.351562 0.171875 2.117188 0.132812 1.921875 0.0625 C 1.722656 0 1.554688 -0.0976562 1.421875 -0.234375 C 1.242188 -0.410156 1.128906 -0.628906 1.078125 -0.890625 C 1.023438 -1.148438 1 -1.488281 1 -1.90625 L 1 -5.953125 L -0.015625 -5.953125 L -0.015625 -6.1875 L 1 -6.1875 L 1 -7.765625 C 1.332031 -7.765625 1.640625 -7.796875 1.921875 -7.859375 C 2.203125 -7.921875 2.46875 -8.019531 2.71875 -8.15625 Z M 2.71875 -8.15625 "/></g></g></g></svg>