<svg xmlns="http://www.w3.org/2000/svg" xmlns:xlink="http://www.w3.org/1999/xlink" width="500" zoomAndPan="magnify" viewBox="0 0 375 281.25" height="375" preserveAspectRatio="xMidYMid meet" version="1.0"><defs><g/><clipPath id="fa7d42d744"><path d="M 28.550781 26.179688 L 347 26.179688 L 347 256.027344 L 28.550781 256.027344 Z M 28.550781 26.179688 " clip-rule="nonzero"/></clipPath><clipPath id="a2edeab338"><path d="M 42.011719 26.179688 L 332.988281 26.179688 C 336.558594 26.179688 339.984375 27.597656 342.507812 30.121094 C 345.03125 32.644531 346.449219 36.070312 346.449219 39.640625 L 346.449219 242.5625 C 346.449219 246.132812 345.03125 249.558594 342.507812 252.082031 C 339.984375 254.609375 336.558594 256.027344 332.988281 256.027344 L 42.011719 256.027344 C 38.441406 256.027344 35.015625 254.609375 32.492188 252.082031 C 29.96875 249.558594 28.550781 246.132812 28.550781 242.5625 L 28.550781 39.640625 C 28.550781 32.207031 34.578125 26.179688 42.011719 26.179688 Z M 42.011719 26.179688 " clip-rule="nonzero"/></clipPath><clipPath id="b5dfd7c40a"><path d="M 0.550781 0.179688 L 318.617188 0.179688 L 318.617188 230.027344 L 0.550781 230.027344 Z M 0.550781 0.179688 " clip-rule="nonzero"/></clipPath><clipPath id="a16d65a438"><path d="M 14.011719 0.179688 L 304.988281 0.179688 C 308.558594 0.179688 311.984375 1.597656 314.507812 4.121094 C 317.03125 6.644531 318.449219 10.070312 318.449219 13.640625 L 318.449219 216.5625 C 318.449219 220.132812 317.03125 223.558594 314.507812 226.082031 C 311.984375 228.609375 308.558594 230.027344 304.988281 230.027344 L 14.011719 230.027344 C 10.441406 230.027344 7.015625 228.609375 4.492188 226.082031 C 1.96875 223.558594 0.550781 220.132812 0.550781 216.5625 L 0.550781 13.640625 C 0.550781 6.207031 6.578125 0.179688 14.011719 0.179688 Z M 14.011719 0.179688 " clip-rule="nonzero"/></clipPath><clipPath id="58497b44d5"><rect x="0" width="319" y="0" height="231"/></clipPath><clipPath id="5d8fa00ca2"><path d="M 174 56 L 281.890625 56 L 281.890625 153 L 174 153 Z M 174 56 " clip-rule="nonzero"/></clipPath><clipPath id="c8c3efa54f"><path d="M 199.613281 51.402344 L 281.566406 51.402344 L 281.566406 122.5625 L 199.613281 122.5625 Z M 199.613281 51.402344 " clip-rule="nonzero"/></clipPath></defs><g clip-path="url(#fa7d42d744)"><g clip-path="url(#a2edeab338)"><g transform="matrix(1, 0, 0, 1, 28, 26)"><g clip-path="url(#58497b44d5)"><g clip-path="url(#b5dfd7c40a)"><g clip-path="url(#a16d65a438)"><path fill="#d3d9dd" d="M 0.550781 0.179688 L 318.386719 0.179688 L 318.386719 230.027344 L 0.550781 230.027344 Z M 0.550781 0.179688 " fill-opacity="1" fill-rule="nonzero"/></g></g></g></g></g></g><path fill="#1d97bd" d="M 114.207031 216.78125 C 111.855469 219.050781 108.109375 218.984375 105.835938 216.632812 C 103.566406 214.28125 103.632812 210.535156 105.988281 208.265625 C 108.335938 205.996094 112.082031 206.0625 114.355469 208.414062 C 116.625 210.765625 116.554688 214.511719 114.207031 216.78125 Z M 171.410156 98.527344 L 167.863281 101.949219 C 177.421875 121.140625 172.335938 134.859375 169.539062 141.375 C 159.867188 147.542969 147.085938 157.503906 131.117188 166.746094 C 100.8125 184.289062 93.378906 216.257812 99.574219 222.675781 C 105.765625 229.097656 137.984375 222.800781 156.589844 193.144531 C 166.394531 177.511719 176.804688 165.097656 183.316406 155.644531 C 189.921875 153.082031 203.808594 148.484375 222.652344 158.722656 L 226.203125 155.300781 L 221.6875 150.625 L 176.277344 103.566406 L 171.410156 98.527344 " fill-opacity="1" fill-rule="nonzero"/><path fill="#f5b95b" d="M 228.808594 149.355469 L 225.96875 152.09375 L 174.601562 98.867188 L 177.441406 96.128906 Z M 183.121094 90.652344 L 183.828125 89.964844 L 235.195312 143.191406 L 235.90625 142.507812 L 184.570312 89.316406 L 184.539062 89.28125 L 173.183594 100.238281 L 175.90625 103.0625 L 221.769531 150.582031 L 224.554688 153.464844 L 231.558594 146.703125 L 180.210938 93.5 L 180.921875 92.8125 L 232.269531 146.015625 L 233.019531 145.289062 L 181.710938 92.128906 L 182.421875 91.445312 L 233.730469 144.605469 L 234.484375 143.875 L 183.121094 90.652344 " fill-opacity="1" fill-rule="nonzero"/><g clip-path="url(#5d8fa00ca2)"><path fill="#e6e6e6" d="M 180.921875 92.8125 L 180.210938 93.5 L 231.558594 146.703125 L 231.578125 146.722656 L 232.289062 146.039062 L 232.269531 146.015625 Z M 182.421875 91.445312 L 181.710938 92.128906 L 233.019531 145.289062 L 233.082031 145.355469 L 233.789062 144.667969 L 233.730469 144.605469 Z M 174.601562 98.867188 L 225.96875 152.09375 L 228.808594 149.355469 L 177.441406 96.128906 Z M 176.277344 103.566406 L 221.6875 150.625 C 221.71875 150.609375 221.742188 150.597656 221.769531 150.582031 L 175.90625 103.0625 C 176.03125 103.230469 176.152344 103.402344 176.277344 103.566406 Z M 204.355469 63.3125 Z M 272.347656 113.214844 C 272.3125 113.410156 272.277344 113.625 272.238281 113.859375 C 272.277344 113.625 272.3125 113.410156 272.347656 113.214844 C 272.171875 113.199219 272 113.105469 271.832031 112.914062 C 272 113.105469 272.171875 113.199219 272.347656 113.214844 Z M 204.355469 63.3125 C 204.371094 63.230469 204.382812 63.164062 204.398438 63.078125 C 204.382812 63.164062 204.371094 63.230469 204.355469 63.3125 Z M 277.019531 107.335938 L 277.019531 107.339844 Z M 204.351562 63.332031 C 204.066406 64.933594 203.808594 65.425781 203.570312 65.335938 C 203.808594 65.429688 204.066406 64.933594 204.351562 63.332031 Z M 204.457031 63.015625 C 204.5625 62.910156 204.664062 62.683594 204.773438 62.398438 C 204.664062 62.683594 204.5625 62.910156 204.457031 63.015625 Z M 204.457031 63.015625 C 204.425781 63.117188 204.398438 63.203125 204.367188 63.28125 C 204.398438 63.199219 204.425781 63.117188 204.457031 63.015625 Z M 270.089844 114.488281 C 268.605469 114.335938 267.144531 115.382812 265.632812 114.140625 C 263.648438 112.519531 254.246094 123.980469 252.265625 122.351562 C 250.285156 120.726562 251.21875 119.589844 249.234375 117.964844 C 247.25 116.335938 251.066406 111.6875 249.085938 110.0625 C 247.101562 108.4375 242.675781 113.832031 240.691406 112.203125 C 238.710938 110.582031 249.046875 97.976562 247.0625 96.351562 C 245.085938 94.726562 238.609375 102.625 236.621094 101 C 234.644531 99.375 229.234375 105.972656 227.25 104.34375 C 225.269531 102.722656 232.578125 93.808594 230.597656 92.183594 C 228.613281 90.558594 219.132812 102.125 217.148438 100.496094 C 215.164062 98.867188 226.789062 84.695312 224.804688 83.070312 C 222.824219 81.441406 218.410156 86.820312 216.429688 85.191406 C 214.445312 83.570312 210.847656 87.953125 208.867188 86.328125 C 206.882812 84.699219 215.785156 72.945312 213.800781 71.316406 C 211.824219 69.691406 203.109375 81.214844 201.125 79.585938 C 199.140625 77.957031 202.402344 73.984375 200.417969 72.355469 C 199.660156 71.734375 199.917969 70.460938 200.417969 69.039062 C 200.648438 68.675781 200.871094 68.316406 201.089844 67.976562 C 199.128906 71.097656 196.527344 75.140625 194.460938 78.105469 C 193.464844 79.335938 192.445312 80.550781 191.414062 81.75 C 192.179688 79.71875 193.542969 77.164062 194.890625 75.863281 C 193.730469 76.617188 189.347656 83.164062 188.296875 84.828125 C 187.972656 85.34375 187.570312 85.9375 187.195312 86.523438 C 186.335938 87.464844 185.453125 88.390625 184.570312 89.316406 L 235.90625 142.507812 L 235.195312 143.191406 L 183.828125 89.964844 L 183.121094 90.652344 L 234.484375 143.875 L 234.503906 143.859375 C 235.335938 143.328125 236.179688 142.761719 237.039062 142.148438 C 239.058594 141.519531 240.457031 141.539062 240.457031 141.539062 C 240.210938 141.4375 238.585938 141.683594 237.878906 141.542969 C 238.421875 141.15625 238.960938 140.765625 239.503906 140.375 C 240.128906 139.972656 240.75 139.59375 241.1875 139.460938 C 242.277344 139.132812 246.109375 137.457031 248.925781 136.113281 C 247.765625 135.992188 243.863281 138.628906 242.847656 138.101562 C 244.074219 137.113281 251.75 134.285156 253.15625 133.394531 C 252.570312 132.859375 247.589844 135.972656 246.84375 135.375 C 248.972656 133.324219 257.390625 130.683594 260.914062 128.652344 C 258.808594 129.316406 254.597656 130.632812 253.207031 130.609375 C 255.144531 128.46875 257.609375 128.152344 259.972656 126.453125 C 263.191406 124.144531 265.90625 122.464844 269.429688 120.433594 C 267.886719 120.957031 261.921875 124.769531 260.988281 124.46875 C 262.40625 123.097656 268.585938 119.785156 270.875 117.667969 C 269.574219 118.113281 263.824219 121.726562 262.433594 121.703125 C 263.351562 120.632812 267.136719 118.347656 270.605469 116.207031 C 271.054688 115.929688 271.496094 115.757812 271.929688 115.542969 C 271.808594 115.382812 271.671875 115.222656 271.492188 115.082031 C 271.476562 115.0625 271.457031 115.054688 271.441406 115.042969 C 270.859375 115.375 270.300781 115.671875 269.796875 115.890625 C 269.097656 116.195312 268.503906 116.34375 268.105469 116.222656 C 268.21875 116.113281 268.363281 115.949219 268.535156 115.746094 C 268.839844 115.445312 269.296875 115.039062 269.859375 114.558594 C 270.417969 114.535156 271.09375 113.84375 271.832031 112.914062 C 271.195312 113.71875 270.601562 114.320312 270.089844 114.488281 Z M 277.566406 106.4375 C 277.5625 106.453125 277.558594 106.46875 277.554688 106.484375 C 277.558594 106.46875 277.5625 106.457031 277.570312 106.4375 Z M 278.210938 106.710938 C 278.210938 106.710938 278.210938 106.714844 278.21875 106.714844 C 278.21875 106.714844 278.214844 106.714844 278.214844 106.714844 C 278.210938 106.710938 278.210938 106.710938 278.210938 106.710938 Z M 278.21875 106.714844 C 278.21875 106.722656 278.222656 106.722656 278.222656 106.726562 C 278.222656 106.722656 278.222656 106.722656 278.21875 106.714844 Z M 281.078125 106.0625 L 281.078125 106.066406 C 281.125 106.046875 281.171875 106.003906 281.214844 105.945312 C 281.171875 106.003906 281.125 106.042969 281.078125 106.0625 Z M 281.074219 106.070312 C 280.785156 106.605469 280.488281 106.636719 280.1875 105.933594 C 280.1875 105.9375 280.183594 105.9375 280.179688 105.941406 C 280.488281 106.660156 280.789062 106.617188 281.078125 106.066406 L 281.074219 106.066406 C 281.074219 106.066406 281.074219 106.070312 281.074219 106.070312 Z M 279.726562 107.039062 C 279.792969 106.796875 279.855469 106.515625 279.921875 106.179688 C 279.855469 106.515625 279.792969 106.796875 279.726562 107.039062 Z M 275.136719 113.421875 C 275.15625 113.421875 275.175781 113.421875 275.191406 113.425781 C 275.175781 113.421875 275.15625 113.421875 275.136719 113.421875 Z M 273.695312 113.746094 C 274.226562 113.632812 274.6875 115.027344 275.136719 113.421875 C 274.6875 115.027344 274.226562 113.625 273.695312 113.746094 Z M 273.558594 112.214844 C 273.660156 112.050781 273.761719 111.867188 273.863281 111.667969 C 273.761719 111.867188 273.660156 112.050781 273.558594 112.214844 C 273.609375 112.332031 273.660156 112.453125 273.710938 112.574219 C 273.660156 112.453125 273.609375 112.332031 273.558594 112.214844 Z M 277.578125 106.945312 C 277.351562 107.328125 277.128906 107.863281 276.914062 108.085938 C 277.128906 107.863281 277.351562 107.335938 277.578125 106.945312 Z M 205.042969 61.925781 C 205.277344 61.636719 205.355469 61.292969 205.339844 60.917969 C 205.207031 61.167969 205.070312 61.566406 204.933594 61.960938 C 204.9375 61.980469 204.941406 62 204.949219 62.023438 C 204.984375 61.988281 205.011719 61.960938 205.042969 61.925781 Z M 204.933594 61.960938 C 204.890625 61.824219 204.851562 61.699219 204.808594 61.609375 C 204.746094 61.882812 204.683594 62.144531 204.625 62.386719 C 204.707031 62.304688 204.792969 62.199219 204.882812 62.101562 C 204.898438 62.054688 204.917969 62.007812 204.933594 61.960938 Z M 206.582031 57.082031 C 206.550781 57.15625 206.519531 57.238281 206.488281 57.328125 C 206.519531 57.238281 206.550781 57.15625 206.582031 57.085938 Z M 206.648438 56.625 C 206.628906 56.773438 206.601562 56.925781 206.582031 57.082031 L 206.582031 57.078125 C 206.601562 56.925781 206.628906 56.773438 206.648438 56.625 Z M 206.210938 58.324219 C 206.144531 58.574219 206.082031 58.828125 206.019531 59.050781 C 206.082031 58.828125 206.144531 58.574219 206.210938 58.324219 Z M 206.210938 58.324219 C 206.164062 58.113281 206.117188 58.054688 206.0625 58.09375 C 206.117188 58.054688 206.164062 58.113281 206.210938 58.324219 Z M 205.5625 60.113281 C 205.734375 59.289062 205.914062 58.222656 206.0625 58.09375 C 205.914062 58.222656 205.734375 59.285156 205.5625 60.113281 Z M 276.78125 108.1875 C 276.859375 107.859375 276.933594 107.589844 277.007812 107.371094 C 276.933594 107.589844 276.859375 107.859375 276.78125 108.1875 Z M 277.992188 106.519531 C 278.03125 106.519531 278.070312 106.535156 278.105469 106.566406 C 278.070312 106.535156 278.03125 106.519531 277.996094 106.519531 Z M 281.066406 106.070312 L 281.074219 106.070312 Z M 280.1875 105.933594 C 280.324219 105.8125 280.457031 105.714844 280.574219 105.644531 C 280.457031 105.714844 280.324219 105.8125 280.1875 105.933594 " fill-opacity="1" fill-rule="nonzero"/></g><g clip-path="url(#c8c3efa54f)"><path fill="#38b2d8" d="M 276.667969 108.179688 C 276.640625 108.167969 276.609375 108.148438 276.582031 108.113281 C 276.570312 108.097656 276.558594 108.074219 276.546875 108.054688 C 276.527344 108.023438 276.507812 107.992188 276.484375 107.953125 C 276.457031 107.878906 276.417969 107.785156 276.390625 107.675781 C 276.484375 107.605469 276.582031 107.566406 276.683594 107.523438 C 276.789062 107.472656 276.902344 107.425781 277.019531 107.339844 L 277.019531 107.335938 C 277.066406 107.199219 277.109375 107.082031 277.15625 106.980469 C 277.15625 106.980469 277.160156 106.972656 277.160156 106.96875 C 277.207031 106.871094 277.253906 106.785156 277.296875 106.714844 C 277.296875 106.710938 277.300781 106.707031 277.300781 106.703125 C 277.347656 106.636719 277.386719 106.582031 277.433594 106.535156 C 277.433594 106.535156 277.4375 106.53125 277.441406 106.53125 C 277.484375 106.488281 277.527344 106.457031 277.566406 106.4375 L 277.570312 106.4375 C 277.578125 106.410156 277.589844 106.394531 277.597656 106.371094 C 278.03125 104.210938 278.351562 108.101562 278.796875 105.050781 C 279.128906 108.230469 279.597656 103.988281 279.992188 103.730469 C 279.21875 104.148438 278.496094 102.003906 277.734375 102.003906 C 276.941406 103.730469 276.15625 104.964844 275.476562 100.277344 C 274.761719 97.628906 273.980469 98.511719 273.21875 98.546875 C 272.542969 93.738281 271.84375 90.289062 270.964844 96.820312 C 270.160156 99.339844 269.464844 95.316406 268.710938 95.09375 C 267.953125 94.765625 267.234375 92.265625 266.453125 93.367188 C 265.75 89.84375 264.933594 93.015625 264.195312 91.640625 C 263.484375 88.683594 262.734375 87.992188 261.941406 89.914062 C 261.542969 90.910156 261.160156 90.875 260.789062 90.390625 C 260.414062 89.925781 260.046875 89.226562 259.679688 88.1875 C 259.351562 85.277344 258.929688 87.804688 258.566406 86.570312 C 258.207031 85.472656 257.800781 86.941406 257.425781 86.460938 C 257.0625 85.429688 256.71875 83.394531 256.316406 84.625 C 255.929688 84.953125 255.574219 83.53125 255.171875 84.734375 C 254.78125 85.21875 254.414062 84.398438 254.046875 83.730469 C 253.625 85.859375 253.324219 81.175781 252.914062 83.007812 C 252.488281 85.503906 252.191406 80.910156 251.785156 82.140625 C 251.417969 81.398438 251.011719 82.914062 250.65625 81.277344 C 249.894531 81.230469 249.058594 85.351562 248.398438 79.550781 C 247.570312 83.277344 246.851562 80.878906 246.144531 77.828125 C 245.425781 75.207031 244.652344 75.902344 243.886719 76.101562 C 243.101562 77.484375 242.308594 79.175781 241.632812 74.375 C 240.855469 75.339844 240.097656 74.984375 239.375 72.644531 C 238.589844 73.699219 237.855469 72.347656 237.117188 70.917969 C 236.425781 67.128906 235.644531 68.066406 234.863281 69.191406 C 234.003906 74.605469 233.320312 70.1875 232.609375 67.464844 C 231.867188 66.136719 231.128906 64.953125 230.351562 65.738281 C 229.558594 67.621094 228.90625 61.269531 228.09375 64.011719 C 227.253906 68.414062 226.542969 65.554688 225.835938 62.285156 C 225.042969 64.183594 224.386719 58.027344 223.585938 60.558594 C 222.914062 55.257812 222.085938 59.125 221.328125 58.832031 C 220.578125 57.980469 219.792969 59.4375 219.070312 57.105469 C 218.382812 52.765625 217.507812 59.3125 216.8125 55.378906 C 215.976562 59.570312 215.355469 51.847656 214.558594 53.652344 C 213.796875 53.453125 213.085938 50.753906 212.304688 51.925781 C 211.894531 51.808594 211.515625 49.90625 211.019531 54.167969 C 210.503906 59.589844 210.167969 54.453125 209.703125 56.390625 C 209.320312 53.738281 208.796875 58.65625 208.355469 58.597656 C 207.882812 60.652344 207.441406 60.328125 206.980469 60.78125 C 206.5 62.554688 206.105469 59.148438 205.574219 62.945312 C 205.070312 65.210938 204.597656 65.710938 204.140625 65.09375 C 203.644531 66.335938 203.164062 66.621094 202.675781 67.21875 C 202.910156 66.570312 203.171875 66.355469 203.46875 65.265625 C 203.503906 65.300781 203.535156 65.328125 203.570312 65.335938 C 203.808594 65.425781 204.066406 64.933594 204.351562 63.332031 C 204.355469 63.324219 204.355469 63.316406 204.355469 63.3125 C 204.339844 63.351562 204.324219 63.390625 204.308594 63.425781 C 204.285156 63.476562 204.261719 63.527344 204.238281 63.566406 C 204.222656 63.585938 204.210938 63.597656 204.203125 63.609375 C 204.171875 63.648438 204.144531 63.667969 204.117188 63.675781 C 204.113281 63.675781 204.105469 63.675781 204.097656 63.671875 C 204.066406 63.671875 204.035156 63.65625 204.007812 63.617188 C 204 63.609375 204 63.601562 203.996094 63.601562 C 203.960938 63.546875 203.929688 63.472656 203.898438 63.359375 C 203.824219 63.058594 203.640625 63.683594 203.386719 64.238281 C 203.140625 64.289062 202.796875 65.503906 202.414062 65.839844 C 202.019531 66.6875 201.578125 67.195312 201.089844 67.976562 C 200.871094 68.316406 200.648438 68.675781 200.417969 69.039062 C 199.917969 70.460938 199.660156 71.734375 200.417969 72.355469 C 202.402344 73.984375 199.140625 77.957031 201.125 79.585938 C 203.109375 81.214844 211.824219 69.691406 213.800781 71.316406 C 215.785156 72.945312 206.882812 84.699219 208.867188 86.328125 C 210.847656 87.953125 214.445312 83.570312 216.429688 85.191406 C 218.410156 86.820312 222.824219 81.441406 224.804688 83.070312 C 226.789062 84.695312 215.164062 98.867188 217.148438 100.496094 C 219.132812 102.125 228.613281 90.558594 230.597656 92.183594 C 232.578125 93.808594 225.269531 102.722656 227.25 104.34375 C 229.234375 105.972656 234.644531 99.375 236.621094 101 C 238.609375 102.625 245.085938 94.726562 247.0625 96.351562 C 249.046875 97.976562 238.710938 110.582031 240.691406 112.203125 C 242.675781 113.832031 247.101562 108.4375 249.085938 110.0625 C 251.066406 111.6875 247.25 116.335938 249.234375 117.964844 C 251.21875 119.589844 250.285156 120.726562 252.265625 122.351562 C 254.246094 123.980469 263.648438 112.519531 265.632812 114.140625 C 267.144531 115.382812 268.605469 114.335938 270.089844 114.488281 C 270.601562 114.320312 271.195312 113.71875 271.832031 112.914062 C 272 113.105469 272.171875 113.199219 272.347656 113.214844 C 272.3125 113.410156 272.277344 113.625 272.238281 113.859375 C 272.238281 113.863281 272.238281 113.863281 272.238281 113.863281 C 272.203125 114.101562 272.167969 114.355469 272.132812 114.636719 C 271.898438 114.773438 271.667969 114.910156 271.441406 115.042969 C 271.457031 115.054688 271.476562 115.0625 271.492188 115.082031 C 271.671875 115.222656 271.808594 115.382812 271.929688 115.542969 C 271.9375 115.539062 271.949219 115.527344 271.957031 115.523438 C 272.046875 115.480469 272.132812 115.429688 272.21875 115.378906 C 272.246094 115.363281 272.273438 115.34375 272.300781 115.328125 C 272.375 115.285156 272.445312 115.238281 272.519531 115.1875 C 272.566406 115.152344 272.609375 115.109375 272.65625 115.070312 C 272.707031 115.027344 272.761719 114.992188 272.8125 114.945312 C 272.910156 114.859375 273.007812 114.757812 273.101562 114.644531 C 273.152344 114.496094 273.203125 114.367188 273.25 114.261719 C 273.269531 114.214844 273.292969 114.183594 273.3125 114.144531 C 273.34375 114.089844 273.367188 114.035156 273.398438 113.992188 C 273.414062 113.964844 273.433594 113.949219 273.449219 113.929688 C 273.480469 113.890625 273.511719 113.851562 273.539062 113.828125 C 273.554688 113.816406 273.5625 113.8125 273.578125 113.804688 C 273.609375 113.78125 273.648438 113.757812 273.683594 113.746094 C 273.6875 113.746094 273.691406 113.746094 273.695312 113.746094 C 274.226562 113.625 274.6875 115.027344 275.136719 113.421875 C 274.957031 113.378906 274.765625 113.292969 274.566406 113.167969 C 274.527344 113.261719 274.488281 113.328125 274.449219 113.378906 C 274.441406 113.390625 274.433594 113.394531 274.429688 113.40625 C 274.394531 113.445312 274.359375 113.46875 274.324219 113.476562 C 274.3125 113.476562 274.304688 113.476562 274.300781 113.476562 C 274.265625 113.480469 274.226562 113.46875 274.1875 113.441406 C 274.183594 113.4375 274.175781 113.433594 274.171875 113.425781 C 274.136719 113.398438 274.101562 113.359375 274.066406 113.304688 C 274.0625 113.300781 274.058594 113.300781 274.058594 113.296875 C 274.019531 113.242188 273.980469 113.171875 273.945312 113.101562 C 273.941406 113.089844 273.933594 113.074219 273.925781 113.066406 C 273.890625 112.992188 273.855469 112.914062 273.820312 112.835938 C 273.808594 112.808594 273.800781 112.785156 273.789062 112.761719 C 273.761719 112.699219 273.734375 112.636719 273.710938 112.574219 C 273.660156 112.453125 273.609375 112.332031 273.558594 112.214844 C 273.660156 112.050781 273.761719 111.867188 273.863281 111.667969 C 273.96875 111.46875 274.070312 111.25 274.171875 111.015625 C 275.007812 108.804688 275.804688 109.523438 276.59375 109.039062 C 276.640625 108.8125 276.683594 108.617188 276.722656 108.425781 C 276.742188 108.347656 276.761719 108.261719 276.78125 108.1875 C 276.742188 108.195312 276.710938 108.195312 276.683594 108.183594 C 276.675781 108.183594 276.671875 108.179688 276.667969 108.179688 Z M 206.25 58.539062 C 206.261719 58.625 206.277344 58.730469 206.289062 58.847656 C 206.3125 58.757812 206.335938 58.648438 206.355469 58.527344 C 206.367188 58.480469 206.371094 58.4375 206.382812 58.390625 C 206.394531 58.308594 206.40625 58.222656 206.421875 58.132812 C 206.433594 58.074219 206.441406 58.015625 206.449219 57.957031 C 206.464844 57.882812 206.472656 57.804688 206.484375 57.730469 C 206.519531 57.515625 206.550781 57.296875 206.582031 57.082031 L 206.582031 57.085938 C 206.550781 57.15625 206.519531 57.238281 206.488281 57.328125 C 206.484375 57.339844 206.480469 57.355469 206.476562 57.367188 C 206.453125 57.445312 206.425781 57.527344 206.402344 57.613281 C 206.390625 57.640625 206.386719 57.671875 206.375 57.699219 C 206.355469 57.773438 206.335938 57.847656 206.3125 57.925781 C 206.304688 57.972656 206.289062 58.019531 206.277344 58.0625 L 206.242188 58.199219 C 206.230469 58.242188 206.222656 58.28125 206.210938 58.324219 C 206.222656 58.382812 206.238281 58.457031 206.25 58.539062 Z M 275.191406 113.425781 C 275.246094 113.4375 275.296875 113.441406 275.34375 113.441406 C 275.378906 113.441406 275.414062 113.4375 275.445312 113.429688 C 275.492188 113.425781 275.535156 113.417969 275.578125 113.40625 C 275.609375 113.394531 275.640625 113.382812 275.671875 113.375 C 275.726562 113.347656 275.785156 113.316406 275.835938 113.277344 C 275.855469 113.265625 275.875 113.261719 275.886719 113.246094 C 275.957031 113.191406 276.027344 113.117188 276.09375 113.039062 C 276.117188 113.011719 276.132812 112.984375 276.152344 112.953125 C 276.203125 112.882812 276.253906 112.804688 276.300781 112.71875 C 276.320312 112.6875 276.34375 112.652344 276.363281 112.617188 C 276.425781 112.488281 276.492188 112.351562 276.554688 112.1875 C 276.253906 112.082031 275.78125 112.628906 275.183594 113.265625 C 275.167969 113.328125 275.152344 113.367188 275.136719 113.421875 C 275.15625 113.421875 275.175781 113.421875 275.191406 113.425781 Z M 204.882812 62.101562 C 204.792969 62.199219 204.707031 62.304688 204.625 62.386719 C 204.566406 62.621094 204.511719 62.832031 204.457031 63.015625 C 204.5625 62.910156 204.664062 62.683594 204.773438 62.398438 C 204.808594 62.304688 204.84375 62.203125 204.882812 62.101562 Z M 280.972656 106.074219 C 280.960938 106.070312 280.957031 106.070312 280.945312 106.066406 C 280.914062 106.054688 280.882812 106.039062 280.851562 106.015625 C 280.832031 106 280.816406 105.976562 280.796875 105.957031 C 280.769531 105.933594 280.746094 105.910156 280.722656 105.875 C 280.671875 105.8125 280.625 105.738281 280.574219 105.644531 C 280.457031 105.714844 280.324219 105.8125 280.1875 105.933594 C 280.488281 106.636719 280.785156 106.605469 281.074219 106.070312 L 281.066406 106.070312 C 281.035156 106.082031 281.007812 106.082031 280.972656 106.074219 Z M 205.082031 62.449219 C 205.121094 62.546875 205.15625 62.632812 205.191406 62.6875 C 205.195312 62.699219 205.199219 62.699219 205.207031 62.707031 C 205.21875 62.722656 205.230469 62.734375 205.242188 62.746094 C 205.25 62.746094 205.257812 62.75 205.261719 62.75 C 205.277344 62.753906 205.289062 62.75 205.300781 62.746094 C 205.308594 62.738281 205.3125 62.738281 205.320312 62.730469 C 205.335938 62.71875 205.351562 62.695312 205.367188 62.667969 C 205.371094 62.65625 205.375 62.652344 205.382812 62.640625 C 205.421875 62.554688 205.464844 62.410156 205.503906 62.191406 C 205.511719 62.167969 205.515625 62.140625 205.519531 62.109375 C 205.539062 62.023438 205.558594 61.925781 205.570312 61.816406 C 205.578125 61.773438 205.589844 61.722656 205.59375 61.675781 C 205.609375 61.570312 205.625 61.453125 205.640625 61.320312 C 205.648438 61.261719 205.65625 61.199219 205.664062 61.136719 C 205.679688 60.992188 205.699219 60.832031 205.71875 60.664062 C 205.726562 60.601562 205.730469 60.539062 205.738281 60.472656 C 205.761719 60.230469 205.789062 59.964844 205.816406 59.671875 C 205.84375 59.613281 205.871094 59.539062 205.898438 59.453125 C 205.914062 59.425781 205.921875 59.390625 205.929688 59.359375 C 205.949219 59.296875 205.96875 59.234375 205.988281 59.164062 C 206 59.128906 206.011719 59.089844 206.019531 59.050781 C 206.082031 58.828125 206.144531 58.574219 206.210938 58.324219 C 206.027344 57.488281 205.792969 59.015625 205.5625 60.113281 C 205.558594 60.128906 205.550781 60.148438 205.550781 60.160156 C 205.535156 60.234375 205.519531 60.300781 205.503906 60.363281 C 205.5 60.390625 205.488281 60.414062 205.484375 60.441406 C 205.472656 60.503906 205.457031 60.554688 205.441406 60.609375 C 205.4375 60.632812 205.433594 60.652344 205.429688 60.675781 C 205.40625 60.746094 205.386719 60.8125 205.367188 60.863281 C 205.359375 60.878906 205.351562 60.90625 205.339844 60.917969 C 205.355469 61.292969 205.277344 61.636719 205.042969 61.925781 C 205.011719 61.960938 204.984375 61.988281 204.949219 62.023438 C 204.992188 62.15625 205.03125 62.296875 205.070312 62.417969 C 205.074219 62.425781 205.078125 62.4375 205.082031 62.449219 Z M 280.039062 105.554688 C 280 105.777344 279.964844 105.984375 279.921875 106.179688 C 280.011719 106.097656 280.101562 106.007812 280.179688 105.941406 C 280.183594 105.9375 280.1875 105.9375 280.1875 105.933594 C 280.140625 105.820312 280.089844 105.707031 280.039062 105.554688 Z M 277.992188 106.515625 C 277.855469 106.417969 277.714844 106.371094 277.574219 106.4375 L 277.570312 106.4375 C 277.5625 106.457031 277.558594 106.46875 277.554688 106.484375 C 277.367188 106.96875 277.191406 107.207031 277.019531 107.339844 C 277.015625 107.347656 277.011719 107.359375 277.007812 107.371094 C 276.933594 107.589844 276.859375 107.859375 276.78125 108.1875 C 277.03125 108.105469 277.308594 107.410156 277.578125 106.945312 C 277.605469 106.890625 277.636719 106.84375 277.667969 106.796875 C 277.683594 106.773438 277.695312 106.75 277.714844 106.730469 C 277.75 106.683594 277.785156 106.644531 277.816406 106.613281 C 277.832031 106.601562 277.84375 106.585938 277.855469 106.578125 C 277.898438 106.539062 277.949219 106.515625 277.996094 106.519531 L 277.992188 106.519531 Z M 278.824219 107.183594 C 278.777344 107.179688 278.730469 107.160156 278.6875 107.136719 C 278.667969 107.128906 278.652344 107.113281 278.628906 107.097656 C 278.601562 107.082031 278.574219 107.0625 278.542969 107.035156 C 278.523438 107.015625 278.5 106.996094 278.476562 106.976562 C 278.449219 106.953125 278.425781 106.925781 278.398438 106.902344 C 278.363281 106.863281 278.328125 106.828125 278.292969 106.789062 C 278.265625 106.765625 278.242188 106.742188 278.21875 106.714844 C 278.222656 106.722656 278.222656 106.722656 278.222656 106.726562 C 278.261719 106.828125 278.296875 106.925781 278.332031 107.023438 C 278.34375 107.054688 278.355469 107.082031 278.367188 107.113281 C 278.386719 107.179688 278.414062 107.238281 278.441406 107.296875 C 278.453125 107.335938 278.464844 107.363281 278.480469 107.398438 C 278.5 107.449219 278.523438 107.5 278.546875 107.542969 C 278.5625 107.574219 278.578125 107.605469 278.59375 107.636719 C 278.613281 107.679688 278.632812 107.71875 278.652344 107.753906 C 278.671875 107.78125 278.6875 107.8125 278.703125 107.839844 C 278.722656 107.871094 278.742188 107.902344 278.757812 107.925781 C 278.78125 107.953125 278.796875 107.972656 278.8125 107.992188 C 278.832031 108.015625 278.851562 108.039062 278.867188 108.054688 C 278.886719 108.074219 278.902344 108.089844 278.921875 108.101562 C 278.9375 108.117188 278.960938 108.128906 278.976562 108.136719 C 278.996094 108.148438 279.011719 108.152344 279.03125 108.160156 C 279.046875 108.164062 279.066406 108.164062 279.085938 108.164062 C 279.105469 108.164062 279.125 108.164062 279.140625 108.160156 C 279.160156 108.152344 279.175781 108.144531 279.195312 108.136719 C 279.214844 108.125 279.234375 108.113281 279.253906 108.097656 C 279.269531 108.082031 279.289062 108.0625 279.304688 108.046875 C 279.324219 108.019531 279.34375 108 279.363281 107.96875 C 279.378906 107.945312 279.398438 107.914062 279.414062 107.886719 C 279.433594 107.847656 279.457031 107.8125 279.476562 107.765625 C 279.492188 107.734375 279.507812 107.699219 279.523438 107.660156 C 279.542969 107.605469 279.566406 107.554688 279.589844 107.492188 C 279.601562 107.457031 279.613281 107.410156 279.628906 107.371094 C 279.652344 107.292969 279.675781 107.21875 279.703125 107.136719 C 279.707031 107.105469 279.71875 107.070312 279.726562 107.039062 C 279.792969 106.796875 279.855469 106.515625 279.921875 106.179688 C 279.742188 106.351562 279.554688 106.535156 279.351562 106.722656 C 279.183594 106.878906 279.007812 107.039062 278.824219 107.183594 Z M 206.652344 56.9375 C 206.664062 56.921875 206.671875 56.90625 206.679688 56.894531 C 206.699219 56.871094 206.714844 56.847656 206.730469 56.832031 C 206.742188 56.820312 206.746094 56.8125 206.757812 56.808594 C 206.78125 56.792969 206.804688 56.78125 206.832031 56.78125 C 206.832031 56.785156 206.835938 56.785156 206.835938 56.785156 C 206.859375 56.792969 206.882812 56.808594 206.902344 56.832031 C 206.910156 56.839844 206.917969 56.851562 206.929688 56.863281 C 206.941406 56.890625 206.964844 56.925781 206.980469 56.960938 C 206.988281 56.980469 206.996094 57 207.003906 57.015625 C 207.027344 57.078125 207.050781 57.152344 207.078125 57.246094 C 207.066406 57.03125 207.0625 56.84375 207.050781 56.675781 C 207.046875 56.625 207.046875 56.582031 207.039062 56.539062 C 207.035156 56.402344 207.027344 56.28125 207.015625 56.175781 C 207.015625 56.160156 207.011719 56.136719 207.011719 56.121094 C 207 56.015625 206.988281 55.925781 206.980469 55.855469 C 206.972656 55.832031 206.972656 55.8125 206.96875 55.796875 C 206.960938 55.746094 206.949219 55.703125 206.9375 55.675781 C 206.933594 55.667969 206.933594 55.660156 206.933594 55.652344 C 206.917969 55.628906 206.90625 55.617188 206.890625 55.617188 C 206.886719 55.617188 206.886719 55.621094 206.882812 55.628906 C 206.871094 55.632812 206.859375 55.652344 206.84375 55.675781 C 206.84375 55.683594 206.839844 55.6875 206.835938 55.695312 C 206.824219 55.730469 206.808594 55.78125 206.792969 55.835938 C 206.789062 55.855469 206.789062 55.875 206.78125 55.890625 C 206.773438 55.941406 206.761719 55.992188 206.746094 56.054688 C 206.742188 56.074219 206.738281 56.101562 206.734375 56.125 C 206.722656 56.199219 206.707031 56.28125 206.691406 56.363281 C 206.683594 56.414062 206.675781 56.46875 206.667969 56.519531 C 206.660156 56.554688 206.652344 56.589844 206.648438 56.625 C 206.628906 56.773438 206.601562 56.925781 206.582031 57.078125 L 206.582031 57.082031 C 206.585938 57.066406 206.597656 57.054688 206.601562 57.035156 C 206.621094 57 206.640625 56.96875 206.652344 56.9375 Z M 281.074219 106.070312 L 281.074219 106.066406 C 281.078125 106.066406 281.078125 106.0625 281.078125 106.0625 C 281.125 106.042969 281.171875 106.003906 281.214844 105.945312 C 281.21875 105.933594 281.226562 105.921875 281.234375 105.910156 C 281.269531 105.851562 281.304688 105.777344 281.335938 105.6875 C 281.347656 105.660156 281.355469 105.632812 281.367188 105.601562 C 281.398438 105.515625 281.421875 105.410156 281.449219 105.300781 C 281.457031 105.253906 281.46875 105.214844 281.480469 105.164062 C 281.511719 105 281.542969 104.816406 281.566406 104.605469 C 281.410156 105.246094 281.242188 105.742188 281.074219 106.070312 Z M 278.105469 106.566406 C 278.070312 106.535156 278.03125 106.519531 277.996094 106.519531 C 278.070312 106.574219 278.140625 106.636719 278.210938 106.710938 C 278.210938 106.710938 278.210938 106.710938 278.214844 106.714844 C 278.214844 106.714844 278.21875 106.714844 278.21875 106.714844 C 278.210938 106.699219 278.203125 106.695312 278.195312 106.683594 C 278.167969 106.636719 278.136719 106.59375 278.105469 106.566406 Z M 204.457031 63.015625 C 204.4375 63.039062 204.417969 63.066406 204.398438 63.078125 C 204.382812 63.164062 204.371094 63.230469 204.355469 63.3125 C 204.359375 63.300781 204.363281 63.289062 204.367188 63.28125 C 204.398438 63.203125 204.425781 63.117188 204.457031 63.015625 " fill-opacity="1" fill-rule="nonzero"/></g><g fill="#38b2d8" fill-opacity="1"><g transform="translate(226.085105, 48.778512)"><g><path d="M 14.03125 -4.921875 C 14.632812 -4.390625 15.054688 -3.863281 15.296875 -3.34375 C 15.535156 -2.832031 15.695312 -2.320312 15.78125 -1.8125 C 15.820312 -1.632812 15.878906 -1.515625 15.953125 -1.453125 C 16.128906 -1.304688 16.476562 -1.472656 17 -1.953125 L 17.296875 -1.6875 C 16.984375 -1.351562 16.597656 -0.941406 16.140625 -0.453125 C 15.691406 0.0351562 15.101562 0.695312 14.375 1.53125 L 14.0625 1.25 C 14.46875 0.65625 14.785156 0.101562 15.015625 -0.40625 C 15.242188 -0.925781 15.304688 -1.476562 15.203125 -2.0625 C 15.171875 -2.46875 15.046875 -2.867188 14.828125 -3.265625 C 14.617188 -3.671875 14.351562 -4.015625 14.03125 -4.296875 C 13.539062 -4.722656 13.003906 -4.960938 12.421875 -5.015625 C 11.835938 -5.078125 11.242188 -4.988281 10.640625 -4.75 C 10.035156 -4.507812 9.429688 -4.15625 8.828125 -3.6875 C 8.234375 -3.226562 7.675781 -2.703125 7.15625 -2.109375 C 5.738281 -0.503906 4.921875 0.863281 4.703125 2 C 4.492188 3.144531 4.804688 4.085938 5.640625 4.828125 C 5.859375 5.015625 6.066406 5.148438 6.265625 5.234375 C 6.472656 5.316406 6.660156 5.367188 6.828125 5.390625 C 7.023438 5.410156 7.191406 5.390625 7.328125 5.328125 C 7.472656 5.265625 7.625 5.144531 7.78125 4.96875 L 8.9375 3.65625 C 9.300781 3.25 9.535156 2.910156 9.640625 2.640625 C 9.753906 2.378906 9.742188 2.125 9.609375 1.875 C 9.472656 1.632812 9.222656 1.34375 8.859375 1 L 9.09375 0.734375 C 9.269531 0.910156 9.488281 1.117188 9.75 1.359375 C 10.007812 1.597656 10.28125 1.84375 10.5625 2.09375 C 10.851562 2.351562 11.117188 2.585938 11.359375 2.796875 C 11.734375 3.128906 12.082031 3.429688 12.40625 3.703125 C 12.726562 3.972656 12.992188 4.191406 13.203125 4.359375 L 12.96875 4.625 C 12.78125 4.476562 12.617188 4.394531 12.484375 4.375 C 12.359375 4.363281 12.207031 4.421875 12.03125 4.546875 C 11.863281 4.679688 11.632812 4.914062 11.34375 5.25 L 8.984375 7.921875 L 8.703125 7.671875 C 8.835938 7.515625 8.953125 7.320312 9.046875 7.09375 C 9.140625 6.863281 9.125 6.691406 9 6.578125 C 8.9375 6.515625 8.835938 6.453125 8.703125 6.390625 C 8.578125 6.335938 8.347656 6.28125 8.015625 6.21875 C 7.523438 6.113281 7.035156 5.960938 6.546875 5.765625 C 6.054688 5.566406 5.613281 5.289062 5.21875 4.9375 C 4.175781 4.019531 3.46875 3.050781 3.09375 2.03125 C 2.71875 1.007812 2.664062 -0.0195312 2.9375 -1.0625 C 3.207031 -2.113281 3.789062 -3.148438 4.6875 -4.171875 C 5.59375 -5.191406 6.582031 -5.894531 7.65625 -6.28125 C 8.738281 -6.664062 9.832031 -6.742188 10.9375 -6.515625 C 12.050781 -6.296875 13.082031 -5.765625 14.03125 -4.921875 Z M 14.03125 -4.921875 "/></g></g></g><g fill="#38b2d8" fill-opacity="1"><g transform="translate(235.982565, 57.504478)"><g><path d="M 13.296875 -0.90625 L 8.328125 4.734375 C 7.972656 5.128906 7.769531 5.476562 7.71875 5.78125 C 7.675781 6.09375 7.816406 6.390625 8.140625 6.671875 L 7.890625 6.953125 C 7.640625 6.691406 7.375 6.4375 7.09375 6.1875 C 6.71875 5.851562 6.351562 5.550781 6 5.28125 C 5.65625 5.019531 5.304688 4.804688 4.953125 4.640625 L 6.03125 3.421875 C 5.414062 3.679688 4.832031 3.738281 4.28125 3.59375 C 3.726562 3.445312 3.21875 3.171875 2.75 2.765625 C 2.375 2.429688 2.113281 2.109375 1.96875 1.796875 C 1.820312 1.492188 1.75 1.207031 1.75 0.9375 C 1.757812 0.632812 1.851562 0.316406 2.03125 -0.015625 C 2.207031 -0.359375 2.488281 -0.75 2.875 -1.1875 L 5.875 -4.59375 C 6.226562 -4.988281 6.429688 -5.335938 6.484375 -5.640625 C 6.535156 -5.941406 6.394531 -6.238281 6.0625 -6.53125 L 6.3125 -6.8125 C 6.582031 -6.53125 6.851562 -6.269531 7.125 -6.03125 C 7.5 -5.695312 7.863281 -5.398438 8.21875 -5.140625 C 8.570312 -4.890625 8.914062 -4.671875 9.25 -4.484375 L 4.34375 1.09375 C 4.132812 1.3125 3.972656 1.523438 3.859375 1.734375 C 3.753906 1.941406 3.71875 2.140625 3.75 2.328125 C 3.78125 2.523438 3.90625 2.726562 4.125 2.9375 C 4.375 3.144531 4.65625 3.265625 4.96875 3.296875 C 5.28125 3.335938 5.601562 3.289062 5.9375 3.15625 C 6.269531 3.019531 6.566406 2.804688 6.828125 2.515625 L 9.9375 -1.015625 C 10.289062 -1.410156 10.488281 -1.757812 10.53125 -2.0625 C 10.582031 -2.363281 10.445312 -2.660156 10.125 -2.953125 L 10.375 -3.234375 C 10.644531 -2.953125 10.910156 -2.691406 11.171875 -2.453125 C 11.546875 -2.128906 11.910156 -1.835938 12.265625 -1.578125 C 12.617188 -1.316406 12.960938 -1.09375 13.296875 -0.90625 Z M 13.296875 -0.90625 "/></g></g></g><g fill="#38b2d8" fill-opacity="1"><g transform="translate(244.142919, 64.698946)"><g><path d="M 11.515625 -2.5625 C 11.890625 -2.226562 12.15625 -1.910156 12.3125 -1.609375 C 12.46875 -1.304688 12.539062 -1.007812 12.53125 -0.71875 C 12.519531 -0.414062 12.425781 -0.101562 12.25 0.21875 C 12.082031 0.550781 11.800781 0.941406 11.40625 1.390625 L 8.21875 5.015625 C 7.882812 5.390625 7.710938 5.691406 7.703125 5.921875 C 7.691406 6.160156 7.832031 6.40625 8.125 6.65625 L 7.875 6.9375 C 7.71875 6.789062 7.484375 6.566406 7.171875 6.265625 C 6.859375 5.960938 6.539062 5.671875 6.21875 5.390625 C 5.90625 5.097656 5.585938 4.820312 5.265625 4.5625 C 4.941406 4.300781 4.691406 4.109375 4.515625 3.984375 L 4.765625 3.703125 C 5.003906 3.910156 5.226562 3.988281 5.4375 3.9375 C 5.65625 3.882812 5.929688 3.671875 6.265625 3.296875 L 9.953125 -0.890625 C 10.148438 -1.117188 10.300781 -1.328125 10.40625 -1.515625 C 10.519531 -1.710938 10.566406 -1.90625 10.546875 -2.09375 C 10.523438 -2.289062 10.414062 -2.476562 10.21875 -2.65625 C 9.976562 -2.863281 9.703125 -2.984375 9.390625 -3.015625 C 9.078125 -3.054688 8.753906 -3.007812 8.421875 -2.875 C 8.085938 -2.738281 7.789062 -2.523438 7.53125 -2.234375 L 4.234375 1.515625 C 3.898438 1.890625 3.722656 2.1875 3.703125 2.40625 C 3.679688 2.625 3.789062 2.835938 4.03125 3.046875 L 3.78125 3.328125 C 3.632812 3.179688 3.414062 2.96875 3.125 2.6875 C 2.84375 2.40625 2.546875 2.128906 2.234375 1.859375 C 1.890625 1.554688 1.53125 1.253906 1.15625 0.953125 C 0.789062 0.660156 0.515625 0.441406 0.328125 0.296875 L 0.578125 0.015625 C 0.890625 0.285156 1.171875 0.410156 1.421875 0.390625 C 1.671875 0.367188 1.960938 0.171875 2.296875 -0.203125 L 6.03125 -4.453125 C 6.382812 -4.847656 6.585938 -5.195312 6.640625 -5.5 C 6.691406 -5.8125 6.550781 -6.109375 6.21875 -6.390625 L 6.46875 -6.671875 C 6.726562 -6.398438 6.992188 -6.144531 7.265625 -5.90625 C 7.640625 -5.570312 8.003906 -5.273438 8.359375 -5.015625 C 8.710938 -4.753906 9.054688 -4.53125 9.390625 -4.34375 L 8.328125 -3.125 C 8.941406 -3.40625 9.515625 -3.476562 10.046875 -3.34375 C 10.578125 -3.207031 11.066406 -2.945312 11.515625 -2.5625 Z M 15.5625 1.015625 C 15.9375 1.347656 16.203125 1.664062 16.359375 1.96875 C 16.515625 2.269531 16.59375 2.5625 16.59375 2.84375 C 16.570312 3.144531 16.472656 3.457031 16.296875 3.78125 C 16.117188 4.113281 15.832031 4.503906 15.4375 4.953125 L 12.25 8.578125 C 11.914062 8.953125 11.753906 9.265625 11.765625 9.515625 C 11.785156 9.765625 11.953125 10.03125 12.265625 10.3125 L 12.015625 10.59375 C 11.847656 10.425781 11.597656 10.1875 11.265625 9.875 C 10.941406 9.5625 10.613281 9.253906 10.28125 8.953125 C 9.957031 8.671875 9.628906 8.398438 9.296875 8.140625 C 8.972656 7.878906 8.726562 7.679688 8.5625 7.546875 L 8.8125 7.265625 C 9.0625 7.484375 9.289062 7.566406 9.5 7.515625 C 9.71875 7.460938 9.992188 7.25 10.328125 6.875 L 14.015625 2.6875 C 14.210938 2.457031 14.363281 2.242188 14.46875 2.046875 C 14.570312 1.847656 14.609375 1.648438 14.578125 1.453125 C 14.546875 1.253906 14.414062 1.050781 14.1875 0.84375 C 13.945312 0.632812 13.664062 0.515625 13.34375 0.484375 C 13.03125 0.460938 12.707031 0.519531 12.375 0.65625 C 12.039062 0.789062 11.734375 1 11.453125 1.28125 L 12.109375 0.40625 C 12.835938 0.0820312 13.476562 0 14.03125 0.15625 C 14.59375 0.320312 15.101562 0.609375 15.5625 1.015625 Z M 15.5625 1.015625 "/></g></g></g><g fill="#38b2d8" fill-opacity="1"><g transform="translate(256.329586, 75.443161)"><g><path d="M 11.25 -2.796875 C 11.9375 -2.179688 12.265625 -1.378906 12.234375 -0.390625 C 12.203125 0.585938 11.664062 1.664062 10.625 2.84375 C 9.800781 3.78125 8.992188 4.40625 8.203125 4.71875 C 7.421875 5.03125 6.6875 5.109375 6 4.953125 C 5.3125 4.796875 4.6875 4.472656 4.125 3.984375 C 3.75 3.648438 3.460938 3.28125 3.265625 2.875 C 3.066406 2.476562 2.984375 2.035156 3.015625 1.546875 L 3.265625 1.640625 C 3.242188 1.984375 3.296875 2.300781 3.421875 2.59375 C 3.554688 2.882812 3.734375 3.128906 3.953125 3.328125 C 4.453125 3.765625 5.066406 3.8125 5.796875 3.46875 C 6.535156 3.125 7.40625 2.382812 8.40625 1.25 C 9.082031 0.476562 9.570312 -0.171875 9.875 -0.703125 C 10.1875 -1.242188 10.335938 -1.691406 10.328125 -2.046875 C 10.328125 -2.410156 10.203125 -2.703125 9.953125 -2.921875 C 9.640625 -3.191406 9.234375 -3.3125 8.734375 -3.28125 C 8.242188 -3.257812 7.785156 -3.039062 7.359375 -2.625 L 7.703125 -3.140625 C 8.304688 -3.515625 8.914062 -3.664062 9.53125 -3.59375 C 10.15625 -3.519531 10.726562 -3.253906 11.25 -2.796875 Z M 12.1875 -7.984375 L 3.125 2.28125 C 2.9375 2.039062 2.707031 1.832031 2.4375 1.65625 C 2.164062 1.488281 1.894531 1.359375 1.625 1.265625 C 1.351562 1.179688 1.101562 1.144531 0.875 1.15625 L 0.765625 0.84375 C 0.910156 0.75 1.039062 0.644531 1.15625 0.53125 C 1.28125 0.414062 1.398438 0.296875 1.515625 0.171875 L 8.796875 -8.09375 C 9.148438 -8.488281 9.351562 -8.835938 9.40625 -9.140625 C 9.457031 -9.453125 9.316406 -9.75 8.984375 -10.03125 L 9.234375 -10.3125 C 9.492188 -10.03125 9.757812 -9.769531 10.03125 -9.53125 C 10.394531 -9.207031 10.757812 -8.914062 11.125 -8.65625 C 11.488281 -8.394531 11.84375 -8.171875 12.1875 -7.984375 Z M 12.1875 -7.984375 "/></g></g></g><g fill="#38b2d8" fill-opacity="1"><g transform="translate(264.220623, 82.40019)"><g><path d="M 10.09375 -3.8125 C 10.75 -3.226562 11.21875 -2.597656 11.5 -1.921875 C 11.78125 -1.242188 11.820312 -0.515625 11.625 0.265625 C 11.4375 1.054688 10.953125 1.898438 10.171875 2.796875 C 9.390625 3.679688 8.617188 4.265625 7.859375 4.546875 C 7.109375 4.828125 6.378906 4.875 5.671875 4.6875 C 4.960938 4.5 4.28125 4.113281 3.625 3.53125 C 2.988281 2.96875 2.523438 2.34375 2.234375 1.65625 C 1.953125 0.976562 1.90625 0.25 2.09375 -0.53125 C 2.289062 -1.3125 2.78125 -2.144531 3.5625 -3.03125 C 4.34375 -3.925781 5.109375 -4.515625 5.859375 -4.796875 C 6.617188 -5.085938 7.351562 -5.132812 8.0625 -4.9375 C 8.78125 -4.75 9.457031 -4.375 10.09375 -3.8125 Z M 9.859375 -3.53125 C 9.503906 -3.84375 8.96875 -3.835938 8.25 -3.515625 C 7.539062 -3.203125 6.65625 -2.441406 5.59375 -1.234375 C 4.53125 -0.0351562 3.890625 0.929688 3.671875 1.671875 C 3.453125 2.421875 3.519531 2.953125 3.875 3.265625 C 4.238281 3.585938 4.769531 3.585938 5.46875 3.265625 C 6.175781 2.953125 7.0625 2.195312 8.125 1 C 9.1875 -0.207031 9.832031 -1.179688 10.0625 -1.921875 C 10.289062 -2.671875 10.222656 -3.207031 9.859375 -3.53125 Z M 9.859375 -3.53125 "/></g></g></g><g fill="#38b2d8" fill-opacity="1"><g transform="translate(271.828876, 89.107906)"><g><path d="M 10.09375 -3.8125 C 10.75 -3.226562 11.21875 -2.597656 11.5 -1.921875 C 11.78125 -1.242188 11.820312 -0.515625 11.625 0.265625 C 11.4375 1.054688 10.953125 1.898438 10.171875 2.796875 C 9.390625 3.679688 8.617188 4.265625 7.859375 4.546875 C 7.109375 4.828125 6.378906 4.875 5.671875 4.6875 C 4.960938 4.5 4.28125 4.113281 3.625 3.53125 C 2.988281 2.96875 2.523438 2.34375 2.234375 1.65625 C 1.953125 0.976562 1.90625 0.25 2.09375 -0.53125 C 2.289062 -1.3125 2.78125 -2.144531 3.5625 -3.03125 C 4.34375 -3.925781 5.109375 -4.515625 5.859375 -4.796875 C 6.617188 -5.085938 7.351562 -5.132812 8.0625 -4.9375 C 8.78125 -4.75 9.457031 -4.375 10.09375 -3.8125 Z M 9.859375 -3.53125 C 9.503906 -3.84375 8.96875 -3.835938 8.25 -3.515625 C 7.539062 -3.203125 6.65625 -2.441406 5.59375 -1.234375 C 4.53125 -0.0351562 3.890625 0.929688 3.671875 1.671875 C 3.453125 2.421875 3.519531 2.953125 3.875 3.265625 C 4.238281 3.585938 4.769531 3.585938 5.46875 3.265625 C 6.175781 2.953125 7.0625 2.195312 8.125 1 C 9.1875 -0.207031 9.832031 -1.179688 10.0625 -1.921875 C 10.289062 -2.671875 10.222656 -3.207031 9.859375 -3.53125 Z M 9.859375 -3.53125 "/></g></g></g><g fill="#38b2d8" fill-opacity="1"><g transform="translate(279.437129, 95.815623)"><g><path d="M 11.140625 -6.46875 L 9.203125 -4.265625 L 10.78125 -2.875 L 10.546875 -2.59375 L 8.96875 -3.984375 L 4.171875 1.453125 C 3.929688 1.722656 3.8125 1.953125 3.8125 2.140625 C 3.8125 2.335938 3.90625 2.523438 4.09375 2.703125 C 4.257812 2.847656 4.476562 2.929688 4.75 2.953125 C 5.019531 2.972656 5.351562 2.890625 5.75 2.703125 L 5.84375 3.015625 C 5.351562 3.304688 4.84375 3.453125 4.3125 3.453125 C 3.789062 3.453125 3.28125 3.234375 2.78125 2.796875 C 2.488281 2.535156 2.257812 2.265625 2.09375 1.984375 C 1.9375 1.710938 1.851562 1.4375 1.84375 1.15625 C 1.8125 0.769531 1.890625 0.40625 2.078125 0.0625 C 2.273438 -0.28125 2.582031 -0.6875 3 -1.15625 L 7.015625 -5.703125 L 5.890625 -6.703125 L 6.125 -6.984375 L 7.25 -5.984375 L 8.8125 -7.765625 C 9.195312 -7.429688 9.578125 -7.15625 9.953125 -6.9375 C 10.335938 -6.71875 10.734375 -6.5625 11.140625 -6.46875 Z M 11.140625 -6.46875 "/></g></g></g></svg>