<svg xmlns="http://www.w3.org/2000/svg" xmlns:xlink="http://www.w3.org/1999/xlink" width="500" zoomAndPan="magnify" viewBox="0 0 375 281.25" height="375" preserveAspectRatio="xMidYMid meet" version="1.0"><defs><g/><clipPath id="d8f1d876e3"><path d="M 28.550781 26.179688 L 347 26.179688 L 347 256.027344 L 28.550781 256.027344 Z M 28.550781 26.179688 " clip-rule="nonzero"/></clipPath><clipPath id="8dd0d8cc67"><path d="M 42.011719 26.179688 L 332.988281 26.179688 C 336.558594 26.179688 339.984375 27.597656 342.507812 30.121094 C 345.03125 32.644531 346.449219 36.070312 346.449219 39.640625 L 346.449219 242.5625 C 346.449219 246.132812 345.03125 249.558594 342.507812 252.082031 C 339.984375 254.609375 336.558594 256.027344 332.988281 256.027344 L 42.011719 256.027344 C 38.441406 256.027344 35.015625 254.609375 32.492188 252.082031 C 29.96875 249.558594 28.550781 246.132812 28.550781 242.5625 L 28.550781 39.640625 C 28.550781 32.207031 34.578125 26.179688 42.011719 26.179688 Z M 42.011719 26.179688 " clip-rule="nonzero"/></clipPath><clipPath id="08b014fa06"><path d="M 0.550781 0.179688 L 318.617188 0.179688 L 318.617188 230.027344 L 0.550781 230.027344 Z M 0.550781 0.179688 " clip-rule="nonzero"/></clipPath><clipPath id="678f0975b7"><path d="M 14.011719 0.179688 L 304.988281 0.179688 C 308.558594 0.179688 311.984375 1.597656 314.507812 4.121094 C 317.03125 6.644531 318.449219 10.070312 318.449219 13.640625 L 318.449219 216.5625 C 318.449219 220.132812 317.03125 223.558594 314.507812 226.082031 C 311.984375 228.609375 308.558594 230.027344 304.988281 230.027344 L 14.011719 230.027344 C 10.441406 230.027344 7.015625 228.609375 4.492188 226.082031 C 1.96875 223.558594 0.550781 220.132812 0.550781 216.5625 L 0.550781 13.640625 C 0.550781 6.207031 6.578125 0.179688 14.011719 0.179688 Z M 14.011719 0.179688 " clip-rule="nonzero"/></clipPath><clipPath id="978983a691"><rect x="0" width="319" y="0" height="231"/></clipPath><clipPath id="46a02cac8b"><rect x="0" width="115" y="0" height="36"/></clipPath><clipPath id="2a13e8b4b1"><path d="M 167 175.554688 L 188 175.554688 L 188 198 L 167 198 Z M 167 175.554688 " clip-rule="nonzero"/></clipPath><clipPath id="a16a258cb4"><path d="M 196 175.554688 L 197 175.554688 L 197 176 L 196 176 Z M 196 175.554688 " clip-rule="nonzero"/></clipPath><clipPath id="f606050b46"><path d="M 182 175.554688 L 188 175.554688 L 188 176 L 182 176 Z M 182 175.554688 " clip-rule="nonzero"/></clipPath><clipPath id="b67b5b6b28"><path d="M 182 175.554688 L 209 175.554688 L 209 198 L 182 198 Z M 182 175.554688 " clip-rule="nonzero"/></clipPath><clipPath id="9ec3025079"><path d="M 184 202 L 214 202 L 214 230.910156 L 184 230.910156 Z M 184 202 " clip-rule="nonzero"/></clipPath></defs><g clip-path="url(#d8f1d876e3)"><g clip-path="url(#8dd0d8cc67)"><g transform="matrix(1, 0, 0, 1, 28, 26)"><g clip-path="url(#978983a691)"><g clip-path="url(#08b014fa06)"><g clip-path="url(#678f0975b7)"><path fill="#d3d9dd" d="M 0.550781 0.179688 L 318.386719 0.179688 L 318.386719 230.027344 L 0.550781 230.027344 Z M 0.550781 0.179688 " fill-opacity="1" fill-rule="nonzero"/></g></g></g></g></g></g><g transform="matrix(1, 0, 0, 1, 130, 70)"><g clip-path="url(#46a02cac8b)"><g fill="#000000" fill-opacity="1"><g transform="translate(1.035644, 24.660088)"><g><path d="M 8.140625 -2.71875 C 8.753906 -2.71875 9.378906 -2.765625 10.015625 -2.859375 C 10.648438 -2.953125 11.242188 -3.132812 11.796875 -3.40625 C 12.492188 -3.789062 13.050781 -4.304688 13.46875 -4.953125 C 13.894531 -5.597656 14.210938 -6.304688 14.421875 -7.078125 C 14.640625 -7.859375 14.773438 -8.648438 14.828125 -9.453125 C 14.890625 -10.265625 14.921875 -11.03125 14.921875 -11.75 C 14.921875 -12.457031 14.890625 -13.238281 14.828125 -14.09375 C 14.773438 -14.945312 14.640625 -15.765625 14.421875 -16.546875 C 14.210938 -17.328125 13.878906 -18.046875 13.421875 -18.703125 C 12.972656 -19.367188 12.363281 -19.867188 11.59375 -20.203125 C 11.039062 -20.453125 10.46875 -20.609375 9.875 -20.671875 C 9.289062 -20.742188 8.703125 -20.78125 8.109375 -20.78125 L 6.140625 -20.78125 L 6.140625 -2.71875 Z M 2.71875 0 L 2.71875 -23.515625 L 8.765625 -23.515625 C 10.691406 -23.515625 12.289062 -23.234375 13.5625 -22.671875 C 14.832031 -22.117188 15.847656 -21.332031 16.609375 -20.3125 C 17.367188 -19.289062 17.898438 -18.054688 18.203125 -16.609375 C 18.515625 -15.171875 18.671875 -13.578125 18.671875 -11.828125 C 18.671875 -10.035156 18.515625 -8.410156 18.203125 -6.953125 C 17.898438 -5.492188 17.367188 -4.25 16.609375 -3.21875 C 15.847656 -2.1875 14.832031 -1.390625 13.5625 -0.828125 C 12.289062 -0.273438 10.691406 0 8.765625 0 Z M 2.71875 0 "/></g></g></g><g fill="#000000" fill-opacity="1"><g transform="translate(21.241335, 24.660088)"><g><path d="M 2.859375 0 L 2.859375 -16.21875 L 5.921875 -16.21875 L 5.921875 0 Z M 2.5625 -20.03125 L 2.5625 -23.515625 L 6.234375 -23.515625 L 6.234375 -20.03125 Z M 2.5625 -20.03125 "/></g></g></g><g fill="#000000" fill-opacity="1"><g transform="translate(30.066424, 24.660088)"><g><path d="M 1.265625 -2.96875 C 1.847656 -2.695312 2.519531 -2.46875 3.28125 -2.28125 C 4.050781 -2.101562 4.738281 -2.015625 5.34375 -2.015625 C 5.6875 -2.015625 6.050781 -2.039062 6.4375 -2.09375 C 6.820312 -2.15625 7.179688 -2.257812 7.515625 -2.40625 C 7.847656 -2.550781 8.117188 -2.757812 8.328125 -3.03125 C 8.546875 -3.300781 8.65625 -3.65625 8.65625 -4.09375 C 8.65625 -4.539062 8.472656 -4.941406 8.109375 -5.296875 C 7.742188 -5.648438 7.285156 -5.992188 6.734375 -6.328125 C 6.191406 -6.671875 5.597656 -7.015625 4.953125 -7.359375 C 4.304688 -7.703125 3.707031 -8.09375 3.15625 -8.53125 C 2.613281 -8.976562 2.160156 -9.484375 1.796875 -10.046875 C 1.441406 -10.617188 1.265625 -11.289062 1.265625 -12.0625 C 1.265625 -12.882812 1.425781 -13.578125 1.75 -14.140625 C 2.082031 -14.710938 2.519531 -15.175781 3.0625 -15.53125 C 3.613281 -15.894531 4.226562 -16.160156 4.90625 -16.328125 C 5.582031 -16.503906 6.285156 -16.59375 7.015625 -16.59375 C 7.679688 -16.59375 8.300781 -16.53125 8.875 -16.40625 C 9.457031 -16.28125 10.066406 -16.148438 10.703125 -16.015625 L 10.703125 -13.25 C 10.109375 -13.53125 9.503906 -13.757812 8.890625 -13.9375 C 8.273438 -14.113281 7.640625 -14.203125 6.984375 -14.203125 C 6.734375 -14.203125 6.453125 -14.164062 6.140625 -14.09375 C 5.835938 -14.03125 5.550781 -13.929688 5.28125 -13.796875 C 5.007812 -13.660156 4.78125 -13.476562 4.59375 -13.25 C 4.414062 -13.03125 4.328125 -12.769531 4.328125 -12.46875 C 4.328125 -12.039062 4.507812 -11.65625 4.875 -11.3125 C 5.238281 -10.96875 5.691406 -10.632812 6.234375 -10.3125 C 6.773438 -10 7.367188 -9.671875 8.015625 -9.328125 C 8.671875 -8.992188 9.269531 -8.609375 9.8125 -8.171875 C 10.351562 -7.742188 10.804688 -7.234375 11.171875 -6.640625 C 11.535156 -6.054688 11.71875 -5.351562 11.71875 -4.53125 C 11.71875 -3.601562 11.550781 -2.828125 11.21875 -2.203125 C 10.894531 -1.578125 10.453125 -1.070312 9.890625 -0.6875 C 9.335938 -0.300781 8.691406 -0.03125 7.953125 0.125 C 7.210938 0.289062 6.4375 0.375 5.625 0.375 C 4.875 0.375 4.140625 0.316406 3.421875 0.203125 C 2.703125 0.0859375 1.984375 -0.0664062 1.265625 -0.265625 Z M 1.265625 -2.96875 "/></g></g></g><g fill="#000000" fill-opacity="1"><g transform="translate(42.673683, 24.660088)"><g><path d="M 9.140625 -2.015625 C 9.859375 -2.015625 10.425781 -2.226562 10.84375 -2.65625 C 11.269531 -3.09375 11.585938 -3.628906 11.796875 -4.265625 C 12.015625 -4.898438 12.148438 -5.566406 12.203125 -6.265625 C 12.265625 -6.972656 12.296875 -7.585938 12.296875 -8.109375 C 12.296875 -8.648438 12.265625 -9.273438 12.203125 -9.984375 C 12.148438 -10.691406 12.015625 -11.359375 11.796875 -11.984375 C 11.585938 -12.609375 11.265625 -13.132812 10.828125 -13.5625 C 10.398438 -13.988281 9.8125 -14.203125 9.0625 -14.203125 C 8.382812 -14.203125 7.816406 -13.976562 7.359375 -13.53125 C 6.898438 -13.09375 6.539062 -12.554688 6.28125 -11.921875 C 6.019531 -11.285156 5.835938 -10.613281 5.734375 -9.90625 C 5.640625 -9.207031 5.59375 -8.597656 5.59375 -8.078125 C 5.59375 -7.503906 5.628906 -6.863281 5.703125 -6.15625 C 5.785156 -5.457031 5.957031 -4.800781 6.21875 -4.1875 C 6.476562 -3.570312 6.84375 -3.054688 7.3125 -2.640625 C 7.78125 -2.222656 8.390625 -2.015625 9.140625 -2.015625 Z M 2.515625 7.296875 L 2.515625 -16.21875 L 5.59375 -16.21875 L 5.59375 -13.765625 L 5.65625 -13.765625 C 6.019531 -14.628906 6.628906 -15.316406 7.484375 -15.828125 C 8.335938 -16.335938 9.226562 -16.59375 10.15625 -16.59375 C 11.269531 -16.59375 12.179688 -16.335938 12.890625 -15.828125 C 13.609375 -15.316406 14.175781 -14.65625 14.59375 -13.84375 C 15.019531 -13.039062 15.3125 -12.15625 15.46875 -11.1875 C 15.625 -10.226562 15.703125 -9.296875 15.703125 -8.390625 C 15.703125 -7.453125 15.625 -6.472656 15.46875 -5.453125 C 15.3125 -4.429688 15.015625 -3.488281 14.578125 -2.625 C 14.148438 -1.757812 13.566406 -1.039062 12.828125 -0.46875 C 12.085938 0.09375 11.140625 0.375 9.984375 0.375 C 9.054688 0.375 8.195312 0.164062 7.40625 -0.25 C 6.625 -0.675781 6.039062 -1.332031 5.65625 -2.21875 L 5.59375 -2.21875 L 5.59375 7.296875 Z M 2.515625 7.296875 "/></g></g></g><g fill="#000000" fill-opacity="1"><g transform="translate(59.71052, 24.660088)"><g><path d="M 8.546875 -2.015625 C 9.390625 -2.015625 10.054688 -2.210938 10.546875 -2.609375 C 11.035156 -3.003906 11.410156 -3.503906 11.671875 -4.109375 C 11.929688 -4.710938 12.097656 -5.367188 12.171875 -6.078125 C 12.253906 -6.796875 12.296875 -7.472656 12.296875 -8.109375 C 12.296875 -8.742188 12.253906 -9.421875 12.171875 -10.140625 C 12.097656 -10.859375 11.9375 -11.515625 11.6875 -12.109375 C 11.4375 -12.710938 11.0625 -13.210938 10.5625 -13.609375 C 10.0625 -14.003906 9.390625 -14.203125 8.546875 -14.203125 C 7.710938 -14.203125 7.046875 -14.007812 6.546875 -13.625 C 6.046875 -13.238281 5.664062 -12.742188 5.40625 -12.140625 C 5.144531 -11.546875 4.972656 -10.890625 4.890625 -10.171875 C 4.804688 -9.453125 4.765625 -8.765625 4.765625 -8.109375 C 4.765625 -7.453125 4.804688 -6.765625 4.890625 -6.046875 C 4.972656 -5.328125 5.144531 -4.671875 5.40625 -4.078125 C 5.664062 -3.492188 6.046875 -3.003906 6.546875 -2.609375 C 7.046875 -2.210938 7.710938 -2.015625 8.546875 -2.015625 Z M 8.546875 0.375 C 7.253906 0.375 6.144531 0.160156 5.21875 -0.265625 C 4.300781 -0.703125 3.554688 -1.304688 2.984375 -2.078125 C 2.421875 -2.847656 2.007812 -3.742188 1.75 -4.765625 C 1.488281 -5.785156 1.359375 -6.898438 1.359375 -8.109375 C 1.359375 -9.285156 1.488281 -10.390625 1.75 -11.421875 C 2.007812 -12.460938 2.421875 -13.363281 2.984375 -14.125 C 3.554688 -14.882812 4.300781 -15.484375 5.21875 -15.921875 C 6.144531 -16.367188 7.253906 -16.59375 8.546875 -16.59375 C 9.847656 -16.59375 10.953125 -16.367188 11.859375 -15.921875 C 12.765625 -15.484375 13.5 -14.882812 14.0625 -14.125 C 14.632812 -13.363281 15.050781 -12.460938 15.3125 -11.421875 C 15.570312 -10.390625 15.703125 -9.285156 15.703125 -8.109375 C 15.703125 -6.929688 15.570312 -5.820312 15.3125 -4.78125 C 15.050781 -3.75 14.632812 -2.851562 14.0625 -2.09375 C 13.5 -1.332031 12.765625 -0.726562 11.859375 -0.28125 C 10.953125 0.15625 9.847656 0.375 8.546875 0.375 Z M 8.546875 0.375 "/></g></g></g><g fill="#000000" fill-opacity="1"><g transform="translate(76.747357, 24.660088)"><g><path d="M 1.265625 -2.96875 C 1.847656 -2.695312 2.519531 -2.46875 3.28125 -2.28125 C 4.050781 -2.101562 4.738281 -2.015625 5.34375 -2.015625 C 5.6875 -2.015625 6.050781 -2.039062 6.4375 -2.09375 C 6.820312 -2.15625 7.179688 -2.257812 7.515625 -2.40625 C 7.847656 -2.550781 8.117188 -2.757812 8.328125 -3.03125 C 8.546875 -3.300781 8.65625 -3.65625 8.65625 -4.09375 C 8.65625 -4.539062 8.472656 -4.941406 8.109375 -5.296875 C 7.742188 -5.648438 7.285156 -5.992188 6.734375 -6.328125 C 6.191406 -6.671875 5.597656 -7.015625 4.953125 -7.359375 C 4.304688 -7.703125 3.707031 -8.09375 3.15625 -8.53125 C 2.613281 -8.976562 2.160156 -9.484375 1.796875 -10.046875 C 1.441406 -10.617188 1.265625 -11.289062 1.265625 -12.0625 C 1.265625 -12.882812 1.425781 -13.578125 1.75 -14.140625 C 2.082031 -14.710938 2.519531 -15.175781 3.0625 -15.53125 C 3.613281 -15.894531 4.226562 -16.160156 4.90625 -16.328125 C 5.582031 -16.503906 6.285156 -16.59375 7.015625 -16.59375 C 7.679688 -16.59375 8.300781 -16.53125 8.875 -16.40625 C 9.457031 -16.28125 10.066406 -16.148438 10.703125 -16.015625 L 10.703125 -13.25 C 10.109375 -13.53125 9.503906 -13.757812 8.890625 -13.9375 C 8.273438 -14.113281 7.640625 -14.203125 6.984375 -14.203125 C 6.734375 -14.203125 6.453125 -14.164062 6.140625 -14.09375 C 5.835938 -14.03125 5.550781 -13.929688 5.28125 -13.796875 C 5.007812 -13.660156 4.78125 -13.476562 4.59375 -13.25 C 4.414062 -13.03125 4.328125 -12.769531 4.328125 -12.46875 C 4.328125 -12.039062 4.507812 -11.65625 4.875 -11.3125 C 5.238281 -10.96875 5.691406 -10.632812 6.234375 -10.3125 C 6.773438 -10 7.367188 -9.671875 8.015625 -9.328125 C 8.671875 -8.992188 9.269531 -8.609375 9.8125 -8.171875 C 10.351562 -7.742188 10.804688 -7.234375 11.171875 -6.640625 C 11.535156 -6.054688 11.71875 -5.351562 11.71875 -4.53125 C 11.71875 -3.601562 11.550781 -2.828125 11.21875 -2.203125 C 10.894531 -1.578125 10.453125 -1.070312 9.890625 -0.6875 C 9.335938 -0.300781 8.691406 -0.03125 7.953125 0.125 C 7.210938 0.289062 6.4375 0.375 5.625 0.375 C 4.875 0.375 4.140625 0.316406 3.421875 0.203125 C 2.703125 0.0859375 1.984375 -0.0664062 1.265625 -0.265625 Z M 1.265625 -2.96875 "/></g></g></g><g fill="#000000" fill-opacity="1"><g transform="translate(89.354617, 24.660088)"><g><path d="M 10.328125 -7.265625 L 9.71875 -7.265625 C 9.238281 -7.265625 8.710938 -7.207031 8.140625 -7.09375 C 7.578125 -6.976562 7.054688 -6.796875 6.578125 -6.546875 C 6.097656 -6.296875 5.691406 -5.960938 5.359375 -5.546875 C 5.035156 -5.140625 4.875 -4.65625 4.875 -4.09375 C 4.875 -3.59375 5.023438 -3.117188 5.328125 -2.671875 C 5.640625 -2.234375 6.078125 -2.015625 6.640625 -2.015625 C 7.160156 -2.015625 7.648438 -2.148438 8.109375 -2.421875 C 8.566406 -2.691406 8.957031 -3.035156 9.28125 -3.453125 C 9.613281 -3.878906 9.867188 -4.347656 10.046875 -4.859375 C 10.234375 -5.367188 10.328125 -5.863281 10.328125 -6.34375 Z M 10.328125 0 L 10.328125 -2.015625 L 10.25 -2.015625 C 9.894531 -1.242188 9.316406 -0.648438 8.515625 -0.234375 C 7.722656 0.171875 6.90625 0.375 6.0625 0.375 C 4.695312 0.375 3.585938 0 2.734375 -0.75 C 1.890625 -1.5 1.46875 -2.578125 1.46875 -3.984375 C 1.46875 -5.117188 1.757812 -6.035156 2.34375 -6.734375 C 2.9375 -7.441406 3.675781 -7.984375 4.5625 -8.359375 C 5.445312 -8.734375 6.40625 -8.984375 7.4375 -9.109375 C 8.476562 -9.234375 9.441406 -9.296875 10.328125 -9.296875 L 10.328125 -11.796875 C 10.328125 -12.628906 10.082031 -13.238281 9.59375 -13.625 C 9.101562 -14.007812 8.519531 -14.203125 7.84375 -14.203125 C 7.039062 -14.203125 6.40625 -13.988281 5.9375 -13.5625 C 5.476562 -13.132812 5.25 -12.519531 5.25 -11.71875 L 2.015625 -11.71875 C 2.015625 -12.632812 2.175781 -13.394531 2.5 -14 C 2.832031 -14.613281 3.273438 -15.113281 3.828125 -15.5 C 4.390625 -15.882812 5.03125 -16.160156 5.75 -16.328125 C 6.476562 -16.503906 7.253906 -16.59375 8.078125 -16.59375 C 11.617188 -16.59375 13.390625 -14.851562 13.390625 -11.375 L 13.390625 0 Z M 10.328125 0 "/></g></g></g><g fill="#000000" fill-opacity="1"><g transform="translate(105.13073, 24.660088)"><g><path d="M 2.859375 0 L 2.859375 -23.515625 L 5.921875 -23.515625 L 5.921875 0 Z M 2.859375 0 "/></g></g></g></g></g><g fill="#000000" fill-opacity="1"><g transform="translate(81.417889, 132.770949)"><g><path d="M 3.234375 -10.375 L 3.234375 0 L 1.609375 0 L 1.609375 -12.5625 L 3.875 -12.5625 L 9.421875 -2.125 L 9.421875 -12.5625 L 11.046875 -12.5625 L 11.046875 0 L 8.8125 0 Z M 3.234375 -10.375 "/></g></g></g><g fill="#000000" fill-opacity="1"><g transform="translate(94.074103, 132.770949)"><g><path d="M 2.453125 -4 C 2.566406 -3.125 2.875 -2.441406 3.375 -1.953125 C 3.875 -1.460938 4.539062 -1.21875 5.375 -1.21875 C 5.90625 -1.21875 6.382812 -1.273438 6.8125 -1.390625 C 7.25 -1.503906 7.664062 -1.648438 8.0625 -1.828125 L 8.4375 -0.453125 C 8.007812 -0.242188 7.523438 -0.0820312 6.984375 0.03125 C 6.441406 0.15625 5.835938 0.21875 5.171875 0.21875 C 4.503906 0.21875 3.898438 0.109375 3.359375 -0.109375 C 2.816406 -0.335938 2.359375 -0.65625 1.984375 -1.0625 C 1.609375 -1.476562 1.316406 -1.988281 1.109375 -2.59375 C 0.910156 -3.195312 0.8125 -3.890625 0.8125 -4.671875 C 0.8125 -5.359375 0.910156 -6 1.109375 -6.59375 C 1.316406 -7.195312 1.601562 -7.71875 1.96875 -8.15625 C 2.34375 -8.59375 2.785156 -8.929688 3.296875 -9.171875 C 3.816406 -9.421875 4.394531 -9.546875 5.03125 -9.546875 C 5.695312 -9.546875 6.28125 -9.429688 6.78125 -9.203125 C 7.289062 -8.984375 7.710938 -8.675781 8.046875 -8.28125 C 8.378906 -7.882812 8.628906 -7.421875 8.796875 -6.890625 C 8.960938 -6.367188 9.046875 -5.8125 9.046875 -5.21875 C 9.046875 -4.800781 9.03125 -4.394531 9 -4 Z M 4.984375 -8.15625 C 4.285156 -8.15625 3.707031 -7.914062 3.25 -7.4375 C 2.800781 -6.957031 2.53125 -6.25 2.4375 -5.3125 L 7.5625 -5.3125 C 7.5625 -6.21875 7.332031 -6.914062 6.875 -7.40625 C 6.414062 -7.90625 5.785156 -8.15625 4.984375 -8.15625 Z M 4.984375 -8.15625 "/></g></g></g><g fill="#000000" fill-opacity="1"><g transform="translate(103.840037, 132.770949)"><g><path d="M 2.453125 -4 C 2.566406 -3.125 2.875 -2.441406 3.375 -1.953125 C 3.875 -1.460938 4.539062 -1.21875 5.375 -1.21875 C 5.90625 -1.21875 6.382812 -1.273438 6.8125 -1.390625 C 7.25 -1.503906 7.664062 -1.648438 8.0625 -1.828125 L 8.4375 -0.453125 C 8.007812 -0.242188 7.523438 -0.0820312 6.984375 0.03125 C 6.441406 0.15625 5.835938 0.21875 5.171875 0.21875 C 4.503906 0.21875 3.898438 0.109375 3.359375 -0.109375 C 2.816406 -0.335938 2.359375 -0.65625 1.984375 -1.0625 C 1.609375 -1.476562 1.316406 -1.988281 1.109375 -2.59375 C 0.910156 -3.195312 0.8125 -3.890625 0.8125 -4.671875 C 0.8125 -5.359375 0.910156 -6 1.109375 -6.59375 C 1.316406 -7.195312 1.601562 -7.71875 1.96875 -8.15625 C 2.34375 -8.59375 2.785156 -8.929688 3.296875 -9.171875 C 3.816406 -9.421875 4.394531 -9.546875 5.03125 -9.546875 C 5.695312 -9.546875 6.28125 -9.429688 6.78125 -9.203125 C 7.289062 -8.984375 7.710938 -8.675781 8.046875 -8.28125 C 8.378906 -7.882812 8.628906 -7.421875 8.796875 -6.890625 C 8.960938 -6.367188 9.046875 -5.8125 9.046875 -5.21875 C 9.046875 -4.800781 9.03125 -4.394531 9 -4 Z M 4.984375 -8.15625 C 4.285156 -8.15625 3.707031 -7.914062 3.25 -7.4375 C 2.800781 -6.957031 2.53125 -6.25 2.4375 -5.3125 L 7.5625 -5.3125 C 7.5625 -6.21875 7.332031 -6.914062 6.875 -7.40625 C 6.414062 -7.90625 5.785156 -8.15625 4.984375 -8.15625 Z M 4.984375 -8.15625 "/></g></g></g><g fill="#000000" fill-opacity="1"><g transform="translate(113.605971, 132.770949)"><g><path d="M 4.96875 0.21875 C 4.394531 0.21875 3.851562 0.101562 3.34375 -0.125 C 2.832031 -0.351562 2.390625 -0.675781 2.015625 -1.09375 C 1.640625 -1.507812 1.34375 -2.015625 1.125 -2.609375 C 0.914062 -3.203125 0.8125 -3.867188 0.8125 -4.609375 C 0.8125 -5.316406 0.921875 -5.972656 1.140625 -6.578125 C 1.359375 -7.179688 1.65625 -7.703125 2.03125 -8.140625 C 2.414062 -8.578125 2.859375 -8.921875 3.359375 -9.171875 C 3.859375 -9.421875 4.390625 -9.546875 4.953125 -9.546875 C 5.578125 -9.546875 6.113281 -9.421875 6.5625 -9.171875 C 7.007812 -8.921875 7.359375 -8.664062 7.609375 -8.40625 L 7.609375 -13.28125 L 9.234375 -13.28125 L 9.234375 -2.265625 C 9.234375 -1.804688 9.34375 -1.507812 9.5625 -1.375 C 9.78125 -1.238281 10.019531 -1.171875 10.28125 -1.171875 L 9.953125 0.09375 C 8.804688 0.09375 8.109375 -0.363281 7.859375 -1.28125 C 7.585938 -0.894531 7.21875 -0.546875 6.75 -0.234375 C 6.28125 0.0664062 5.6875 0.21875 4.96875 0.21875 Z M 5.328125 -1.21875 C 5.773438 -1.21875 6.195312 -1.320312 6.59375 -1.53125 C 7 -1.738281 7.335938 -2.015625 7.609375 -2.359375 L 7.609375 -6.984375 C 7.378906 -7.273438 7.0625 -7.539062 6.65625 -7.78125 C 6.257812 -8.03125 5.8125 -8.15625 5.3125 -8.15625 C 4.882812 -8.15625 4.492188 -8.0625 4.140625 -7.875 C 3.785156 -7.695312 3.484375 -7.453125 3.234375 -7.140625 C 2.984375 -6.828125 2.789062 -6.457031 2.65625 -6.03125 C 2.519531 -5.613281 2.453125 -5.160156 2.453125 -4.671875 C 2.453125 -4.160156 2.523438 -3.695312 2.671875 -3.28125 C 2.816406 -2.863281 3.015625 -2.5 3.265625 -2.1875 C 3.523438 -1.882812 3.832031 -1.644531 4.1875 -1.46875 C 4.539062 -1.300781 4.921875 -1.21875 5.328125 -1.21875 Z M 5.328125 -1.21875 "/></g></g></g><g fill="#000000" fill-opacity="1"><g transform="translate(124.610595, 132.770949)"><g/></g></g><g fill="#000000" fill-opacity="1"><g transform="translate(129.996219, 132.770949)"><g><path d="M 6.5 -7.78125 C 6.269531 -7.875 6 -7.921875 5.6875 -7.921875 C 5.351562 -7.921875 5.023438 -7.847656 4.703125 -7.703125 C 4.390625 -7.554688 4.109375 -7.335938 3.859375 -7.046875 C 3.617188 -6.765625 3.421875 -6.398438 3.265625 -5.953125 C 3.117188 -5.503906 3.046875 -4.972656 3.046875 -4.359375 L 3.046875 0 L 1.4375 0 L 1.4375 -9.328125 L 3 -9.328125 L 3 -7.3125 C 3.101562 -7.59375 3.242188 -7.867188 3.421875 -8.140625 C 3.609375 -8.421875 3.820312 -8.660156 4.0625 -8.859375 C 4.3125 -9.066406 4.597656 -9.234375 4.921875 -9.359375 C 5.242188 -9.484375 5.601562 -9.546875 6 -9.546875 C 6.175781 -9.546875 6.347656 -9.535156 6.515625 -9.515625 C 6.691406 -9.503906 6.847656 -9.476562 6.984375 -9.4375 Z M 6.5 -7.78125 "/></g></g></g><g fill="#000000" fill-opacity="1"><g transform="translate(137.159098, 132.770949)"><g><path d="M 9.78125 0.09375 C 9.207031 0.09375 8.753906 -0.0195312 8.421875 -0.25 C 8.085938 -0.476562 7.851562 -0.804688 7.71875 -1.234375 C 7.300781 -0.804688 6.816406 -0.457031 6.265625 -0.1875 C 5.722656 0.0820312 5.128906 0.21875 4.484375 0.21875 C 4.078125 0.21875 3.6875 0.15625 3.3125 0.03125 C 2.9375 -0.09375 2.597656 -0.289062 2.296875 -0.5625 C 2.003906 -0.84375 1.769531 -1.203125 1.59375 -1.640625 C 1.425781 -2.085938 1.34375 -2.628906 1.34375 -3.265625 L 1.34375 -9.328125 L 2.96875 -9.328125 L 2.96875 -3.484375 C 2.96875 -2.753906 3.117188 -2.191406 3.421875 -1.796875 C 3.722656 -1.410156 4.179688 -1.21875 4.796875 -1.21875 C 5.296875 -1.21875 5.769531 -1.316406 6.21875 -1.515625 C 6.675781 -1.710938 7.085938 -1.976562 7.453125 -2.3125 L 7.453125 -9.328125 L 9.0625 -9.328125 L 9.0625 -2.421875 C 9.0625 -2.160156 9.09375 -1.945312 9.15625 -1.78125 C 9.21875 -1.625 9.296875 -1.5 9.390625 -1.40625 C 9.484375 -1.320312 9.59375 -1.257812 9.71875 -1.21875 C 9.851562 -1.1875 9.988281 -1.171875 10.125 -1.171875 Z M 9.78125 0.09375 "/></g></g></g><g fill="#000000" fill-opacity="1"><g transform="translate(148.00215, 132.770949)"><g><path d="M 1.4375 -13.28125 L 3.046875 -13.28125 L 3.046875 -8.359375 C 3.171875 -8.492188 3.320312 -8.632812 3.5 -8.78125 C 3.675781 -8.925781 3.875 -9.050781 4.09375 -9.15625 C 4.320312 -9.269531 4.570312 -9.363281 4.84375 -9.4375 C 5.125 -9.507812 5.425781 -9.546875 5.75 -9.546875 C 6.28125 -9.546875 6.796875 -9.4375 7.296875 -9.21875 C 7.796875 -9.007812 8.234375 -8.703125 8.609375 -8.296875 C 8.984375 -7.890625 9.285156 -7.382812 9.515625 -6.78125 C 9.742188 -6.1875 9.859375 -5.507812 9.859375 -4.75 C 9.859375 -4.007812 9.738281 -3.332031 9.5 -2.71875 C 9.257812 -2.113281 8.941406 -1.59375 8.546875 -1.15625 C 8.148438 -0.71875 7.695312 -0.378906 7.1875 -0.140625 C 6.675781 0.0976562 6.160156 0.21875 5.640625 0.21875 C 5.097656 0.21875 4.585938 0.125 4.109375 -0.0625 C 3.640625 -0.257812 3.25 -0.492188 2.9375 -0.765625 L 2.9375 0 L 1.4375 0 Z M 8.203125 -4.703125 C 8.203125 -5.242188 8.125 -5.722656 7.96875 -6.140625 C 7.820312 -6.566406 7.617188 -6.929688 7.359375 -7.234375 C 7.109375 -7.535156 6.8125 -7.765625 6.46875 -7.921875 C 6.125 -8.078125 5.765625 -8.15625 5.390625 -8.15625 C 4.867188 -8.15625 4.398438 -8.023438 3.984375 -7.765625 C 3.578125 -7.503906 3.265625 -7.226562 3.046875 -6.9375 L 3.046875 -1.9375 C 3.328125 -1.71875 3.648438 -1.539062 4.015625 -1.40625 C 4.390625 -1.28125 4.785156 -1.21875 5.203125 -1.21875 C 5.640625 -1.21875 6.039062 -1.300781 6.40625 -1.46875 C 6.78125 -1.632812 7.097656 -1.867188 7.359375 -2.171875 C 7.617188 -2.484375 7.820312 -2.847656 7.96875 -3.265625 C 8.125 -3.691406 8.203125 -4.171875 8.203125 -4.703125 Z M 8.203125 -4.703125 "/></g></g></g><g fill="#000000" fill-opacity="1"><g transform="translate(158.665677, 132.770949)"><g><path d="M 1.4375 -13.28125 L 3.046875 -13.28125 L 3.046875 -8.359375 C 3.171875 -8.492188 3.320312 -8.632812 3.5 -8.78125 C 3.675781 -8.925781 3.875 -9.050781 4.09375 -9.15625 C 4.320312 -9.269531 4.570312 -9.363281 4.84375 -9.4375 C 5.125 -9.507812 5.425781 -9.546875 5.75 -9.546875 C 6.28125 -9.546875 6.796875 -9.4375 7.296875 -9.21875 C 7.796875 -9.007812 8.234375 -8.703125 8.609375 -8.296875 C 8.984375 -7.890625 9.285156 -7.382812 9.515625 -6.78125 C 9.742188 -6.1875 9.859375 -5.507812 9.859375 -4.75 C 9.859375 -4.007812 9.738281 -3.332031 9.5 -2.71875 C 9.257812 -2.113281 8.941406 -1.59375 8.546875 -1.15625 C 8.148438 -0.71875 7.695312 -0.378906 7.1875 -0.140625 C 6.675781 0.0976562 6.160156 0.21875 5.640625 0.21875 C 5.097656 0.21875 4.585938 0.125 4.109375 -0.0625 C 3.640625 -0.257812 3.25 -0.492188 2.9375 -0.765625 L 2.9375 0 L 1.4375 0 Z M 8.203125 -4.703125 C 8.203125 -5.242188 8.125 -5.722656 7.96875 -6.140625 C 7.820312 -6.566406 7.617188 -6.929688 7.359375 -7.234375 C 7.109375 -7.535156 6.8125 -7.765625 6.46875 -7.921875 C 6.125 -8.078125 5.765625 -8.15625 5.390625 -8.15625 C 4.867188 -8.15625 4.398438 -8.023438 3.984375 -7.765625 C 3.578125 -7.503906 3.265625 -7.226562 3.046875 -6.9375 L 3.046875 -1.9375 C 3.328125 -1.71875 3.648438 -1.539062 4.015625 -1.40625 C 4.390625 -1.28125 4.785156 -1.21875 5.203125 -1.21875 C 5.640625 -1.21875 6.039062 -1.300781 6.40625 -1.46875 C 6.78125 -1.632812 7.097656 -1.867188 7.359375 -2.171875 C 7.617188 -2.484375 7.820312 -2.847656 7.96875 -3.265625 C 8.125 -3.691406 8.203125 -4.171875 8.203125 -4.703125 Z M 8.203125 -4.703125 "/></g></g></g><g fill="#000000" fill-opacity="1"><g transform="translate(169.329203, 132.770949)"><g><path d="M 3.046875 0 L 1.4375 0 L 1.4375 -9.328125 L 3.046875 -9.328125 Z M 2.25 -10.9375 C 1.9375 -10.9375 1.664062 -11.046875 1.4375 -11.265625 C 1.21875 -11.484375 1.109375 -11.75 1.109375 -12.0625 C 1.109375 -12.40625 1.207031 -12.679688 1.40625 -12.890625 C 1.613281 -13.097656 1.894531 -13.203125 2.25 -13.203125 C 2.550781 -13.203125 2.8125 -13.085938 3.03125 -12.859375 C 3.257812 -12.640625 3.375 -12.375 3.375 -12.0625 C 3.375 -11.71875 3.269531 -11.441406 3.0625 -11.234375 C 2.863281 -11.035156 2.59375 -10.9375 2.25 -10.9375 Z M 2.25 -10.9375 "/></g></g></g><g fill="#000000" fill-opacity="1"><g transform="translate(173.817224, 132.770949)"><g><path d="M 1.3125 -2.09375 C 1.625 -1.820312 2.015625 -1.601562 2.484375 -1.4375 C 2.960938 -1.269531 3.46875 -1.1875 4 -1.1875 C 4.675781 -1.1875 5.179688 -1.296875 5.515625 -1.515625 C 5.859375 -1.734375 6.03125 -2.019531 6.03125 -2.375 C 6.03125 -2.550781 5.992188 -2.71875 5.921875 -2.875 C 5.859375 -3.03125 5.738281 -3.175781 5.5625 -3.3125 C 5.394531 -3.457031 5.160156 -3.597656 4.859375 -3.734375 C 4.566406 -3.878906 4.179688 -4.035156 3.703125 -4.203125 C 2.816406 -4.503906 2.15625 -4.859375 1.71875 -5.265625 C 1.289062 -5.679688 1.078125 -6.253906 1.078125 -6.984375 C 1.078125 -7.335938 1.15625 -7.671875 1.3125 -7.984375 C 1.476562 -8.296875 1.710938 -8.566406 2.015625 -8.796875 C 2.328125 -9.035156 2.695312 -9.21875 3.125 -9.34375 C 3.5625 -9.476562 4.0625 -9.546875 4.625 -9.546875 C 5.238281 -9.546875 5.773438 -9.484375 6.234375 -9.359375 C 6.703125 -9.234375 7.117188 -9.078125 7.484375 -8.890625 L 7.03125 -7.5625 C 6.707031 -7.75 6.335938 -7.898438 5.921875 -8.015625 C 5.515625 -8.140625 5.0625 -8.203125 4.5625 -8.203125 C 3.9375 -8.203125 3.460938 -8.078125 3.140625 -7.828125 C 2.816406 -7.578125 2.65625 -7.300781 2.65625 -7 C 2.65625 -6.851562 2.679688 -6.71875 2.734375 -6.59375 C 2.785156 -6.476562 2.882812 -6.367188 3.03125 -6.265625 C 3.175781 -6.160156 3.367188 -6.050781 3.609375 -5.9375 C 3.847656 -5.832031 4.144531 -5.71875 4.5 -5.59375 C 5.09375 -5.394531 5.59375 -5.191406 6 -4.984375 C 6.40625 -4.773438 6.734375 -4.539062 6.984375 -4.28125 C 7.234375 -4.03125 7.410156 -3.757812 7.515625 -3.46875 C 7.628906 -3.175781 7.6875 -2.851562 7.6875 -2.5 C 7.6875 -2.070312 7.59375 -1.691406 7.40625 -1.359375 C 7.226562 -1.023438 6.976562 -0.738281 6.65625 -0.5 C 6.332031 -0.269531 5.941406 -0.09375 5.484375 0.03125 C 5.023438 0.15625 4.515625 0.21875 3.953125 0.21875 C 3.234375 0.21875 2.59375 0.128906 2.03125 -0.046875 C 1.46875 -0.234375 1 -0.46875 0.625 -0.75 Z M 1.3125 -2.09375 "/></g></g></g><g fill="#000000" fill-opacity="1"><g transform="translate(182.218792, 132.770949)"><g><path d="M 3.046875 -7.84375 C 3.390625 -8.332031 3.8125 -8.738281 4.3125 -9.0625 C 4.820312 -9.382812 5.429688 -9.546875 6.140625 -9.546875 C 7.191406 -9.546875 7.976562 -9.226562 8.5 -8.59375 C 9.019531 -7.957031 9.28125 -7.125 9.28125 -6.09375 L 9.28125 0 L 7.671875 0 L 7.671875 -5.90625 C 7.671875 -6.59375 7.515625 -7.132812 7.203125 -7.53125 C 6.898438 -7.925781 6.460938 -8.125 5.890625 -8.125 C 5.609375 -8.125 5.332031 -8.070312 5.0625 -7.96875 C 4.800781 -7.875 4.550781 -7.734375 4.3125 -7.546875 C 4.070312 -7.367188 3.84375 -7.160156 3.625 -6.921875 C 3.40625 -6.691406 3.210938 -6.441406 3.046875 -6.171875 L 3.046875 0 L 1.4375 0 L 1.4375 -13.28125 L 3.046875 -13.28125 Z M 3.046875 -7.84375 "/></g></g></g><g fill="#000000" fill-opacity="1"><g transform="translate(192.846423, 132.770949)"><g/></g></g><g fill="#000000" fill-opacity="1"><g transform="translate(198.232047, 132.770949)"><g><path d="M 1.0625 -9.328125 C 2.15625 -9.328125 2.84375 -8.894531 3.125 -8.03125 C 3.207031 -8.15625 3.332031 -8.304688 3.5 -8.484375 C 3.675781 -8.671875 3.890625 -8.84375 4.140625 -9 C 4.398438 -9.15625 4.691406 -9.285156 5.015625 -9.390625 C 5.335938 -9.492188 5.695312 -9.546875 6.09375 -9.546875 C 6.625 -9.546875 7.140625 -9.4375 7.640625 -9.21875 C 8.140625 -9.007812 8.578125 -8.703125 8.953125 -8.296875 C 9.328125 -7.890625 9.628906 -7.382812 9.859375 -6.78125 C 10.085938 -6.1875 10.203125 -5.507812 10.203125 -4.75 C 10.203125 -4.007812 10.085938 -3.332031 9.859375 -2.71875 C 9.640625 -2.113281 9.34375 -1.59375 8.96875 -1.15625 C 8.59375 -0.71875 8.160156 -0.378906 7.671875 -0.140625 C 7.179688 0.0976562 6.664062 0.21875 6.125 0.21875 C 5.5625 0.21875 5.039062 0.109375 4.5625 -0.109375 C 4.09375 -0.335938 3.703125 -0.59375 3.390625 -0.875 L 3.390625 3.953125 L 1.78125 3.953125 L 1.78125 -6.953125 C 1.78125 -7.359375 1.679688 -7.644531 1.484375 -7.8125 C 1.285156 -7.988281 1.03125 -8.078125 0.71875 -8.078125 Z M 8.546875 -4.703125 C 8.546875 -5.242188 8.46875 -5.722656 8.3125 -6.140625 C 8.164062 -6.566406 7.960938 -6.929688 7.703125 -7.234375 C 7.453125 -7.535156 7.15625 -7.765625 6.8125 -7.921875 C 6.46875 -8.078125 6.109375 -8.15625 5.734375 -8.15625 C 5.210938 -8.15625 4.742188 -8.023438 4.328125 -7.765625 C 3.921875 -7.503906 3.609375 -7.226562 3.390625 -6.9375 L 3.390625 -2.328125 C 3.703125 -2.003906 4.054688 -1.738281 4.453125 -1.53125 C 4.859375 -1.320312 5.304688 -1.21875 5.796875 -1.21875 C 6.203125 -1.21875 6.570312 -1.300781 6.90625 -1.46875 C 7.25 -1.632812 7.539062 -1.867188 7.78125 -2.171875 C 8.03125 -2.484375 8.21875 -2.847656 8.34375 -3.265625 C 8.476562 -3.691406 8.546875 -4.171875 8.546875 -4.703125 Z M 8.546875 -4.703125 "/></g></g></g><g fill="#000000" fill-opacity="1"><g transform="translate(209.236671, 132.770949)"><g><path d="M 3.046875 0 L 1.4375 0 L 1.4375 -9.328125 L 3.046875 -9.328125 Z M 2.25 -10.9375 C 1.9375 -10.9375 1.664062 -11.046875 1.4375 -11.265625 C 1.21875 -11.484375 1.109375 -11.75 1.109375 -12.0625 C 1.109375 -12.40625 1.207031 -12.679688 1.40625 -12.890625 C 1.613281 -13.097656 1.894531 -13.203125 2.25 -13.203125 C 2.550781 -13.203125 2.8125 -13.085938 3.03125 -12.859375 C 3.257812 -12.640625 3.375 -12.375 3.375 -12.0625 C 3.375 -11.71875 3.269531 -11.441406 3.0625 -11.234375 C 2.863281 -11.035156 2.59375 -10.9375 2.25 -10.9375 Z M 2.25 -10.9375 "/></g></g></g><g fill="#000000" fill-opacity="1"><g transform="translate(213.724691, 132.770949)"><g><path d="M 7.390625 -7.625 C 7.046875 -7.789062 6.722656 -7.910156 6.421875 -7.984375 C 6.128906 -8.066406 5.796875 -8.109375 5.421875 -8.109375 C 5.003906 -8.109375 4.613281 -8.03125 4.25 -7.875 C 3.882812 -7.71875 3.566406 -7.492188 3.296875 -7.203125 C 3.035156 -6.910156 2.828125 -6.554688 2.671875 -6.140625 C 2.523438 -5.722656 2.453125 -5.242188 2.453125 -4.703125 C 2.453125 -4.210938 2.519531 -3.753906 2.65625 -3.328125 C 2.800781 -2.910156 3 -2.546875 3.25 -2.234375 C 3.5 -1.921875 3.796875 -1.671875 4.140625 -1.484375 C 4.492188 -1.304688 4.882812 -1.21875 5.3125 -1.21875 C 5.769531 -1.21875 6.160156 -1.265625 6.484375 -1.359375 C 6.804688 -1.460938 7.148438 -1.613281 7.515625 -1.8125 L 8.03125 -0.453125 C 7.644531 -0.242188 7.222656 -0.0820312 6.765625 0.03125 C 6.316406 0.15625 5.796875 0.21875 5.203125 0.21875 C 4.535156 0.21875 3.929688 0.0976562 3.390625 -0.140625 C 2.847656 -0.378906 2.382812 -0.710938 2 -1.140625 C 1.625 -1.578125 1.332031 -2.09375 1.125 -2.6875 C 0.914062 -3.289062 0.8125 -3.953125 0.8125 -4.671875 C 0.8125 -5.335938 0.914062 -5.96875 1.125 -6.5625 C 1.332031 -7.15625 1.632812 -7.671875 2.03125 -8.109375 C 2.425781 -8.554688 2.898438 -8.90625 3.453125 -9.15625 C 4.015625 -9.414062 4.640625 -9.546875 5.328125 -9.546875 C 5.867188 -9.546875 6.335938 -9.5 6.734375 -9.40625 C 7.128906 -9.3125 7.507812 -9.175781 7.875 -9 Z M 7.390625 -7.625 "/></g></g></g><g fill="#000000" fill-opacity="1"><g transform="translate(222.198074, 132.770949)"><g><path d="M 1.4375 -13.28125 L 3.046875 -13.28125 L 3.046875 -5.6875 L 7.265625 -9.515625 L 8.203125 -8.484375 L 4.59375 -5.296875 L 9 -0.890625 L 7.875 0.171875 L 3.046875 -4.796875 L 3.046875 0 L 1.4375 0 Z M 1.4375 -13.28125 "/></g></g></g><g fill="#000000" fill-opacity="1"><g transform="translate(231.371583, 132.770949)"><g><path d="M 2.453125 -4 C 2.566406 -3.125 2.875 -2.441406 3.375 -1.953125 C 3.875 -1.460938 4.539062 -1.21875 5.375 -1.21875 C 5.90625 -1.21875 6.382812 -1.273438 6.8125 -1.390625 C 7.25 -1.503906 7.664062 -1.648438 8.0625 -1.828125 L 8.4375 -0.453125 C 8.007812 -0.242188 7.523438 -0.0820312 6.984375 0.03125 C 6.441406 0.15625 5.835938 0.21875 5.171875 0.21875 C 4.503906 0.21875 3.898438 0.109375 3.359375 -0.109375 C 2.816406 -0.335938 2.359375 -0.65625 1.984375 -1.0625 C 1.609375 -1.476562 1.316406 -1.988281 1.109375 -2.59375 C 0.910156 -3.195312 0.8125 -3.890625 0.8125 -4.671875 C 0.8125 -5.359375 0.910156 -6 1.109375 -6.59375 C 1.316406 -7.195312 1.601562 -7.71875 1.96875 -8.15625 C 2.34375 -8.59375 2.785156 -8.929688 3.296875 -9.171875 C 3.816406 -9.421875 4.394531 -9.546875 5.03125 -9.546875 C 5.695312 -9.546875 6.28125 -9.429688 6.78125 -9.203125 C 7.289062 -8.984375 7.710938 -8.675781 8.046875 -8.28125 C 8.378906 -7.882812 8.628906 -7.421875 8.796875 -6.890625 C 8.960938 -6.367188 9.046875 -5.8125 9.046875 -5.21875 C 9.046875 -4.800781 9.03125 -4.394531 9 -4 Z M 4.984375 -8.15625 C 4.285156 -8.15625 3.707031 -7.914062 3.25 -7.4375 C 2.800781 -6.957031 2.53125 -6.25 2.4375 -5.3125 L 7.5625 -5.3125 C 7.5625 -6.21875 7.332031 -6.914062 6.875 -7.40625 C 6.414062 -7.90625 5.785156 -8.15625 4.984375 -8.15625 Z M 4.984375 -8.15625 "/></g></g></g><g fill="#000000" fill-opacity="1"><g transform="translate(241.137517, 132.770949)"><g><path d="M 4.96875 0.21875 C 4.394531 0.21875 3.851562 0.101562 3.34375 -0.125 C 2.832031 -0.351562 2.390625 -0.675781 2.015625 -1.09375 C 1.640625 -1.507812 1.34375 -2.015625 1.125 -2.609375 C 0.914062 -3.203125 0.8125 -3.867188 0.8125 -4.609375 C 0.8125 -5.316406 0.921875 -5.972656 1.140625 -6.578125 C 1.359375 -7.179688 1.65625 -7.703125 2.03125 -8.140625 C 2.414062 -8.578125 2.859375 -8.921875 3.359375 -9.171875 C 3.859375 -9.421875 4.390625 -9.546875 4.953125 -9.546875 C 5.578125 -9.546875 6.113281 -9.421875 6.5625 -9.171875 C 7.007812 -8.921875 7.359375 -8.664062 7.609375 -8.40625 L 7.609375 -13.28125 L 9.234375 -13.28125 L 9.234375 -2.265625 C 9.234375 -1.804688 9.34375 -1.507812 9.5625 -1.375 C 9.78125 -1.238281 10.019531 -1.171875 10.28125 -1.171875 L 9.953125 0.09375 C 8.804688 0.09375 8.109375 -0.363281 7.859375 -1.28125 C 7.585938 -0.894531 7.21875 -0.546875 6.75 -0.234375 C 6.28125 0.0664062 5.6875 0.21875 4.96875 0.21875 Z M 5.328125 -1.21875 C 5.773438 -1.21875 6.195312 -1.320312 6.59375 -1.53125 C 7 -1.738281 7.335938 -2.015625 7.609375 -2.359375 L 7.609375 -6.984375 C 7.378906 -7.273438 7.0625 -7.539062 6.65625 -7.78125 C 6.257812 -8.03125 5.8125 -8.15625 5.3125 -8.15625 C 4.882812 -8.15625 4.492188 -8.0625 4.140625 -7.875 C 3.785156 -7.695312 3.484375 -7.453125 3.234375 -7.140625 C 2.984375 -6.828125 2.789062 -6.457031 2.65625 -6.03125 C 2.519531 -5.613281 2.453125 -5.160156 2.453125 -4.671875 C 2.453125 -4.160156 2.523438 -3.695312 2.671875 -3.28125 C 2.816406 -2.863281 3.015625 -2.5 3.265625 -2.1875 C 3.523438 -1.882812 3.832031 -1.644531 4.1875 -1.46875 C 4.539062 -1.300781 4.921875 -1.21875 5.328125 -1.21875 Z M 5.328125 -1.21875 "/></g></g></g><g fill="#000000" fill-opacity="1"><g transform="translate(252.14214, 132.770949)"><g/></g></g><g fill="#000000" fill-opacity="1"><g transform="translate(257.527765, 132.770949)"><g><path d="M 9.78125 0.09375 C 9.207031 0.09375 8.753906 -0.0195312 8.421875 -0.25 C 8.085938 -0.476562 7.851562 -0.804688 7.71875 -1.234375 C 7.300781 -0.804688 6.816406 -0.457031 6.265625 -0.1875 C 5.722656 0.0820312 5.128906 0.21875 4.484375 0.21875 C 4.078125 0.21875 3.6875 0.15625 3.3125 0.03125 C 2.9375 -0.09375 2.597656 -0.289062 2.296875 -0.5625 C 2.003906 -0.84375 1.769531 -1.203125 1.59375 -1.640625 C 1.425781 -2.085938 1.34375 -2.628906 1.34375 -3.265625 L 1.34375 -9.328125 L 2.96875 -9.328125 L 2.96875 -3.484375 C 2.96875 -2.753906 3.117188 -2.191406 3.421875 -1.796875 C 3.722656 -1.410156 4.179688 -1.21875 4.796875 -1.21875 C 5.296875 -1.21875 5.769531 -1.316406 6.21875 -1.515625 C 6.675781 -1.710938 7.085938 -1.976562 7.453125 -2.3125 L 7.453125 -9.328125 L 9.0625 -9.328125 L 9.0625 -2.421875 C 9.0625 -2.160156 9.09375 -1.945312 9.15625 -1.78125 C 9.21875 -1.625 9.296875 -1.5 9.390625 -1.40625 C 9.484375 -1.320312 9.59375 -1.257812 9.71875 -1.21875 C 9.851562 -1.1875 9.988281 -1.171875 10.125 -1.171875 Z M 9.78125 0.09375 "/></g></g></g><g fill="#000000" fill-opacity="1"><g transform="translate(268.370817, 132.770949)"><g><path d="M 1.0625 -9.328125 C 2.15625 -9.328125 2.84375 -8.894531 3.125 -8.03125 C 3.207031 -8.15625 3.332031 -8.304688 3.5 -8.484375 C 3.675781 -8.671875 3.890625 -8.84375 4.140625 -9 C 4.398438 -9.15625 4.691406 -9.285156 5.015625 -9.390625 C 5.335938 -9.492188 5.695312 -9.546875 6.09375 -9.546875 C 6.625 -9.546875 7.140625 -9.4375 7.640625 -9.21875 C 8.140625 -9.007812 8.578125 -8.703125 8.953125 -8.296875 C 9.328125 -7.890625 9.628906 -7.382812 9.859375 -6.78125 C 10.085938 -6.1875 10.203125 -5.507812 10.203125 -4.75 C 10.203125 -4.007812 10.085938 -3.332031 9.859375 -2.71875 C 9.640625 -2.113281 9.34375 -1.59375 8.96875 -1.15625 C 8.59375 -0.71875 8.160156 -0.378906 7.671875 -0.140625 C 7.179688 0.0976562 6.664062 0.21875 6.125 0.21875 C 5.5625 0.21875 5.039062 0.109375 4.5625 -0.109375 C 4.09375 -0.335938 3.703125 -0.59375 3.390625 -0.875 L 3.390625 3.953125 L 1.78125 3.953125 L 1.78125 -6.953125 C 1.78125 -7.359375 1.679688 -7.644531 1.484375 -7.8125 C 1.285156 -7.988281 1.03125 -8.078125 0.71875 -8.078125 Z M 8.546875 -4.703125 C 8.546875 -5.242188 8.46875 -5.722656 8.3125 -6.140625 C 8.164062 -6.566406 7.960938 -6.929688 7.703125 -7.234375 C 7.453125 -7.535156 7.15625 -7.765625 6.8125 -7.921875 C 6.46875 -8.078125 6.109375 -8.15625 5.734375 -8.15625 C 5.210938 -8.15625 4.742188 -8.023438 4.328125 -7.765625 C 3.921875 -7.503906 3.609375 -7.226562 3.390625 -6.9375 L 3.390625 -2.328125 C 3.703125 -2.003906 4.054688 -1.738281 4.453125 -1.53125 C 4.859375 -1.320312 5.304688 -1.21875 5.796875 -1.21875 C 6.203125 -1.21875 6.570312 -1.300781 6.90625 -1.46875 C 7.25 -1.632812 7.539062 -1.867188 7.78125 -2.171875 C 8.03125 -2.484375 8.21875 -2.847656 8.34375 -3.265625 C 8.476562 -3.691406 8.546875 -4.171875 8.546875 -4.703125 Z M 8.546875 -4.703125 "/></g></g></g><g fill="#000000" fill-opacity="1"><g transform="translate(279.375452, 132.770949)"><g><path d="M 0.8125 -11.609375 C 1.289062 -12.203125 1.820312 -12.664062 2.40625 -13 C 2.988281 -13.332031 3.695312 -13.5 4.53125 -13.5 C 5.03125 -13.5 5.484375 -13.421875 5.890625 -13.265625 C 6.304688 -13.109375 6.664062 -12.898438 6.96875 -12.640625 C 7.269531 -12.378906 7.503906 -12.070312 7.671875 -11.71875 C 7.835938 -11.363281 7.921875 -10.984375 7.921875 -10.578125 C 7.921875 -10.054688 7.832031 -9.613281 7.65625 -9.25 C 7.476562 -8.894531 7.257812 -8.578125 7 -8.296875 C 6.738281 -8.015625 6.453125 -7.753906 6.140625 -7.515625 C 5.835938 -7.273438 5.554688 -7.023438 5.296875 -6.765625 C 5.035156 -6.503906 4.816406 -6.210938 4.640625 -5.890625 C 4.460938 -5.566406 4.375 -5.175781 4.375 -4.71875 L 4.375 -3.71875 L 2.984375 -3.71875 C 2.921875 -3.914062 2.875 -4.132812 2.84375 -4.375 C 2.8125 -4.613281 2.796875 -4.835938 2.796875 -5.046875 C 2.796875 -5.546875 2.878906 -5.976562 3.046875 -6.34375 C 3.210938 -6.71875 3.421875 -7.046875 3.671875 -7.328125 C 3.929688 -7.609375 4.203125 -7.863281 4.484375 -8.09375 C 4.773438 -8.320312 5.046875 -8.550781 5.296875 -8.78125 C 5.546875 -9.019531 5.753906 -9.269531 5.921875 -9.53125 C 6.085938 -9.789062 6.171875 -10.097656 6.171875 -10.453125 C 6.171875 -10.867188 6.007812 -11.234375 5.6875 -11.546875 C 5.363281 -11.867188 4.925781 -12.03125 4.375 -12.03125 C 3.875 -12.03125 3.425781 -11.910156 3.03125 -11.671875 C 2.644531 -11.429688 2.289062 -11.101562 1.96875 -10.6875 Z M 2.5625 -0.984375 C 2.5625 -1.359375 2.664062 -1.648438 2.875 -1.859375 C 3.09375 -2.078125 3.390625 -2.1875 3.765625 -2.1875 C 4.078125 -2.1875 4.351562 -2.066406 4.59375 -1.828125 C 4.84375 -1.585938 4.96875 -1.304688 4.96875 -0.984375 C 4.96875 -0.628906 4.851562 -0.335938 4.625 -0.109375 C 4.40625 0.109375 4.117188 0.21875 3.765625 0.21875 C 3.441406 0.21875 3.160156 0.0976562 2.921875 -0.140625 C 2.679688 -0.378906 2.5625 -0.660156 2.5625 -0.984375 Z M 2.5625 -0.984375 "/></g></g></g><g fill="#000000" fill-opacity="1"><g transform="translate(288.194601, 132.770949)"><g/></g></g><g fill="#000000" fill-opacity="1"><g transform="translate(81.417889, 157.455123)"><g><path d="M 4.578125 -12.5625 L 6.28125 -12.5625 L 6.28125 -4.140625 C 6.28125 -3.378906 6.195312 -2.722656 6.03125 -2.171875 C 5.863281 -1.617188 5.625 -1.164062 5.3125 -0.8125 C 5 -0.457031 4.628906 -0.195312 4.203125 -0.03125 C 3.773438 0.132812 3.296875 0.21875 2.765625 0.21875 C 2.210938 0.21875 1.691406 0.125 1.203125 -0.0625 C 0.722656 -0.257812 0.320312 -0.515625 0 -0.828125 L 0.828125 -2.140625 C 1.066406 -1.890625 1.351562 -1.675781 1.6875 -1.5 C 2.019531 -1.332031 2.359375 -1.25 2.703125 -1.25 C 3.285156 -1.25 3.742188 -1.453125 4.078125 -1.859375 C 4.410156 -2.273438 4.578125 -2.976562 4.578125 -3.96875 Z M 4.578125 -12.5625 "/></g></g></g><g fill="#000000" fill-opacity="1"><g transform="translate(89.137287, 157.455123)"><g><path d="M 9.78125 0.09375 C 9.207031 0.09375 8.753906 -0.0195312 8.421875 -0.25 C 8.085938 -0.476562 7.851562 -0.804688 7.71875 -1.234375 C 7.300781 -0.804688 6.816406 -0.457031 6.265625 -0.1875 C 5.722656 0.0820312 5.128906 0.21875 4.484375 0.21875 C 4.078125 0.21875 3.6875 0.15625 3.3125 0.03125 C 2.9375 -0.09375 2.597656 -0.289062 2.296875 -0.5625 C 2.003906 -0.84375 1.769531 -1.203125 1.59375 -1.640625 C 1.425781 -2.085938 1.34375 -2.628906 1.34375 -3.265625 L 1.34375 -9.328125 L 2.96875 -9.328125 L 2.96875 -3.484375 C 2.96875 -2.753906 3.117188 -2.191406 3.421875 -1.796875 C 3.722656 -1.410156 4.179688 -1.21875 4.796875 -1.21875 C 5.296875 -1.21875 5.769531 -1.316406 6.21875 -1.515625 C 6.675781 -1.710938 7.085938 -1.976562 7.453125 -2.3125 L 7.453125 -9.328125 L 9.0625 -9.328125 L 9.0625 -2.421875 C 9.0625 -2.160156 9.09375 -1.945312 9.15625 -1.78125 C 9.21875 -1.625 9.296875 -1.5 9.390625 -1.40625 C 9.484375 -1.320312 9.59375 -1.257812 9.71875 -1.21875 C 9.851562 -1.1875 9.988281 -1.171875 10.125 -1.171875 Z M 9.78125 0.09375 "/></g></g></g><g fill="#000000" fill-opacity="1"><g transform="translate(99.980339, 157.455123)"><g><path d="M 1.3125 -2.09375 C 1.625 -1.820312 2.015625 -1.601562 2.484375 -1.4375 C 2.960938 -1.269531 3.46875 -1.1875 4 -1.1875 C 4.675781 -1.1875 5.179688 -1.296875 5.515625 -1.515625 C 5.859375 -1.734375 6.03125 -2.019531 6.03125 -2.375 C 6.03125 -2.550781 5.992188 -2.71875 5.921875 -2.875 C 5.859375 -3.03125 5.738281 -3.175781 5.5625 -3.3125 C 5.394531 -3.457031 5.160156 -3.597656 4.859375 -3.734375 C 4.566406 -3.878906 4.179688 -4.035156 3.703125 -4.203125 C 2.816406 -4.503906 2.15625 -4.859375 1.71875 -5.265625 C 1.289062 -5.679688 1.078125 -6.253906 1.078125 -6.984375 C 1.078125 -7.335938 1.15625 -7.671875 1.3125 -7.984375 C 1.476562 -8.296875 1.710938 -8.566406 2.015625 -8.796875 C 2.328125 -9.035156 2.695312 -9.21875 3.125 -9.34375 C 3.5625 -9.476562 4.0625 -9.546875 4.625 -9.546875 C 5.238281 -9.546875 5.773438 -9.484375 6.234375 -9.359375 C 6.703125 -9.234375 7.117188 -9.078125 7.484375 -8.890625 L 7.03125 -7.5625 C 6.707031 -7.75 6.335938 -7.898438 5.921875 -8.015625 C 5.515625 -8.140625 5.0625 -8.203125 4.5625 -8.203125 C 3.9375 -8.203125 3.460938 -8.078125 3.140625 -7.828125 C 2.816406 -7.578125 2.65625 -7.300781 2.65625 -7 C 2.65625 -6.851562 2.679688 -6.71875 2.734375 -6.59375 C 2.785156 -6.476562 2.882812 -6.367188 3.03125 -6.265625 C 3.175781 -6.160156 3.367188 -6.050781 3.609375 -5.9375 C 3.847656 -5.832031 4.144531 -5.71875 4.5 -5.59375 C 5.09375 -5.394531 5.59375 -5.191406 6 -4.984375 C 6.40625 -4.773438 6.734375 -4.539062 6.984375 -4.28125 C 7.234375 -4.03125 7.410156 -3.757812 7.515625 -3.46875 C 7.628906 -3.175781 7.6875 -2.851562 7.6875 -2.5 C 7.6875 -2.070312 7.59375 -1.691406 7.40625 -1.359375 C 7.226562 -1.023438 6.976562 -0.738281 6.65625 -0.5 C 6.332031 -0.269531 5.941406 -0.09375 5.484375 0.03125 C 5.023438 0.15625 4.515625 0.21875 3.953125 0.21875 C 3.234375 0.21875 2.59375 0.128906 2.03125 -0.046875 C 1.46875 -0.234375 1 -0.46875 0.625 -0.75 Z M 1.3125 -2.09375 "/></g></g></g><g fill="#000000" fill-opacity="1"><g transform="translate(108.381907, 157.455123)"><g><path d="M 2.171875 -11.9375 L 3.40625 -11.9375 L 3.40625 -9 L 6 -9 L 6 -7.59375 L 3.40625 -7.59375 L 3.40625 -3.09375 C 3.40625 -2.738281 3.441406 -2.441406 3.515625 -2.203125 C 3.597656 -1.960938 3.707031 -1.769531 3.84375 -1.625 C 3.976562 -1.488281 4.132812 -1.382812 4.3125 -1.3125 C 4.5 -1.25 4.695312 -1.21875 4.90625 -1.21875 C 5.195312 -1.21875 5.472656 -1.265625 5.734375 -1.359375 C 6.003906 -1.460938 6.257812 -1.578125 6.5 -1.703125 L 6.953125 -0.40625 C 6.710938 -0.269531 6.390625 -0.132812 5.984375 0 C 5.578125 0.144531 5.148438 0.21875 4.703125 0.21875 C 3.804688 0.21875 3.097656 -0.0703125 2.578125 -0.65625 C 2.054688 -1.25 1.796875 -2.101562 1.796875 -3.21875 L 1.796875 -7.59375 L 0.171875 -7.59375 L 0.171875 -9 L 1.828125 -9 Z M 2.171875 -11.9375 "/></g></g></g><g fill="#000000" fill-opacity="1"><g transform="translate(115.508879, 157.455123)"><g/></g></g><g fill="#000000" fill-opacity="1"><g transform="translate(120.894503, 157.455123)"><g><path d="M 1.0625 -9.328125 C 2.15625 -9.328125 2.84375 -8.894531 3.125 -8.03125 C 3.207031 -8.15625 3.332031 -8.304688 3.5 -8.484375 C 3.675781 -8.671875 3.890625 -8.84375 4.140625 -9 C 4.398438 -9.15625 4.691406 -9.285156 5.015625 -9.390625 C 5.335938 -9.492188 5.695312 -9.546875 6.09375 -9.546875 C 6.625 -9.546875 7.140625 -9.4375 7.640625 -9.21875 C 8.140625 -9.007812 8.578125 -8.703125 8.953125 -8.296875 C 9.328125 -7.890625 9.628906 -7.382812 9.859375 -6.78125 C 10.085938 -6.1875 10.203125 -5.507812 10.203125 -4.75 C 10.203125 -4.007812 10.085938 -3.332031 9.859375 -2.71875 C 9.640625 -2.113281 9.34375 -1.59375 8.96875 -1.15625 C 8.59375 -0.71875 8.160156 -0.378906 7.671875 -0.140625 C 7.179688 0.0976562 6.664062 0.21875 6.125 0.21875 C 5.5625 0.21875 5.039062 0.109375 4.5625 -0.109375 C 4.09375 -0.335938 3.703125 -0.59375 3.390625 -0.875 L 3.390625 3.953125 L 1.78125 3.953125 L 1.78125 -6.953125 C 1.78125 -7.359375 1.679688 -7.644531 1.484375 -7.8125 C 1.285156 -7.988281 1.03125 -8.078125 0.71875 -8.078125 Z M 8.546875 -4.703125 C 8.546875 -5.242188 8.46875 -5.722656 8.3125 -6.140625 C 8.164062 -6.566406 7.960938 -6.929688 7.703125 -7.234375 C 7.453125 -7.535156 7.15625 -7.765625 6.8125 -7.921875 C 6.46875 -8.078125 6.109375 -8.15625 5.734375 -8.15625 C 5.210938 -8.15625 4.742188 -8.023438 4.328125 -7.765625 C 3.921875 -7.503906 3.609375 -7.226562 3.390625 -6.9375 L 3.390625 -2.328125 C 3.703125 -2.003906 4.054688 -1.738281 4.453125 -1.53125 C 4.859375 -1.320312 5.304688 -1.21875 5.796875 -1.21875 C 6.203125 -1.21875 6.570312 -1.300781 6.90625 -1.46875 C 7.25 -1.632812 7.539062 -1.867188 7.78125 -2.171875 C 8.03125 -2.484375 8.21875 -2.847656 8.34375 -3.265625 C 8.476562 -3.691406 8.546875 -4.171875 8.546875 -4.703125 Z M 8.546875 -4.703125 "/></g></g></g><g fill="#000000" fill-opacity="1"><g transform="translate(131.899127, 157.455123)"><g><path d="M 8.359375 -4.671875 C 8.359375 -5.140625 8.285156 -5.582031 8.140625 -6 C 7.992188 -6.414062 7.785156 -6.78125 7.515625 -7.09375 C 7.242188 -7.40625 6.925781 -7.648438 6.5625 -7.828125 C 6.195312 -8.015625 5.800781 -8.109375 5.375 -8.109375 C 4.425781 -8.109375 3.6875 -7.796875 3.15625 -7.171875 C 2.632812 -6.554688 2.375 -5.734375 2.375 -4.703125 C 2.375 -4.234375 2.445312 -3.785156 2.59375 -3.359375 C 2.738281 -2.941406 2.945312 -2.570312 3.21875 -2.25 C 3.488281 -1.9375 3.804688 -1.6875 4.171875 -1.5 C 4.535156 -1.3125 4.9375 -1.21875 5.375 -1.21875 C 5.832031 -1.21875 6.25 -1.300781 6.625 -1.46875 C 7 -1.632812 7.3125 -1.867188 7.5625 -2.171875 C 7.820312 -2.484375 8.019531 -2.847656 8.15625 -3.265625 C 8.289062 -3.679688 8.359375 -4.148438 8.359375 -4.671875 Z M 0.71875 -4.671875 C 0.71875 -5.421875 0.835938 -6.097656 1.078125 -6.703125 C 1.316406 -7.304688 1.640625 -7.816406 2.046875 -8.234375 C 2.460938 -8.660156 2.953125 -8.984375 3.515625 -9.203125 C 4.085938 -9.429688 4.707031 -9.546875 5.375 -9.546875 C 6.019531 -9.546875 6.625 -9.429688 7.1875 -9.203125 C 7.757812 -8.984375 8.253906 -8.660156 8.671875 -8.234375 C 9.085938 -7.816406 9.414062 -7.304688 9.65625 -6.703125 C 9.894531 -6.109375 10.015625 -5.441406 10.015625 -4.703125 C 10.015625 -3.960938 9.894531 -3.289062 9.65625 -2.6875 C 9.425781 -2.082031 9.101562 -1.5625 8.6875 -1.125 C 8.269531 -0.695312 7.773438 -0.363281 7.203125 -0.125 C 6.640625 0.101562 6.03125 0.21875 5.375 0.21875 C 4.695312 0.21875 4.070312 0.0976562 3.5 -0.140625 C 2.9375 -0.378906 2.445312 -0.710938 2.03125 -1.140625 C 1.625 -1.578125 1.300781 -2.09375 1.0625 -2.6875 C 0.832031 -3.289062 0.71875 -3.953125 0.71875 -4.671875 Z M 0.71875 -4.671875 "/></g></g></g><g fill="#000000" fill-opacity="1"><g transform="translate(142.634468, 157.455123)"><g><path d="M 1.3125 -2.09375 C 1.625 -1.820312 2.015625 -1.601562 2.484375 -1.4375 C 2.960938 -1.269531 3.46875 -1.1875 4 -1.1875 C 4.675781 -1.1875 5.179688 -1.296875 5.515625 -1.515625 C 5.859375 -1.734375 6.03125 -2.019531 6.03125 -2.375 C 6.03125 -2.550781 5.992188 -2.71875 5.921875 -2.875 C 5.859375 -3.03125 5.738281 -3.175781 5.5625 -3.3125 C 5.394531 -3.457031 5.160156 -3.597656 4.859375 -3.734375 C 4.566406 -3.878906 4.179688 -4.035156 3.703125 -4.203125 C 2.816406 -4.503906 2.15625 -4.859375 1.71875 -5.265625 C 1.289062 -5.679688 1.078125 -6.253906 1.078125 -6.984375 C 1.078125 -7.335938 1.15625 -7.671875 1.3125 -7.984375 C 1.476562 -8.296875 1.710938 -8.566406 2.015625 -8.796875 C 2.328125 -9.035156 2.695312 -9.21875 3.125 -9.34375 C 3.5625 -9.476562 4.0625 -9.546875 4.625 -9.546875 C 5.238281 -9.546875 5.773438 -9.484375 6.234375 -9.359375 C 6.703125 -9.234375 7.117188 -9.078125 7.484375 -8.890625 L 7.03125 -7.5625 C 6.707031 -7.75 6.335938 -7.898438 5.921875 -8.015625 C 5.515625 -8.140625 5.0625 -8.203125 4.5625 -8.203125 C 3.9375 -8.203125 3.460938 -8.078125 3.140625 -7.828125 C 2.816406 -7.578125 2.65625 -7.300781 2.65625 -7 C 2.65625 -6.851562 2.679688 -6.71875 2.734375 -6.59375 C 2.785156 -6.476562 2.882812 -6.367188 3.03125 -6.265625 C 3.175781 -6.160156 3.367188 -6.050781 3.609375 -5.9375 C 3.847656 -5.832031 4.144531 -5.71875 4.5 -5.59375 C 5.09375 -5.394531 5.59375 -5.191406 6 -4.984375 C 6.40625 -4.773438 6.734375 -4.539062 6.984375 -4.28125 C 7.234375 -4.03125 7.410156 -3.757812 7.515625 -3.46875 C 7.628906 -3.175781 7.6875 -2.851562 7.6875 -2.5 C 7.6875 -2.070312 7.59375 -1.691406 7.40625 -1.359375 C 7.226562 -1.023438 6.976562 -0.738281 6.65625 -0.5 C 6.332031 -0.269531 5.941406 -0.09375 5.484375 0.03125 C 5.023438 0.15625 4.515625 0.21875 3.953125 0.21875 C 3.234375 0.21875 2.59375 0.128906 2.03125 -0.046875 C 1.46875 -0.234375 1 -0.46875 0.625 -0.75 Z M 1.3125 -2.09375 "/></g></g></g><g fill="#000000" fill-opacity="1"><g transform="translate(151.036037, 157.455123)"><g><path d="M 2.171875 -11.9375 L 3.40625 -11.9375 L 3.40625 -9 L 6 -9 L 6 -7.59375 L 3.40625 -7.59375 L 3.40625 -3.09375 C 3.40625 -2.738281 3.441406 -2.441406 3.515625 -2.203125 C 3.597656 -1.960938 3.707031 -1.769531 3.84375 -1.625 C 3.976562 -1.488281 4.132812 -1.382812 4.3125 -1.3125 C 4.5 -1.25 4.695312 -1.21875 4.90625 -1.21875 C 5.195312 -1.21875 5.472656 -1.265625 5.734375 -1.359375 C 6.003906 -1.460938 6.257812 -1.578125 6.5 -1.703125 L 6.953125 -0.40625 C 6.710938 -0.269531 6.390625 -0.132812 5.984375 0 C 5.578125 0.144531 5.148438 0.21875 4.703125 0.21875 C 3.804688 0.21875 3.097656 -0.0703125 2.578125 -0.65625 C 2.054688 -1.25 1.796875 -2.101562 1.796875 -3.21875 L 1.796875 -7.59375 L 0.171875 -7.59375 L 0.171875 -9 L 1.828125 -9 Z M 2.171875 -11.9375 "/></g></g></g><g fill="#000000" fill-opacity="1"><g transform="translate(158.163008, 157.455123)"><g/></g></g><g fill="#000000" fill-opacity="1"><g transform="translate(163.548633, 157.455123)"><g><path d="M 8.359375 -4.671875 C 8.359375 -5.140625 8.285156 -5.582031 8.140625 -6 C 7.992188 -6.414062 7.785156 -6.78125 7.515625 -7.09375 C 7.242188 -7.40625 6.925781 -7.648438 6.5625 -7.828125 C 6.195312 -8.015625 5.800781 -8.109375 5.375 -8.109375 C 4.425781 -8.109375 3.6875 -7.796875 3.15625 -7.171875 C 2.632812 -6.554688 2.375 -5.734375 2.375 -4.703125 C 2.375 -4.234375 2.445312 -3.785156 2.59375 -3.359375 C 2.738281 -2.941406 2.945312 -2.570312 3.21875 -2.25 C 3.488281 -1.9375 3.804688 -1.6875 4.171875 -1.5 C 4.535156 -1.3125 4.9375 -1.21875 5.375 -1.21875 C 5.832031 -1.21875 6.25 -1.300781 6.625 -1.46875 C 7 -1.632812 7.3125 -1.867188 7.5625 -2.171875 C 7.820312 -2.484375 8.019531 -2.847656 8.15625 -3.265625 C 8.289062 -3.679688 8.359375 -4.148438 8.359375 -4.671875 Z M 0.71875 -4.671875 C 0.71875 -5.421875 0.835938 -6.097656 1.078125 -6.703125 C 1.316406 -7.304688 1.640625 -7.816406 2.046875 -8.234375 C 2.460938 -8.660156 2.953125 -8.984375 3.515625 -9.203125 C 4.085938 -9.429688 4.707031 -9.546875 5.375 -9.546875 C 6.019531 -9.546875 6.625 -9.429688 7.1875 -9.203125 C 7.757812 -8.984375 8.253906 -8.660156 8.671875 -8.234375 C 9.085938 -7.816406 9.414062 -7.304688 9.65625 -6.703125 C 9.894531 -6.109375 10.015625 -5.441406 10.015625 -4.703125 C 10.015625 -3.960938 9.894531 -3.289062 9.65625 -2.6875 C 9.425781 -2.082031 9.101562 -1.5625 8.6875 -1.125 C 8.269531 -0.695312 7.773438 -0.363281 7.203125 -0.125 C 6.640625 0.101562 6.03125 0.21875 5.375 0.21875 C 4.695312 0.21875 4.070312 0.0976562 3.5 -0.140625 C 2.9375 -0.378906 2.445312 -0.710938 2.03125 -1.140625 C 1.625 -1.578125 1.300781 -2.09375 1.0625 -2.6875 C 0.832031 -3.289062 0.71875 -3.953125 0.71875 -4.671875 Z M 0.71875 -4.671875 "/></g></g></g><g fill="#000000" fill-opacity="1"><g transform="translate(174.283974, 157.455123)"><g><path d="M 3 -7.78125 C 3.332031 -8.28125 3.757812 -8.695312 4.28125 -9.03125 C 4.800781 -9.375 5.421875 -9.546875 6.140625 -9.546875 C 7.191406 -9.546875 7.976562 -9.226562 8.5 -8.59375 C 9.019531 -7.957031 9.28125 -7.125 9.28125 -6.09375 L 9.28125 0 L 7.671875 0 L 7.671875 -5.90625 C 7.671875 -6.59375 7.515625 -7.132812 7.203125 -7.53125 C 6.890625 -7.925781 6.445312 -8.125 5.875 -8.125 C 5.59375 -8.125 5.320312 -8.070312 5.0625 -7.96875 C 4.800781 -7.875 4.546875 -7.734375 4.296875 -7.546875 C 4.054688 -7.367188 3.828125 -7.160156 3.609375 -6.921875 C 3.398438 -6.691406 3.210938 -6.441406 3.046875 -6.171875 L 3.046875 0 L 1.4375 0 L 1.4375 -9.328125 L 3 -9.328125 Z M 3 -7.78125 "/></g></g></g><g fill="#000000" fill-opacity="1"><g transform="translate(184.911605, 157.455123)"><g/></g></g><g fill="#000000" fill-opacity="1"><g transform="translate(190.297229, 157.455123)"><g><path d="M 6.71875 -6.65625 L 10.9375 -6.65625 L 10.9375 0 L 9.421875 0 L 9.421875 -1.25 C 9.003906 -0.882812 8.492188 -0.546875 7.890625 -0.234375 C 7.296875 0.0664062 6.632812 0.21875 5.90625 0.21875 C 5.175781 0.21875 4.503906 0.078125 3.890625 -0.203125 C 3.285156 -0.492188 2.757812 -0.910156 2.3125 -1.453125 C 1.875 -1.992188 1.523438 -2.644531 1.265625 -3.40625 C 1.015625 -4.164062 0.890625 -5.015625 0.890625 -5.953125 C 0.890625 -6.960938 1.019531 -7.882812 1.28125 -8.71875 C 1.539062 -9.550781 1.914062 -10.269531 2.40625 -10.875 C 2.894531 -11.476562 3.492188 -11.945312 4.203125 -12.28125 C 4.921875 -12.613281 5.734375 -12.78125 6.640625 -12.78125 C 7.429688 -12.78125 8.128906 -12.679688 8.734375 -12.484375 C 9.335938 -12.296875 9.910156 -12.054688 10.453125 -11.765625 L 9.828125 -10.34375 C 9.316406 -10.613281 8.800781 -10.835938 8.28125 -11.015625 C 7.769531 -11.203125 7.191406 -11.296875 6.546875 -11.296875 C 5.984375 -11.296875 5.460938 -11.179688 4.984375 -10.953125 C 4.503906 -10.722656 4.09375 -10.382812 3.75 -9.9375 C 3.40625 -9.5 3.132812 -8.953125 2.9375 -8.296875 C 2.738281 -7.648438 2.640625 -6.90625 2.640625 -6.0625 C 2.640625 -5.3125 2.726562 -4.640625 2.90625 -4.046875 C 3.082031 -3.453125 3.332031 -2.945312 3.65625 -2.53125 C 3.976562 -2.125 4.363281 -1.8125 4.8125 -1.59375 C 5.269531 -1.382812 5.765625 -1.28125 6.296875 -1.28125 C 6.628906 -1.28125 6.945312 -1.316406 7.25 -1.390625 C 7.550781 -1.472656 7.828125 -1.578125 8.078125 -1.703125 C 8.328125 -1.828125 8.554688 -1.960938 8.765625 -2.109375 C 8.972656 -2.253906 9.15625 -2.40625 9.3125 -2.5625 L 9.3125 -5.3125 L 6.71875 -5.3125 Z M 6.71875 -6.65625 "/></g></g></g><g fill="#000000" fill-opacity="1"><g transform="translate(202.396925, 157.455123)"><g><path d="M 9.78125 0.09375 C 9.207031 0.09375 8.753906 -0.0195312 8.421875 -0.25 C 8.085938 -0.476562 7.851562 -0.804688 7.71875 -1.234375 C 7.300781 -0.804688 6.816406 -0.457031 6.265625 -0.1875 C 5.722656 0.0820312 5.128906 0.21875 4.484375 0.21875 C 4.078125 0.21875 3.6875 0.15625 3.3125 0.03125 C 2.9375 -0.09375 2.597656 -0.289062 2.296875 -0.5625 C 2.003906 -0.84375 1.769531 -1.203125 1.59375 -1.640625 C 1.425781 -2.085938 1.34375 -2.628906 1.34375 -3.265625 L 1.34375 -9.328125 L 2.96875 -9.328125 L 2.96875 -3.484375 C 2.96875 -2.753906 3.117188 -2.191406 3.421875 -1.796875 C 3.722656 -1.410156 4.179688 -1.21875 4.796875 -1.21875 C 5.296875 -1.21875 5.769531 -1.316406 6.21875 -1.515625 C 6.675781 -1.710938 7.085938 -1.976562 7.453125 -2.3125 L 7.453125 -9.328125 L 9.0625 -9.328125 L 9.0625 -2.421875 C 9.0625 -2.160156 9.09375 -1.945312 9.15625 -1.78125 C 9.21875 -1.625 9.296875 -1.5 9.390625 -1.40625 C 9.484375 -1.320312 9.59375 -1.257812 9.71875 -1.21875 C 9.851562 -1.1875 9.988281 -1.171875 10.125 -1.171875 Z M 9.78125 0.09375 "/></g></g></g><g fill="#000000" fill-opacity="1"><g transform="translate(213.239977, 157.455123)"><g><path d="M 3 -7.78125 C 3.332031 -8.28125 3.753906 -8.695312 4.265625 -9.03125 C 4.773438 -9.375 5.363281 -9.546875 6.03125 -9.546875 C 6.769531 -9.546875 7.375 -9.367188 7.84375 -9.015625 C 8.3125 -8.660156 8.644531 -8.179688 8.84375 -7.578125 C 9.21875 -8.128906 9.660156 -8.59375 10.171875 -8.96875 C 10.679688 -9.351562 11.3125 -9.546875 12.0625 -9.546875 C 12.5625 -9.546875 13 -9.460938 13.375 -9.296875 C 13.757812 -9.128906 14.078125 -8.890625 14.328125 -8.578125 C 14.578125 -8.273438 14.765625 -7.910156 14.890625 -7.484375 C 15.015625 -7.066406 15.078125 -6.601562 15.078125 -6.09375 L 15.078125 0 L 13.46875 0 L 13.46875 -5.953125 C 13.46875 -6.609375 13.316406 -7.132812 13.015625 -7.53125 C 12.710938 -7.925781 12.300781 -8.125 11.78125 -8.125 C 11.5 -8.125 11.234375 -8.070312 10.984375 -7.96875 C 10.734375 -7.863281 10.492188 -7.71875 10.265625 -7.53125 C 10.035156 -7.34375 9.816406 -7.125 9.609375 -6.875 C 9.410156 -6.632812 9.226562 -6.382812 9.0625 -6.125 L 9.0625 0 L 7.453125 0 L 7.453125 -5.953125 C 7.453125 -6.609375 7.300781 -7.132812 7 -7.53125 C 6.695312 -7.925781 6.285156 -8.125 5.765625 -8.125 C 5.503906 -8.125 5.242188 -8.070312 4.984375 -7.96875 C 4.734375 -7.875 4.488281 -7.734375 4.25 -7.546875 C 4.019531 -7.367188 3.800781 -7.160156 3.59375 -6.921875 C 3.394531 -6.691406 3.210938 -6.441406 3.046875 -6.171875 L 3.046875 0 L 1.4375 0 L 1.4375 -9.328125 L 3 -9.328125 Z M 3 -7.78125 "/></g></g></g><g fill="#000000" fill-opacity="1"><g transform="translate(229.66612, 157.455123)"><g><path d="M 1.4375 -13.28125 L 3.046875 -13.28125 L 3.046875 -8.359375 C 3.171875 -8.492188 3.320312 -8.632812 3.5 -8.78125 C 3.675781 -8.925781 3.875 -9.050781 4.09375 -9.15625 C 4.320312 -9.269531 4.570312 -9.363281 4.84375 -9.4375 C 5.125 -9.507812 5.425781 -9.546875 5.75 -9.546875 C 6.28125 -9.546875 6.796875 -9.4375 7.296875 -9.21875 C 7.796875 -9.007812 8.234375 -8.703125 8.609375 -8.296875 C 8.984375 -7.890625 9.285156 -7.382812 9.515625 -6.78125 C 9.742188 -6.1875 9.859375 -5.507812 9.859375 -4.75 C 9.859375 -4.007812 9.738281 -3.332031 9.5 -2.71875 C 9.257812 -2.113281 8.941406 -1.59375 8.546875 -1.15625 C 8.148438 -0.71875 7.695312 -0.378906 7.1875 -0.140625 C 6.675781 0.0976562 6.160156 0.21875 5.640625 0.21875 C 5.097656 0.21875 4.585938 0.125 4.109375 -0.0625 C 3.640625 -0.257812 3.25 -0.492188 2.9375 -0.765625 L 2.9375 0 L 1.4375 0 Z M 8.203125 -4.703125 C 8.203125 -5.242188 8.125 -5.722656 7.96875 -6.140625 C 7.820312 -6.566406 7.617188 -6.929688 7.359375 -7.234375 C 7.109375 -7.535156 6.8125 -7.765625 6.46875 -7.921875 C 6.125 -8.078125 5.765625 -8.15625 5.390625 -8.15625 C 4.867188 -8.15625 4.398438 -8.023438 3.984375 -7.765625 C 3.578125 -7.503906 3.265625 -7.226562 3.046875 -6.9375 L 3.046875 -1.9375 C 3.328125 -1.71875 3.648438 -1.539062 4.015625 -1.40625 C 4.390625 -1.28125 4.785156 -1.21875 5.203125 -1.21875 C 5.640625 -1.21875 6.039062 -1.300781 6.40625 -1.46875 C 6.78125 -1.632812 7.097656 -1.867188 7.359375 -2.171875 C 7.617188 -2.484375 7.820312 -2.847656 7.96875 -3.265625 C 8.125 -3.691406 8.203125 -4.171875 8.203125 -4.703125 Z M 8.203125 -4.703125 "/></g></g></g><g fill="#000000" fill-opacity="1"><g transform="translate(240.329647, 157.455123)"><g><path d="M 8.359375 -4.671875 C 8.359375 -5.140625 8.285156 -5.582031 8.140625 -6 C 7.992188 -6.414062 7.785156 -6.78125 7.515625 -7.09375 C 7.242188 -7.40625 6.925781 -7.648438 6.5625 -7.828125 C 6.195312 -8.015625 5.800781 -8.109375 5.375 -8.109375 C 4.425781 -8.109375 3.6875 -7.796875 3.15625 -7.171875 C 2.632812 -6.554688 2.375 -5.734375 2.375 -4.703125 C 2.375 -4.234375 2.445312 -3.785156 2.59375 -3.359375 C 2.738281 -2.941406 2.945312 -2.570312 3.21875 -2.25 C 3.488281 -1.9375 3.804688 -1.6875 4.171875 -1.5 C 4.535156 -1.3125 4.9375 -1.21875 5.375 -1.21875 C 5.832031 -1.21875 6.25 -1.300781 6.625 -1.46875 C 7 -1.632812 7.3125 -1.867188 7.5625 -2.171875 C 7.820312 -2.484375 8.019531 -2.847656 8.15625 -3.265625 C 8.289062 -3.679688 8.359375 -4.148438 8.359375 -4.671875 Z M 0.71875 -4.671875 C 0.71875 -5.421875 0.835938 -6.097656 1.078125 -6.703125 C 1.316406 -7.304688 1.640625 -7.816406 2.046875 -8.234375 C 2.460938 -8.660156 2.953125 -8.984375 3.515625 -9.203125 C 4.085938 -9.429688 4.707031 -9.546875 5.375 -9.546875 C 6.019531 -9.546875 6.625 -9.429688 7.1875 -9.203125 C 7.757812 -8.984375 8.253906 -8.660156 8.671875 -8.234375 C 9.085938 -7.816406 9.414062 -7.304688 9.65625 -6.703125 C 9.894531 -6.109375 10.015625 -5.441406 10.015625 -4.703125 C 10.015625 -3.960938 9.894531 -3.289062 9.65625 -2.6875 C 9.425781 -2.082031 9.101562 -1.5625 8.6875 -1.125 C 8.269531 -0.695312 7.773438 -0.363281 7.203125 -0.125 C 6.640625 0.101562 6.03125 0.21875 5.375 0.21875 C 4.695312 0.21875 4.070312 0.0976562 3.5 -0.140625 C 2.9375 -0.378906 2.445312 -0.710938 2.03125 -1.140625 C 1.625 -1.578125 1.300781 -2.09375 1.0625 -2.6875 C 0.832031 -3.289062 0.71875 -3.953125 0.71875 -4.671875 Z M 0.71875 -4.671875 "/></g></g></g><g fill="#000000" fill-opacity="1"><g transform="translate(251.064988, 157.455123)"><g><path d="M 8.359375 -4.671875 C 8.359375 -5.140625 8.285156 -5.582031 8.140625 -6 C 7.992188 -6.414062 7.785156 -6.78125 7.515625 -7.09375 C 7.242188 -7.40625 6.925781 -7.648438 6.5625 -7.828125 C 6.195312 -8.015625 5.800781 -8.109375 5.375 -8.109375 C 4.425781 -8.109375 3.6875 -7.796875 3.15625 -7.171875 C 2.632812 -6.554688 2.375 -5.734375 2.375 -4.703125 C 2.375 -4.234375 2.445312 -3.785156 2.59375 -3.359375 C 2.738281 -2.941406 2.945312 -2.570312 3.21875 -2.25 C 3.488281 -1.9375 3.804688 -1.6875 4.171875 -1.5 C 4.535156 -1.3125 4.9375 -1.21875 5.375 -1.21875 C 5.832031 -1.21875 6.25 -1.300781 6.625 -1.46875 C 7 -1.632812 7.3125 -1.867188 7.5625 -2.171875 C 7.820312 -2.484375 8.019531 -2.847656 8.15625 -3.265625 C 8.289062 -3.679688 8.359375 -4.148438 8.359375 -4.671875 Z M 0.71875 -4.671875 C 0.71875 -5.421875 0.835938 -6.097656 1.078125 -6.703125 C 1.316406 -7.304688 1.640625 -7.816406 2.046875 -8.234375 C 2.460938 -8.660156 2.953125 -8.984375 3.515625 -9.203125 C 4.085938 -9.429688 4.707031 -9.546875 5.375 -9.546875 C 6.019531 -9.546875 6.625 -9.429688 7.1875 -9.203125 C 7.757812 -8.984375 8.253906 -8.660156 8.671875 -8.234375 C 9.085938 -7.816406 9.414062 -7.304688 9.65625 -6.703125 C 9.894531 -6.109375 10.015625 -5.441406 10.015625 -4.703125 C 10.015625 -3.960938 9.894531 -3.289062 9.65625 -2.6875 C 9.425781 -2.082031 9.101562 -1.5625 8.6875 -1.125 C 8.269531 -0.695312 7.773438 -0.363281 7.203125 -0.125 C 6.640625 0.101562 6.03125 0.21875 5.375 0.21875 C 4.695312 0.21875 4.070312 0.0976562 3.5 -0.140625 C 2.9375 -0.378906 2.445312 -0.710938 2.03125 -1.140625 C 1.625 -1.578125 1.300781 -2.09375 1.0625 -2.6875 C 0.832031 -3.289062 0.71875 -3.953125 0.71875 -4.671875 Z M 0.71875 -4.671875 "/></g></g></g><g fill="#000000" fill-opacity="1"><g transform="translate(261.80033, 157.455123)"><g><path d="M 2.171875 -11.9375 L 3.40625 -11.9375 L 3.40625 -9 L 6 -9 L 6 -7.59375 L 3.40625 -7.59375 L 3.40625 -3.09375 C 3.40625 -2.738281 3.441406 -2.441406 3.515625 -2.203125 C 3.597656 -1.960938 3.707031 -1.769531 3.84375 -1.625 C 3.976562 -1.488281 4.132812 -1.382812 4.3125 -1.3125 C 4.5 -1.25 4.695312 -1.21875 4.90625 -1.21875 C 5.195312 -1.21875 5.472656 -1.265625 5.734375 -1.359375 C 6.003906 -1.460938 6.257812 -1.578125 6.5 -1.703125 L 6.953125 -0.40625 C 6.710938 -0.269531 6.390625 -0.132812 5.984375 0 C 5.578125 0.144531 5.148438 0.21875 4.703125 0.21875 C 3.804688 0.21875 3.097656 -0.0703125 2.578125 -0.65625 C 2.054688 -1.25 1.796875 -2.101562 1.796875 -3.21875 L 1.796875 -7.59375 L 0.171875 -7.59375 L 0.171875 -9 L 1.828125 -9 Z M 2.171875 -11.9375 "/></g></g></g><g fill="#000000" fill-opacity="1"><g transform="translate(268.927301, 157.455123)"><g><path d="M 1.90625 -13.09375 L 3.703125 -13.09375 L 3.703125 -8.625 L 3.46875 -3.71875 L 2.140625 -3.71875 L 1.90625 -8.625 Z M 1.609375 -0.984375 C 1.609375 -1.359375 1.710938 -1.648438 1.921875 -1.859375 C 2.140625 -2.078125 2.4375 -2.1875 2.8125 -2.1875 C 3.125 -2.1875 3.398438 -2.066406 3.640625 -1.828125 C 3.890625 -1.585938 4.015625 -1.304688 4.015625 -0.984375 C 4.015625 -0.628906 3.898438 -0.335938 3.671875 -0.109375 C 3.453125 0.109375 3.164062 0.21875 2.8125 0.21875 C 2.488281 0.21875 2.207031 0.0976562 1.96875 -0.140625 C 1.726562 -0.378906 1.609375 -0.660156 1.609375 -0.984375 Z M 1.609375 -0.984375 "/></g></g></g><g clip-path="url(#2a13e8b4b1)"><path fill="#38b2d8" d="M 180.320312 175.734375 C 174.703125 176.046875 167.863281 190.890625 167.863281 190.890625 L 176.273438 191.125 L 181.222656 197.070312 L 187.636719 184.714844 L 187.703125 184.648438 C 185.226562 180.617188 182.359375 175.957031 182.15625 175.652344 C 181.523438 175.671875 180.910156 175.699219 180.320312 175.734375 " fill-opacity="1" fill-rule="nonzero"/></g><g clip-path="url(#a16a258cb4)"><path fill="#38b2d8" d="M 196.453125 175.734375 C 196.453125 175.734375 196.382812 175.730469 196.253906 175.726562 C 196.320312 175.730469 196.382812 175.734375 196.445312 175.738281 L 196.453125 175.734375 " fill-opacity="1" fill-rule="nonzero"/></g><g clip-path="url(#f606050b46)"><path fill="#38b2d8" d="M 182.164062 175.652344 C 182.261719 175.648438 184.710938 175.59375 187.679688 175.574219 C 185.847656 175.570312 183.9375 175.589844 182.164062 175.652344 " fill-opacity="1" fill-rule="nonzero"/></g><g clip-path="url(#b67b5b6b28)"><path fill="#1d97bd" d="M 202.167969 184.972656 C 202.167969 184.972656 200.90625 176.125 196.753906 175.765625 C 196.652344 175.757812 196.550781 175.75 196.445312 175.738281 C 196.382812 175.734375 196.320312 175.730469 196.253906 175.726562 C 194.074219 175.578125 190.621094 175.554688 187.679688 175.574219 C 184.710938 175.59375 182.261719 175.648438 182.164062 175.652344 L 182.15625 175.652344 C 182.359375 175.957031 185.226562 180.617188 187.703125 184.648438 C 189.636719 187.800781 191.335938 190.570312 191.335938 190.570312 L 183.570312 195.265625 L 202.53125 197.070312 L 208.128906 181.722656 L 202.167969 184.972656 " fill-opacity="1" fill-rule="nonzero"/></g><path fill="#38b2d8" d="M 182.828125 218.03125 L 186.03125 211.109375 L 172.117188 211.632812 L 172.03125 211.609375 C 169.746094 215.753906 167.109375 220.546875 166.941406 220.871094 C 167.273438 221.414062 167.601562 221.933594 167.921875 222.429688 C 170.96875 227.160156 187.253906 225.78125 187.253906 225.78125 L 182.828125 218.03125 " fill-opacity="1" fill-rule="nonzero"/><path fill="#38b2d8" d="M 159.957031 208.398438 C 159.957031 208.398438 159.988281 208.460938 160.046875 208.574219 C 160.019531 208.515625 159.992188 208.460938 159.964844 208.402344 L 159.957031 208.398438 " fill-opacity="1" fill-rule="nonzero"/><path fill="#38b2d8" d="M 166.941406 220.867188 C 166.890625 220.789062 165.632812 218.683594 164.148438 216.105469 C 165.050781 217.703125 166.011719 219.355469 166.941406 220.867188 " fill-opacity="1" fill-rule="nonzero"/><path fill="#1d97bd" d="M 175.386719 205.527344 L 183.300781 209.960938 L 175.511719 192.582031 L 159.402344 195.289062 L 165.171875 198.867188 C 165.171875 198.867188 158.101562 204.335938 159.835938 208.125 C 159.878906 208.214844 159.921875 208.308594 159.964844 208.402344 C 159.992188 208.460938 160.019531 208.515625 160.046875 208.574219 C 160.996094 210.546875 162.679688 213.558594 164.148438 216.105469 C 165.632812 218.683594 166.890625 220.789062 166.941406 220.867188 L 166.941406 220.871094 C 167.109375 220.546875 169.746094 215.753906 172.03125 211.609375 C 173.816406 208.371094 175.386719 205.527344 175.386719 205.527344 " fill-opacity="1" fill-rule="nonzero"/><path fill="#38b2d8" d="M 207.761719 191.605469 L 203.445312 198.28125 L 195.542969 199.820312 L 202.773438 211.71875 L 202.792969 211.804688 C 207.527344 211.78125 212.996094 211.753906 213.363281 211.738281 C 213.671875 211.183594 213.96875 210.644531 214.246094 210.125 C 216.894531 205.160156 207.761719 191.605469 207.761719 191.605469 " fill-opacity="1" fill-rule="nonzero"/><path fill="#38b2d8" d="M 213.359375 211.742188 C 213.316406 211.820312 212.089844 213.945312 210.5625 216.5 C 211.515625 214.933594 212.492188 213.289062 213.359375 211.742188 " fill-opacity="1" fill-rule="nonzero"/><path fill="#38b2d8" d="M 205.871094 223.914062 C 205.871094 223.914062 205.910156 223.855469 205.980469 223.746094 C 205.941406 223.800781 205.90625 223.851562 205.867188 223.902344 L 205.871094 223.914062 " fill-opacity="1" fill-rule="nonzero"/><g clip-path="url(#9ec3025079)"><path fill="#1d97bd" d="M 195.847656 211.835938 L 195.867188 202.761719 L 184.480469 218.027344 L 194.691406 230.78125 L 195.007812 224 C 195.007812 224 203.222656 227.515625 205.6875 224.152344 C 205.746094 224.074219 205.808594 223.988281 205.867188 223.902344 C 205.90625 223.851562 205.941406 223.800781 205.980469 223.746094 C 207.242188 221.960938 209.050781 219.023438 210.5625 216.5 C 212.089844 213.945312 213.316406 211.820312 213.359375 211.742188 L 213.363281 211.738281 C 212.996094 211.753906 207.527344 211.78125 202.792969 211.804688 C 199.09375 211.820312 195.847656 211.835938 195.847656 211.835938 " fill-opacity="1" fill-rule="nonzero"/></g></svg>