<svg xmlns="http://www.w3.org/2000/svg" xmlns:xlink="http://www.w3.org/1999/xlink" width="500" zoomAndPan="magnify" viewBox="0 0 375 281.25" height="375" preserveAspectRatio="xMidYMid meet" version="1.0"><defs><g/><clipPath id="2045be0995"><path d="M 28.550781 26.179688 L 347 26.179688 L 347 256.027344 L 28.550781 256.027344 Z M 28.550781 26.179688 " clip-rule="nonzero"/></clipPath><clipPath id="94619120cf"><path d="M 42.011719 26.179688 L 332.988281 26.179688 C 336.558594 26.179688 339.984375 27.597656 342.507812 30.121094 C 345.03125 32.644531 346.449219 36.070312 346.449219 39.640625 L 346.449219 242.5625 C 346.449219 246.132812 345.03125 249.558594 342.507812 252.082031 C 339.984375 254.609375 336.558594 256.027344 332.988281 256.027344 L 42.011719 256.027344 C 38.441406 256.027344 35.015625 254.609375 32.492188 252.082031 C 29.96875 249.558594 28.550781 246.132812 28.550781 242.5625 L 28.550781 39.640625 C 28.550781 32.207031 34.578125 26.179688 42.011719 26.179688 Z M 42.011719 26.179688 " clip-rule="nonzero"/></clipPath><clipPath id="7aeac222e9"><path d="M 0.550781 0.179688 L 318.617188 0.179688 L 318.617188 230.027344 L 0.550781 230.027344 Z M 0.550781 0.179688 " clip-rule="nonzero"/></clipPath><clipPath id="c009c4b1b9"><path d="M 14.011719 0.179688 L 304.988281 0.179688 C 308.558594 0.179688 311.984375 1.597656 314.507812 4.121094 C 317.03125 6.644531 318.449219 10.070312 318.449219 13.640625 L 318.449219 216.5625 C 318.449219 220.132812 317.03125 223.558594 314.507812 226.082031 C 311.984375 228.609375 308.558594 230.027344 304.988281 230.027344 L 14.011719 230.027344 C 10.441406 230.027344 7.015625 228.609375 4.492188 226.082031 C 1.96875 223.558594 0.550781 220.132812 0.550781 216.5625 L 0.550781 13.640625 C 0.550781 6.207031 6.578125 0.179688 14.011719 0.179688 Z M 14.011719 0.179688 " clip-rule="nonzero"/></clipPath><clipPath id="fc51e1f31f"><rect x="0" width="319" y="0" height="231"/></clipPath><clipPath id="58ac68a57b"><path d="M 117.667969 57.09375 L 257.546875 57.09375 L 257.546875 225 L 117.667969 225 Z M 117.667969 57.09375 " clip-rule="nonzero"/></clipPath></defs><g clip-path="url(#2045be0995)"><g clip-path="url(#94619120cf)"><g transform="matrix(1, 0, 0, 1, 28, 26)"><g clip-path="url(#fc51e1f31f)"><g clip-path="url(#7aeac222e9)"><g clip-path="url(#c009c4b1b9)"><path fill="#d3d9dd" d="M 0.550781 0.179688 L 318.386719 0.179688 L 318.386719 230.027344 L 0.550781 230.027344 Z M 0.550781 0.179688 " fill-opacity="1" fill-rule="nonzero"/></g></g></g></g></g></g><path fill="#ffffff" d="M 187.472656 224.046875 L 185.738281 222.925781 C 173.929688 215.304688 151.855469 198.351562 136.675781 170.417969 C 119.992188 139.722656 118.214844 109.488281 118.640625 94.199219 L 118.710938 91.664062 L 121.203125 91.15625 C 132.121094 88.925781 138.722656 83.597656 142.335938 79.515625 C 146.835938 74.429688 149.828125 68.105469 151.222656 60.710938 L 151.714844 58.105469 L 223.230469 58.105469 L 223.722656 60.710938 C 225.117188 68.105469 228.109375 74.429688 232.605469 79.515625 C 236.222656 83.597656 242.824219 88.925781 253.742188 91.15625 L 256.230469 91.664062 L 256.300781 94.199219 C 256.730469 109.488281 254.953125 139.71875 238.273438 170.417969 C 223.085938 198.351562 201.011719 215.304688 189.210938 222.925781 L 187.472656 224.046875 " fill-opacity="1" fill-rule="nonzero"/><g clip-path="url(#58ac68a57b)"><path fill="#1d97bd" d="M 187.472656 224.046875 L 187.980469 223.257812 L 186.246094 222.140625 C 174.519531 214.574219 152.570312 197.710938 137.5 169.96875 C 122.21875 141.867188 119.519531 114.121094 119.523438 98.058594 C 119.523438 96.695312 119.542969 95.414062 119.574219 94.226562 L 119.625 92.433594 L 121.390625 92.074219 C 132.527344 89.800781 139.320312 84.335938 143.035156 80.132812 C 147.65625 74.917969 150.722656 68.421875 152.144531 60.882812 L 152.492188 59.039062 L 222.453125 59.039062 L 222.800781 60.882812 C 224.222656 68.421875 227.289062 74.917969 231.902344 80.132812 C 235.621094 84.335938 242.417969 89.800781 253.554688 92.074219 L 255.316406 92.433594 L 255.367188 94.226562 C 255.398438 95.425781 255.417969 96.71875 255.417969 98.097656 C 255.421875 114.164062 252.710938 141.886719 237.449219 169.96875 C 222.375 197.710938 200.421875 214.574219 188.699219 222.140625 L 186.964844 223.257812 L 187.472656 224.046875 L 187.980469 223.257812 L 187.472656 224.046875 L 187.980469 224.835938 L 189.71875 223.714844 C 201.605469 216.039062 223.800781 198.996094 239.09375 170.867188 C 254.558594 142.402344 257.289062 114.371094 257.292969 98.097656 C 257.292969 96.703125 257.269531 95.390625 257.238281 94.175781 L 257.167969 91.636719 C 257.15625 91.203125 256.84375 90.832031 256.417969 90.746094 L 253.929688 90.242188 C 243.230469 88.050781 236.820312 82.855469 233.308594 78.894531 C 228.933594 73.945312 226.011719 67.789062 224.640625 60.535156 L 224.148438 57.929688 C 224.066406 57.488281 223.679688 57.167969 223.230469 57.167969 L 151.714844 57.167969 C 151.265625 57.167969 150.878906 57.488281 150.792969 57.929688 L 150.304688 60.535156 C 148.933594 67.789062 146.011719 73.945312 141.632812 78.894531 C 138.125 82.855469 131.714844 88.050781 121.015625 90.242188 L 121.019531 90.242188 L 118.527344 90.746094 C 118.097656 90.832031 117.789062 91.199219 117.773438 91.636719 L 117.703125 94.171875 C 117.667969 95.378906 117.648438 96.675781 117.648438 98.058594 C 117.648438 114.324219 120.371094 142.382812 135.851562 170.867188 C 151.144531 198.996094 173.339844 216.039062 185.230469 223.714844 L 186.964844 224.832031 C 187.273438 225.03125 187.667969 225.03125 187.980469 224.835938 L 187.472656 224.046875 " fill-opacity="1" fill-rule="nonzero"/></g><path fill="#1d97bd" d="M 124.992188 96.847656 C 124.851562 112.121094 127.179688 139.554688 142.300781 167.363281 C 156.089844 192.738281 175.851562 208.636719 187.472656 216.40625 C 199.089844 208.636719 218.859375 192.738281 232.648438 167.363281 C 247.765625 139.554688 250.09375 112.121094 249.953125 96.847656 C 238.777344 94 231.785156 88.234375 227.820312 83.75 C 223.085938 78.40625 219.789062 71.941406 217.992188 64.503906 L 156.953125 64.503906 C 155.15625 71.941406 151.859375 78.40625 147.125 83.75 C 143.152344 88.238281 136.167969 94 124.992188 96.847656 " fill-opacity="1" fill-rule="nonzero"/><path fill="#1d97bd" d="M 124.992188 96.847656 L 124.054688 96.839844 C 124.050781 97.253906 124.046875 97.679688 124.046875 98.113281 C 124.050781 113.710938 126.664062 140.5625 141.476562 167.808594 C 155.371094 193.371094 175.253906 209.363281 186.953125 217.1875 C 187.265625 217.394531 187.675781 217.394531 187.992188 217.1875 C 199.691406 209.363281 219.574219 193.371094 233.472656 167.808594 C 248.277344 140.5625 250.890625 113.707031 250.894531 98.109375 C 250.894531 97.675781 250.890625 97.253906 250.886719 96.839844 C 250.886719 96.414062 250.597656 96.046875 250.183594 95.9375 C 239.214844 93.140625 232.394531 87.503906 228.519531 83.132812 C 223.894531 77.90625 220.667969 71.585938 218.902344 64.28125 C 218.800781 63.863281 218.421875 63.566406 217.992188 63.566406 L 156.953125 63.566406 C 156.519531 63.566406 156.144531 63.863281 156.042969 64.28125 C 154.277344 71.585938 151.050781 77.90625 146.425781 83.132812 C 142.546875 87.507812 135.730469 93.140625 124.761719 95.9375 C 124.347656 96.042969 124.058594 96.414062 124.054688 96.839844 L 124.992188 96.847656 L 125.222656 97.753906 C 136.605469 94.855469 143.757812 88.972656 147.824219 84.375 C 152.667969 78.910156 156.03125 72.292969 157.863281 64.722656 L 156.953125 64.503906 L 156.953125 65.4375 L 217.992188 65.4375 L 217.992188 64.503906 L 217.082031 64.722656 C 218.910156 72.292969 222.28125 78.910156 227.117188 84.375 C 231.179688 88.964844 238.339844 94.855469 249.722656 97.753906 L 249.953125 96.847656 L 249.015625 96.851562 C 249.019531 97.265625 249.023438 97.683594 249.023438 98.109375 C 249.023438 113.503906 246.433594 140.046875 231.828125 166.914062 C 218.140625 192.101562 198.492188 207.914062 186.953125 215.628906 L 187.472656 216.40625 L 187.992188 215.628906 C 176.453125 207.914062 156.804688 192.101562 143.125 166.914062 C 128.511719 140.046875 125.921875 113.507812 125.921875 98.113281 C 125.921875 97.6875 125.925781 97.265625 125.929688 96.855469 L 124.992188 96.847656 L 125.222656 97.753906 L 124.992188 96.847656 " fill-opacity="1" fill-rule="nonzero"/><path fill="#ffffff" d="M 200.0625 171.675781 L 176.132812 171.675781 L 176.132812 139.667969 L 200.0625 139.667969 Z M 188.09375 101.441406 L 153.625 127.109375 L 153.625 174.339844 L 222.566406 174.339844 L 222.566406 127.109375 L 188.09375 101.441406 " fill-opacity="1" fill-rule="nonzero"/><path fill="#ffffff" d="M 188.128906 85.339844 L 170.066406 98.738281 L 170.066406 95.367188 L 156.671875 95.367188 L 156.671875 108.664062 L 137.292969 123.5 L 143.722656 132.152344 L 188.09375 98.71875 L 232.472656 132.152344 L 238.898438 123.5 L 188.128906 85.339844 " fill-opacity="1" fill-rule="nonzero"/><g fill="#ffffff" fill-opacity="1"><g transform="translate(155.226414, 79.738018)"><g><path d="M 6.0625 -10.796875 C 6.738281 -10.796875 7.289062 -10.703125 7.71875 -10.515625 C 8.144531 -10.328125 8.53125 -10.097656 8.875 -9.828125 C 8.988281 -9.734375 9.085938 -9.6875 9.171875 -9.6875 C 9.359375 -9.6875 9.484375 -9.988281 9.546875 -10.59375 L 9.890625 -10.59375 C 9.867188 -10.195312 9.851562 -9.722656 9.84375 -9.171875 C 9.832031 -8.617188 9.828125 -7.882812 9.828125 -6.96875 L 9.484375 -6.96875 C 9.410156 -7.5625 9.300781 -8.082031 9.15625 -8.53125 C 9.007812 -8.976562 8.742188 -9.359375 8.359375 -9.671875 C 8.117188 -9.898438 7.820312 -10.078125 7.46875 -10.203125 C 7.113281 -10.335938 6.757812 -10.40625 6.40625 -10.40625 C 5.851562 -10.40625 5.378906 -10.265625 4.984375 -9.984375 C 4.597656 -9.703125 4.28125 -9.316406 4.03125 -8.828125 C 3.78125 -8.335938 3.59375 -7.785156 3.46875 -7.171875 C 3.351562 -6.554688 3.296875 -5.921875 3.296875 -5.265625 C 3.296875 -3.472656 3.539062 -2.160156 4.03125 -1.328125 C 4.53125 -0.503906 5.242188 -0.09375 6.171875 -0.09375 C 6.410156 -0.09375 6.617188 -0.117188 6.796875 -0.171875 C 6.984375 -0.234375 7.128906 -0.304688 7.234375 -0.390625 C 7.378906 -0.484375 7.472656 -0.585938 7.515625 -0.703125 C 7.566406 -0.816406 7.59375 -0.972656 7.59375 -1.171875 L 7.59375 -2.625 C 7.59375 -3.082031 7.554688 -3.425781 7.484375 -3.65625 C 7.410156 -3.882812 7.265625 -4.035156 7.046875 -4.109375 C 6.828125 -4.191406 6.503906 -4.238281 6.078125 -4.25 L 6.078125 -4.546875 C 6.296875 -4.535156 6.550781 -4.523438 6.84375 -4.515625 C 7.132812 -4.515625 7.4375 -4.507812 7.75 -4.5 C 8.070312 -4.5 8.367188 -4.5 8.640625 -4.5 C 9.054688 -4.5 9.4375 -4.503906 9.78125 -4.515625 C 10.132812 -4.523438 10.421875 -4.535156 10.640625 -4.546875 L 10.640625 -4.25 C 10.453125 -4.238281 10.3125 -4.203125 10.21875 -4.140625 C 10.125 -4.078125 10.054688 -3.957031 10.015625 -3.78125 C 9.984375 -3.601562 9.96875 -3.328125 9.96875 -2.953125 L 9.96875 0 L 9.671875 0 C 9.660156 -0.164062 9.625 -0.347656 9.5625 -0.546875 C 9.5 -0.753906 9.390625 -0.859375 9.234375 -0.859375 C 9.171875 -0.859375 9.082031 -0.835938 8.96875 -0.796875 C 8.851562 -0.765625 8.675781 -0.675781 8.4375 -0.53125 C 8.0625 -0.320312 7.671875 -0.144531 7.265625 0 C 6.859375 0.132812 6.429688 0.203125 5.984375 0.203125 C 4.828125 0.203125 3.847656 -0.0078125 3.046875 -0.4375 C 2.253906 -0.863281 1.65625 -1.476562 1.25 -2.28125 C 0.84375 -3.082031 0.640625 -4.046875 0.640625 -5.171875 C 0.640625 -6.304688 0.867188 -7.289062 1.328125 -8.125 C 1.796875 -8.96875 2.4375 -9.625 3.25 -10.09375 C 4.0625 -10.5625 5 -10.796875 6.0625 -10.796875 Z M 6.0625 -10.796875 "/></g></g></g><g fill="#ffffff" fill-opacity="1"><g transform="translate(166.222078, 79.738018)"><g><path d="M 7.8125 -7.890625 L 7.8125 -1.625 C 7.8125 -1.175781 7.878906 -0.84375 8.015625 -0.625 C 8.148438 -0.414062 8.398438 -0.3125 8.765625 -0.3125 L 8.765625 0 C 8.453125 -0.03125 8.140625 -0.046875 7.828125 -0.046875 C 7.410156 -0.046875 7.019531 -0.03125 6.65625 0 C 6.300781 0.03125 5.96875 0.0859375 5.65625 0.171875 L 5.65625 -1.1875 C 5.414062 -0.6875 5.082031 -0.328125 4.65625 -0.109375 C 4.226562 0.0976562 3.757812 0.203125 3.25 0.203125 C 2.820312 0.203125 2.476562 0.144531 2.21875 0.03125 C 1.96875 -0.0703125 1.765625 -0.207031 1.609375 -0.375 C 1.441406 -0.5625 1.320312 -0.804688 1.25 -1.109375 C 1.1875 -1.421875 1.15625 -1.820312 1.15625 -2.3125 L 1.15625 -6.09375 C 1.15625 -6.550781 1.085938 -6.882812 0.953125 -7.09375 C 0.816406 -7.3125 0.5625 -7.421875 0.1875 -7.421875 L 0.1875 -7.734375 C 0.507812 -7.703125 0.820312 -7.6875 1.125 -7.6875 C 1.539062 -7.6875 1.929688 -7.703125 2.296875 -7.734375 C 2.660156 -7.773438 2.992188 -7.828125 3.296875 -7.890625 L 3.296875 -1.703125 C 3.296875 -1.453125 3.316406 -1.234375 3.359375 -1.046875 C 3.410156 -0.859375 3.5 -0.710938 3.625 -0.609375 C 3.757812 -0.503906 3.953125 -0.453125 4.203125 -0.453125 C 4.472656 -0.453125 4.710938 -0.523438 4.921875 -0.671875 C 5.140625 -0.816406 5.316406 -1.019531 5.453125 -1.28125 C 5.585938 -1.550781 5.65625 -1.851562 5.65625 -2.1875 L 5.65625 -6.09375 C 5.65625 -6.550781 5.585938 -6.882812 5.453125 -7.09375 C 5.316406 -7.3125 5.0625 -7.421875 4.6875 -7.421875 L 4.6875 -7.734375 C 5.007812 -7.703125 5.320312 -7.6875 5.625 -7.6875 C 6.039062 -7.6875 6.429688 -7.703125 6.796875 -7.734375 C 7.160156 -7.773438 7.5 -7.828125 7.8125 -7.890625 Z M 7.8125 -7.890625 "/></g></g></g><g fill="#ffffff" fill-opacity="1"><g transform="translate(175.287898, 79.738018)"><g><path d="M 5.78125 -7.9375 C 6.207031 -7.9375 6.546875 -7.882812 6.796875 -7.78125 C 7.054688 -7.675781 7.269531 -7.535156 7.4375 -7.359375 C 7.59375 -7.171875 7.703125 -6.921875 7.765625 -6.609375 C 7.835938 -6.304688 7.875 -5.90625 7.875 -5.40625 L 7.875 -1.390625 C 7.875 -0.972656 7.9375 -0.6875 8.0625 -0.53125 C 8.195312 -0.382812 8.425781 -0.3125 8.75 -0.3125 L 8.75 0 C 8.570312 -0.0078125 8.300781 -0.0195312 7.9375 -0.03125 C 7.570312 -0.0507812 7.210938 -0.0625 6.859375 -0.0625 C 6.503906 -0.0625 6.148438 -0.0507812 5.796875 -0.03125 C 5.453125 -0.0195312 5.191406 -0.0078125 5.015625 0 L 5.015625 -0.3125 C 5.273438 -0.3125 5.457031 -0.382812 5.5625 -0.53125 C 5.675781 -0.6875 5.734375 -0.972656 5.734375 -1.390625 L 5.734375 -6.046875 C 5.734375 -6.296875 5.710938 -6.507812 5.671875 -6.6875 C 5.628906 -6.875 5.550781 -7.019531 5.4375 -7.125 C 5.320312 -7.226562 5.148438 -7.28125 4.921875 -7.28125 C 4.660156 -7.28125 4.421875 -7.203125 4.203125 -7.046875 C 3.984375 -6.898438 3.804688 -6.695312 3.671875 -6.4375 C 3.535156 -6.175781 3.46875 -5.878906 3.46875 -5.546875 L 3.46875 -1.390625 C 3.46875 -0.972656 3.519531 -0.6875 3.625 -0.53125 C 3.738281 -0.382812 3.925781 -0.3125 4.1875 -0.3125 L 4.1875 0 C 4.03125 -0.0078125 3.785156 -0.0195312 3.453125 -0.03125 C 3.117188 -0.0507812 2.773438 -0.0625 2.421875 -0.0625 C 2.046875 -0.0625 1.65625 -0.0507812 1.25 -0.03125 C 0.851562 -0.0195312 0.554688 -0.0078125 0.359375 0 L 0.359375 -0.3125 C 0.703125 -0.3125 0.945312 -0.382812 1.09375 -0.53125 C 1.238281 -0.6875 1.3125 -0.972656 1.3125 -1.390625 L 1.3125 -6.09375 C 1.3125 -6.550781 1.242188 -6.882812 1.109375 -7.09375 C 0.972656 -7.3125 0.722656 -7.421875 0.359375 -7.421875 L 0.359375 -7.734375 C 0.679688 -7.703125 0.988281 -7.6875 1.28125 -7.6875 C 1.695312 -7.6875 2.085938 -7.703125 2.453125 -7.734375 C 2.816406 -7.773438 3.15625 -7.828125 3.46875 -7.890625 L 3.46875 -6.546875 C 3.707031 -7.046875 4.03125 -7.398438 4.4375 -7.609375 C 4.84375 -7.828125 5.289062 -7.9375 5.78125 -7.9375 Z M 10.28125 -7.9375 C 10.707031 -7.9375 11.046875 -7.882812 11.296875 -7.78125 C 11.554688 -7.675781 11.769531 -7.535156 11.9375 -7.359375 C 12.09375 -7.171875 12.203125 -6.921875 12.265625 -6.609375 C 12.335938 -6.304688 12.375 -5.90625 12.375 -5.40625 L 12.375 -1.390625 C 12.375 -0.972656 12.445312 -0.6875 12.59375 -0.53125 C 12.738281 -0.382812 12.988281 -0.3125 13.34375 -0.3125 L 13.34375 0 C 13.144531 -0.0078125 12.859375 -0.0195312 12.484375 -0.03125 C 12.109375 -0.0507812 11.734375 -0.0625 11.359375 -0.0625 C 11.003906 -0.0625 10.648438 -0.0507812 10.296875 -0.03125 C 9.953125 -0.0195312 9.691406 -0.0078125 9.515625 0 L 9.515625 -0.3125 C 9.773438 -0.3125 9.957031 -0.382812 10.0625 -0.53125 C 10.175781 -0.6875 10.234375 -0.972656 10.234375 -1.390625 L 10.234375 -6.046875 C 10.234375 -6.296875 10.207031 -6.507812 10.15625 -6.6875 C 10.113281 -6.875 10.03125 -7.019531 9.90625 -7.125 C 9.78125 -7.226562 9.585938 -7.28125 9.328125 -7.28125 C 9.066406 -7.28125 8.828125 -7.195312 8.609375 -7.03125 C 8.390625 -6.875 8.210938 -6.660156 8.078125 -6.390625 C 7.941406 -6.128906 7.867188 -5.832031 7.859375 -5.5 L 7.796875 -6.421875 C 8.054688 -7.015625 8.410156 -7.414062 8.859375 -7.625 C 9.304688 -7.832031 9.78125 -7.9375 10.28125 -7.9375 Z M 10.28125 -7.9375 "/></g></g></g><g fill="#ffffff" fill-opacity="1"><g transform="translate(188.826776, 79.738018)"><g><path d="M 5.484375 -7.9375 C 6.265625 -7.9375 6.910156 -7.617188 7.421875 -6.984375 C 7.929688 -6.359375 8.1875 -5.382812 8.1875 -4.0625 C 8.1875 -3.03125 8.03125 -2.195312 7.71875 -1.5625 C 7.40625 -0.9375 6.988281 -0.484375 6.46875 -0.203125 C 5.957031 0.0664062 5.390625 0.203125 4.765625 0.203125 C 4.359375 0.203125 3.976562 0.132812 3.625 0 C 3.28125 -0.132812 2.984375 -0.363281 2.734375 -0.6875 L 2.953125 -0.765625 C 3.128906 -0.546875 3.335938 -0.378906 3.578125 -0.265625 C 3.828125 -0.160156 4.070312 -0.109375 4.3125 -0.109375 C 4.851562 -0.109375 5.257812 -0.414062 5.53125 -1.03125 C 5.800781 -1.644531 5.9375 -2.585938 5.9375 -3.859375 C 5.9375 -4.710938 5.882812 -5.390625 5.78125 -5.890625 C 5.675781 -6.398438 5.523438 -6.757812 5.328125 -6.96875 C 5.128906 -7.1875 4.890625 -7.296875 4.609375 -7.296875 C 4.253906 -7.296875 3.929688 -7.148438 3.640625 -6.859375 C 3.359375 -6.578125 3.195312 -6.1875 3.15625 -5.6875 L 3.078125 -6.203125 C 3.253906 -6.773438 3.554688 -7.207031 3.984375 -7.5 C 4.421875 -7.789062 4.921875 -7.9375 5.484375 -7.9375 Z M 3.203125 -11.6875 L 3.203125 -0.296875 C 2.953125 -0.335938 2.695312 -0.335938 2.4375 -0.296875 C 2.175781 -0.253906 1.9375 -0.1875 1.71875 -0.09375 C 1.5 0 1.316406 0.109375 1.171875 0.234375 L 0.9375 0.109375 C 0.976562 -0.0351562 1.003906 -0.175781 1.015625 -0.3125 C 1.035156 -0.445312 1.046875 -0.585938 1.046875 -0.734375 L 1.046875 -9.90625 C 1.046875 -10.351562 0.976562 -10.679688 0.84375 -10.890625 C 0.707031 -11.109375 0.457031 -11.21875 0.09375 -11.21875 L 0.09375 -11.53125 C 0.40625 -11.5 0.710938 -11.484375 1.015625 -11.484375 C 1.421875 -11.484375 1.804688 -11.5 2.171875 -11.53125 C 2.546875 -11.570312 2.890625 -11.625 3.203125 -11.6875 Z M 3.203125 -11.6875 "/></g></g></g><g fill="#ffffff" fill-opacity="1"><g transform="translate(197.593388, 79.738018)"><g><path d="M 4.21875 -7.9375 C 4.945312 -7.9375 5.582031 -7.800781 6.125 -7.53125 C 6.675781 -7.257812 7.101562 -6.828125 7.40625 -6.234375 C 7.71875 -5.640625 7.875 -4.847656 7.875 -3.859375 C 7.875 -2.867188 7.71875 -2.078125 7.40625 -1.484375 C 7.101562 -0.890625 6.675781 -0.457031 6.125 -0.1875 C 5.582031 0.0703125 4.945312 0.203125 4.21875 0.203125 C 3.507812 0.203125 2.878906 0.0703125 2.328125 -0.1875 C 1.773438 -0.457031 1.335938 -0.890625 1.015625 -1.484375 C 0.703125 -2.078125 0.546875 -2.867188 0.546875 -3.859375 C 0.546875 -4.847656 0.703125 -5.640625 1.015625 -6.234375 C 1.335938 -6.828125 1.773438 -7.257812 2.328125 -7.53125 C 2.878906 -7.800781 3.507812 -7.9375 4.21875 -7.9375 Z M 4.21875 -7.640625 C 3.820312 -7.640625 3.488281 -7.34375 3.21875 -6.75 C 2.945312 -6.15625 2.8125 -5.191406 2.8125 -3.859375 C 2.8125 -2.523438 2.945312 -1.5625 3.21875 -0.96875 C 3.488281 -0.382812 3.820312 -0.09375 4.21875 -0.09375 C 4.625 -0.09375 4.957031 -0.382812 5.21875 -0.96875 C 5.488281 -1.5625 5.625 -2.523438 5.625 -3.859375 C 5.625 -5.191406 5.488281 -6.15625 5.21875 -6.75 C 4.957031 -7.34375 4.625 -7.640625 4.21875 -7.640625 Z M 4.21875 -7.640625 "/></g></g></g><g fill="#ffffff" fill-opacity="1"><g transform="translate(206.045838, 79.738018)"><g><path d="M 4.21875 -7.9375 C 4.945312 -7.9375 5.582031 -7.800781 6.125 -7.53125 C 6.675781 -7.257812 7.101562 -6.828125 7.40625 -6.234375 C 7.71875 -5.640625 7.875 -4.847656 7.875 -3.859375 C 7.875 -2.867188 7.71875 -2.078125 7.40625 -1.484375 C 7.101562 -0.890625 6.675781 -0.457031 6.125 -0.1875 C 5.582031 0.0703125 4.945312 0.203125 4.21875 0.203125 C 3.507812 0.203125 2.878906 0.0703125 2.328125 -0.1875 C 1.773438 -0.457031 1.335938 -0.890625 1.015625 -1.484375 C 0.703125 -2.078125 0.546875 -2.867188 0.546875 -3.859375 C 0.546875 -4.847656 0.703125 -5.640625 1.015625 -6.234375 C 1.335938 -6.828125 1.773438 -7.257812 2.328125 -7.53125 C 2.878906 -7.800781 3.507812 -7.9375 4.21875 -7.9375 Z M 4.21875 -7.640625 C 3.820312 -7.640625 3.488281 -7.34375 3.21875 -6.75 C 2.945312 -6.15625 2.8125 -5.191406 2.8125 -3.859375 C 2.8125 -2.523438 2.945312 -1.5625 3.21875 -0.96875 C 3.488281 -0.382812 3.820312 -0.09375 4.21875 -0.09375 C 4.625 -0.09375 4.957031 -0.382812 5.21875 -0.96875 C 5.488281 -1.5625 5.625 -2.523438 5.625 -3.859375 C 5.625 -5.191406 5.488281 -6.15625 5.21875 -6.75 C 4.957031 -7.34375 4.625 -7.640625 4.21875 -7.640625 Z M 4.21875 -7.640625 "/></g></g></g><g fill="#ffffff" fill-opacity="1"><g transform="translate(214.498289, 79.738018)"><g><path d="M 3.390625 -10.1875 L 3.390625 -7.734375 L 5.15625 -7.734375 L 5.15625 -7.4375 L 3.390625 -7.4375 L 3.390625 -1.390625 C 3.390625 -1.085938 3.441406 -0.875 3.546875 -0.75 C 3.660156 -0.625 3.828125 -0.5625 4.046875 -0.5625 C 4.234375 -0.5625 4.414062 -0.628906 4.59375 -0.765625 C 4.769531 -0.898438 4.925781 -1.132812 5.0625 -1.46875 L 5.328125 -1.328125 C 5.160156 -0.878906 4.914062 -0.507812 4.59375 -0.21875 C 4.269531 0.0625 3.832031 0.203125 3.28125 0.203125 C 2.945312 0.203125 2.65625 0.160156 2.40625 0.078125 C 2.15625 -0.00390625 1.945312 -0.128906 1.78125 -0.296875 C 1.5625 -0.515625 1.414062 -0.785156 1.34375 -1.109375 C 1.269531 -1.429688 1.234375 -1.851562 1.234375 -2.375 L 1.234375 -7.4375 L -0.015625 -7.4375 L -0.015625 -7.734375 L 1.234375 -7.734375 L 1.234375 -9.703125 C 1.660156 -9.703125 2.050781 -9.738281 2.40625 -9.8125 C 2.757812 -9.882812 3.085938 -10.007812 3.390625 -10.1875 Z M 3.390625 -10.1875 "/></g></g></g></svg>