<svg xmlns="http://www.w3.org/2000/svg" xmlns:xlink="http://www.w3.org/1999/xlink" width="500" zoomAndPan="magnify" viewBox="0 0 375 281.25" height="375" preserveAspectRatio="xMidYMid meet" version="1.0"><defs><g/><clipPath id="4cb2f642ee"><path d="M 28.550781 26.179688 L 347 26.179688 L 347 256.027344 L 28.550781 256.027344 Z M 28.550781 26.179688 " clip-rule="nonzero"/></clipPath><clipPath id="a458cc9b22"><path d="M 42.011719 26.179688 L 332.988281 26.179688 C 336.558594 26.179688 339.984375 27.597656 342.507812 30.121094 C 345.03125 32.644531 346.449219 36.070312 346.449219 39.640625 L 346.449219 242.5625 C 346.449219 246.132812 345.03125 249.558594 342.507812 252.082031 C 339.984375 254.609375 336.558594 256.027344 332.988281 256.027344 L 42.011719 256.027344 C 38.441406 256.027344 35.015625 254.609375 32.492188 252.082031 C 29.96875 249.558594 28.550781 246.132812 28.550781 242.5625 L 28.550781 39.640625 C 28.550781 32.207031 34.578125 26.179688 42.011719 26.179688 Z M 42.011719 26.179688 " clip-rule="nonzero"/></clipPath><clipPath id="ca9142c845"><path d="M 0.550781 0.179688 L 318.617188 0.179688 L 318.617188 230.027344 L 0.550781 230.027344 Z M 0.550781 0.179688 " clip-rule="nonzero"/></clipPath><clipPath id="42b27a6f6b"><path d="M 14.011719 0.179688 L 304.988281 0.179688 C 308.558594 0.179688 311.984375 1.597656 314.507812 4.121094 C 317.03125 6.644531 318.449219 10.070312 318.449219 13.640625 L 318.449219 216.5625 C 318.449219 220.132812 317.03125 223.558594 314.507812 226.082031 C 311.984375 228.609375 308.558594 230.027344 304.988281 230.027344 L 14.011719 230.027344 C 10.441406 230.027344 7.015625 228.609375 4.492188 226.082031 C 1.96875 223.558594 0.550781 220.132812 0.550781 216.5625 L 0.550781 13.640625 C 0.550781 6.207031 6.578125 0.179688 14.011719 0.179688 Z M 14.011719 0.179688 " clip-rule="nonzero"/></clipPath><clipPath id="ce2f609ee1"><rect x="0" width="319" y="0" height="231"/></clipPath><clipPath id="f5e3af6cef"><path d="M 162 116 L 259 116 L 259 219 L 162 219 Z M 162 116 " clip-rule="nonzero"/></clipPath><clipPath id="3eb34bce6d"><path d="M 104.140625 104.175781 L 181.359375 59.898438 L 266.191406 207.851562 L 188.972656 252.125 Z M 104.140625 104.175781 " clip-rule="nonzero"/></clipPath><clipPath id="ac14c60922"><path d="M 104.140625 104.175781 L 181.359375 59.898438 L 266.191406 207.851562 L 188.972656 252.125 Z M 104.140625 104.175781 " clip-rule="nonzero"/></clipPath><clipPath id="3f97d3da28"><path d="M 116 78 L 194 78 L 194 142 L 116 142 Z M 116 78 " clip-rule="nonzero"/></clipPath><clipPath id="49501f629f"><path d="M 104.140625 104.175781 L 181.359375 59.898438 L 266.191406 207.851562 L 188.972656 252.125 Z M 104.140625 104.175781 " clip-rule="nonzero"/></clipPath><clipPath id="6c385478b6"><path d="M 104.140625 104.175781 L 181.359375 59.898438 L 266.191406 207.851562 L 188.972656 252.125 Z M 104.140625 104.175781 " clip-rule="nonzero"/></clipPath><clipPath id="d45f1801a7"><path d="M 168 122 L 252 122 L 252 212 L 168 212 Z M 168 122 " clip-rule="nonzero"/></clipPath><clipPath id="3753c119c3"><path d="M 104.140625 104.175781 L 181.359375 59.898438 L 266.191406 207.851562 L 188.972656 252.125 Z M 104.140625 104.175781 " clip-rule="nonzero"/></clipPath><clipPath id="a4490336d7"><path d="M 104.140625 104.175781 L 181.359375 59.898438 L 266.191406 207.851562 L 188.972656 252.125 Z M 104.140625 104.175781 " clip-rule="nonzero"/></clipPath><clipPath id="2d8b2edfc7"><path d="M 119 79 L 183 79 L 183 140 L 119 140 Z M 119 79 " clip-rule="nonzero"/></clipPath><clipPath id="9685f5b6a3"><path d="M 104.140625 104.175781 L 181.359375 59.898438 L 266.191406 207.851562 L 188.972656 252.125 Z M 104.140625 104.175781 " clip-rule="nonzero"/></clipPath><clipPath id="157244a0bb"><path d="M 104.140625 104.175781 L 181.359375 59.898438 L 266.191406 207.851562 L 188.972656 252.125 Z M 104.140625 104.175781 " clip-rule="nonzero"/></clipPath></defs><g clip-path="url(#4cb2f642ee)"><g clip-path="url(#a458cc9b22)"><g transform="matrix(1, 0, 0, 1, 28, 26)"><g clip-path="url(#ce2f609ee1)"><g clip-path="url(#ca9142c845)"><g clip-path="url(#42b27a6f6b)"><path fill="#d3d9dd" d="M 0.550781 0.179688 L 318.386719 0.179688 L 318.386719 230.027344 L 0.550781 230.027344 Z M 0.550781 0.179688 " fill-opacity="1" fill-rule="nonzero"/></g></g></g></g></g></g><g clip-path="url(#f5e3af6cef)"><g clip-path="url(#3eb34bce6d)"><g clip-path="url(#ac14c60922)"><path fill="#1d97bd" d="M 172.25 117.007812 C 172.25 117.007812 239.121094 184.707031 258.863281 199.203125 C 258.863281 199.203125 256.574219 213.636719 241.546875 218.433594 C 227.6875 200.167969 162.066406 127.351562 162.066406 127.351562 C 165.988281 111.621094 172.25 117.007812 172.25 117.007812 Z M 172.25 117.007812 " fill-opacity="1" fill-rule="nonzero"/></g></g></g><g clip-path="url(#3f97d3da28)"><g clip-path="url(#49501f629f)"><g clip-path="url(#6c385478b6)"><path fill="#a0afbc" d="M 116.089844 125.015625 C 116.683594 124.421875 124.875 115.941406 124.875 115.941406 L 129.273438 118.644531 C 135.6875 116.121094 135.390625 109.441406 135.066406 108.4375 C 134.742188 107.433594 164.578125 69.667969 193.542969 80.820312 C 179.867188 82.246094 165.402344 90.539062 165.554688 96.148438 C 165.707031 101.757812 172.277344 116.992188 172.277344 116.992188 C 167.386719 123.363281 163.816406 127.070312 162.066406 127.351562 C 156.449219 124.15625 146.371094 120.667969 146.371094 120.667969 C 141.433594 123.25 139.800781 125.371094 139.933594 127.675781 L 142.1875 131.613281 L 134.785156 141.085938 C 134.800781 141.113281 126.042969 141.121094 116.089844 125.015625 Z M 116.089844 125.015625 " fill-opacity="1" fill-rule="nonzero"/></g></g></g><g clip-path="url(#d45f1801a7)"><g clip-path="url(#3753c119c3)"><g clip-path="url(#a4490336d7)"><path fill="#38b2d8" d="M 196.597656 162.613281 L 196.261719 162.660156 C 194.070312 150.035156 176.105469 129.578125 168.523438 127.109375 L 168.632812 126.796875 C 176.273438 129.304688 194.386719 149.890625 196.597656 162.613281 Z M 251.730469 205.128906 C 224.34375 197.359375 208.226562 171.699219 195.296875 151.097656 C 186.699219 137.421875 179.3125 125.613281 170.738281 122.417969 L 170.628906 122.730469 C 179.078125 125.894531 186.472656 137.660156 194.996094 151.269531 C 207.957031 171.925781 224.109375 197.640625 251.625 205.445312 Z M 251.8125 196.464844 C 221.167969 191.25 203.144531 158.496094 196.835938 144.664062 L 196.546875 144.792969 C 202.886719 158.679688 220.929688 191.53125 251.773438 196.777344 Z M 241.121094 186.625 C 223.003906 181 208.042969 159.871094 206.839844 152.808594 L 206.507812 152.855469 C 207.710938 159.988281 222.769531 181.28125 241.011719 186.9375 Z M 247.394531 211.402344 C 238.167969 207.316406 224.644531 194.230469 224.511719 194.128906 L 224.285156 194.363281 C 224.433594 194.496094 238 207.59375 247.261719 211.730469 Z M 247.394531 211.402344 " fill-opacity="1" fill-rule="nonzero"/></g></g></g><g clip-path="url(#2d8b2edfc7)"><g clip-path="url(#9685f5b6a3)"><g clip-path="url(#157244a0bb)"><path fill="#6c859d" d="M 133.015625 139.070312 C 132.375 138.140625 130.496094 135.683594 127.828125 133.101562 C 125.707031 131.039062 122.5 128.335938 119.292969 127.144531 L 119.523438 126.542969 C 125.894531 128.914062 132.332031 136.867188 133.554688 138.6875 Z M 130.394531 119.15625 L 130.136719 119.773438 C 132.503906 120.757812 139.589844 128.019531 141.113281 131.433594 L 141.714844 131.164062 C 140.105469 127.542969 132.90625 120.203125 130.394531 119.15625 Z M 139.953125 107.90625 C 141.886719 105.175781 147.742188 98.285156 156.089844 91.839844 C 168.085938 82.582031 177.328125 80.273438 183 79.980469 L 182.949219 79.324219 C 172.554688 79.875 162.378906 86.144531 155.707031 91.300781 C 147.386719 97.730469 141.542969 104.578125 139.519531 107.398438 L 136.828125 107.859375 L 136.949219 108.511719 L 139.902344 108.007812 Z M 139.953125 107.90625 " fill-opacity="1" fill-rule="nonzero"/></g></g></g><g fill="#ffffff" fill-opacity="1"><g transform="translate(95.803579, 161.744233)"><g><path d="M 6.46875 -11.515625 C 7.1875 -11.515625 7.773438 -11.410156 8.234375 -11.203125 C 8.691406 -11.003906 9.097656 -10.765625 9.453125 -10.484375 C 9.585938 -10.390625 9.695312 -10.34375 9.78125 -10.34375 C 9.976562 -10.34375 10.109375 -10.660156 10.171875 -11.296875 L 10.546875 -11.296875 C 10.523438 -10.878906 10.507812 -10.375 10.5 -9.78125 C 10.488281 -9.195312 10.484375 -8.414062 10.484375 -7.4375 L 10.109375 -7.4375 C 10.035156 -8.070312 9.921875 -8.625 9.765625 -9.09375 C 9.617188 -9.570312 9.335938 -9.984375 8.921875 -10.328125 C 8.660156 -10.566406 8.34375 -10.753906 7.96875 -10.890625 C 7.59375 -11.035156 7.210938 -11.109375 6.828125 -11.109375 C 6.242188 -11.109375 5.742188 -10.953125 5.328125 -10.640625 C 4.910156 -10.335938 4.566406 -9.925781 4.296875 -9.40625 C 4.035156 -8.882812 3.84375 -8.296875 3.71875 -7.640625 C 3.59375 -6.992188 3.53125 -6.316406 3.53125 -5.609375 C 3.53125 -3.703125 3.789062 -2.304688 4.3125 -1.421875 C 4.84375 -0.535156 5.601562 -0.09375 6.59375 -0.09375 C 6.84375 -0.09375 7.0625 -0.125 7.25 -0.1875 C 7.445312 -0.25 7.601562 -0.328125 7.71875 -0.421875 C 7.863281 -0.523438 7.960938 -0.632812 8.015625 -0.75 C 8.078125 -0.875 8.109375 -1.039062 8.109375 -1.25 L 8.109375 -2.8125 C 8.109375 -3.300781 8.066406 -3.664062 7.984375 -3.90625 C 7.898438 -4.144531 7.738281 -4.304688 7.5 -4.390625 C 7.269531 -4.472656 6.9375 -4.519531 6.5 -4.53125 L 6.5 -4.84375 C 6.71875 -4.832031 6.984375 -4.820312 7.296875 -4.8125 C 7.609375 -4.8125 7.9375 -4.804688 8.28125 -4.796875 C 8.625 -4.796875 8.9375 -4.796875 9.21875 -4.796875 C 9.664062 -4.796875 10.070312 -4.800781 10.4375 -4.8125 C 10.8125 -4.820312 11.117188 -4.832031 11.359375 -4.84375 L 11.359375 -4.53125 C 11.160156 -4.519531 11.007812 -4.484375 10.90625 -4.421875 C 10.800781 -4.359375 10.726562 -4.226562 10.6875 -4.03125 C 10.65625 -3.84375 10.640625 -3.550781 10.640625 -3.15625 L 10.640625 0 L 10.328125 0 C 10.316406 -0.175781 10.273438 -0.367188 10.203125 -0.578125 C 10.128906 -0.796875 10.015625 -0.90625 9.859375 -0.90625 C 9.785156 -0.90625 9.6875 -0.882812 9.5625 -0.84375 C 9.4375 -0.8125 9.25 -0.722656 9 -0.578125 C 8.601562 -0.347656 8.1875 -0.15625 7.75 0 C 7.3125 0.144531 6.851562 0.21875 6.375 0.21875 C 5.144531 0.21875 4.101562 -0.0078125 3.25 -0.46875 C 2.40625 -0.925781 1.765625 -1.582031 1.328125 -2.4375 C 0.898438 -3.289062 0.6875 -4.316406 0.6875 -5.515625 C 0.6875 -6.734375 0.929688 -7.785156 1.421875 -8.671875 C 1.921875 -9.566406 2.601562 -10.265625 3.46875 -10.765625 C 4.332031 -11.265625 5.332031 -11.515625 6.46875 -11.515625 Z M 6.46875 -11.515625 "/></g></g></g><g fill="#ffffff" fill-opacity="1"><g transform="translate(107.529489, 161.744233)"><g><path d="M 8.328125 -8.421875 L 8.328125 -1.734375 C 8.328125 -1.253906 8.398438 -0.898438 8.546875 -0.671875 C 8.703125 -0.441406 8.96875 -0.328125 9.34375 -0.328125 L 9.34375 0 C 9.019531 -0.03125 8.691406 -0.046875 8.359375 -0.046875 C 7.910156 -0.046875 7.492188 -0.03125 7.109375 0 C 6.734375 0.03125 6.375 0.0859375 6.03125 0.171875 L 6.03125 -1.265625 C 5.769531 -0.734375 5.414062 -0.351562 4.96875 -0.125 C 4.519531 0.101562 4.019531 0.21875 3.46875 0.21875 C 3.019531 0.21875 2.65625 0.160156 2.375 0.046875 C 2.101562 -0.0664062 1.882812 -0.21875 1.71875 -0.40625 C 1.539062 -0.601562 1.414062 -0.863281 1.34375 -1.1875 C 1.269531 -1.519531 1.234375 -1.945312 1.234375 -2.46875 L 1.234375 -6.515625 C 1.234375 -6.992188 1.160156 -7.34375 1.015625 -7.5625 C 0.867188 -7.789062 0.597656 -7.90625 0.203125 -7.90625 L 0.203125 -8.25 C 0.546875 -8.21875 0.878906 -8.203125 1.203125 -8.203125 C 1.640625 -8.203125 2.050781 -8.21875 2.4375 -8.25 C 2.832031 -8.289062 3.195312 -8.347656 3.53125 -8.421875 L 3.53125 -1.8125 C 3.53125 -1.550781 3.550781 -1.316406 3.59375 -1.109375 C 3.644531 -0.910156 3.738281 -0.753906 3.875 -0.640625 C 4.007812 -0.535156 4.210938 -0.484375 4.484375 -0.484375 C 4.765625 -0.484375 5.019531 -0.5625 5.25 -0.71875 C 5.476562 -0.875 5.664062 -1.09375 5.8125 -1.375 C 5.957031 -1.65625 6.03125 -1.972656 6.03125 -2.328125 L 6.03125 -6.515625 C 6.03125 -6.992188 5.957031 -7.34375 5.8125 -7.5625 C 5.664062 -7.789062 5.398438 -7.90625 5.015625 -7.90625 L 5.015625 -8.25 C 5.347656 -8.21875 5.675781 -8.203125 6 -8.203125 C 6.445312 -8.203125 6.863281 -8.21875 7.25 -8.25 C 7.632812 -8.289062 7.992188 -8.347656 8.328125 -8.421875 Z M 8.328125 -8.421875 "/></g></g></g><g fill="#ffffff" fill-opacity="1"><g transform="translate(117.19738, 161.744233)"><g><path d="M 6.171875 -8.46875 C 6.617188 -8.46875 6.976562 -8.410156 7.25 -8.296875 C 7.53125 -8.191406 7.753906 -8.039062 7.921875 -7.84375 C 8.097656 -7.644531 8.222656 -7.382812 8.296875 -7.0625 C 8.367188 -6.738281 8.40625 -6.3125 8.40625 -5.78125 L 8.40625 -1.484375 C 8.40625 -1.035156 8.472656 -0.726562 8.609375 -0.5625 C 8.753906 -0.40625 8.992188 -0.328125 9.328125 -0.328125 L 9.328125 0 C 9.140625 -0.0078125 8.847656 -0.0195312 8.453125 -0.03125 C 8.066406 -0.0507812 7.691406 -0.0625 7.328125 -0.0625 C 6.941406 -0.0625 6.5625 -0.0507812 6.1875 -0.03125 C 5.8125 -0.0195312 5.53125 -0.0078125 5.34375 0 L 5.34375 -0.328125 C 5.632812 -0.328125 5.832031 -0.40625 5.9375 -0.5625 C 6.050781 -0.726562 6.109375 -1.035156 6.109375 -1.484375 L 6.109375 -6.4375 C 6.109375 -6.707031 6.085938 -6.941406 6.046875 -7.140625 C 6.003906 -7.335938 5.921875 -7.488281 5.796875 -7.59375 C 5.671875 -7.707031 5.488281 -7.765625 5.25 -7.765625 C 4.96875 -7.765625 4.707031 -7.6875 4.46875 -7.53125 C 4.238281 -7.375 4.050781 -7.148438 3.90625 -6.859375 C 3.769531 -6.578125 3.703125 -6.265625 3.703125 -5.921875 L 3.703125 -1.484375 C 3.703125 -1.035156 3.757812 -0.726562 3.875 -0.5625 C 3.988281 -0.40625 4.1875 -0.328125 4.46875 -0.328125 L 4.46875 0 C 4.300781 -0.0078125 4.035156 -0.0195312 3.671875 -0.03125 C 3.316406 -0.0507812 2.953125 -0.0625 2.578125 -0.0625 C 2.179688 -0.0625 1.769531 -0.0507812 1.34375 -0.03125 C 0.914062 -0.0195312 0.597656 -0.0078125 0.390625 0 L 0.390625 -0.328125 C 0.753906 -0.328125 1.015625 -0.40625 1.171875 -0.5625 C 1.328125 -0.726562 1.40625 -1.035156 1.40625 -1.484375 L 1.40625 -6.515625 C 1.40625 -6.992188 1.332031 -7.34375 1.1875 -7.5625 C 1.039062 -7.789062 0.773438 -7.90625 0.390625 -7.90625 L 0.390625 -8.25 C 0.722656 -8.21875 1.050781 -8.203125 1.375 -8.203125 C 1.820312 -8.203125 2.238281 -8.21875 2.625 -8.25 C 3.007812 -8.289062 3.367188 -8.347656 3.703125 -8.421875 L 3.703125 -6.984375 C 3.953125 -7.515625 4.296875 -7.894531 4.734375 -8.125 C 5.171875 -8.351562 5.648438 -8.46875 6.171875 -8.46875 Z M 10.96875 -8.46875 C 11.414062 -8.46875 11.773438 -8.410156 12.046875 -8.296875 C 12.328125 -8.191406 12.554688 -8.039062 12.734375 -7.84375 C 12.898438 -7.644531 13.019531 -7.382812 13.09375 -7.0625 C 13.164062 -6.738281 13.203125 -6.3125 13.203125 -5.78125 L 13.203125 -1.484375 C 13.203125 -1.035156 13.28125 -0.726562 13.4375 -0.5625 C 13.59375 -0.40625 13.859375 -0.328125 14.234375 -0.328125 L 14.234375 0 C 14.023438 -0.0078125 13.71875 -0.0195312 13.3125 -0.03125 C 12.914062 -0.0507812 12.519531 -0.0625 12.125 -0.0625 C 11.738281 -0.0625 11.359375 -0.0507812 10.984375 -0.03125 C 10.617188 -0.0195312 10.335938 -0.0078125 10.140625 0 L 10.140625 -0.328125 C 10.429688 -0.328125 10.628906 -0.40625 10.734375 -0.5625 C 10.847656 -0.726562 10.90625 -1.035156 10.90625 -1.484375 L 10.90625 -6.4375 C 10.90625 -6.707031 10.878906 -6.941406 10.828125 -7.140625 C 10.785156 -7.335938 10.695312 -7.488281 10.5625 -7.59375 C 10.4375 -7.707031 10.234375 -7.765625 9.953125 -7.765625 C 9.679688 -7.765625 9.425781 -7.679688 9.1875 -7.515625 C 8.957031 -7.347656 8.769531 -7.117188 8.625 -6.828125 C 8.476562 -6.535156 8.398438 -6.21875 8.390625 -5.875 L 8.3125 -6.84375 C 8.601562 -7.476562 8.984375 -7.90625 9.453125 -8.125 C 9.921875 -8.351562 10.425781 -8.46875 10.96875 -8.46875 Z M 10.96875 -8.46875 "/></g></g></g><g fill="#ffffff" fill-opacity="1"><g transform="translate(131.635402, 161.744233)"><g><path d="M 5.859375 -8.46875 C 6.679688 -8.46875 7.367188 -8.128906 7.921875 -7.453125 C 8.472656 -6.773438 8.75 -5.738281 8.75 -4.34375 C 8.75 -3.238281 8.578125 -2.347656 8.234375 -1.671875 C 7.898438 -1.003906 7.457031 -0.519531 6.90625 -0.21875 C 6.351562 0.0703125 5.75 0.21875 5.09375 0.21875 C 4.65625 0.21875 4.25 0.144531 3.875 0 C 3.5 -0.144531 3.179688 -0.390625 2.921875 -0.734375 L 3.140625 -0.8125 C 3.335938 -0.582031 3.566406 -0.40625 3.828125 -0.28125 C 4.085938 -0.164062 4.34375 -0.109375 4.59375 -0.109375 C 5.175781 -0.109375 5.609375 -0.4375 5.890625 -1.09375 C 6.179688 -1.757812 6.328125 -2.765625 6.328125 -4.109375 C 6.328125 -5.023438 6.269531 -5.75 6.15625 -6.28125 C 6.050781 -6.820312 5.890625 -7.207031 5.671875 -7.4375 C 5.460938 -7.664062 5.207031 -7.78125 4.90625 -7.78125 C 4.539062 -7.78125 4.203125 -7.628906 3.890625 -7.328125 C 3.585938 -7.023438 3.410156 -6.601562 3.359375 -6.0625 L 3.28125 -6.625 C 3.476562 -7.226562 3.804688 -7.6875 4.265625 -8 C 4.722656 -8.3125 5.253906 -8.46875 5.859375 -8.46875 Z M 3.40625 -12.46875 L 3.40625 -0.3125 C 3.144531 -0.363281 2.875 -0.363281 2.59375 -0.3125 C 2.320312 -0.269531 2.066406 -0.195312 1.828125 -0.09375 C 1.597656 0 1.40625 0.113281 1.25 0.25 L 1 0.109375 C 1.039062 -0.0351562 1.066406 -0.179688 1.078125 -0.328125 C 1.097656 -0.484375 1.109375 -0.632812 1.109375 -0.78125 L 1.109375 -10.5625 C 1.109375 -11.039062 1.035156 -11.394531 0.890625 -11.625 C 0.753906 -11.851562 0.488281 -11.96875 0.09375 -11.96875 L 0.09375 -12.296875 C 0.4375 -12.265625 0.765625 -12.25 1.078125 -12.25 C 1.515625 -12.25 1.929688 -12.265625 2.328125 -12.296875 C 2.722656 -12.335938 3.082031 -12.394531 3.40625 -12.46875 Z M 3.40625 -12.46875 "/></g></g></g><g fill="#ffffff" fill-opacity="1"><g transform="translate(140.984224, 161.744233)"><g><path d="M 4.5 -8.46875 C 5.269531 -8.46875 5.945312 -8.320312 6.53125 -8.03125 C 7.125 -7.75 7.582031 -7.285156 7.90625 -6.640625 C 8.238281 -6.003906 8.40625 -5.160156 8.40625 -4.109375 C 8.40625 -3.054688 8.238281 -2.210938 7.90625 -1.578125 C 7.582031 -0.953125 7.125 -0.492188 6.53125 -0.203125 C 5.945312 0.078125 5.269531 0.21875 4.5 0.21875 C 3.738281 0.21875 3.0625 0.078125 2.46875 -0.203125 C 1.882812 -0.492188 1.425781 -0.953125 1.09375 -1.578125 C 0.757812 -2.210938 0.59375 -3.054688 0.59375 -4.109375 C 0.59375 -5.160156 0.757812 -6.003906 1.09375 -6.640625 C 1.425781 -7.285156 1.882812 -7.75 2.46875 -8.03125 C 3.0625 -8.320312 3.738281 -8.46875 4.5 -8.46875 Z M 4.5 -8.15625 C 4.070312 -8.15625 3.710938 -7.835938 3.421875 -7.203125 C 3.140625 -6.566406 3 -5.535156 3 -4.109375 C 3 -2.691406 3.140625 -1.664062 3.421875 -1.03125 C 3.710938 -0.40625 4.070312 -0.09375 4.5 -0.09375 C 4.9375 -0.09375 5.296875 -0.40625 5.578125 -1.03125 C 5.859375 -1.664062 6 -2.691406 6 -4.109375 C 6 -5.535156 5.859375 -6.566406 5.578125 -7.203125 C 5.296875 -7.835938 4.9375 -8.15625 4.5 -8.15625 Z M 4.5 -8.15625 "/></g></g></g><g fill="#ffffff" fill-opacity="1"><g transform="translate(149.998021, 161.744233)"><g><path d="M 4.5 -8.46875 C 5.269531 -8.46875 5.945312 -8.320312 6.53125 -8.03125 C 7.125 -7.75 7.582031 -7.285156 7.90625 -6.640625 C 8.238281 -6.003906 8.40625 -5.160156 8.40625 -4.109375 C 8.40625 -3.054688 8.238281 -2.210938 7.90625 -1.578125 C 7.582031 -0.953125 7.125 -0.492188 6.53125 -0.203125 C 5.945312 0.078125 5.269531 0.21875 4.5 0.21875 C 3.738281 0.21875 3.0625 0.078125 2.46875 -0.203125 C 1.882812 -0.492188 1.425781 -0.953125 1.09375 -1.578125 C 0.757812 -2.210938 0.59375 -3.054688 0.59375 -4.109375 C 0.59375 -5.160156 0.757812 -6.003906 1.09375 -6.640625 C 1.425781 -7.285156 1.882812 -7.75 2.46875 -8.03125 C 3.0625 -8.320312 3.738281 -8.46875 4.5 -8.46875 Z M 4.5 -8.15625 C 4.070312 -8.15625 3.710938 -7.835938 3.421875 -7.203125 C 3.140625 -6.566406 3 -5.535156 3 -4.109375 C 3 -2.691406 3.140625 -1.664062 3.421875 -1.03125 C 3.710938 -0.40625 4.070312 -0.09375 4.5 -0.09375 C 4.9375 -0.09375 5.296875 -0.40625 5.578125 -1.03125 C 5.859375 -1.664062 6 -2.691406 6 -4.109375 C 6 -5.535156 5.859375 -6.566406 5.578125 -7.203125 C 5.296875 -7.835938 4.9375 -8.15625 4.5 -8.15625 Z M 4.5 -8.15625 "/></g></g></g><g fill="#ffffff" fill-opacity="1"><g transform="translate(159.011818, 161.744233)"><g><path d="M 3.625 -10.859375 L 3.625 -8.25 L 5.5 -8.25 L 5.5 -7.921875 L 3.625 -7.921875 L 3.625 -1.484375 C 3.625 -1.160156 3.679688 -0.929688 3.796875 -0.796875 C 3.910156 -0.671875 4.085938 -0.609375 4.328125 -0.609375 C 4.515625 -0.609375 4.703125 -0.675781 4.890625 -0.8125 C 5.085938 -0.957031 5.257812 -1.207031 5.40625 -1.5625 L 5.671875 -1.421875 C 5.503906 -0.941406 5.25 -0.546875 4.90625 -0.234375 C 4.5625 0.0664062 4.09375 0.21875 3.5 0.21875 C 3.144531 0.21875 2.832031 0.171875 2.5625 0.078125 C 2.300781 -0.00390625 2.078125 -0.132812 1.890625 -0.3125 C 1.660156 -0.550781 1.507812 -0.84375 1.4375 -1.1875 C 1.363281 -1.53125 1.328125 -1.976562 1.328125 -2.53125 L 1.328125 -7.921875 L -0.015625 -7.921875 L -0.015625 -8.25 L 1.328125 -8.25 L 1.328125 -10.359375 C 1.773438 -10.359375 2.1875 -10.394531 2.5625 -10.46875 C 2.9375 -10.550781 3.289062 -10.679688 3.625 -10.859375 Z M 3.625 -10.859375 "/></g></g></g></svg>