<svg xmlns="http://www.w3.org/2000/svg" xmlns:xlink="http://www.w3.org/1999/xlink" width="500" zoomAndPan="magnify" viewBox="0 0 375 281.25" height="375" preserveAspectRatio="xMidYMid meet" version="1.0"><defs><g/><clipPath id="19d38901e9"><path d="M 28.550781 26.179688 L 347 26.179688 L 347 256.027344 L 28.550781 256.027344 Z M 28.550781 26.179688 " clip-rule="nonzero"/></clipPath><clipPath id="27c0fc3c1e"><path d="M 42.011719 26.179688 L 332.988281 26.179688 C 336.558594 26.179688 339.984375 27.597656 342.507812 30.121094 C 345.03125 32.644531 346.449219 36.070312 346.449219 39.640625 L 346.449219 242.5625 C 346.449219 246.132812 345.03125 249.558594 342.507812 252.082031 C 339.984375 254.609375 336.558594 256.027344 332.988281 256.027344 L 42.011719 256.027344 C 38.441406 256.027344 35.015625 254.609375 32.492188 252.082031 C 29.96875 249.558594 28.550781 246.132812 28.550781 242.5625 L 28.550781 39.640625 C 28.550781 32.207031 34.578125 26.179688 42.011719 26.179688 Z M 42.011719 26.179688 " clip-rule="nonzero"/></clipPath><clipPath id="397729e6c2"><path d="M 0.550781 0.179688 L 318.617188 0.179688 L 318.617188 230.027344 L 0.550781 230.027344 Z M 0.550781 0.179688 " clip-rule="nonzero"/></clipPath><clipPath id="76a3c97a22"><path d="M 14.011719 0.179688 L 304.988281 0.179688 C 308.558594 0.179688 311.984375 1.597656 314.507812 4.121094 C 317.03125 6.644531 318.449219 10.070312 318.449219 13.640625 L 318.449219 216.5625 C 318.449219 220.132812 317.03125 223.558594 314.507812 226.082031 C 311.984375 228.609375 308.558594 230.027344 304.988281 230.027344 L 14.011719 230.027344 C 10.441406 230.027344 7.015625 228.609375 4.492188 226.082031 C 1.96875 223.558594 0.550781 220.132812 0.550781 216.5625 L 0.550781 13.640625 C 0.550781 6.207031 6.578125 0.179688 14.011719 0.179688 Z M 14.011719 0.179688 " clip-rule="nonzero"/></clipPath><clipPath id="3950499c2d"><rect x="0" width="319" y="0" height="231"/></clipPath><clipPath id="fd9f9f6c6c"><path d="M 177 193 L 220 193 L 220 238 L 177 238 Z M 177 193 " clip-rule="nonzero"/></clipPath><clipPath id="d76562a9b9"><path d="M 152.351562 188.261719 L 186.09375 168.914062 L 222.929688 233.152344 L 189.1875 252.5 Z M 152.351562 188.261719 " clip-rule="nonzero"/></clipPath><clipPath id="9cd9d5b67c"><path d="M 152.351562 188.261719 L 186.09375 168.914062 L 222.929688 233.152344 L 189.1875 252.5 Z M 152.351562 188.261719 " clip-rule="nonzero"/></clipPath><clipPath id="859daa0d0d"><path d="M 157 177 L 192 177 L 192 205 L 157 205 Z M 157 177 " clip-rule="nonzero"/></clipPath><clipPath id="e7f1c466f1"><path d="M 152.351562 188.261719 L 186.09375 168.914062 L 222.929688 233.152344 L 189.1875 252.5 Z M 152.351562 188.261719 " clip-rule="nonzero"/></clipPath><clipPath id="056b901b1b"><path d="M 152.351562 188.261719 L 186.09375 168.914062 L 222.929688 233.152344 L 189.1875 252.5 Z M 152.351562 188.261719 " clip-rule="nonzero"/></clipPath><clipPath id="5ccd1a3ad8"><path d="M 180 196 L 217 196 L 217 235 L 180 235 Z M 180 196 " clip-rule="nonzero"/></clipPath><clipPath id="a51ba008bf"><path d="M 152.351562 188.261719 L 186.09375 168.914062 L 222.929688 233.152344 L 189.1875 252.5 Z M 152.351562 188.261719 " clip-rule="nonzero"/></clipPath><clipPath id="80c7dbc660"><path d="M 152.351562 188.261719 L 186.09375 168.914062 L 222.929688 233.152344 L 189.1875 252.5 Z M 152.351562 188.261719 " clip-rule="nonzero"/></clipPath><clipPath id="5913aba940"><path d="M 158 177 L 187 177 L 187 204 L 158 204 Z M 158 177 " clip-rule="nonzero"/></clipPath><clipPath id="1ceada22e4"><path d="M 152.351562 188.261719 L 186.09375 168.914062 L 222.929688 233.152344 L 189.1875 252.5 Z M 152.351562 188.261719 " clip-rule="nonzero"/></clipPath><clipPath id="f7fa44b456"><path d="M 152.351562 188.261719 L 186.09375 168.914062 L 222.929688 233.152344 L 189.1875 252.5 Z M 152.351562 188.261719 " clip-rule="nonzero"/></clipPath><clipPath id="7c5b351106"><rect x="0" width="115" y="0" height="36"/></clipPath></defs><g clip-path="url(#19d38901e9)"><g clip-path="url(#27c0fc3c1e)"><g transform="matrix(1, 0, 0, 1, 28, 26)"><g clip-path="url(#3950499c2d)"><g clip-path="url(#397729e6c2)"><g clip-path="url(#76a3c97a22)"><path fill="#d3d9dd" d="M 0.550781 0.179688 L 318.386719 0.179688 L 318.386719 230.027344 L 0.550781 230.027344 Z M 0.550781 0.179688 " fill-opacity="1" fill-rule="nonzero"/></g></g></g></g></g></g><g clip-path="url(#fd9f9f6c6c)"><g clip-path="url(#d76562a9b9)"><g clip-path="url(#9cd9d5b67c)"><path fill="#1d97bd" d="M 181.835938 193.8125 C 181.835938 193.8125 210.785156 223.121094 219.328125 229.394531 C 219.328125 229.394531 218.339844 235.644531 211.835938 237.71875 C 205.835938 229.8125 177.425781 198.292969 177.425781 198.292969 C 179.125 191.480469 181.835938 193.8125 181.835938 193.8125 Z M 181.835938 193.8125 " fill-opacity="1" fill-rule="nonzero"/></g></g></g><g clip-path="url(#859daa0d0d)"><g clip-path="url(#e7f1c466f1)"><g clip-path="url(#056b901b1b)"><path fill="#a0afbc" d="M 157.523438 197.28125 C 157.78125 197.023438 161.328125 193.351562 161.328125 193.351562 L 163.230469 194.523438 C 166.007812 193.429688 165.878906 190.539062 165.738281 190.105469 C 165.597656 189.667969 178.515625 173.320312 191.054688 178.148438 C 185.132812 178.765625 178.871094 182.355469 178.9375 184.785156 C 179.003906 187.210938 181.847656 193.808594 181.847656 193.808594 C 179.730469 196.566406 178.183594 198.171875 177.425781 198.292969 C 174.996094 196.910156 170.632812 195.398438 170.632812 195.398438 C 168.496094 196.515625 167.789062 197.433594 167.847656 198.433594 L 168.824219 200.136719 L 165.617188 204.238281 C 165.625 204.25 161.832031 204.253906 157.523438 197.28125 Z M 157.523438 197.28125 " fill-opacity="1" fill-rule="nonzero"/></g></g></g><g clip-path="url(#5ccd1a3ad8)"><g clip-path="url(#a51ba008bf)"><g clip-path="url(#80c7dbc660)"><path fill="#38b2d8" d="M 192.375 213.554688 L 192.230469 213.574219 C 191.28125 208.109375 183.503906 199.257812 180.222656 198.1875 L 180.269531 198.050781 C 183.578125 199.136719 191.417969 208.046875 192.375 213.554688 Z M 216.242188 231.960938 C 204.386719 228.597656 197.410156 217.488281 191.8125 208.570312 C 188.089844 202.652344 184.894531 197.539062 181.179688 196.15625 L 181.132812 196.292969 C 184.792969 197.660156 187.992188 202.753906 191.683594 208.644531 C 197.292969 217.585938 204.285156 228.71875 216.195312 232.097656 Z M 216.277344 228.210938 C 203.011719 225.953125 195.210938 211.773438 192.476562 205.785156 L 192.355469 205.839844 C 195.097656 211.855469 202.910156 226.074219 216.261719 228.34375 Z M 211.648438 223.949219 C 203.808594 221.515625 197.332031 212.371094 196.808594 209.3125 L 196.664062 209.332031 C 197.1875 212.417969 203.707031 221.636719 211.601562 224.085938 Z M 214.367188 234.675781 C 210.371094 232.910156 204.515625 227.242188 204.460938 227.199219 L 204.363281 227.300781 C 204.425781 227.359375 210.300781 233.027344 214.308594 234.820312 Z M 214.367188 234.675781 " fill-opacity="1" fill-rule="nonzero"/></g></g></g><g clip-path="url(#5913aba940)"><g clip-path="url(#1ceada22e4)"><g clip-path="url(#f7fa44b456)"><path fill="#6c859d" d="M 164.851562 203.363281 C 164.574219 202.960938 163.761719 201.898438 162.605469 200.78125 C 161.6875 199.886719 160.300781 198.71875 158.910156 198.203125 L 159.011719 197.941406 C 161.769531 198.96875 164.554688 202.410156 165.085938 203.199219 Z M 163.71875 194.742188 L 163.605469 195.011719 C 164.628906 195.4375 167.695312 198.582031 168.355469 200.058594 L 168.617188 199.941406 C 167.921875 198.375 164.804688 195.199219 163.71875 194.742188 Z M 167.855469 189.875 C 168.691406 188.691406 171.226562 185.707031 174.839844 182.917969 C 180.035156 178.910156 184.035156 177.914062 186.488281 177.785156 L 186.46875 177.5 C 181.96875 177.738281 177.5625 180.453125 174.675781 182.6875 C 171.074219 185.46875 168.542969 188.433594 167.667969 189.652344 L 166.5 189.855469 L 166.554688 190.136719 L 167.832031 189.917969 Z M 167.855469 189.875 " fill-opacity="1" fill-rule="nonzero"/></g></g></g><g transform="matrix(1, 0, 0, 1, 135, 59)"><g clip-path="url(#7c5b351106)"><g fill="#000000" fill-opacity="1"><g transform="translate(0.0446751, 24.646627)"><g><path d="M 8.765625 -2.71875 C 9.398438 -2.71875 9.992188 -2.800781 10.546875 -2.96875 C 11.097656 -3.144531 11.582031 -3.394531 12 -3.71875 C 12.425781 -4.050781 12.757812 -4.46875 13 -4.96875 C 13.238281 -5.46875 13.359375 -6.0625 13.359375 -6.75 C 13.359375 -7.5 13.234375 -8.144531 12.984375 -8.6875 C 12.734375 -9.226562 12.382812 -9.675781 11.9375 -10.03125 C 11.5 -10.382812 10.976562 -10.640625 10.375 -10.796875 C 9.769531 -10.960938 9.117188 -11.046875 8.421875 -11.046875 L 6.140625 -11.046875 L 6.140625 -2.71875 Z M 8.28125 -13.765625 C 9.457031 -13.765625 10.410156 -14.03125 11.140625 -14.5625 C 11.867188 -15.101562 12.234375 -16.019531 12.234375 -17.3125 C 12.234375 -18.039062 12.128906 -18.628906 11.921875 -19.078125 C 11.722656 -19.535156 11.441406 -19.890625 11.078125 -20.140625 C 10.710938 -20.390625 10.273438 -20.554688 9.765625 -20.640625 C 9.253906 -20.734375 8.691406 -20.78125 8.078125 -20.78125 L 6.140625 -20.78125 L 6.140625 -13.765625 Z M 2.71875 0 L 2.71875 -23.515625 L 9.5 -23.515625 C 10.363281 -23.515625 11.171875 -23.398438 11.921875 -23.171875 C 12.671875 -22.941406 13.316406 -22.59375 13.859375 -22.125 C 14.410156 -21.664062 14.84375 -21.082031 15.15625 -20.375 C 15.476562 -19.675781 15.640625 -18.859375 15.640625 -17.921875 C 15.640625 -15.265625 14.425781 -13.472656 12 -12.546875 L 12 -12.46875 C 13.613281 -12.238281 14.8125 -11.566406 15.59375 -10.453125 C 16.375 -9.347656 16.765625 -8.007812 16.765625 -6.4375 C 16.765625 -5.238281 16.570312 -4.222656 16.1875 -3.390625 C 15.800781 -2.554688 15.269531 -1.890625 14.59375 -1.390625 C 13.925781 -0.890625 13.132812 -0.53125 12.21875 -0.3125 C 11.300781 -0.101562 10.304688 0 9.234375 0 Z M 2.71875 0 "/></g></g></g><g fill="#000000" fill-opacity="1"><g transform="translate(18.342247, 24.646627)"><g><path d="M 11.921875 0 L 11.921875 -3.46875 L 11.859375 -3.46875 C 11.453125 -2.3125 10.816406 -1.378906 9.953125 -0.671875 C 9.085938 0.0234375 8.007812 0.375 6.71875 0.375 C 5.894531 0.375 5.203125 0.226562 4.640625 -0.0625 C 4.085938 -0.363281 3.640625 -0.753906 3.296875 -1.234375 C 2.960938 -1.722656 2.71875 -2.289062 2.5625 -2.9375 C 2.414062 -3.59375 2.34375 -4.269531 2.34375 -4.96875 L 2.34375 -16.21875 L 5.421875 -16.21875 L 5.421875 -7.359375 C 5.421875 -7.015625 5.421875 -6.675781 5.421875 -6.34375 C 5.421875 -6.019531 5.429688 -5.6875 5.453125 -5.34375 C 5.492188 -4.570312 5.648438 -3.9375 5.921875 -3.4375 C 6.203125 -2.9375 6.773438 -2.6875 7.640625 -2.6875 C 8.390625 -2.6875 9.035156 -2.921875 9.578125 -3.390625 C 10.117188 -3.859375 10.5625 -4.429688 10.90625 -5.109375 C 11.25 -5.796875 11.503906 -6.523438 11.671875 -7.296875 C 11.835938 -8.066406 11.921875 -8.75 11.921875 -9.34375 L 11.921875 -16.21875 L 15 -16.21875 L 15 0 Z M 11.921875 0 "/></g></g></g><g fill="#000000" fill-opacity="1"><g transform="translate(36.026492, 24.646627)"><g><path d="M 2.859375 0 L 2.859375 -16.21875 L 5.921875 -16.21875 L 5.921875 0 Z M 2.5625 -20.03125 L 2.5625 -23.515625 L 6.234375 -23.515625 L 6.234375 -20.03125 Z M 2.5625 -20.03125 "/></g></g></g><g fill="#000000" fill-opacity="1"><g transform="translate(44.85158, 24.646627)"><g><path d="M 2.859375 0 L 2.859375 -23.515625 L 5.921875 -23.515625 L 5.921875 0 Z M 2.859375 0 "/></g></g></g><g fill="#000000" fill-opacity="1"><g transform="translate(53.676669, 24.646627)"><g><path d="M 7.96875 -2.015625 C 8.65625 -2.015625 9.222656 -2.234375 9.671875 -2.671875 C 10.128906 -3.117188 10.492188 -3.660156 10.765625 -4.296875 C 11.035156 -4.929688 11.222656 -5.597656 11.328125 -6.296875 C 11.429688 -7.003906 11.484375 -7.617188 11.484375 -8.140625 C 11.484375 -8.710938 11.4375 -9.347656 11.34375 -10.046875 C 11.257812 -10.753906 11.082031 -11.414062 10.8125 -12.03125 C 10.550781 -12.644531 10.1875 -13.160156 9.71875 -13.578125 C 9.257812 -13.992188 8.664062 -14.203125 7.9375 -14.203125 C 7.207031 -14.203125 6.632812 -13.976562 6.21875 -13.53125 C 5.800781 -13.09375 5.484375 -12.5625 5.265625 -11.9375 C 5.046875 -11.3125 4.90625 -10.644531 4.84375 -9.9375 C 4.789062 -9.238281 4.765625 -8.628906 4.765625 -8.109375 C 4.765625 -7.566406 4.789062 -6.945312 4.84375 -6.25 C 4.90625 -5.5625 5.046875 -4.898438 5.265625 -4.265625 C 5.484375 -3.628906 5.800781 -3.09375 6.21875 -2.65625 C 6.632812 -2.226562 7.21875 -2.015625 7.96875 -2.015625 Z M 11.484375 0 L 11.484375 -2.484375 L 11.421875 -2.484375 C 11.253906 -2.035156 11.007812 -1.628906 10.6875 -1.265625 C 10.375 -0.898438 10.015625 -0.597656 9.609375 -0.359375 C 9.203125 -0.117188 8.765625 0.0625 8.296875 0.1875 C 7.828125 0.3125 7.367188 0.375 6.921875 0.375 C 5.785156 0.375 4.859375 0.117188 4.140625 -0.390625 C 3.421875 -0.898438 2.859375 -1.550781 2.453125 -2.34375 C 2.046875 -3.144531 1.757812 -4.023438 1.59375 -4.984375 C 1.4375 -5.953125 1.359375 -6.90625 1.359375 -7.84375 C 1.359375 -8.75 1.4375 -9.71875 1.59375 -10.75 C 1.757812 -11.78125 2.054688 -12.726562 2.484375 -13.59375 C 2.921875 -14.457031 3.503906 -15.171875 4.234375 -15.734375 C 4.972656 -16.304688 5.925781 -16.59375 7.09375 -16.59375 C 7.519531 -16.59375 7.957031 -16.535156 8.40625 -16.421875 C 8.863281 -16.304688 9.285156 -16.140625 9.671875 -15.921875 C 10.054688 -15.710938 10.398438 -15.441406 10.703125 -15.109375 C 11.015625 -14.785156 11.253906 -14.40625 11.421875 -13.96875 L 11.484375 -13.96875 L 11.484375 -23.515625 L 14.546875 -23.515625 L 14.546875 0 Z M 11.484375 0 "/></g></g></g><g fill="#000000" fill-opacity="1"><g transform="translate(70.713506, 24.646627)"><g><path d="M 2.859375 0 L 2.859375 -16.21875 L 5.921875 -16.21875 L 5.921875 0 Z M 2.5625 -20.03125 L 2.5625 -23.515625 L 6.234375 -23.515625 L 6.234375 -20.03125 Z M 2.5625 -20.03125 "/></g></g></g><g fill="#000000" fill-opacity="1"><g transform="translate(79.538595, 24.646627)"><g><path d="M 12.09375 0 L 12.09375 -8.859375 C 12.09375 -9.179688 12.09375 -9.507812 12.09375 -9.84375 C 12.09375 -10.1875 12.082031 -10.53125 12.0625 -10.875 C 12.019531 -11.625 11.859375 -12.253906 11.578125 -12.765625 C 11.304688 -13.273438 10.738281 -13.53125 9.875 -13.53125 C 9.132812 -13.53125 8.488281 -13.296875 7.9375 -12.828125 C 7.394531 -12.359375 6.953125 -11.785156 6.609375 -11.109375 C 6.265625 -10.429688 6.007812 -9.703125 5.84375 -8.921875 C 5.675781 -8.148438 5.59375 -7.472656 5.59375 -6.890625 L 5.59375 0 L 2.515625 0 L 2.515625 -16.21875 L 5.59375 -16.21875 L 5.59375 -12.75 L 5.65625 -12.75 C 6.113281 -13.90625 6.757812 -14.832031 7.59375 -15.53125 C 8.4375 -16.238281 9.503906 -16.59375 10.796875 -16.59375 C 11.617188 -16.59375 12.304688 -16.441406 12.859375 -16.140625 C 13.421875 -15.847656 13.867188 -15.457031 14.203125 -14.96875 C 14.546875 -14.488281 14.789062 -13.921875 14.9375 -13.265625 C 15.09375 -12.617188 15.171875 -11.945312 15.171875 -11.25 L 15.171875 0 Z M 12.09375 0 "/></g></g></g><g fill="#000000" fill-opacity="1"><g transform="translate(97.222839, 24.646627)"><g><path d="M 7.90625 -2.390625 C 8.613281 -2.390625 9.191406 -2.601562 9.640625 -3.03125 C 10.097656 -3.46875 10.460938 -4 10.734375 -4.625 C 11.003906 -5.25 11.195312 -5.910156 11.3125 -6.609375 C 11.425781 -7.316406 11.484375 -7.941406 11.484375 -8.484375 C 11.484375 -9.023438 11.429688 -9.628906 11.328125 -10.296875 C 11.222656 -10.972656 11.035156 -11.597656 10.765625 -12.171875 C 10.492188 -12.753906 10.128906 -13.238281 9.671875 -13.625 C 9.222656 -14.007812 8.644531 -14.203125 7.9375 -14.203125 C 7.238281 -14.203125 6.675781 -13.988281 6.25 -13.5625 C 5.832031 -13.132812 5.515625 -12.609375 5.296875 -11.984375 C 5.078125 -11.359375 4.929688 -10.695312 4.859375 -10 C 4.796875 -9.3125 4.765625 -8.703125 4.765625 -8.171875 C 4.765625 -7.648438 4.796875 -7.0625 4.859375 -6.40625 C 4.929688 -5.75 5.078125 -5.117188 5.296875 -4.515625 C 5.515625 -3.910156 5.832031 -3.40625 6.25 -3 C 6.675781 -2.59375 7.226562 -2.390625 7.90625 -2.390625 Z M 11.484375 -2.765625 L 11.421875 -2.765625 C 11.253906 -2.304688 11.007812 -1.90625 10.6875 -1.5625 C 10.375 -1.226562 10.015625 -0.941406 9.609375 -0.703125 C 9.203125 -0.460938 8.765625 -0.285156 8.296875 -0.171875 C 7.828125 -0.0546875 7.378906 0 6.953125 0 C 5.816406 0 4.890625 -0.25 4.171875 -0.75 C 3.453125 -1.25 2.882812 -1.890625 2.46875 -2.671875 C 2.050781 -3.453125 1.757812 -4.320312 1.59375 -5.28125 C 1.4375 -6.238281 1.359375 -7.179688 1.359375 -8.109375 C 1.359375 -9.035156 1.441406 -10 1.609375 -11 C 1.785156 -12 2.09375 -12.914062 2.53125 -13.75 C 2.976562 -14.582031 3.570312 -15.265625 4.3125 -15.796875 C 5.050781 -16.328125 6 -16.59375 7.15625 -16.59375 C 8.019531 -16.59375 8.863281 -16.363281 9.6875 -15.90625 C 10.519531 -15.457031 11.097656 -14.8125 11.421875 -13.96875 L 11.484375 -13.96875 L 11.484375 -16.21875 L 14.546875 -16.21875 L 14.546875 0.640625 C 14.546875 1.867188 14.367188 2.90625 14.015625 3.75 C 13.671875 4.59375 13.164062 5.273438 12.5 5.796875 C 11.84375 6.316406 11.054688 6.695312 10.140625 6.9375 C 9.222656 7.175781 8.191406 7.296875 7.046875 7.296875 C 6.210938 7.296875 5.378906 7.25 4.546875 7.15625 C 3.722656 7.0625 2.898438 6.914062 2.078125 6.71875 L 2.078125 3.609375 C 2.804688 3.972656 3.554688 4.28125 4.328125 4.53125 C 5.097656 4.78125 5.90625 4.90625 6.75 4.90625 C 7.65625 4.90625 8.414062 4.789062 9.03125 4.5625 C 9.644531 4.332031 10.132812 4.003906 10.5 3.578125 C 10.863281 3.148438 11.117188 2.613281 11.265625 1.96875 C 11.410156 1.332031 11.484375 0.597656 11.484375 -0.234375 Z M 11.484375 -2.765625 "/></g></g></g></g></g><g fill="#000000" fill-opacity="1"><g transform="translate(54.023121, 123.752372)"><g><path d="M 6.71875 -6.65625 L 10.9375 -6.65625 L 10.9375 0 L 9.421875 0 L 9.421875 -1.25 C 9.003906 -0.882812 8.492188 -0.546875 7.890625 -0.234375 C 7.296875 0.0664062 6.632812 0.21875 5.90625 0.21875 C 5.175781 0.21875 4.503906 0.078125 3.890625 -0.203125 C 3.285156 -0.492188 2.757812 -0.910156 2.3125 -1.453125 C 1.875 -1.992188 1.523438 -2.644531 1.265625 -3.40625 C 1.015625 -4.164062 0.890625 -5.015625 0.890625 -5.953125 C 0.890625 -6.960938 1.019531 -7.882812 1.28125 -8.71875 C 1.539062 -9.550781 1.914062 -10.269531 2.40625 -10.875 C 2.894531 -11.476562 3.492188 -11.945312 4.203125 -12.28125 C 4.921875 -12.613281 5.734375 -12.78125 6.640625 -12.78125 C 7.429688 -12.78125 8.128906 -12.679688 8.734375 -12.484375 C 9.335938 -12.296875 9.910156 -12.054688 10.453125 -11.765625 L 9.828125 -10.34375 C 9.316406 -10.613281 8.800781 -10.835938 8.28125 -11.015625 C 7.769531 -11.203125 7.191406 -11.296875 6.546875 -11.296875 C 5.984375 -11.296875 5.460938 -11.179688 4.984375 -10.953125 C 4.503906 -10.722656 4.09375 -10.382812 3.75 -9.9375 C 3.40625 -9.5 3.132812 -8.953125 2.9375 -8.296875 C 2.738281 -7.648438 2.640625 -6.90625 2.640625 -6.0625 C 2.640625 -5.3125 2.726562 -4.640625 2.90625 -4.046875 C 3.082031 -3.453125 3.332031 -2.945312 3.65625 -2.53125 C 3.976562 -2.125 4.363281 -1.8125 4.8125 -1.59375 C 5.269531 -1.382812 5.765625 -1.28125 6.296875 -1.28125 C 6.628906 -1.28125 6.945312 -1.316406 7.25 -1.390625 C 7.550781 -1.472656 7.828125 -1.578125 8.078125 -1.703125 C 8.328125 -1.828125 8.554688 -1.960938 8.765625 -2.109375 C 8.972656 -2.253906 9.15625 -2.40625 9.3125 -2.5625 L 9.3125 -5.3125 L 6.71875 -5.3125 Z M 6.71875 -6.65625 "/></g></g></g><g fill="#000000" fill-opacity="1"><g transform="translate(66.122816, 123.752372)"><g><path d="M 2.453125 -4 C 2.566406 -3.125 2.875 -2.441406 3.375 -1.953125 C 3.875 -1.460938 4.539062 -1.21875 5.375 -1.21875 C 5.90625 -1.21875 6.382812 -1.273438 6.8125 -1.390625 C 7.25 -1.503906 7.664062 -1.648438 8.0625 -1.828125 L 8.4375 -0.453125 C 8.007812 -0.242188 7.523438 -0.0820312 6.984375 0.03125 C 6.441406 0.15625 5.835938 0.21875 5.171875 0.21875 C 4.503906 0.21875 3.898438 0.109375 3.359375 -0.109375 C 2.816406 -0.335938 2.359375 -0.65625 1.984375 -1.0625 C 1.609375 -1.476562 1.316406 -1.988281 1.109375 -2.59375 C 0.910156 -3.195312 0.8125 -3.890625 0.8125 -4.671875 C 0.8125 -5.359375 0.910156 -6 1.109375 -6.59375 C 1.316406 -7.195312 1.601562 -7.71875 1.96875 -8.15625 C 2.34375 -8.59375 2.785156 -8.929688 3.296875 -9.171875 C 3.816406 -9.421875 4.394531 -9.546875 5.03125 -9.546875 C 5.695312 -9.546875 6.28125 -9.429688 6.78125 -9.203125 C 7.289062 -8.984375 7.710938 -8.675781 8.046875 -8.28125 C 8.378906 -7.882812 8.628906 -7.421875 8.796875 -6.890625 C 8.960938 -6.367188 9.046875 -5.8125 9.046875 -5.21875 C 9.046875 -4.800781 9.03125 -4.394531 9 -4 Z M 4.984375 -8.15625 C 4.285156 -8.15625 3.707031 -7.914062 3.25 -7.4375 C 2.800781 -6.957031 2.53125 -6.25 2.4375 -5.3125 L 7.5625 -5.3125 C 7.5625 -6.21875 7.332031 -6.914062 6.875 -7.40625 C 6.414062 -7.90625 5.785156 -8.15625 4.984375 -8.15625 Z M 4.984375 -8.15625 "/></g></g></g><g fill="#000000" fill-opacity="1"><g transform="translate(75.88875, 123.752372)"><g><path d="M 2.171875 -11.9375 L 3.40625 -11.9375 L 3.40625 -9 L 6 -9 L 6 -7.59375 L 3.40625 -7.59375 L 3.40625 -3.09375 C 3.40625 -2.738281 3.441406 -2.441406 3.515625 -2.203125 C 3.597656 -1.960938 3.707031 -1.769531 3.84375 -1.625 C 3.976562 -1.488281 4.132812 -1.382812 4.3125 -1.3125 C 4.5 -1.25 4.695312 -1.21875 4.90625 -1.21875 C 5.195312 -1.21875 5.472656 -1.265625 5.734375 -1.359375 C 6.003906 -1.460938 6.257812 -1.578125 6.5 -1.703125 L 6.953125 -0.40625 C 6.710938 -0.269531 6.390625 -0.132812 5.984375 0 C 5.578125 0.144531 5.148438 0.21875 4.703125 0.21875 C 3.804688 0.21875 3.097656 -0.0703125 2.578125 -0.65625 C 2.054688 -1.25 1.796875 -2.101562 1.796875 -3.21875 L 1.796875 -7.59375 L 0.171875 -7.59375 L 0.171875 -9 L 1.828125 -9 Z M 2.171875 -11.9375 "/></g></g></g><g fill="#000000" fill-opacity="1"><g transform="translate(83.015722, 123.752372)"><g/></g></g><g fill="#000000" fill-opacity="1"><g transform="translate(88.401346, 123.752372)"><g><path d="M 1.671875 4.171875 C 1.304688 4.171875 0.988281 4.132812 0.71875 4.0625 C 0.457031 3.988281 0.25 3.90625 0.09375 3.8125 L 0.453125 2.453125 C 0.597656 2.535156 0.773438 2.609375 0.984375 2.671875 C 1.191406 2.734375 1.429688 2.765625 1.703125 2.765625 C 1.953125 2.765625 2.1875 2.726562 2.40625 2.65625 C 2.632812 2.582031 2.847656 2.457031 3.046875 2.28125 C 3.253906 2.101562 3.445312 1.859375 3.625 1.546875 C 3.8125 1.234375 4 0.84375 4.1875 0.375 L 4.59375 -0.703125 L 3.734375 -0.703125 L 0.09375 -8.90625 L 1.53125 -9.546875 L 5.015625 -1.78125 L 7.71875 -9.484375 L 9.203125 -8.90625 L 5.78125 0.46875 C 5.519531 1.1875 5.238281 1.78125 4.9375 2.25 C 4.644531 2.726562 4.332031 3.109375 4 3.390625 C 3.664062 3.679688 3.300781 3.882812 2.90625 4 C 2.519531 4.113281 2.109375 4.171875 1.671875 4.171875 Z M 1.671875 4.171875 "/></g></g></g><g fill="#000000" fill-opacity="1"><g transform="translate(97.790276, 123.752372)"><g><path d="M 8.359375 -4.671875 C 8.359375 -5.140625 8.285156 -5.582031 8.140625 -6 C 7.992188 -6.414062 7.785156 -6.78125 7.515625 -7.09375 C 7.242188 -7.40625 6.925781 -7.648438 6.5625 -7.828125 C 6.195312 -8.015625 5.800781 -8.109375 5.375 -8.109375 C 4.425781 -8.109375 3.6875 -7.796875 3.15625 -7.171875 C 2.632812 -6.554688 2.375 -5.734375 2.375 -4.703125 C 2.375 -4.234375 2.445312 -3.785156 2.59375 -3.359375 C 2.738281 -2.941406 2.945312 -2.570312 3.21875 -2.25 C 3.488281 -1.9375 3.804688 -1.6875 4.171875 -1.5 C 4.535156 -1.3125 4.9375 -1.21875 5.375 -1.21875 C 5.832031 -1.21875 6.25 -1.300781 6.625 -1.46875 C 7 -1.632812 7.3125 -1.867188 7.5625 -2.171875 C 7.820312 -2.484375 8.019531 -2.847656 8.15625 -3.265625 C 8.289062 -3.679688 8.359375 -4.148438 8.359375 -4.671875 Z M 0.71875 -4.671875 C 0.71875 -5.421875 0.835938 -6.097656 1.078125 -6.703125 C 1.316406 -7.304688 1.640625 -7.816406 2.046875 -8.234375 C 2.460938 -8.660156 2.953125 -8.984375 3.515625 -9.203125 C 4.085938 -9.429688 4.707031 -9.546875 5.375 -9.546875 C 6.019531 -9.546875 6.625 -9.429688 7.1875 -9.203125 C 7.757812 -8.984375 8.253906 -8.660156 8.671875 -8.234375 C 9.085938 -7.816406 9.414062 -7.304688 9.65625 -6.703125 C 9.894531 -6.109375 10.015625 -5.441406 10.015625 -4.703125 C 10.015625 -3.960938 9.894531 -3.289062 9.65625 -2.6875 C 9.425781 -2.082031 9.101562 -1.5625 8.6875 -1.125 C 8.269531 -0.695312 7.773438 -0.363281 7.203125 -0.125 C 6.640625 0.101562 6.03125 0.21875 5.375 0.21875 C 4.695312 0.21875 4.070312 0.0976562 3.5 -0.140625 C 2.9375 -0.378906 2.445312 -0.710938 2.03125 -1.140625 C 1.625 -1.578125 1.300781 -2.09375 1.0625 -2.6875 C 0.832031 -3.289062 0.71875 -3.953125 0.71875 -4.671875 Z M 0.71875 -4.671875 "/></g></g></g><g fill="#000000" fill-opacity="1"><g transform="translate(108.525617, 123.752372)"><g><path d="M 9.78125 0.09375 C 9.207031 0.09375 8.753906 -0.0195312 8.421875 -0.25 C 8.085938 -0.476562 7.851562 -0.804688 7.71875 -1.234375 C 7.300781 -0.804688 6.816406 -0.457031 6.265625 -0.1875 C 5.722656 0.0820312 5.128906 0.21875 4.484375 0.21875 C 4.078125 0.21875 3.6875 0.15625 3.3125 0.03125 C 2.9375 -0.09375 2.597656 -0.289062 2.296875 -0.5625 C 2.003906 -0.84375 1.769531 -1.203125 1.59375 -1.640625 C 1.425781 -2.085938 1.34375 -2.628906 1.34375 -3.265625 L 1.34375 -9.328125 L 2.96875 -9.328125 L 2.96875 -3.484375 C 2.96875 -2.753906 3.117188 -2.191406 3.421875 -1.796875 C 3.722656 -1.410156 4.179688 -1.21875 4.796875 -1.21875 C 5.296875 -1.21875 5.769531 -1.316406 6.21875 -1.515625 C 6.675781 -1.710938 7.085938 -1.976562 7.453125 -2.3125 L 7.453125 -9.328125 L 9.0625 -9.328125 L 9.0625 -2.421875 C 9.0625 -2.160156 9.09375 -1.945312 9.15625 -1.78125 C 9.21875 -1.625 9.296875 -1.5 9.390625 -1.40625 C 9.484375 -1.320312 9.59375 -1.257812 9.71875 -1.21875 C 9.851562 -1.1875 9.988281 -1.171875 10.125 -1.171875 Z M 9.78125 0.09375 "/></g></g></g><g fill="#000000" fill-opacity="1"><g transform="translate(119.368669, 123.752372)"><g><path d="M 6.5 -7.78125 C 6.269531 -7.875 6 -7.921875 5.6875 -7.921875 C 5.351562 -7.921875 5.023438 -7.847656 4.703125 -7.703125 C 4.390625 -7.554688 4.109375 -7.335938 3.859375 -7.046875 C 3.617188 -6.765625 3.421875 -6.398438 3.265625 -5.953125 C 3.117188 -5.503906 3.046875 -4.972656 3.046875 -4.359375 L 3.046875 0 L 1.4375 0 L 1.4375 -9.328125 L 3 -9.328125 L 3 -7.3125 C 3.101562 -7.59375 3.242188 -7.867188 3.421875 -8.140625 C 3.609375 -8.421875 3.820312 -8.660156 4.0625 -8.859375 C 4.3125 -9.066406 4.597656 -9.234375 4.921875 -9.359375 C 5.242188 -9.484375 5.601562 -9.546875 6 -9.546875 C 6.175781 -9.546875 6.347656 -9.535156 6.515625 -9.515625 C 6.691406 -9.503906 6.847656 -9.476562 6.984375 -9.4375 Z M 6.5 -7.78125 "/></g></g></g><g fill="#000000" fill-opacity="1"><g transform="translate(126.531548, 123.752372)"><g/></g></g><g fill="#000000" fill-opacity="1"><g transform="translate(131.917172, 123.752372)"><g><path d="M 1.4375 -13.28125 L 3.046875 -13.28125 L 3.046875 -8.359375 C 3.171875 -8.492188 3.320312 -8.632812 3.5 -8.78125 C 3.675781 -8.925781 3.875 -9.050781 4.09375 -9.15625 C 4.320312 -9.269531 4.570312 -9.363281 4.84375 -9.4375 C 5.125 -9.507812 5.425781 -9.546875 5.75 -9.546875 C 6.28125 -9.546875 6.796875 -9.4375 7.296875 -9.21875 C 7.796875 -9.007812 8.234375 -8.703125 8.609375 -8.296875 C 8.984375 -7.890625 9.285156 -7.382812 9.515625 -6.78125 C 9.742188 -6.1875 9.859375 -5.507812 9.859375 -4.75 C 9.859375 -4.007812 9.738281 -3.332031 9.5 -2.71875 C 9.257812 -2.113281 8.941406 -1.59375 8.546875 -1.15625 C 8.148438 -0.71875 7.695312 -0.378906 7.1875 -0.140625 C 6.675781 0.0976562 6.160156 0.21875 5.640625 0.21875 C 5.097656 0.21875 4.585938 0.125 4.109375 -0.0625 C 3.640625 -0.257812 3.25 -0.492188 2.9375 -0.765625 L 2.9375 0 L 1.4375 0 Z M 8.203125 -4.703125 C 8.203125 -5.242188 8.125 -5.722656 7.96875 -6.140625 C 7.820312 -6.566406 7.617188 -6.929688 7.359375 -7.234375 C 7.109375 -7.535156 6.8125 -7.765625 6.46875 -7.921875 C 6.125 -8.078125 5.765625 -8.15625 5.390625 -8.15625 C 4.867188 -8.15625 4.398438 -8.023438 3.984375 -7.765625 C 3.578125 -7.503906 3.265625 -7.226562 3.046875 -6.9375 L 3.046875 -1.9375 C 3.328125 -1.71875 3.648438 -1.539062 4.015625 -1.40625 C 4.390625 -1.28125 4.785156 -1.21875 5.203125 -1.21875 C 5.640625 -1.21875 6.039062 -1.300781 6.40625 -1.46875 C 6.78125 -1.632812 7.097656 -1.867188 7.359375 -2.171875 C 7.617188 -2.484375 7.820312 -2.847656 7.96875 -3.265625 C 8.125 -3.691406 8.203125 -4.171875 8.203125 -4.703125 Z M 8.203125 -4.703125 "/></g></g></g><g fill="#000000" fill-opacity="1"><g transform="translate(142.580699, 123.752372)"><g><path d="M 9.78125 0.09375 C 9.207031 0.09375 8.753906 -0.0195312 8.421875 -0.25 C 8.085938 -0.476562 7.851562 -0.804688 7.71875 -1.234375 C 7.300781 -0.804688 6.816406 -0.457031 6.265625 -0.1875 C 5.722656 0.0820312 5.128906 0.21875 4.484375 0.21875 C 4.078125 0.21875 3.6875 0.15625 3.3125 0.03125 C 2.9375 -0.09375 2.597656 -0.289062 2.296875 -0.5625 C 2.003906 -0.84375 1.769531 -1.203125 1.59375 -1.640625 C 1.425781 -2.085938 1.34375 -2.628906 1.34375 -3.265625 L 1.34375 -9.328125 L 2.96875 -9.328125 L 2.96875 -3.484375 C 2.96875 -2.753906 3.117188 -2.191406 3.421875 -1.796875 C 3.722656 -1.410156 4.179688 -1.21875 4.796875 -1.21875 C 5.296875 -1.21875 5.769531 -1.316406 6.21875 -1.515625 C 6.675781 -1.710938 7.085938 -1.976562 7.453125 -2.3125 L 7.453125 -9.328125 L 9.0625 -9.328125 L 9.0625 -2.421875 C 9.0625 -2.160156 9.09375 -1.945312 9.15625 -1.78125 C 9.21875 -1.625 9.296875 -1.5 9.390625 -1.40625 C 9.484375 -1.320312 9.59375 -1.257812 9.71875 -1.21875 C 9.851562 -1.1875 9.988281 -1.171875 10.125 -1.171875 Z M 9.78125 0.09375 "/></g></g></g><g fill="#000000" fill-opacity="1"><g transform="translate(153.423751, 123.752372)"><g><path d="M 3.046875 0 L 1.4375 0 L 1.4375 -9.328125 L 3.046875 -9.328125 Z M 2.25 -10.9375 C 1.9375 -10.9375 1.664062 -11.046875 1.4375 -11.265625 C 1.21875 -11.484375 1.109375 -11.75 1.109375 -12.0625 C 1.109375 -12.40625 1.207031 -12.679688 1.40625 -12.890625 C 1.613281 -13.097656 1.894531 -13.203125 2.25 -13.203125 C 2.550781 -13.203125 2.8125 -13.085938 3.03125 -12.859375 C 3.257812 -12.640625 3.375 -12.375 3.375 -12.0625 C 3.375 -11.71875 3.269531 -11.441406 3.0625 -11.234375 C 2.863281 -11.035156 2.59375 -10.9375 2.25 -10.9375 Z M 2.25 -10.9375 "/></g></g></g><g fill="#000000" fill-opacity="1"><g transform="translate(157.911771, 123.752372)"><g><path d="M 2.96875 -3.09375 C 2.96875 -2.445312 3.097656 -1.96875 3.359375 -1.65625 C 3.628906 -1.34375 4.003906 -1.1875 4.484375 -1.1875 C 4.710938 -1.1875 4.929688 -1.210938 5.140625 -1.265625 C 5.359375 -1.316406 5.554688 -1.378906 5.734375 -1.453125 L 6.125 -0.140625 C 5.90625 -0.046875 5.632812 0.0351562 5.3125 0.109375 C 5 0.179688 4.648438 0.21875 4.265625 0.21875 C 3.847656 0.21875 3.460938 0.15625 3.109375 0.03125 C 2.753906 -0.0820312 2.445312 -0.265625 2.1875 -0.515625 C 1.925781 -0.765625 1.71875 -1.085938 1.5625 -1.484375 C 1.414062 -1.878906 1.34375 -2.359375 1.34375 -2.921875 L 1.34375 -13.28125 L 2.96875 -13.28125 Z M 2.96875 -3.09375 "/></g></g></g><g fill="#000000" fill-opacity="1"><g transform="translate(164.123185, 123.752372)"><g><path d="M 4.96875 0.21875 C 4.394531 0.21875 3.851562 0.101562 3.34375 -0.125 C 2.832031 -0.351562 2.390625 -0.675781 2.015625 -1.09375 C 1.640625 -1.507812 1.34375 -2.015625 1.125 -2.609375 C 0.914062 -3.203125 0.8125 -3.867188 0.8125 -4.609375 C 0.8125 -5.316406 0.921875 -5.972656 1.140625 -6.578125 C 1.359375 -7.179688 1.65625 -7.703125 2.03125 -8.140625 C 2.414062 -8.578125 2.859375 -8.921875 3.359375 -9.171875 C 3.859375 -9.421875 4.390625 -9.546875 4.953125 -9.546875 C 5.578125 -9.546875 6.113281 -9.421875 6.5625 -9.171875 C 7.007812 -8.921875 7.359375 -8.664062 7.609375 -8.40625 L 7.609375 -13.28125 L 9.234375 -13.28125 L 9.234375 -2.265625 C 9.234375 -1.804688 9.34375 -1.507812 9.5625 -1.375 C 9.78125 -1.238281 10.019531 -1.171875 10.28125 -1.171875 L 9.953125 0.09375 C 8.804688 0.09375 8.109375 -0.363281 7.859375 -1.28125 C 7.585938 -0.894531 7.21875 -0.546875 6.75 -0.234375 C 6.28125 0.0664062 5.6875 0.21875 4.96875 0.21875 Z M 5.328125 -1.21875 C 5.773438 -1.21875 6.195312 -1.320312 6.59375 -1.53125 C 7 -1.738281 7.335938 -2.015625 7.609375 -2.359375 L 7.609375 -6.984375 C 7.378906 -7.273438 7.0625 -7.539062 6.65625 -7.78125 C 6.257812 -8.03125 5.8125 -8.15625 5.3125 -8.15625 C 4.882812 -8.15625 4.492188 -8.0625 4.140625 -7.875 C 3.785156 -7.695312 3.484375 -7.453125 3.234375 -7.140625 C 2.984375 -6.828125 2.789062 -6.457031 2.65625 -6.03125 C 2.519531 -5.613281 2.453125 -5.160156 2.453125 -4.671875 C 2.453125 -4.160156 2.523438 -3.695312 2.671875 -3.28125 C 2.816406 -2.863281 3.015625 -2.5 3.265625 -2.1875 C 3.523438 -1.882812 3.832031 -1.644531 4.1875 -1.46875 C 4.539062 -1.300781 4.921875 -1.21875 5.328125 -1.21875 Z M 5.328125 -1.21875 "/></g></g></g><g fill="#000000" fill-opacity="1"><g transform="translate(175.127809, 123.752372)"><g><path d="M 3.046875 0 L 1.4375 0 L 1.4375 -9.328125 L 3.046875 -9.328125 Z M 2.25 -10.9375 C 1.9375 -10.9375 1.664062 -11.046875 1.4375 -11.265625 C 1.21875 -11.484375 1.109375 -11.75 1.109375 -12.0625 C 1.109375 -12.40625 1.207031 -12.679688 1.40625 -12.890625 C 1.613281 -13.097656 1.894531 -13.203125 2.25 -13.203125 C 2.550781 -13.203125 2.8125 -13.085938 3.03125 -12.859375 C 3.257812 -12.640625 3.375 -12.375 3.375 -12.0625 C 3.375 -11.71875 3.269531 -11.441406 3.0625 -11.234375 C 2.863281 -11.035156 2.59375 -10.9375 2.25 -10.9375 Z M 2.25 -10.9375 "/></g></g></g><g fill="#000000" fill-opacity="1"><g transform="translate(179.615829, 123.752372)"><g><path d="M 3 -7.78125 C 3.332031 -8.28125 3.757812 -8.695312 4.28125 -9.03125 C 4.800781 -9.375 5.421875 -9.546875 6.140625 -9.546875 C 7.191406 -9.546875 7.976562 -9.226562 8.5 -8.59375 C 9.019531 -7.957031 9.28125 -7.125 9.28125 -6.09375 L 9.28125 0 L 7.671875 0 L 7.671875 -5.90625 C 7.671875 -6.59375 7.515625 -7.132812 7.203125 -7.53125 C 6.890625 -7.925781 6.445312 -8.125 5.875 -8.125 C 5.59375 -8.125 5.320312 -8.070312 5.0625 -7.96875 C 4.800781 -7.875 4.546875 -7.734375 4.296875 -7.546875 C 4.054688 -7.367188 3.828125 -7.160156 3.609375 -6.921875 C 3.398438 -6.691406 3.210938 -6.441406 3.046875 -6.171875 L 3.046875 0 L 1.4375 0 L 1.4375 -9.328125 L 3 -9.328125 Z M 3 -7.78125 "/></g></g></g><g fill="#000000" fill-opacity="1"><g transform="translate(190.24346, 123.752372)"><g><path d="M 5.140625 -9.546875 C 5.671875 -9.546875 6.148438 -9.457031 6.578125 -9.28125 C 7.003906 -9.101562 7.375 -8.882812 7.6875 -8.625 L 7.6875 -9.328125 L 9.15625 -9.328125 L 9.15625 -0.21875 C 9.15625 0.5625 9.050781 1.226562 8.84375 1.78125 C 8.644531 2.332031 8.359375 2.78125 7.984375 3.125 C 7.609375 3.476562 7.15625 3.738281 6.625 3.90625 C 6.09375 4.082031 5.503906 4.171875 4.859375 4.171875 C 4.296875 4.171875 3.757812 4.101562 3.25 3.96875 C 2.738281 3.832031 2.273438 3.632812 1.859375 3.375 L 2.453125 1.96875 C 2.742188 2.195312 3.082031 2.382812 3.46875 2.53125 C 3.851562 2.6875 4.316406 2.765625 4.859375 2.765625 C 5.710938 2.765625 6.378906 2.539062 6.859375 2.09375 C 7.347656 1.65625 7.59375 0.941406 7.59375 -0.046875 L 7.59375 -1.203125 C 7.351562 -0.910156 7.007812 -0.632812 6.5625 -0.375 C 6.113281 -0.125 5.578125 0 4.953125 0 C 4.429688 0 3.914062 -0.101562 3.40625 -0.3125 C 2.90625 -0.519531 2.460938 -0.820312 2.078125 -1.21875 C 1.703125 -1.625 1.394531 -2.117188 1.15625 -2.703125 C 0.925781 -3.285156 0.8125 -3.953125 0.8125 -4.703125 C 0.8125 -5.398438 0.921875 -6.039062 1.140625 -6.625 C 1.367188 -7.21875 1.675781 -7.726562 2.0625 -8.15625 C 2.457031 -8.59375 2.914062 -8.929688 3.4375 -9.171875 C 3.96875 -9.421875 4.535156 -9.546875 5.140625 -9.546875 Z M 5.3125 -1.4375 C 5.789062 -1.4375 6.222656 -1.539062 6.609375 -1.75 C 6.992188 -1.96875 7.304688 -2.222656 7.546875 -2.515625 L 7.546875 -7.390625 C 7.265625 -7.585938 6.941406 -7.765625 6.578125 -7.921875 C 6.222656 -8.078125 5.796875 -8.15625 5.296875 -8.15625 C 4.921875 -8.15625 4.5625 -8.078125 4.21875 -7.921875 C 3.882812 -7.773438 3.582031 -7.554688 3.3125 -7.265625 C 3.050781 -6.984375 2.84375 -6.632812 2.6875 -6.21875 C 2.53125 -5.800781 2.453125 -5.328125 2.453125 -4.796875 C 2.453125 -4.273438 2.53125 -3.804688 2.6875 -3.390625 C 2.84375 -2.984375 3.050781 -2.632812 3.3125 -2.34375 C 3.582031 -2.050781 3.882812 -1.828125 4.21875 -1.671875 C 4.5625 -1.515625 4.925781 -1.4375 5.3125 -1.4375 Z M 5.3125 -1.4375 "/></g></g></g><g fill="#000000" fill-opacity="1"><g transform="translate(200.745426, 123.752372)"><g/></g></g><g fill="#000000" fill-opacity="1"><g transform="translate(206.131051, 123.752372)"><g><path d="M 1.0625 -9.328125 C 2.15625 -9.328125 2.84375 -8.894531 3.125 -8.03125 C 3.207031 -8.15625 3.332031 -8.304688 3.5 -8.484375 C 3.675781 -8.671875 3.890625 -8.84375 4.140625 -9 C 4.398438 -9.15625 4.691406 -9.285156 5.015625 -9.390625 C 5.335938 -9.492188 5.695312 -9.546875 6.09375 -9.546875 C 6.625 -9.546875 7.140625 -9.4375 7.640625 -9.21875 C 8.140625 -9.007812 8.578125 -8.703125 8.953125 -8.296875 C 9.328125 -7.890625 9.628906 -7.382812 9.859375 -6.78125 C 10.085938 -6.1875 10.203125 -5.507812 10.203125 -4.75 C 10.203125 -4.007812 10.085938 -3.332031 9.859375 -2.71875 C 9.640625 -2.113281 9.34375 -1.59375 8.96875 -1.15625 C 8.59375 -0.71875 8.160156 -0.378906 7.671875 -0.140625 C 7.179688 0.0976562 6.664062 0.21875 6.125 0.21875 C 5.5625 0.21875 5.039062 0.109375 4.5625 -0.109375 C 4.09375 -0.335938 3.703125 -0.59375 3.390625 -0.875 L 3.390625 3.953125 L 1.78125 3.953125 L 1.78125 -6.953125 C 1.78125 -7.359375 1.679688 -7.644531 1.484375 -7.8125 C 1.285156 -7.988281 1.03125 -8.078125 0.71875 -8.078125 Z M 8.546875 -4.703125 C 8.546875 -5.242188 8.46875 -5.722656 8.3125 -6.140625 C 8.164062 -6.566406 7.960938 -6.929688 7.703125 -7.234375 C 7.453125 -7.535156 7.15625 -7.765625 6.8125 -7.921875 C 6.46875 -8.078125 6.109375 -8.15625 5.734375 -8.15625 C 5.210938 -8.15625 4.742188 -8.023438 4.328125 -7.765625 C 3.921875 -7.503906 3.609375 -7.226562 3.390625 -6.9375 L 3.390625 -2.328125 C 3.703125 -2.003906 4.054688 -1.738281 4.453125 -1.53125 C 4.859375 -1.320312 5.304688 -1.21875 5.796875 -1.21875 C 6.203125 -1.21875 6.570312 -1.300781 6.90625 -1.46875 C 7.25 -1.632812 7.539062 -1.867188 7.78125 -2.171875 C 8.03125 -2.484375 8.21875 -2.847656 8.34375 -3.265625 C 8.476562 -3.691406 8.546875 -4.171875 8.546875 -4.703125 Z M 8.546875 -4.703125 "/></g></g></g><g fill="#000000" fill-opacity="1"><g transform="translate(217.135674, 123.752372)"><g><path d="M 6.5 -7.78125 C 6.269531 -7.875 6 -7.921875 5.6875 -7.921875 C 5.351562 -7.921875 5.023438 -7.847656 4.703125 -7.703125 C 4.390625 -7.554688 4.109375 -7.335938 3.859375 -7.046875 C 3.617188 -6.765625 3.421875 -6.398438 3.265625 -5.953125 C 3.117188 -5.503906 3.046875 -4.972656 3.046875 -4.359375 L 3.046875 0 L 1.4375 0 L 1.4375 -9.328125 L 3 -9.328125 L 3 -7.3125 C 3.101562 -7.59375 3.242188 -7.867188 3.421875 -8.140625 C 3.609375 -8.421875 3.820312 -8.660156 4.0625 -8.859375 C 4.3125 -9.066406 4.597656 -9.234375 4.921875 -9.359375 C 5.242188 -9.484375 5.601562 -9.546875 6 -9.546875 C 6.175781 -9.546875 6.347656 -9.535156 6.515625 -9.515625 C 6.691406 -9.503906 6.847656 -9.476562 6.984375 -9.4375 Z M 6.5 -7.78125 "/></g></g></g><g fill="#000000" fill-opacity="1"><g transform="translate(224.298553, 123.752372)"><g><path d="M 8.359375 -4.671875 C 8.359375 -5.140625 8.285156 -5.582031 8.140625 -6 C 7.992188 -6.414062 7.785156 -6.78125 7.515625 -7.09375 C 7.242188 -7.40625 6.925781 -7.648438 6.5625 -7.828125 C 6.195312 -8.015625 5.800781 -8.109375 5.375 -8.109375 C 4.425781 -8.109375 3.6875 -7.796875 3.15625 -7.171875 C 2.632812 -6.554688 2.375 -5.734375 2.375 -4.703125 C 2.375 -4.234375 2.445312 -3.785156 2.59375 -3.359375 C 2.738281 -2.941406 2.945312 -2.570312 3.21875 -2.25 C 3.488281 -1.9375 3.804688 -1.6875 4.171875 -1.5 C 4.535156 -1.3125 4.9375 -1.21875 5.375 -1.21875 C 5.832031 -1.21875 6.25 -1.300781 6.625 -1.46875 C 7 -1.632812 7.3125 -1.867188 7.5625 -2.171875 C 7.820312 -2.484375 8.019531 -2.847656 8.15625 -3.265625 C 8.289062 -3.679688 8.359375 -4.148438 8.359375 -4.671875 Z M 0.71875 -4.671875 C 0.71875 -5.421875 0.835938 -6.097656 1.078125 -6.703125 C 1.316406 -7.304688 1.640625 -7.816406 2.046875 -8.234375 C 2.460938 -8.660156 2.953125 -8.984375 3.515625 -9.203125 C 4.085938 -9.429688 4.707031 -9.546875 5.375 -9.546875 C 6.019531 -9.546875 6.625 -9.429688 7.1875 -9.203125 C 7.757812 -8.984375 8.253906 -8.660156 8.671875 -8.234375 C 9.085938 -7.816406 9.414062 -7.304688 9.65625 -6.703125 C 9.894531 -6.109375 10.015625 -5.441406 10.015625 -4.703125 C 10.015625 -3.960938 9.894531 -3.289062 9.65625 -2.6875 C 9.425781 -2.082031 9.101562 -1.5625 8.6875 -1.125 C 8.269531 -0.695312 7.773438 -0.363281 7.203125 -0.125 C 6.640625 0.101562 6.03125 0.21875 5.375 0.21875 C 4.695312 0.21875 4.070312 0.0976562 3.5 -0.140625 C 2.9375 -0.378906 2.445312 -0.710938 2.03125 -1.140625 C 1.625 -1.578125 1.300781 -2.09375 1.0625 -2.6875 C 0.832031 -3.289062 0.71875 -3.953125 0.71875 -4.671875 Z M 0.71875 -4.671875 "/></g></g></g><g fill="#000000" fill-opacity="1"><g transform="translate(235.033895, 123.752372)"><g><path d="M 1.640625 -9.328125 L 3.25 -9.328125 L 3.25 1.015625 C 3.25 1.566406 3.171875 2.039062 3.015625 2.4375 C 2.859375 2.832031 2.648438 3.160156 2.390625 3.421875 C 2.128906 3.679688 1.816406 3.867188 1.453125 3.984375 C 1.097656 4.109375 0.71875 4.171875 0.3125 4.171875 C -0.425781 4.171875 -1.039062 4.03125 -1.53125 3.75 L -1.125 2.40625 C -0.96875 2.5 -0.78125 2.582031 -0.5625 2.65625 C -0.34375 2.726562 -0.117188 2.765625 0.109375 2.765625 C 1.128906 2.765625 1.640625 2.128906 1.640625 0.859375 Z M 2.4375 -10.9375 C 2.125 -10.9375 1.859375 -11.046875 1.640625 -11.265625 C 1.421875 -11.484375 1.3125 -11.75 1.3125 -12.0625 C 1.3125 -12.40625 1.410156 -12.679688 1.609375 -12.890625 C 1.816406 -13.097656 2.09375 -13.203125 2.4375 -13.203125 C 2.75 -13.203125 3.015625 -13.085938 3.234375 -12.859375 C 3.460938 -12.640625 3.578125 -12.375 3.578125 -12.0625 C 3.578125 -11.71875 3.472656 -11.441406 3.265625 -11.234375 C 3.066406 -11.035156 2.789062 -10.9375 2.4375 -10.9375 Z M 2.4375 -10.9375 "/></g></g></g><g fill="#000000" fill-opacity="1"><g transform="translate(239.683487, 123.752372)"><g><path d="M 2.453125 -4 C 2.566406 -3.125 2.875 -2.441406 3.375 -1.953125 C 3.875 -1.460938 4.539062 -1.21875 5.375 -1.21875 C 5.90625 -1.21875 6.382812 -1.273438 6.8125 -1.390625 C 7.25 -1.503906 7.664062 -1.648438 8.0625 -1.828125 L 8.4375 -0.453125 C 8.007812 -0.242188 7.523438 -0.0820312 6.984375 0.03125 C 6.441406 0.15625 5.835938 0.21875 5.171875 0.21875 C 4.503906 0.21875 3.898438 0.109375 3.359375 -0.109375 C 2.816406 -0.335938 2.359375 -0.65625 1.984375 -1.0625 C 1.609375 -1.476562 1.316406 -1.988281 1.109375 -2.59375 C 0.910156 -3.195312 0.8125 -3.890625 0.8125 -4.671875 C 0.8125 -5.359375 0.910156 -6 1.109375 -6.59375 C 1.316406 -7.195312 1.601562 -7.71875 1.96875 -8.15625 C 2.34375 -8.59375 2.785156 -8.929688 3.296875 -9.171875 C 3.816406 -9.421875 4.394531 -9.546875 5.03125 -9.546875 C 5.695312 -9.546875 6.28125 -9.429688 6.78125 -9.203125 C 7.289062 -8.984375 7.710938 -8.675781 8.046875 -8.28125 C 8.378906 -7.882812 8.628906 -7.421875 8.796875 -6.890625 C 8.960938 -6.367188 9.046875 -5.8125 9.046875 -5.21875 C 9.046875 -4.800781 9.03125 -4.394531 9 -4 Z M 4.984375 -8.15625 C 4.285156 -8.15625 3.707031 -7.914062 3.25 -7.4375 C 2.800781 -6.957031 2.53125 -6.25 2.4375 -5.3125 L 7.5625 -5.3125 C 7.5625 -6.21875 7.332031 -6.914062 6.875 -7.40625 C 6.414062 -7.90625 5.785156 -8.15625 4.984375 -8.15625 Z M 4.984375 -8.15625 "/></g></g></g><g fill="#000000" fill-opacity="1"><g transform="translate(249.449409, 123.752372)"><g><path d="M 7.390625 -7.625 C 7.046875 -7.789062 6.722656 -7.910156 6.421875 -7.984375 C 6.128906 -8.066406 5.796875 -8.109375 5.421875 -8.109375 C 5.003906 -8.109375 4.613281 -8.03125 4.25 -7.875 C 3.882812 -7.71875 3.566406 -7.492188 3.296875 -7.203125 C 3.035156 -6.910156 2.828125 -6.554688 2.671875 -6.140625 C 2.523438 -5.722656 2.453125 -5.242188 2.453125 -4.703125 C 2.453125 -4.210938 2.519531 -3.753906 2.65625 -3.328125 C 2.800781 -2.910156 3 -2.546875 3.25 -2.234375 C 3.5 -1.921875 3.796875 -1.671875 4.140625 -1.484375 C 4.492188 -1.304688 4.882812 -1.21875 5.3125 -1.21875 C 5.769531 -1.21875 6.160156 -1.265625 6.484375 -1.359375 C 6.804688 -1.460938 7.148438 -1.613281 7.515625 -1.8125 L 8.03125 -0.453125 C 7.644531 -0.242188 7.222656 -0.0820312 6.765625 0.03125 C 6.316406 0.15625 5.796875 0.21875 5.203125 0.21875 C 4.535156 0.21875 3.929688 0.0976562 3.390625 -0.140625 C 2.847656 -0.378906 2.382812 -0.710938 2 -1.140625 C 1.625 -1.578125 1.332031 -2.09375 1.125 -2.6875 C 0.914062 -3.289062 0.8125 -3.953125 0.8125 -4.671875 C 0.8125 -5.335938 0.914062 -5.96875 1.125 -6.5625 C 1.332031 -7.15625 1.632812 -7.671875 2.03125 -8.109375 C 2.425781 -8.554688 2.898438 -8.90625 3.453125 -9.15625 C 4.015625 -9.414062 4.640625 -9.546875 5.328125 -9.546875 C 5.867188 -9.546875 6.335938 -9.5 6.734375 -9.40625 C 7.128906 -9.3125 7.507812 -9.175781 7.875 -9 Z M 7.390625 -7.625 "/></g></g></g><g fill="#000000" fill-opacity="1"><g transform="translate(257.922815, 123.752372)"><g><path d="M 2.171875 -11.9375 L 3.40625 -11.9375 L 3.40625 -9 L 6 -9 L 6 -7.59375 L 3.40625 -7.59375 L 3.40625 -3.09375 C 3.40625 -2.738281 3.441406 -2.441406 3.515625 -2.203125 C 3.597656 -1.960938 3.707031 -1.769531 3.84375 -1.625 C 3.976562 -1.488281 4.132812 -1.382812 4.3125 -1.3125 C 4.5 -1.25 4.695312 -1.21875 4.90625 -1.21875 C 5.195312 -1.21875 5.472656 -1.265625 5.734375 -1.359375 C 6.003906 -1.460938 6.257812 -1.578125 6.5 -1.703125 L 6.953125 -0.40625 C 6.710938 -0.269531 6.390625 -0.132812 5.984375 0 C 5.578125 0.144531 5.148438 0.21875 4.703125 0.21875 C 3.804688 0.21875 3.097656 -0.0703125 2.578125 -0.65625 C 2.054688 -1.25 1.796875 -2.101562 1.796875 -3.21875 L 1.796875 -7.59375 L 0.171875 -7.59375 L 0.171875 -9 L 1.828125 -9 Z M 2.171875 -11.9375 "/></g></g></g><g fill="#000000" fill-opacity="1"><g transform="translate(265.049775, 123.752372)"><g><path d="M 1.3125 -2.09375 C 1.625 -1.820312 2.015625 -1.601562 2.484375 -1.4375 C 2.960938 -1.269531 3.46875 -1.1875 4 -1.1875 C 4.675781 -1.1875 5.179688 -1.296875 5.515625 -1.515625 C 5.859375 -1.734375 6.03125 -2.019531 6.03125 -2.375 C 6.03125 -2.550781 5.992188 -2.71875 5.921875 -2.875 C 5.859375 -3.03125 5.738281 -3.175781 5.5625 -3.3125 C 5.394531 -3.457031 5.160156 -3.597656 4.859375 -3.734375 C 4.566406 -3.878906 4.179688 -4.035156 3.703125 -4.203125 C 2.816406 -4.503906 2.15625 -4.859375 1.71875 -5.265625 C 1.289062 -5.679688 1.078125 -6.253906 1.078125 -6.984375 C 1.078125 -7.335938 1.15625 -7.671875 1.3125 -7.984375 C 1.476562 -8.296875 1.710938 -8.566406 2.015625 -8.796875 C 2.328125 -9.035156 2.695312 -9.21875 3.125 -9.34375 C 3.5625 -9.476562 4.0625 -9.546875 4.625 -9.546875 C 5.238281 -9.546875 5.773438 -9.484375 6.234375 -9.359375 C 6.703125 -9.234375 7.117188 -9.078125 7.484375 -8.890625 L 7.03125 -7.5625 C 6.707031 -7.75 6.335938 -7.898438 5.921875 -8.015625 C 5.515625 -8.140625 5.0625 -8.203125 4.5625 -8.203125 C 3.9375 -8.203125 3.460938 -8.078125 3.140625 -7.828125 C 2.816406 -7.578125 2.65625 -7.300781 2.65625 -7 C 2.65625 -6.851562 2.679688 -6.71875 2.734375 -6.59375 C 2.785156 -6.476562 2.882812 -6.367188 3.03125 -6.265625 C 3.175781 -6.160156 3.367188 -6.050781 3.609375 -5.9375 C 3.847656 -5.832031 4.144531 -5.71875 4.5 -5.59375 C 5.09375 -5.394531 5.59375 -5.191406 6 -4.984375 C 6.40625 -4.773438 6.734375 -4.539062 6.984375 -4.28125 C 7.234375 -4.03125 7.410156 -3.757812 7.515625 -3.46875 C 7.628906 -3.175781 7.6875 -2.851562 7.6875 -2.5 C 7.6875 -2.070312 7.59375 -1.691406 7.40625 -1.359375 C 7.226562 -1.023438 6.976562 -0.738281 6.65625 -0.5 C 6.332031 -0.269531 5.941406 -0.09375 5.484375 0.03125 C 5.023438 0.15625 4.515625 0.21875 3.953125 0.21875 C 3.234375 0.21875 2.59375 0.128906 2.03125 -0.046875 C 1.46875 -0.234375 1 -0.46875 0.625 -0.75 Z M 1.3125 -2.09375 "/></g></g></g><g fill="#000000" fill-opacity="1"><g transform="translate(273.451344, 123.752372)"><g/></g></g><g fill="#000000" fill-opacity="1"><g transform="translate(278.836968, 123.752372)"><g><path d="M 4.96875 0.21875 C 4.394531 0.21875 3.851562 0.101562 3.34375 -0.125 C 2.832031 -0.351562 2.390625 -0.675781 2.015625 -1.09375 C 1.640625 -1.507812 1.34375 -2.015625 1.125 -2.609375 C 0.914062 -3.203125 0.8125 -3.867188 0.8125 -4.609375 C 0.8125 -5.316406 0.921875 -5.972656 1.140625 -6.578125 C 1.359375 -7.179688 1.65625 -7.703125 2.03125 -8.140625 C 2.414062 -8.578125 2.859375 -8.921875 3.359375 -9.171875 C 3.859375 -9.421875 4.390625 -9.546875 4.953125 -9.546875 C 5.578125 -9.546875 6.113281 -9.421875 6.5625 -9.171875 C 7.007812 -8.921875 7.359375 -8.664062 7.609375 -8.40625 L 7.609375 -13.28125 L 9.234375 -13.28125 L 9.234375 -2.265625 C 9.234375 -1.804688 9.34375 -1.507812 9.5625 -1.375 C 9.78125 -1.238281 10.019531 -1.171875 10.28125 -1.171875 L 9.953125 0.09375 C 8.804688 0.09375 8.109375 -0.363281 7.859375 -1.28125 C 7.585938 -0.894531 7.21875 -0.546875 6.75 -0.234375 C 6.28125 0.0664062 5.6875 0.21875 4.96875 0.21875 Z M 5.328125 -1.21875 C 5.773438 -1.21875 6.195312 -1.320312 6.59375 -1.53125 C 7 -1.738281 7.335938 -2.015625 7.609375 -2.359375 L 7.609375 -6.984375 C 7.378906 -7.273438 7.0625 -7.539062 6.65625 -7.78125 C 6.257812 -8.03125 5.8125 -8.15625 5.3125 -8.15625 C 4.882812 -8.15625 4.492188 -8.0625 4.140625 -7.875 C 3.785156 -7.695312 3.484375 -7.453125 3.234375 -7.140625 C 2.984375 -6.828125 2.789062 -6.457031 2.65625 -6.03125 C 2.519531 -5.613281 2.453125 -5.160156 2.453125 -4.671875 C 2.453125 -4.160156 2.523438 -3.695312 2.671875 -3.28125 C 2.816406 -2.863281 3.015625 -2.5 3.265625 -2.1875 C 3.523438 -1.882812 3.832031 -1.644531 4.1875 -1.46875 C 4.539062 -1.300781 4.921875 -1.21875 5.328125 -1.21875 Z M 5.328125 -1.21875 "/></g></g></g><g fill="#000000" fill-opacity="1"><g transform="translate(289.841603, 123.752372)"><g><path d="M 8.359375 -4.671875 C 8.359375 -5.140625 8.285156 -5.582031 8.140625 -6 C 7.992188 -6.414062 7.785156 -6.78125 7.515625 -7.09375 C 7.242188 -7.40625 6.925781 -7.648438 6.5625 -7.828125 C 6.195312 -8.015625 5.800781 -8.109375 5.375 -8.109375 C 4.425781 -8.109375 3.6875 -7.796875 3.15625 -7.171875 C 2.632812 -6.554688 2.375 -5.734375 2.375 -4.703125 C 2.375 -4.234375 2.445312 -3.785156 2.59375 -3.359375 C 2.738281 -2.941406 2.945312 -2.570312 3.21875 -2.25 C 3.488281 -1.9375 3.804688 -1.6875 4.171875 -1.5 C 4.535156 -1.3125 4.9375 -1.21875 5.375 -1.21875 C 5.832031 -1.21875 6.25 -1.300781 6.625 -1.46875 C 7 -1.632812 7.3125 -1.867188 7.5625 -2.171875 C 7.820312 -2.484375 8.019531 -2.847656 8.15625 -3.265625 C 8.289062 -3.679688 8.359375 -4.148438 8.359375 -4.671875 Z M 0.71875 -4.671875 C 0.71875 -5.421875 0.835938 -6.097656 1.078125 -6.703125 C 1.316406 -7.304688 1.640625 -7.816406 2.046875 -8.234375 C 2.460938 -8.660156 2.953125 -8.984375 3.515625 -9.203125 C 4.085938 -9.429688 4.707031 -9.546875 5.375 -9.546875 C 6.019531 -9.546875 6.625 -9.429688 7.1875 -9.203125 C 7.757812 -8.984375 8.253906 -8.660156 8.671875 -8.234375 C 9.085938 -7.816406 9.414062 -7.304688 9.65625 -6.703125 C 9.894531 -6.109375 10.015625 -5.441406 10.015625 -4.703125 C 10.015625 -3.960938 9.894531 -3.289062 9.65625 -2.6875 C 9.425781 -2.082031 9.101562 -1.5625 8.6875 -1.125 C 8.269531 -0.695312 7.773438 -0.363281 7.203125 -0.125 C 6.640625 0.101562 6.03125 0.21875 5.375 0.21875 C 4.695312 0.21875 4.070312 0.0976562 3.5 -0.140625 C 2.9375 -0.378906 2.445312 -0.710938 2.03125 -1.140625 C 1.625 -1.578125 1.300781 -2.09375 1.0625 -2.6875 C 0.832031 -3.289062 0.71875 -3.953125 0.71875 -4.671875 Z M 0.71875 -4.671875 "/></g></g></g><g fill="#000000" fill-opacity="1"><g transform="translate(300.576922, 123.752372)"><g><path d="M 3 -7.78125 C 3.332031 -8.28125 3.757812 -8.695312 4.28125 -9.03125 C 4.800781 -9.375 5.421875 -9.546875 6.140625 -9.546875 C 7.191406 -9.546875 7.976562 -9.226562 8.5 -8.59375 C 9.019531 -7.957031 9.28125 -7.125 9.28125 -6.09375 L 9.28125 0 L 7.671875 0 L 7.671875 -5.90625 C 7.671875 -6.59375 7.515625 -7.132812 7.203125 -7.53125 C 6.890625 -7.925781 6.445312 -8.125 5.875 -8.125 C 5.59375 -8.125 5.320312 -8.070312 5.0625 -7.96875 C 4.800781 -7.875 4.546875 -7.734375 4.296875 -7.546875 C 4.054688 -7.367188 3.828125 -7.160156 3.609375 -6.921875 C 3.398438 -6.691406 3.210938 -6.441406 3.046875 -6.171875 L 3.046875 0 L 1.4375 0 L 1.4375 -9.328125 L 3 -9.328125 Z M 3 -7.78125 "/></g></g></g><g fill="#000000" fill-opacity="1"><g transform="translate(311.204564, 123.752372)"><g><path d="M 2.453125 -4 C 2.566406 -3.125 2.875 -2.441406 3.375 -1.953125 C 3.875 -1.460938 4.539062 -1.21875 5.375 -1.21875 C 5.90625 -1.21875 6.382812 -1.273438 6.8125 -1.390625 C 7.25 -1.503906 7.664062 -1.648438 8.0625 -1.828125 L 8.4375 -0.453125 C 8.007812 -0.242188 7.523438 -0.0820312 6.984375 0.03125 C 6.441406 0.15625 5.835938 0.21875 5.171875 0.21875 C 4.503906 0.21875 3.898438 0.109375 3.359375 -0.109375 C 2.816406 -0.335938 2.359375 -0.65625 1.984375 -1.0625 C 1.609375 -1.476562 1.316406 -1.988281 1.109375 -2.59375 C 0.910156 -3.195312 0.8125 -3.890625 0.8125 -4.671875 C 0.8125 -5.359375 0.910156 -6 1.109375 -6.59375 C 1.316406 -7.195312 1.601562 -7.71875 1.96875 -8.15625 C 2.34375 -8.59375 2.785156 -8.929688 3.296875 -9.171875 C 3.816406 -9.421875 4.394531 -9.546875 5.03125 -9.546875 C 5.695312 -9.546875 6.28125 -9.429688 6.78125 -9.203125 C 7.289062 -8.984375 7.710938 -8.675781 8.046875 -8.28125 C 8.378906 -7.882812 8.628906 -7.421875 8.796875 -6.890625 C 8.960938 -6.367188 9.046875 -5.8125 9.046875 -5.21875 C 9.046875 -4.800781 9.03125 -4.394531 9 -4 Z M 4.984375 -8.15625 C 4.285156 -8.15625 3.707031 -7.914062 3.25 -7.4375 C 2.800781 -6.957031 2.53125 -6.25 2.4375 -5.3125 L 7.5625 -5.3125 C 7.5625 -6.21875 7.332031 -6.914062 6.875 -7.40625 C 6.414062 -7.90625 5.785156 -8.15625 4.984375 -8.15625 Z M 4.984375 -8.15625 "/></g></g></g><g fill="#000000" fill-opacity="1"><g transform="translate(54.023121, 148.436547)"><g><path d="M 12.796875 -9.421875 L 14.234375 -8.90625 L 11.28125 0 L 9.5 0 L 7.34375 -6.953125 L 5.171875 0 L 3.390625 0 L 0.453125 -8.90625 L 1.9375 -9.421875 L 4.34375 -1.828125 L 6.53125 -8.671875 L 8.28125 -8.671875 L 10.40625 -1.828125 Z M 12.796875 -9.421875 "/></g></g></g><g fill="#000000" fill-opacity="1"><g transform="translate(68.707918, 148.436547)"><g><path d="M 3.046875 0 L 1.4375 0 L 1.4375 -9.328125 L 3.046875 -9.328125 Z M 2.25 -10.9375 C 1.9375 -10.9375 1.664062 -11.046875 1.4375 -11.265625 C 1.21875 -11.484375 1.109375 -11.75 1.109375 -12.0625 C 1.109375 -12.40625 1.207031 -12.679688 1.40625 -12.890625 C 1.613281 -13.097656 1.894531 -13.203125 2.25 -13.203125 C 2.550781 -13.203125 2.8125 -13.085938 3.03125 -12.859375 C 3.257812 -12.640625 3.375 -12.375 3.375 -12.0625 C 3.375 -11.71875 3.269531 -11.441406 3.0625 -11.234375 C 2.863281 -11.035156 2.59375 -10.9375 2.25 -10.9375 Z M 2.25 -10.9375 "/></g></g></g><g fill="#000000" fill-opacity="1"><g transform="translate(73.195938, 148.436547)"><g><path d="M 2.171875 -11.9375 L 3.40625 -11.9375 L 3.40625 -9 L 6 -9 L 6 -7.59375 L 3.40625 -7.59375 L 3.40625 -3.09375 C 3.40625 -2.738281 3.441406 -2.441406 3.515625 -2.203125 C 3.597656 -1.960938 3.707031 -1.769531 3.84375 -1.625 C 3.976562 -1.488281 4.132812 -1.382812 4.3125 -1.3125 C 4.5 -1.25 4.695312 -1.21875 4.90625 -1.21875 C 5.195312 -1.21875 5.472656 -1.265625 5.734375 -1.359375 C 6.003906 -1.460938 6.257812 -1.578125 6.5 -1.703125 L 6.953125 -0.40625 C 6.710938 -0.269531 6.390625 -0.132812 5.984375 0 C 5.578125 0.144531 5.148438 0.21875 4.703125 0.21875 C 3.804688 0.21875 3.097656 -0.0703125 2.578125 -0.65625 C 2.054688 -1.25 1.796875 -2.101562 1.796875 -3.21875 L 1.796875 -7.59375 L 0.171875 -7.59375 L 0.171875 -9 L 1.828125 -9 Z M 2.171875 -11.9375 "/></g></g></g><g fill="#000000" fill-opacity="1"><g transform="translate(80.32291, 148.436547)"><g><path d="M 3.046875 -7.84375 C 3.390625 -8.332031 3.8125 -8.738281 4.3125 -9.0625 C 4.820312 -9.382812 5.429688 -9.546875 6.140625 -9.546875 C 7.191406 -9.546875 7.976562 -9.226562 8.5 -8.59375 C 9.019531 -7.957031 9.28125 -7.125 9.28125 -6.09375 L 9.28125 0 L 7.671875 0 L 7.671875 -5.90625 C 7.671875 -6.59375 7.515625 -7.132812 7.203125 -7.53125 C 6.898438 -7.925781 6.460938 -8.125 5.890625 -8.125 C 5.609375 -8.125 5.332031 -8.070312 5.0625 -7.96875 C 4.800781 -7.875 4.550781 -7.734375 4.3125 -7.546875 C 4.070312 -7.367188 3.84375 -7.160156 3.625 -6.921875 C 3.40625 -6.691406 3.210938 -6.441406 3.046875 -6.171875 L 3.046875 0 L 1.4375 0 L 1.4375 -13.28125 L 3.046875 -13.28125 Z M 3.046875 -7.84375 "/></g></g></g><g fill="#000000" fill-opacity="1"><g transform="translate(90.950541, 148.436547)"><g/></g></g><g fill="#000000" fill-opacity="1"><g transform="translate(96.336165, 148.436547)"><g><path d="M 2.171875 -11.9375 L 3.40625 -11.9375 L 3.40625 -9 L 6 -9 L 6 -7.59375 L 3.40625 -7.59375 L 3.40625 -3.09375 C 3.40625 -2.738281 3.441406 -2.441406 3.515625 -2.203125 C 3.597656 -1.960938 3.707031 -1.769531 3.84375 -1.625 C 3.976562 -1.488281 4.132812 -1.382812 4.3125 -1.3125 C 4.5 -1.25 4.695312 -1.21875 4.90625 -1.21875 C 5.195312 -1.21875 5.472656 -1.265625 5.734375 -1.359375 C 6.003906 -1.460938 6.257812 -1.578125 6.5 -1.703125 L 6.953125 -0.40625 C 6.710938 -0.269531 6.390625 -0.132812 5.984375 0 C 5.578125 0.144531 5.148438 0.21875 4.703125 0.21875 C 3.804688 0.21875 3.097656 -0.0703125 2.578125 -0.65625 C 2.054688 -1.25 1.796875 -2.101562 1.796875 -3.21875 L 1.796875 -7.59375 L 0.171875 -7.59375 L 0.171875 -9 L 1.828125 -9 Z M 2.171875 -11.9375 "/></g></g></g><g fill="#000000" fill-opacity="1"><g transform="translate(103.463136, 148.436547)"><g><path d="M 3.046875 -7.84375 C 3.390625 -8.332031 3.8125 -8.738281 4.3125 -9.0625 C 4.820312 -9.382812 5.429688 -9.546875 6.140625 -9.546875 C 7.191406 -9.546875 7.976562 -9.226562 8.5 -8.59375 C 9.019531 -7.957031 9.28125 -7.125 9.28125 -6.09375 L 9.28125 0 L 7.671875 0 L 7.671875 -5.90625 C 7.671875 -6.59375 7.515625 -7.132812 7.203125 -7.53125 C 6.898438 -7.925781 6.460938 -8.125 5.890625 -8.125 C 5.609375 -8.125 5.332031 -8.070312 5.0625 -7.96875 C 4.800781 -7.875 4.550781 -7.734375 4.3125 -7.546875 C 4.070312 -7.367188 3.84375 -7.160156 3.625 -6.921875 C 3.40625 -6.691406 3.210938 -6.441406 3.046875 -6.171875 L 3.046875 0 L 1.4375 0 L 1.4375 -13.28125 L 3.046875 -13.28125 Z M 3.046875 -7.84375 "/></g></g></g><g fill="#000000" fill-opacity="1"><g transform="translate(114.090767, 148.436547)"><g><path d="M 2.453125 -4 C 2.566406 -3.125 2.875 -2.441406 3.375 -1.953125 C 3.875 -1.460938 4.539062 -1.21875 5.375 -1.21875 C 5.90625 -1.21875 6.382812 -1.273438 6.8125 -1.390625 C 7.25 -1.503906 7.664062 -1.648438 8.0625 -1.828125 L 8.4375 -0.453125 C 8.007812 -0.242188 7.523438 -0.0820312 6.984375 0.03125 C 6.441406 0.15625 5.835938 0.21875 5.171875 0.21875 C 4.503906 0.21875 3.898438 0.109375 3.359375 -0.109375 C 2.816406 -0.335938 2.359375 -0.65625 1.984375 -1.0625 C 1.609375 -1.476562 1.316406 -1.988281 1.109375 -2.59375 C 0.910156 -3.195312 0.8125 -3.890625 0.8125 -4.671875 C 0.8125 -5.359375 0.910156 -6 1.109375 -6.59375 C 1.316406 -7.195312 1.601562 -7.71875 1.96875 -8.15625 C 2.34375 -8.59375 2.785156 -8.929688 3.296875 -9.171875 C 3.816406 -9.421875 4.394531 -9.546875 5.03125 -9.546875 C 5.695312 -9.546875 6.28125 -9.429688 6.78125 -9.203125 C 7.289062 -8.984375 7.710938 -8.675781 8.046875 -8.28125 C 8.378906 -7.882812 8.628906 -7.421875 8.796875 -6.890625 C 8.960938 -6.367188 9.046875 -5.8125 9.046875 -5.21875 C 9.046875 -4.800781 9.03125 -4.394531 9 -4 Z M 4.984375 -8.15625 C 4.285156 -8.15625 3.707031 -7.914062 3.25 -7.4375 C 2.800781 -6.957031 2.53125 -6.25 2.4375 -5.3125 L 7.5625 -5.3125 C 7.5625 -6.21875 7.332031 -6.914062 6.875 -7.40625 C 6.414062 -7.90625 5.785156 -8.15625 4.984375 -8.15625 Z M 4.984375 -8.15625 "/></g></g></g><g fill="#000000" fill-opacity="1"><g transform="translate(123.856701, 148.436547)"><g/></g></g><g fill="#000000" fill-opacity="1"><g transform="translate(129.242326, 148.436547)"><g><path d="M 3.046875 -7.84375 C 3.390625 -8.332031 3.8125 -8.738281 4.3125 -9.0625 C 4.820312 -9.382812 5.429688 -9.546875 6.140625 -9.546875 C 7.191406 -9.546875 7.976562 -9.226562 8.5 -8.59375 C 9.019531 -7.957031 9.28125 -7.125 9.28125 -6.09375 L 9.28125 0 L 7.671875 0 L 7.671875 -5.90625 C 7.671875 -6.59375 7.515625 -7.132812 7.203125 -7.53125 C 6.898438 -7.925781 6.460938 -8.125 5.890625 -8.125 C 5.609375 -8.125 5.332031 -8.070312 5.0625 -7.96875 C 4.800781 -7.875 4.550781 -7.734375 4.3125 -7.546875 C 4.070312 -7.367188 3.84375 -7.160156 3.625 -6.921875 C 3.40625 -6.691406 3.210938 -6.441406 3.046875 -6.171875 L 3.046875 0 L 1.4375 0 L 1.4375 -13.28125 L 3.046875 -13.28125 Z M 3.046875 -7.84375 "/></g></g></g><g fill="#000000" fill-opacity="1"><g transform="translate(139.869956, 148.436547)"><g><path d="M 2.453125 -4 C 2.566406 -3.125 2.875 -2.441406 3.375 -1.953125 C 3.875 -1.460938 4.539062 -1.21875 5.375 -1.21875 C 5.90625 -1.21875 6.382812 -1.273438 6.8125 -1.390625 C 7.25 -1.503906 7.664062 -1.648438 8.0625 -1.828125 L 8.4375 -0.453125 C 8.007812 -0.242188 7.523438 -0.0820312 6.984375 0.03125 C 6.441406 0.15625 5.835938 0.21875 5.171875 0.21875 C 4.503906 0.21875 3.898438 0.109375 3.359375 -0.109375 C 2.816406 -0.335938 2.359375 -0.65625 1.984375 -1.0625 C 1.609375 -1.476562 1.316406 -1.988281 1.109375 -2.59375 C 0.910156 -3.195312 0.8125 -3.890625 0.8125 -4.671875 C 0.8125 -5.359375 0.910156 -6 1.109375 -6.59375 C 1.316406 -7.195312 1.601562 -7.71875 1.96875 -8.15625 C 2.34375 -8.59375 2.785156 -8.929688 3.296875 -9.171875 C 3.816406 -9.421875 4.394531 -9.546875 5.03125 -9.546875 C 5.695312 -9.546875 6.28125 -9.429688 6.78125 -9.203125 C 7.289062 -8.984375 7.710938 -8.675781 8.046875 -8.28125 C 8.378906 -7.882812 8.628906 -7.421875 8.796875 -6.890625 C 8.960938 -6.367188 9.046875 -5.8125 9.046875 -5.21875 C 9.046875 -4.800781 9.03125 -4.394531 9 -4 Z M 4.984375 -8.15625 C 4.285156 -8.15625 3.707031 -7.914062 3.25 -7.4375 C 2.800781 -6.957031 2.53125 -6.25 2.4375 -5.3125 L 7.5625 -5.3125 C 7.5625 -6.21875 7.332031 -6.914062 6.875 -7.40625 C 6.414062 -7.90625 5.785156 -8.15625 4.984375 -8.15625 Z M 4.984375 -8.15625 "/></g></g></g><g fill="#000000" fill-opacity="1"><g transform="translate(149.63589, 148.436547)"><g><path d="M 2.96875 -3.09375 C 2.96875 -2.445312 3.097656 -1.96875 3.359375 -1.65625 C 3.628906 -1.34375 4.003906 -1.1875 4.484375 -1.1875 C 4.710938 -1.1875 4.929688 -1.210938 5.140625 -1.265625 C 5.359375 -1.316406 5.554688 -1.378906 5.734375 -1.453125 L 6.125 -0.140625 C 5.90625 -0.046875 5.632812 0.0351562 5.3125 0.109375 C 5 0.179688 4.648438 0.21875 4.265625 0.21875 C 3.847656 0.21875 3.460938 0.15625 3.109375 0.03125 C 2.753906 -0.0820312 2.445312 -0.265625 2.1875 -0.515625 C 1.925781 -0.765625 1.71875 -1.085938 1.5625 -1.484375 C 1.414062 -1.878906 1.34375 -2.359375 1.34375 -2.921875 L 1.34375 -13.28125 L 2.96875 -13.28125 Z M 2.96875 -3.09375 "/></g></g></g><g fill="#000000" fill-opacity="1"><g transform="translate(155.847304, 148.436547)"><g><path d="M 1.0625 -9.328125 C 2.15625 -9.328125 2.84375 -8.894531 3.125 -8.03125 C 3.207031 -8.15625 3.332031 -8.304688 3.5 -8.484375 C 3.675781 -8.671875 3.890625 -8.84375 4.140625 -9 C 4.398438 -9.15625 4.691406 -9.285156 5.015625 -9.390625 C 5.335938 -9.492188 5.695312 -9.546875 6.09375 -9.546875 C 6.625 -9.546875 7.140625 -9.4375 7.640625 -9.21875 C 8.140625 -9.007812 8.578125 -8.703125 8.953125 -8.296875 C 9.328125 -7.890625 9.628906 -7.382812 9.859375 -6.78125 C 10.085938 -6.1875 10.203125 -5.507812 10.203125 -4.75 C 10.203125 -4.007812 10.085938 -3.332031 9.859375 -2.71875 C 9.640625 -2.113281 9.34375 -1.59375 8.96875 -1.15625 C 8.59375 -0.71875 8.160156 -0.378906 7.671875 -0.140625 C 7.179688 0.0976562 6.664062 0.21875 6.125 0.21875 C 5.5625 0.21875 5.039062 0.109375 4.5625 -0.109375 C 4.09375 -0.335938 3.703125 -0.59375 3.390625 -0.875 L 3.390625 3.953125 L 1.78125 3.953125 L 1.78125 -6.953125 C 1.78125 -7.359375 1.679688 -7.644531 1.484375 -7.8125 C 1.285156 -7.988281 1.03125 -8.078125 0.71875 -8.078125 Z M 8.546875 -4.703125 C 8.546875 -5.242188 8.46875 -5.722656 8.3125 -6.140625 C 8.164062 -6.566406 7.960938 -6.929688 7.703125 -7.234375 C 7.453125 -7.535156 7.15625 -7.765625 6.8125 -7.921875 C 6.46875 -8.078125 6.109375 -8.15625 5.734375 -8.15625 C 5.210938 -8.15625 4.742188 -8.023438 4.328125 -7.765625 C 3.921875 -7.503906 3.609375 -7.226562 3.390625 -6.9375 L 3.390625 -2.328125 C 3.703125 -2.003906 4.054688 -1.738281 4.453125 -1.53125 C 4.859375 -1.320312 5.304688 -1.21875 5.796875 -1.21875 C 6.203125 -1.21875 6.570312 -1.300781 6.90625 -1.46875 C 7.25 -1.632812 7.539062 -1.867188 7.78125 -2.171875 C 8.03125 -2.484375 8.21875 -2.847656 8.34375 -3.265625 C 8.476562 -3.691406 8.546875 -4.171875 8.546875 -4.703125 Z M 8.546875 -4.703125 "/></g></g></g><g fill="#000000" fill-opacity="1"><g transform="translate(166.851928, 148.436547)"><g/></g></g><g fill="#000000" fill-opacity="1"><g transform="translate(172.237552, 148.436547)"><g><path d="M 8.359375 -4.671875 C 8.359375 -5.140625 8.285156 -5.582031 8.140625 -6 C 7.992188 -6.414062 7.785156 -6.78125 7.515625 -7.09375 C 7.242188 -7.40625 6.925781 -7.648438 6.5625 -7.828125 C 6.195312 -8.015625 5.800781 -8.109375 5.375 -8.109375 C 4.425781 -8.109375 3.6875 -7.796875 3.15625 -7.171875 C 2.632812 -6.554688 2.375 -5.734375 2.375 -4.703125 C 2.375 -4.234375 2.445312 -3.785156 2.59375 -3.359375 C 2.738281 -2.941406 2.945312 -2.570312 3.21875 -2.25 C 3.488281 -1.9375 3.804688 -1.6875 4.171875 -1.5 C 4.535156 -1.3125 4.9375 -1.21875 5.375 -1.21875 C 5.832031 -1.21875 6.25 -1.300781 6.625 -1.46875 C 7 -1.632812 7.3125 -1.867188 7.5625 -2.171875 C 7.820312 -2.484375 8.019531 -2.847656 8.15625 -3.265625 C 8.289062 -3.679688 8.359375 -4.148438 8.359375 -4.671875 Z M 0.71875 -4.671875 C 0.71875 -5.421875 0.835938 -6.097656 1.078125 -6.703125 C 1.316406 -7.304688 1.640625 -7.816406 2.046875 -8.234375 C 2.460938 -8.660156 2.953125 -8.984375 3.515625 -9.203125 C 4.085938 -9.429688 4.707031 -9.546875 5.375 -9.546875 C 6.019531 -9.546875 6.625 -9.429688 7.1875 -9.203125 C 7.757812 -8.984375 8.253906 -8.660156 8.671875 -8.234375 C 9.085938 -7.816406 9.414062 -7.304688 9.65625 -6.703125 C 9.894531 -6.109375 10.015625 -5.441406 10.015625 -4.703125 C 10.015625 -3.960938 9.894531 -3.289062 9.65625 -2.6875 C 9.425781 -2.082031 9.101562 -1.5625 8.6875 -1.125 C 8.269531 -0.695312 7.773438 -0.363281 7.203125 -0.125 C 6.640625 0.101562 6.03125 0.21875 5.375 0.21875 C 4.695312 0.21875 4.070312 0.0976562 3.5 -0.140625 C 2.9375 -0.378906 2.445312 -0.710938 2.03125 -1.140625 C 1.625 -1.578125 1.300781 -2.09375 1.0625 -2.6875 C 0.832031 -3.289062 0.71875 -3.953125 0.71875 -4.671875 Z M 0.71875 -4.671875 "/></g></g></g><g fill="#000000" fill-opacity="1"><g transform="translate(182.972893, 148.436547)"><g><path d="M 6.65625 -11.546875 C 6.40625 -11.671875 6.132812 -11.785156 5.84375 -11.890625 C 5.5625 -12.003906 5.25 -12.0625 4.90625 -12.0625 C 4.394531 -12.0625 3.988281 -11.898438 3.6875 -11.578125 C 3.382812 -11.265625 3.234375 -10.804688 3.234375 -10.203125 L 3.234375 -9 L 6 -9 L 6 -7.59375 L 3.234375 -7.59375 L 3.234375 0 L 1.609375 0 L 1.609375 -7.59375 L 0.171875 -7.59375 L 0.171875 -9 L 1.609375 -9 L 1.609375 -10.09375 C 1.609375 -10.613281 1.6875 -11.082031 1.84375 -11.5 C 2 -11.925781 2.210938 -12.285156 2.484375 -12.578125 C 2.765625 -12.878906 3.101562 -13.109375 3.5 -13.265625 C 3.894531 -13.421875 4.328125 -13.5 4.796875 -13.5 C 5.296875 -13.5 5.726562 -13.441406 6.09375 -13.328125 C 6.457031 -13.210938 6.804688 -13.070312 7.140625 -12.90625 Z M 6.65625 -11.546875 "/></g></g></g><g fill="#000000" fill-opacity="1"><g transform="translate(189.220215, 148.436547)"><g/></g></g><g fill="#000000" fill-opacity="1"><g transform="translate(194.605839, 148.436547)"><g><path d="M 6.71875 -6.65625 L 10.9375 -6.65625 L 10.9375 0 L 9.421875 0 L 9.421875 -1.25 C 9.003906 -0.882812 8.492188 -0.546875 7.890625 -0.234375 C 7.296875 0.0664062 6.632812 0.21875 5.90625 0.21875 C 5.175781 0.21875 4.503906 0.078125 3.890625 -0.203125 C 3.285156 -0.492188 2.757812 -0.910156 2.3125 -1.453125 C 1.875 -1.992188 1.523438 -2.644531 1.265625 -3.40625 C 1.015625 -4.164062 0.890625 -5.015625 0.890625 -5.953125 C 0.890625 -6.960938 1.019531 -7.882812 1.28125 -8.71875 C 1.539062 -9.550781 1.914062 -10.269531 2.40625 -10.875 C 2.894531 -11.476562 3.492188 -11.945312 4.203125 -12.28125 C 4.921875 -12.613281 5.734375 -12.78125 6.640625 -12.78125 C 7.429688 -12.78125 8.128906 -12.679688 8.734375 -12.484375 C 9.335938 -12.296875 9.910156 -12.054688 10.453125 -11.765625 L 9.828125 -10.34375 C 9.316406 -10.613281 8.800781 -10.835938 8.28125 -11.015625 C 7.769531 -11.203125 7.191406 -11.296875 6.546875 -11.296875 C 5.984375 -11.296875 5.460938 -11.179688 4.984375 -10.953125 C 4.503906 -10.722656 4.09375 -10.382812 3.75 -9.9375 C 3.40625 -9.5 3.132812 -8.953125 2.9375 -8.296875 C 2.738281 -7.648438 2.640625 -6.90625 2.640625 -6.0625 C 2.640625 -5.3125 2.726562 -4.640625 2.90625 -4.046875 C 3.082031 -3.453125 3.332031 -2.945312 3.65625 -2.53125 C 3.976562 -2.125 4.363281 -1.8125 4.8125 -1.59375 C 5.269531 -1.382812 5.765625 -1.28125 6.296875 -1.28125 C 6.628906 -1.28125 6.945312 -1.316406 7.25 -1.390625 C 7.550781 -1.472656 7.828125 -1.578125 8.078125 -1.703125 C 8.328125 -1.828125 8.554688 -1.960938 8.765625 -2.109375 C 8.972656 -2.253906 9.15625 -2.40625 9.3125 -2.5625 L 9.3125 -5.3125 L 6.71875 -5.3125 Z M 6.71875 -6.65625 "/></g></g></g><g fill="#000000" fill-opacity="1"><g transform="translate(206.705534, 148.436547)"><g><path d="M 9.78125 0.09375 C 9.207031 0.09375 8.753906 -0.0195312 8.421875 -0.25 C 8.085938 -0.476562 7.851562 -0.804688 7.71875 -1.234375 C 7.300781 -0.804688 6.816406 -0.457031 6.265625 -0.1875 C 5.722656 0.0820312 5.128906 0.21875 4.484375 0.21875 C 4.078125 0.21875 3.6875 0.15625 3.3125 0.03125 C 2.9375 -0.09375 2.597656 -0.289062 2.296875 -0.5625 C 2.003906 -0.84375 1.769531 -1.203125 1.59375 -1.640625 C 1.425781 -2.085938 1.34375 -2.628906 1.34375 -3.265625 L 1.34375 -9.328125 L 2.96875 -9.328125 L 2.96875 -3.484375 C 2.96875 -2.753906 3.117188 -2.191406 3.421875 -1.796875 C 3.722656 -1.410156 4.179688 -1.21875 4.796875 -1.21875 C 5.296875 -1.21875 5.769531 -1.316406 6.21875 -1.515625 C 6.675781 -1.710938 7.085938 -1.976562 7.453125 -2.3125 L 7.453125 -9.328125 L 9.0625 -9.328125 L 9.0625 -2.421875 C 9.0625 -2.160156 9.09375 -1.945312 9.15625 -1.78125 C 9.21875 -1.625 9.296875 -1.5 9.390625 -1.40625 C 9.484375 -1.320312 9.59375 -1.257812 9.71875 -1.21875 C 9.851562 -1.1875 9.988281 -1.171875 10.125 -1.171875 Z M 9.78125 0.09375 "/></g></g></g><g fill="#000000" fill-opacity="1"><g transform="translate(217.548586, 148.436547)"><g><path d="M 3 -7.78125 C 3.332031 -8.28125 3.753906 -8.695312 4.265625 -9.03125 C 4.773438 -9.375 5.363281 -9.546875 6.03125 -9.546875 C 6.769531 -9.546875 7.375 -9.367188 7.84375 -9.015625 C 8.3125 -8.660156 8.644531 -8.179688 8.84375 -7.578125 C 9.21875 -8.128906 9.660156 -8.59375 10.171875 -8.96875 C 10.679688 -9.351562 11.3125 -9.546875 12.0625 -9.546875 C 12.5625 -9.546875 13 -9.460938 13.375 -9.296875 C 13.757812 -9.128906 14.078125 -8.890625 14.328125 -8.578125 C 14.578125 -8.273438 14.765625 -7.910156 14.890625 -7.484375 C 15.015625 -7.066406 15.078125 -6.601562 15.078125 -6.09375 L 15.078125 0 L 13.46875 0 L 13.46875 -5.953125 C 13.46875 -6.609375 13.316406 -7.132812 13.015625 -7.53125 C 12.710938 -7.925781 12.300781 -8.125 11.78125 -8.125 C 11.5 -8.125 11.234375 -8.070312 10.984375 -7.96875 C 10.734375 -7.863281 10.492188 -7.71875 10.265625 -7.53125 C 10.035156 -7.34375 9.816406 -7.125 9.609375 -6.875 C 9.410156 -6.632812 9.226562 -6.382812 9.0625 -6.125 L 9.0625 0 L 7.453125 0 L 7.453125 -5.953125 C 7.453125 -6.609375 7.300781 -7.132812 7 -7.53125 C 6.695312 -7.925781 6.285156 -8.125 5.765625 -8.125 C 5.503906 -8.125 5.242188 -8.070312 4.984375 -7.96875 C 4.734375 -7.875 4.488281 -7.734375 4.25 -7.546875 C 4.019531 -7.367188 3.800781 -7.160156 3.59375 -6.921875 C 3.394531 -6.691406 3.210938 -6.441406 3.046875 -6.171875 L 3.046875 0 L 1.4375 0 L 1.4375 -9.328125 L 3 -9.328125 Z M 3 -7.78125 "/></g></g></g><g fill="#000000" fill-opacity="1"><g transform="translate(233.97473, 148.436547)"><g><path d="M 1.4375 -13.28125 L 3.046875 -13.28125 L 3.046875 -8.359375 C 3.171875 -8.492188 3.320312 -8.632812 3.5 -8.78125 C 3.675781 -8.925781 3.875 -9.050781 4.09375 -9.15625 C 4.320312 -9.269531 4.570312 -9.363281 4.84375 -9.4375 C 5.125 -9.507812 5.425781 -9.546875 5.75 -9.546875 C 6.28125 -9.546875 6.796875 -9.4375 7.296875 -9.21875 C 7.796875 -9.007812 8.234375 -8.703125 8.609375 -8.296875 C 8.984375 -7.890625 9.285156 -7.382812 9.515625 -6.78125 C 9.742188 -6.1875 9.859375 -5.507812 9.859375 -4.75 C 9.859375 -4.007812 9.738281 -3.332031 9.5 -2.71875 C 9.257812 -2.113281 8.941406 -1.59375 8.546875 -1.15625 C 8.148438 -0.71875 7.695312 -0.378906 7.1875 -0.140625 C 6.675781 0.0976562 6.160156 0.21875 5.640625 0.21875 C 5.097656 0.21875 4.585938 0.125 4.109375 -0.0625 C 3.640625 -0.257812 3.25 -0.492188 2.9375 -0.765625 L 2.9375 0 L 1.4375 0 Z M 8.203125 -4.703125 C 8.203125 -5.242188 8.125 -5.722656 7.96875 -6.140625 C 7.820312 -6.566406 7.617188 -6.929688 7.359375 -7.234375 C 7.109375 -7.535156 6.8125 -7.765625 6.46875 -7.921875 C 6.125 -8.078125 5.765625 -8.15625 5.390625 -8.15625 C 4.867188 -8.15625 4.398438 -8.023438 3.984375 -7.765625 C 3.578125 -7.503906 3.265625 -7.226562 3.046875 -6.9375 L 3.046875 -1.9375 C 3.328125 -1.71875 3.648438 -1.539062 4.015625 -1.40625 C 4.390625 -1.28125 4.785156 -1.21875 5.203125 -1.21875 C 5.640625 -1.21875 6.039062 -1.300781 6.40625 -1.46875 C 6.78125 -1.632812 7.097656 -1.867188 7.359375 -2.171875 C 7.617188 -2.484375 7.820312 -2.847656 7.96875 -3.265625 C 8.125 -3.691406 8.203125 -4.171875 8.203125 -4.703125 Z M 8.203125 -4.703125 "/></g></g></g><g fill="#000000" fill-opacity="1"><g transform="translate(244.638257, 148.436547)"><g><path d="M 8.359375 -4.671875 C 8.359375 -5.140625 8.285156 -5.582031 8.140625 -6 C 7.992188 -6.414062 7.785156 -6.78125 7.515625 -7.09375 C 7.242188 -7.40625 6.925781 -7.648438 6.5625 -7.828125 C 6.195312 -8.015625 5.800781 -8.109375 5.375 -8.109375 C 4.425781 -8.109375 3.6875 -7.796875 3.15625 -7.171875 C 2.632812 -6.554688 2.375 -5.734375 2.375 -4.703125 C 2.375 -4.234375 2.445312 -3.785156 2.59375 -3.359375 C 2.738281 -2.941406 2.945312 -2.570312 3.21875 -2.25 C 3.488281 -1.9375 3.804688 -1.6875 4.171875 -1.5 C 4.535156 -1.3125 4.9375 -1.21875 5.375 -1.21875 C 5.832031 -1.21875 6.25 -1.300781 6.625 -1.46875 C 7 -1.632812 7.3125 -1.867188 7.5625 -2.171875 C 7.820312 -2.484375 8.019531 -2.847656 8.15625 -3.265625 C 8.289062 -3.679688 8.359375 -4.148438 8.359375 -4.671875 Z M 0.71875 -4.671875 C 0.71875 -5.421875 0.835938 -6.097656 1.078125 -6.703125 C 1.316406 -7.304688 1.640625 -7.816406 2.046875 -8.234375 C 2.460938 -8.660156 2.953125 -8.984375 3.515625 -9.203125 C 4.085938 -9.429688 4.707031 -9.546875 5.375 -9.546875 C 6.019531 -9.546875 6.625 -9.429688 7.1875 -9.203125 C 7.757812 -8.984375 8.253906 -8.660156 8.671875 -8.234375 C 9.085938 -7.816406 9.414062 -7.304688 9.65625 -6.703125 C 9.894531 -6.109375 10.015625 -5.441406 10.015625 -4.703125 C 10.015625 -3.960938 9.894531 -3.289062 9.65625 -2.6875 C 9.425781 -2.082031 9.101562 -1.5625 8.6875 -1.125 C 8.269531 -0.695312 7.773438 -0.363281 7.203125 -0.125 C 6.640625 0.101562 6.03125 0.21875 5.375 0.21875 C 4.695312 0.21875 4.070312 0.0976562 3.5 -0.140625 C 2.9375 -0.378906 2.445312 -0.710938 2.03125 -1.140625 C 1.625 -1.578125 1.300781 -2.09375 1.0625 -2.6875 C 0.832031 -3.289062 0.71875 -3.953125 0.71875 -4.671875 Z M 0.71875 -4.671875 "/></g></g></g><g fill="#000000" fill-opacity="1"><g transform="translate(255.373598, 148.436547)"><g><path d="M 8.359375 -4.671875 C 8.359375 -5.140625 8.285156 -5.582031 8.140625 -6 C 7.992188 -6.414062 7.785156 -6.78125 7.515625 -7.09375 C 7.242188 -7.40625 6.925781 -7.648438 6.5625 -7.828125 C 6.195312 -8.015625 5.800781 -8.109375 5.375 -8.109375 C 4.425781 -8.109375 3.6875 -7.796875 3.15625 -7.171875 C 2.632812 -6.554688 2.375 -5.734375 2.375 -4.703125 C 2.375 -4.234375 2.445312 -3.785156 2.59375 -3.359375 C 2.738281 -2.941406 2.945312 -2.570312 3.21875 -2.25 C 3.488281 -1.9375 3.804688 -1.6875 4.171875 -1.5 C 4.535156 -1.3125 4.9375 -1.21875 5.375 -1.21875 C 5.832031 -1.21875 6.25 -1.300781 6.625 -1.46875 C 7 -1.632812 7.3125 -1.867188 7.5625 -2.171875 C 7.820312 -2.484375 8.019531 -2.847656 8.15625 -3.265625 C 8.289062 -3.679688 8.359375 -4.148438 8.359375 -4.671875 Z M 0.71875 -4.671875 C 0.71875 -5.421875 0.835938 -6.097656 1.078125 -6.703125 C 1.316406 -7.304688 1.640625 -7.816406 2.046875 -8.234375 C 2.460938 -8.660156 2.953125 -8.984375 3.515625 -9.203125 C 4.085938 -9.429688 4.707031 -9.546875 5.375 -9.546875 C 6.019531 -9.546875 6.625 -9.429688 7.1875 -9.203125 C 7.757812 -8.984375 8.253906 -8.660156 8.671875 -8.234375 C 9.085938 -7.816406 9.414062 -7.304688 9.65625 -6.703125 C 9.894531 -6.109375 10.015625 -5.441406 10.015625 -4.703125 C 10.015625 -3.960938 9.894531 -3.289062 9.65625 -2.6875 C 9.425781 -2.082031 9.101562 -1.5625 8.6875 -1.125 C 8.269531 -0.695312 7.773438 -0.363281 7.203125 -0.125 C 6.640625 0.101562 6.03125 0.21875 5.375 0.21875 C 4.695312 0.21875 4.070312 0.0976562 3.5 -0.140625 C 2.9375 -0.378906 2.445312 -0.710938 2.03125 -1.140625 C 1.625 -1.578125 1.300781 -2.09375 1.0625 -2.6875 C 0.832031 -3.289062 0.71875 -3.953125 0.71875 -4.671875 Z M 0.71875 -4.671875 "/></g></g></g><g fill="#000000" fill-opacity="1"><g transform="translate(266.10894, 148.436547)"><g><path d="M 2.171875 -11.9375 L 3.40625 -11.9375 L 3.40625 -9 L 6 -9 L 6 -7.59375 L 3.40625 -7.59375 L 3.40625 -3.09375 C 3.40625 -2.738281 3.441406 -2.441406 3.515625 -2.203125 C 3.597656 -1.960938 3.707031 -1.769531 3.84375 -1.625 C 3.976562 -1.488281 4.132812 -1.382812 4.3125 -1.3125 C 4.5 -1.25 4.695312 -1.21875 4.90625 -1.21875 C 5.195312 -1.21875 5.472656 -1.265625 5.734375 -1.359375 C 6.003906 -1.460938 6.257812 -1.578125 6.5 -1.703125 L 6.953125 -0.40625 C 6.710938 -0.269531 6.390625 -0.132812 5.984375 0 C 5.578125 0.144531 5.148438 0.21875 4.703125 0.21875 C 3.804688 0.21875 3.097656 -0.0703125 2.578125 -0.65625 C 2.054688 -1.25 1.796875 -2.101562 1.796875 -3.21875 L 1.796875 -7.59375 L 0.171875 -7.59375 L 0.171875 -9 L 1.828125 -9 Z M 2.171875 -11.9375 "/></g></g></g><g fill="#000000" fill-opacity="1"><g transform="translate(273.235922, 148.436547)"><g><path d="M 1.484375 -0.984375 C 1.484375 -1.359375 1.585938 -1.648438 1.796875 -1.859375 C 2.015625 -2.078125 2.3125 -2.1875 2.6875 -2.1875 C 3 -2.1875 3.273438 -2.066406 3.515625 -1.828125 C 3.765625 -1.585938 3.890625 -1.304688 3.890625 -0.984375 C 3.890625 -0.628906 3.773438 -0.335938 3.546875 -0.109375 C 3.328125 0.109375 3.039062 0.21875 2.6875 0.21875 C 2.363281 0.21875 2.082031 0.0976562 1.84375 -0.140625 C 1.601562 -0.378906 1.484375 -0.660156 1.484375 -0.984375 Z M 1.484375 -0.984375 "/></g></g></g></svg>