<svg xmlns="http://www.w3.org/2000/svg" xmlns:xlink="http://www.w3.org/1999/xlink" width="500" zoomAndPan="magnify" viewBox="0 0 375 281.25" height="375" preserveAspectRatio="xMidYMid meet" version="1.0"><defs><g/><clipPath id="5922db7221"><path d="M 28.550781 26.179688 L 347 26.179688 L 347 256.027344 L 28.550781 256.027344 Z M 28.550781 26.179688 " clip-rule="nonzero"/></clipPath><clipPath id="3ea9213f55"><path d="M 42.011719 26.179688 L 332.988281 26.179688 C 336.558594 26.179688 339.984375 27.597656 342.507812 30.121094 C 345.03125 32.644531 346.449219 36.070312 346.449219 39.640625 L 346.449219 242.5625 C 346.449219 246.132812 345.03125 249.558594 342.507812 252.082031 C 339.984375 254.609375 336.558594 256.027344 332.988281 256.027344 L 42.011719 256.027344 C 38.441406 256.027344 35.015625 254.609375 32.492188 252.082031 C 29.96875 249.558594 28.550781 246.132812 28.550781 242.5625 L 28.550781 39.640625 C 28.550781 32.207031 34.578125 26.179688 42.011719 26.179688 Z M 42.011719 26.179688 " clip-rule="nonzero"/></clipPath><clipPath id="b1de798bec"><path d="M 0.550781 0.179688 L 318.617188 0.179688 L 318.617188 230.027344 L 0.550781 230.027344 Z M 0.550781 0.179688 " clip-rule="nonzero"/></clipPath><clipPath id="cdefe632eb"><path d="M 14.011719 0.179688 L 304.988281 0.179688 C 308.558594 0.179688 311.984375 1.597656 314.507812 4.121094 C 317.03125 6.644531 318.449219 10.070312 318.449219 13.640625 L 318.449219 216.5625 C 318.449219 220.132812 317.03125 223.558594 314.507812 226.082031 C 311.984375 228.609375 308.558594 230.027344 304.988281 230.027344 L 14.011719 230.027344 C 10.441406 230.027344 7.015625 228.609375 4.492188 226.082031 C 1.96875 223.558594 0.550781 220.132812 0.550781 216.5625 L 0.550781 13.640625 C 0.550781 6.207031 6.578125 0.179688 14.011719 0.179688 Z M 14.011719 0.179688 " clip-rule="nonzero"/></clipPath><clipPath id="d439054ef3"><rect x="0" width="319" y="0" height="231"/></clipPath><clipPath id="44a8bd22a9"><path d="M 116.609375 69.359375 L 258.730469 69.359375 L 258.730469 211.480469 L 116.609375 211.480469 Z M 116.609375 69.359375 " clip-rule="nonzero"/></clipPath></defs><g clip-path="url(#5922db7221)"><g clip-path="url(#3ea9213f55)"><g transform="matrix(1, 0, 0, 1, 28, 26)"><g clip-path="url(#d439054ef3)"><g clip-path="url(#b1de798bec)"><g clip-path="url(#cdefe632eb)"><path fill="#d3d9dd" d="M 0.550781 0.179688 L 318.386719 0.179688 L 318.386719 230.027344 L 0.550781 230.027344 Z M 0.550781 0.179688 " fill-opacity="1" fill-rule="nonzero"/></g></g></g></g></g></g><g clip-path="url(#44a8bd22a9)"><path fill="#1d97bd" d="M 258.378906 140.246094 C 258.378906 179.394531 226.644531 211.132812 187.496094 211.132812 C 148.347656 211.132812 116.609375 179.394531 116.609375 140.246094 C 116.609375 101.097656 148.347656 69.359375 187.496094 69.359375 C 226.644531 69.359375 258.378906 101.097656 258.378906 140.246094 " fill-opacity="1" fill-rule="nonzero"/></g><path fill="#ffffff" d="M 236.394531 112.007812 L 225.132812 100.742188 L 168.859375 157.019531 L 146.773438 134.933594 L 135.507812 146.195312 L 168.859375 179.546875 L 236.394531 112.007812 " fill-opacity="1" fill-rule="nonzero"/><g fill="#1d97bd" fill-opacity="1"><g transform="translate(182.671658, 159.8166)"><g><path d="M -3.125 -11.125 C -2.6875 -11.5625 -2.257812 -11.859375 -1.84375 -12.015625 C -1.4375 -12.179688 -1.03125 -12.289062 -0.625 -12.34375 C -0.488281 -12.351562 -0.394531 -12.382812 -0.34375 -12.4375 C -0.21875 -12.5625 -0.332031 -12.84375 -0.6875 -13.28125 L -0.46875 -13.5 C -0.21875 -13.226562 0.0820312 -12.90625 0.4375 -12.53125 C 0.800781 -12.164062 1.285156 -11.679688 1.890625 -11.078125 L 1.65625 -10.84375 C 1.21875 -11.195312 0.804688 -11.472656 0.421875 -11.671875 C 0.0351562 -11.867188 -0.394531 -11.945312 -0.875 -11.90625 C -1.175781 -11.894531 -1.488281 -11.816406 -1.8125 -11.671875 C -2.132812 -11.523438 -2.414062 -11.332031 -2.65625 -11.09375 C -3.019531 -10.726562 -3.234375 -10.320312 -3.296875 -9.875 C -3.367188 -9.4375 -3.320312 -8.972656 -3.15625 -8.484375 C -3 -8.003906 -2.757812 -7.519531 -2.4375 -7.03125 C -2.113281 -6.539062 -1.734375 -6.078125 -1.296875 -5.640625 C -0.117188 -4.460938 0.90625 -3.765625 1.78125 -3.546875 C 2.65625 -3.328125 3.398438 -3.523438 4.015625 -4.140625 C 4.171875 -4.296875 4.285156 -4.445312 4.359375 -4.59375 C 4.441406 -4.75 4.492188 -4.890625 4.515625 -5.015625 C 4.546875 -5.191406 4.539062 -5.332031 4.5 -5.4375 C 4.457031 -5.539062 4.375 -5.65625 4.25 -5.78125 L 3.28125 -6.75 C 2.976562 -7.050781 2.726562 -7.25 2.53125 -7.34375 C 2.332031 -7.4375 2.132812 -7.441406 1.9375 -7.359375 C 1.738281 -7.273438 1.492188 -7.097656 1.203125 -6.828125 L 1.015625 -7.015625 C 1.148438 -7.148438 1.316406 -7.3125 1.515625 -7.5 C 1.722656 -7.695312 1.929688 -7.894531 2.140625 -8.09375 C 2.359375 -8.300781 2.554688 -8.492188 2.734375 -8.671875 C 3.015625 -8.953125 3.265625 -9.210938 3.484375 -9.453125 C 3.703125 -9.691406 3.882812 -9.882812 4.03125 -10.03125 L 4.21875 -9.84375 C 4.101562 -9.707031 4.035156 -9.585938 4.015625 -9.484375 C 3.992188 -9.378906 4.03125 -9.253906 4.125 -9.109375 C 4.21875 -8.960938 4.382812 -8.769531 4.625 -8.53125 L 6.578125 -6.578125 L 6.390625 -6.390625 C 6.265625 -6.492188 6.113281 -6.585938 5.9375 -6.671875 C 5.769531 -6.765625 5.632812 -6.757812 5.53125 -6.65625 C 5.488281 -6.613281 5.4375 -6.539062 5.375 -6.4375 C 5.320312 -6.34375 5.265625 -6.171875 5.203125 -5.921875 C 5.109375 -5.535156 4.972656 -5.160156 4.796875 -4.796875 C 4.617188 -4.429688 4.378906 -4.097656 4.078125 -3.796875 C 3.328125 -3.046875 2.546875 -2.546875 1.734375 -2.296875 C 0.921875 -2.046875 0.117188 -2.050781 -0.671875 -2.3125 C -1.472656 -2.582031 -2.242188 -3.085938 -2.984375 -3.828125 C -3.742188 -4.585938 -4.242188 -5.394531 -4.484375 -6.25 C -4.734375 -7.113281 -4.742188 -7.96875 -4.515625 -8.8125 C -4.285156 -9.65625 -3.820312 -10.425781 -3.125 -11.125 Z M -3.125 -11.125 "/></g></g></g><g fill="#1d97bd" fill-opacity="1"><g transform="translate(189.924384, 152.563874)"><g><path d="M -0.0625 -10.375 L 4.078125 -6.234375 C 4.378906 -5.929688 4.644531 -5.753906 4.875 -5.703125 C 5.101562 -5.648438 5.335938 -5.742188 5.578125 -5.984375 L 5.78125 -5.78125 C 5.5625 -5.601562 5.347656 -5.410156 5.140625 -5.203125 C 4.859375 -4.921875 4.609375 -4.648438 4.390625 -4.390625 C 4.179688 -4.140625 4 -3.882812 3.84375 -3.625 L 2.953125 -4.515625 C 3.117188 -4.015625 3.132812 -3.554688 3 -3.140625 C 2.863281 -2.722656 2.625 -2.34375 2.28125 -2 C 2 -1.71875 1.738281 -1.53125 1.5 -1.4375 C 1.257812 -1.34375 1.03125 -1.300781 0.8125 -1.3125 C 0.570312 -1.320312 0.328125 -1.40625 0.078125 -1.5625 C -0.160156 -1.726562 -0.441406 -1.972656 -0.765625 -2.296875 L -3.25 -4.78125 C -3.550781 -5.082031 -3.816406 -5.257812 -4.046875 -5.3125 C -4.273438 -5.363281 -4.515625 -5.265625 -4.765625 -5.015625 L -4.984375 -5.234375 C -4.753906 -5.421875 -4.539062 -5.613281 -4.34375 -5.8125 C -4.0625 -6.09375 -3.8125 -6.363281 -3.59375 -6.625 C -3.375 -6.882812 -3.191406 -7.140625 -3.046875 -7.390625 L 1.046875 -3.296875 C 1.210938 -3.128906 1.367188 -3 1.515625 -2.90625 C 1.671875 -2.820312 1.828125 -2.785156 1.984375 -2.796875 C 2.148438 -2.816406 2.3125 -2.90625 2.46875 -3.0625 C 2.644531 -3.238281 2.753906 -3.445312 2.796875 -3.6875 C 2.835938 -3.925781 2.816406 -4.175781 2.734375 -4.4375 C 2.660156 -4.707031 2.515625 -4.953125 2.296875 -5.171875 L -0.28125 -7.75 C -0.582031 -8.050781 -0.847656 -8.222656 -1.078125 -8.265625 C -1.316406 -8.316406 -1.554688 -8.222656 -1.796875 -7.984375 L -2.015625 -8.203125 C -1.785156 -8.390625 -1.566406 -8.585938 -1.359375 -8.796875 C -1.085938 -9.066406 -0.84375 -9.332031 -0.625 -9.59375 C -0.40625 -9.851562 -0.21875 -10.113281 -0.0625 -10.375 Z M -0.0625 -10.375 "/></g></g></g><g fill="#1d97bd" fill-opacity="1"><g transform="translate(195.904188, 146.58407)"><g><path d="M -1.40625 -9.0625 C -1.132812 -9.332031 -0.878906 -9.519531 -0.640625 -9.625 C -0.398438 -9.726562 -0.164062 -9.769531 0.0625 -9.75 C 0.289062 -9.726562 0.523438 -9.640625 0.765625 -9.484375 C 1.015625 -9.335938 1.304688 -9.097656 1.640625 -8.765625 L 4.28125 -6.125 C 4.550781 -5.851562 4.78125 -5.707031 4.96875 -5.6875 C 5.15625 -5.664062 5.351562 -5.757812 5.5625 -5.96875 L 5.765625 -5.765625 C 5.640625 -5.660156 5.453125 -5.492188 5.203125 -5.265625 C 4.953125 -5.035156 4.710938 -4.804688 4.484375 -4.578125 C 4.242188 -4.335938 4.015625 -4.097656 3.796875 -3.859375 C 3.578125 -3.617188 3.410156 -3.429688 3.296875 -3.296875 L 3.09375 -3.5 C 3.269531 -3.675781 3.34375 -3.851562 3.3125 -4.03125 C 3.28125 -4.207031 3.128906 -4.429688 2.859375 -4.703125 L -0.203125 -7.765625 C -0.367188 -7.929688 -0.523438 -8.0625 -0.671875 -8.15625 C -0.816406 -8.25 -0.960938 -8.289062 -1.109375 -8.28125 C -1.265625 -8.28125 -1.414062 -8.207031 -1.5625 -8.0625 C -1.726562 -7.894531 -1.832031 -7.679688 -1.875 -7.421875 C -1.925781 -7.171875 -1.910156 -6.914062 -1.828125 -6.65625 C -1.742188 -6.394531 -1.59375 -6.15625 -1.375 -5.9375 L 1.359375 -3.203125 C 1.628906 -2.929688 1.851562 -2.78125 2.03125 -2.75 C 2.21875 -2.726562 2.394531 -2.800781 2.5625 -2.96875 L 2.765625 -2.765625 C 2.648438 -2.671875 2.472656 -2.515625 2.234375 -2.296875 C 2.003906 -2.085938 1.78125 -1.875 1.5625 -1.65625 C 1.300781 -1.394531 1.046875 -1.128906 0.796875 -0.859375 C 0.546875 -0.585938 0.359375 -0.378906 0.234375 -0.234375 L 0.03125 -0.4375 C 0.257812 -0.664062 0.367188 -0.878906 0.359375 -1.078125 C 0.359375 -1.285156 0.222656 -1.523438 -0.046875 -1.796875 L -3.140625 -4.890625 C -3.441406 -5.191406 -3.707031 -5.363281 -3.9375 -5.40625 C -4.175781 -5.457031 -4.414062 -5.363281 -4.65625 -5.125 L -4.875 -5.34375 C -4.644531 -5.53125 -4.429688 -5.722656 -4.234375 -5.921875 C -3.953125 -6.203125 -3.703125 -6.472656 -3.484375 -6.734375 C -3.265625 -6.992188 -3.082031 -7.25 -2.9375 -7.5 L -2.03125 -6.59375 C -2.195312 -7.09375 -2.210938 -7.546875 -2.078125 -7.953125 C -1.953125 -8.367188 -1.726562 -8.738281 -1.40625 -9.0625 Z M 1.546875 -12.015625 C 1.828125 -12.296875 2.085938 -12.488281 2.328125 -12.59375 C 2.566406 -12.695312 2.800781 -12.738281 3.03125 -12.71875 C 3.257812 -12.695312 3.492188 -12.609375 3.734375 -12.453125 C 3.984375 -12.304688 4.273438 -12.066406 4.609375 -11.734375 L 7.25 -9.09375 C 7.519531 -8.820312 7.753906 -8.679688 7.953125 -8.671875 C 8.148438 -8.660156 8.367188 -8.773438 8.609375 -9.015625 L 8.8125 -8.8125 C 8.675781 -8.695312 8.472656 -8.515625 8.203125 -8.265625 C 7.941406 -8.023438 7.691406 -7.785156 7.453125 -7.546875 C 7.210938 -7.304688 6.984375 -7.066406 6.765625 -6.828125 C 6.546875 -6.585938 6.382812 -6.40625 6.28125 -6.28125 L 6.078125 -6.484375 C 6.253906 -6.660156 6.320312 -6.832031 6.28125 -7 C 6.25 -7.175781 6.097656 -7.398438 5.828125 -7.671875 L 2.765625 -10.734375 C 2.597656 -10.898438 2.4375 -11.023438 2.28125 -11.109375 C 2.132812 -11.203125 1.984375 -11.242188 1.828125 -11.234375 C 1.671875 -11.222656 1.507812 -11.132812 1.34375 -10.96875 C 1.175781 -10.800781 1.070312 -10.585938 1.03125 -10.328125 C 1 -10.078125 1.023438 -9.816406 1.109375 -9.546875 C 1.203125 -9.285156 1.347656 -9.046875 1.546875 -8.828125 L 0.90625 -9.375 C 0.6875 -9.945312 0.65625 -10.445312 0.8125 -10.875 C 0.96875 -11.300781 1.210938 -11.679688 1.546875 -12.015625 Z M 1.546875 -12.015625 "/></g></g></g><g fill="#1d97bd" fill-opacity="1"><g transform="translate(204.83442, 137.653838)"><g><path d="M -1.609375 -8.859375 C -1.097656 -9.367188 -0.46875 -9.582031 0.28125 -9.5 C 1.039062 -9.425781 1.851562 -8.957031 2.71875 -8.09375 C 3.40625 -7.40625 3.847656 -6.75 4.046875 -6.125 C 4.253906 -5.507812 4.28125 -4.9375 4.125 -4.40625 C 3.96875 -3.875 3.691406 -3.410156 3.296875 -3.015625 C 3.015625 -2.734375 2.710938 -2.523438 2.390625 -2.390625 C 2.078125 -2.265625 1.726562 -2.21875 1.34375 -2.25 L 1.421875 -2.453125 C 1.703125 -2.421875 1.957031 -2.445312 2.1875 -2.53125 C 2.425781 -2.625 2.625 -2.75 2.78125 -2.90625 C 3.132812 -3.257812 3.195312 -3.734375 2.96875 -4.328125 C 2.738281 -4.921875 2.207031 -5.632812 1.375 -6.46875 C 0.8125 -7.03125 0.332031 -7.441406 -0.0625 -7.703125 C -0.46875 -7.972656 -0.804688 -8.109375 -1.078125 -8.109375 C -1.359375 -8.117188 -1.59375 -8.03125 -1.78125 -7.84375 C -2 -7.625 -2.109375 -7.320312 -2.109375 -6.9375 C -2.117188 -6.5625 -1.972656 -6.191406 -1.671875 -5.828125 L -2.0625 -6.125 C -2.320312 -6.613281 -2.40625 -7.097656 -2.3125 -7.578125 C -2.21875 -8.054688 -1.984375 -8.484375 -1.609375 -8.859375 Z M -5.609375 -9.828125 L 1.90625 -2.3125 C 1.71875 -2.164062 1.550781 -1.992188 1.40625 -1.796875 C 1.257812 -1.597656 1.144531 -1.394531 1.0625 -1.1875 C 0.988281 -0.988281 0.941406 -0.796875 0.921875 -0.609375 L 0.6875 -0.5625 C 0.625 -0.664062 0.550781 -0.769531 0.46875 -0.875 C 0.394531 -0.988281 0.3125 -1.09375 0.21875 -1.1875 L -5.828125 -7.234375 C -6.117188 -7.523438 -6.382812 -7.695312 -6.625 -7.75 C -6.863281 -7.800781 -7.101562 -7.707031 -7.34375 -7.46875 L -7.546875 -7.671875 C -7.316406 -7.859375 -7.101562 -8.050781 -6.90625 -8.25 C -6.632812 -8.519531 -6.390625 -8.785156 -6.171875 -9.046875 C -5.953125 -9.304688 -5.765625 -9.566406 -5.609375 -9.828125 Z M -5.609375 -9.828125 "/></g></g></g><g fill="#1d97bd" fill-opacity="1"><g transform="translate(210.616871, 131.871387)"><g><path d="M -2.453125 -8.015625 C -1.972656 -8.492188 -1.460938 -8.820312 -0.921875 -9 C -0.390625 -9.1875 0.171875 -9.1875 0.765625 -9 C 1.367188 -8.820312 2 -8.40625 2.65625 -7.75 C 3.3125 -7.09375 3.726562 -6.460938 3.90625 -5.859375 C 4.09375 -5.265625 4.09375 -4.695312 3.90625 -4.15625 C 3.726562 -3.625 3.398438 -3.117188 2.921875 -2.640625 C 2.453125 -2.171875 1.945312 -1.84375 1.40625 -1.65625 C 0.863281 -1.46875 0.296875 -1.460938 -0.296875 -1.640625 C -0.898438 -1.828125 -1.53125 -2.25 -2.1875 -2.90625 C -2.84375 -3.5625 -3.257812 -4.1875 -3.4375 -4.78125 C -3.625 -5.382812 -3.625 -5.957031 -3.4375 -6.5 C -3.25 -7.039062 -2.921875 -7.546875 -2.453125 -8.015625 Z M -2.25 -7.8125 C -2.507812 -7.550781 -2.53125 -7.132812 -2.3125 -6.5625 C -2.101562 -6 -1.5625 -5.28125 -0.6875 -4.40625 C 0.195312 -3.519531 0.921875 -2.972656 1.484375 -2.765625 C 2.046875 -2.554688 2.457031 -2.582031 2.71875 -2.84375 C 2.988281 -3.113281 3.019531 -3.53125 2.8125 -4.09375 C 2.601562 -4.65625 2.054688 -5.378906 1.171875 -6.265625 C 0.296875 -7.140625 -0.421875 -7.679688 -0.984375 -7.890625 C -1.554688 -8.109375 -1.976562 -8.082031 -2.25 -7.8125 Z M -2.25 -7.8125 "/></g></g></g><g fill="#1d97bd" fill-opacity="1"><g transform="translate(216.1921, 126.296158)"><g><path d="M -2.453125 -8.015625 C -1.972656 -8.492188 -1.460938 -8.820312 -0.921875 -9 C -0.390625 -9.1875 0.171875 -9.1875 0.765625 -9 C 1.367188 -8.820312 2 -8.40625 2.65625 -7.75 C 3.3125 -7.09375 3.726562 -6.460938 3.90625 -5.859375 C 4.09375 -5.265625 4.09375 -4.695312 3.90625 -4.15625 C 3.726562 -3.625 3.398438 -3.117188 2.921875 -2.640625 C 2.453125 -2.171875 1.945312 -1.84375 1.40625 -1.65625 C 0.863281 -1.46875 0.296875 -1.460938 -0.296875 -1.640625 C -0.898438 -1.828125 -1.53125 -2.25 -2.1875 -2.90625 C -2.84375 -3.5625 -3.257812 -4.1875 -3.4375 -4.78125 C -3.625 -5.382812 -3.625 -5.957031 -3.4375 -6.5 C -3.25 -7.039062 -2.921875 -7.546875 -2.453125 -8.015625 Z M -2.25 -7.8125 C -2.507812 -7.550781 -2.53125 -7.132812 -2.3125 -6.5625 C -2.101562 -6 -1.5625 -5.28125 -0.6875 -4.40625 C 0.195312 -3.519531 0.921875 -2.972656 1.484375 -2.765625 C 2.046875 -2.554688 2.457031 -2.582031 2.71875 -2.84375 C 2.988281 -3.113281 3.019531 -3.53125 2.8125 -4.09375 C 2.601562 -4.65625 2.054688 -5.378906 1.171875 -6.265625 C 0.296875 -7.140625 -0.421875 -7.679688 -0.984375 -7.890625 C -1.554688 -8.109375 -1.976562 -8.082031 -2.25 -7.8125 Z M -2.25 -7.8125 "/></g></g></g><g fill="#1d97bd" fill-opacity="1"><g transform="translate(221.767329, 120.720929)"><g><path d="M -4.46875 -8.96875 L -2.859375 -7.359375 L -1.703125 -8.515625 L -1.5 -8.3125 L -2.65625 -7.15625 L 1.328125 -3.171875 C 1.523438 -2.972656 1.695312 -2.863281 1.84375 -2.84375 C 2 -2.832031 2.148438 -2.898438 2.296875 -3.046875 C 2.410156 -3.160156 2.484375 -3.320312 2.515625 -3.53125 C 2.546875 -3.738281 2.5 -4 2.375 -4.3125 L 2.640625 -4.390625 C 2.828125 -3.992188 2.910156 -3.59375 2.890625 -3.1875 C 2.867188 -2.78125 2.675781 -2.394531 2.3125 -2.03125 C 2.082031 -1.800781 1.859375 -1.632812 1.640625 -1.53125 C 1.421875 -1.425781 1.195312 -1.375 0.96875 -1.375 C 0.6875 -1.382812 0.410156 -1.46875 0.140625 -1.625 C -0.117188 -1.789062 -0.414062 -2.039062 -0.75 -2.375 L -4.09375 -5.71875 L -4.921875 -4.890625 L -5.125 -5.09375 L -4.296875 -5.921875 L -5.59375 -7.21875 C -5.3125 -7.5 -5.078125 -7.78125 -4.890625 -8.0625 C -4.703125 -8.34375 -4.5625 -8.644531 -4.46875 -8.96875 Z M -4.46875 -8.96875 "/></g></g></g></svg>