<svg xmlns="http://www.w3.org/2000/svg" xmlns:xlink="http://www.w3.org/1999/xlink" width="500" zoomAndPan="magnify" viewBox="0 0 375 281.25" height="375" preserveAspectRatio="xMidYMid meet" version="1.0"><defs><g/><clipPath id="9a867a99d8"><path d="M 28.550781 26.179688 L 347 26.179688 L 347 256.027344 L 28.550781 256.027344 Z M 28.550781 26.179688 " clip-rule="nonzero"/></clipPath><clipPath id="f19515f6cf"><path d="M 42.011719 26.179688 L 332.988281 26.179688 C 336.558594 26.179688 339.984375 27.597656 342.507812 30.121094 C 345.03125 32.644531 346.449219 36.070312 346.449219 39.640625 L 346.449219 242.5625 C 346.449219 246.132812 345.03125 249.558594 342.507812 252.082031 C 339.984375 254.609375 336.558594 256.027344 332.988281 256.027344 L 42.011719 256.027344 C 38.441406 256.027344 35.015625 254.609375 32.492188 252.082031 C 29.96875 249.558594 28.550781 246.132812 28.550781 242.5625 L 28.550781 39.640625 C 28.550781 32.207031 34.578125 26.179688 42.011719 26.179688 Z M 42.011719 26.179688 " clip-rule="nonzero"/></clipPath><clipPath id="7ce25ed907"><path d="M 0.550781 0.179688 L 318.617188 0.179688 L 318.617188 230.027344 L 0.550781 230.027344 Z M 0.550781 0.179688 " clip-rule="nonzero"/></clipPath><clipPath id="16b23fe0ab"><path d="M 14.011719 0.179688 L 304.988281 0.179688 C 308.558594 0.179688 311.984375 1.597656 314.507812 4.121094 C 317.03125 6.644531 318.449219 10.070312 318.449219 13.640625 L 318.449219 216.5625 C 318.449219 220.132812 317.03125 223.558594 314.507812 226.082031 C 311.984375 228.609375 308.558594 230.027344 304.988281 230.027344 L 14.011719 230.027344 C 10.441406 230.027344 7.015625 228.609375 4.492188 226.082031 C 1.96875 223.558594 0.550781 220.132812 0.550781 216.5625 L 0.550781 13.640625 C 0.550781 6.207031 6.578125 0.179688 14.011719 0.179688 Z M 14.011719 0.179688 " clip-rule="nonzero"/></clipPath><clipPath id="86010d7c93"><rect x="0" width="319" y="0" height="231"/></clipPath><clipPath id="9d27285244"><path d="M 152.003906 173.886719 L 223 173.886719 L 223 244.945312 L 152.003906 244.945312 Z M 152.003906 173.886719 " clip-rule="nonzero"/></clipPath><clipPath id="0ebc6236a4"><path d="M 1 0.207031 L 19 0.207031 L 19 26 L 1 26 Z M 1 0.207031 " clip-rule="nonzero"/></clipPath><clipPath id="9f3406cf84"><rect x="0" width="106" y="0" height="35"/></clipPath></defs><g clip-path="url(#9a867a99d8)"><g clip-path="url(#f19515f6cf)"><g transform="matrix(1, 0, 0, 1, 28, 26)"><g clip-path="url(#86010d7c93)"><g clip-path="url(#7ce25ed907)"><g clip-path="url(#16b23fe0ab)"><path fill="#d3d9dd" d="M 0.550781 0.179688 L 318.386719 0.179688 L 318.386719 230.027344 L 0.550781 230.027344 Z M 0.550781 0.179688 " fill-opacity="1" fill-rule="nonzero"/></g></g></g></g></g></g><g clip-path="url(#9d27285244)"><path fill="#1d97bd" d="M 222.988281 209.378906 C 222.988281 228.980469 207.097656 244.867188 187.5 244.867188 C 167.898438 244.867188 152.007812 228.980469 152.007812 209.378906 C 152.007812 189.777344 167.898438 173.886719 187.5 173.886719 C 207.097656 173.886719 222.988281 189.777344 222.988281 209.378906 " fill-opacity="1" fill-rule="nonzero"/></g><path fill="#ffffff" d="M 182.414062 227.128906 L 163.5 208.214844 L 169.917969 201.796875 L 182.414062 214.292969 L 205.082031 191.628906 L 211.5 198.046875 L 182.414062 227.128906 " fill-opacity="1" fill-rule="nonzero"/><g transform="matrix(1, 0, 0, 1, 135, 57)"><g clip-path="url(#9f3406cf84)"><g clip-path="url(#0ebc6236a4)"><g fill="#000000" fill-opacity="1"><g transform="translate(0.144633, 24.652543)"><g><path d="M 15.375 -10.84375 L 10.359375 -10.84375 L 10.359375 -13.5625 L 18.78125 -13.5625 L 18.78125 -1.84375 C 17.78125 -1.113281 16.617188 -0.5625 15.296875 -0.1875 C 13.984375 0.1875 12.710938 0.375 11.484375 0.375 C 9.523438 0.375 7.910156 0.0234375 6.640625 -0.671875 C 5.367188 -1.378906 4.359375 -2.320312 3.609375 -3.5 C 2.859375 -4.6875 2.328125 -6.050781 2.015625 -7.59375 C 1.710938 -9.144531 1.5625 -10.769531 1.5625 -12.46875 C 1.5625 -13.988281 1.71875 -15.441406 2.03125 -16.828125 C 2.351562 -18.210938 2.875 -19.425781 3.59375 -20.46875 C 4.3125 -21.519531 5.257812 -22.351562 6.4375 -22.96875 C 7.625 -23.582031 9.078125 -23.890625 10.796875 -23.890625 C 11.847656 -23.890625 12.847656 -23.757812 13.796875 -23.5 C 14.753906 -23.238281 15.585938 -22.832031 16.296875 -22.28125 C 17.015625 -21.738281 17.582031 -21.046875 18 -20.203125 C 18.425781 -19.367188 18.640625 -18.367188 18.640625 -17.203125 L 14.859375 -17.203125 C 14.859375 -18.484375 14.488281 -19.460938 13.75 -20.140625 C 13.007812 -20.816406 12.015625 -21.15625 10.765625 -21.15625 C 9.585938 -21.15625 8.640625 -20.878906 7.921875 -20.328125 C 7.203125 -19.773438 6.648438 -19.070312 6.265625 -18.21875 C 5.878906 -17.363281 5.625 -16.425781 5.5 -15.40625 C 5.375 -14.382812 5.3125 -13.40625 5.3125 -12.46875 C 5.3125 -11.40625 5.367188 -10.28125 5.484375 -9.09375 C 5.597656 -7.914062 5.859375 -6.828125 6.265625 -5.828125 C 6.679688 -4.828125 7.289062 -3.992188 8.09375 -3.328125 C 8.894531 -2.671875 9.988281 -2.34375 11.375 -2.34375 C 11.582031 -2.34375 11.878906 -2.359375 12.265625 -2.390625 C 12.648438 -2.429688 13.046875 -2.484375 13.453125 -2.546875 C 13.867188 -2.617188 14.25 -2.710938 14.59375 -2.828125 C 14.945312 -2.941406 15.207031 -3.085938 15.375 -3.265625 Z M 15.375 -10.84375 "/></g></g></g></g><g fill="#000000" fill-opacity="1"><g transform="translate(20.963652, 24.652543)"><g><path d="M 10.765625 -11.34375 C 10.765625 -12.207031 10.484375 -12.898438 9.921875 -13.421875 C 9.367188 -13.941406 8.660156 -14.203125 7.796875 -14.203125 C 7.140625 -14.203125 6.546875 -14.039062 6.015625 -13.71875 C 5.484375 -13.40625 5.082031 -12.945312 4.8125 -12.34375 C 4.644531 -11.976562 4.5625 -11.644531 4.5625 -11.34375 Z M 13.453125 -0.171875 C 12.773438 -0.015625 12.109375 0.113281 11.453125 0.21875 C 10.796875 0.320312 10.113281 0.375 9.40625 0.375 C 7.945312 0.375 6.710938 0.144531 5.703125 -0.3125 C 4.691406 -0.78125 3.863281 -1.429688 3.21875 -2.265625 C 2.570312 -3.097656 2.097656 -4.078125 1.796875 -5.203125 C 1.503906 -6.328125 1.359375 -7.554688 1.359375 -8.890625 C 1.359375 -10.003906 1.484375 -11.03125 1.734375 -11.96875 C 1.984375 -12.914062 2.375 -13.726562 2.90625 -14.40625 C 3.445312 -15.09375 4.132812 -15.628906 4.96875 -16.015625 C 5.8125 -16.398438 6.8125 -16.59375 7.96875 -16.59375 C 8.945312 -16.59375 9.804688 -16.425781 10.546875 -16.09375 C 11.285156 -15.769531 11.898438 -15.316406 12.390625 -14.734375 C 12.878906 -14.160156 13.238281 -13.472656 13.46875 -12.671875 C 13.707031 -11.878906 13.828125 -11.019531 13.828125 -10.09375 L 13.828125 -9.296875 L 4.4375 -9.296875 C 4.4375 -8.390625 4.550781 -7.5 4.78125 -6.625 C 5.019531 -5.75 5.382812 -4.96875 5.875 -4.28125 C 6.363281 -3.601562 6.984375 -3.054688 7.734375 -2.640625 C 8.484375 -2.222656 9.367188 -2.015625 10.390625 -2.015625 C 10.941406 -2.015625 11.46875 -2.0625 11.96875 -2.15625 C 12.46875 -2.257812 12.960938 -2.40625 13.453125 -2.59375 Z M 13.453125 -0.171875 "/></g></g></g><g fill="#000000" fill-opacity="1"><g transform="translate(36.092371, 24.652543)"><g><path d="M 12.09375 0 L 12.09375 -8.859375 C 12.09375 -9.179688 12.09375 -9.507812 12.09375 -9.84375 C 12.09375 -10.1875 12.082031 -10.53125 12.0625 -10.875 C 12.019531 -11.625 11.859375 -12.253906 11.578125 -12.765625 C 11.304688 -13.273438 10.738281 -13.53125 9.875 -13.53125 C 9.132812 -13.53125 8.488281 -13.296875 7.9375 -12.828125 C 7.394531 -12.359375 6.953125 -11.785156 6.609375 -11.109375 C 6.265625 -10.429688 6.007812 -9.703125 5.84375 -8.921875 C 5.675781 -8.148438 5.59375 -7.472656 5.59375 -6.890625 L 5.59375 0 L 2.515625 0 L 2.515625 -16.21875 L 5.59375 -16.21875 L 5.59375 -12.75 L 5.65625 -12.75 C 6.113281 -13.90625 6.757812 -14.832031 7.59375 -15.53125 C 8.4375 -16.238281 9.503906 -16.59375 10.796875 -16.59375 C 11.617188 -16.59375 12.304688 -16.441406 12.859375 -16.140625 C 13.421875 -15.847656 13.867188 -15.457031 14.203125 -14.96875 C 14.546875 -14.488281 14.789062 -13.921875 14.9375 -13.265625 C 15.09375 -12.617188 15.171875 -11.945312 15.171875 -11.25 L 15.171875 0 Z M 12.09375 0 "/></g></g></g><g fill="#000000" fill-opacity="1"><g transform="translate(53.776615, 24.652543)"><g><path d="M 10.765625 -11.34375 C 10.765625 -12.207031 10.484375 -12.898438 9.921875 -13.421875 C 9.367188 -13.941406 8.660156 -14.203125 7.796875 -14.203125 C 7.140625 -14.203125 6.546875 -14.039062 6.015625 -13.71875 C 5.484375 -13.40625 5.082031 -12.945312 4.8125 -12.34375 C 4.644531 -11.976562 4.5625 -11.644531 4.5625 -11.34375 Z M 13.453125 -0.171875 C 12.773438 -0.015625 12.109375 0.113281 11.453125 0.21875 C 10.796875 0.320312 10.113281 0.375 9.40625 0.375 C 7.945312 0.375 6.710938 0.144531 5.703125 -0.3125 C 4.691406 -0.78125 3.863281 -1.429688 3.21875 -2.265625 C 2.570312 -3.097656 2.097656 -4.078125 1.796875 -5.203125 C 1.503906 -6.328125 1.359375 -7.554688 1.359375 -8.890625 C 1.359375 -10.003906 1.484375 -11.03125 1.734375 -11.96875 C 1.984375 -12.914062 2.375 -13.726562 2.90625 -14.40625 C 3.445312 -15.09375 4.132812 -15.628906 4.96875 -16.015625 C 5.8125 -16.398438 6.8125 -16.59375 7.96875 -16.59375 C 8.945312 -16.59375 9.804688 -16.425781 10.546875 -16.09375 C 11.285156 -15.769531 11.898438 -15.316406 12.390625 -14.734375 C 12.878906 -14.160156 13.238281 -13.472656 13.46875 -12.671875 C 13.707031 -11.878906 13.828125 -11.019531 13.828125 -10.09375 L 13.828125 -9.296875 L 4.4375 -9.296875 C 4.4375 -8.390625 4.550781 -7.5 4.78125 -6.625 C 5.019531 -5.75 5.382812 -4.96875 5.875 -4.28125 C 6.363281 -3.601562 6.984375 -3.054688 7.734375 -2.640625 C 8.484375 -2.222656 9.367188 -2.015625 10.390625 -2.015625 C 10.941406 -2.015625 11.46875 -2.0625 11.96875 -2.15625 C 12.46875 -2.257812 12.960938 -2.40625 13.453125 -2.59375 Z M 13.453125 -0.171875 "/></g></g></g><g fill="#000000" fill-opacity="1"><g transform="translate(68.905333, 24.652543)"><g><path d="M 2.515625 0 L 2.515625 -16.21875 L 5.59375 -16.21875 L 5.59375 -12.953125 L 5.65625 -12.953125 C 6.039062 -14.109375 6.664062 -15.003906 7.53125 -15.640625 C 8.394531 -16.273438 9.441406 -16.59375 10.671875 -16.59375 L 10.671875 -13.25 C 9.691406 -13.25 8.878906 -13.082031 8.234375 -12.75 C 7.585938 -12.425781 7.0625 -11.972656 6.65625 -11.390625 C 6.257812 -10.816406 5.984375 -10.144531 5.828125 -9.375 C 5.671875 -8.601562 5.59375 -7.773438 5.59375 -6.890625 L 5.59375 0 Z M 2.515625 0 "/></g></g></g><g fill="#000000" fill-opacity="1"><g transform="translate(80.251869, 24.652543)"><g><path d="M 10.328125 -7.265625 L 9.71875 -7.265625 C 9.238281 -7.265625 8.710938 -7.207031 8.140625 -7.09375 C 7.578125 -6.976562 7.054688 -6.796875 6.578125 -6.546875 C 6.097656 -6.296875 5.691406 -5.960938 5.359375 -5.546875 C 5.035156 -5.140625 4.875 -4.65625 4.875 -4.09375 C 4.875 -3.59375 5.023438 -3.117188 5.328125 -2.671875 C 5.640625 -2.234375 6.078125 -2.015625 6.640625 -2.015625 C 7.160156 -2.015625 7.648438 -2.148438 8.109375 -2.421875 C 8.566406 -2.691406 8.957031 -3.035156 9.28125 -3.453125 C 9.613281 -3.878906 9.867188 -4.347656 10.046875 -4.859375 C 10.234375 -5.367188 10.328125 -5.863281 10.328125 -6.34375 Z M 10.328125 0 L 10.328125 -2.015625 L 10.25 -2.015625 C 9.894531 -1.242188 9.316406 -0.648438 8.515625 -0.234375 C 7.722656 0.171875 6.90625 0.375 6.0625 0.375 C 4.695312 0.375 3.585938 0 2.734375 -0.75 C 1.890625 -1.5 1.46875 -2.578125 1.46875 -3.984375 C 1.46875 -5.117188 1.757812 -6.035156 2.34375 -6.734375 C 2.9375 -7.441406 3.675781 -7.984375 4.5625 -8.359375 C 5.445312 -8.734375 6.40625 -8.984375 7.4375 -9.109375 C 8.476562 -9.234375 9.441406 -9.296875 10.328125 -9.296875 L 10.328125 -11.796875 C 10.328125 -12.628906 10.082031 -13.238281 9.59375 -13.625 C 9.101562 -14.007812 8.519531 -14.203125 7.84375 -14.203125 C 7.039062 -14.203125 6.40625 -13.988281 5.9375 -13.5625 C 5.476562 -13.132812 5.25 -12.519531 5.25 -11.71875 L 2.015625 -11.71875 C 2.015625 -12.632812 2.175781 -13.394531 2.5 -14 C 2.832031 -14.613281 3.273438 -15.113281 3.828125 -15.5 C 4.390625 -15.882812 5.03125 -16.160156 5.75 -16.328125 C 6.476562 -16.503906 7.253906 -16.59375 8.078125 -16.59375 C 11.617188 -16.59375 13.390625 -14.851562 13.390625 -11.375 L 13.390625 0 Z M 10.328125 0 "/></g></g></g><g fill="#000000" fill-opacity="1"><g transform="translate(96.027983, 24.652543)"><g><path d="M 2.859375 0 L 2.859375 -23.515625 L 5.921875 -23.515625 L 5.921875 0 Z M 2.859375 0 "/></g></g></g></g></g><g fill="#000000" fill-opacity="1"><g transform="translate(71.475023, 121.280477)"><g><path d="M 6.71875 -6.65625 L 10.9375 -6.65625 L 10.9375 0 L 9.421875 0 L 9.421875 -1.25 C 9.003906 -0.882812 8.492188 -0.546875 7.890625 -0.234375 C 7.296875 0.0664062 6.632812 0.21875 5.90625 0.21875 C 5.175781 0.21875 4.503906 0.078125 3.890625 -0.203125 C 3.285156 -0.492188 2.757812 -0.910156 2.3125 -1.453125 C 1.875 -1.992188 1.523438 -2.644531 1.265625 -3.40625 C 1.015625 -4.164062 0.890625 -5.015625 0.890625 -5.953125 C 0.890625 -6.960938 1.019531 -7.882812 1.28125 -8.71875 C 1.539062 -9.550781 1.914062 -10.269531 2.40625 -10.875 C 2.894531 -11.476562 3.492188 -11.945312 4.203125 -12.28125 C 4.921875 -12.613281 5.734375 -12.78125 6.640625 -12.78125 C 7.429688 -12.78125 8.128906 -12.679688 8.734375 -12.484375 C 9.335938 -12.296875 9.910156 -12.054688 10.453125 -11.765625 L 9.828125 -10.34375 C 9.316406 -10.613281 8.800781 -10.835938 8.28125 -11.015625 C 7.769531 -11.203125 7.191406 -11.296875 6.546875 -11.296875 C 5.984375 -11.296875 5.460938 -11.179688 4.984375 -10.953125 C 4.503906 -10.722656 4.09375 -10.382812 3.75 -9.9375 C 3.40625 -9.5 3.132812 -8.953125 2.9375 -8.296875 C 2.738281 -7.648438 2.640625 -6.90625 2.640625 -6.0625 C 2.640625 -5.3125 2.726562 -4.640625 2.90625 -4.046875 C 3.082031 -3.453125 3.332031 -2.945312 3.65625 -2.53125 C 3.976562 -2.125 4.363281 -1.8125 4.8125 -1.59375 C 5.269531 -1.382812 5.765625 -1.28125 6.296875 -1.28125 C 6.628906 -1.28125 6.945312 -1.316406 7.25 -1.390625 C 7.550781 -1.472656 7.828125 -1.578125 8.078125 -1.703125 C 8.328125 -1.828125 8.554688 -1.960938 8.765625 -2.109375 C 8.972656 -2.253906 9.15625 -2.40625 9.3125 -2.5625 L 9.3125 -5.3125 L 6.71875 -5.3125 Z M 6.71875 -6.65625 "/></g></g></g><g fill="#000000" fill-opacity="1"><g transform="translate(83.574718, 121.280477)"><g><path d="M 8.359375 -4.671875 C 8.359375 -5.140625 8.285156 -5.582031 8.140625 -6 C 7.992188 -6.414062 7.785156 -6.78125 7.515625 -7.09375 C 7.242188 -7.40625 6.925781 -7.648438 6.5625 -7.828125 C 6.195312 -8.015625 5.800781 -8.109375 5.375 -8.109375 C 4.425781 -8.109375 3.6875 -7.796875 3.15625 -7.171875 C 2.632812 -6.554688 2.375 -5.734375 2.375 -4.703125 C 2.375 -4.234375 2.445312 -3.785156 2.59375 -3.359375 C 2.738281 -2.941406 2.945312 -2.570312 3.21875 -2.25 C 3.488281 -1.9375 3.804688 -1.6875 4.171875 -1.5 C 4.535156 -1.3125 4.9375 -1.21875 5.375 -1.21875 C 5.832031 -1.21875 6.25 -1.300781 6.625 -1.46875 C 7 -1.632812 7.3125 -1.867188 7.5625 -2.171875 C 7.820312 -2.484375 8.019531 -2.847656 8.15625 -3.265625 C 8.289062 -3.679688 8.359375 -4.148438 8.359375 -4.671875 Z M 0.71875 -4.671875 C 0.71875 -5.421875 0.835938 -6.097656 1.078125 -6.703125 C 1.316406 -7.304688 1.640625 -7.816406 2.046875 -8.234375 C 2.460938 -8.660156 2.953125 -8.984375 3.515625 -9.203125 C 4.085938 -9.429688 4.707031 -9.546875 5.375 -9.546875 C 6.019531 -9.546875 6.625 -9.429688 7.1875 -9.203125 C 7.757812 -8.984375 8.253906 -8.660156 8.671875 -8.234375 C 9.085938 -7.816406 9.414062 -7.304688 9.65625 -6.703125 C 9.894531 -6.109375 10.015625 -5.441406 10.015625 -4.703125 C 10.015625 -3.960938 9.894531 -3.289062 9.65625 -2.6875 C 9.425781 -2.082031 9.101562 -1.5625 8.6875 -1.125 C 8.269531 -0.695312 7.773438 -0.363281 7.203125 -0.125 C 6.640625 0.101562 6.03125 0.21875 5.375 0.21875 C 4.695312 0.21875 4.070312 0.0976562 3.5 -0.140625 C 2.9375 -0.378906 2.445312 -0.710938 2.03125 -1.140625 C 1.625 -1.578125 1.300781 -2.09375 1.0625 -2.6875 C 0.832031 -3.289062 0.71875 -3.953125 0.71875 -4.671875 Z M 0.71875 -4.671875 "/></g></g></g><g fill="#000000" fill-opacity="1"><g transform="translate(94.310059, 121.280477)"><g><path d="M 2.171875 -11.9375 L 3.40625 -11.9375 L 3.40625 -9 L 6 -9 L 6 -7.59375 L 3.40625 -7.59375 L 3.40625 -3.09375 C 3.40625 -2.738281 3.441406 -2.441406 3.515625 -2.203125 C 3.597656 -1.960938 3.707031 -1.769531 3.84375 -1.625 C 3.976562 -1.488281 4.132812 -1.382812 4.3125 -1.3125 C 4.5 -1.25 4.695312 -1.21875 4.90625 -1.21875 C 5.195312 -1.21875 5.472656 -1.265625 5.734375 -1.359375 C 6.003906 -1.460938 6.257812 -1.578125 6.5 -1.703125 L 6.953125 -0.40625 C 6.710938 -0.269531 6.390625 -0.132812 5.984375 0 C 5.578125 0.144531 5.148438 0.21875 4.703125 0.21875 C 3.804688 0.21875 3.097656 -0.0703125 2.578125 -0.65625 C 2.054688 -1.25 1.796875 -2.101562 1.796875 -3.21875 L 1.796875 -7.59375 L 0.171875 -7.59375 L 0.171875 -9 L 1.828125 -9 Z M 2.171875 -11.9375 "/></g></g></g><g fill="#000000" fill-opacity="1"><g transform="translate(101.437031, 121.280477)"><g/></g></g><g fill="#000000" fill-opacity="1"><g transform="translate(106.822655, 121.280477)"><g><path d="M 0.8125 -4.609375 C 0.8125 -5.304688 0.914062 -5.957031 1.125 -6.5625 C 1.34375 -7.164062 1.644531 -7.6875 2.03125 -8.125 C 2.425781 -8.570312 2.894531 -8.921875 3.4375 -9.171875 C 3.976562 -9.421875 4.570312 -9.546875 5.21875 -9.546875 C 5.757812 -9.546875 6.25 -9.453125 6.6875 -9.265625 C 7.125 -9.085938 7.503906 -8.859375 7.828125 -8.578125 L 7.828125 -9.328125 L 9.296875 -9.328125 L 9.296875 -2.265625 C 9.296875 -1.804688 9.40625 -1.507812 9.625 -1.375 C 9.851562 -1.238281 10.097656 -1.171875 10.359375 -1.171875 L 10.015625 0.09375 C 8.867188 0.09375 8.175781 -0.375 7.9375 -1.3125 C 7.789062 -1.113281 7.625 -0.921875 7.4375 -0.734375 C 7.25 -0.554688 7.035156 -0.394531 6.796875 -0.25 C 6.554688 -0.101562 6.285156 0.0078125 5.984375 0.09375 C 5.691406 0.175781 5.367188 0.21875 5.015625 0.21875 C 4.421875 0.21875 3.867188 0.101562 3.359375 -0.125 C 2.859375 -0.351562 2.414062 -0.675781 2.03125 -1.09375 C 1.65625 -1.507812 1.359375 -2.015625 1.140625 -2.609375 C 0.921875 -3.203125 0.8125 -3.867188 0.8125 -4.609375 Z M 5.375 -1.21875 C 5.820312 -1.21875 6.25 -1.320312 6.65625 -1.53125 C 7.0625 -1.75 7.40625 -2.035156 7.6875 -2.390625 L 7.6875 -7.390625 C 7.363281 -7.617188 7.003906 -7.800781 6.609375 -7.9375 C 6.222656 -8.082031 5.816406 -8.15625 5.390625 -8.15625 C 4.953125 -8.15625 4.550781 -8.066406 4.1875 -7.890625 C 3.832031 -7.722656 3.523438 -7.488281 3.265625 -7.1875 C 3.015625 -6.882812 2.816406 -6.515625 2.671875 -6.078125 C 2.523438 -5.648438 2.453125 -5.179688 2.453125 -4.671875 C 2.453125 -4.160156 2.523438 -3.691406 2.671875 -3.265625 C 2.816406 -2.847656 3.019531 -2.484375 3.28125 -2.171875 C 3.550781 -1.867188 3.859375 -1.632812 4.203125 -1.46875 C 4.554688 -1.300781 4.945312 -1.21875 5.375 -1.21875 Z M 5.375 -1.21875 "/></g></g></g><g fill="#000000" fill-opacity="1"><g transform="translate(117.899082, 121.280477)"><g/></g></g><g fill="#000000" fill-opacity="1"><g transform="translate(123.284707, 121.280477)"><g><path d="M 2.171875 -11.9375 L 3.40625 -11.9375 L 3.40625 -9 L 6 -9 L 6 -7.59375 L 3.40625 -7.59375 L 3.40625 -3.09375 C 3.40625 -2.738281 3.441406 -2.441406 3.515625 -2.203125 C 3.597656 -1.960938 3.707031 -1.769531 3.84375 -1.625 C 3.976562 -1.488281 4.132812 -1.382812 4.3125 -1.3125 C 4.5 -1.25 4.695312 -1.21875 4.90625 -1.21875 C 5.195312 -1.21875 5.472656 -1.265625 5.734375 -1.359375 C 6.003906 -1.460938 6.257812 -1.578125 6.5 -1.703125 L 6.953125 -0.40625 C 6.710938 -0.269531 6.390625 -0.132812 5.984375 0 C 5.578125 0.144531 5.148438 0.21875 4.703125 0.21875 C 3.804688 0.21875 3.097656 -0.0703125 2.578125 -0.65625 C 2.054688 -1.25 1.796875 -2.101562 1.796875 -3.21875 L 1.796875 -7.59375 L 0.171875 -7.59375 L 0.171875 -9 L 1.828125 -9 Z M 2.171875 -11.9375 "/></g></g></g><g fill="#000000" fill-opacity="1"><g transform="translate(130.411678, 121.280477)"><g><path d="M 0.8125 -4.609375 C 0.8125 -5.304688 0.914062 -5.957031 1.125 -6.5625 C 1.34375 -7.164062 1.644531 -7.6875 2.03125 -8.125 C 2.425781 -8.570312 2.894531 -8.921875 3.4375 -9.171875 C 3.976562 -9.421875 4.570312 -9.546875 5.21875 -9.546875 C 5.757812 -9.546875 6.25 -9.453125 6.6875 -9.265625 C 7.125 -9.085938 7.503906 -8.859375 7.828125 -8.578125 L 7.828125 -9.328125 L 9.296875 -9.328125 L 9.296875 -2.265625 C 9.296875 -1.804688 9.40625 -1.507812 9.625 -1.375 C 9.851562 -1.238281 10.097656 -1.171875 10.359375 -1.171875 L 10.015625 0.09375 C 8.867188 0.09375 8.175781 -0.375 7.9375 -1.3125 C 7.789062 -1.113281 7.625 -0.921875 7.4375 -0.734375 C 7.25 -0.554688 7.035156 -0.394531 6.796875 -0.25 C 6.554688 -0.101562 6.285156 0.0078125 5.984375 0.09375 C 5.691406 0.175781 5.367188 0.21875 5.015625 0.21875 C 4.421875 0.21875 3.867188 0.101562 3.359375 -0.125 C 2.859375 -0.351562 2.414062 -0.675781 2.03125 -1.09375 C 1.65625 -1.507812 1.359375 -2.015625 1.140625 -2.609375 C 0.921875 -3.203125 0.8125 -3.867188 0.8125 -4.609375 Z M 5.375 -1.21875 C 5.820312 -1.21875 6.25 -1.320312 6.65625 -1.53125 C 7.0625 -1.75 7.40625 -2.035156 7.6875 -2.390625 L 7.6875 -7.390625 C 7.363281 -7.617188 7.003906 -7.800781 6.609375 -7.9375 C 6.222656 -8.082031 5.816406 -8.15625 5.390625 -8.15625 C 4.953125 -8.15625 4.550781 -8.066406 4.1875 -7.890625 C 3.832031 -7.722656 3.523438 -7.488281 3.265625 -7.1875 C 3.015625 -6.882812 2.816406 -6.515625 2.671875 -6.078125 C 2.523438 -5.648438 2.453125 -5.179688 2.453125 -4.671875 C 2.453125 -4.160156 2.523438 -3.691406 2.671875 -3.265625 C 2.816406 -2.847656 3.019531 -2.484375 3.28125 -2.171875 C 3.550781 -1.867188 3.859375 -1.632812 4.203125 -1.46875 C 4.554688 -1.300781 4.945312 -1.21875 5.375 -1.21875 Z M 5.375 -1.21875 "/></g></g></g><g fill="#000000" fill-opacity="1"><g transform="translate(141.488105, 121.280477)"><g><path d="M 1.3125 -2.09375 C 1.625 -1.820312 2.015625 -1.601562 2.484375 -1.4375 C 2.960938 -1.269531 3.46875 -1.1875 4 -1.1875 C 4.675781 -1.1875 5.179688 -1.296875 5.515625 -1.515625 C 5.859375 -1.734375 6.03125 -2.019531 6.03125 -2.375 C 6.03125 -2.550781 5.992188 -2.71875 5.921875 -2.875 C 5.859375 -3.03125 5.738281 -3.175781 5.5625 -3.3125 C 5.394531 -3.457031 5.160156 -3.597656 4.859375 -3.734375 C 4.566406 -3.878906 4.179688 -4.035156 3.703125 -4.203125 C 2.816406 -4.503906 2.15625 -4.859375 1.71875 -5.265625 C 1.289062 -5.679688 1.078125 -6.253906 1.078125 -6.984375 C 1.078125 -7.335938 1.15625 -7.671875 1.3125 -7.984375 C 1.476562 -8.296875 1.710938 -8.566406 2.015625 -8.796875 C 2.328125 -9.035156 2.695312 -9.21875 3.125 -9.34375 C 3.5625 -9.476562 4.0625 -9.546875 4.625 -9.546875 C 5.238281 -9.546875 5.773438 -9.484375 6.234375 -9.359375 C 6.703125 -9.234375 7.117188 -9.078125 7.484375 -8.890625 L 7.03125 -7.5625 C 6.707031 -7.75 6.335938 -7.898438 5.921875 -8.015625 C 5.515625 -8.140625 5.0625 -8.203125 4.5625 -8.203125 C 3.9375 -8.203125 3.460938 -8.078125 3.140625 -7.828125 C 2.816406 -7.578125 2.65625 -7.300781 2.65625 -7 C 2.65625 -6.851562 2.679688 -6.71875 2.734375 -6.59375 C 2.785156 -6.476562 2.882812 -6.367188 3.03125 -6.265625 C 3.175781 -6.160156 3.367188 -6.050781 3.609375 -5.9375 C 3.847656 -5.832031 4.144531 -5.71875 4.5 -5.59375 C 5.09375 -5.394531 5.59375 -5.191406 6 -4.984375 C 6.40625 -4.773438 6.734375 -4.539062 6.984375 -4.28125 C 7.234375 -4.03125 7.410156 -3.757812 7.515625 -3.46875 C 7.628906 -3.175781 7.6875 -2.851562 7.6875 -2.5 C 7.6875 -2.070312 7.59375 -1.691406 7.40625 -1.359375 C 7.226562 -1.023438 6.976562 -0.738281 6.65625 -0.5 C 6.332031 -0.269531 5.941406 -0.09375 5.484375 0.03125 C 5.023438 0.15625 4.515625 0.21875 3.953125 0.21875 C 3.234375 0.21875 2.59375 0.128906 2.03125 -0.046875 C 1.46875 -0.234375 1 -0.46875 0.625 -0.75 Z M 1.3125 -2.09375 "/></g></g></g><g fill="#000000" fill-opacity="1"><g transform="translate(149.889674, 121.280477)"><g><path d="M 1.4375 -13.28125 L 3.046875 -13.28125 L 3.046875 -5.6875 L 7.265625 -9.515625 L 8.203125 -8.484375 L 4.59375 -5.296875 L 9 -0.890625 L 7.875 0.171875 L 3.046875 -4.796875 L 3.046875 0 L 1.4375 0 Z M 1.4375 -13.28125 "/></g></g></g><g fill="#000000" fill-opacity="1"><g transform="translate(159.063182, 121.280477)"><g/></g></g><g fill="#000000" fill-opacity="1"><g transform="translate(164.448807, 121.280477)"><g><path d="M 1.671875 4.171875 C 1.304688 4.171875 0.988281 4.132812 0.71875 4.0625 C 0.457031 3.988281 0.25 3.90625 0.09375 3.8125 L 0.453125 2.453125 C 0.597656 2.535156 0.773438 2.609375 0.984375 2.671875 C 1.191406 2.734375 1.429688 2.765625 1.703125 2.765625 C 1.953125 2.765625 2.1875 2.726562 2.40625 2.65625 C 2.632812 2.582031 2.847656 2.457031 3.046875 2.28125 C 3.253906 2.101562 3.445312 1.859375 3.625 1.546875 C 3.8125 1.234375 4 0.84375 4.1875 0.375 L 4.59375 -0.703125 L 3.734375 -0.703125 L 0.09375 -8.90625 L 1.53125 -9.546875 L 5.015625 -1.78125 L 7.71875 -9.484375 L 9.203125 -8.90625 L 5.78125 0.46875 C 5.519531 1.1875 5.238281 1.78125 4.9375 2.25 C 4.644531 2.726562 4.332031 3.109375 4 3.390625 C 3.664062 3.679688 3.300781 3.882812 2.90625 4 C 2.519531 4.113281 2.109375 4.171875 1.671875 4.171875 Z M 1.671875 4.171875 "/></g></g></g><g fill="#000000" fill-opacity="1"><g transform="translate(173.837736, 121.280477)"><g><path d="M 8.359375 -4.671875 C 8.359375 -5.140625 8.285156 -5.582031 8.140625 -6 C 7.992188 -6.414062 7.785156 -6.78125 7.515625 -7.09375 C 7.242188 -7.40625 6.925781 -7.648438 6.5625 -7.828125 C 6.195312 -8.015625 5.800781 -8.109375 5.375 -8.109375 C 4.425781 -8.109375 3.6875 -7.796875 3.15625 -7.171875 C 2.632812 -6.554688 2.375 -5.734375 2.375 -4.703125 C 2.375 -4.234375 2.445312 -3.785156 2.59375 -3.359375 C 2.738281 -2.941406 2.945312 -2.570312 3.21875 -2.25 C 3.488281 -1.9375 3.804688 -1.6875 4.171875 -1.5 C 4.535156 -1.3125 4.9375 -1.21875 5.375 -1.21875 C 5.832031 -1.21875 6.25 -1.300781 6.625 -1.46875 C 7 -1.632812 7.3125 -1.867188 7.5625 -2.171875 C 7.820312 -2.484375 8.019531 -2.847656 8.15625 -3.265625 C 8.289062 -3.679688 8.359375 -4.148438 8.359375 -4.671875 Z M 0.71875 -4.671875 C 0.71875 -5.421875 0.835938 -6.097656 1.078125 -6.703125 C 1.316406 -7.304688 1.640625 -7.816406 2.046875 -8.234375 C 2.460938 -8.660156 2.953125 -8.984375 3.515625 -9.203125 C 4.085938 -9.429688 4.707031 -9.546875 5.375 -9.546875 C 6.019531 -9.546875 6.625 -9.429688 7.1875 -9.203125 C 7.757812 -8.984375 8.253906 -8.660156 8.671875 -8.234375 C 9.085938 -7.816406 9.414062 -7.304688 9.65625 -6.703125 C 9.894531 -6.109375 10.015625 -5.441406 10.015625 -4.703125 C 10.015625 -3.960938 9.894531 -3.289062 9.65625 -2.6875 C 9.425781 -2.082031 9.101562 -1.5625 8.6875 -1.125 C 8.269531 -0.695312 7.773438 -0.363281 7.203125 -0.125 C 6.640625 0.101562 6.03125 0.21875 5.375 0.21875 C 4.695312 0.21875 4.070312 0.0976562 3.5 -0.140625 C 2.9375 -0.378906 2.445312 -0.710938 2.03125 -1.140625 C 1.625 -1.578125 1.300781 -2.09375 1.0625 -2.6875 C 0.832031 -3.289062 0.71875 -3.953125 0.71875 -4.671875 Z M 0.71875 -4.671875 "/></g></g></g><g fill="#000000" fill-opacity="1"><g transform="translate(184.573078, 121.280477)"><g><path d="M 9.78125 0.09375 C 9.207031 0.09375 8.753906 -0.0195312 8.421875 -0.25 C 8.085938 -0.476562 7.851562 -0.804688 7.71875 -1.234375 C 7.300781 -0.804688 6.816406 -0.457031 6.265625 -0.1875 C 5.722656 0.0820312 5.128906 0.21875 4.484375 0.21875 C 4.078125 0.21875 3.6875 0.15625 3.3125 0.03125 C 2.9375 -0.09375 2.597656 -0.289062 2.296875 -0.5625 C 2.003906 -0.84375 1.769531 -1.203125 1.59375 -1.640625 C 1.425781 -2.085938 1.34375 -2.628906 1.34375 -3.265625 L 1.34375 -9.328125 L 2.96875 -9.328125 L 2.96875 -3.484375 C 2.96875 -2.753906 3.117188 -2.191406 3.421875 -1.796875 C 3.722656 -1.410156 4.179688 -1.21875 4.796875 -1.21875 C 5.296875 -1.21875 5.769531 -1.316406 6.21875 -1.515625 C 6.675781 -1.710938 7.085938 -1.976562 7.453125 -2.3125 L 7.453125 -9.328125 L 9.0625 -9.328125 L 9.0625 -2.421875 C 9.0625 -2.160156 9.09375 -1.945312 9.15625 -1.78125 C 9.21875 -1.625 9.296875 -1.5 9.390625 -1.40625 C 9.484375 -1.320312 9.59375 -1.257812 9.71875 -1.21875 C 9.851562 -1.1875 9.988281 -1.171875 10.125 -1.171875 Z M 9.78125 0.09375 "/></g></g></g><g fill="#000000" fill-opacity="1"><g transform="translate(195.41613, 121.280477)"><g/></g></g><g fill="#000000" fill-opacity="1"><g transform="translate(200.801754, 121.280477)"><g><path d="M 3 -7.78125 C 3.332031 -8.28125 3.757812 -8.695312 4.28125 -9.03125 C 4.800781 -9.375 5.421875 -9.546875 6.140625 -9.546875 C 7.191406 -9.546875 7.976562 -9.226562 8.5 -8.59375 C 9.019531 -7.957031 9.28125 -7.125 9.28125 -6.09375 L 9.28125 0 L 7.671875 0 L 7.671875 -5.90625 C 7.671875 -6.59375 7.515625 -7.132812 7.203125 -7.53125 C 6.890625 -7.925781 6.445312 -8.125 5.875 -8.125 C 5.59375 -8.125 5.320312 -8.070312 5.0625 -7.96875 C 4.800781 -7.875 4.546875 -7.734375 4.296875 -7.546875 C 4.054688 -7.367188 3.828125 -7.160156 3.609375 -6.921875 C 3.398438 -6.691406 3.210938 -6.441406 3.046875 -6.171875 L 3.046875 0 L 1.4375 0 L 1.4375 -9.328125 L 3 -9.328125 Z M 3 -7.78125 "/></g></g></g><g fill="#000000" fill-opacity="1"><g transform="translate(211.429385, 121.280477)"><g><path d="M 2.453125 -4 C 2.566406 -3.125 2.875 -2.441406 3.375 -1.953125 C 3.875 -1.460938 4.539062 -1.21875 5.375 -1.21875 C 5.90625 -1.21875 6.382812 -1.273438 6.8125 -1.390625 C 7.25 -1.503906 7.664062 -1.648438 8.0625 -1.828125 L 8.4375 -0.453125 C 8.007812 -0.242188 7.523438 -0.0820312 6.984375 0.03125 C 6.441406 0.15625 5.835938 0.21875 5.171875 0.21875 C 4.503906 0.21875 3.898438 0.109375 3.359375 -0.109375 C 2.816406 -0.335938 2.359375 -0.65625 1.984375 -1.0625 C 1.609375 -1.476562 1.316406 -1.988281 1.109375 -2.59375 C 0.910156 -3.195312 0.8125 -3.890625 0.8125 -4.671875 C 0.8125 -5.359375 0.910156 -6 1.109375 -6.59375 C 1.316406 -7.195312 1.601562 -7.71875 1.96875 -8.15625 C 2.34375 -8.59375 2.785156 -8.929688 3.296875 -9.171875 C 3.816406 -9.421875 4.394531 -9.546875 5.03125 -9.546875 C 5.695312 -9.546875 6.28125 -9.429688 6.78125 -9.203125 C 7.289062 -8.984375 7.710938 -8.675781 8.046875 -8.28125 C 8.378906 -7.882812 8.628906 -7.421875 8.796875 -6.890625 C 8.960938 -6.367188 9.046875 -5.8125 9.046875 -5.21875 C 9.046875 -4.800781 9.03125 -4.394531 9 -4 Z M 4.984375 -8.15625 C 4.285156 -8.15625 3.707031 -7.914062 3.25 -7.4375 C 2.800781 -6.957031 2.53125 -6.25 2.4375 -5.3125 L 7.5625 -5.3125 C 7.5625 -6.21875 7.332031 -6.914062 6.875 -7.40625 C 6.414062 -7.90625 5.785156 -8.15625 4.984375 -8.15625 Z M 4.984375 -8.15625 "/></g></g></g><g fill="#000000" fill-opacity="1"><g transform="translate(221.195319, 121.280477)"><g><path d="M 2.453125 -4 C 2.566406 -3.125 2.875 -2.441406 3.375 -1.953125 C 3.875 -1.460938 4.539062 -1.21875 5.375 -1.21875 C 5.90625 -1.21875 6.382812 -1.273438 6.8125 -1.390625 C 7.25 -1.503906 7.664062 -1.648438 8.0625 -1.828125 L 8.4375 -0.453125 C 8.007812 -0.242188 7.523438 -0.0820312 6.984375 0.03125 C 6.441406 0.15625 5.835938 0.21875 5.171875 0.21875 C 4.503906 0.21875 3.898438 0.109375 3.359375 -0.109375 C 2.816406 -0.335938 2.359375 -0.65625 1.984375 -1.0625 C 1.609375 -1.476562 1.316406 -1.988281 1.109375 -2.59375 C 0.910156 -3.195312 0.8125 -3.890625 0.8125 -4.671875 C 0.8125 -5.359375 0.910156 -6 1.109375 -6.59375 C 1.316406 -7.195312 1.601562 -7.71875 1.96875 -8.15625 C 2.34375 -8.59375 2.785156 -8.929688 3.296875 -9.171875 C 3.816406 -9.421875 4.394531 -9.546875 5.03125 -9.546875 C 5.695312 -9.546875 6.28125 -9.429688 6.78125 -9.203125 C 7.289062 -8.984375 7.710938 -8.675781 8.046875 -8.28125 C 8.378906 -7.882812 8.628906 -7.421875 8.796875 -6.890625 C 8.960938 -6.367188 9.046875 -5.8125 9.046875 -5.21875 C 9.046875 -4.800781 9.03125 -4.394531 9 -4 Z M 4.984375 -8.15625 C 4.285156 -8.15625 3.707031 -7.914062 3.25 -7.4375 C 2.800781 -6.957031 2.53125 -6.25 2.4375 -5.3125 L 7.5625 -5.3125 C 7.5625 -6.21875 7.332031 -6.914062 6.875 -7.40625 C 6.414062 -7.90625 5.785156 -8.15625 4.984375 -8.15625 Z M 4.984375 -8.15625 "/></g></g></g><g fill="#000000" fill-opacity="1"><g transform="translate(230.961253, 121.280477)"><g><path d="M 4.96875 0.21875 C 4.394531 0.21875 3.851562 0.101562 3.34375 -0.125 C 2.832031 -0.351562 2.390625 -0.675781 2.015625 -1.09375 C 1.640625 -1.507812 1.34375 -2.015625 1.125 -2.609375 C 0.914062 -3.203125 0.8125 -3.867188 0.8125 -4.609375 C 0.8125 -5.316406 0.921875 -5.972656 1.140625 -6.578125 C 1.359375 -7.179688 1.65625 -7.703125 2.03125 -8.140625 C 2.414062 -8.578125 2.859375 -8.921875 3.359375 -9.171875 C 3.859375 -9.421875 4.390625 -9.546875 4.953125 -9.546875 C 5.578125 -9.546875 6.113281 -9.421875 6.5625 -9.171875 C 7.007812 -8.921875 7.359375 -8.664062 7.609375 -8.40625 L 7.609375 -13.28125 L 9.234375 -13.28125 L 9.234375 -2.265625 C 9.234375 -1.804688 9.34375 -1.507812 9.5625 -1.375 C 9.78125 -1.238281 10.019531 -1.171875 10.28125 -1.171875 L 9.953125 0.09375 C 8.804688 0.09375 8.109375 -0.363281 7.859375 -1.28125 C 7.585938 -0.894531 7.21875 -0.546875 6.75 -0.234375 C 6.28125 0.0664062 5.6875 0.21875 4.96875 0.21875 Z M 5.328125 -1.21875 C 5.773438 -1.21875 6.195312 -1.320312 6.59375 -1.53125 C 7 -1.738281 7.335938 -2.015625 7.609375 -2.359375 L 7.609375 -6.984375 C 7.378906 -7.273438 7.0625 -7.539062 6.65625 -7.78125 C 6.257812 -8.03125 5.8125 -8.15625 5.3125 -8.15625 C 4.882812 -8.15625 4.492188 -8.0625 4.140625 -7.875 C 3.785156 -7.695312 3.484375 -7.453125 3.234375 -7.140625 C 2.984375 -6.828125 2.789062 -6.457031 2.65625 -6.03125 C 2.519531 -5.613281 2.453125 -5.160156 2.453125 -4.671875 C 2.453125 -4.160156 2.523438 -3.695312 2.671875 -3.28125 C 2.816406 -2.863281 3.015625 -2.5 3.265625 -2.1875 C 3.523438 -1.882812 3.832031 -1.644531 4.1875 -1.46875 C 4.539062 -1.300781 4.921875 -1.21875 5.328125 -1.21875 Z M 5.328125 -1.21875 "/></g></g></g><g fill="#000000" fill-opacity="1"><g transform="translate(241.965876, 121.280477)"><g/></g></g><g fill="#000000" fill-opacity="1"><g transform="translate(247.351501, 121.280477)"><g><path d="M 4.96875 0.21875 C 4.394531 0.21875 3.851562 0.101562 3.34375 -0.125 C 2.832031 -0.351562 2.390625 -0.675781 2.015625 -1.09375 C 1.640625 -1.507812 1.34375 -2.015625 1.125 -2.609375 C 0.914062 -3.203125 0.8125 -3.867188 0.8125 -4.609375 C 0.8125 -5.316406 0.921875 -5.972656 1.140625 -6.578125 C 1.359375 -7.179688 1.65625 -7.703125 2.03125 -8.140625 C 2.414062 -8.578125 2.859375 -8.921875 3.359375 -9.171875 C 3.859375 -9.421875 4.390625 -9.546875 4.953125 -9.546875 C 5.578125 -9.546875 6.113281 -9.421875 6.5625 -9.171875 C 7.007812 -8.921875 7.359375 -8.664062 7.609375 -8.40625 L 7.609375 -13.28125 L 9.234375 -13.28125 L 9.234375 -2.265625 C 9.234375 -1.804688 9.34375 -1.507812 9.5625 -1.375 C 9.78125 -1.238281 10.019531 -1.171875 10.28125 -1.171875 L 9.953125 0.09375 C 8.804688 0.09375 8.109375 -0.363281 7.859375 -1.28125 C 7.585938 -0.894531 7.21875 -0.546875 6.75 -0.234375 C 6.28125 0.0664062 5.6875 0.21875 4.96875 0.21875 Z M 5.328125 -1.21875 C 5.773438 -1.21875 6.195312 -1.320312 6.59375 -1.53125 C 7 -1.738281 7.335938 -2.015625 7.609375 -2.359375 L 7.609375 -6.984375 C 7.378906 -7.273438 7.0625 -7.539062 6.65625 -7.78125 C 6.257812 -8.03125 5.8125 -8.15625 5.3125 -8.15625 C 4.882812 -8.15625 4.492188 -8.0625 4.140625 -7.875 C 3.785156 -7.695312 3.484375 -7.453125 3.234375 -7.140625 C 2.984375 -6.828125 2.789062 -6.457031 2.65625 -6.03125 C 2.519531 -5.613281 2.453125 -5.160156 2.453125 -4.671875 C 2.453125 -4.160156 2.523438 -3.695312 2.671875 -3.28125 C 2.816406 -2.863281 3.015625 -2.5 3.265625 -2.1875 C 3.523438 -1.882812 3.832031 -1.644531 4.1875 -1.46875 C 4.539062 -1.300781 4.921875 -1.21875 5.328125 -1.21875 Z M 5.328125 -1.21875 "/></g></g></g><g fill="#000000" fill-opacity="1"><g transform="translate(258.356124, 121.280477)"><g><path d="M 8.359375 -4.671875 C 8.359375 -5.140625 8.285156 -5.582031 8.140625 -6 C 7.992188 -6.414062 7.785156 -6.78125 7.515625 -7.09375 C 7.242188 -7.40625 6.925781 -7.648438 6.5625 -7.828125 C 6.195312 -8.015625 5.800781 -8.109375 5.375 -8.109375 C 4.425781 -8.109375 3.6875 -7.796875 3.15625 -7.171875 C 2.632812 -6.554688 2.375 -5.734375 2.375 -4.703125 C 2.375 -4.234375 2.445312 -3.785156 2.59375 -3.359375 C 2.738281 -2.941406 2.945312 -2.570312 3.21875 -2.25 C 3.488281 -1.9375 3.804688 -1.6875 4.171875 -1.5 C 4.535156 -1.3125 4.9375 -1.21875 5.375 -1.21875 C 5.832031 -1.21875 6.25 -1.300781 6.625 -1.46875 C 7 -1.632812 7.3125 -1.867188 7.5625 -2.171875 C 7.820312 -2.484375 8.019531 -2.847656 8.15625 -3.265625 C 8.289062 -3.679688 8.359375 -4.148438 8.359375 -4.671875 Z M 0.71875 -4.671875 C 0.71875 -5.421875 0.835938 -6.097656 1.078125 -6.703125 C 1.316406 -7.304688 1.640625 -7.816406 2.046875 -8.234375 C 2.460938 -8.660156 2.953125 -8.984375 3.515625 -9.203125 C 4.085938 -9.429688 4.707031 -9.546875 5.375 -9.546875 C 6.019531 -9.546875 6.625 -9.429688 7.1875 -9.203125 C 7.757812 -8.984375 8.253906 -8.660156 8.671875 -8.234375 C 9.085938 -7.816406 9.414062 -7.304688 9.65625 -6.703125 C 9.894531 -6.109375 10.015625 -5.441406 10.015625 -4.703125 C 10.015625 -3.960938 9.894531 -3.289062 9.65625 -2.6875 C 9.425781 -2.082031 9.101562 -1.5625 8.6875 -1.125 C 8.269531 -0.695312 7.773438 -0.363281 7.203125 -0.125 C 6.640625 0.101562 6.03125 0.21875 5.375 0.21875 C 4.695312 0.21875 4.070312 0.0976562 3.5 -0.140625 C 2.9375 -0.378906 2.445312 -0.710938 2.03125 -1.140625 C 1.625 -1.578125 1.300781 -2.09375 1.0625 -2.6875 C 0.832031 -3.289062 0.71875 -3.953125 0.71875 -4.671875 Z M 0.71875 -4.671875 "/></g></g></g><g fill="#000000" fill-opacity="1"><g transform="translate(269.091454, 121.280477)"><g><path d="M 3.046875 0 L 1.4375 0 L 1.4375 -9.328125 L 3.046875 -9.328125 Z M 2.25 -10.9375 C 1.9375 -10.9375 1.664062 -11.046875 1.4375 -11.265625 C 1.21875 -11.484375 1.109375 -11.75 1.109375 -12.0625 C 1.109375 -12.40625 1.207031 -12.679688 1.40625 -12.890625 C 1.613281 -13.097656 1.894531 -13.203125 2.25 -13.203125 C 2.550781 -13.203125 2.8125 -13.085938 3.03125 -12.859375 C 3.257812 -12.640625 3.375 -12.375 3.375 -12.0625 C 3.375 -11.71875 3.269531 -11.441406 3.0625 -11.234375 C 2.863281 -11.035156 2.59375 -10.9375 2.25 -10.9375 Z M 2.25 -10.9375 "/></g></g><g transform="translate(273.579486, 121.280477)"><g><path d="M 3 -7.78125 C 3.332031 -8.28125 3.757812 -8.695312 4.28125 -9.03125 C 4.800781 -9.375 5.421875 -9.546875 6.140625 -9.546875 C 7.191406 -9.546875 7.976562 -9.226562 8.5 -8.59375 C 9.019531 -7.957031 9.28125 -7.125 9.28125 -6.09375 L 9.28125 0 L 7.671875 0 L 7.671875 -5.90625 C 7.671875 -6.59375 7.515625 -7.132812 7.203125 -7.53125 C 6.890625 -7.925781 6.445312 -8.125 5.875 -8.125 C 5.59375 -8.125 5.320312 -8.070312 5.0625 -7.96875 C 4.800781 -7.875 4.546875 -7.734375 4.296875 -7.546875 C 4.054688 -7.367188 3.828125 -7.160156 3.609375 -6.921875 C 3.398438 -6.691406 3.210938 -6.441406 3.046875 -6.171875 L 3.046875 0 L 1.4375 0 L 1.4375 -9.328125 L 3 -9.328125 Z M 3 -7.78125 "/></g></g></g><g fill="#000000" fill-opacity="1"><g transform="translate(284.207106, 121.280477)"><g><path d="M 5.140625 -9.546875 C 5.671875 -9.546875 6.148438 -9.457031 6.578125 -9.28125 C 7.003906 -9.101562 7.375 -8.882812 7.6875 -8.625 L 7.6875 -9.328125 L 9.15625 -9.328125 L 9.15625 -0.21875 C 9.15625 0.5625 9.050781 1.226562 8.84375 1.78125 C 8.644531 2.332031 8.359375 2.78125 7.984375 3.125 C 7.609375 3.476562 7.15625 3.738281 6.625 3.90625 C 6.09375 4.082031 5.503906 4.171875 4.859375 4.171875 C 4.296875 4.171875 3.757812 4.101562 3.25 3.96875 C 2.738281 3.832031 2.273438 3.632812 1.859375 3.375 L 2.453125 1.96875 C 2.742188 2.195312 3.082031 2.382812 3.46875 2.53125 C 3.851562 2.6875 4.316406 2.765625 4.859375 2.765625 C 5.710938 2.765625 6.378906 2.539062 6.859375 2.09375 C 7.347656 1.65625 7.59375 0.941406 7.59375 -0.046875 L 7.59375 -1.203125 C 7.351562 -0.910156 7.007812 -0.632812 6.5625 -0.375 C 6.113281 -0.125 5.578125 0 4.953125 0 C 4.429688 0 3.914062 -0.101562 3.40625 -0.3125 C 2.90625 -0.519531 2.460938 -0.820312 2.078125 -1.21875 C 1.703125 -1.625 1.394531 -2.117188 1.15625 -2.703125 C 0.925781 -3.285156 0.8125 -3.953125 0.8125 -4.703125 C 0.8125 -5.398438 0.921875 -6.039062 1.140625 -6.625 C 1.367188 -7.21875 1.675781 -7.726562 2.0625 -8.15625 C 2.457031 -8.59375 2.914062 -8.929688 3.4375 -9.171875 C 3.96875 -9.421875 4.535156 -9.546875 5.140625 -9.546875 Z M 5.3125 -1.4375 C 5.789062 -1.4375 6.222656 -1.539062 6.609375 -1.75 C 6.992188 -1.96875 7.304688 -2.222656 7.546875 -2.515625 L 7.546875 -7.390625 C 7.265625 -7.585938 6.941406 -7.765625 6.578125 -7.921875 C 6.222656 -8.078125 5.796875 -8.15625 5.296875 -8.15625 C 4.921875 -8.15625 4.5625 -8.078125 4.21875 -7.921875 C 3.882812 -7.773438 3.582031 -7.554688 3.3125 -7.265625 C 3.050781 -6.984375 2.84375 -6.632812 2.6875 -6.21875 C 2.53125 -5.800781 2.453125 -5.328125 2.453125 -4.796875 C 2.453125 -4.273438 2.53125 -3.804688 2.6875 -3.390625 C 2.84375 -2.984375 3.050781 -2.632812 3.3125 -2.34375 C 3.582031 -2.050781 3.882812 -1.828125 4.21875 -1.671875 C 4.5625 -1.515625 4.925781 -1.4375 5.3125 -1.4375 Z M 5.3125 -1.4375 "/></g></g></g><g fill="#000000" fill-opacity="1"><g transform="translate(294.709083, 121.280477)"><g><path d="M 0.8125 -11.609375 C 1.289062 -12.203125 1.820312 -12.664062 2.40625 -13 C 2.988281 -13.332031 3.695312 -13.5 4.53125 -13.5 C 5.03125 -13.5 5.484375 -13.421875 5.890625 -13.265625 C 6.304688 -13.109375 6.664062 -12.898438 6.96875 -12.640625 C 7.269531 -12.378906 7.503906 -12.070312 7.671875 -11.71875 C 7.835938 -11.363281 7.921875 -10.984375 7.921875 -10.578125 C 7.921875 -10.054688 7.832031 -9.613281 7.65625 -9.25 C 7.476562 -8.894531 7.257812 -8.578125 7 -8.296875 C 6.738281 -8.015625 6.453125 -7.753906 6.140625 -7.515625 C 5.835938 -7.273438 5.554688 -7.023438 5.296875 -6.765625 C 5.035156 -6.503906 4.816406 -6.210938 4.640625 -5.890625 C 4.460938 -5.566406 4.375 -5.175781 4.375 -4.71875 L 4.375 -3.71875 L 2.984375 -3.71875 C 2.921875 -3.914062 2.875 -4.132812 2.84375 -4.375 C 2.8125 -4.613281 2.796875 -4.835938 2.796875 -5.046875 C 2.796875 -5.546875 2.878906 -5.976562 3.046875 -6.34375 C 3.210938 -6.71875 3.421875 -7.046875 3.671875 -7.328125 C 3.929688 -7.609375 4.203125 -7.863281 4.484375 -8.09375 C 4.773438 -8.320312 5.046875 -8.550781 5.296875 -8.78125 C 5.546875 -9.019531 5.753906 -9.269531 5.921875 -9.53125 C 6.085938 -9.789062 6.171875 -10.097656 6.171875 -10.453125 C 6.171875 -10.867188 6.007812 -11.234375 5.6875 -11.546875 C 5.363281 -11.867188 4.925781 -12.03125 4.375 -12.03125 C 3.875 -12.03125 3.425781 -11.910156 3.03125 -11.671875 C 2.644531 -11.429688 2.289062 -11.101562 1.96875 -10.6875 Z M 2.5625 -0.984375 C 2.5625 -1.359375 2.664062 -1.648438 2.875 -1.859375 C 3.09375 -2.078125 3.390625 -2.1875 3.765625 -2.1875 C 4.078125 -2.1875 4.351562 -2.066406 4.59375 -1.828125 C 4.84375 -1.585938 4.96875 -1.304688 4.96875 -0.984375 C 4.96875 -0.628906 4.851562 -0.335938 4.625 -0.109375 C 4.40625 0.109375 4.117188 0.21875 3.765625 0.21875 C 3.441406 0.21875 3.160156 0.0976562 2.921875 -0.140625 C 2.679688 -0.378906 2.5625 -0.660156 2.5625 -0.984375 Z M 2.5625 -0.984375 "/></g></g></g><g fill="#000000" fill-opacity="1"><g transform="translate(71.475023, 145.964651)"><g><path d="M 1.609375 -12.53125 C 2.117188 -12.59375 2.660156 -12.632812 3.234375 -12.65625 C 3.816406 -12.6875 4.429688 -12.703125 5.078125 -12.703125 C 5.859375 -12.703125 6.550781 -12.609375 7.15625 -12.421875 C 7.769531 -12.234375 8.285156 -11.96875 8.703125 -11.625 C 9.117188 -11.289062 9.4375 -10.890625 9.65625 -10.421875 C 9.875 -9.953125 9.984375 -9.441406 9.984375 -8.890625 C 9.984375 -8.210938 9.851562 -7.613281 9.59375 -7.09375 C 9.332031 -6.570312 8.972656 -6.132812 8.515625 -5.78125 C 8.054688 -5.425781 7.503906 -5.15625 6.859375 -4.96875 C 6.210938 -4.78125 5.5 -4.6875 4.71875 -4.6875 C 4.21875 -4.6875 3.753906 -4.703125 3.328125 -4.734375 L 3.328125 0 L 1.609375 0 Z M 4.9375 -6.109375 C 6.007812 -6.109375 6.835938 -6.34375 7.421875 -6.8125 C 8.003906 -7.28125 8.296875 -7.925781 8.296875 -8.75 C 8.296875 -9.519531 8.015625 -10.132812 7.453125 -10.59375 C 6.898438 -11.050781 6.097656 -11.28125 5.046875 -11.28125 C 4.722656 -11.28125 4.414062 -11.269531 4.125 -11.25 C 3.84375 -11.238281 3.578125 -11.222656 3.328125 -11.203125 L 3.328125 -6.1875 C 3.515625 -6.164062 3.742188 -6.144531 4.015625 -6.125 C 4.285156 -6.113281 4.59375 -6.109375 4.9375 -6.109375 Z M 4.9375 -6.109375 "/></g></g></g><g fill="#000000" fill-opacity="1"><g transform="translate(81.905174, 145.964651)"><g><path d="M 8.359375 -4.671875 C 8.359375 -5.140625 8.285156 -5.582031 8.140625 -6 C 7.992188 -6.414062 7.785156 -6.78125 7.515625 -7.09375 C 7.242188 -7.40625 6.925781 -7.648438 6.5625 -7.828125 C 6.195312 -8.015625 5.800781 -8.109375 5.375 -8.109375 C 4.425781 -8.109375 3.6875 -7.796875 3.15625 -7.171875 C 2.632812 -6.554688 2.375 -5.734375 2.375 -4.703125 C 2.375 -4.234375 2.445312 -3.785156 2.59375 -3.359375 C 2.738281 -2.941406 2.945312 -2.570312 3.21875 -2.25 C 3.488281 -1.9375 3.804688 -1.6875 4.171875 -1.5 C 4.535156 -1.3125 4.9375 -1.21875 5.375 -1.21875 C 5.832031 -1.21875 6.25 -1.300781 6.625 -1.46875 C 7 -1.632812 7.3125 -1.867188 7.5625 -2.171875 C 7.820312 -2.484375 8.019531 -2.847656 8.15625 -3.265625 C 8.289062 -3.679688 8.359375 -4.148438 8.359375 -4.671875 Z M 0.71875 -4.671875 C 0.71875 -5.421875 0.835938 -6.097656 1.078125 -6.703125 C 1.316406 -7.304688 1.640625 -7.816406 2.046875 -8.234375 C 2.460938 -8.660156 2.953125 -8.984375 3.515625 -9.203125 C 4.085938 -9.429688 4.707031 -9.546875 5.375 -9.546875 C 6.019531 -9.546875 6.625 -9.429688 7.1875 -9.203125 C 7.757812 -8.984375 8.253906 -8.660156 8.671875 -8.234375 C 9.085938 -7.816406 9.414062 -7.304688 9.65625 -6.703125 C 9.894531 -6.109375 10.015625 -5.441406 10.015625 -4.703125 C 10.015625 -3.960938 9.894531 -3.289062 9.65625 -2.6875 C 9.425781 -2.082031 9.101562 -1.5625 8.6875 -1.125 C 8.269531 -0.695312 7.773438 -0.363281 7.203125 -0.125 C 6.640625 0.101562 6.03125 0.21875 5.375 0.21875 C 4.695312 0.21875 4.070312 0.0976562 3.5 -0.140625 C 2.9375 -0.378906 2.445312 -0.710938 2.03125 -1.140625 C 1.625 -1.578125 1.300781 -2.09375 1.0625 -2.6875 C 0.832031 -3.289062 0.71875 -3.953125 0.71875 -4.671875 Z M 0.71875 -4.671875 "/></g></g></g><g fill="#000000" fill-opacity="1"><g transform="translate(92.640516, 145.964651)"><g><path d="M 1.3125 -2.09375 C 1.625 -1.820312 2.015625 -1.601562 2.484375 -1.4375 C 2.960938 -1.269531 3.46875 -1.1875 4 -1.1875 C 4.675781 -1.1875 5.179688 -1.296875 5.515625 -1.515625 C 5.859375 -1.734375 6.03125 -2.019531 6.03125 -2.375 C 6.03125 -2.550781 5.992188 -2.71875 5.921875 -2.875 C 5.859375 -3.03125 5.738281 -3.175781 5.5625 -3.3125 C 5.394531 -3.457031 5.160156 -3.597656 4.859375 -3.734375 C 4.566406 -3.878906 4.179688 -4.035156 3.703125 -4.203125 C 2.816406 -4.503906 2.15625 -4.859375 1.71875 -5.265625 C 1.289062 -5.679688 1.078125 -6.253906 1.078125 -6.984375 C 1.078125 -7.335938 1.15625 -7.671875 1.3125 -7.984375 C 1.476562 -8.296875 1.710938 -8.566406 2.015625 -8.796875 C 2.328125 -9.035156 2.695312 -9.21875 3.125 -9.34375 C 3.5625 -9.476562 4.0625 -9.546875 4.625 -9.546875 C 5.238281 -9.546875 5.773438 -9.484375 6.234375 -9.359375 C 6.703125 -9.234375 7.117188 -9.078125 7.484375 -8.890625 L 7.03125 -7.5625 C 6.707031 -7.75 6.335938 -7.898438 5.921875 -8.015625 C 5.515625 -8.140625 5.0625 -8.203125 4.5625 -8.203125 C 3.9375 -8.203125 3.460938 -8.078125 3.140625 -7.828125 C 2.816406 -7.578125 2.65625 -7.300781 2.65625 -7 C 2.65625 -6.851562 2.679688 -6.71875 2.734375 -6.59375 C 2.785156 -6.476562 2.882812 -6.367188 3.03125 -6.265625 C 3.175781 -6.160156 3.367188 -6.050781 3.609375 -5.9375 C 3.847656 -5.832031 4.144531 -5.71875 4.5 -5.59375 C 5.09375 -5.394531 5.59375 -5.191406 6 -4.984375 C 6.40625 -4.773438 6.734375 -4.539062 6.984375 -4.28125 C 7.234375 -4.03125 7.410156 -3.757812 7.515625 -3.46875 C 7.628906 -3.175781 7.6875 -2.851562 7.6875 -2.5 C 7.6875 -2.070312 7.59375 -1.691406 7.40625 -1.359375 C 7.226562 -1.023438 6.976562 -0.738281 6.65625 -0.5 C 6.332031 -0.269531 5.941406 -0.09375 5.484375 0.03125 C 5.023438 0.15625 4.515625 0.21875 3.953125 0.21875 C 3.234375 0.21875 2.59375 0.128906 2.03125 -0.046875 C 1.46875 -0.234375 1 -0.46875 0.625 -0.75 Z M 1.3125 -2.09375 "/></g></g></g><g fill="#000000" fill-opacity="1"><g transform="translate(101.042084, 145.964651)"><g><path d="M 2.171875 -11.9375 L 3.40625 -11.9375 L 3.40625 -9 L 6 -9 L 6 -7.59375 L 3.40625 -7.59375 L 3.40625 -3.09375 C 3.40625 -2.738281 3.441406 -2.441406 3.515625 -2.203125 C 3.597656 -1.960938 3.707031 -1.769531 3.84375 -1.625 C 3.976562 -1.488281 4.132812 -1.382812 4.3125 -1.3125 C 4.5 -1.25 4.695312 -1.21875 4.90625 -1.21875 C 5.195312 -1.21875 5.472656 -1.265625 5.734375 -1.359375 C 6.003906 -1.460938 6.257812 -1.578125 6.5 -1.703125 L 6.953125 -0.40625 C 6.710938 -0.269531 6.390625 -0.132812 5.984375 0 C 5.578125 0.144531 5.148438 0.21875 4.703125 0.21875 C 3.804688 0.21875 3.097656 -0.0703125 2.578125 -0.65625 C 2.054688 -1.25 1.796875 -2.101562 1.796875 -3.21875 L 1.796875 -7.59375 L 0.171875 -7.59375 L 0.171875 -9 L 1.828125 -9 Z M 2.171875 -11.9375 "/></g></g></g><g fill="#000000" fill-opacity="1"><g transform="translate(108.169056, 145.964651)"><g/></g></g><g fill="#000000" fill-opacity="1"><g transform="translate(113.55468, 145.964651)"><g><path d="M 3.046875 0 L 1.4375 0 L 1.4375 -9.328125 L 3.046875 -9.328125 Z M 2.25 -10.9375 C 1.9375 -10.9375 1.664062 -11.046875 1.4375 -11.265625 C 1.21875 -11.484375 1.109375 -11.75 1.109375 -12.0625 C 1.109375 -12.40625 1.207031 -12.679688 1.40625 -12.890625 C 1.613281 -13.097656 1.894531 -13.203125 2.25 -13.203125 C 2.550781 -13.203125 2.8125 -13.085938 3.03125 -12.859375 C 3.257812 -12.640625 3.375 -12.375 3.375 -12.0625 C 3.375 -11.71875 3.269531 -11.441406 3.0625 -11.234375 C 2.863281 -11.035156 2.59375 -10.9375 2.25 -10.9375 Z M 2.25 -10.9375 "/></g></g></g><g fill="#000000" fill-opacity="1"><g transform="translate(118.0427, 145.964651)"><g><path d="M 2.171875 -11.9375 L 3.40625 -11.9375 L 3.40625 -9 L 6 -9 L 6 -7.59375 L 3.40625 -7.59375 L 3.40625 -3.09375 C 3.40625 -2.738281 3.441406 -2.441406 3.515625 -2.203125 C 3.597656 -1.960938 3.707031 -1.769531 3.84375 -1.625 C 3.976562 -1.488281 4.132812 -1.382812 4.3125 -1.3125 C 4.5 -1.25 4.695312 -1.21875 4.90625 -1.21875 C 5.195312 -1.21875 5.472656 -1.265625 5.734375 -1.359375 C 6.003906 -1.460938 6.257812 -1.578125 6.5 -1.703125 L 6.953125 -0.40625 C 6.710938 -0.269531 6.390625 -0.132812 5.984375 0 C 5.578125 0.144531 5.148438 0.21875 4.703125 0.21875 C 3.804688 0.21875 3.097656 -0.0703125 2.578125 -0.65625 C 2.054688 -1.25 1.796875 -2.101562 1.796875 -3.21875 L 1.796875 -7.59375 L 0.171875 -7.59375 L 0.171875 -9 L 1.828125 -9 Z M 2.171875 -11.9375 "/></g></g></g><g fill="#000000" fill-opacity="1"><g transform="translate(125.169672, 145.964651)"><g/></g></g><g fill="#000000" fill-opacity="1"><g transform="translate(130.555296, 145.964651)"><g><path d="M 8.359375 -4.671875 C 8.359375 -5.140625 8.285156 -5.582031 8.140625 -6 C 7.992188 -6.414062 7.785156 -6.78125 7.515625 -7.09375 C 7.242188 -7.40625 6.925781 -7.648438 6.5625 -7.828125 C 6.195312 -8.015625 5.800781 -8.109375 5.375 -8.109375 C 4.425781 -8.109375 3.6875 -7.796875 3.15625 -7.171875 C 2.632812 -6.554688 2.375 -5.734375 2.375 -4.703125 C 2.375 -4.234375 2.445312 -3.785156 2.59375 -3.359375 C 2.738281 -2.941406 2.945312 -2.570312 3.21875 -2.25 C 3.488281 -1.9375 3.804688 -1.6875 4.171875 -1.5 C 4.535156 -1.3125 4.9375 -1.21875 5.375 -1.21875 C 5.832031 -1.21875 6.25 -1.300781 6.625 -1.46875 C 7 -1.632812 7.3125 -1.867188 7.5625 -2.171875 C 7.820312 -2.484375 8.019531 -2.847656 8.15625 -3.265625 C 8.289062 -3.679688 8.359375 -4.148438 8.359375 -4.671875 Z M 0.71875 -4.671875 C 0.71875 -5.421875 0.835938 -6.097656 1.078125 -6.703125 C 1.316406 -7.304688 1.640625 -7.816406 2.046875 -8.234375 C 2.460938 -8.660156 2.953125 -8.984375 3.515625 -9.203125 C 4.085938 -9.429688 4.707031 -9.546875 5.375 -9.546875 C 6.019531 -9.546875 6.625 -9.429688 7.1875 -9.203125 C 7.757812 -8.984375 8.253906 -8.660156 8.671875 -8.234375 C 9.085938 -7.816406 9.414062 -7.304688 9.65625 -6.703125 C 9.894531 -6.109375 10.015625 -5.441406 10.015625 -4.703125 C 10.015625 -3.960938 9.894531 -3.289062 9.65625 -2.6875 C 9.425781 -2.082031 9.101562 -1.5625 8.6875 -1.125 C 8.269531 -0.695312 7.773438 -0.363281 7.203125 -0.125 C 6.640625 0.101562 6.03125 0.21875 5.375 0.21875 C 4.695312 0.21875 4.070312 0.0976562 3.5 -0.140625 C 2.9375 -0.378906 2.445312 -0.710938 2.03125 -1.140625 C 1.625 -1.578125 1.300781 -2.09375 1.0625 -2.6875 C 0.832031 -3.289062 0.71875 -3.953125 0.71875 -4.671875 Z M 0.71875 -4.671875 "/></g></g></g><g fill="#000000" fill-opacity="1"><g transform="translate(141.290638, 145.964651)"><g><path d="M 3 -7.78125 C 3.332031 -8.28125 3.757812 -8.695312 4.28125 -9.03125 C 4.800781 -9.375 5.421875 -9.546875 6.140625 -9.546875 C 7.191406 -9.546875 7.976562 -9.226562 8.5 -8.59375 C 9.019531 -7.957031 9.28125 -7.125 9.28125 -6.09375 L 9.28125 0 L 7.671875 0 L 7.671875 -5.90625 C 7.671875 -6.59375 7.515625 -7.132812 7.203125 -7.53125 C 6.890625 -7.925781 6.445312 -8.125 5.875 -8.125 C 5.59375 -8.125 5.320312 -8.070312 5.0625 -7.96875 C 4.800781 -7.875 4.546875 -7.734375 4.296875 -7.546875 C 4.054688 -7.367188 3.828125 -7.160156 3.609375 -6.921875 C 3.398438 -6.691406 3.210938 -6.441406 3.046875 -6.171875 L 3.046875 0 L 1.4375 0 L 1.4375 -9.328125 L 3 -9.328125 Z M 3 -7.78125 "/></g></g></g><g fill="#000000" fill-opacity="1"><g transform="translate(151.918268, 145.964651)"><g/></g></g><g fill="#000000" fill-opacity="1"><g transform="translate(157.303893, 145.964651)"><g><path d="M 6.71875 -6.65625 L 10.9375 -6.65625 L 10.9375 0 L 9.421875 0 L 9.421875 -1.25 C 9.003906 -0.882812 8.492188 -0.546875 7.890625 -0.234375 C 7.296875 0.0664062 6.632812 0.21875 5.90625 0.21875 C 5.175781 0.21875 4.503906 0.078125 3.890625 -0.203125 C 3.285156 -0.492188 2.757812 -0.910156 2.3125 -1.453125 C 1.875 -1.992188 1.523438 -2.644531 1.265625 -3.40625 C 1.015625 -4.164062 0.890625 -5.015625 0.890625 -5.953125 C 0.890625 -6.960938 1.019531 -7.882812 1.28125 -8.71875 C 1.539062 -9.550781 1.914062 -10.269531 2.40625 -10.875 C 2.894531 -11.476562 3.492188 -11.945312 4.203125 -12.28125 C 4.921875 -12.613281 5.734375 -12.78125 6.640625 -12.78125 C 7.429688 -12.78125 8.128906 -12.679688 8.734375 -12.484375 C 9.335938 -12.296875 9.910156 -12.054688 10.453125 -11.765625 L 9.828125 -10.34375 C 9.316406 -10.613281 8.800781 -10.835938 8.28125 -11.015625 C 7.769531 -11.203125 7.191406 -11.296875 6.546875 -11.296875 C 5.984375 -11.296875 5.460938 -11.179688 4.984375 -10.953125 C 4.503906 -10.722656 4.09375 -10.382812 3.75 -9.9375 C 3.40625 -9.5 3.132812 -8.953125 2.9375 -8.296875 C 2.738281 -7.648438 2.640625 -6.90625 2.640625 -6.0625 C 2.640625 -5.3125 2.726562 -4.640625 2.90625 -4.046875 C 3.082031 -3.453125 3.332031 -2.945312 3.65625 -2.53125 C 3.976562 -2.125 4.363281 -1.8125 4.8125 -1.59375 C 5.269531 -1.382812 5.765625 -1.28125 6.296875 -1.28125 C 6.628906 -1.28125 6.945312 -1.316406 7.25 -1.390625 C 7.550781 -1.472656 7.828125 -1.578125 8.078125 -1.703125 C 8.328125 -1.828125 8.554688 -1.960938 8.765625 -2.109375 C 8.972656 -2.253906 9.15625 -2.40625 9.3125 -2.5625 L 9.3125 -5.3125 L 6.71875 -5.3125 Z M 6.71875 -6.65625 "/></g></g></g><g fill="#000000" fill-opacity="1"><g transform="translate(169.403588, 145.964651)"><g><path d="M 9.78125 0.09375 C 9.207031 0.09375 8.753906 -0.0195312 8.421875 -0.25 C 8.085938 -0.476562 7.851562 -0.804688 7.71875 -1.234375 C 7.300781 -0.804688 6.816406 -0.457031 6.265625 -0.1875 C 5.722656 0.0820312 5.128906 0.21875 4.484375 0.21875 C 4.078125 0.21875 3.6875 0.15625 3.3125 0.03125 C 2.9375 -0.09375 2.597656 -0.289062 2.296875 -0.5625 C 2.003906 -0.84375 1.769531 -1.203125 1.59375 -1.640625 C 1.425781 -2.085938 1.34375 -2.628906 1.34375 -3.265625 L 1.34375 -9.328125 L 2.96875 -9.328125 L 2.96875 -3.484375 C 2.96875 -2.753906 3.117188 -2.191406 3.421875 -1.796875 C 3.722656 -1.410156 4.179688 -1.21875 4.796875 -1.21875 C 5.296875 -1.21875 5.769531 -1.316406 6.21875 -1.515625 C 6.675781 -1.710938 7.085938 -1.976562 7.453125 -2.3125 L 7.453125 -9.328125 L 9.0625 -9.328125 L 9.0625 -2.421875 C 9.0625 -2.160156 9.09375 -1.945312 9.15625 -1.78125 C 9.21875 -1.625 9.296875 -1.5 9.390625 -1.40625 C 9.484375 -1.320312 9.59375 -1.257812 9.71875 -1.21875 C 9.851562 -1.1875 9.988281 -1.171875 10.125 -1.171875 Z M 9.78125 0.09375 "/></g></g></g><g fill="#000000" fill-opacity="1"><g transform="translate(180.24664, 145.964651)"><g><path d="M 3 -7.78125 C 3.332031 -8.28125 3.753906 -8.695312 4.265625 -9.03125 C 4.773438 -9.375 5.363281 -9.546875 6.03125 -9.546875 C 6.769531 -9.546875 7.375 -9.367188 7.84375 -9.015625 C 8.3125 -8.660156 8.644531 -8.179688 8.84375 -7.578125 C 9.21875 -8.128906 9.660156 -8.59375 10.171875 -8.96875 C 10.679688 -9.351562 11.3125 -9.546875 12.0625 -9.546875 C 12.5625 -9.546875 13 -9.460938 13.375 -9.296875 C 13.757812 -9.128906 14.078125 -8.890625 14.328125 -8.578125 C 14.578125 -8.273438 14.765625 -7.910156 14.890625 -7.484375 C 15.015625 -7.066406 15.078125 -6.601562 15.078125 -6.09375 L 15.078125 0 L 13.46875 0 L 13.46875 -5.953125 C 13.46875 -6.609375 13.316406 -7.132812 13.015625 -7.53125 C 12.710938 -7.925781 12.300781 -8.125 11.78125 -8.125 C 11.5 -8.125 11.234375 -8.070312 10.984375 -7.96875 C 10.734375 -7.863281 10.492188 -7.71875 10.265625 -7.53125 C 10.035156 -7.34375 9.816406 -7.125 9.609375 -6.875 C 9.410156 -6.632812 9.226562 -6.382812 9.0625 -6.125 L 9.0625 0 L 7.453125 0 L 7.453125 -5.953125 C 7.453125 -6.609375 7.300781 -7.132812 7 -7.53125 C 6.695312 -7.925781 6.285156 -8.125 5.765625 -8.125 C 5.503906 -8.125 5.242188 -8.070312 4.984375 -7.96875 C 4.734375 -7.875 4.488281 -7.734375 4.25 -7.546875 C 4.019531 -7.367188 3.800781 -7.160156 3.59375 -6.921875 C 3.394531 -6.691406 3.210938 -6.441406 3.046875 -6.171875 L 3.046875 0 L 1.4375 0 L 1.4375 -9.328125 L 3 -9.328125 Z M 3 -7.78125 "/></g></g></g><g fill="#000000" fill-opacity="1"><g transform="translate(196.672784, 145.964651)"><g><path d="M 1.4375 -13.28125 L 3.046875 -13.28125 L 3.046875 -8.359375 C 3.171875 -8.492188 3.320312 -8.632812 3.5 -8.78125 C 3.675781 -8.925781 3.875 -9.050781 4.09375 -9.15625 C 4.320312 -9.269531 4.570312 -9.363281 4.84375 -9.4375 C 5.125 -9.507812 5.425781 -9.546875 5.75 -9.546875 C 6.28125 -9.546875 6.796875 -9.4375 7.296875 -9.21875 C 7.796875 -9.007812 8.234375 -8.703125 8.609375 -8.296875 C 8.984375 -7.890625 9.285156 -7.382812 9.515625 -6.78125 C 9.742188 -6.1875 9.859375 -5.507812 9.859375 -4.75 C 9.859375 -4.007812 9.738281 -3.332031 9.5 -2.71875 C 9.257812 -2.113281 8.941406 -1.59375 8.546875 -1.15625 C 8.148438 -0.71875 7.695312 -0.378906 7.1875 -0.140625 C 6.675781 0.0976562 6.160156 0.21875 5.640625 0.21875 C 5.097656 0.21875 4.585938 0.125 4.109375 -0.0625 C 3.640625 -0.257812 3.25 -0.492188 2.9375 -0.765625 L 2.9375 0 L 1.4375 0 Z M 8.203125 -4.703125 C 8.203125 -5.242188 8.125 -5.722656 7.96875 -6.140625 C 7.820312 -6.566406 7.617188 -6.929688 7.359375 -7.234375 C 7.109375 -7.535156 6.8125 -7.765625 6.46875 -7.921875 C 6.125 -8.078125 5.765625 -8.15625 5.390625 -8.15625 C 4.867188 -8.15625 4.398438 -8.023438 3.984375 -7.765625 C 3.578125 -7.503906 3.265625 -7.226562 3.046875 -6.9375 L 3.046875 -1.9375 C 3.328125 -1.71875 3.648438 -1.539062 4.015625 -1.40625 C 4.390625 -1.28125 4.785156 -1.21875 5.203125 -1.21875 C 5.640625 -1.21875 6.039062 -1.300781 6.40625 -1.46875 C 6.78125 -1.632812 7.097656 -1.867188 7.359375 -2.171875 C 7.617188 -2.484375 7.820312 -2.847656 7.96875 -3.265625 C 8.125 -3.691406 8.203125 -4.171875 8.203125 -4.703125 Z M 8.203125 -4.703125 "/></g></g></g><g fill="#000000" fill-opacity="1"><g transform="translate(207.336311, 145.964651)"><g><path d="M 8.359375 -4.671875 C 8.359375 -5.140625 8.285156 -5.582031 8.140625 -6 C 7.992188 -6.414062 7.785156 -6.78125 7.515625 -7.09375 C 7.242188 -7.40625 6.925781 -7.648438 6.5625 -7.828125 C 6.195312 -8.015625 5.800781 -8.109375 5.375 -8.109375 C 4.425781 -8.109375 3.6875 -7.796875 3.15625 -7.171875 C 2.632812 -6.554688 2.375 -5.734375 2.375 -4.703125 C 2.375 -4.234375 2.445312 -3.785156 2.59375 -3.359375 C 2.738281 -2.941406 2.945312 -2.570312 3.21875 -2.25 C 3.488281 -1.9375 3.804688 -1.6875 4.171875 -1.5 C 4.535156 -1.3125 4.9375 -1.21875 5.375 -1.21875 C 5.832031 -1.21875 6.25 -1.300781 6.625 -1.46875 C 7 -1.632812 7.3125 -1.867188 7.5625 -2.171875 C 7.820312 -2.484375 8.019531 -2.847656 8.15625 -3.265625 C 8.289062 -3.679688 8.359375 -4.148438 8.359375 -4.671875 Z M 0.71875 -4.671875 C 0.71875 -5.421875 0.835938 -6.097656 1.078125 -6.703125 C 1.316406 -7.304688 1.640625 -7.816406 2.046875 -8.234375 C 2.460938 -8.660156 2.953125 -8.984375 3.515625 -9.203125 C 4.085938 -9.429688 4.707031 -9.546875 5.375 -9.546875 C 6.019531 -9.546875 6.625 -9.429688 7.1875 -9.203125 C 7.757812 -8.984375 8.253906 -8.660156 8.671875 -8.234375 C 9.085938 -7.816406 9.414062 -7.304688 9.65625 -6.703125 C 9.894531 -6.109375 10.015625 -5.441406 10.015625 -4.703125 C 10.015625 -3.960938 9.894531 -3.289062 9.65625 -2.6875 C 9.425781 -2.082031 9.101562 -1.5625 8.6875 -1.125 C 8.269531 -0.695312 7.773438 -0.363281 7.203125 -0.125 C 6.640625 0.101562 6.03125 0.21875 5.375 0.21875 C 4.695312 0.21875 4.070312 0.0976562 3.5 -0.140625 C 2.9375 -0.378906 2.445312 -0.710938 2.03125 -1.140625 C 1.625 -1.578125 1.300781 -2.09375 1.0625 -2.6875 C 0.832031 -3.289062 0.71875 -3.953125 0.71875 -4.671875 Z M 0.71875 -4.671875 "/></g></g></g><g fill="#000000" fill-opacity="1"><g transform="translate(218.071652, 145.964651)"><g><path d="M 8.359375 -4.671875 C 8.359375 -5.140625 8.285156 -5.582031 8.140625 -6 C 7.992188 -6.414062 7.785156 -6.78125 7.515625 -7.09375 C 7.242188 -7.40625 6.925781 -7.648438 6.5625 -7.828125 C 6.195312 -8.015625 5.800781 -8.109375 5.375 -8.109375 C 4.425781 -8.109375 3.6875 -7.796875 3.15625 -7.171875 C 2.632812 -6.554688 2.375 -5.734375 2.375 -4.703125 C 2.375 -4.234375 2.445312 -3.785156 2.59375 -3.359375 C 2.738281 -2.941406 2.945312 -2.570312 3.21875 -2.25 C 3.488281 -1.9375 3.804688 -1.6875 4.171875 -1.5 C 4.535156 -1.3125 4.9375 -1.21875 5.375 -1.21875 C 5.832031 -1.21875 6.25 -1.300781 6.625 -1.46875 C 7 -1.632812 7.3125 -1.867188 7.5625 -2.171875 C 7.820312 -2.484375 8.019531 -2.847656 8.15625 -3.265625 C 8.289062 -3.679688 8.359375 -4.148438 8.359375 -4.671875 Z M 0.71875 -4.671875 C 0.71875 -5.421875 0.835938 -6.097656 1.078125 -6.703125 C 1.316406 -7.304688 1.640625 -7.816406 2.046875 -8.234375 C 2.460938 -8.660156 2.953125 -8.984375 3.515625 -9.203125 C 4.085938 -9.429688 4.707031 -9.546875 5.375 -9.546875 C 6.019531 -9.546875 6.625 -9.429688 7.1875 -9.203125 C 7.757812 -8.984375 8.253906 -8.660156 8.671875 -8.234375 C 9.085938 -7.816406 9.414062 -7.304688 9.65625 -6.703125 C 9.894531 -6.109375 10.015625 -5.441406 10.015625 -4.703125 C 10.015625 -3.960938 9.894531 -3.289062 9.65625 -2.6875 C 9.425781 -2.082031 9.101562 -1.5625 8.6875 -1.125 C 8.269531 -0.695312 7.773438 -0.363281 7.203125 -0.125 C 6.640625 0.101562 6.03125 0.21875 5.375 0.21875 C 4.695312 0.21875 4.070312 0.0976562 3.5 -0.140625 C 2.9375 -0.378906 2.445312 -0.710938 2.03125 -1.140625 C 1.625 -1.578125 1.300781 -2.09375 1.0625 -2.6875 C 0.832031 -3.289062 0.71875 -3.953125 0.71875 -4.671875 Z M 0.71875 -4.671875 "/></g></g></g><g fill="#000000" fill-opacity="1"><g transform="translate(228.806993, 145.964651)"><g><path d="M 2.171875 -11.9375 L 3.40625 -11.9375 L 3.40625 -9 L 6 -9 L 6 -7.59375 L 3.40625 -7.59375 L 3.40625 -3.09375 C 3.40625 -2.738281 3.441406 -2.441406 3.515625 -2.203125 C 3.597656 -1.960938 3.707031 -1.769531 3.84375 -1.625 C 3.976562 -1.488281 4.132812 -1.382812 4.3125 -1.3125 C 4.5 -1.25 4.695312 -1.21875 4.90625 -1.21875 C 5.195312 -1.21875 5.472656 -1.265625 5.734375 -1.359375 C 6.003906 -1.460938 6.257812 -1.578125 6.5 -1.703125 L 6.953125 -0.40625 C 6.710938 -0.269531 6.390625 -0.132812 5.984375 0 C 5.578125 0.144531 5.148438 0.21875 4.703125 0.21875 C 3.804688 0.21875 3.097656 -0.0703125 2.578125 -0.65625 C 2.054688 -1.25 1.796875 -2.101562 1.796875 -3.21875 L 1.796875 -7.59375 L 0.171875 -7.59375 L 0.171875 -9 L 1.828125 -9 Z M 2.171875 -11.9375 "/></g></g></g><g fill="#000000" fill-opacity="1"><g transform="translate(235.933965, 145.964651)"><g/></g></g><g fill="#000000" fill-opacity="1"><g transform="translate(241.319589, 145.964651)"><g><path d="M 0.8125 -4.609375 C 0.8125 -5.304688 0.914062 -5.957031 1.125 -6.5625 C 1.34375 -7.164062 1.644531 -7.6875 2.03125 -8.125 C 2.425781 -8.570312 2.894531 -8.921875 3.4375 -9.171875 C 3.976562 -9.421875 4.570312 -9.546875 5.21875 -9.546875 C 5.757812 -9.546875 6.25 -9.453125 6.6875 -9.265625 C 7.125 -9.085938 7.503906 -8.859375 7.828125 -8.578125 L 7.828125 -9.328125 L 9.296875 -9.328125 L 9.296875 -2.265625 C 9.296875 -1.804688 9.40625 -1.507812 9.625 -1.375 C 9.851562 -1.238281 10.097656 -1.171875 10.359375 -1.171875 L 10.015625 0.09375 C 8.867188 0.09375 8.175781 -0.375 7.9375 -1.3125 C 7.789062 -1.113281 7.625 -0.921875 7.4375 -0.734375 C 7.25 -0.554688 7.035156 -0.394531 6.796875 -0.25 C 6.554688 -0.101562 6.285156 0.0078125 5.984375 0.09375 C 5.691406 0.175781 5.367188 0.21875 5.015625 0.21875 C 4.421875 0.21875 3.867188 0.101562 3.359375 -0.125 C 2.859375 -0.351562 2.414062 -0.675781 2.03125 -1.09375 C 1.65625 -1.507812 1.359375 -2.015625 1.140625 -2.609375 C 0.921875 -3.203125 0.8125 -3.867188 0.8125 -4.609375 Z M 5.375 -1.21875 C 5.820312 -1.21875 6.25 -1.320312 6.65625 -1.53125 C 7.0625 -1.75 7.40625 -2.035156 7.6875 -2.390625 L 7.6875 -7.390625 C 7.363281 -7.617188 7.003906 -7.800781 6.609375 -7.9375 C 6.222656 -8.082031 5.816406 -8.15625 5.390625 -8.15625 C 4.953125 -8.15625 4.550781 -8.066406 4.1875 -7.890625 C 3.832031 -7.722656 3.523438 -7.488281 3.265625 -7.1875 C 3.015625 -6.882812 2.816406 -6.515625 2.671875 -6.078125 C 2.523438 -5.648438 2.453125 -5.179688 2.453125 -4.671875 C 2.453125 -4.160156 2.523438 -3.691406 2.671875 -3.265625 C 2.816406 -2.847656 3.019531 -2.484375 3.28125 -2.171875 C 3.550781 -1.867188 3.859375 -1.632812 4.203125 -1.46875 C 4.554688 -1.300781 4.945312 -1.21875 5.375 -1.21875 Z M 5.375 -1.21875 "/></g></g></g><g fill="#000000" fill-opacity="1"><g transform="translate(252.396016, 145.964651)"><g><path d="M 3 -7.78125 C 3.332031 -8.28125 3.757812 -8.695312 4.28125 -9.03125 C 4.800781 -9.375 5.421875 -9.546875 6.140625 -9.546875 C 7.191406 -9.546875 7.976562 -9.226562 8.5 -8.59375 C 9.019531 -7.957031 9.28125 -7.125 9.28125 -6.09375 L 9.28125 0 L 7.671875 0 L 7.671875 -5.90625 C 7.671875 -6.59375 7.515625 -7.132812 7.203125 -7.53125 C 6.890625 -7.925781 6.445312 -8.125 5.875 -8.125 C 5.59375 -8.125 5.320312 -8.070312 5.0625 -7.96875 C 4.800781 -7.875 4.546875 -7.734375 4.296875 -7.546875 C 4.054688 -7.367188 3.828125 -7.160156 3.609375 -6.921875 C 3.398438 -6.691406 3.210938 -6.441406 3.046875 -6.171875 L 3.046875 0 L 1.4375 0 L 1.4375 -9.328125 L 3 -9.328125 Z M 3 -7.78125 "/></g></g></g><g fill="#000000" fill-opacity="1"><g transform="translate(263.023636, 145.964651)"><g><path d="M 4.96875 0.21875 C 4.394531 0.21875 3.851562 0.101562 3.34375 -0.125 C 2.832031 -0.351562 2.390625 -0.675781 2.015625 -1.09375 C 1.640625 -1.507812 1.34375 -2.015625 1.125 -2.609375 C 0.914062 -3.203125 0.8125 -3.867188 0.8125 -4.609375 C 0.8125 -5.316406 0.921875 -5.972656 1.140625 -6.578125 C 1.359375 -7.179688 1.65625 -7.703125 2.03125 -8.140625 C 2.414062 -8.578125 2.859375 -8.921875 3.359375 -9.171875 C 3.859375 -9.421875 4.390625 -9.546875 4.953125 -9.546875 C 5.578125 -9.546875 6.113281 -9.421875 6.5625 -9.171875 C 7.007812 -8.921875 7.359375 -8.664062 7.609375 -8.40625 L 7.609375 -13.28125 L 9.234375 -13.28125 L 9.234375 -2.265625 C 9.234375 -1.804688 9.34375 -1.507812 9.5625 -1.375 C 9.78125 -1.238281 10.019531 -1.171875 10.28125 -1.171875 L 9.953125 0.09375 C 8.804688 0.09375 8.109375 -0.363281 7.859375 -1.28125 C 7.585938 -0.894531 7.21875 -0.546875 6.75 -0.234375 C 6.28125 0.0664062 5.6875 0.21875 4.96875 0.21875 Z M 5.328125 -1.21875 C 5.773438 -1.21875 6.195312 -1.320312 6.59375 -1.53125 C 7 -1.738281 7.335938 -2.015625 7.609375 -2.359375 L 7.609375 -6.984375 C 7.378906 -7.273438 7.0625 -7.539062 6.65625 -7.78125 C 6.257812 -8.03125 5.8125 -8.15625 5.3125 -8.15625 C 4.882812 -8.15625 4.492188 -8.0625 4.140625 -7.875 C 3.785156 -7.695312 3.484375 -7.453125 3.234375 -7.140625 C 2.984375 -6.828125 2.789062 -6.457031 2.65625 -6.03125 C 2.519531 -5.613281 2.453125 -5.160156 2.453125 -4.671875 C 2.453125 -4.160156 2.523438 -3.695312 2.671875 -3.28125 C 2.816406 -2.863281 3.015625 -2.5 3.265625 -2.1875 C 3.523438 -1.882812 3.832031 -1.644531 4.1875 -1.46875 C 4.539062 -1.300781 4.921875 -1.21875 5.328125 -1.21875 Z M 5.328125 -1.21875 "/></g></g></g><g fill="#000000" fill-opacity="1"><g transform="translate(274.028271, 145.964651)"><g/></g></g><g fill="#000000" fill-opacity="1"><g transform="translate(279.413895, 145.964651)"><g><path d="M 5.140625 -9.546875 C 5.671875 -9.546875 6.148438 -9.457031 6.578125 -9.28125 C 7.003906 -9.101562 7.375 -8.882812 7.6875 -8.625 L 7.6875 -9.328125 L 9.15625 -9.328125 L 9.15625 -0.21875 C 9.15625 0.5625 9.050781 1.226562 8.84375 1.78125 C 8.644531 2.332031 8.359375 2.78125 7.984375 3.125 C 7.609375 3.476562 7.15625 3.738281 6.625 3.90625 C 6.09375 4.082031 5.503906 4.171875 4.859375 4.171875 C 4.296875 4.171875 3.757812 4.101562 3.25 3.96875 C 2.738281 3.832031 2.273438 3.632812 1.859375 3.375 L 2.453125 1.96875 C 2.742188 2.195312 3.082031 2.382812 3.46875 2.53125 C 3.851562 2.6875 4.316406 2.765625 4.859375 2.765625 C 5.710938 2.765625 6.378906 2.539062 6.859375 2.09375 C 7.347656 1.65625 7.59375 0.941406 7.59375 -0.046875 L 7.59375 -1.203125 C 7.351562 -0.910156 7.007812 -0.632812 6.5625 -0.375 C 6.113281 -0.125 5.578125 0 4.953125 0 C 4.429688 0 3.914062 -0.101562 3.40625 -0.3125 C 2.90625 -0.519531 2.460938 -0.820312 2.078125 -1.21875 C 1.703125 -1.625 1.394531 -2.117188 1.15625 -2.703125 C 0.925781 -3.285156 0.8125 -3.953125 0.8125 -4.703125 C 0.8125 -5.398438 0.921875 -6.039062 1.140625 -6.625 C 1.367188 -7.21875 1.675781 -7.726562 2.0625 -8.15625 C 2.457031 -8.59375 2.914062 -8.929688 3.4375 -9.171875 C 3.96875 -9.421875 4.535156 -9.546875 5.140625 -9.546875 Z M 5.3125 -1.4375 C 5.789062 -1.4375 6.222656 -1.539062 6.609375 -1.75 C 6.992188 -1.96875 7.304688 -2.222656 7.546875 -2.515625 L 7.546875 -7.390625 C 7.265625 -7.585938 6.941406 -7.765625 6.578125 -7.921875 C 6.222656 -8.078125 5.796875 -8.15625 5.296875 -8.15625 C 4.921875 -8.15625 4.5625 -8.078125 4.21875 -7.921875 C 3.882812 -7.773438 3.582031 -7.554688 3.3125 -7.265625 C 3.050781 -6.984375 2.84375 -6.632812 2.6875 -6.21875 C 2.53125 -5.800781 2.453125 -5.328125 2.453125 -4.796875 C 2.453125 -4.273438 2.53125 -3.804688 2.6875 -3.390625 C 2.84375 -2.984375 3.050781 -2.632812 3.3125 -2.34375 C 3.582031 -2.050781 3.882812 -1.828125 4.21875 -1.671875 C 4.5625 -1.515625 4.925781 -1.4375 5.3125 -1.4375 Z M 5.3125 -1.4375 "/></g></g></g><g fill="#000000" fill-opacity="1"><g transform="translate(289.91585, 145.964651)"><g><path d="M 2.453125 -4 C 2.566406 -3.125 2.875 -2.441406 3.375 -1.953125 C 3.875 -1.460938 4.539062 -1.21875 5.375 -1.21875 C 5.90625 -1.21875 6.382812 -1.273438 6.8125 -1.390625 C 7.25 -1.503906 7.664062 -1.648438 8.0625 -1.828125 L 8.4375 -0.453125 C 8.007812 -0.242188 7.523438 -0.0820312 6.984375 0.03125 C 6.441406 0.15625 5.835938 0.21875 5.171875 0.21875 C 4.503906 0.21875 3.898438 0.109375 3.359375 -0.109375 C 2.816406 -0.335938 2.359375 -0.65625 1.984375 -1.0625 C 1.609375 -1.476562 1.316406 -1.988281 1.109375 -2.59375 C 0.910156 -3.195312 0.8125 -3.890625 0.8125 -4.671875 C 0.8125 -5.359375 0.910156 -6 1.109375 -6.59375 C 1.316406 -7.195312 1.601562 -7.71875 1.96875 -8.15625 C 2.34375 -8.59375 2.785156 -8.929688 3.296875 -9.171875 C 3.816406 -9.421875 4.394531 -9.546875 5.03125 -9.546875 C 5.695312 -9.546875 6.28125 -9.429688 6.78125 -9.203125 C 7.289062 -8.984375 7.710938 -8.675781 8.046875 -8.28125 C 8.378906 -7.882812 8.628906 -7.421875 8.796875 -6.890625 C 8.960938 -6.367188 9.046875 -5.8125 9.046875 -5.21875 C 9.046875 -4.800781 9.03125 -4.394531 9 -4 Z M 4.984375 -8.15625 C 4.285156 -8.15625 3.707031 -7.914062 3.25 -7.4375 C 2.800781 -6.957031 2.53125 -6.25 2.4375 -5.3125 L 7.5625 -5.3125 C 7.5625 -6.21875 7.332031 -6.914062 6.875 -7.40625 C 6.414062 -7.90625 5.785156 -8.15625 4.984375 -8.15625 Z M 4.984375 -8.15625 "/></g></g></g><g fill="#000000" fill-opacity="1"><g transform="translate(299.681784, 145.964651)"><g><path d="M 2.171875 -11.9375 L 3.40625 -11.9375 L 3.40625 -9 L 6 -9 L 6 -7.59375 L 3.40625 -7.59375 L 3.40625 -3.09375 C 3.40625 -2.738281 3.441406 -2.441406 3.515625 -2.203125 C 3.597656 -1.960938 3.707031 -1.769531 3.84375 -1.625 C 3.976562 -1.488281 4.132812 -1.382812 4.3125 -1.3125 C 4.5 -1.25 4.695312 -1.21875 4.90625 -1.21875 C 5.195312 -1.21875 5.472656 -1.265625 5.734375 -1.359375 C 6.003906 -1.460938 6.257812 -1.578125 6.5 -1.703125 L 6.953125 -0.40625 C 6.710938 -0.269531 6.390625 -0.132812 5.984375 0 C 5.578125 0.144531 5.148438 0.21875 4.703125 0.21875 C 3.804688 0.21875 3.097656 -0.0703125 2.578125 -0.65625 C 2.054688 -1.25 1.796875 -2.101562 1.796875 -3.21875 L 1.796875 -7.59375 L 0.171875 -7.59375 L 0.171875 -9 L 1.828125 -9 Z M 2.171875 -11.9375 "/></g></g></g><g fill="#000000" fill-opacity="1"><g transform="translate(306.816186, 145.964651)"><g/></g></g><g fill="#000000" fill-opacity="1"><g transform="translate(71.475023, 170.648826)"><g><path d="M 3.046875 0 L 1.4375 0 L 1.4375 -9.328125 L 3.046875 -9.328125 Z M 2.25 -10.9375 C 1.9375 -10.9375 1.664062 -11.046875 1.4375 -11.265625 C 1.21875 -11.484375 1.109375 -11.75 1.109375 -12.0625 C 1.109375 -12.40625 1.207031 -12.679688 1.40625 -12.890625 C 1.613281 -13.097656 1.894531 -13.203125 2.25 -13.203125 C 2.550781 -13.203125 2.8125 -13.085938 3.03125 -12.859375 C 3.257812 -12.640625 3.375 -12.375 3.375 -12.0625 C 3.375 -11.71875 3.269531 -11.441406 3.0625 -11.234375 C 2.863281 -11.035156 2.59375 -10.9375 2.25 -10.9375 Z M 2.25 -10.9375 "/></g></g></g><g fill="#000000" fill-opacity="1"><g transform="translate(75.963043, 170.648826)"><g><path d="M 2.171875 -11.9375 L 3.40625 -11.9375 L 3.40625 -9 L 6 -9 L 6 -7.59375 L 3.40625 -7.59375 L 3.40625 -3.09375 C 3.40625 -2.738281 3.441406 -2.441406 3.515625 -2.203125 C 3.597656 -1.960938 3.707031 -1.769531 3.84375 -1.625 C 3.976562 -1.488281 4.132812 -1.382812 4.3125 -1.3125 C 4.5 -1.25 4.695312 -1.21875 4.90625 -1.21875 C 5.195312 -1.21875 5.472656 -1.265625 5.734375 -1.359375 C 6.003906 -1.460938 6.257812 -1.578125 6.5 -1.703125 L 6.953125 -0.40625 C 6.710938 -0.269531 6.390625 -0.132812 5.984375 0 C 5.578125 0.144531 5.148438 0.21875 4.703125 0.21875 C 3.804688 0.21875 3.097656 -0.0703125 2.578125 -0.65625 C 2.054688 -1.25 1.796875 -2.101562 1.796875 -3.21875 L 1.796875 -7.59375 L 0.171875 -7.59375 L 0.171875 -9 L 1.828125 -9 Z M 2.171875 -11.9375 "/></g></g></g><g fill="#000000" fill-opacity="1"><g transform="translate(83.090014, 170.648826)"><g/></g></g><g fill="#000000" fill-opacity="1"><g transform="translate(88.475639, 170.648826)"><g><path d="M 4.96875 0.21875 C 4.394531 0.21875 3.851562 0.101562 3.34375 -0.125 C 2.832031 -0.351562 2.390625 -0.675781 2.015625 -1.09375 C 1.640625 -1.507812 1.34375 -2.015625 1.125 -2.609375 C 0.914062 -3.203125 0.8125 -3.867188 0.8125 -4.609375 C 0.8125 -5.316406 0.921875 -5.972656 1.140625 -6.578125 C 1.359375 -7.179688 1.65625 -7.703125 2.03125 -8.140625 C 2.414062 -8.578125 2.859375 -8.921875 3.359375 -9.171875 C 3.859375 -9.421875 4.390625 -9.546875 4.953125 -9.546875 C 5.578125 -9.546875 6.113281 -9.421875 6.5625 -9.171875 C 7.007812 -8.921875 7.359375 -8.664062 7.609375 -8.40625 L 7.609375 -13.28125 L 9.234375 -13.28125 L 9.234375 -2.265625 C 9.234375 -1.804688 9.34375 -1.507812 9.5625 -1.375 C 9.78125 -1.238281 10.019531 -1.171875 10.28125 -1.171875 L 9.953125 0.09375 C 8.804688 0.09375 8.109375 -0.363281 7.859375 -1.28125 C 7.585938 -0.894531 7.21875 -0.546875 6.75 -0.234375 C 6.28125 0.0664062 5.6875 0.21875 4.96875 0.21875 Z M 5.328125 -1.21875 C 5.773438 -1.21875 6.195312 -1.320312 6.59375 -1.53125 C 7 -1.738281 7.335938 -2.015625 7.609375 -2.359375 L 7.609375 -6.984375 C 7.378906 -7.273438 7.0625 -7.539062 6.65625 -7.78125 C 6.257812 -8.03125 5.8125 -8.15625 5.3125 -8.15625 C 4.882812 -8.15625 4.492188 -8.0625 4.140625 -7.875 C 3.785156 -7.695312 3.484375 -7.453125 3.234375 -7.140625 C 2.984375 -6.828125 2.789062 -6.457031 2.65625 -6.03125 C 2.519531 -5.613281 2.453125 -5.160156 2.453125 -4.671875 C 2.453125 -4.160156 2.523438 -3.695312 2.671875 -3.28125 C 2.816406 -2.863281 3.015625 -2.5 3.265625 -2.1875 C 3.523438 -1.882812 3.832031 -1.644531 4.1875 -1.46875 C 4.539062 -1.300781 4.921875 -1.21875 5.328125 -1.21875 Z M 5.328125 -1.21875 "/></g></g></g><g fill="#000000" fill-opacity="1"><g transform="translate(99.480262, 170.648826)"><g><path d="M 8.359375 -4.671875 C 8.359375 -5.140625 8.285156 -5.582031 8.140625 -6 C 7.992188 -6.414062 7.785156 -6.78125 7.515625 -7.09375 C 7.242188 -7.40625 6.925781 -7.648438 6.5625 -7.828125 C 6.195312 -8.015625 5.800781 -8.109375 5.375 -8.109375 C 4.425781 -8.109375 3.6875 -7.796875 3.15625 -7.171875 C 2.632812 -6.554688 2.375 -5.734375 2.375 -4.703125 C 2.375 -4.234375 2.445312 -3.785156 2.59375 -3.359375 C 2.738281 -2.941406 2.945312 -2.570312 3.21875 -2.25 C 3.488281 -1.9375 3.804688 -1.6875 4.171875 -1.5 C 4.535156 -1.3125 4.9375 -1.21875 5.375 -1.21875 C 5.832031 -1.21875 6.25 -1.300781 6.625 -1.46875 C 7 -1.632812 7.3125 -1.867188 7.5625 -2.171875 C 7.820312 -2.484375 8.019531 -2.847656 8.15625 -3.265625 C 8.289062 -3.679688 8.359375 -4.148438 8.359375 -4.671875 Z M 0.71875 -4.671875 C 0.71875 -5.421875 0.835938 -6.097656 1.078125 -6.703125 C 1.316406 -7.304688 1.640625 -7.816406 2.046875 -8.234375 C 2.460938 -8.660156 2.953125 -8.984375 3.515625 -9.203125 C 4.085938 -9.429688 4.707031 -9.546875 5.375 -9.546875 C 6.019531 -9.546875 6.625 -9.429688 7.1875 -9.203125 C 7.757812 -8.984375 8.253906 -8.660156 8.671875 -8.234375 C 9.085938 -7.816406 9.414062 -7.304688 9.65625 -6.703125 C 9.894531 -6.109375 10.015625 -5.441406 10.015625 -4.703125 C 10.015625 -3.960938 9.894531 -3.289062 9.65625 -2.6875 C 9.425781 -2.082031 9.101562 -1.5625 8.6875 -1.125 C 8.269531 -0.695312 7.773438 -0.363281 7.203125 -0.125 C 6.640625 0.101562 6.03125 0.21875 5.375 0.21875 C 4.695312 0.21875 4.070312 0.0976562 3.5 -0.140625 C 2.9375 -0.378906 2.445312 -0.710938 2.03125 -1.140625 C 1.625 -1.578125 1.300781 -2.09375 1.0625 -2.6875 C 0.832031 -3.289062 0.71875 -3.953125 0.71875 -4.671875 Z M 0.71875 -4.671875 "/></g></g></g><g fill="#000000" fill-opacity="1"><g transform="translate(110.215604, 170.648826)"><g><path d="M 3 -7.78125 C 3.332031 -8.28125 3.757812 -8.695312 4.28125 -9.03125 C 4.800781 -9.375 5.421875 -9.546875 6.140625 -9.546875 C 7.191406 -9.546875 7.976562 -9.226562 8.5 -8.59375 C 9.019531 -7.957031 9.28125 -7.125 9.28125 -6.09375 L 9.28125 0 L 7.671875 0 L 7.671875 -5.90625 C 7.671875 -6.59375 7.515625 -7.132812 7.203125 -7.53125 C 6.890625 -7.925781 6.445312 -8.125 5.875 -8.125 C 5.59375 -8.125 5.320312 -8.070312 5.0625 -7.96875 C 4.800781 -7.875 4.546875 -7.734375 4.296875 -7.546875 C 4.054688 -7.367188 3.828125 -7.160156 3.609375 -6.921875 C 3.398438 -6.691406 3.210938 -6.441406 3.046875 -6.171875 L 3.046875 0 L 1.4375 0 L 1.4375 -9.328125 L 3 -9.328125 Z M 3 -7.78125 "/></g></g></g><g fill="#000000" fill-opacity="1"><g transform="translate(120.843235, 170.648826)"><g><path d="M 2.453125 -4 C 2.566406 -3.125 2.875 -2.441406 3.375 -1.953125 C 3.875 -1.460938 4.539062 -1.21875 5.375 -1.21875 C 5.90625 -1.21875 6.382812 -1.273438 6.8125 -1.390625 C 7.25 -1.503906 7.664062 -1.648438 8.0625 -1.828125 L 8.4375 -0.453125 C 8.007812 -0.242188 7.523438 -0.0820312 6.984375 0.03125 C 6.441406 0.15625 5.835938 0.21875 5.171875 0.21875 C 4.503906 0.21875 3.898438 0.109375 3.359375 -0.109375 C 2.816406 -0.335938 2.359375 -0.65625 1.984375 -1.0625 C 1.609375 -1.476562 1.316406 -1.988281 1.109375 -2.59375 C 0.910156 -3.195312 0.8125 -3.890625 0.8125 -4.671875 C 0.8125 -5.359375 0.910156 -6 1.109375 -6.59375 C 1.316406 -7.195312 1.601562 -7.71875 1.96875 -8.15625 C 2.34375 -8.59375 2.785156 -8.929688 3.296875 -9.171875 C 3.816406 -9.421875 4.394531 -9.546875 5.03125 -9.546875 C 5.695312 -9.546875 6.28125 -9.429688 6.78125 -9.203125 C 7.289062 -8.984375 7.710938 -8.675781 8.046875 -8.28125 C 8.378906 -7.882812 8.628906 -7.421875 8.796875 -6.890625 C 8.960938 -6.367188 9.046875 -5.8125 9.046875 -5.21875 C 9.046875 -4.800781 9.03125 -4.394531 9 -4 Z M 4.984375 -8.15625 C 4.285156 -8.15625 3.707031 -7.914062 3.25 -7.4375 C 2.800781 -6.957031 2.53125 -6.25 2.4375 -5.3125 L 7.5625 -5.3125 C 7.5625 -6.21875 7.332031 -6.914062 6.875 -7.40625 C 6.414062 -7.90625 5.785156 -8.15625 4.984375 -8.15625 Z M 4.984375 -8.15625 "/></g></g></g><g fill="#000000" fill-opacity="1"><g transform="translate(130.609169, 170.648826)"><g><path d="M 1.90625 -13.09375 L 3.703125 -13.09375 L 3.703125 -8.625 L 3.46875 -3.71875 L 2.140625 -3.71875 L 1.90625 -8.625 Z M 1.609375 -0.984375 C 1.609375 -1.359375 1.710938 -1.648438 1.921875 -1.859375 C 2.140625 -2.078125 2.4375 -2.1875 2.8125 -2.1875 C 3.125 -2.1875 3.398438 -2.066406 3.640625 -1.828125 C 3.890625 -1.585938 4.015625 -1.304688 4.015625 -0.984375 C 4.015625 -0.628906 3.898438 -0.335938 3.671875 -0.109375 C 3.453125 0.109375 3.164062 0.21875 2.8125 0.21875 C 2.488281 0.21875 2.207031 0.0976562 1.96875 -0.140625 C 1.726562 -0.378906 1.609375 -0.660156 1.609375 -0.984375 Z M 1.609375 -0.984375 "/></g></g></g></svg>