<svg xmlns="http://www.w3.org/2000/svg" xmlns:xlink="http://www.w3.org/1999/xlink" width="500" zoomAndPan="magnify" viewBox="0 0 375 281.25" height="375" preserveAspectRatio="xMidYMid meet" version="1.0"><defs><g/><clipPath id="8994c16314"><path d="M 28.550781 26.179688 L 347 26.179688 L 347 256.027344 L 28.550781 256.027344 Z M 28.550781 26.179688 " clip-rule="nonzero"/></clipPath><clipPath id="adda9389ca"><path d="M 42.011719 26.179688 L 332.988281 26.179688 C 336.558594 26.179688 339.984375 27.597656 342.507812 30.121094 C 345.03125 32.644531 346.449219 36.070312 346.449219 39.640625 L 346.449219 242.5625 C 346.449219 246.132812 345.03125 249.558594 342.507812 252.082031 C 339.984375 254.609375 336.558594 256.027344 332.988281 256.027344 L 42.011719 256.027344 C 38.441406 256.027344 35.015625 254.609375 32.492188 252.082031 C 29.96875 249.558594 28.550781 246.132812 28.550781 242.5625 L 28.550781 39.640625 C 28.550781 32.207031 34.578125 26.179688 42.011719 26.179688 Z M 42.011719 26.179688 " clip-rule="nonzero"/></clipPath><clipPath id="e1823a2999"><path d="M 0.550781 0.179688 L 318.617188 0.179688 L 318.617188 230.027344 L 0.550781 230.027344 Z M 0.550781 0.179688 " clip-rule="nonzero"/></clipPath><clipPath id="3139fe214b"><path d="M 14.011719 0.179688 L 304.988281 0.179688 C 308.558594 0.179688 311.984375 1.597656 314.507812 4.121094 C 317.03125 6.644531 318.449219 10.070312 318.449219 13.640625 L 318.449219 216.5625 C 318.449219 220.132812 317.03125 223.558594 314.507812 226.082031 C 311.984375 228.609375 308.558594 230.027344 304.988281 230.027344 L 14.011719 230.027344 C 10.441406 230.027344 7.015625 228.609375 4.492188 226.082031 C 1.96875 223.558594 0.550781 220.132812 0.550781 216.5625 L 0.550781 13.640625 C 0.550781 6.207031 6.578125 0.179688 14.011719 0.179688 Z M 14.011719 0.179688 " clip-rule="nonzero"/></clipPath><clipPath id="808f5c698f"><rect x="0" width="319" y="0" height="231"/></clipPath><clipPath id="8ec093a58b"><path d="M 80.507812 47.152344 L 294.4375 47.152344 L 294.4375 233.40625 L 80.507812 233.40625 Z M 80.507812 47.152344 " clip-rule="nonzero"/></clipPath><clipPath id="7d875ba648"><path d="M -254.75 -186.367188 L 286 -186.367188 C 320.566406 -186.367188 348.597656 -158.308594 348.597656 -123.703125 L 348.597656 217.585938 C 348.597656 252.199219 320.566406 280.246094 286 280.246094 L -254.75 280.246094 C -289.316406 280.246094 -317.347656 252.199219 -317.347656 217.585938 L -317.347656 -123.703125 C -317.347656 -158.308594 -289.316406 -186.367188 -254.75 -186.367188 " clip-rule="nonzero"/></clipPath><clipPath id="1eb00184c5"><path d="M 101 63 L 273 63 L 273 197.808594 L 101 197.808594 Z M 101 63 " clip-rule="nonzero"/></clipPath></defs><g clip-path="url(#8994c16314)"><g clip-path="url(#adda9389ca)"><g transform="matrix(1, 0, 0, 1, 28, 26)"><g clip-path="url(#808f5c698f)"><g clip-path="url(#e1823a2999)"><g clip-path="url(#3139fe214b)"><path fill="#d3d9dd" d="M 0.550781 0.179688 L 318.386719 0.179688 L 318.386719 230.027344 L 0.550781 230.027344 Z M 0.550781 0.179688 " fill-opacity="1" fill-rule="nonzero"/></g></g></g></g></g></g><g clip-path="url(#8ec093a58b)"><g clip-path="url(#7d875ba648)"><path fill="#d3d9dd" d="M -317.347656 -186.367188 L 348.597656 -186.367188 L 348.597656 280.246094 L -317.347656 280.246094 Z M -317.347656 -186.367188 " fill-opacity="1" fill-rule="nonzero"/></g></g><g clip-path="url(#1eb00184c5)"><path fill="#1d97bd" d="M 112.542969 192.125 C 107.957031 180.179688 110.625 163.546875 118.1875 156.976562 C 122.683594 153.0625 126.625 145.171875 127.925781 137.492188 C 129.121094 130.390625 131.53125 123.695312 133.277344 122.617188 C 135.027344 121.539062 130.289062 117.199219 122.753906 112.976562 C 108.347656 104.890625 101.167969 97.585938 101.167969 91 C 101.167969 88.773438 111.070312 93.164062 123.886719 101.066406 C 146.195312 114.828125 147.113281 115.082031 173.960938 115.082031 L 201.316406 115.082031 L 203.285156 124.941406 C 204.371094 130.367188 205.257812 139.71875 205.257812 145.730469 L 205.257812 156.652344 L 191.851562 154.628906 C 184.476562 153.515625 174.679688 151.886719 170.070312 151.015625 C 163.273438 149.714844 160.117188 151.496094 153.25 160.5 C 144.453125 172.039062 144.480469 180.402344 153.335938 187.75 C 160.082031 193.355469 158.972656 197.113281 150.554688 197.113281 C 144.714844 197.113281 142.410156 194.566406 139.519531 184.917969 C 137.507812 178.210938 135.863281 169.625 135.863281 165.839844 C 135.863281 159.09375 135.710938 159.074219 128.078125 164.632812 C 119.214844 171.078125 117.179688 186.734375 124.824219 189.660156 C 132.15625 192.480469 130.40625 197.113281 122.003906 197.113281 C 117.855469 197.113281 113.59375 194.871094 112.542969 192.125 Z M 211.070312 194.746094 C 210.792969 193.445312 210.4375 175.683594 210.277344 155.28125 C 209.964844 114.480469 209.003906 115.710938 230.488281 129.277344 C 240.183594 135.398438 242.734375 138.554688 240.320312 141.457031 C 235.734375 146.996094 244.902344 181.472656 252.742188 188.160156 C 261.144531 195.324219 260.449219 197.71875 250.289062 196.542969 C 243.152344 195.707031 240.726562 192.863281 235.992188 179.761719 C 232.859375 171.085938 229.464844 161.863281 228.457031 159.261719 C 227.199219 156.019531 225.316406 158.007812 222.488281 165.570312 C 216.742188 180.925781 216.96875 187.847656 223.398438 192.730469 C 228.417969 196.535156 228.125 196.925781 220.242188 197.015625 C 215.46875 197.070312 211.339844 196.054688 211.070312 194.753906 Z M 231.238281 122.722656 C 222.15625 117.289062 218.574219 113.359375 220.203125 110.609375 C 225.148438 102.261719 238.675781 87.855469 243.179688 86.136719 C 249.878906 83.589844 262.035156 88.820312 262.035156 94.261719 C 262.035156 96.800781 264.800781 99.765625 268.183594 100.835938 C 277.03125 103.648438 272.613281 111.933594 262.269531 111.933594 C 255.890625 111.933594 252.574219 114.320312 249.203125 121.351562 L 244.6875 130.777344 Z M 194.929688 98.519531 C 180.789062 74.128906 176.859375 64.980469 179.75 63.191406 C 182.03125 61.789062 208.414062 105.429688 208.414062 110.597656 C 208.414062 115.960938 201.402344 109.683594 194.929688 98.519531 Z M 194.929688 98.519531 " fill-opacity="1" fill-rule="nonzero"/></g><g fill="#1d97bd" fill-opacity="1"><g transform="translate(148.822946, 213.437359)"><g><path d="M 6.46875 -11.515625 C 7.1875 -11.515625 7.773438 -11.410156 8.234375 -11.203125 C 8.691406 -11.003906 9.097656 -10.765625 9.453125 -10.484375 C 9.585938 -10.390625 9.695312 -10.34375 9.78125 -10.34375 C 9.976562 -10.34375 10.109375 -10.660156 10.171875 -11.296875 L 10.546875 -11.296875 C 10.523438 -10.878906 10.507812 -10.375 10.5 -9.78125 C 10.488281 -9.195312 10.484375 -8.414062 10.484375 -7.4375 L 10.109375 -7.4375 C 10.035156 -8.070312 9.921875 -8.625 9.765625 -9.09375 C 9.617188 -9.570312 9.335938 -9.984375 8.921875 -10.328125 C 8.660156 -10.566406 8.34375 -10.753906 7.96875 -10.890625 C 7.59375 -11.035156 7.210938 -11.109375 6.828125 -11.109375 C 6.242188 -11.109375 5.742188 -10.953125 5.328125 -10.640625 C 4.910156 -10.335938 4.566406 -9.925781 4.296875 -9.40625 C 4.035156 -8.882812 3.84375 -8.296875 3.71875 -7.640625 C 3.59375 -6.992188 3.53125 -6.316406 3.53125 -5.609375 C 3.53125 -3.703125 3.789062 -2.304688 4.3125 -1.421875 C 4.84375 -0.535156 5.601562 -0.09375 6.59375 -0.09375 C 6.84375 -0.09375 7.0625 -0.125 7.25 -0.1875 C 7.445312 -0.25 7.601562 -0.328125 7.71875 -0.421875 C 7.863281 -0.523438 7.960938 -0.632812 8.015625 -0.75 C 8.078125 -0.875 8.109375 -1.039062 8.109375 -1.25 L 8.109375 -2.8125 C 8.109375 -3.300781 8.066406 -3.664062 7.984375 -3.90625 C 7.898438 -4.144531 7.738281 -4.304688 7.5 -4.390625 C 7.269531 -4.472656 6.9375 -4.519531 6.5 -4.53125 L 6.5 -4.84375 C 6.71875 -4.832031 6.984375 -4.820312 7.296875 -4.8125 C 7.609375 -4.8125 7.9375 -4.804688 8.28125 -4.796875 C 8.625 -4.796875 8.9375 -4.796875 9.21875 -4.796875 C 9.664062 -4.796875 10.070312 -4.800781 10.4375 -4.8125 C 10.8125 -4.820312 11.117188 -4.832031 11.359375 -4.84375 L 11.359375 -4.53125 C 11.160156 -4.519531 11.007812 -4.484375 10.90625 -4.421875 C 10.800781 -4.359375 10.726562 -4.226562 10.6875 -4.03125 C 10.65625 -3.84375 10.640625 -3.550781 10.640625 -3.15625 L 10.640625 0 L 10.328125 0 C 10.316406 -0.175781 10.273438 -0.367188 10.203125 -0.578125 C 10.128906 -0.796875 10.015625 -0.90625 9.859375 -0.90625 C 9.785156 -0.90625 9.6875 -0.882812 9.5625 -0.84375 C 9.4375 -0.8125 9.25 -0.722656 9 -0.578125 C 8.601562 -0.347656 8.1875 -0.15625 7.75 0 C 7.3125 0.144531 6.851562 0.21875 6.375 0.21875 C 5.144531 0.21875 4.101562 -0.0078125 3.25 -0.46875 C 2.40625 -0.925781 1.765625 -1.582031 1.328125 -2.4375 C 0.898438 -3.289062 0.6875 -4.316406 0.6875 -5.515625 C 0.6875 -6.734375 0.929688 -7.785156 1.421875 -8.671875 C 1.921875 -9.566406 2.601562 -10.265625 3.46875 -10.765625 C 4.332031 -11.265625 5.332031 -11.515625 6.46875 -11.515625 Z M 6.46875 -11.515625 "/></g></g></g><g fill="#1d97bd" fill-opacity="1"><g transform="translate(160.548856, 213.437359)"><g><path d="M 8.328125 -8.421875 L 8.328125 -1.734375 C 8.328125 -1.253906 8.398438 -0.898438 8.546875 -0.671875 C 8.703125 -0.441406 8.96875 -0.328125 9.34375 -0.328125 L 9.34375 0 C 9.019531 -0.03125 8.691406 -0.046875 8.359375 -0.046875 C 7.910156 -0.046875 7.492188 -0.03125 7.109375 0 C 6.734375 0.03125 6.375 0.0859375 6.03125 0.171875 L 6.03125 -1.265625 C 5.769531 -0.734375 5.414062 -0.351562 4.96875 -0.125 C 4.519531 0.101562 4.019531 0.21875 3.46875 0.21875 C 3.019531 0.21875 2.65625 0.160156 2.375 0.046875 C 2.101562 -0.0664062 1.882812 -0.21875 1.71875 -0.40625 C 1.539062 -0.601562 1.414062 -0.863281 1.34375 -1.1875 C 1.269531 -1.519531 1.234375 -1.945312 1.234375 -2.46875 L 1.234375 -6.515625 C 1.234375 -6.992188 1.160156 -7.34375 1.015625 -7.5625 C 0.867188 -7.789062 0.597656 -7.90625 0.203125 -7.90625 L 0.203125 -8.25 C 0.546875 -8.21875 0.878906 -8.203125 1.203125 -8.203125 C 1.640625 -8.203125 2.050781 -8.21875 2.4375 -8.25 C 2.832031 -8.289062 3.195312 -8.347656 3.53125 -8.421875 L 3.53125 -1.8125 C 3.53125 -1.550781 3.550781 -1.316406 3.59375 -1.109375 C 3.644531 -0.910156 3.738281 -0.753906 3.875 -0.640625 C 4.007812 -0.535156 4.210938 -0.484375 4.484375 -0.484375 C 4.765625 -0.484375 5.019531 -0.5625 5.25 -0.71875 C 5.476562 -0.875 5.664062 -1.09375 5.8125 -1.375 C 5.957031 -1.65625 6.03125 -1.972656 6.03125 -2.328125 L 6.03125 -6.515625 C 6.03125 -6.992188 5.957031 -7.34375 5.8125 -7.5625 C 5.664062 -7.789062 5.398438 -7.90625 5.015625 -7.90625 L 5.015625 -8.25 C 5.347656 -8.21875 5.675781 -8.203125 6 -8.203125 C 6.445312 -8.203125 6.863281 -8.21875 7.25 -8.25 C 7.632812 -8.289062 7.992188 -8.347656 8.328125 -8.421875 Z M 8.328125 -8.421875 "/></g></g></g><g fill="#1d97bd" fill-opacity="1"><g transform="translate(170.216746, 213.437359)"><g><path d="M 6.171875 -8.46875 C 6.617188 -8.46875 6.976562 -8.410156 7.25 -8.296875 C 7.53125 -8.191406 7.753906 -8.039062 7.921875 -7.84375 C 8.097656 -7.644531 8.222656 -7.382812 8.296875 -7.0625 C 8.367188 -6.738281 8.40625 -6.3125 8.40625 -5.78125 L 8.40625 -1.484375 C 8.40625 -1.035156 8.472656 -0.726562 8.609375 -0.5625 C 8.753906 -0.40625 8.992188 -0.328125 9.328125 -0.328125 L 9.328125 0 C 9.140625 -0.0078125 8.847656 -0.0195312 8.453125 -0.03125 C 8.066406 -0.0507812 7.691406 -0.0625 7.328125 -0.0625 C 6.941406 -0.0625 6.5625 -0.0507812 6.1875 -0.03125 C 5.8125 -0.0195312 5.53125 -0.0078125 5.34375 0 L 5.34375 -0.328125 C 5.632812 -0.328125 5.832031 -0.40625 5.9375 -0.5625 C 6.050781 -0.726562 6.109375 -1.035156 6.109375 -1.484375 L 6.109375 -6.4375 C 6.109375 -6.707031 6.085938 -6.941406 6.046875 -7.140625 C 6.003906 -7.335938 5.921875 -7.488281 5.796875 -7.59375 C 5.671875 -7.707031 5.488281 -7.765625 5.25 -7.765625 C 4.96875 -7.765625 4.707031 -7.6875 4.46875 -7.53125 C 4.238281 -7.375 4.050781 -7.148438 3.90625 -6.859375 C 3.769531 -6.578125 3.703125 -6.265625 3.703125 -5.921875 L 3.703125 -1.484375 C 3.703125 -1.035156 3.757812 -0.726562 3.875 -0.5625 C 3.988281 -0.40625 4.1875 -0.328125 4.46875 -0.328125 L 4.46875 0 C 4.300781 -0.0078125 4.035156 -0.0195312 3.671875 -0.03125 C 3.316406 -0.0507812 2.953125 -0.0625 2.578125 -0.0625 C 2.179688 -0.0625 1.769531 -0.0507812 1.34375 -0.03125 C 0.914062 -0.0195312 0.597656 -0.0078125 0.390625 0 L 0.390625 -0.328125 C 0.753906 -0.328125 1.015625 -0.40625 1.171875 -0.5625 C 1.328125 -0.726562 1.40625 -1.035156 1.40625 -1.484375 L 1.40625 -6.515625 C 1.40625 -6.992188 1.332031 -7.34375 1.1875 -7.5625 C 1.039062 -7.789062 0.773438 -7.90625 0.390625 -7.90625 L 0.390625 -8.25 C 0.722656 -8.21875 1.050781 -8.203125 1.375 -8.203125 C 1.820312 -8.203125 2.238281 -8.21875 2.625 -8.25 C 3.007812 -8.289062 3.367188 -8.347656 3.703125 -8.421875 L 3.703125 -6.984375 C 3.953125 -7.515625 4.296875 -7.894531 4.734375 -8.125 C 5.171875 -8.351562 5.648438 -8.46875 6.171875 -8.46875 Z M 10.96875 -8.46875 C 11.414062 -8.46875 11.773438 -8.410156 12.046875 -8.296875 C 12.328125 -8.191406 12.554688 -8.039062 12.734375 -7.84375 C 12.898438 -7.644531 13.019531 -7.382812 13.09375 -7.0625 C 13.164062 -6.738281 13.203125 -6.3125 13.203125 -5.78125 L 13.203125 -1.484375 C 13.203125 -1.035156 13.28125 -0.726562 13.4375 -0.5625 C 13.59375 -0.40625 13.859375 -0.328125 14.234375 -0.328125 L 14.234375 0 C 14.023438 -0.0078125 13.71875 -0.0195312 13.3125 -0.03125 C 12.914062 -0.0507812 12.519531 -0.0625 12.125 -0.0625 C 11.738281 -0.0625 11.359375 -0.0507812 10.984375 -0.03125 C 10.617188 -0.0195312 10.335938 -0.0078125 10.140625 0 L 10.140625 -0.328125 C 10.429688 -0.328125 10.628906 -0.40625 10.734375 -0.5625 C 10.847656 -0.726562 10.90625 -1.035156 10.90625 -1.484375 L 10.90625 -6.4375 C 10.90625 -6.707031 10.878906 -6.941406 10.828125 -7.140625 C 10.785156 -7.335938 10.695312 -7.488281 10.5625 -7.59375 C 10.4375 -7.707031 10.234375 -7.765625 9.953125 -7.765625 C 9.679688 -7.765625 9.425781 -7.679688 9.1875 -7.515625 C 8.957031 -7.347656 8.769531 -7.117188 8.625 -6.828125 C 8.476562 -6.535156 8.398438 -6.21875 8.390625 -5.875 L 8.3125 -6.84375 C 8.601562 -7.476562 8.984375 -7.90625 9.453125 -8.125 C 9.921875 -8.351562 10.425781 -8.46875 10.96875 -8.46875 Z M 10.96875 -8.46875 "/></g></g></g><g fill="#1d97bd" fill-opacity="1"><g transform="translate(184.654768, 213.437359)"><g><path d="M 5.859375 -8.46875 C 6.679688 -8.46875 7.367188 -8.128906 7.921875 -7.453125 C 8.472656 -6.773438 8.75 -5.738281 8.75 -4.34375 C 8.75 -3.238281 8.578125 -2.347656 8.234375 -1.671875 C 7.898438 -1.003906 7.457031 -0.519531 6.90625 -0.21875 C 6.351562 0.0703125 5.75 0.21875 5.09375 0.21875 C 4.65625 0.21875 4.25 0.144531 3.875 0 C 3.5 -0.144531 3.179688 -0.390625 2.921875 -0.734375 L 3.140625 -0.8125 C 3.335938 -0.582031 3.566406 -0.40625 3.828125 -0.28125 C 4.085938 -0.164062 4.34375 -0.109375 4.59375 -0.109375 C 5.175781 -0.109375 5.609375 -0.4375 5.890625 -1.09375 C 6.179688 -1.757812 6.328125 -2.765625 6.328125 -4.109375 C 6.328125 -5.023438 6.269531 -5.75 6.15625 -6.28125 C 6.050781 -6.820312 5.890625 -7.207031 5.671875 -7.4375 C 5.460938 -7.664062 5.207031 -7.78125 4.90625 -7.78125 C 4.539062 -7.78125 4.203125 -7.628906 3.890625 -7.328125 C 3.585938 -7.023438 3.410156 -6.601562 3.359375 -6.0625 L 3.28125 -6.625 C 3.476562 -7.226562 3.804688 -7.6875 4.265625 -8 C 4.722656 -8.3125 5.253906 -8.46875 5.859375 -8.46875 Z M 3.40625 -12.46875 L 3.40625 -0.3125 C 3.144531 -0.363281 2.875 -0.363281 2.59375 -0.3125 C 2.320312 -0.269531 2.066406 -0.195312 1.828125 -0.09375 C 1.597656 0 1.40625 0.113281 1.25 0.25 L 1 0.109375 C 1.039062 -0.0351562 1.066406 -0.179688 1.078125 -0.328125 C 1.097656 -0.484375 1.109375 -0.632812 1.109375 -0.78125 L 1.109375 -10.5625 C 1.109375 -11.039062 1.035156 -11.394531 0.890625 -11.625 C 0.753906 -11.851562 0.488281 -11.96875 0.09375 -11.96875 L 0.09375 -12.296875 C 0.4375 -12.265625 0.765625 -12.25 1.078125 -12.25 C 1.515625 -12.25 1.929688 -12.265625 2.328125 -12.296875 C 2.722656 -12.335938 3.082031 -12.394531 3.40625 -12.46875 Z M 3.40625 -12.46875 "/></g></g></g><g fill="#1d97bd" fill-opacity="1"><g transform="translate(194.00359, 213.437359)"><g><path d="M 4.5 -8.46875 C 5.269531 -8.46875 5.945312 -8.320312 6.53125 -8.03125 C 7.125 -7.75 7.582031 -7.285156 7.90625 -6.640625 C 8.238281 -6.003906 8.40625 -5.160156 8.40625 -4.109375 C 8.40625 -3.054688 8.238281 -2.210938 7.90625 -1.578125 C 7.582031 -0.953125 7.125 -0.492188 6.53125 -0.203125 C 5.945312 0.078125 5.269531 0.21875 4.5 0.21875 C 3.738281 0.21875 3.0625 0.078125 2.46875 -0.203125 C 1.882812 -0.492188 1.425781 -0.953125 1.09375 -1.578125 C 0.757812 -2.210938 0.59375 -3.054688 0.59375 -4.109375 C 0.59375 -5.160156 0.757812 -6.003906 1.09375 -6.640625 C 1.425781 -7.285156 1.882812 -7.75 2.46875 -8.03125 C 3.0625 -8.320312 3.738281 -8.46875 4.5 -8.46875 Z M 4.5 -8.15625 C 4.070312 -8.15625 3.710938 -7.835938 3.421875 -7.203125 C 3.140625 -6.566406 3 -5.535156 3 -4.109375 C 3 -2.691406 3.140625 -1.664062 3.421875 -1.03125 C 3.710938 -0.40625 4.070312 -0.09375 4.5 -0.09375 C 4.9375 -0.09375 5.296875 -0.40625 5.578125 -1.03125 C 5.859375 -1.664062 6 -2.691406 6 -4.109375 C 6 -5.535156 5.859375 -6.566406 5.578125 -7.203125 C 5.296875 -7.835938 4.9375 -8.15625 4.5 -8.15625 Z M 4.5 -8.15625 "/></g></g></g><g fill="#1d97bd" fill-opacity="1"><g transform="translate(203.017387, 213.437359)"><g><path d="M 4.5 -8.46875 C 5.269531 -8.46875 5.945312 -8.320312 6.53125 -8.03125 C 7.125 -7.75 7.582031 -7.285156 7.90625 -6.640625 C 8.238281 -6.003906 8.40625 -5.160156 8.40625 -4.109375 C 8.40625 -3.054688 8.238281 -2.210938 7.90625 -1.578125 C 7.582031 -0.953125 7.125 -0.492188 6.53125 -0.203125 C 5.945312 0.078125 5.269531 0.21875 4.5 0.21875 C 3.738281 0.21875 3.0625 0.078125 2.46875 -0.203125 C 1.882812 -0.492188 1.425781 -0.953125 1.09375 -1.578125 C 0.757812 -2.210938 0.59375 -3.054688 0.59375 -4.109375 C 0.59375 -5.160156 0.757812 -6.003906 1.09375 -6.640625 C 1.425781 -7.285156 1.882812 -7.75 2.46875 -8.03125 C 3.0625 -8.320312 3.738281 -8.46875 4.5 -8.46875 Z M 4.5 -8.15625 C 4.070312 -8.15625 3.710938 -7.835938 3.421875 -7.203125 C 3.140625 -6.566406 3 -5.535156 3 -4.109375 C 3 -2.691406 3.140625 -1.664062 3.421875 -1.03125 C 3.710938 -0.40625 4.070312 -0.09375 4.5 -0.09375 C 4.9375 -0.09375 5.296875 -0.40625 5.578125 -1.03125 C 5.859375 -1.664062 6 -2.691406 6 -4.109375 C 6 -5.535156 5.859375 -6.566406 5.578125 -7.203125 C 5.296875 -7.835938 4.9375 -8.15625 4.5 -8.15625 Z M 4.5 -8.15625 "/></g></g></g><g fill="#1d97bd" fill-opacity="1"><g transform="translate(212.031184, 213.437359)"><g><path d="M 3.625 -10.859375 L 3.625 -8.25 L 5.5 -8.25 L 5.5 -7.921875 L 3.625 -7.921875 L 3.625 -1.484375 C 3.625 -1.160156 3.679688 -0.929688 3.796875 -0.796875 C 3.910156 -0.671875 4.085938 -0.609375 4.328125 -0.609375 C 4.515625 -0.609375 4.703125 -0.675781 4.890625 -0.8125 C 5.085938 -0.957031 5.257812 -1.207031 5.40625 -1.5625 L 5.671875 -1.421875 C 5.503906 -0.941406 5.25 -0.546875 4.90625 -0.234375 C 4.5625 0.0664062 4.09375 0.21875 3.5 0.21875 C 3.144531 0.21875 2.832031 0.171875 2.5625 0.078125 C 2.300781 -0.00390625 2.078125 -0.132812 1.890625 -0.3125 C 1.660156 -0.550781 1.507812 -0.84375 1.4375 -1.1875 C 1.363281 -1.53125 1.328125 -1.976562 1.328125 -2.53125 L 1.328125 -7.921875 L -0.015625 -7.921875 L -0.015625 -8.25 L 1.328125 -8.25 L 1.328125 -10.359375 C 1.773438 -10.359375 2.1875 -10.394531 2.5625 -10.46875 C 2.9375 -10.550781 3.289062 -10.679688 3.625 -10.859375 Z M 3.625 -10.859375 "/></g></g></g></svg>