<svg xmlns="http://www.w3.org/2000/svg" xmlns:xlink="http://www.w3.org/1999/xlink" width="500" zoomAndPan="magnify" viewBox="0 0 375 281.25" height="375" preserveAspectRatio="xMidYMid meet" version="1.0"><defs><g/><clipPath id="d92a739288"><path d="M 28.550781 26.179688 L 347 26.179688 L 347 256.027344 L 28.550781 256.027344 Z M 28.550781 26.179688 " clip-rule="nonzero"/></clipPath><clipPath id="012f626d93"><path d="M 42.011719 26.179688 L 332.988281 26.179688 C 336.558594 26.179688 339.984375 27.597656 342.507812 30.121094 C 345.03125 32.644531 346.449219 36.070312 346.449219 39.640625 L 346.449219 242.5625 C 346.449219 246.132812 345.03125 249.558594 342.507812 252.082031 C 339.984375 254.609375 336.558594 256.027344 332.988281 256.027344 L 42.011719 256.027344 C 38.441406 256.027344 35.015625 254.609375 32.492188 252.082031 C 29.96875 249.558594 28.550781 246.132812 28.550781 242.5625 L 28.550781 39.640625 C 28.550781 32.207031 34.578125 26.179688 42.011719 26.179688 Z M 42.011719 26.179688 " clip-rule="nonzero"/></clipPath><clipPath id="b925fe02b6"><path d="M 0.550781 0.179688 L 318.617188 0.179688 L 318.617188 230.027344 L 0.550781 230.027344 Z M 0.550781 0.179688 " clip-rule="nonzero"/></clipPath><clipPath id="8f6ffdc74a"><path d="M 14.011719 0.179688 L 304.988281 0.179688 C 308.558594 0.179688 311.984375 1.597656 314.507812 4.121094 C 317.03125 6.644531 318.449219 10.070312 318.449219 13.640625 L 318.449219 216.5625 C 318.449219 220.132812 317.03125 223.558594 314.507812 226.082031 C 311.984375 228.609375 308.558594 230.027344 304.988281 230.027344 L 14.011719 230.027344 C 10.441406 230.027344 7.015625 228.609375 4.492188 226.082031 C 1.96875 223.558594 0.550781 220.132812 0.550781 216.5625 L 0.550781 13.640625 C 0.550781 6.207031 6.578125 0.179688 14.011719 0.179688 Z M 14.011719 0.179688 " clip-rule="nonzero"/></clipPath><clipPath id="80f616b1cb"><rect x="0" width="319" y="0" height="231"/></clipPath><clipPath id="21f74dc64f"><path d="M 81.464844 46.425781 L 293.898438 46.425781 L 293.898438 234.171875 L 81.464844 234.171875 Z M 81.464844 46.425781 " clip-rule="nonzero"/></clipPath><clipPath id="b1f5848b3d"><path d="M -251.277344 -171.886719 L 275.53125 -171.886719 C 309.210938 -171.886719 336.515625 -144.59375 336.515625 -110.929688 L 336.515625 221.078125 C 336.515625 254.746094 309.210938 282.035156 275.53125 282.035156 L -251.277344 282.035156 C -284.957031 282.035156 -312.261719 254.746094 -312.261719 221.078125 L -312.261719 -110.929688 C -312.261719 -144.59375 -284.957031 -171.886719 -251.277344 -171.886719 " clip-rule="nonzero"/></clipPath><clipPath id="f6782924b2"><path d="M 92.753906 60.269531 L 165 60.269531 L 165 157.292969 L 92.753906 157.292969 Z M 92.753906 60.269531 " clip-rule="nonzero"/></clipPath></defs><g clip-path="url(#d92a739288)"><g clip-path="url(#012f626d93)"><g transform="matrix(1, 0, 0, 1, 28, 26)"><g clip-path="url(#80f616b1cb)"><g clip-path="url(#b925fe02b6)"><g clip-path="url(#8f6ffdc74a)"><path fill="#d3d9dd" d="M 0.550781 0.179688 L 318.386719 0.179688 L 318.386719 230.027344 L 0.550781 230.027344 Z M 0.550781 0.179688 " fill-opacity="1" fill-rule="nonzero"/></g></g></g></g></g></g><g clip-path="url(#21f74dc64f)"><g clip-path="url(#b1f5848b3d)"><path fill="#d3d9dd" d="M -312.261719 -171.886719 L 336.515625 -171.886719 L 336.515625 282.035156 L -312.261719 282.035156 Z M -312.261719 -171.886719 " fill-opacity="1" fill-rule="nonzero"/></g></g><path fill="#1d97bd" d="M 201.722656 145.984375 L 246.808594 145.984375 C 246.808594 141.828125 243.449219 138.472656 239.300781 138.472656 L 201.722656 138.472656 Z M 201.722656 145.984375 " fill-opacity="1" fill-rule="nonzero"/><path fill="#455a64" d="M 160.390625 179.78125 L 136.359375 179.78125 C 120.578125 179.78125 107.789062 166.992188 107.789062 151.214844 L 107.789062 93.398438 L 160.390625 130.960938 Z M 160.390625 179.78125 " fill-opacity="1" fill-rule="nonzero"/><g clip-path="url(#f6782924b2)"><path fill="#b0bec5" d="M 164.09375 157.246094 L 156.578125 157.246094 L 156.578125 135.238281 C 156.578125 134.058594 156.011719 132.929688 155.0625 132.226562 L 98.226562 90.921875 C 95.320312 88.757812 93.460938 85.636719 92.945312 82.097656 C 92.4375 78.558594 93.332031 75.039062 95.476562 72.175781 L 104.867188 60.921875 L 110.636719 65.734375 L 101.367188 76.839844 C 100.550781 77.933594 100.164062 79.476562 100.378906 81.019531 C 100.609375 82.570312 101.414062 83.9375 102.675781 84.871094 L 159.511719 126.175781 C 162.394531 128.320312 164.085938 131.695312 164.085938 135.242188 L 164.085938 157.246094 Z M 164.09375 157.246094 " fill-opacity="1" fill-rule="nonzero"/></g><path fill="#1d97bd" d="M 254.324219 194.804688 L 156.632812 194.804688 L 156.632812 157.644531 C 156.632812 144.582031 169.511719 135.417969 181.863281 139.691406 L 244.214844 161.265625 C 250.261719 163.355469 254.324219 169.054688 254.324219 175.457031 Z M 254.324219 194.804688 " fill-opacity="1" fill-rule="nonzero"/><path fill="#37474f" d="M 182.929688 183.539062 C 182.929688 185.019531 182.789062 186.480469 182.5 187.9375 C 182.214844 189.386719 181.789062 190.792969 181.21875 192.160156 C 180.648438 193.527344 179.957031 194.824219 179.132812 196.058594 C 178.3125 197.289062 177.378906 198.425781 176.328125 199.46875 C 175.285156 200.519531 174.144531 201.453125 172.917969 202.269531 C 171.683594 203.097656 170.386719 203.792969 169.015625 204.355469 C 167.648438 204.921875 166.242188 205.351562 164.785156 205.640625 C 163.335938 205.925781 161.867188 206.074219 160.390625 206.074219 C 158.90625 206.074219 157.445312 205.925781 155.988281 205.640625 C 154.539062 205.351562 153.132812 204.921875 151.765625 204.355469 C 150.398438 203.792969 149.097656 203.097656 147.863281 202.269531 C 146.632812 201.453125 145.496094 200.519531 144.445312 199.46875 C 143.402344 198.425781 142.46875 197.289062 141.640625 196.058594 C 140.824219 194.824219 140.125 193.527344 139.5625 192.160156 C 138.996094 190.792969 138.566406 189.386719 138.277344 187.9375 C 137.984375 186.480469 137.84375 185.019531 137.84375 183.539062 C 137.84375 182.054688 137.984375 180.59375 138.277344 179.136719 C 138.566406 177.691406 138.996094 176.28125 139.5625 174.914062 C 140.125 173.546875 140.824219 172.25 141.640625 171.015625 C 142.46875 169.785156 143.402344 168.648438 144.445312 167.605469 C 145.496094 166.558594 146.632812 165.625 147.863281 164.796875 C 149.097656 163.980469 150.398438 163.28125 151.765625 162.71875 C 153.132812 162.152344 154.539062 161.726562 155.988281 161.433594 C 157.445312 161.148438 158.90625 161 160.390625 161 C 161.867188 161 163.335938 161.148438 164.785156 161.433594 C 166.242188 161.726562 167.648438 162.152344 169.015625 162.71875 C 170.386719 163.28125 171.683594 163.980469 172.917969 164.796875 C 174.144531 165.625 175.285156 166.558594 176.328125 167.605469 C 177.378906 168.648438 178.3125 169.785156 179.132812 171.015625 C 179.957031 172.25 180.648438 173.546875 181.21875 174.914062 C 181.789062 176.28125 182.214844 177.691406 182.5 179.136719 C 182.789062 180.59375 182.929688 182.054688 182.929688 183.539062 Z M 182.929688 183.539062 " fill-opacity="1" fill-rule="nonzero"/><path fill="#37474f" d="M 269.355469 191.050781 C 269.355469 192.039062 269.261719 193.011719 269.066406 193.980469 C 268.875 194.949219 268.589844 195.886719 268.210938 196.796875 C 267.832031 197.710938 267.371094 198.574219 266.824219 199.394531 C 266.273438 200.214844 265.652344 200.972656 264.953125 201.667969 C 264.257812 202.371094 263.5 202.996094 262.679688 203.542969 C 261.855469 204.089844 260.988281 204.550781 260.078125 204.929688 C 259.164062 205.300781 258.222656 205.59375 257.257812 205.78125 C 256.289062 205.972656 255.3125 206.074219 254.324219 206.074219 C 253.34375 206.074219 252.359375 205.972656 251.394531 205.78125 C 250.425781 205.59375 249.488281 205.300781 248.574219 204.929688 C 247.660156 204.550781 246.796875 204.089844 245.976562 203.542969 C 245.15625 202.996094 244.398438 202.371094 243.699219 201.667969 C 243.003906 200.972656 242.378906 200.214844 241.832031 199.394531 C 241.285156 198.574219 240.816406 197.710938 240.445312 196.796875 C 240.066406 195.886719 239.78125 194.949219 239.585938 193.980469 C 239.394531 193.011719 239.300781 192.039062 239.300781 191.050781 C 239.300781 190.0625 239.394531 189.085938 239.585938 188.121094 C 239.78125 187.152344 240.066406 186.210938 240.445312 185.296875 C 240.816406 184.390625 241.285156 183.523438 241.832031 182.707031 C 242.378906 181.878906 243.003906 181.121094 243.699219 180.425781 C 244.398438 179.726562 245.15625 179.105469 245.976562 178.554688 C 246.796875 178.007812 247.660156 177.546875 248.574219 177.167969 C 249.488281 176.789062 250.425781 176.507812 251.394531 176.316406 C 252.359375 176.121094 253.34375 176.027344 254.324219 176.027344 C 255.3125 176.027344 256.289062 176.121094 257.257812 176.316406 C 258.222656 176.507812 259.164062 176.789062 260.078125 177.167969 C 260.988281 177.546875 261.855469 178.007812 262.679688 178.554688 C 263.5 179.105469 264.257812 179.726562 264.953125 180.425781 C 265.652344 181.121094 266.273438 181.878906 266.824219 182.707031 C 267.371094 183.523438 267.832031 184.390625 268.210938 185.296875 C 268.589844 186.210938 268.875 187.152344 269.066406 188.121094 C 269.261719 189.085938 269.355469 190.0625 269.355469 191.050781 Z M 269.355469 191.050781 " fill-opacity="1" fill-rule="nonzero"/><path fill="#b0bec5" d="M 261.785156 191.050781 C 261.785156 191.542969 261.738281 192.03125 261.644531 192.511719 C 261.550781 193 261.40625 193.464844 261.21875 193.925781 C 261.027344 194.378906 260.796875 194.8125 260.519531 195.21875 C 260.25 195.632812 259.9375 196.011719 259.585938 196.363281 C 259.242188 196.707031 258.859375 197.019531 258.449219 197.296875 C 258.042969 197.566406 257.609375 197.796875 257.148438 197.988281 C 256.695312 198.175781 256.226562 198.316406 255.738281 198.414062 C 255.257812 198.515625 254.765625 198.5625 254.277344 198.5625 C 253.78125 198.5625 253.296875 198.515625 252.808594 198.414062 C 252.328125 198.316406 251.851562 198.175781 251.398438 197.988281 C 250.945312 197.796875 250.511719 197.566406 250.097656 197.296875 C 249.6875 197.019531 249.308594 196.707031 248.960938 196.363281 C 248.609375 196.011719 248.296875 195.632812 248.027344 195.21875 C 247.75 194.8125 247.519531 194.378906 247.332031 193.925781 C 247.140625 193.464844 247 193 246.902344 192.511719 C 246.808594 192.03125 246.761719 191.542969 246.761719 191.050781 C 246.761719 190.554688 246.808594 190.070312 246.902344 189.582031 C 247 189.101562 247.140625 188.625 247.332031 188.171875 C 247.519531 187.71875 247.75 187.285156 248.027344 186.875 C 248.296875 186.46875 248.609375 186.089844 248.960938 185.738281 C 249.308594 185.390625 249.6875 185.082031 250.097656 184.804688 C 250.511719 184.53125 250.945312 184.296875 251.398438 184.105469 C 251.851562 183.921875 252.328125 183.78125 252.808594 183.679688 C 253.296875 183.585938 253.78125 183.539062 254.277344 183.539062 C 254.765625 183.539062 255.257812 183.585938 255.738281 183.679688 C 256.226562 183.78125 256.695312 183.921875 257.148438 184.105469 C 257.609375 184.296875 258.042969 184.53125 258.449219 184.804688 C 258.859375 185.082031 259.242188 185.390625 259.585938 185.738281 C 259.9375 186.089844 260.25 186.46875 260.519531 186.875 C 260.796875 187.285156 261.027344 187.71875 261.21875 188.171875 C 261.40625 188.625 261.550781 189.101562 261.644531 189.582031 C 261.738281 190.070312 261.785156 190.554688 261.785156 191.050781 Z M 261.785156 191.050781 " fill-opacity="1" fill-rule="nonzero"/><path fill="#b0bec5" d="M 175.367188 183.539062 C 175.367188 184.527344 175.273438 185.5 175.078125 186.46875 C 174.886719 187.4375 174.601562 188.375 174.222656 189.285156 C 173.84375 190.195312 173.382812 191.0625 172.835938 191.882812 C 172.289062 192.699219 171.664062 193.464844 170.96875 194.164062 C 170.269531 194.859375 169.503906 195.484375 168.683594 196.03125 C 167.867188 196.578125 167 197.039062 166.085938 197.417969 C 165.179688 197.796875 164.238281 198.082031 163.269531 198.269531 C 162.300781 198.46875 161.324219 198.5625 160.335938 198.5625 C 159.347656 198.5625 158.375 198.46875 157.40625 198.269531 C 156.4375 198.082031 155.496094 197.796875 154.589844 197.417969 C 153.675781 197.039062 152.808594 196.578125 151.988281 196.03125 C 151.167969 195.484375 150.402344 194.859375 149.707031 194.164062 C 149.007812 193.464844 148.386719 192.699219 147.835938 191.882812 C 147.289062 191.0625 146.828125 190.195312 146.449219 189.285156 C 146.070312 188.375 145.785156 187.4375 145.597656 186.46875 C 145.398438 185.5 145.304688 184.527344 145.304688 183.539062 C 145.304688 182.550781 145.398438 181.574219 145.597656 180.605469 C 145.785156 179.640625 146.070312 178.699219 146.449219 177.792969 C 146.828125 176.878906 147.289062 176.011719 147.835938 175.191406 C 148.386719 174.375 149.007812 173.609375 149.707031 172.914062 C 150.402344 172.214844 151.167969 171.59375 151.988281 171.042969 C 152.808594 170.496094 153.675781 170.035156 154.589844 169.65625 C 155.496094 169.277344 156.4375 168.992188 157.40625 168.804688 C 158.375 168.609375 159.347656 168.511719 160.335938 168.511719 C 161.324219 168.511719 162.300781 168.609375 163.269531 168.804688 C 164.238281 168.992188 165.179688 169.277344 166.085938 169.65625 C 167 170.035156 167.867188 170.496094 168.683594 171.042969 C 169.503906 171.59375 170.269531 172.214844 170.96875 172.914062 C 171.664062 173.609375 172.289062 174.375 172.835938 175.191406 C 173.382812 176.011719 173.84375 176.878906 174.222656 177.792969 C 174.601562 178.699219 174.886719 179.640625 175.078125 180.605469 C 175.273438 181.574219 175.367188 182.550781 175.367188 183.539062 Z M 175.367188 183.539062 " fill-opacity="1" fill-rule="nonzero"/><path fill="#1d97bd" d="M 228.027344 138.472656 L 209.238281 138.472656 L 212.996094 130.960938 L 224.269531 130.960938 Z M 228.027344 138.472656 " fill-opacity="1" fill-rule="nonzero"/><g fill="#ffffff" fill-opacity="1"><g transform="translate(180.06514, 175.522227)"><g><path d="M 6.46875 -11.515625 C 7.1875 -11.515625 7.773438 -11.410156 8.234375 -11.203125 C 8.691406 -11.003906 9.097656 -10.765625 9.453125 -10.484375 C 9.585938 -10.390625 9.695312 -10.34375 9.78125 -10.34375 C 9.976562 -10.34375 10.109375 -10.660156 10.171875 -11.296875 L 10.546875 -11.296875 C 10.523438 -10.878906 10.507812 -10.375 10.5 -9.78125 C 10.488281 -9.195312 10.484375 -8.414062 10.484375 -7.4375 L 10.109375 -7.4375 C 10.035156 -8.070312 9.921875 -8.625 9.765625 -9.09375 C 9.617188 -9.570312 9.335938 -9.984375 8.921875 -10.328125 C 8.660156 -10.566406 8.34375 -10.753906 7.96875 -10.890625 C 7.59375 -11.035156 7.210938 -11.109375 6.828125 -11.109375 C 6.242188 -11.109375 5.742188 -10.953125 5.328125 -10.640625 C 4.910156 -10.335938 4.566406 -9.925781 4.296875 -9.40625 C 4.035156 -8.882812 3.84375 -8.296875 3.71875 -7.640625 C 3.59375 -6.992188 3.53125 -6.316406 3.53125 -5.609375 C 3.53125 -3.703125 3.789062 -2.304688 4.3125 -1.421875 C 4.84375 -0.535156 5.601562 -0.09375 6.59375 -0.09375 C 6.84375 -0.09375 7.0625 -0.125 7.25 -0.1875 C 7.445312 -0.25 7.601562 -0.328125 7.71875 -0.421875 C 7.863281 -0.523438 7.960938 -0.632812 8.015625 -0.75 C 8.078125 -0.875 8.109375 -1.039062 8.109375 -1.25 L 8.109375 -2.8125 C 8.109375 -3.300781 8.066406 -3.664062 7.984375 -3.90625 C 7.898438 -4.144531 7.738281 -4.304688 7.5 -4.390625 C 7.269531 -4.472656 6.9375 -4.519531 6.5 -4.53125 L 6.5 -4.84375 C 6.71875 -4.832031 6.984375 -4.820312 7.296875 -4.8125 C 7.609375 -4.8125 7.9375 -4.804688 8.28125 -4.796875 C 8.625 -4.796875 8.9375 -4.796875 9.21875 -4.796875 C 9.664062 -4.796875 10.070312 -4.800781 10.4375 -4.8125 C 10.8125 -4.820312 11.117188 -4.832031 11.359375 -4.84375 L 11.359375 -4.53125 C 11.160156 -4.519531 11.007812 -4.484375 10.90625 -4.421875 C 10.800781 -4.359375 10.726562 -4.226562 10.6875 -4.03125 C 10.65625 -3.84375 10.640625 -3.550781 10.640625 -3.15625 L 10.640625 0 L 10.328125 0 C 10.316406 -0.175781 10.273438 -0.367188 10.203125 -0.578125 C 10.128906 -0.796875 10.015625 -0.90625 9.859375 -0.90625 C 9.785156 -0.90625 9.6875 -0.882812 9.5625 -0.84375 C 9.4375 -0.8125 9.25 -0.722656 9 -0.578125 C 8.601562 -0.347656 8.1875 -0.15625 7.75 0 C 7.3125 0.144531 6.851562 0.21875 6.375 0.21875 C 5.144531 0.21875 4.101562 -0.0078125 3.25 -0.46875 C 2.40625 -0.925781 1.765625 -1.582031 1.328125 -2.4375 C 0.898438 -3.289062 0.6875 -4.316406 0.6875 -5.515625 C 0.6875 -6.734375 0.929688 -7.785156 1.421875 -8.671875 C 1.921875 -9.566406 2.601562 -10.265625 3.46875 -10.765625 C 4.332031 -11.265625 5.332031 -11.515625 6.46875 -11.515625 Z M 6.46875 -11.515625 "/></g></g></g><g fill="#ffffff" fill-opacity="1"><g transform="translate(191.79105, 175.522227)"><g><path d="M 8.328125 -8.421875 L 8.328125 -1.734375 C 8.328125 -1.253906 8.398438 -0.898438 8.546875 -0.671875 C 8.703125 -0.441406 8.96875 -0.328125 9.34375 -0.328125 L 9.34375 0 C 9.019531 -0.03125 8.691406 -0.046875 8.359375 -0.046875 C 7.910156 -0.046875 7.492188 -0.03125 7.109375 0 C 6.734375 0.03125 6.375 0.0859375 6.03125 0.171875 L 6.03125 -1.265625 C 5.769531 -0.734375 5.414062 -0.351562 4.96875 -0.125 C 4.519531 0.101562 4.019531 0.21875 3.46875 0.21875 C 3.019531 0.21875 2.65625 0.160156 2.375 0.046875 C 2.101562 -0.0664062 1.882812 -0.21875 1.71875 -0.40625 C 1.539062 -0.601562 1.414062 -0.863281 1.34375 -1.1875 C 1.269531 -1.519531 1.234375 -1.945312 1.234375 -2.46875 L 1.234375 -6.515625 C 1.234375 -6.992188 1.160156 -7.34375 1.015625 -7.5625 C 0.867188 -7.789062 0.597656 -7.90625 0.203125 -7.90625 L 0.203125 -8.25 C 0.546875 -8.21875 0.878906 -8.203125 1.203125 -8.203125 C 1.640625 -8.203125 2.050781 -8.21875 2.4375 -8.25 C 2.832031 -8.289062 3.195312 -8.347656 3.53125 -8.421875 L 3.53125 -1.8125 C 3.53125 -1.550781 3.550781 -1.316406 3.59375 -1.109375 C 3.644531 -0.910156 3.738281 -0.753906 3.875 -0.640625 C 4.007812 -0.535156 4.210938 -0.484375 4.484375 -0.484375 C 4.765625 -0.484375 5.019531 -0.5625 5.25 -0.71875 C 5.476562 -0.875 5.664062 -1.09375 5.8125 -1.375 C 5.957031 -1.65625 6.03125 -1.972656 6.03125 -2.328125 L 6.03125 -6.515625 C 6.03125 -6.992188 5.957031 -7.34375 5.8125 -7.5625 C 5.664062 -7.789062 5.398438 -7.90625 5.015625 -7.90625 L 5.015625 -8.25 C 5.347656 -8.21875 5.675781 -8.203125 6 -8.203125 C 6.445312 -8.203125 6.863281 -8.21875 7.25 -8.25 C 7.632812 -8.289062 7.992188 -8.347656 8.328125 -8.421875 Z M 8.328125 -8.421875 "/></g></g></g><g fill="#ffffff" fill-opacity="1"><g transform="translate(201.458941, 175.522227)"><g><path d="M 6.171875 -8.46875 C 6.617188 -8.46875 6.976562 -8.410156 7.25 -8.296875 C 7.53125 -8.191406 7.753906 -8.039062 7.921875 -7.84375 C 8.097656 -7.644531 8.222656 -7.382812 8.296875 -7.0625 C 8.367188 -6.738281 8.40625 -6.3125 8.40625 -5.78125 L 8.40625 -1.484375 C 8.40625 -1.035156 8.472656 -0.726562 8.609375 -0.5625 C 8.753906 -0.40625 8.992188 -0.328125 9.328125 -0.328125 L 9.328125 0 C 9.140625 -0.0078125 8.847656 -0.0195312 8.453125 -0.03125 C 8.066406 -0.0507812 7.691406 -0.0625 7.328125 -0.0625 C 6.941406 -0.0625 6.5625 -0.0507812 6.1875 -0.03125 C 5.8125 -0.0195312 5.53125 -0.0078125 5.34375 0 L 5.34375 -0.328125 C 5.632812 -0.328125 5.832031 -0.40625 5.9375 -0.5625 C 6.050781 -0.726562 6.109375 -1.035156 6.109375 -1.484375 L 6.109375 -6.4375 C 6.109375 -6.707031 6.085938 -6.941406 6.046875 -7.140625 C 6.003906 -7.335938 5.921875 -7.488281 5.796875 -7.59375 C 5.671875 -7.707031 5.488281 -7.765625 5.25 -7.765625 C 4.96875 -7.765625 4.707031 -7.6875 4.46875 -7.53125 C 4.238281 -7.375 4.050781 -7.148438 3.90625 -6.859375 C 3.769531 -6.578125 3.703125 -6.265625 3.703125 -5.921875 L 3.703125 -1.484375 C 3.703125 -1.035156 3.757812 -0.726562 3.875 -0.5625 C 3.988281 -0.40625 4.1875 -0.328125 4.46875 -0.328125 L 4.46875 0 C 4.300781 -0.0078125 4.035156 -0.0195312 3.671875 -0.03125 C 3.316406 -0.0507812 2.953125 -0.0625 2.578125 -0.0625 C 2.179688 -0.0625 1.769531 -0.0507812 1.34375 -0.03125 C 0.914062 -0.0195312 0.597656 -0.0078125 0.390625 0 L 0.390625 -0.328125 C 0.753906 -0.328125 1.015625 -0.40625 1.171875 -0.5625 C 1.328125 -0.726562 1.40625 -1.035156 1.40625 -1.484375 L 1.40625 -6.515625 C 1.40625 -6.992188 1.332031 -7.34375 1.1875 -7.5625 C 1.039062 -7.789062 0.773438 -7.90625 0.390625 -7.90625 L 0.390625 -8.25 C 0.722656 -8.21875 1.050781 -8.203125 1.375 -8.203125 C 1.820312 -8.203125 2.238281 -8.21875 2.625 -8.25 C 3.007812 -8.289062 3.367188 -8.347656 3.703125 -8.421875 L 3.703125 -6.984375 C 3.953125 -7.515625 4.296875 -7.894531 4.734375 -8.125 C 5.171875 -8.351562 5.648438 -8.46875 6.171875 -8.46875 Z M 10.96875 -8.46875 C 11.414062 -8.46875 11.773438 -8.410156 12.046875 -8.296875 C 12.328125 -8.191406 12.554688 -8.039062 12.734375 -7.84375 C 12.898438 -7.644531 13.019531 -7.382812 13.09375 -7.0625 C 13.164062 -6.738281 13.203125 -6.3125 13.203125 -5.78125 L 13.203125 -1.484375 C 13.203125 -1.035156 13.28125 -0.726562 13.4375 -0.5625 C 13.59375 -0.40625 13.859375 -0.328125 14.234375 -0.328125 L 14.234375 0 C 14.023438 -0.0078125 13.71875 -0.0195312 13.3125 -0.03125 C 12.914062 -0.0507812 12.519531 -0.0625 12.125 -0.0625 C 11.738281 -0.0625 11.359375 -0.0507812 10.984375 -0.03125 C 10.617188 -0.0195312 10.335938 -0.0078125 10.140625 0 L 10.140625 -0.328125 C 10.429688 -0.328125 10.628906 -0.40625 10.734375 -0.5625 C 10.847656 -0.726562 10.90625 -1.035156 10.90625 -1.484375 L 10.90625 -6.4375 C 10.90625 -6.707031 10.878906 -6.941406 10.828125 -7.140625 C 10.785156 -7.335938 10.695312 -7.488281 10.5625 -7.59375 C 10.4375 -7.707031 10.234375 -7.765625 9.953125 -7.765625 C 9.679688 -7.765625 9.425781 -7.679688 9.1875 -7.515625 C 8.957031 -7.347656 8.769531 -7.117188 8.625 -6.828125 C 8.476562 -6.535156 8.398438 -6.21875 8.390625 -5.875 L 8.3125 -6.84375 C 8.601562 -7.476562 8.984375 -7.90625 9.453125 -8.125 C 9.921875 -8.351562 10.425781 -8.46875 10.96875 -8.46875 Z M 10.96875 -8.46875 "/></g></g></g><g fill="#ffffff" fill-opacity="1"><g transform="translate(215.896963, 175.522227)"><g><path d="M 5.859375 -8.46875 C 6.679688 -8.46875 7.367188 -8.128906 7.921875 -7.453125 C 8.472656 -6.773438 8.75 -5.738281 8.75 -4.34375 C 8.75 -3.238281 8.578125 -2.347656 8.234375 -1.671875 C 7.898438 -1.003906 7.457031 -0.519531 6.90625 -0.21875 C 6.351562 0.0703125 5.75 0.21875 5.09375 0.21875 C 4.65625 0.21875 4.25 0.144531 3.875 0 C 3.5 -0.144531 3.179688 -0.390625 2.921875 -0.734375 L 3.140625 -0.8125 C 3.335938 -0.582031 3.566406 -0.40625 3.828125 -0.28125 C 4.085938 -0.164062 4.34375 -0.109375 4.59375 -0.109375 C 5.175781 -0.109375 5.609375 -0.4375 5.890625 -1.09375 C 6.179688 -1.757812 6.328125 -2.765625 6.328125 -4.109375 C 6.328125 -5.023438 6.269531 -5.75 6.15625 -6.28125 C 6.050781 -6.820312 5.890625 -7.207031 5.671875 -7.4375 C 5.460938 -7.664062 5.207031 -7.78125 4.90625 -7.78125 C 4.539062 -7.78125 4.203125 -7.628906 3.890625 -7.328125 C 3.585938 -7.023438 3.410156 -6.601562 3.359375 -6.0625 L 3.28125 -6.625 C 3.476562 -7.226562 3.804688 -7.6875 4.265625 -8 C 4.722656 -8.3125 5.253906 -8.46875 5.859375 -8.46875 Z M 3.40625 -12.46875 L 3.40625 -0.3125 C 3.144531 -0.363281 2.875 -0.363281 2.59375 -0.3125 C 2.320312 -0.269531 2.066406 -0.195312 1.828125 -0.09375 C 1.597656 0 1.40625 0.113281 1.25 0.25 L 1 0.109375 C 1.039062 -0.0351562 1.066406 -0.179688 1.078125 -0.328125 C 1.097656 -0.484375 1.109375 -0.632812 1.109375 -0.78125 L 1.109375 -10.5625 C 1.109375 -11.039062 1.035156 -11.394531 0.890625 -11.625 C 0.753906 -11.851562 0.488281 -11.96875 0.09375 -11.96875 L 0.09375 -12.296875 C 0.4375 -12.265625 0.765625 -12.25 1.078125 -12.25 C 1.515625 -12.25 1.929688 -12.265625 2.328125 -12.296875 C 2.722656 -12.335938 3.082031 -12.394531 3.40625 -12.46875 Z M 3.40625 -12.46875 "/></g></g></g><g fill="#ffffff" fill-opacity="1"><g transform="translate(225.245785, 175.522227)"><g><path d="M 4.5 -8.46875 C 5.269531 -8.46875 5.945312 -8.320312 6.53125 -8.03125 C 7.125 -7.75 7.582031 -7.285156 7.90625 -6.640625 C 8.238281 -6.003906 8.40625 -5.160156 8.40625 -4.109375 C 8.40625 -3.054688 8.238281 -2.210938 7.90625 -1.578125 C 7.582031 -0.953125 7.125 -0.492188 6.53125 -0.203125 C 5.945312 0.078125 5.269531 0.21875 4.5 0.21875 C 3.738281 0.21875 3.0625 0.078125 2.46875 -0.203125 C 1.882812 -0.492188 1.425781 -0.953125 1.09375 -1.578125 C 0.757812 -2.210938 0.59375 -3.054688 0.59375 -4.109375 C 0.59375 -5.160156 0.757812 -6.003906 1.09375 -6.640625 C 1.425781 -7.285156 1.882812 -7.75 2.46875 -8.03125 C 3.0625 -8.320312 3.738281 -8.46875 4.5 -8.46875 Z M 4.5 -8.15625 C 4.070312 -8.15625 3.710938 -7.835938 3.421875 -7.203125 C 3.140625 -6.566406 3 -5.535156 3 -4.109375 C 3 -2.691406 3.140625 -1.664062 3.421875 -1.03125 C 3.710938 -0.40625 4.070312 -0.09375 4.5 -0.09375 C 4.9375 -0.09375 5.296875 -0.40625 5.578125 -1.03125 C 5.859375 -1.664062 6 -2.691406 6 -4.109375 C 6 -5.535156 5.859375 -6.566406 5.578125 -7.203125 C 5.296875 -7.835938 4.9375 -8.15625 4.5 -8.15625 Z M 4.5 -8.15625 "/></g></g></g><g fill="#ffffff" fill-opacity="1"><g transform="translate(234.259582, 175.522227)"><g><path d="M 4.5 -8.46875 C 5.269531 -8.46875 5.945312 -8.320312 6.53125 -8.03125 C 7.125 -7.75 7.582031 -7.285156 7.90625 -6.640625 C 8.238281 -6.003906 8.40625 -5.160156 8.40625 -4.109375 C 8.40625 -3.054688 8.238281 -2.210938 7.90625 -1.578125 C 7.582031 -0.953125 7.125 -0.492188 6.53125 -0.203125 C 5.945312 0.078125 5.269531 0.21875 4.5 0.21875 C 3.738281 0.21875 3.0625 0.078125 2.46875 -0.203125 C 1.882812 -0.492188 1.425781 -0.953125 1.09375 -1.578125 C 0.757812 -2.210938 0.59375 -3.054688 0.59375 -4.109375 C 0.59375 -5.160156 0.757812 -6.003906 1.09375 -6.640625 C 1.425781 -7.285156 1.882812 -7.75 2.46875 -8.03125 C 3.0625 -8.320312 3.738281 -8.46875 4.5 -8.46875 Z M 4.5 -8.15625 C 4.070312 -8.15625 3.710938 -7.835938 3.421875 -7.203125 C 3.140625 -6.566406 3 -5.535156 3 -4.109375 C 3 -2.691406 3.140625 -1.664062 3.421875 -1.03125 C 3.710938 -0.40625 4.070312 -0.09375 4.5 -0.09375 C 4.9375 -0.09375 5.296875 -0.40625 5.578125 -1.03125 C 5.859375 -1.664062 6 -2.691406 6 -4.109375 C 6 -5.535156 5.859375 -6.566406 5.578125 -7.203125 C 5.296875 -7.835938 4.9375 -8.15625 4.5 -8.15625 Z M 4.5 -8.15625 "/></g></g></g><g fill="#ffffff" fill-opacity="1"><g transform="translate(243.273379, 175.522227)"><g><path d="M 3.625 -10.859375 L 3.625 -8.25 L 5.5 -8.25 L 5.5 -7.921875 L 3.625 -7.921875 L 3.625 -1.484375 C 3.625 -1.160156 3.679688 -0.929688 3.796875 -0.796875 C 3.910156 -0.671875 4.085938 -0.609375 4.328125 -0.609375 C 4.515625 -0.609375 4.703125 -0.675781 4.890625 -0.8125 C 5.085938 -0.957031 5.257812 -1.207031 5.40625 -1.5625 L 5.671875 -1.421875 C 5.503906 -0.941406 5.25 -0.546875 4.90625 -0.234375 C 4.5625 0.0664062 4.09375 0.21875 3.5 0.21875 C 3.144531 0.21875 2.832031 0.171875 2.5625 0.078125 C 2.300781 -0.00390625 2.078125 -0.132812 1.890625 -0.3125 C 1.660156 -0.550781 1.507812 -0.84375 1.4375 -1.1875 C 1.363281 -1.53125 1.328125 -1.976562 1.328125 -2.53125 L 1.328125 -7.921875 L -0.015625 -7.921875 L -0.015625 -8.25 L 1.328125 -8.25 L 1.328125 -10.359375 C 1.773438 -10.359375 2.1875 -10.394531 2.5625 -10.46875 C 2.9375 -10.550781 3.289062 -10.679688 3.625 -10.859375 Z M 3.625 -10.859375 "/></g></g></g></svg>