<svg xmlns="http://www.w3.org/2000/svg" xmlns:xlink="http://www.w3.org/1999/xlink" width="500" zoomAndPan="magnify" viewBox="0 0 375 281.25" height="375" preserveAspectRatio="xMidYMid meet" version="1.0"><defs><g/><clipPath id="b48ce5313c"><path d="M 28.550781 26.179688 L 347 26.179688 L 347 256.027344 L 28.550781 256.027344 Z M 28.550781 26.179688 " clip-rule="nonzero"/></clipPath><clipPath id="6b83587291"><path d="M 42.011719 26.179688 L 332.988281 26.179688 C 336.558594 26.179688 339.984375 27.597656 342.507812 30.121094 C 345.03125 32.644531 346.449219 36.070312 346.449219 39.640625 L 346.449219 242.5625 C 346.449219 246.132812 345.03125 249.558594 342.507812 252.082031 C 339.984375 254.609375 336.558594 256.027344 332.988281 256.027344 L 42.011719 256.027344 C 38.441406 256.027344 35.015625 254.609375 32.492188 252.082031 C 29.96875 249.558594 28.550781 246.132812 28.550781 242.5625 L 28.550781 39.640625 C 28.550781 32.207031 34.578125 26.179688 42.011719 26.179688 Z M 42.011719 26.179688 " clip-rule="nonzero"/></clipPath><clipPath id="bd5b82f7e9"><path d="M 0.550781 0.179688 L 318.617188 0.179688 L 318.617188 230.027344 L 0.550781 230.027344 Z M 0.550781 0.179688 " clip-rule="nonzero"/></clipPath><clipPath id="fe09b29ff4"><path d="M 14.011719 0.179688 L 304.988281 0.179688 C 308.558594 0.179688 311.984375 1.597656 314.507812 4.121094 C 317.03125 6.644531 318.449219 10.070312 318.449219 13.640625 L 318.449219 216.5625 C 318.449219 220.132812 317.03125 223.558594 314.507812 226.082031 C 311.984375 228.609375 308.558594 230.027344 304.988281 230.027344 L 14.011719 230.027344 C 10.441406 230.027344 7.015625 228.609375 4.492188 226.082031 C 1.96875 223.558594 0.550781 220.132812 0.550781 216.5625 L 0.550781 13.640625 C 0.550781 6.207031 6.578125 0.179688 14.011719 0.179688 Z M 14.011719 0.179688 " clip-rule="nonzero"/></clipPath><clipPath id="003b605ee9"><rect x="0" width="319" y="0" height="231"/></clipPath><clipPath id="7b091f86b7"><path d="M 84 0.121094 L 101 0.121094 L 101 26 L 84 26 Z M 84 0.121094 " clip-rule="nonzero"/></clipPath><clipPath id="bc1e889b1d"><rect x="0" width="145" y="0" height="36"/></clipPath><clipPath id="84febdc60c"><path d="M 217.316406 162.683594 L 309.320312 162.683594 L 309.320312 244.214844 L 217.316406 244.214844 Z M 217.316406 162.683594 " clip-rule="nonzero"/></clipPath><clipPath id="6472d976f2"><path d="M 72.625 67.574219 L 301.773438 67.574219 C 316.425781 67.574219 328.300781 79.425781 328.300781 94.042969 L 328.300781 238.207031 C 328.300781 252.824219 316.425781 264.671875 301.773438 264.671875 L 72.625 264.671875 C 57.972656 264.671875 46.09375 252.824219 46.09375 238.207031 L 46.09375 94.042969 C 46.09375 79.425781 57.972656 67.574219 72.625 67.574219 " clip-rule="nonzero"/></clipPath><clipPath id="eaaf33f178"><path d="M 222.269531 168.382812 L 253.925781 168.382812 L 253.925781 210.507812 L 222.269531 210.507812 Z M 222.269531 168.382812 " clip-rule="nonzero"/></clipPath></defs><g clip-path="url(#b48ce5313c)"><g clip-path="url(#6b83587291)"><g transform="matrix(1, 0, 0, 1, 28, 26)"><g clip-path="url(#003b605ee9)"><g clip-path="url(#bd5b82f7e9)"><g clip-path="url(#fe09b29ff4)"><path fill="#d3d9dd" d="M 0.550781 0.179688 L 318.386719 0.179688 L 318.386719 230.027344 L 0.550781 230.027344 Z M 0.550781 0.179688 " fill-opacity="1" fill-rule="nonzero"/></g></g></g></g></g></g><g transform="matrix(1, 0, 0, 1, 120, 59)"><g clip-path="url(#bc1e889b1d)"><g fill="#000000" fill-opacity="1"><g transform="translate(0.869595, 24.64662)"><g><path d="M 2.71875 0 L 2.71875 -23.515625 L 6.140625 -23.515625 L 6.140625 -2.71875 L 15.171875 -2.71875 L 15.171875 0 Z M 2.71875 0 "/></g></g></g><g fill="#000000" fill-opacity="1"><g transform="translate(15.998313, 24.64662)"><g><path d="M 10.328125 -7.265625 L 9.71875 -7.265625 C 9.238281 -7.265625 8.710938 -7.207031 8.140625 -7.09375 C 7.578125 -6.976562 7.054688 -6.796875 6.578125 -6.546875 C 6.097656 -6.296875 5.691406 -5.960938 5.359375 -5.546875 C 5.035156 -5.140625 4.875 -4.65625 4.875 -4.09375 C 4.875 -3.59375 5.023438 -3.117188 5.328125 -2.671875 C 5.640625 -2.234375 6.078125 -2.015625 6.640625 -2.015625 C 7.160156 -2.015625 7.648438 -2.148438 8.109375 -2.421875 C 8.566406 -2.691406 8.957031 -3.035156 9.28125 -3.453125 C 9.613281 -3.878906 9.867188 -4.347656 10.046875 -4.859375 C 10.234375 -5.367188 10.328125 -5.863281 10.328125 -6.34375 Z M 10.328125 0 L 10.328125 -2.015625 L 10.25 -2.015625 C 9.894531 -1.242188 9.316406 -0.648438 8.515625 -0.234375 C 7.722656 0.171875 6.90625 0.375 6.0625 0.375 C 4.695312 0.375 3.585938 0 2.734375 -0.75 C 1.890625 -1.5 1.46875 -2.578125 1.46875 -3.984375 C 1.46875 -5.117188 1.757812 -6.035156 2.34375 -6.734375 C 2.9375 -7.441406 3.675781 -7.984375 4.5625 -8.359375 C 5.445312 -8.734375 6.40625 -8.984375 7.4375 -9.109375 C 8.476562 -9.234375 9.441406 -9.296875 10.328125 -9.296875 L 10.328125 -11.796875 C 10.328125 -12.628906 10.082031 -13.238281 9.59375 -13.625 C 9.101562 -14.007812 8.519531 -14.203125 7.84375 -14.203125 C 7.039062 -14.203125 6.40625 -13.988281 5.9375 -13.5625 C 5.476562 -13.132812 5.25 -12.519531 5.25 -11.71875 L 2.015625 -11.71875 C 2.015625 -12.632812 2.175781 -13.394531 2.5 -14 C 2.832031 -14.613281 3.273438 -15.113281 3.828125 -15.5 C 4.390625 -15.882812 5.03125 -16.160156 5.75 -16.328125 C 6.476562 -16.503906 7.253906 -16.59375 8.078125 -16.59375 C 11.617188 -16.59375 13.390625 -14.851562 13.390625 -11.375 L 13.390625 0 Z M 10.328125 0 "/></g></g></g><g fill="#000000" fill-opacity="1"><g transform="translate(31.774427, 24.64662)"><g><path d="M 15.09375 0 L 11.71875 -11.25 L 11.65625 -11.25 L 8.390625 0 L 5.140625 0 L 1.390625 -16.21875 L 4.359375 -16.21875 L 6.921875 -4.46875 L 6.984375 -4.46875 L 10.53125 -16.21875 L 12.84375 -16.21875 L 16.390625 -4.46875 L 16.453125 -4.46875 L 19.015625 -16.21875 L 21.984375 -16.21875 L 18.328125 0 Z M 15.09375 0 "/></g></g></g><g fill="#000000" fill-opacity="1"><g transform="translate(55.114906, 24.64662)"><g><path d="M 12.09375 0 L 12.09375 -8.859375 C 12.09375 -9.179688 12.09375 -9.507812 12.09375 -9.84375 C 12.09375 -10.1875 12.082031 -10.53125 12.0625 -10.875 C 12.019531 -11.625 11.859375 -12.253906 11.578125 -12.765625 C 11.304688 -13.273438 10.738281 -13.53125 9.875 -13.53125 C 9.132812 -13.53125 8.488281 -13.296875 7.9375 -12.828125 C 7.394531 -12.359375 6.953125 -11.785156 6.609375 -11.109375 C 6.265625 -10.429688 6.007812 -9.703125 5.84375 -8.921875 C 5.675781 -8.148438 5.59375 -7.472656 5.59375 -6.890625 L 5.59375 0 L 2.515625 0 L 2.515625 -16.21875 L 5.59375 -16.21875 L 5.59375 -12.75 L 5.65625 -12.75 C 6.113281 -13.90625 6.757812 -14.832031 7.59375 -15.53125 C 8.4375 -16.238281 9.503906 -16.59375 10.796875 -16.59375 C 11.617188 -16.59375 12.304688 -16.441406 12.859375 -16.140625 C 13.421875 -15.847656 13.867188 -15.457031 14.203125 -14.96875 C 14.546875 -14.488281 14.789062 -13.921875 14.9375 -13.265625 C 15.09375 -12.617188 15.171875 -11.945312 15.171875 -11.25 L 15.171875 0 Z M 12.09375 0 "/></g></g></g><g fill="#000000" fill-opacity="1"><g transform="translate(72.79915, 24.64662)"><g/></g></g><g clip-path="url(#7b091f86b7)"><g fill="#000000" fill-opacity="1"><g transform="translate(82.884962, 24.64662)"><g><path d="M 17.109375 -1.015625 C 16.148438 -0.585938 15.140625 -0.25 14.078125 0 C 13.023438 0.25 11.976562 0.375 10.9375 0.375 C 9.125 0.375 7.613281 0.0234375 6.40625 -0.671875 C 5.195312 -1.378906 4.234375 -2.3125 3.515625 -3.46875 C 2.804688 -4.632812 2.300781 -5.957031 2 -7.4375 C 1.707031 -8.925781 1.5625 -10.457031 1.5625 -12.03125 C 1.5625 -13.507812 1.695312 -14.957031 1.96875 -16.375 C 2.25 -17.789062 2.722656 -19.054688 3.390625 -20.171875 C 4.054688 -21.285156 4.960938 -22.179688 6.109375 -22.859375 C 7.265625 -23.546875 8.71875 -23.890625 10.46875 -23.890625 C 11.53125 -23.890625 12.519531 -23.742188 13.4375 -23.453125 C 14.363281 -23.171875 15.164062 -22.738281 15.84375 -22.15625 C 16.53125 -21.582031 17.066406 -20.867188 17.453125 -20.015625 C 17.835938 -19.171875 18.03125 -18.191406 18.03125 -17.078125 L 14.078125 -17.078125 C 14.117188 -18.296875 13.832031 -19.28125 13.21875 -20.03125 C 12.601562 -20.78125 11.648438 -21.15625 10.359375 -21.15625 C 9.265625 -21.15625 8.382812 -20.863281 7.71875 -20.28125 C 7.050781 -19.707031 6.539062 -18.988281 6.1875 -18.125 C 5.832031 -17.257812 5.597656 -16.328125 5.484375 -15.328125 C 5.367188 -14.328125 5.3125 -13.410156 5.3125 -12.578125 C 5.3125 -11.484375 5.375 -10.332031 5.5 -9.125 C 5.625 -7.925781 5.898438 -6.828125 6.328125 -5.828125 C 6.765625 -4.828125 7.398438 -3.992188 8.234375 -3.328125 C 9.078125 -2.671875 10.207031 -2.34375 11.625 -2.34375 C 12.664062 -2.34375 13.625 -2.507812 14.5 -2.84375 C 15.375 -3.175781 16.242188 -3.625 17.109375 -4.1875 Z M 17.109375 -1.015625 "/></g></g></g></g><g fill="#000000" fill-opacity="1"><g transform="translate(101.182534, 24.64662)"><g><path d="M 10.328125 -7.265625 L 9.71875 -7.265625 C 9.238281 -7.265625 8.710938 -7.207031 8.140625 -7.09375 C 7.578125 -6.976562 7.054688 -6.796875 6.578125 -6.546875 C 6.097656 -6.296875 5.691406 -5.960938 5.359375 -5.546875 C 5.035156 -5.140625 4.875 -4.65625 4.875 -4.09375 C 4.875 -3.59375 5.023438 -3.117188 5.328125 -2.671875 C 5.640625 -2.234375 6.078125 -2.015625 6.640625 -2.015625 C 7.160156 -2.015625 7.648438 -2.148438 8.109375 -2.421875 C 8.566406 -2.691406 8.957031 -3.035156 9.28125 -3.453125 C 9.613281 -3.878906 9.867188 -4.347656 10.046875 -4.859375 C 10.234375 -5.367188 10.328125 -5.863281 10.328125 -6.34375 Z M 10.328125 0 L 10.328125 -2.015625 L 10.25 -2.015625 C 9.894531 -1.242188 9.316406 -0.648438 8.515625 -0.234375 C 7.722656 0.171875 6.90625 0.375 6.0625 0.375 C 4.695312 0.375 3.585938 0 2.734375 -0.75 C 1.890625 -1.5 1.46875 -2.578125 1.46875 -3.984375 C 1.46875 -5.117188 1.757812 -6.035156 2.34375 -6.734375 C 2.9375 -7.441406 3.675781 -7.984375 4.5625 -8.359375 C 5.445312 -8.734375 6.40625 -8.984375 7.4375 -9.109375 C 8.476562 -9.234375 9.441406 -9.296875 10.328125 -9.296875 L 10.328125 -11.796875 C 10.328125 -12.628906 10.082031 -13.238281 9.59375 -13.625 C 9.101562 -14.007812 8.519531 -14.203125 7.84375 -14.203125 C 7.039062 -14.203125 6.40625 -13.988281 5.9375 -13.5625 C 5.476562 -13.132812 5.25 -12.519531 5.25 -11.71875 L 2.015625 -11.71875 C 2.015625 -12.632812 2.175781 -13.394531 2.5 -14 C 2.832031 -14.613281 3.273438 -15.113281 3.828125 -15.5 C 4.390625 -15.882812 5.03125 -16.160156 5.75 -16.328125 C 6.476562 -16.503906 7.253906 -16.59375 8.078125 -16.59375 C 11.617188 -16.59375 13.390625 -14.851562 13.390625 -11.375 L 13.390625 0 Z M 10.328125 0 "/></g></g></g><g fill="#000000" fill-opacity="1"><g transform="translate(116.958648, 24.64662)"><g><path d="M 2.515625 0 L 2.515625 -16.21875 L 5.59375 -16.21875 L 5.59375 -12.953125 L 5.65625 -12.953125 C 6.039062 -14.109375 6.664062 -15.003906 7.53125 -15.640625 C 8.394531 -16.273438 9.441406 -16.59375 10.671875 -16.59375 L 10.671875 -13.25 C 9.691406 -13.25 8.878906 -13.082031 8.234375 -12.75 C 7.585938 -12.425781 7.0625 -11.972656 6.65625 -11.390625 C 6.257812 -10.816406 5.984375 -10.144531 5.828125 -9.375 C 5.671875 -8.601562 5.59375 -7.773438 5.59375 -6.890625 L 5.59375 0 Z M 2.515625 0 "/></g></g></g><g fill="#000000" fill-opacity="1"><g transform="translate(128.305184, 24.64662)"><g><path d="M 10.765625 -11.34375 C 10.765625 -12.207031 10.484375 -12.898438 9.921875 -13.421875 C 9.367188 -13.941406 8.660156 -14.203125 7.796875 -14.203125 C 7.140625 -14.203125 6.546875 -14.039062 6.015625 -13.71875 C 5.484375 -13.40625 5.082031 -12.945312 4.8125 -12.34375 C 4.644531 -11.976562 4.5625 -11.644531 4.5625 -11.34375 Z M 13.453125 -0.171875 C 12.773438 -0.015625 12.109375 0.113281 11.453125 0.21875 C 10.796875 0.320312 10.113281 0.375 9.40625 0.375 C 7.945312 0.375 6.710938 0.144531 5.703125 -0.3125 C 4.691406 -0.78125 3.863281 -1.429688 3.21875 -2.265625 C 2.570312 -3.097656 2.097656 -4.078125 1.796875 -5.203125 C 1.503906 -6.328125 1.359375 -7.554688 1.359375 -8.890625 C 1.359375 -10.003906 1.484375 -11.03125 1.734375 -11.96875 C 1.984375 -12.914062 2.375 -13.726562 2.90625 -14.40625 C 3.445312 -15.09375 4.132812 -15.628906 4.96875 -16.015625 C 5.8125 -16.398438 6.8125 -16.59375 7.96875 -16.59375 C 8.945312 -16.59375 9.804688 -16.425781 10.546875 -16.09375 C 11.285156 -15.769531 11.898438 -15.316406 12.390625 -14.734375 C 12.878906 -14.160156 13.238281 -13.472656 13.46875 -12.671875 C 13.707031 -11.878906 13.828125 -11.019531 13.828125 -10.09375 L 13.828125 -9.296875 L 4.4375 -9.296875 C 4.4375 -8.390625 4.550781 -7.5 4.78125 -6.625 C 5.019531 -5.75 5.382812 -4.96875 5.875 -4.28125 C 6.363281 -3.601562 6.984375 -3.054688 7.734375 -2.640625 C 8.484375 -2.222656 9.367188 -2.015625 10.390625 -2.015625 C 10.941406 -2.015625 11.46875 -2.0625 11.96875 -2.15625 C 12.46875 -2.257812 12.960938 -2.40625 13.453125 -2.59375 Z M 13.453125 -0.171875 "/></g></g></g></g></g><g clip-path="url(#84febdc60c)"><g clip-path="url(#6472d976f2)"><path fill="#d3d9dd" d="M 46.09375 67.574219 L 328.300781 67.574219 L 328.300781 264.671875 L 46.09375 264.671875 Z M 46.09375 67.574219 " fill-opacity="1" fill-rule="nonzero"/></g></g><path fill="#1d97bd" d="M 269.667969 205.597656 L 289.28125 205.597656 C 289.28125 203.792969 287.820312 202.335938 286.015625 202.335938 L 269.667969 202.335938 Z M 269.667969 205.597656 " fill-opacity="1" fill-rule="nonzero"/><path fill="#455a64" d="M 251.691406 220.273438 L 241.238281 220.273438 C 234.371094 220.273438 228.808594 214.71875 228.808594 207.871094 L 228.808594 182.765625 L 251.691406 199.074219 Z M 251.691406 220.273438 " fill-opacity="1" fill-rule="nonzero"/><g clip-path="url(#eaaf33f178)"><path fill="#b0bec5" d="M 253.300781 210.488281 L 250.03125 210.488281 L 250.03125 200.933594 C 250.03125 200.421875 249.785156 199.929688 249.371094 199.625 L 224.652344 181.691406 C 223.386719 180.75 222.578125 179.394531 222.351562 177.859375 C 222.132812 176.320312 222.519531 174.792969 223.453125 173.550781 L 227.539062 168.664062 L 230.050781 170.753906 L 226.015625 175.574219 C 225.660156 176.050781 225.492188 176.722656 225.585938 177.390625 C 225.6875 178.0625 226.039062 178.65625 226.585938 179.0625 L 251.308594 196.996094 C 252.5625 197.929688 253.300781 199.394531 253.300781 200.933594 Z M 253.300781 210.488281 " fill-opacity="1" fill-rule="nonzero"/></g><path fill="#1d97bd" d="M 292.550781 226.796875 L 250.054688 226.796875 L 250.054688 210.660156 C 250.054688 204.992188 255.65625 201.011719 261.03125 202.867188 L 288.152344 212.234375 C 290.78125 213.140625 292.550781 215.617188 292.550781 218.394531 Z M 292.550781 226.796875 " fill-opacity="1" fill-rule="nonzero"/><path fill="#37474f" d="M 261.496094 221.90625 C 261.496094 222.546875 261.433594 223.183594 261.308594 223.816406 C 261.183594 224.445312 260.996094 225.054688 260.75 225.648438 C 260.503906 226.242188 260.203125 226.804688 259.84375 227.339844 C 259.488281 227.875 259.082031 228.371094 258.625 228.824219 C 258.171875 229.277344 257.671875 229.683594 257.140625 230.039062 C 256.601562 230.398438 256.039062 230.699219 255.441406 230.945312 C 254.847656 231.191406 254.234375 231.375 253.601562 231.503906 C 252.972656 231.625 252.332031 231.691406 251.691406 231.691406 C 251.046875 231.691406 250.410156 231.625 249.777344 231.503906 C 249.144531 231.375 248.535156 231.191406 247.9375 230.945312 C 247.34375 230.699219 246.777344 230.398438 246.242188 230.039062 C 245.707031 229.683594 245.210938 229.277344 244.753906 228.824219 C 244.300781 228.371094 243.894531 227.875 243.535156 227.339844 C 243.179688 226.804688 242.875 226.242188 242.632812 225.648438 C 242.382812 225.054688 242.199219 224.445312 242.070312 223.816406 C 241.945312 223.183594 241.882812 222.546875 241.882812 221.90625 C 241.882812 221.261719 241.945312 220.625 242.070312 219.996094 C 242.199219 219.367188 242.382812 218.753906 242.632812 218.160156 C 242.875 217.566406 243.179688 217.003906 243.535156 216.46875 C 243.894531 215.933594 244.300781 215.441406 244.753906 214.988281 C 245.210938 214.53125 245.707031 214.125 246.242188 213.769531 C 246.777344 213.414062 247.34375 213.109375 247.9375 212.867188 C 248.535156 212.617188 249.144531 212.433594 249.777344 212.308594 C 250.410156 212.183594 251.046875 212.121094 251.691406 212.121094 C 252.332031 212.121094 252.972656 212.183594 253.601562 212.308594 C 254.234375 212.433594 254.847656 212.617188 255.441406 212.867188 C 256.039062 213.109375 256.601562 213.414062 257.140625 213.769531 C 257.671875 214.125 258.171875 214.53125 258.625 214.988281 C 259.082031 215.441406 259.488281 215.933594 259.84375 216.46875 C 260.203125 217.003906 260.503906 217.566406 260.75 218.160156 C 260.996094 218.753906 261.183594 219.367188 261.308594 219.996094 C 261.433594 220.625 261.496094 221.261719 261.496094 221.90625 Z M 261.496094 221.90625 " fill-opacity="1" fill-rule="nonzero"/><path fill="#37474f" d="M 299.089844 225.167969 C 299.089844 225.597656 299.046875 226.019531 298.960938 226.4375 C 298.878906 226.859375 298.753906 227.269531 298.589844 227.660156 C 298.425781 228.058594 298.226562 228.433594 297.988281 228.789062 C 297.75 229.144531 297.476562 229.476562 297.175781 229.777344 C 296.871094 230.082031 296.539062 230.355469 296.183594 230.589844 C 295.824219 230.828125 295.449219 231.03125 295.054688 231.195312 C 294.65625 231.355469 294.246094 231.480469 293.824219 231.5625 C 293.402344 231.648438 292.980469 231.691406 292.550781 231.691406 C 292.121094 231.691406 291.695312 231.648438 291.273438 231.5625 C 290.855469 231.480469 290.445312 231.355469 290.050781 231.195312 C 289.652344 231.03125 289.273438 230.828125 288.917969 230.589844 C 288.5625 230.355469 288.230469 230.082031 287.929688 229.777344 C 287.625 229.476562 287.355469 229.144531 287.117188 228.789062 C 286.878906 228.433594 286.675781 228.058594 286.511719 227.660156 C 286.347656 227.269531 286.222656 226.859375 286.136719 226.4375 C 286.054688 226.019531 286.015625 225.597656 286.015625 225.167969 C 286.015625 224.738281 286.054688 224.316406 286.136719 223.894531 C 286.222656 223.472656 286.347656 223.066406 286.511719 222.667969 C 286.675781 222.273438 286.878906 221.898438 287.117188 221.542969 C 287.355469 221.183594 287.625 220.855469 287.929688 220.554688 C 288.230469 220.25 288.5625 219.980469 288.917969 219.742188 C 289.273438 219.503906 289.652344 219.304688 290.050781 219.140625 C 290.445312 218.976562 290.855469 218.851562 291.273438 218.769531 C 291.695312 218.683594 292.121094 218.644531 292.550781 218.644531 C 292.980469 218.644531 293.402344 218.683594 293.824219 218.769531 C 294.246094 218.851562 294.65625 218.976562 295.054688 219.140625 C 295.449219 219.304688 295.824219 219.503906 296.183594 219.742188 C 296.539062 219.980469 296.871094 220.25 297.175781 220.554688 C 297.476562 220.855469 297.75 221.183594 297.988281 221.542969 C 298.226562 221.898438 298.425781 222.273438 298.589844 222.667969 C 298.753906 223.066406 298.878906 223.472656 298.960938 223.894531 C 299.046875 224.316406 299.089844 224.738281 299.089844 225.167969 Z M 299.089844 225.167969 " fill-opacity="1" fill-rule="nonzero"/><path fill="#b0bec5" d="M 295.796875 225.167969 C 295.796875 225.382812 295.773438 225.59375 295.734375 225.800781 C 295.691406 226.011719 295.628906 226.214844 295.546875 226.414062 C 295.464844 226.613281 295.367188 226.800781 295.246094 226.976562 C 295.128906 227.15625 294.992188 227.320312 294.839844 227.472656 C 294.6875 227.625 294.523438 227.757812 294.34375 227.878906 C 294.167969 227.996094 293.976562 228.097656 293.777344 228.179688 C 293.582031 228.261719 293.378906 228.324219 293.164062 228.363281 C 292.957031 228.40625 292.742188 228.429688 292.53125 228.429688 C 292.3125 228.429688 292.101562 228.40625 291.890625 228.363281 C 291.679688 228.324219 291.476562 228.261719 291.277344 228.179688 C 291.082031 228.097656 290.890625 227.996094 290.710938 227.878906 C 290.53125 227.757812 290.367188 227.625 290.21875 227.472656 C 290.0625 227.320312 289.929688 227.15625 289.8125 226.976562 C 289.691406 226.800781 289.589844 226.613281 289.507812 226.414062 C 289.425781 226.214844 289.363281 226.011719 289.320312 225.800781 C 289.28125 225.59375 289.261719 225.382812 289.261719 225.167969 C 289.261719 224.953125 289.28125 224.742188 289.320312 224.527344 C 289.363281 224.320312 289.425781 224.113281 289.507812 223.917969 C 289.589844 223.722656 289.691406 223.53125 289.8125 223.355469 C 289.929688 223.175781 290.0625 223.011719 290.21875 222.859375 C 290.367188 222.710938 290.53125 222.574219 290.710938 222.453125 C 290.890625 222.335938 291.082031 222.234375 291.277344 222.152344 C 291.476562 222.074219 291.679688 222.011719 291.890625 221.964844 C 292.101562 221.925781 292.3125 221.90625 292.53125 221.90625 C 292.742188 221.90625 292.957031 221.925781 293.164062 221.964844 C 293.378906 222.011719 293.582031 222.074219 293.777344 222.152344 C 293.976562 222.234375 294.167969 222.335938 294.34375 222.453125 C 294.523438 222.574219 294.6875 222.710938 294.839844 222.859375 C 294.992188 223.011719 295.128906 223.175781 295.246094 223.355469 C 295.367188 223.53125 295.464844 223.722656 295.546875 223.917969 C 295.628906 224.113281 295.691406 224.320312 295.734375 224.527344 C 295.773438 224.742188 295.796875 224.953125 295.796875 225.167969 Z M 295.796875 225.167969 " fill-opacity="1" fill-rule="nonzero"/><path fill="#b0bec5" d="M 258.207031 221.90625 C 258.207031 222.335938 258.164062 222.757812 258.078125 223.175781 C 257.996094 223.597656 257.871094 224.007812 257.707031 224.398438 C 257.542969 224.796875 257.34375 225.171875 257.105469 225.527344 C 256.867188 225.882812 256.59375 226.214844 256.292969 226.519531 C 255.988281 226.820312 255.65625 227.089844 255.296875 227.328125 C 254.941406 227.566406 254.566406 227.765625 254.167969 227.933594 C 253.773438 228.097656 253.363281 228.21875 252.941406 228.300781 C 252.519531 228.386719 252.097656 228.429688 251.667969 228.429688 C 251.238281 228.429688 250.8125 228.386719 250.390625 228.300781 C 249.972656 228.21875 249.5625 228.097656 249.167969 227.933594 C 248.769531 227.765625 248.390625 227.566406 248.035156 227.328125 C 247.679688 227.089844 247.347656 226.820312 247.042969 226.519531 C 246.738281 226.214844 246.46875 225.882812 246.230469 225.527344 C 245.992188 225.171875 245.792969 224.796875 245.625 224.398438 C 245.460938 224.007812 245.339844 223.597656 245.253906 223.175781 C 245.171875 222.757812 245.128906 222.335938 245.128906 221.90625 C 245.128906 221.476562 245.171875 221.054688 245.253906 220.632812 C 245.339844 220.210938 245.460938 219.804688 245.625 219.410156 C 245.792969 219.011719 245.992188 218.636719 246.230469 218.28125 C 246.46875 217.925781 246.738281 217.59375 247.042969 217.292969 C 247.347656 216.988281 247.679688 216.71875 248.035156 216.480469 C 248.390625 216.242188 248.769531 216.042969 249.167969 215.878906 C 249.5625 215.714844 249.972656 215.589844 250.390625 215.507812 C 250.8125 215.421875 251.238281 215.382812 251.667969 215.382812 C 252.097656 215.382812 252.519531 215.421875 252.941406 215.507812 C 253.363281 215.589844 253.773438 215.714844 254.167969 215.878906 C 254.566406 216.042969 254.941406 216.242188 255.296875 216.480469 C 255.65625 216.71875 255.988281 216.988281 256.292969 217.292969 C 256.59375 217.59375 256.867188 217.925781 257.105469 218.28125 C 257.34375 218.636719 257.542969 219.011719 257.707031 219.410156 C 257.871094 219.804688 257.996094 220.210938 258.078125 220.632812 C 258.164062 221.054688 258.207031 221.476562 258.207031 221.90625 Z M 258.207031 221.90625 " fill-opacity="1" fill-rule="nonzero"/><path fill="#1d97bd" d="M 281.109375 202.335938 L 272.9375 202.335938 L 274.574219 199.074219 L 279.476562 199.074219 Z M 281.109375 202.335938 " fill-opacity="1" fill-rule="nonzero"/><g fill="#000000" fill-opacity="1"><g transform="translate(54.023121, 123.752372)"><g><path d="M 1.609375 -12.53125 C 2.171875 -12.59375 2.722656 -12.632812 3.265625 -12.65625 C 3.804688 -12.6875 4.421875 -12.703125 5.109375 -12.703125 C 6.191406 -12.703125 7.117188 -12.535156 7.890625 -12.203125 C 8.671875 -11.867188 9.316406 -11.410156 9.828125 -10.828125 C 10.347656 -10.242188 10.726562 -9.5625 10.96875 -8.78125 C 11.21875 -8 11.34375 -7.171875 11.34375 -6.296875 C 11.34375 -5.421875 11.21875 -4.59375 10.96875 -3.8125 C 10.71875 -3.03125 10.332031 -2.34375 9.8125 -1.75 C 9.289062 -1.164062 8.625 -0.703125 7.8125 -0.359375 C 7.007812 -0.0234375 6.046875 0.140625 4.921875 0.140625 C 4.234375 0.140625 3.632812 0.125 3.125 0.09375 C 2.625 0.0625 2.117188 0.0195312 1.609375 -0.03125 Z M 5.0625 -11.234375 C 4.71875 -11.234375 4.398438 -11.222656 4.109375 -11.203125 C 3.828125 -11.191406 3.566406 -11.175781 3.328125 -11.15625 L 3.328125 -1.4375 C 3.578125 -1.394531 3.835938 -1.367188 4.109375 -1.359375 C 4.390625 -1.347656 4.675781 -1.34375 4.96875 -1.34375 C 5.769531 -1.34375 6.460938 -1.460938 7.046875 -1.703125 C 7.640625 -1.953125 8.125 -2.296875 8.5 -2.734375 C 8.875 -3.171875 9.148438 -3.691406 9.328125 -4.296875 C 9.515625 -4.898438 9.609375 -5.566406 9.609375 -6.296875 C 9.609375 -6.941406 9.515625 -7.5625 9.328125 -8.15625 C 9.148438 -8.75 8.875 -9.273438 8.5 -9.734375 C 8.132812 -10.203125 7.664062 -10.566406 7.09375 -10.828125 C 6.519531 -11.097656 5.84375 -11.234375 5.0625 -11.234375 Z M 5.0625 -11.234375 "/></g></g></g><g fill="#000000" fill-opacity="1"><g transform="translate(66.266434, 123.752372)"><g><path d="M 8.359375 -4.671875 C 8.359375 -5.140625 8.285156 -5.582031 8.140625 -6 C 7.992188 -6.414062 7.785156 -6.78125 7.515625 -7.09375 C 7.242188 -7.40625 6.925781 -7.648438 6.5625 -7.828125 C 6.195312 -8.015625 5.800781 -8.109375 5.375 -8.109375 C 4.425781 -8.109375 3.6875 -7.796875 3.15625 -7.171875 C 2.632812 -6.554688 2.375 -5.734375 2.375 -4.703125 C 2.375 -4.234375 2.445312 -3.785156 2.59375 -3.359375 C 2.738281 -2.941406 2.945312 -2.570312 3.21875 -2.25 C 3.488281 -1.9375 3.804688 -1.6875 4.171875 -1.5 C 4.535156 -1.3125 4.9375 -1.21875 5.375 -1.21875 C 5.832031 -1.21875 6.25 -1.300781 6.625 -1.46875 C 7 -1.632812 7.3125 -1.867188 7.5625 -2.171875 C 7.820312 -2.484375 8.019531 -2.847656 8.15625 -3.265625 C 8.289062 -3.679688 8.359375 -4.148438 8.359375 -4.671875 Z M 0.71875 -4.671875 C 0.71875 -5.421875 0.835938 -6.097656 1.078125 -6.703125 C 1.316406 -7.304688 1.640625 -7.816406 2.046875 -8.234375 C 2.460938 -8.660156 2.953125 -8.984375 3.515625 -9.203125 C 4.085938 -9.429688 4.707031 -9.546875 5.375 -9.546875 C 6.019531 -9.546875 6.625 -9.429688 7.1875 -9.203125 C 7.757812 -8.984375 8.253906 -8.660156 8.671875 -8.234375 C 9.085938 -7.816406 9.414062 -7.304688 9.65625 -6.703125 C 9.894531 -6.109375 10.015625 -5.441406 10.015625 -4.703125 C 10.015625 -3.960938 9.894531 -3.289062 9.65625 -2.6875 C 9.425781 -2.082031 9.101562 -1.5625 8.6875 -1.125 C 8.269531 -0.695312 7.773438 -0.363281 7.203125 -0.125 C 6.640625 0.101562 6.03125 0.21875 5.375 0.21875 C 4.695312 0.21875 4.070312 0.0976562 3.5 -0.140625 C 2.9375 -0.378906 2.445312 -0.710938 2.03125 -1.140625 C 1.625 -1.578125 1.300781 -2.09375 1.0625 -2.6875 C 0.832031 -3.289062 0.71875 -3.953125 0.71875 -4.671875 Z M 0.71875 -4.671875 "/></g></g></g><g fill="#000000" fill-opacity="1"><g transform="translate(77.001776, 123.752372)"><g><path d="M 3 -7.78125 C 3.332031 -8.28125 3.757812 -8.695312 4.28125 -9.03125 C 4.800781 -9.375 5.421875 -9.546875 6.140625 -9.546875 C 7.191406 -9.546875 7.976562 -9.226562 8.5 -8.59375 C 9.019531 -7.957031 9.28125 -7.125 9.28125 -6.09375 L 9.28125 0 L 7.671875 0 L 7.671875 -5.90625 C 7.671875 -6.59375 7.515625 -7.132812 7.203125 -7.53125 C 6.890625 -7.925781 6.445312 -8.125 5.875 -8.125 C 5.59375 -8.125 5.320312 -8.070312 5.0625 -7.96875 C 4.800781 -7.875 4.546875 -7.734375 4.296875 -7.546875 C 4.054688 -7.367188 3.828125 -7.160156 3.609375 -6.921875 C 3.398438 -6.691406 3.210938 -6.441406 3.046875 -6.171875 L 3.046875 0 L 1.4375 0 L 1.4375 -9.328125 L 3 -9.328125 Z M 3 -7.78125 "/></g></g></g><g fill="#000000" fill-opacity="1"><g transform="translate(87.629406, 123.752372)"><g><path d="M 0.71875 -12.359375 C 0.71875 -12.703125 0.832031 -12.976562 1.0625 -13.1875 C 1.289062 -13.394531 1.578125 -13.5 1.921875 -13.5 C 2.335938 -13.5 2.679688 -13.359375 2.953125 -13.078125 C 3.222656 -12.804688 3.359375 -12.414062 3.359375 -11.90625 C 3.359375 -11.351562 3.195312 -10.8125 2.875 -10.28125 C 2.5625 -9.75 2.117188 -9.328125 1.546875 -9.015625 L 1.125 -9.640625 C 1.4375 -9.859375 1.6875 -10.097656 1.875 -10.359375 C 2.0625 -10.617188 2.1875 -10.925781 2.25 -11.28125 C 2.132812 -11.226562 2.003906 -11.203125 1.859375 -11.203125 C 1.523438 -11.203125 1.25 -11.304688 1.03125 -11.515625 C 0.820312 -11.734375 0.71875 -12.015625 0.71875 -12.359375 Z M 0.71875 -12.359375 "/></g></g></g><g fill="#000000" fill-opacity="1"><g transform="translate(91.704526, 123.752372)"><g><path d="M 2.171875 -11.9375 L 3.40625 -11.9375 L 3.40625 -9 L 6 -9 L 6 -7.59375 L 3.40625 -7.59375 L 3.40625 -3.09375 C 3.40625 -2.738281 3.441406 -2.441406 3.515625 -2.203125 C 3.597656 -1.960938 3.707031 -1.769531 3.84375 -1.625 C 3.976562 -1.488281 4.132812 -1.382812 4.3125 -1.3125 C 4.5 -1.25 4.695312 -1.21875 4.90625 -1.21875 C 5.195312 -1.21875 5.472656 -1.265625 5.734375 -1.359375 C 6.003906 -1.460938 6.257812 -1.578125 6.5 -1.703125 L 6.953125 -0.40625 C 6.710938 -0.269531 6.390625 -0.132812 5.984375 0 C 5.578125 0.144531 5.148438 0.21875 4.703125 0.21875 C 3.804688 0.21875 3.097656 -0.0703125 2.578125 -0.65625 C 2.054688 -1.25 1.796875 -2.101562 1.796875 -3.21875 L 1.796875 -7.59375 L 0.171875 -7.59375 L 0.171875 -9 L 1.828125 -9 Z M 2.171875 -11.9375 "/></g></g></g><g fill="#000000" fill-opacity="1"><g transform="translate(98.831498, 123.752372)"><g/></g></g><g fill="#000000" fill-opacity="1"><g transform="translate(104.217122, 123.752372)"><g><path d="M 3.046875 -7.84375 C 3.390625 -8.332031 3.8125 -8.738281 4.3125 -9.0625 C 4.820312 -9.382812 5.429688 -9.546875 6.140625 -9.546875 C 7.191406 -9.546875 7.976562 -9.226562 8.5 -8.59375 C 9.019531 -7.957031 9.28125 -7.125 9.28125 -6.09375 L 9.28125 0 L 7.671875 0 L 7.671875 -5.90625 C 7.671875 -6.59375 7.515625 -7.132812 7.203125 -7.53125 C 6.898438 -7.925781 6.460938 -8.125 5.890625 -8.125 C 5.609375 -8.125 5.332031 -8.070312 5.0625 -7.96875 C 4.800781 -7.875 4.550781 -7.734375 4.3125 -7.546875 C 4.070312 -7.367188 3.84375 -7.160156 3.625 -6.921875 C 3.40625 -6.691406 3.210938 -6.441406 3.046875 -6.171875 L 3.046875 0 L 1.4375 0 L 1.4375 -13.28125 L 3.046875 -13.28125 Z M 3.046875 -7.84375 "/></g></g></g><g fill="#000000" fill-opacity="1"><g transform="translate(114.844753, 123.752372)"><g><path d="M 0.8125 -4.609375 C 0.8125 -5.304688 0.914062 -5.957031 1.125 -6.5625 C 1.34375 -7.164062 1.644531 -7.6875 2.03125 -8.125 C 2.425781 -8.570312 2.894531 -8.921875 3.4375 -9.171875 C 3.976562 -9.421875 4.570312 -9.546875 5.21875 -9.546875 C 5.757812 -9.546875 6.25 -9.453125 6.6875 -9.265625 C 7.125 -9.085938 7.503906 -8.859375 7.828125 -8.578125 L 7.828125 -9.328125 L 9.296875 -9.328125 L 9.296875 -2.265625 C 9.296875 -1.804688 9.40625 -1.507812 9.625 -1.375 C 9.851562 -1.238281 10.097656 -1.171875 10.359375 -1.171875 L 10.015625 0.09375 C 8.867188 0.09375 8.175781 -0.375 7.9375 -1.3125 C 7.789062 -1.113281 7.625 -0.921875 7.4375 -0.734375 C 7.25 -0.554688 7.035156 -0.394531 6.796875 -0.25 C 6.554688 -0.101562 6.285156 0.0078125 5.984375 0.09375 C 5.691406 0.175781 5.367188 0.21875 5.015625 0.21875 C 4.421875 0.21875 3.867188 0.101562 3.359375 -0.125 C 2.859375 -0.351562 2.414062 -0.675781 2.03125 -1.09375 C 1.65625 -1.507812 1.359375 -2.015625 1.140625 -2.609375 C 0.921875 -3.203125 0.8125 -3.867188 0.8125 -4.609375 Z M 5.375 -1.21875 C 5.820312 -1.21875 6.25 -1.320312 6.65625 -1.53125 C 7.0625 -1.75 7.40625 -2.035156 7.6875 -2.390625 L 7.6875 -7.390625 C 7.363281 -7.617188 7.003906 -7.800781 6.609375 -7.9375 C 6.222656 -8.082031 5.816406 -8.15625 5.390625 -8.15625 C 4.953125 -8.15625 4.550781 -8.066406 4.1875 -7.890625 C 3.832031 -7.722656 3.523438 -7.488281 3.265625 -7.1875 C 3.015625 -6.882812 2.816406 -6.515625 2.671875 -6.078125 C 2.523438 -5.648438 2.453125 -5.179688 2.453125 -4.671875 C 2.453125 -4.160156 2.523438 -3.691406 2.671875 -3.265625 C 2.816406 -2.847656 3.019531 -2.484375 3.28125 -2.171875 C 3.550781 -1.867188 3.859375 -1.632812 4.203125 -1.46875 C 4.554688 -1.300781 4.945312 -1.21875 5.375 -1.21875 Z M 5.375 -1.21875 "/></g></g></g><g fill="#000000" fill-opacity="1"><g transform="translate(125.92118, 123.752372)"><g><path d="M 0.171875 -8.90625 L 1.65625 -9.515625 L 4.828125 -1.828125 L 8 -9.515625 L 9.390625 -8.90625 L 5.625 0 L 3.9375 0 Z M 0.171875 -8.90625 "/></g></g></g><g fill="#000000" fill-opacity="1"><g transform="translate(135.489635, 123.752372)"><g><path d="M 2.453125 -4 C 2.566406 -3.125 2.875 -2.441406 3.375 -1.953125 C 3.875 -1.460938 4.539062 -1.21875 5.375 -1.21875 C 5.90625 -1.21875 6.382812 -1.273438 6.8125 -1.390625 C 7.25 -1.503906 7.664062 -1.648438 8.0625 -1.828125 L 8.4375 -0.453125 C 8.007812 -0.242188 7.523438 -0.0820312 6.984375 0.03125 C 6.441406 0.15625 5.835938 0.21875 5.171875 0.21875 C 4.503906 0.21875 3.898438 0.109375 3.359375 -0.109375 C 2.816406 -0.335938 2.359375 -0.65625 1.984375 -1.0625 C 1.609375 -1.476562 1.316406 -1.988281 1.109375 -2.59375 C 0.910156 -3.195312 0.8125 -3.890625 0.8125 -4.671875 C 0.8125 -5.359375 0.910156 -6 1.109375 -6.59375 C 1.316406 -7.195312 1.601562 -7.71875 1.96875 -8.15625 C 2.34375 -8.59375 2.785156 -8.929688 3.296875 -9.171875 C 3.816406 -9.421875 4.394531 -9.546875 5.03125 -9.546875 C 5.695312 -9.546875 6.28125 -9.429688 6.78125 -9.203125 C 7.289062 -8.984375 7.710938 -8.675781 8.046875 -8.28125 C 8.378906 -7.882812 8.628906 -7.421875 8.796875 -6.890625 C 8.960938 -6.367188 9.046875 -5.8125 9.046875 -5.21875 C 9.046875 -4.800781 9.03125 -4.394531 9 -4 Z M 4.984375 -8.15625 C 4.285156 -8.15625 3.707031 -7.914062 3.25 -7.4375 C 2.800781 -6.957031 2.53125 -6.25 2.4375 -5.3125 L 7.5625 -5.3125 C 7.5625 -6.21875 7.332031 -6.914062 6.875 -7.40625 C 6.414062 -7.90625 5.785156 -8.15625 4.984375 -8.15625 Z M 4.984375 -8.15625 "/></g></g></g><g fill="#000000" fill-opacity="1"><g transform="translate(145.255569, 123.752372)"><g/></g></g><g fill="#000000" fill-opacity="1"><g transform="translate(150.641193, 123.752372)"><g><path d="M 2.171875 -11.9375 L 3.40625 -11.9375 L 3.40625 -9 L 6 -9 L 6 -7.59375 L 3.40625 -7.59375 L 3.40625 -3.09375 C 3.40625 -2.738281 3.441406 -2.441406 3.515625 -2.203125 C 3.597656 -1.960938 3.707031 -1.769531 3.84375 -1.625 C 3.976562 -1.488281 4.132812 -1.382812 4.3125 -1.3125 C 4.5 -1.25 4.695312 -1.21875 4.90625 -1.21875 C 5.195312 -1.21875 5.472656 -1.265625 5.734375 -1.359375 C 6.003906 -1.460938 6.257812 -1.578125 6.5 -1.703125 L 6.953125 -0.40625 C 6.710938 -0.269531 6.390625 -0.132812 5.984375 0 C 5.578125 0.144531 5.148438 0.21875 4.703125 0.21875 C 3.804688 0.21875 3.097656 -0.0703125 2.578125 -0.65625 C 2.054688 -1.25 1.796875 -2.101562 1.796875 -3.21875 L 1.796875 -7.59375 L 0.171875 -7.59375 L 0.171875 -9 L 1.828125 -9 Z M 2.171875 -11.9375 "/></g></g></g><g fill="#000000" fill-opacity="1"><g transform="translate(157.768165, 123.752372)"><g><path d="M 3.046875 0 L 1.4375 0 L 1.4375 -9.328125 L 3.046875 -9.328125 Z M 2.25 -10.9375 C 1.9375 -10.9375 1.664062 -11.046875 1.4375 -11.265625 C 1.21875 -11.484375 1.109375 -11.75 1.109375 -12.0625 C 1.109375 -12.40625 1.207031 -12.679688 1.40625 -12.890625 C 1.613281 -13.097656 1.894531 -13.203125 2.25 -13.203125 C 2.550781 -13.203125 2.8125 -13.085938 3.03125 -12.859375 C 3.257812 -12.640625 3.375 -12.375 3.375 -12.0625 C 3.375 -11.71875 3.269531 -11.441406 3.0625 -11.234375 C 2.863281 -11.035156 2.59375 -10.9375 2.25 -10.9375 Z M 2.25 -10.9375 "/></g></g></g><g fill="#000000" fill-opacity="1"><g transform="translate(162.256185, 123.752372)"><g><path d="M 3 -7.78125 C 3.332031 -8.28125 3.753906 -8.695312 4.265625 -9.03125 C 4.773438 -9.375 5.363281 -9.546875 6.03125 -9.546875 C 6.769531 -9.546875 7.375 -9.367188 7.84375 -9.015625 C 8.3125 -8.660156 8.644531 -8.179688 8.84375 -7.578125 C 9.21875 -8.128906 9.660156 -8.59375 10.171875 -8.96875 C 10.679688 -9.351562 11.3125 -9.546875 12.0625 -9.546875 C 12.5625 -9.546875 13 -9.460938 13.375 -9.296875 C 13.757812 -9.128906 14.078125 -8.890625 14.328125 -8.578125 C 14.578125 -8.273438 14.765625 -7.910156 14.890625 -7.484375 C 15.015625 -7.066406 15.078125 -6.601562 15.078125 -6.09375 L 15.078125 0 L 13.46875 0 L 13.46875 -5.953125 C 13.46875 -6.609375 13.316406 -7.132812 13.015625 -7.53125 C 12.710938 -7.925781 12.300781 -8.125 11.78125 -8.125 C 11.5 -8.125 11.234375 -8.070312 10.984375 -7.96875 C 10.734375 -7.863281 10.492188 -7.71875 10.265625 -7.53125 C 10.035156 -7.34375 9.816406 -7.125 9.609375 -6.875 C 9.410156 -6.632812 9.226562 -6.382812 9.0625 -6.125 L 9.0625 0 L 7.453125 0 L 7.453125 -5.953125 C 7.453125 -6.609375 7.300781 -7.132812 7 -7.53125 C 6.695312 -7.925781 6.285156 -8.125 5.765625 -8.125 C 5.503906 -8.125 5.242188 -8.070312 4.984375 -7.96875 C 4.734375 -7.875 4.488281 -7.734375 4.25 -7.546875 C 4.019531 -7.367188 3.800781 -7.160156 3.59375 -6.921875 C 3.394531 -6.691406 3.210938 -6.441406 3.046875 -6.171875 L 3.046875 0 L 1.4375 0 L 1.4375 -9.328125 L 3 -9.328125 Z M 3 -7.78125 "/></g></g></g><g fill="#000000" fill-opacity="1"><g transform="translate(178.682329, 123.752372)"><g><path d="M 2.453125 -4 C 2.566406 -3.125 2.875 -2.441406 3.375 -1.953125 C 3.875 -1.460938 4.539062 -1.21875 5.375 -1.21875 C 5.90625 -1.21875 6.382812 -1.273438 6.8125 -1.390625 C 7.25 -1.503906 7.664062 -1.648438 8.0625 -1.828125 L 8.4375 -0.453125 C 8.007812 -0.242188 7.523438 -0.0820312 6.984375 0.03125 C 6.441406 0.15625 5.835938 0.21875 5.171875 0.21875 C 4.503906 0.21875 3.898438 0.109375 3.359375 -0.109375 C 2.816406 -0.335938 2.359375 -0.65625 1.984375 -1.0625 C 1.609375 -1.476562 1.316406 -1.988281 1.109375 -2.59375 C 0.910156 -3.195312 0.8125 -3.890625 0.8125 -4.671875 C 0.8125 -5.359375 0.910156 -6 1.109375 -6.59375 C 1.316406 -7.195312 1.601562 -7.71875 1.96875 -8.15625 C 2.34375 -8.59375 2.785156 -8.929688 3.296875 -9.171875 C 3.816406 -9.421875 4.394531 -9.546875 5.03125 -9.546875 C 5.695312 -9.546875 6.28125 -9.429688 6.78125 -9.203125 C 7.289062 -8.984375 7.710938 -8.675781 8.046875 -8.28125 C 8.378906 -7.882812 8.628906 -7.421875 8.796875 -6.890625 C 8.960938 -6.367188 9.046875 -5.8125 9.046875 -5.21875 C 9.046875 -4.800781 9.03125 -4.394531 9 -4 Z M 4.984375 -8.15625 C 4.285156 -8.15625 3.707031 -7.914062 3.25 -7.4375 C 2.800781 -6.957031 2.53125 -6.25 2.4375 -5.3125 L 7.5625 -5.3125 C 7.5625 -6.21875 7.332031 -6.914062 6.875 -7.40625 C 6.414062 -7.90625 5.785156 -8.15625 4.984375 -8.15625 Z M 4.984375 -8.15625 "/></g></g></g><g fill="#000000" fill-opacity="1"><g transform="translate(188.448263, 123.752372)"><g/></g></g><g fill="#000000" fill-opacity="1"><g transform="translate(193.833887, 123.752372)"><g><path d="M 6.65625 -11.546875 C 6.40625 -11.671875 6.132812 -11.785156 5.84375 -11.890625 C 5.5625 -12.003906 5.25 -12.0625 4.90625 -12.0625 C 4.394531 -12.0625 3.988281 -11.898438 3.6875 -11.578125 C 3.382812 -11.265625 3.234375 -10.804688 3.234375 -10.203125 L 3.234375 -9 L 6 -9 L 6 -7.59375 L 3.234375 -7.59375 L 3.234375 0 L 1.609375 0 L 1.609375 -7.59375 L 0.171875 -7.59375 L 0.171875 -9 L 1.609375 -9 L 1.609375 -10.09375 C 1.609375 -10.613281 1.6875 -11.082031 1.84375 -11.5 C 2 -11.925781 2.210938 -12.285156 2.484375 -12.578125 C 2.765625 -12.878906 3.101562 -13.109375 3.5 -13.265625 C 3.894531 -13.421875 4.328125 -13.5 4.796875 -13.5 C 5.296875 -13.5 5.726562 -13.441406 6.09375 -13.328125 C 6.457031 -13.210938 6.804688 -13.070312 7.140625 -12.90625 Z M 6.65625 -11.546875 "/></g></g></g><g fill="#000000" fill-opacity="1"><g transform="translate(200.081208, 123.752372)"><g><path d="M 8.359375 -4.671875 C 8.359375 -5.140625 8.285156 -5.582031 8.140625 -6 C 7.992188 -6.414062 7.785156 -6.78125 7.515625 -7.09375 C 7.242188 -7.40625 6.925781 -7.648438 6.5625 -7.828125 C 6.195312 -8.015625 5.800781 -8.109375 5.375 -8.109375 C 4.425781 -8.109375 3.6875 -7.796875 3.15625 -7.171875 C 2.632812 -6.554688 2.375 -5.734375 2.375 -4.703125 C 2.375 -4.234375 2.445312 -3.785156 2.59375 -3.359375 C 2.738281 -2.941406 2.945312 -2.570312 3.21875 -2.25 C 3.488281 -1.9375 3.804688 -1.6875 4.171875 -1.5 C 4.535156 -1.3125 4.9375 -1.21875 5.375 -1.21875 C 5.832031 -1.21875 6.25 -1.300781 6.625 -1.46875 C 7 -1.632812 7.3125 -1.867188 7.5625 -2.171875 C 7.820312 -2.484375 8.019531 -2.847656 8.15625 -3.265625 C 8.289062 -3.679688 8.359375 -4.148438 8.359375 -4.671875 Z M 0.71875 -4.671875 C 0.71875 -5.421875 0.835938 -6.097656 1.078125 -6.703125 C 1.316406 -7.304688 1.640625 -7.816406 2.046875 -8.234375 C 2.460938 -8.660156 2.953125 -8.984375 3.515625 -9.203125 C 4.085938 -9.429688 4.707031 -9.546875 5.375 -9.546875 C 6.019531 -9.546875 6.625 -9.429688 7.1875 -9.203125 C 7.757812 -8.984375 8.253906 -8.660156 8.671875 -8.234375 C 9.085938 -7.816406 9.414062 -7.304688 9.65625 -6.703125 C 9.894531 -6.109375 10.015625 -5.441406 10.015625 -4.703125 C 10.015625 -3.960938 9.894531 -3.289062 9.65625 -2.6875 C 9.425781 -2.082031 9.101562 -1.5625 8.6875 -1.125 C 8.269531 -0.695312 7.773438 -0.363281 7.203125 -0.125 C 6.640625 0.101562 6.03125 0.21875 5.375 0.21875 C 4.695312 0.21875 4.070312 0.0976562 3.5 -0.140625 C 2.9375 -0.378906 2.445312 -0.710938 2.03125 -1.140625 C 1.625 -1.578125 1.300781 -2.09375 1.0625 -2.6875 C 0.832031 -3.289062 0.71875 -3.953125 0.71875 -4.671875 Z M 0.71875 -4.671875 "/></g></g></g><g fill="#000000" fill-opacity="1"><g transform="translate(210.81655, 123.752372)"><g><path d="M 6.5 -7.78125 C 6.269531 -7.875 6 -7.921875 5.6875 -7.921875 C 5.351562 -7.921875 5.023438 -7.847656 4.703125 -7.703125 C 4.390625 -7.554688 4.109375 -7.335938 3.859375 -7.046875 C 3.617188 -6.765625 3.421875 -6.398438 3.265625 -5.953125 C 3.117188 -5.503906 3.046875 -4.972656 3.046875 -4.359375 L 3.046875 0 L 1.4375 0 L 1.4375 -9.328125 L 3 -9.328125 L 3 -7.3125 C 3.101562 -7.59375 3.242188 -7.867188 3.421875 -8.140625 C 3.609375 -8.421875 3.820312 -8.660156 4.0625 -8.859375 C 4.3125 -9.066406 4.597656 -9.234375 4.921875 -9.359375 C 5.242188 -9.484375 5.601562 -9.546875 6 -9.546875 C 6.175781 -9.546875 6.347656 -9.535156 6.515625 -9.515625 C 6.691406 -9.503906 6.847656 -9.476562 6.984375 -9.4375 Z M 6.5 -7.78125 "/></g></g></g><g fill="#000000" fill-opacity="1"><g transform="translate(217.979429, 123.752372)"><g/></g></g><g fill="#000000" fill-opacity="1"><g transform="translate(223.365053, 123.752372)"><g><path d="M 0.8125 -4.609375 C 0.8125 -5.304688 0.914062 -5.957031 1.125 -6.5625 C 1.34375 -7.164062 1.644531 -7.6875 2.03125 -8.125 C 2.425781 -8.570312 2.894531 -8.921875 3.4375 -9.171875 C 3.976562 -9.421875 4.570312 -9.546875 5.21875 -9.546875 C 5.757812 -9.546875 6.25 -9.453125 6.6875 -9.265625 C 7.125 -9.085938 7.503906 -8.859375 7.828125 -8.578125 L 7.828125 -9.328125 L 9.296875 -9.328125 L 9.296875 -2.265625 C 9.296875 -1.804688 9.40625 -1.507812 9.625 -1.375 C 9.851562 -1.238281 10.097656 -1.171875 10.359375 -1.171875 L 10.015625 0.09375 C 8.867188 0.09375 8.175781 -0.375 7.9375 -1.3125 C 7.789062 -1.113281 7.625 -0.921875 7.4375 -0.734375 C 7.25 -0.554688 7.035156 -0.394531 6.796875 -0.25 C 6.554688 -0.101562 6.285156 0.0078125 5.984375 0.09375 C 5.691406 0.175781 5.367188 0.21875 5.015625 0.21875 C 4.421875 0.21875 3.867188 0.101562 3.359375 -0.125 C 2.859375 -0.351562 2.414062 -0.675781 2.03125 -1.09375 C 1.65625 -1.507812 1.359375 -2.015625 1.140625 -2.609375 C 0.921875 -3.203125 0.8125 -3.867188 0.8125 -4.609375 Z M 5.375 -1.21875 C 5.820312 -1.21875 6.25 -1.320312 6.65625 -1.53125 C 7.0625 -1.75 7.40625 -2.035156 7.6875 -2.390625 L 7.6875 -7.390625 C 7.363281 -7.617188 7.003906 -7.800781 6.609375 -7.9375 C 6.222656 -8.082031 5.816406 -8.15625 5.390625 -8.15625 C 4.953125 -8.15625 4.550781 -8.066406 4.1875 -7.890625 C 3.832031 -7.722656 3.523438 -7.488281 3.265625 -7.1875 C 3.015625 -6.882812 2.816406 -6.515625 2.671875 -6.078125 C 2.523438 -5.648438 2.453125 -5.179688 2.453125 -4.671875 C 2.453125 -4.160156 2.523438 -3.691406 2.671875 -3.265625 C 2.816406 -2.847656 3.019531 -2.484375 3.28125 -2.171875 C 3.550781 -1.867188 3.859375 -1.632812 4.203125 -1.46875 C 4.554688 -1.300781 4.945312 -1.21875 5.375 -1.21875 Z M 5.375 -1.21875 "/></g></g></g><g fill="#000000" fill-opacity="1"><g transform="translate(234.44148, 123.752372)"><g/></g></g><g fill="#000000" fill-opacity="1"><g transform="translate(239.827104, 123.752372)"><g><path d="M 12.796875 -9.421875 L 14.234375 -8.90625 L 11.28125 0 L 9.5 0 L 7.34375 -6.953125 L 5.171875 0 L 3.390625 0 L 0.453125 -8.90625 L 1.9375 -9.421875 L 4.34375 -1.828125 L 6.53125 -8.671875 L 8.28125 -8.671875 L 10.40625 -1.828125 Z M 12.796875 -9.421875 "/></g></g></g><g fill="#000000" fill-opacity="1"><g transform="translate(254.511913, 123.752372)"><g><path d="M 2.453125 -4 C 2.566406 -3.125 2.875 -2.441406 3.375 -1.953125 C 3.875 -1.460938 4.539062 -1.21875 5.375 -1.21875 C 5.90625 -1.21875 6.382812 -1.273438 6.8125 -1.390625 C 7.25 -1.503906 7.664062 -1.648438 8.0625 -1.828125 L 8.4375 -0.453125 C 8.007812 -0.242188 7.523438 -0.0820312 6.984375 0.03125 C 6.441406 0.15625 5.835938 0.21875 5.171875 0.21875 C 4.503906 0.21875 3.898438 0.109375 3.359375 -0.109375 C 2.816406 -0.335938 2.359375 -0.65625 1.984375 -1.0625 C 1.609375 -1.476562 1.316406 -1.988281 1.109375 -2.59375 C 0.910156 -3.195312 0.8125 -3.890625 0.8125 -4.671875 C 0.8125 -5.359375 0.910156 -6 1.109375 -6.59375 C 1.316406 -7.195312 1.601562 -7.71875 1.96875 -8.15625 C 2.34375 -8.59375 2.785156 -8.929688 3.296875 -9.171875 C 3.816406 -9.421875 4.394531 -9.546875 5.03125 -9.546875 C 5.695312 -9.546875 6.28125 -9.429688 6.78125 -9.203125 C 7.289062 -8.984375 7.710938 -8.675781 8.046875 -8.28125 C 8.378906 -7.882812 8.628906 -7.421875 8.796875 -6.890625 C 8.960938 -6.367188 9.046875 -5.8125 9.046875 -5.21875 C 9.046875 -4.800781 9.03125 -4.394531 9 -4 Z M 4.984375 -8.15625 C 4.285156 -8.15625 3.707031 -7.914062 3.25 -7.4375 C 2.800781 -6.957031 2.53125 -6.25 2.4375 -5.3125 L 7.5625 -5.3125 C 7.5625 -6.21875 7.332031 -6.914062 6.875 -7.40625 C 6.414062 -7.90625 5.785156 -8.15625 4.984375 -8.15625 Z M 4.984375 -8.15625 "/></g></g></g><g fill="#000000" fill-opacity="1"><g transform="translate(264.277847, 123.752372)"><g><path d="M 2.453125 -4 C 2.566406 -3.125 2.875 -2.441406 3.375 -1.953125 C 3.875 -1.460938 4.539062 -1.21875 5.375 -1.21875 C 5.90625 -1.21875 6.382812 -1.273438 6.8125 -1.390625 C 7.25 -1.503906 7.664062 -1.648438 8.0625 -1.828125 L 8.4375 -0.453125 C 8.007812 -0.242188 7.523438 -0.0820312 6.984375 0.03125 C 6.441406 0.15625 5.835938 0.21875 5.171875 0.21875 C 4.503906 0.21875 3.898438 0.109375 3.359375 -0.109375 C 2.816406 -0.335938 2.359375 -0.65625 1.984375 -1.0625 C 1.609375 -1.476562 1.316406 -1.988281 1.109375 -2.59375 C 0.910156 -3.195312 0.8125 -3.890625 0.8125 -4.671875 C 0.8125 -5.359375 0.910156 -6 1.109375 -6.59375 C 1.316406 -7.195312 1.601562 -7.71875 1.96875 -8.15625 C 2.34375 -8.59375 2.785156 -8.929688 3.296875 -9.171875 C 3.816406 -9.421875 4.394531 -9.546875 5.03125 -9.546875 C 5.695312 -9.546875 6.28125 -9.429688 6.78125 -9.203125 C 7.289062 -8.984375 7.710938 -8.675781 8.046875 -8.28125 C 8.378906 -7.882812 8.628906 -7.421875 8.796875 -6.890625 C 8.960938 -6.367188 9.046875 -5.8125 9.046875 -5.21875 C 9.046875 -4.800781 9.03125 -4.394531 9 -4 Z M 4.984375 -8.15625 C 4.285156 -8.15625 3.707031 -7.914062 3.25 -7.4375 C 2.800781 -6.957031 2.53125 -6.25 2.4375 -5.3125 L 7.5625 -5.3125 C 7.5625 -6.21875 7.332031 -6.914062 6.875 -7.40625 C 6.414062 -7.90625 5.785156 -8.15625 4.984375 -8.15625 Z M 4.984375 -8.15625 "/></g></g></g><g fill="#000000" fill-opacity="1"><g transform="translate(274.043781, 123.752372)"><g><path d="M 1.4375 -13.28125 L 3.046875 -13.28125 L 3.046875 -5.6875 L 7.265625 -9.515625 L 8.203125 -8.484375 L 4.59375 -5.296875 L 9 -0.890625 L 7.875 0.171875 L 3.046875 -4.796875 L 3.046875 0 L 1.4375 0 Z M 1.4375 -13.28125 "/></g></g></g><g fill="#000000" fill-opacity="1"><g transform="translate(283.217278, 123.752372)"><g><path d="M 2.453125 -4 C 2.566406 -3.125 2.875 -2.441406 3.375 -1.953125 C 3.875 -1.460938 4.539062 -1.21875 5.375 -1.21875 C 5.90625 -1.21875 6.382812 -1.273438 6.8125 -1.390625 C 7.25 -1.503906 7.664062 -1.648438 8.0625 -1.828125 L 8.4375 -0.453125 C 8.007812 -0.242188 7.523438 -0.0820312 6.984375 0.03125 C 6.441406 0.15625 5.835938 0.21875 5.171875 0.21875 C 4.503906 0.21875 3.898438 0.109375 3.359375 -0.109375 C 2.816406 -0.335938 2.359375 -0.65625 1.984375 -1.0625 C 1.609375 -1.476562 1.316406 -1.988281 1.109375 -2.59375 C 0.910156 -3.195312 0.8125 -3.890625 0.8125 -4.671875 C 0.8125 -5.359375 0.910156 -6 1.109375 -6.59375 C 1.316406 -7.195312 1.601562 -7.71875 1.96875 -8.15625 C 2.34375 -8.59375 2.785156 -8.929688 3.296875 -9.171875 C 3.816406 -9.421875 4.394531 -9.546875 5.03125 -9.546875 C 5.695312 -9.546875 6.28125 -9.429688 6.78125 -9.203125 C 7.289062 -8.984375 7.710938 -8.675781 8.046875 -8.28125 C 8.378906 -7.882812 8.628906 -7.421875 8.796875 -6.890625 C 8.960938 -6.367188 9.046875 -5.8125 9.046875 -5.21875 C 9.046875 -4.800781 9.03125 -4.394531 9 -4 Z M 4.984375 -8.15625 C 4.285156 -8.15625 3.707031 -7.914062 3.25 -7.4375 C 2.800781 -6.957031 2.53125 -6.25 2.4375 -5.3125 L 7.5625 -5.3125 C 7.5625 -6.21875 7.332031 -6.914062 6.875 -7.40625 C 6.414062 -7.90625 5.785156 -8.15625 4.984375 -8.15625 Z M 4.984375 -8.15625 "/></g></g></g><g fill="#000000" fill-opacity="1"><g transform="translate(292.983212, 123.752372)"><g><path d="M 3 -7.78125 C 3.332031 -8.28125 3.757812 -8.695312 4.28125 -9.03125 C 4.800781 -9.375 5.421875 -9.546875 6.140625 -9.546875 C 7.191406 -9.546875 7.976562 -9.226562 8.5 -8.59375 C 9.019531 -7.957031 9.28125 -7.125 9.28125 -6.09375 L 9.28125 0 L 7.671875 0 L 7.671875 -5.90625 C 7.671875 -6.59375 7.515625 -7.132812 7.203125 -7.53125 C 6.890625 -7.925781 6.445312 -8.125 5.875 -8.125 C 5.59375 -8.125 5.320312 -8.070312 5.0625 -7.96875 C 4.800781 -7.875 4.546875 -7.734375 4.296875 -7.546875 C 4.054688 -7.367188 3.828125 -7.160156 3.609375 -6.921875 C 3.398438 -6.691406 3.210938 -6.441406 3.046875 -6.171875 L 3.046875 0 L 1.4375 0 L 1.4375 -9.328125 L 3 -9.328125 Z M 3 -7.78125 "/></g></g></g><g fill="#000000" fill-opacity="1"><g transform="translate(303.610854, 123.752372)"><g><path d="M 4.96875 0.21875 C 4.394531 0.21875 3.851562 0.101562 3.34375 -0.125 C 2.832031 -0.351562 2.390625 -0.675781 2.015625 -1.09375 C 1.640625 -1.507812 1.34375 -2.015625 1.125 -2.609375 C 0.914062 -3.203125 0.8125 -3.867188 0.8125 -4.609375 C 0.8125 -5.316406 0.921875 -5.972656 1.140625 -6.578125 C 1.359375 -7.179688 1.65625 -7.703125 2.03125 -8.140625 C 2.414062 -8.578125 2.859375 -8.921875 3.359375 -9.171875 C 3.859375 -9.421875 4.390625 -9.546875 4.953125 -9.546875 C 5.578125 -9.546875 6.113281 -9.421875 6.5625 -9.171875 C 7.007812 -8.921875 7.359375 -8.664062 7.609375 -8.40625 L 7.609375 -13.28125 L 9.234375 -13.28125 L 9.234375 -2.265625 C 9.234375 -1.804688 9.34375 -1.507812 9.5625 -1.375 C 9.78125 -1.238281 10.019531 -1.171875 10.28125 -1.171875 L 9.953125 0.09375 C 8.804688 0.09375 8.109375 -0.363281 7.859375 -1.28125 C 7.585938 -0.894531 7.21875 -0.546875 6.75 -0.234375 C 6.28125 0.0664062 5.6875 0.21875 4.96875 0.21875 Z M 5.328125 -1.21875 C 5.773438 -1.21875 6.195312 -1.320312 6.59375 -1.53125 C 7 -1.738281 7.335938 -2.015625 7.609375 -2.359375 L 7.609375 -6.984375 C 7.378906 -7.273438 7.0625 -7.539062 6.65625 -7.78125 C 6.257812 -8.03125 5.8125 -8.15625 5.3125 -8.15625 C 4.882812 -8.15625 4.492188 -8.0625 4.140625 -7.875 C 3.785156 -7.695312 3.484375 -7.453125 3.234375 -7.140625 C 2.984375 -6.828125 2.789062 -6.457031 2.65625 -6.03125 C 2.519531 -5.613281 2.453125 -5.160156 2.453125 -4.671875 C 2.453125 -4.160156 2.523438 -3.695312 2.671875 -3.28125 C 2.816406 -2.863281 3.015625 -2.5 3.265625 -2.1875 C 3.523438 -1.882812 3.832031 -1.644531 4.1875 -1.46875 C 4.539062 -1.300781 4.921875 -1.21875 5.328125 -1.21875 Z M 5.328125 -1.21875 "/></g></g></g><g fill="#000000" fill-opacity="1"><g transform="translate(54.023121, 148.436547)"><g><path d="M 9.078125 0 L 1.609375 0 L 1.609375 -12.5625 L 3.328125 -12.5625 L 3.328125 -1.53125 L 9.078125 -1.53125 Z M 9.078125 0 "/></g></g></g><g fill="#000000" fill-opacity="1"><g transform="translate(63.196629, 148.436547)"><g><path d="M 0.8125 -4.609375 C 0.8125 -5.304688 0.914062 -5.957031 1.125 -6.5625 C 1.34375 -7.164062 1.644531 -7.6875 2.03125 -8.125 C 2.425781 -8.570312 2.894531 -8.921875 3.4375 -9.171875 C 3.976562 -9.421875 4.570312 -9.546875 5.21875 -9.546875 C 5.757812 -9.546875 6.25 -9.453125 6.6875 -9.265625 C 7.125 -9.085938 7.503906 -8.859375 7.828125 -8.578125 L 7.828125 -9.328125 L 9.296875 -9.328125 L 9.296875 -2.265625 C 9.296875 -1.804688 9.40625 -1.507812 9.625 -1.375 C 9.851562 -1.238281 10.097656 -1.171875 10.359375 -1.171875 L 10.015625 0.09375 C 8.867188 0.09375 8.175781 -0.375 7.9375 -1.3125 C 7.789062 -1.113281 7.625 -0.921875 7.4375 -0.734375 C 7.25 -0.554688 7.035156 -0.394531 6.796875 -0.25 C 6.554688 -0.101562 6.285156 0.0078125 5.984375 0.09375 C 5.691406 0.175781 5.367188 0.21875 5.015625 0.21875 C 4.421875 0.21875 3.867188 0.101562 3.359375 -0.125 C 2.859375 -0.351562 2.414062 -0.675781 2.03125 -1.09375 C 1.65625 -1.507812 1.359375 -2.015625 1.140625 -2.609375 C 0.921875 -3.203125 0.8125 -3.867188 0.8125 -4.609375 Z M 5.375 -1.21875 C 5.820312 -1.21875 6.25 -1.320312 6.65625 -1.53125 C 7.0625 -1.75 7.40625 -2.035156 7.6875 -2.390625 L 7.6875 -7.390625 C 7.363281 -7.617188 7.003906 -7.800781 6.609375 -7.9375 C 6.222656 -8.082031 5.816406 -8.15625 5.390625 -8.15625 C 4.953125 -8.15625 4.550781 -8.066406 4.1875 -7.890625 C 3.832031 -7.722656 3.523438 -7.488281 3.265625 -7.1875 C 3.015625 -6.882812 2.816406 -6.515625 2.671875 -6.078125 C 2.523438 -5.648438 2.453125 -5.179688 2.453125 -4.671875 C 2.453125 -4.160156 2.523438 -3.691406 2.671875 -3.265625 C 2.816406 -2.847656 3.019531 -2.484375 3.28125 -2.171875 C 3.550781 -1.867188 3.859375 -1.632812 4.203125 -1.46875 C 4.554688 -1.300781 4.945312 -1.21875 5.375 -1.21875 Z M 5.375 -1.21875 "/></g></g></g><g fill="#000000" fill-opacity="1"><g transform="translate(74.273056, 148.436547)"><g><path d="M 12.796875 -9.421875 L 14.234375 -8.90625 L 11.28125 0 L 9.5 0 L 7.34375 -6.953125 L 5.171875 0 L 3.390625 0 L 0.453125 -8.90625 L 1.9375 -9.421875 L 4.34375 -1.828125 L 6.53125 -8.671875 L 8.28125 -8.671875 L 10.40625 -1.828125 Z M 12.796875 -9.421875 "/></g></g></g><g fill="#000000" fill-opacity="1"><g transform="translate(88.957853, 148.436547)"><g><path d="M 3 -7.78125 C 3.332031 -8.28125 3.757812 -8.695312 4.28125 -9.03125 C 4.800781 -9.375 5.421875 -9.546875 6.140625 -9.546875 C 7.191406 -9.546875 7.976562 -9.226562 8.5 -8.59375 C 9.019531 -7.957031 9.28125 -7.125 9.28125 -6.09375 L 9.28125 0 L 7.671875 0 L 7.671875 -5.90625 C 7.671875 -6.59375 7.515625 -7.132812 7.203125 -7.53125 C 6.890625 -7.925781 6.445312 -8.125 5.875 -8.125 C 5.59375 -8.125 5.320312 -8.070312 5.0625 -7.96875 C 4.800781 -7.875 4.546875 -7.734375 4.296875 -7.546875 C 4.054688 -7.367188 3.828125 -7.160156 3.609375 -6.921875 C 3.398438 -6.691406 3.210938 -6.441406 3.046875 -6.171875 L 3.046875 0 L 1.4375 0 L 1.4375 -9.328125 L 3 -9.328125 Z M 3 -7.78125 "/></g></g></g><g fill="#000000" fill-opacity="1"><g transform="translate(99.585484, 148.436547)"><g/></g></g><g fill="#000000" fill-opacity="1"><g transform="translate(104.971109, 148.436547)"><g><path d="M 3 -7.78125 C 3.332031 -8.28125 3.753906 -8.695312 4.265625 -9.03125 C 4.773438 -9.375 5.363281 -9.546875 6.03125 -9.546875 C 6.769531 -9.546875 7.375 -9.367188 7.84375 -9.015625 C 8.3125 -8.660156 8.644531 -8.179688 8.84375 -7.578125 C 9.21875 -8.128906 9.660156 -8.59375 10.171875 -8.96875 C 10.679688 -9.351562 11.3125 -9.546875 12.0625 -9.546875 C 12.5625 -9.546875 13 -9.460938 13.375 -9.296875 C 13.757812 -9.128906 14.078125 -8.890625 14.328125 -8.578125 C 14.578125 -8.273438 14.765625 -7.910156 14.890625 -7.484375 C 15.015625 -7.066406 15.078125 -6.601562 15.078125 -6.09375 L 15.078125 0 L 13.46875 0 L 13.46875 -5.953125 C 13.46875 -6.609375 13.316406 -7.132812 13.015625 -7.53125 C 12.710938 -7.925781 12.300781 -8.125 11.78125 -8.125 C 11.5 -8.125 11.234375 -8.070312 10.984375 -7.96875 C 10.734375 -7.863281 10.492188 -7.71875 10.265625 -7.53125 C 10.035156 -7.34375 9.816406 -7.125 9.609375 -6.875 C 9.410156 -6.632812 9.226562 -6.382812 9.0625 -6.125 L 9.0625 0 L 7.453125 0 L 7.453125 -5.953125 C 7.453125 -6.609375 7.300781 -7.132812 7 -7.53125 C 6.695312 -7.925781 6.285156 -8.125 5.765625 -8.125 C 5.503906 -8.125 5.242188 -8.070312 4.984375 -7.96875 C 4.734375 -7.875 4.488281 -7.734375 4.25 -7.546875 C 4.019531 -7.367188 3.800781 -7.160156 3.59375 -6.921875 C 3.394531 -6.691406 3.210938 -6.441406 3.046875 -6.171875 L 3.046875 0 L 1.4375 0 L 1.4375 -9.328125 L 3 -9.328125 Z M 3 -7.78125 "/></g></g></g><g fill="#000000" fill-opacity="1"><g transform="translate(121.397252, 148.436547)"><g><path d="M 8.359375 -4.671875 C 8.359375 -5.140625 8.285156 -5.582031 8.140625 -6 C 7.992188 -6.414062 7.785156 -6.78125 7.515625 -7.09375 C 7.242188 -7.40625 6.925781 -7.648438 6.5625 -7.828125 C 6.195312 -8.015625 5.800781 -8.109375 5.375 -8.109375 C 4.425781 -8.109375 3.6875 -7.796875 3.15625 -7.171875 C 2.632812 -6.554688 2.375 -5.734375 2.375 -4.703125 C 2.375 -4.234375 2.445312 -3.785156 2.59375 -3.359375 C 2.738281 -2.941406 2.945312 -2.570312 3.21875 -2.25 C 3.488281 -1.9375 3.804688 -1.6875 4.171875 -1.5 C 4.535156 -1.3125 4.9375 -1.21875 5.375 -1.21875 C 5.832031 -1.21875 6.25 -1.300781 6.625 -1.46875 C 7 -1.632812 7.3125 -1.867188 7.5625 -2.171875 C 7.820312 -2.484375 8.019531 -2.847656 8.15625 -3.265625 C 8.289062 -3.679688 8.359375 -4.148438 8.359375 -4.671875 Z M 0.71875 -4.671875 C 0.71875 -5.421875 0.835938 -6.097656 1.078125 -6.703125 C 1.316406 -7.304688 1.640625 -7.816406 2.046875 -8.234375 C 2.460938 -8.660156 2.953125 -8.984375 3.515625 -9.203125 C 4.085938 -9.429688 4.707031 -9.546875 5.375 -9.546875 C 6.019531 -9.546875 6.625 -9.429688 7.1875 -9.203125 C 7.757812 -8.984375 8.253906 -8.660156 8.671875 -8.234375 C 9.085938 -7.816406 9.414062 -7.304688 9.65625 -6.703125 C 9.894531 -6.109375 10.015625 -5.441406 10.015625 -4.703125 C 10.015625 -3.960938 9.894531 -3.289062 9.65625 -2.6875 C 9.425781 -2.082031 9.101562 -1.5625 8.6875 -1.125 C 8.269531 -0.695312 7.773438 -0.363281 7.203125 -0.125 C 6.640625 0.101562 6.03125 0.21875 5.375 0.21875 C 4.695312 0.21875 4.070312 0.0976562 3.5 -0.140625 C 2.9375 -0.378906 2.445312 -0.710938 2.03125 -1.140625 C 1.625 -1.578125 1.300781 -2.09375 1.0625 -2.6875 C 0.832031 -3.289062 0.71875 -3.953125 0.71875 -4.671875 Z M 0.71875 -4.671875 "/></g></g></g><g fill="#000000" fill-opacity="1"><g transform="translate(132.132594, 148.436547)"><g><path d="M 12.796875 -9.421875 L 14.234375 -8.90625 L 11.28125 0 L 9.5 0 L 7.34375 -6.953125 L 5.171875 0 L 3.390625 0 L 0.453125 -8.90625 L 1.9375 -9.421875 L 4.34375 -1.828125 L 6.53125 -8.671875 L 8.28125 -8.671875 L 10.40625 -1.828125 Z M 12.796875 -9.421875 "/></g></g></g><g fill="#000000" fill-opacity="1"><g transform="translate(146.817391, 148.436547)"><g><path d="M 3.046875 0 L 1.4375 0 L 1.4375 -9.328125 L 3.046875 -9.328125 Z M 2.25 -10.9375 C 1.9375 -10.9375 1.664062 -11.046875 1.4375 -11.265625 C 1.21875 -11.484375 1.109375 -11.75 1.109375 -12.0625 C 1.109375 -12.40625 1.207031 -12.679688 1.40625 -12.890625 C 1.613281 -13.097656 1.894531 -13.203125 2.25 -13.203125 C 2.550781 -13.203125 2.8125 -13.085938 3.03125 -12.859375 C 3.257812 -12.640625 3.375 -12.375 3.375 -12.0625 C 3.375 -11.71875 3.269531 -11.441406 3.0625 -11.234375 C 2.863281 -11.035156 2.59375 -10.9375 2.25 -10.9375 Z M 2.25 -10.9375 "/></g></g></g><g fill="#000000" fill-opacity="1"><g transform="translate(151.305411, 148.436547)"><g><path d="M 3 -7.78125 C 3.332031 -8.28125 3.757812 -8.695312 4.28125 -9.03125 C 4.800781 -9.375 5.421875 -9.546875 6.140625 -9.546875 C 7.191406 -9.546875 7.976562 -9.226562 8.5 -8.59375 C 9.019531 -7.957031 9.28125 -7.125 9.28125 -6.09375 L 9.28125 0 L 7.671875 0 L 7.671875 -5.90625 C 7.671875 -6.59375 7.515625 -7.132812 7.203125 -7.53125 C 6.890625 -7.925781 6.445312 -8.125 5.875 -8.125 C 5.59375 -8.125 5.320312 -8.070312 5.0625 -7.96875 C 4.800781 -7.875 4.546875 -7.734375 4.296875 -7.546875 C 4.054688 -7.367188 3.828125 -7.160156 3.609375 -6.921875 C 3.398438 -6.691406 3.210938 -6.441406 3.046875 -6.171875 L 3.046875 0 L 1.4375 0 L 1.4375 -9.328125 L 3 -9.328125 Z M 3 -7.78125 "/></g></g></g><g fill="#000000" fill-opacity="1"><g transform="translate(161.933042, 148.436547)"><g><path d="M 5.140625 -9.546875 C 5.671875 -9.546875 6.148438 -9.457031 6.578125 -9.28125 C 7.003906 -9.101562 7.375 -8.882812 7.6875 -8.625 L 7.6875 -9.328125 L 9.15625 -9.328125 L 9.15625 -0.21875 C 9.15625 0.5625 9.050781 1.226562 8.84375 1.78125 C 8.644531 2.332031 8.359375 2.78125 7.984375 3.125 C 7.609375 3.476562 7.15625 3.738281 6.625 3.90625 C 6.09375 4.082031 5.503906 4.171875 4.859375 4.171875 C 4.296875 4.171875 3.757812 4.101562 3.25 3.96875 C 2.738281 3.832031 2.273438 3.632812 1.859375 3.375 L 2.453125 1.96875 C 2.742188 2.195312 3.082031 2.382812 3.46875 2.53125 C 3.851562 2.6875 4.316406 2.765625 4.859375 2.765625 C 5.710938 2.765625 6.378906 2.539062 6.859375 2.09375 C 7.347656 1.65625 7.59375 0.941406 7.59375 -0.046875 L 7.59375 -1.203125 C 7.351562 -0.910156 7.007812 -0.632812 6.5625 -0.375 C 6.113281 -0.125 5.578125 0 4.953125 0 C 4.429688 0 3.914062 -0.101562 3.40625 -0.3125 C 2.90625 -0.519531 2.460938 -0.820312 2.078125 -1.21875 C 1.703125 -1.625 1.394531 -2.117188 1.15625 -2.703125 C 0.925781 -3.285156 0.8125 -3.953125 0.8125 -4.703125 C 0.8125 -5.398438 0.921875 -6.039062 1.140625 -6.625 C 1.367188 -7.21875 1.675781 -7.726562 2.0625 -8.15625 C 2.457031 -8.59375 2.914062 -8.929688 3.4375 -9.171875 C 3.96875 -9.421875 4.535156 -9.546875 5.140625 -9.546875 Z M 5.3125 -1.4375 C 5.789062 -1.4375 6.222656 -1.539062 6.609375 -1.75 C 6.992188 -1.96875 7.304688 -2.222656 7.546875 -2.515625 L 7.546875 -7.390625 C 7.265625 -7.585938 6.941406 -7.765625 6.578125 -7.921875 C 6.222656 -8.078125 5.796875 -8.15625 5.296875 -8.15625 C 4.921875 -8.15625 4.5625 -8.078125 4.21875 -7.921875 C 3.882812 -7.773438 3.582031 -7.554688 3.3125 -7.265625 C 3.050781 -6.984375 2.84375 -6.632812 2.6875 -6.21875 C 2.53125 -5.800781 2.453125 -5.328125 2.453125 -4.796875 C 2.453125 -4.273438 2.53125 -3.804688 2.6875 -3.390625 C 2.84375 -2.984375 3.050781 -2.632812 3.3125 -2.34375 C 3.582031 -2.050781 3.882812 -1.828125 4.21875 -1.671875 C 4.5625 -1.515625 4.925781 -1.4375 5.3125 -1.4375 Z M 5.3125 -1.4375 "/></g></g></g><g fill="#000000" fill-opacity="1"><g transform="translate(172.435008, 148.436547)"><g><path d="M 0.8125 -11.609375 C 1.289062 -12.203125 1.820312 -12.664062 2.40625 -13 C 2.988281 -13.332031 3.695312 -13.5 4.53125 -13.5 C 5.03125 -13.5 5.484375 -13.421875 5.890625 -13.265625 C 6.304688 -13.109375 6.664062 -12.898438 6.96875 -12.640625 C 7.269531 -12.378906 7.503906 -12.070312 7.671875 -11.71875 C 7.835938 -11.363281 7.921875 -10.984375 7.921875 -10.578125 C 7.921875 -10.054688 7.832031 -9.613281 7.65625 -9.25 C 7.476562 -8.894531 7.257812 -8.578125 7 -8.296875 C 6.738281 -8.015625 6.453125 -7.753906 6.140625 -7.515625 C 5.835938 -7.273438 5.554688 -7.023438 5.296875 -6.765625 C 5.035156 -6.503906 4.816406 -6.210938 4.640625 -5.890625 C 4.460938 -5.566406 4.375 -5.175781 4.375 -4.71875 L 4.375 -3.71875 L 2.984375 -3.71875 C 2.921875 -3.914062 2.875 -4.132812 2.84375 -4.375 C 2.8125 -4.613281 2.796875 -4.835938 2.796875 -5.046875 C 2.796875 -5.546875 2.878906 -5.976562 3.046875 -6.34375 C 3.210938 -6.71875 3.421875 -7.046875 3.671875 -7.328125 C 3.929688 -7.609375 4.203125 -7.863281 4.484375 -8.09375 C 4.773438 -8.320312 5.046875 -8.550781 5.296875 -8.78125 C 5.546875 -9.019531 5.753906 -9.269531 5.921875 -9.53125 C 6.085938 -9.789062 6.171875 -10.097656 6.171875 -10.453125 C 6.171875 -10.867188 6.007812 -11.234375 5.6875 -11.546875 C 5.363281 -11.867188 4.925781 -12.03125 4.375 -12.03125 C 3.875 -12.03125 3.425781 -11.910156 3.03125 -11.671875 C 2.644531 -11.429688 2.289062 -11.101562 1.96875 -10.6875 Z M 2.5625 -0.984375 C 2.5625 -1.359375 2.664062 -1.648438 2.875 -1.859375 C 3.09375 -2.078125 3.390625 -2.1875 3.765625 -2.1875 C 4.078125 -2.1875 4.351562 -2.066406 4.59375 -1.828125 C 4.84375 -1.585938 4.96875 -1.304688 4.96875 -0.984375 C 4.96875 -0.628906 4.851562 -0.335938 4.625 -0.109375 C 4.40625 0.109375 4.117188 0.21875 3.765625 0.21875 C 3.441406 0.21875 3.160156 0.0976562 2.921875 -0.140625 C 2.679688 -0.378906 2.5625 -0.660156 2.5625 -0.984375 Z M 2.5625 -0.984375 "/></g></g></g><g fill="#000000" fill-opacity="1"><g transform="translate(54.023121, 173.120721)"><g><path d="M 6.71875 -6.65625 L 10.9375 -6.65625 L 10.9375 0 L 9.421875 0 L 9.421875 -1.25 C 9.003906 -0.882812 8.492188 -0.546875 7.890625 -0.234375 C 7.296875 0.0664062 6.632812 0.21875 5.90625 0.21875 C 5.175781 0.21875 4.503906 0.078125 3.890625 -0.203125 C 3.285156 -0.492188 2.757812 -0.910156 2.3125 -1.453125 C 1.875 -1.992188 1.523438 -2.644531 1.265625 -3.40625 C 1.015625 -4.164062 0.890625 -5.015625 0.890625 -5.953125 C 0.890625 -6.960938 1.019531 -7.882812 1.28125 -8.71875 C 1.539062 -9.550781 1.914062 -10.269531 2.40625 -10.875 C 2.894531 -11.476562 3.492188 -11.945312 4.203125 -12.28125 C 4.921875 -12.613281 5.734375 -12.78125 6.640625 -12.78125 C 7.429688 -12.78125 8.128906 -12.679688 8.734375 -12.484375 C 9.335938 -12.296875 9.910156 -12.054688 10.453125 -11.765625 L 9.828125 -10.34375 C 9.316406 -10.613281 8.800781 -10.835938 8.28125 -11.015625 C 7.769531 -11.203125 7.191406 -11.296875 6.546875 -11.296875 C 5.984375 -11.296875 5.460938 -11.179688 4.984375 -10.953125 C 4.503906 -10.722656 4.09375 -10.382812 3.75 -9.9375 C 3.40625 -9.5 3.132812 -8.953125 2.9375 -8.296875 C 2.738281 -7.648438 2.640625 -6.90625 2.640625 -6.0625 C 2.640625 -5.3125 2.726562 -4.640625 2.90625 -4.046875 C 3.082031 -3.453125 3.332031 -2.945312 3.65625 -2.53125 C 3.976562 -2.125 4.363281 -1.8125 4.8125 -1.59375 C 5.269531 -1.382812 5.765625 -1.28125 6.296875 -1.28125 C 6.628906 -1.28125 6.945312 -1.316406 7.25 -1.390625 C 7.550781 -1.472656 7.828125 -1.578125 8.078125 -1.703125 C 8.328125 -1.828125 8.554688 -1.960938 8.765625 -2.109375 C 8.972656 -2.253906 9.15625 -2.40625 9.3125 -2.5625 L 9.3125 -5.3125 L 6.71875 -5.3125 Z M 6.71875 -6.65625 "/></g></g></g><g fill="#000000" fill-opacity="1"><g transform="translate(66.122816, 173.120721)"><g><path d="M 2.453125 -4 C 2.566406 -3.125 2.875 -2.441406 3.375 -1.953125 C 3.875 -1.460938 4.539062 -1.21875 5.375 -1.21875 C 5.90625 -1.21875 6.382812 -1.273438 6.8125 -1.390625 C 7.25 -1.503906 7.664062 -1.648438 8.0625 -1.828125 L 8.4375 -0.453125 C 8.007812 -0.242188 7.523438 -0.0820312 6.984375 0.03125 C 6.441406 0.15625 5.835938 0.21875 5.171875 0.21875 C 4.503906 0.21875 3.898438 0.109375 3.359375 -0.109375 C 2.816406 -0.335938 2.359375 -0.65625 1.984375 -1.0625 C 1.609375 -1.476562 1.316406 -1.988281 1.109375 -2.59375 C 0.910156 -3.195312 0.8125 -3.890625 0.8125 -4.671875 C 0.8125 -5.359375 0.910156 -6 1.109375 -6.59375 C 1.316406 -7.195312 1.601562 -7.71875 1.96875 -8.15625 C 2.34375 -8.59375 2.785156 -8.929688 3.296875 -9.171875 C 3.816406 -9.421875 4.394531 -9.546875 5.03125 -9.546875 C 5.695312 -9.546875 6.28125 -9.429688 6.78125 -9.203125 C 7.289062 -8.984375 7.710938 -8.675781 8.046875 -8.28125 C 8.378906 -7.882812 8.628906 -7.421875 8.796875 -6.890625 C 8.960938 -6.367188 9.046875 -5.8125 9.046875 -5.21875 C 9.046875 -4.800781 9.03125 -4.394531 9 -4 Z M 4.984375 -8.15625 C 4.285156 -8.15625 3.707031 -7.914062 3.25 -7.4375 C 2.800781 -6.957031 2.53125 -6.25 2.4375 -5.3125 L 7.5625 -5.3125 C 7.5625 -6.21875 7.332031 -6.914062 6.875 -7.40625 C 6.414062 -7.90625 5.785156 -8.15625 4.984375 -8.15625 Z M 4.984375 -8.15625 "/></g></g></g><g fill="#000000" fill-opacity="1"><g transform="translate(75.88875, 173.120721)"><g><path d="M 2.171875 -11.9375 L 3.40625 -11.9375 L 3.40625 -9 L 6 -9 L 6 -7.59375 L 3.40625 -7.59375 L 3.40625 -3.09375 C 3.40625 -2.738281 3.441406 -2.441406 3.515625 -2.203125 C 3.597656 -1.960938 3.707031 -1.769531 3.84375 -1.625 C 3.976562 -1.488281 4.132812 -1.382812 4.3125 -1.3125 C 4.5 -1.25 4.695312 -1.21875 4.90625 -1.21875 C 5.195312 -1.21875 5.472656 -1.265625 5.734375 -1.359375 C 6.003906 -1.460938 6.257812 -1.578125 6.5 -1.703125 L 6.953125 -0.40625 C 6.710938 -0.269531 6.390625 -0.132812 5.984375 0 C 5.578125 0.144531 5.148438 0.21875 4.703125 0.21875 C 3.804688 0.21875 3.097656 -0.0703125 2.578125 -0.65625 C 2.054688 -1.25 1.796875 -2.101562 1.796875 -3.21875 L 1.796875 -7.59375 L 0.171875 -7.59375 L 0.171875 -9 L 1.828125 -9 Z M 2.171875 -11.9375 "/></g></g></g><g fill="#000000" fill-opacity="1"><g transform="translate(83.015722, 173.120721)"><g/></g></g><g fill="#000000" fill-opacity="1"><g transform="translate(88.401346, 173.120721)"><g><path d="M 3.046875 0 L 1.4375 0 L 1.4375 -9.328125 L 3.046875 -9.328125 Z M 2.25 -10.9375 C 1.9375 -10.9375 1.664062 -11.046875 1.4375 -11.265625 C 1.21875 -11.484375 1.109375 -11.75 1.109375 -12.0625 C 1.109375 -12.40625 1.207031 -12.679688 1.40625 -12.890625 C 1.613281 -13.097656 1.894531 -13.203125 2.25 -13.203125 C 2.550781 -13.203125 2.8125 -13.085938 3.03125 -12.859375 C 3.257812 -12.640625 3.375 -12.375 3.375 -12.0625 C 3.375 -11.71875 3.269531 -11.441406 3.0625 -11.234375 C 2.863281 -11.035156 2.59375 -10.9375 2.25 -10.9375 Z M 2.25 -10.9375 "/></g></g></g><g fill="#000000" fill-opacity="1"><g transform="translate(92.889367, 173.120721)"><g><path d="M 2.171875 -11.9375 L 3.40625 -11.9375 L 3.40625 -9 L 6 -9 L 6 -7.59375 L 3.40625 -7.59375 L 3.40625 -3.09375 C 3.40625 -2.738281 3.441406 -2.441406 3.515625 -2.203125 C 3.597656 -1.960938 3.707031 -1.769531 3.84375 -1.625 C 3.976562 -1.488281 4.132812 -1.382812 4.3125 -1.3125 C 4.5 -1.25 4.695312 -1.21875 4.90625 -1.21875 C 5.195312 -1.21875 5.472656 -1.265625 5.734375 -1.359375 C 6.003906 -1.460938 6.257812 -1.578125 6.5 -1.703125 L 6.953125 -0.40625 C 6.710938 -0.269531 6.390625 -0.132812 5.984375 0 C 5.578125 0.144531 5.148438 0.21875 4.703125 0.21875 C 3.804688 0.21875 3.097656 -0.0703125 2.578125 -0.65625 C 2.054688 -1.25 1.796875 -2.101562 1.796875 -3.21875 L 1.796875 -7.59375 L 0.171875 -7.59375 L 0.171875 -9 L 1.828125 -9 Z M 2.171875 -11.9375 "/></g></g></g><g fill="#000000" fill-opacity="1"><g transform="translate(100.016338, 173.120721)"><g/></g></g><g fill="#000000" fill-opacity="1"><g transform="translate(105.401962, 173.120721)"><g><path d="M 4.96875 0.21875 C 4.394531 0.21875 3.851562 0.101562 3.34375 -0.125 C 2.832031 -0.351562 2.390625 -0.675781 2.015625 -1.09375 C 1.640625 -1.507812 1.34375 -2.015625 1.125 -2.609375 C 0.914062 -3.203125 0.8125 -3.867188 0.8125 -4.609375 C 0.8125 -5.316406 0.921875 -5.972656 1.140625 -6.578125 C 1.359375 -7.179688 1.65625 -7.703125 2.03125 -8.140625 C 2.414062 -8.578125 2.859375 -8.921875 3.359375 -9.171875 C 3.859375 -9.421875 4.390625 -9.546875 4.953125 -9.546875 C 5.578125 -9.546875 6.113281 -9.421875 6.5625 -9.171875 C 7.007812 -8.921875 7.359375 -8.664062 7.609375 -8.40625 L 7.609375 -13.28125 L 9.234375 -13.28125 L 9.234375 -2.265625 C 9.234375 -1.804688 9.34375 -1.507812 9.5625 -1.375 C 9.78125 -1.238281 10.019531 -1.171875 10.28125 -1.171875 L 9.953125 0.09375 C 8.804688 0.09375 8.109375 -0.363281 7.859375 -1.28125 C 7.585938 -0.894531 7.21875 -0.546875 6.75 -0.234375 C 6.28125 0.0664062 5.6875 0.21875 4.96875 0.21875 Z M 5.328125 -1.21875 C 5.773438 -1.21875 6.195312 -1.320312 6.59375 -1.53125 C 7 -1.738281 7.335938 -2.015625 7.609375 -2.359375 L 7.609375 -6.984375 C 7.378906 -7.273438 7.0625 -7.539062 6.65625 -7.78125 C 6.257812 -8.03125 5.8125 -8.15625 5.3125 -8.15625 C 4.882812 -8.15625 4.492188 -8.0625 4.140625 -7.875 C 3.785156 -7.695312 3.484375 -7.453125 3.234375 -7.140625 C 2.984375 -6.828125 2.789062 -6.457031 2.65625 -6.03125 C 2.519531 -5.613281 2.453125 -5.160156 2.453125 -4.671875 C 2.453125 -4.160156 2.523438 -3.695312 2.671875 -3.28125 C 2.816406 -2.863281 3.015625 -2.5 3.265625 -2.1875 C 3.523438 -1.882812 3.832031 -1.644531 4.1875 -1.46875 C 4.539062 -1.300781 4.921875 -1.21875 5.328125 -1.21875 Z M 5.328125 -1.21875 "/></g></g></g><g fill="#000000" fill-opacity="1"><g transform="translate(116.406586, 173.120721)"><g><path d="M 8.359375 -4.671875 C 8.359375 -5.140625 8.285156 -5.582031 8.140625 -6 C 7.992188 -6.414062 7.785156 -6.78125 7.515625 -7.09375 C 7.242188 -7.40625 6.925781 -7.648438 6.5625 -7.828125 C 6.195312 -8.015625 5.800781 -8.109375 5.375 -8.109375 C 4.425781 -8.109375 3.6875 -7.796875 3.15625 -7.171875 C 2.632812 -6.554688 2.375 -5.734375 2.375 -4.703125 C 2.375 -4.234375 2.445312 -3.785156 2.59375 -3.359375 C 2.738281 -2.941406 2.945312 -2.570312 3.21875 -2.25 C 3.488281 -1.9375 3.804688 -1.6875 4.171875 -1.5 C 4.535156 -1.3125 4.9375 -1.21875 5.375 -1.21875 C 5.832031 -1.21875 6.25 -1.300781 6.625 -1.46875 C 7 -1.632812 7.3125 -1.867188 7.5625 -2.171875 C 7.820312 -2.484375 8.019531 -2.847656 8.15625 -3.265625 C 8.289062 -3.679688 8.359375 -4.148438 8.359375 -4.671875 Z M 0.71875 -4.671875 C 0.71875 -5.421875 0.835938 -6.097656 1.078125 -6.703125 C 1.316406 -7.304688 1.640625 -7.816406 2.046875 -8.234375 C 2.460938 -8.660156 2.953125 -8.984375 3.515625 -9.203125 C 4.085938 -9.429688 4.707031 -9.546875 5.375 -9.546875 C 6.019531 -9.546875 6.625 -9.429688 7.1875 -9.203125 C 7.757812 -8.984375 8.253906 -8.660156 8.671875 -8.234375 C 9.085938 -7.816406 9.414062 -7.304688 9.65625 -6.703125 C 9.894531 -6.109375 10.015625 -5.441406 10.015625 -4.703125 C 10.015625 -3.960938 9.894531 -3.289062 9.65625 -2.6875 C 9.425781 -2.082031 9.101562 -1.5625 8.6875 -1.125 C 8.269531 -0.695312 7.773438 -0.363281 7.203125 -0.125 C 6.640625 0.101562 6.03125 0.21875 5.375 0.21875 C 4.695312 0.21875 4.070312 0.0976562 3.5 -0.140625 C 2.9375 -0.378906 2.445312 -0.710938 2.03125 -1.140625 C 1.625 -1.578125 1.300781 -2.09375 1.0625 -2.6875 C 0.832031 -3.289062 0.71875 -3.953125 0.71875 -4.671875 Z M 0.71875 -4.671875 "/></g></g></g><g fill="#000000" fill-opacity="1"><g transform="translate(127.141928, 173.120721)"><g><path d="M 3 -7.78125 C 3.332031 -8.28125 3.757812 -8.695312 4.28125 -9.03125 C 4.800781 -9.375 5.421875 -9.546875 6.140625 -9.546875 C 7.191406 -9.546875 7.976562 -9.226562 8.5 -8.59375 C 9.019531 -7.957031 9.28125 -7.125 9.28125 -6.09375 L 9.28125 0 L 7.671875 0 L 7.671875 -5.90625 C 7.671875 -6.59375 7.515625 -7.132812 7.203125 -7.53125 C 6.890625 -7.925781 6.445312 -8.125 5.875 -8.125 C 5.59375 -8.125 5.320312 -8.070312 5.0625 -7.96875 C 4.800781 -7.875 4.546875 -7.734375 4.296875 -7.546875 C 4.054688 -7.367188 3.828125 -7.160156 3.609375 -6.921875 C 3.398438 -6.691406 3.210938 -6.441406 3.046875 -6.171875 L 3.046875 0 L 1.4375 0 L 1.4375 -9.328125 L 3 -9.328125 Z M 3 -7.78125 "/></g></g></g><g fill="#000000" fill-opacity="1"><g transform="translate(137.769558, 173.120721)"><g><path d="M 2.453125 -4 C 2.566406 -3.125 2.875 -2.441406 3.375 -1.953125 C 3.875 -1.460938 4.539062 -1.21875 5.375 -1.21875 C 5.90625 -1.21875 6.382812 -1.273438 6.8125 -1.390625 C 7.25 -1.503906 7.664062 -1.648438 8.0625 -1.828125 L 8.4375 -0.453125 C 8.007812 -0.242188 7.523438 -0.0820312 6.984375 0.03125 C 6.441406 0.15625 5.835938 0.21875 5.171875 0.21875 C 4.503906 0.21875 3.898438 0.109375 3.359375 -0.109375 C 2.816406 -0.335938 2.359375 -0.65625 1.984375 -1.0625 C 1.609375 -1.476562 1.316406 -1.988281 1.109375 -2.59375 C 0.910156 -3.195312 0.8125 -3.890625 0.8125 -4.671875 C 0.8125 -5.359375 0.910156 -6 1.109375 -6.59375 C 1.316406 -7.195312 1.601562 -7.71875 1.96875 -8.15625 C 2.34375 -8.59375 2.785156 -8.929688 3.296875 -9.171875 C 3.816406 -9.421875 4.394531 -9.546875 5.03125 -9.546875 C 5.695312 -9.546875 6.28125 -9.429688 6.78125 -9.203125 C 7.289062 -8.984375 7.710938 -8.675781 8.046875 -8.28125 C 8.378906 -7.882812 8.628906 -7.421875 8.796875 -6.890625 C 8.960938 -6.367188 9.046875 -5.8125 9.046875 -5.21875 C 9.046875 -4.800781 9.03125 -4.394531 9 -4 Z M 4.984375 -8.15625 C 4.285156 -8.15625 3.707031 -7.914062 3.25 -7.4375 C 2.800781 -6.957031 2.53125 -6.25 2.4375 -5.3125 L 7.5625 -5.3125 C 7.5625 -6.21875 7.332031 -6.914062 6.875 -7.40625 C 6.414062 -7.90625 5.785156 -8.15625 4.984375 -8.15625 Z M 4.984375 -8.15625 "/></g></g></g><g fill="#000000" fill-opacity="1"><g transform="translate(147.535492, 173.120721)"><g/></g></g><g fill="#000000" fill-opacity="1"><g transform="translate(152.921117, 173.120721)"><g><path d="M 12.796875 -9.421875 L 14.234375 -8.90625 L 11.28125 0 L 9.5 0 L 7.34375 -6.953125 L 5.171875 0 L 3.390625 0 L 0.453125 -8.90625 L 1.9375 -9.421875 L 4.34375 -1.828125 L 6.53125 -8.671875 L 8.28125 -8.671875 L 10.40625 -1.828125 Z M 12.796875 -9.421875 "/></g></g></g><g fill="#000000" fill-opacity="1"><g transform="translate(167.605914, 173.120721)"><g><path d="M 3.046875 0 L 1.4375 0 L 1.4375 -9.328125 L 3.046875 -9.328125 Z M 2.25 -10.9375 C 1.9375 -10.9375 1.664062 -11.046875 1.4375 -11.265625 C 1.21875 -11.484375 1.109375 -11.75 1.109375 -12.0625 C 1.109375 -12.40625 1.207031 -12.679688 1.40625 -12.890625 C 1.613281 -13.097656 1.894531 -13.203125 2.25 -13.203125 C 2.550781 -13.203125 2.8125 -13.085938 3.03125 -12.859375 C 3.257812 -12.640625 3.375 -12.375 3.375 -12.0625 C 3.375 -11.71875 3.269531 -11.441406 3.0625 -11.234375 C 2.863281 -11.035156 2.59375 -10.9375 2.25 -10.9375 Z M 2.25 -10.9375 "/></g></g></g><g fill="#000000" fill-opacity="1"><g transform="translate(172.093934, 173.120721)"><g><path d="M 2.171875 -11.9375 L 3.40625 -11.9375 L 3.40625 -9 L 6 -9 L 6 -7.59375 L 3.40625 -7.59375 L 3.40625 -3.09375 C 3.40625 -2.738281 3.441406 -2.441406 3.515625 -2.203125 C 3.597656 -1.960938 3.707031 -1.769531 3.84375 -1.625 C 3.976562 -1.488281 4.132812 -1.382812 4.3125 -1.3125 C 4.5 -1.25 4.695312 -1.21875 4.90625 -1.21875 C 5.195312 -1.21875 5.472656 -1.265625 5.734375 -1.359375 C 6.003906 -1.460938 6.257812 -1.578125 6.5 -1.703125 L 6.953125 -0.40625 C 6.710938 -0.269531 6.390625 -0.132812 5.984375 0 C 5.578125 0.144531 5.148438 0.21875 4.703125 0.21875 C 3.804688 0.21875 3.097656 -0.0703125 2.578125 -0.65625 C 2.054688 -1.25 1.796875 -2.101562 1.796875 -3.21875 L 1.796875 -7.59375 L 0.171875 -7.59375 L 0.171875 -9 L 1.828125 -9 Z M 2.171875 -11.9375 "/></g></g></g><g fill="#000000" fill-opacity="1"><g transform="translate(179.220906, 173.120721)"><g><path d="M 3.046875 -7.84375 C 3.390625 -8.332031 3.8125 -8.738281 4.3125 -9.0625 C 4.820312 -9.382812 5.429688 -9.546875 6.140625 -9.546875 C 7.191406 -9.546875 7.976562 -9.226562 8.5 -8.59375 C 9.019531 -7.957031 9.28125 -7.125 9.28125 -6.09375 L 9.28125 0 L 7.671875 0 L 7.671875 -5.90625 C 7.671875 -6.59375 7.515625 -7.132812 7.203125 -7.53125 C 6.898438 -7.925781 6.460938 -8.125 5.890625 -8.125 C 5.609375 -8.125 5.332031 -8.070312 5.0625 -7.96875 C 4.800781 -7.875 4.550781 -7.734375 4.3125 -7.546875 C 4.070312 -7.367188 3.84375 -7.160156 3.625 -6.921875 C 3.40625 -6.691406 3.210938 -6.441406 3.046875 -6.171875 L 3.046875 0 L 1.4375 0 L 1.4375 -13.28125 L 3.046875 -13.28125 Z M 3.046875 -7.84375 "/></g></g></g><g fill="#000000" fill-opacity="1"><g transform="translate(54.023121, 197.804896)"><g><path d="M 6.71875 -6.65625 L 10.9375 -6.65625 L 10.9375 0 L 9.421875 0 L 9.421875 -1.25 C 9.003906 -0.882812 8.492188 -0.546875 7.890625 -0.234375 C 7.296875 0.0664062 6.632812 0.21875 5.90625 0.21875 C 5.175781 0.21875 4.503906 0.078125 3.890625 -0.203125 C 3.285156 -0.492188 2.757812 -0.910156 2.3125 -1.453125 C 1.875 -1.992188 1.523438 -2.644531 1.265625 -3.40625 C 1.015625 -4.164062 0.890625 -5.015625 0.890625 -5.953125 C 0.890625 -6.960938 1.019531 -7.882812 1.28125 -8.71875 C 1.539062 -9.550781 1.914062 -10.269531 2.40625 -10.875 C 2.894531 -11.476562 3.492188 -11.945312 4.203125 -12.28125 C 4.921875 -12.613281 5.734375 -12.78125 6.640625 -12.78125 C 7.429688 -12.78125 8.128906 -12.679688 8.734375 -12.484375 C 9.335938 -12.296875 9.910156 -12.054688 10.453125 -11.765625 L 9.828125 -10.34375 C 9.316406 -10.613281 8.800781 -10.835938 8.28125 -11.015625 C 7.769531 -11.203125 7.191406 -11.296875 6.546875 -11.296875 C 5.984375 -11.296875 5.460938 -11.179688 4.984375 -10.953125 C 4.503906 -10.722656 4.09375 -10.382812 3.75 -9.9375 C 3.40625 -9.5 3.132812 -8.953125 2.9375 -8.296875 C 2.738281 -7.648438 2.640625 -6.90625 2.640625 -6.0625 C 2.640625 -5.3125 2.726562 -4.640625 2.90625 -4.046875 C 3.082031 -3.453125 3.332031 -2.945312 3.65625 -2.53125 C 3.976562 -2.125 4.363281 -1.8125 4.8125 -1.59375 C 5.269531 -1.382812 5.765625 -1.28125 6.296875 -1.28125 C 6.628906 -1.28125 6.945312 -1.316406 7.25 -1.390625 C 7.550781 -1.472656 7.828125 -1.578125 8.078125 -1.703125 C 8.328125 -1.828125 8.554688 -1.960938 8.765625 -2.109375 C 8.972656 -2.253906 9.15625 -2.40625 9.3125 -2.5625 L 9.3125 -5.3125 L 6.71875 -5.3125 Z M 6.71875 -6.65625 "/></g></g></g><g fill="#000000" fill-opacity="1"><g transform="translate(66.122816, 197.804896)"><g><path d="M 9.78125 0.09375 C 9.207031 0.09375 8.753906 -0.0195312 8.421875 -0.25 C 8.085938 -0.476562 7.851562 -0.804688 7.71875 -1.234375 C 7.300781 -0.804688 6.816406 -0.457031 6.265625 -0.1875 C 5.722656 0.0820312 5.128906 0.21875 4.484375 0.21875 C 4.078125 0.21875 3.6875 0.15625 3.3125 0.03125 C 2.9375 -0.09375 2.597656 -0.289062 2.296875 -0.5625 C 2.003906 -0.84375 1.769531 -1.203125 1.59375 -1.640625 C 1.425781 -2.085938 1.34375 -2.628906 1.34375 -3.265625 L 1.34375 -9.328125 L 2.96875 -9.328125 L 2.96875 -3.484375 C 2.96875 -2.753906 3.117188 -2.191406 3.421875 -1.796875 C 3.722656 -1.410156 4.179688 -1.21875 4.796875 -1.21875 C 5.296875 -1.21875 5.769531 -1.316406 6.21875 -1.515625 C 6.675781 -1.710938 7.085938 -1.976562 7.453125 -2.3125 L 7.453125 -9.328125 L 9.0625 -9.328125 L 9.0625 -2.421875 C 9.0625 -2.160156 9.09375 -1.945312 9.15625 -1.78125 C 9.21875 -1.625 9.296875 -1.5 9.390625 -1.40625 C 9.484375 -1.320312 9.59375 -1.257812 9.71875 -1.21875 C 9.851562 -1.1875 9.988281 -1.171875 10.125 -1.171875 Z M 9.78125 0.09375 "/></g></g></g><g fill="#000000" fill-opacity="1"><g transform="translate(76.965868, 197.804896)"><g><path d="M 3 -7.78125 C 3.332031 -8.28125 3.753906 -8.695312 4.265625 -9.03125 C 4.773438 -9.375 5.363281 -9.546875 6.03125 -9.546875 C 6.769531 -9.546875 7.375 -9.367188 7.84375 -9.015625 C 8.3125 -8.660156 8.644531 -8.179688 8.84375 -7.578125 C 9.21875 -8.128906 9.660156 -8.59375 10.171875 -8.96875 C 10.679688 -9.351562 11.3125 -9.546875 12.0625 -9.546875 C 12.5625 -9.546875 13 -9.460938 13.375 -9.296875 C 13.757812 -9.128906 14.078125 -8.890625 14.328125 -8.578125 C 14.578125 -8.273438 14.765625 -7.910156 14.890625 -7.484375 C 15.015625 -7.066406 15.078125 -6.601562 15.078125 -6.09375 L 15.078125 0 L 13.46875 0 L 13.46875 -5.953125 C 13.46875 -6.609375 13.316406 -7.132812 13.015625 -7.53125 C 12.710938 -7.925781 12.300781 -8.125 11.78125 -8.125 C 11.5 -8.125 11.234375 -8.070312 10.984375 -7.96875 C 10.734375 -7.863281 10.492188 -7.71875 10.265625 -7.53125 C 10.035156 -7.34375 9.816406 -7.125 9.609375 -6.875 C 9.410156 -6.632812 9.226562 -6.382812 9.0625 -6.125 L 9.0625 0 L 7.453125 0 L 7.453125 -5.953125 C 7.453125 -6.609375 7.300781 -7.132812 7 -7.53125 C 6.695312 -7.925781 6.285156 -8.125 5.765625 -8.125 C 5.503906 -8.125 5.242188 -8.070312 4.984375 -7.96875 C 4.734375 -7.875 4.488281 -7.734375 4.25 -7.546875 C 4.019531 -7.367188 3.800781 -7.160156 3.59375 -6.921875 C 3.394531 -6.691406 3.210938 -6.441406 3.046875 -6.171875 L 3.046875 0 L 1.4375 0 L 1.4375 -9.328125 L 3 -9.328125 Z M 3 -7.78125 "/></g></g></g><g fill="#000000" fill-opacity="1"><g transform="translate(93.392012, 197.804896)"><g><path d="M 1.4375 -13.28125 L 3.046875 -13.28125 L 3.046875 -8.359375 C 3.171875 -8.492188 3.320312 -8.632812 3.5 -8.78125 C 3.675781 -8.925781 3.875 -9.050781 4.09375 -9.15625 C 4.320312 -9.269531 4.570312 -9.363281 4.84375 -9.4375 C 5.125 -9.507812 5.425781 -9.546875 5.75 -9.546875 C 6.28125 -9.546875 6.796875 -9.4375 7.296875 -9.21875 C 7.796875 -9.007812 8.234375 -8.703125 8.609375 -8.296875 C 8.984375 -7.890625 9.285156 -7.382812 9.515625 -6.78125 C 9.742188 -6.1875 9.859375 -5.507812 9.859375 -4.75 C 9.859375 -4.007812 9.738281 -3.332031 9.5 -2.71875 C 9.257812 -2.113281 8.941406 -1.59375 8.546875 -1.15625 C 8.148438 -0.71875 7.695312 -0.378906 7.1875 -0.140625 C 6.675781 0.0976562 6.160156 0.21875 5.640625 0.21875 C 5.097656 0.21875 4.585938 0.125 4.109375 -0.0625 C 3.640625 -0.257812 3.25 -0.492188 2.9375 -0.765625 L 2.9375 0 L 1.4375 0 Z M 8.203125 -4.703125 C 8.203125 -5.242188 8.125 -5.722656 7.96875 -6.140625 C 7.820312 -6.566406 7.617188 -6.929688 7.359375 -7.234375 C 7.109375 -7.535156 6.8125 -7.765625 6.46875 -7.921875 C 6.125 -8.078125 5.765625 -8.15625 5.390625 -8.15625 C 4.867188 -8.15625 4.398438 -8.023438 3.984375 -7.765625 C 3.578125 -7.503906 3.265625 -7.226562 3.046875 -6.9375 L 3.046875 -1.9375 C 3.328125 -1.71875 3.648438 -1.539062 4.015625 -1.40625 C 4.390625 -1.28125 4.785156 -1.21875 5.203125 -1.21875 C 5.640625 -1.21875 6.039062 -1.300781 6.40625 -1.46875 C 6.78125 -1.632812 7.097656 -1.867188 7.359375 -2.171875 C 7.617188 -2.484375 7.820312 -2.847656 7.96875 -3.265625 C 8.125 -3.691406 8.203125 -4.171875 8.203125 -4.703125 Z M 8.203125 -4.703125 "/></g></g></g><g fill="#000000" fill-opacity="1"><g transform="translate(104.055539, 197.804896)"><g><path d="M 8.359375 -4.671875 C 8.359375 -5.140625 8.285156 -5.582031 8.140625 -6 C 7.992188 -6.414062 7.785156 -6.78125 7.515625 -7.09375 C 7.242188 -7.40625 6.925781 -7.648438 6.5625 -7.828125 C 6.195312 -8.015625 5.800781 -8.109375 5.375 -8.109375 C 4.425781 -8.109375 3.6875 -7.796875 3.15625 -7.171875 C 2.632812 -6.554688 2.375 -5.734375 2.375 -4.703125 C 2.375 -4.234375 2.445312 -3.785156 2.59375 -3.359375 C 2.738281 -2.941406 2.945312 -2.570312 3.21875 -2.25 C 3.488281 -1.9375 3.804688 -1.6875 4.171875 -1.5 C 4.535156 -1.3125 4.9375 -1.21875 5.375 -1.21875 C 5.832031 -1.21875 6.25 -1.300781 6.625 -1.46875 C 7 -1.632812 7.3125 -1.867188 7.5625 -2.171875 C 7.820312 -2.484375 8.019531 -2.847656 8.15625 -3.265625 C 8.289062 -3.679688 8.359375 -4.148438 8.359375 -4.671875 Z M 0.71875 -4.671875 C 0.71875 -5.421875 0.835938 -6.097656 1.078125 -6.703125 C 1.316406 -7.304688 1.640625 -7.816406 2.046875 -8.234375 C 2.460938 -8.660156 2.953125 -8.984375 3.515625 -9.203125 C 4.085938 -9.429688 4.707031 -9.546875 5.375 -9.546875 C 6.019531 -9.546875 6.625 -9.429688 7.1875 -9.203125 C 7.757812 -8.984375 8.253906 -8.660156 8.671875 -8.234375 C 9.085938 -7.816406 9.414062 -7.304688 9.65625 -6.703125 C 9.894531 -6.109375 10.015625 -5.441406 10.015625 -4.703125 C 10.015625 -3.960938 9.894531 -3.289062 9.65625 -2.6875 C 9.425781 -2.082031 9.101562 -1.5625 8.6875 -1.125 C 8.269531 -0.695312 7.773438 -0.363281 7.203125 -0.125 C 6.640625 0.101562 6.03125 0.21875 5.375 0.21875 C 4.695312 0.21875 4.070312 0.0976562 3.5 -0.140625 C 2.9375 -0.378906 2.445312 -0.710938 2.03125 -1.140625 C 1.625 -1.578125 1.300781 -2.09375 1.0625 -2.6875 C 0.832031 -3.289062 0.71875 -3.953125 0.71875 -4.671875 Z M 0.71875 -4.671875 "/></g></g></g><g fill="#000000" fill-opacity="1"><g transform="translate(114.79088, 197.804896)"><g><path d="M 8.359375 -4.671875 C 8.359375 -5.140625 8.285156 -5.582031 8.140625 -6 C 7.992188 -6.414062 7.785156 -6.78125 7.515625 -7.09375 C 7.242188 -7.40625 6.925781 -7.648438 6.5625 -7.828125 C 6.195312 -8.015625 5.800781 -8.109375 5.375 -8.109375 C 4.425781 -8.109375 3.6875 -7.796875 3.15625 -7.171875 C 2.632812 -6.554688 2.375 -5.734375 2.375 -4.703125 C 2.375 -4.234375 2.445312 -3.785156 2.59375 -3.359375 C 2.738281 -2.941406 2.945312 -2.570312 3.21875 -2.25 C 3.488281 -1.9375 3.804688 -1.6875 4.171875 -1.5 C 4.535156 -1.3125 4.9375 -1.21875 5.375 -1.21875 C 5.832031 -1.21875 6.25 -1.300781 6.625 -1.46875 C 7 -1.632812 7.3125 -1.867188 7.5625 -2.171875 C 7.820312 -2.484375 8.019531 -2.847656 8.15625 -3.265625 C 8.289062 -3.679688 8.359375 -4.148438 8.359375 -4.671875 Z M 0.71875 -4.671875 C 0.71875 -5.421875 0.835938 -6.097656 1.078125 -6.703125 C 1.316406 -7.304688 1.640625 -7.816406 2.046875 -8.234375 C 2.460938 -8.660156 2.953125 -8.984375 3.515625 -9.203125 C 4.085938 -9.429688 4.707031 -9.546875 5.375 -9.546875 C 6.019531 -9.546875 6.625 -9.429688 7.1875 -9.203125 C 7.757812 -8.984375 8.253906 -8.660156 8.671875 -8.234375 C 9.085938 -7.816406 9.414062 -7.304688 9.65625 -6.703125 C 9.894531 -6.109375 10.015625 -5.441406 10.015625 -4.703125 C 10.015625 -3.960938 9.894531 -3.289062 9.65625 -2.6875 C 9.425781 -2.082031 9.101562 -1.5625 8.6875 -1.125 C 8.269531 -0.695312 7.773438 -0.363281 7.203125 -0.125 C 6.640625 0.101562 6.03125 0.21875 5.375 0.21875 C 4.695312 0.21875 4.070312 0.0976562 3.5 -0.140625 C 2.9375 -0.378906 2.445312 -0.710938 2.03125 -1.140625 C 1.625 -1.578125 1.300781 -2.09375 1.0625 -2.6875 C 0.832031 -3.289062 0.71875 -3.953125 0.71875 -4.671875 Z M 0.71875 -4.671875 "/></g></g></g><g fill="#000000" fill-opacity="1"><g transform="translate(125.526222, 197.804896)"><g><path d="M 2.171875 -11.9375 L 3.40625 -11.9375 L 3.40625 -9 L 6 -9 L 6 -7.59375 L 3.40625 -7.59375 L 3.40625 -3.09375 C 3.40625 -2.738281 3.441406 -2.441406 3.515625 -2.203125 C 3.597656 -1.960938 3.707031 -1.769531 3.84375 -1.625 C 3.976562 -1.488281 4.132812 -1.382812 4.3125 -1.3125 C 4.5 -1.25 4.695312 -1.21875 4.90625 -1.21875 C 5.195312 -1.21875 5.472656 -1.265625 5.734375 -1.359375 C 6.003906 -1.460938 6.257812 -1.578125 6.5 -1.703125 L 6.953125 -0.40625 C 6.710938 -0.269531 6.390625 -0.132812 5.984375 0 C 5.578125 0.144531 5.148438 0.21875 4.703125 0.21875 C 3.804688 0.21875 3.097656 -0.0703125 2.578125 -0.65625 C 2.054688 -1.25 1.796875 -2.101562 1.796875 -3.21875 L 1.796875 -7.59375 L 0.171875 -7.59375 L 0.171875 -9 L 1.828125 -9 Z M 2.171875 -11.9375 "/></g></g></g><g fill="#000000" fill-opacity="1"><g transform="translate(132.653193, 197.804896)"><g><path d="M 1.484375 -0.984375 C 1.484375 -1.359375 1.585938 -1.648438 1.796875 -1.859375 C 2.015625 -2.078125 2.3125 -2.1875 2.6875 -2.1875 C 3 -2.1875 3.273438 -2.066406 3.515625 -1.828125 C 3.765625 -1.585938 3.890625 -1.304688 3.890625 -0.984375 C 3.890625 -0.628906 3.773438 -0.335938 3.546875 -0.109375 C 3.328125 0.109375 3.039062 0.21875 2.6875 0.21875 C 2.363281 0.21875 2.082031 0.0976562 1.84375 -0.140625 C 1.601562 -0.378906 1.484375 -0.660156 1.484375 -0.984375 Z M 1.484375 -0.984375 "/></g></g></g></svg>