<svg xmlns="http://www.w3.org/2000/svg" xmlns:xlink="http://www.w3.org/1999/xlink" width="500" zoomAndPan="magnify" viewBox="0 0 375 281.25" height="375" preserveAspectRatio="xMidYMid meet" version="1.0"><defs><g/><clipPath id="e53c15b94c"><path d="M 28.550781 26.179688 L 347 26.179688 L 347 256.027344 L 28.550781 256.027344 Z M 28.550781 26.179688 " clip-rule="nonzero"/></clipPath><clipPath id="b0fdbd50d1"><path d="M 42.011719 26.179688 L 332.988281 26.179688 C 336.558594 26.179688 339.984375 27.597656 342.507812 30.121094 C 345.03125 32.644531 346.449219 36.070312 346.449219 39.640625 L 346.449219 242.5625 C 346.449219 246.132812 345.03125 249.558594 342.507812 252.082031 C 339.984375 254.609375 336.558594 256.027344 332.988281 256.027344 L 42.011719 256.027344 C 38.441406 256.027344 35.015625 254.609375 32.492188 252.082031 C 29.96875 249.558594 28.550781 246.132812 28.550781 242.5625 L 28.550781 39.640625 C 28.550781 32.207031 34.578125 26.179688 42.011719 26.179688 Z M 42.011719 26.179688 " clip-rule="nonzero"/></clipPath><clipPath id="24b42435ed"><path d="M 0.550781 0.179688 L 318.617188 0.179688 L 318.617188 230.027344 L 0.550781 230.027344 Z M 0.550781 0.179688 " clip-rule="nonzero"/></clipPath><clipPath id="c451943607"><path d="M 14.011719 0.179688 L 304.988281 0.179688 C 308.558594 0.179688 311.984375 1.597656 314.507812 4.121094 C 317.03125 6.644531 318.449219 10.070312 318.449219 13.640625 L 318.449219 216.5625 C 318.449219 220.132812 317.03125 223.558594 314.507812 226.082031 C 311.984375 228.609375 308.558594 230.027344 304.988281 230.027344 L 14.011719 230.027344 C 10.441406 230.027344 7.015625 228.609375 4.492188 226.082031 C 1.96875 223.558594 0.550781 220.132812 0.550781 216.5625 L 0.550781 13.640625 C 0.550781 6.207031 6.578125 0.179688 14.011719 0.179688 Z M 14.011719 0.179688 " clip-rule="nonzero"/></clipPath><clipPath id="62df3b7ba9"><rect x="0" width="319" y="0" height="231"/></clipPath><clipPath id="7da83c7075"><path d="M 102.496094 54.171875 L 267.808594 54.171875 L 267.808594 160.390625 L 102.496094 160.390625 Z M 102.496094 54.171875 " clip-rule="nonzero"/></clipPath><clipPath id="b52bfcf082"><path d="M -187.210938 -117.957031 L 268.671875 -117.957031 C 297.816406 -117.957031 321.449219 -94.347656 321.449219 -65.222656 L 321.449219 222.003906 C 321.449219 251.132812 297.816406 274.738281 268.671875 274.738281 L -187.210938 274.738281 C -216.355469 274.738281 -239.984375 251.132812 -239.984375 222.003906 L -239.984375 -65.222656 C -239.984375 -94.347656 -216.355469 -117.957031 -187.210938 -117.957031 " clip-rule="nonzero"/></clipPath><clipPath id="55ee89a3fc"><path d="M 127.847656 69.398438 L 201.980469 69.398438 L 201.980469 153.332031 L 127.847656 153.332031 Z M 127.847656 69.398438 " clip-rule="nonzero"/></clipPath></defs><g clip-path="url(#e53c15b94c)"><g clip-path="url(#b0fdbd50d1)"><g transform="matrix(1, 0, 0, 1, 28, 26)"><g clip-path="url(#62df3b7ba9)"><g clip-path="url(#24b42435ed)"><g clip-path="url(#c451943607)"><path fill="#d3d9dd" d="M 0.550781 0.179688 L 318.386719 0.179688 L 318.386719 230.027344 L 0.550781 230.027344 Z M 0.550781 0.179688 " fill-opacity="1" fill-rule="nonzero"/></g></g></g></g></g></g><g clip-path="url(#7da83c7075)"><g clip-path="url(#b52bfcf082)"><path fill="#d3d9dd" d="M -239.984375 -117.957031 L 321.449219 -117.957031 L 321.449219 274.738281 L -239.984375 274.738281 Z M -239.984375 -117.957031 " fill-opacity="1" fill-rule="nonzero"/></g></g><path fill="#1d97bd" d="M 191.292969 77.226562 C 191.292969 79.046875 190.644531 80.707031 189.554688 81.996094 C 188.890625 82.78125 188.070312 83.417969 187.140625 83.882812 C 186.144531 84.375 185.019531 84.65625 183.824219 84.65625 C 182.679688 84.65625 181.601562 84.398438 180.628906 83.945312 C 179.644531 83.476562 178.785156 82.816406 178.085938 81.996094 C 176.996094 80.707031 176.347656 79.046875 176.347656 77.226562 C 176.347656 75.386719 177.015625 73.707031 178.121094 72.414062 C 179.5 70.808594 181.542969 69.796875 183.824219 69.796875 C 186.109375 69.796875 188.148438 70.808594 189.519531 72.414062 C 190.625 73.707031 191.292969 75.386719 191.292969 77.226562 Z M 191.292969 77.226562 " fill-opacity="1" fill-rule="nonzero"/><path fill="#1d97bd" d="M 212.304688 79.269531 C 211.585938 80.667969 210.042969 81.503906 208.542969 81.816406 C 207.628906 82.003906 206.691406 82.039062 205.761719 82.085938 C 204.730469 82.144531 203.699219 82.207031 202.667969 82.273438 C 200.5625 82.394531 198.460938 82.519531 196.351562 82.59375 C 192.171875 82.753906 187.976562 82.933594 183.792969 82.910156 C 183.671875 82.910156 183.582031 82.851562 183.523438 82.78125 C 181.894531 82.800781 180.261719 82.828125 178.632812 82.835938 C 176.316406 82.847656 174.003906 82.78125 171.683594 82.722656 C 169.609375 82.671875 167.527344 82.617188 165.449219 82.519531 C 163.566406 82.425781 161.621094 82.359375 159.851562 81.652344 C 158.453125 81.089844 157.121094 79.941406 156.78125 78.425781 C 156.449219 76.910156 157.203125 75.421875 158.304688 74.410156 C 161.078125 71.855469 165.449219 72.25 168.929688 72.324219 C 173.160156 72.417969 177.382812 72.628906 181.621094 72.652344 C 182.03125 72.652344 182.078125 73.207031 181.765625 73.34375 L 184.785156 80.183594 L 187.796875 72.984375 C 187.480469 72.863281 187.527344 72.296875 187.9375 72.296875 C 192.683594 72.277344 197.417969 72.507812 202.164062 72.542969 C 205.507812 72.566406 209.78125 71.886719 211.941406 75.101562 C 212.769531 76.335938 212.996094 77.921875 212.304688 79.269531 Z M 183.824219 84.65625 C 182.679688 84.65625 181.601562 84.398438 180.628906 83.945312 L 180.628906 88.871094 L 187.140625 88.871094 L 187.140625 83.882812 C 186.144531 84.375 185.019531 84.65625 183.824219 84.65625 Z M 223.210938 127.4375 C 212.082031 123.34375 202.753906 121.746094 199.210938 119.367188 C 198.21875 118.707031 197.679688 117.980469 197.679688 117.121094 L 197.679688 110.40625 L 171.332031 110.40625 L 171.332031 115.371094 C 171.332031 118.957031 168.402344 121.867188 164.792969 121.867188 L 144.640625 121.867188 L 144.640625 144.296875 L 171.042969 144.296875 C 172.679688 144.296875 174.230469 144.941406 175.460938 146.015625 C 178.507812 148.671875 182.5 150.277344 186.863281 150.277344 C 191.792969 150.277344 196.238281 148.226562 199.390625 144.941406 C 200.902344 143.363281 203.101562 142.636719 205.257812 143.027344 C 210.332031 143.949219 218.363281 147.359375 218.363281 159.765625 L 238.199219 159.765625 C 238.199219 159.765625 237.460938 132.675781 223.210938 127.4375 Z M 195.453125 93.046875 L 170.257812 93.046875 L 170.257812 105.492188 L 198.5 105.492188 L 198.5 93.046875 Z M 195.453125 93.046875 " fill-opacity="1" fill-rule="nonzero"/><g clip-path="url(#55ee89a3fc)"><path fill="#1d97bd" d="M 172.109375 93.046875 C 172.109375 91.570312 172.105469 90.09375 172.097656 88.617188 C 172.097656 88.535156 172.128906 88.472656 172.167969 88.417969 C 172.210938 88.289062 172.316406 88.179688 172.496094 88.179688 C 174.25 88.167969 176.007812 88.117188 177.757812 88.046875 C 183.828125 87.800781 189.886719 87.59375 195.96875 87.640625 C 196.175781 87.640625 196.316406 87.804688 196.332031 88 C 196.457031 89.679688 196.515625 91.363281 196.632812 93.046875 Z M 144.589844 125.480469 C 144.617188 123.644531 144.695312 121.808594 144.816406 119.976562 C 144.824219 119.867188 144.746094 119.714844 144.636719 119.667969 C 142.28125 118.671875 140.503906 116.488281 140.089844 113.964844 C 139.953125 113.152344 140.257812 111.347656 138.988281 111.3125 C 138.671875 111.304688 138.367188 111.429688 138.050781 111.457031 C 137.605469 111.492188 137.152344 111.5 136.707031 111.511719 C 135.871094 111.535156 135.03125 111.546875 134.195312 111.558594 C 132.277344 111.574219 130.367188 111.574219 128.453125 111.675781 C 128.386719 111.679688 128.328125 111.699219 128.28125 111.726562 C 128.125 111.75 127.976562 111.863281 127.976562 112.066406 C 127.976562 118.847656 128.101562 125.621094 128.105469 132.402344 C 128.105469 135.773438 128.171875 139.144531 128.289062 142.523438 C 128.347656 144.210938 128.410156 145.898438 128.464844 147.582031 C 128.492188 148.390625 128.511719 149.199219 128.539062 150.011719 C 128.558594 150.582031 128.605469 151.171875 128.808594 151.703125 C 129.039062 152.308594 129.441406 152.710938 130.035156 152.96875 C 130.855469 153.320312 131.675781 153.261719 132.546875 153.246094 C 134.464844 153.203125 136.378906 153.109375 138.296875 153.097656 C 138.472656 153.097656 138.578125 152.988281 138.640625 152.835938 C 140.023438 149.527344 142.566406 146.816406 145.515625 144.820312 C 145.613281 144.753906 145.714844 144.632812 145.695312 144.507812 C 144.886719 138.179688 144.472656 131.855469 144.589844 125.480469 Z M 201.382812 104.671875 C 201.359375 104.472656 201.238281 104.308594 201.019531 104.308594 C 196.578125 104.285156 192.136719 104.445312 187.695312 104.519531 C 183.25 104.601562 178.789062 104.609375 174.347656 104.859375 C 171.945312 104.996094 169.550781 105.152344 167.140625 105.175781 C 166.964844 104.929688 166.480469 104.988281 166.484375 105.375 C 166.496094 107.121094 166.496094 108.863281 166.507812 110.617188 C 166.507812 110.808594 166.671875 110.972656 166.867188 110.972656 C 171.390625 111.039062 175.925781 111.019531 180.449219 110.960938 C 184.941406 110.902344 189.429688 110.722656 193.929688 110.738281 C 196.484375 110.746094 199.039062 110.769531 201.59375 110.699219 C 201.777344 110.691406 201.980469 110.535156 201.957031 110.335938 C 201.746094 108.449219 201.59375 106.558594 201.382812 104.671875 Z M 190.378906 73.875 C 188.96875 70.984375 185.65625 69.316406 182.488281 69.683594 C 182.433594 69.671875 182.371094 69.667969 182.300781 69.683594 C 182.265625 69.695312 182.222656 69.707031 182.1875 69.71875 C 181.953125 69.761719 181.71875 69.808594 181.484375 69.867188 C 181.367188 69.894531 181.296875 69.964844 181.261719 70.046875 C 178.75 71.089844 176.675781 73.265625 176.160156 75.972656 C 175.589844 78.929688 176.984375 82.148438 179.558594 83.746094 C 181.074219 84.691406 182.933594 85.058594 184.703125 85.054688 C 186.484375 85.042969 188.140625 84.515625 189.289062 83.097656 C 191.371094 80.535156 191.839844 76.851562 190.378906 73.875 Z M 190.378906 73.875 " fill-opacity="1" fill-rule="nonzero"/></g><g fill="#1d97bd" fill-opacity="1"><g transform="translate(232.794283, 233.702926)"><g><path d="M -11.515625 -6.46875 C -11.515625 -7.1875 -11.410156 -7.773438 -11.203125 -8.234375 C -11.003906 -8.691406 -10.765625 -9.097656 -10.484375 -9.453125 C -10.390625 -9.585938 -10.34375 -9.695312 -10.34375 -9.78125 C -10.34375 -9.976562 -10.660156 -10.109375 -11.296875 -10.171875 L -11.296875 -10.546875 C -10.878906 -10.523438 -10.375 -10.507812 -9.78125 -10.5 C -9.195312 -10.488281 -8.414062 -10.484375 -7.4375 -10.484375 L -7.4375 -10.109375 C -8.070312 -10.035156 -8.625 -9.921875 -9.09375 -9.765625 C -9.570312 -9.617188 -9.984375 -9.335938 -10.328125 -8.921875 C -10.566406 -8.660156 -10.753906 -8.34375 -10.890625 -7.96875 C -11.035156 -7.59375 -11.109375 -7.210938 -11.109375 -6.828125 C -11.109375 -6.242188 -10.953125 -5.742188 -10.640625 -5.328125 C -10.335938 -4.910156 -9.925781 -4.566406 -9.40625 -4.296875 C -8.882812 -4.035156 -8.296875 -3.84375 -7.640625 -3.71875 C -6.992188 -3.59375 -6.316406 -3.53125 -5.609375 -3.53125 C -3.703125 -3.53125 -2.304688 -3.789062 -1.421875 -4.3125 C -0.535156 -4.84375 -0.09375 -5.601562 -0.09375 -6.59375 C -0.09375 -6.84375 -0.125 -7.0625 -0.1875 -7.25 C -0.25 -7.445312 -0.328125 -7.601562 -0.421875 -7.71875 C -0.523438 -7.863281 -0.632812 -7.960938 -0.75 -8.015625 C -0.875 -8.078125 -1.039062 -8.109375 -1.25 -8.109375 L -2.8125 -8.109375 C -3.300781 -8.109375 -3.664062 -8.066406 -3.90625 -7.984375 C -4.144531 -7.898438 -4.304688 -7.738281 -4.390625 -7.5 C -4.472656 -7.269531 -4.519531 -6.9375 -4.53125 -6.5 L -4.84375 -6.5 C -4.832031 -6.71875 -4.820312 -6.984375 -4.8125 -7.296875 C -4.8125 -7.609375 -4.804688 -7.9375 -4.796875 -8.28125 C -4.796875 -8.625 -4.796875 -8.9375 -4.796875 -9.21875 C -4.796875 -9.664062 -4.800781 -10.070312 -4.8125 -10.4375 C -4.820312 -10.8125 -4.832031 -11.117188 -4.84375 -11.359375 L -4.53125 -11.359375 C -4.519531 -11.160156 -4.484375 -11.007812 -4.421875 -10.90625 C -4.359375 -10.800781 -4.226562 -10.726562 -4.03125 -10.6875 C -3.84375 -10.65625 -3.550781 -10.640625 -3.15625 -10.640625 L 0 -10.640625 L 0 -10.328125 C -0.175781 -10.316406 -0.367188 -10.273438 -0.578125 -10.203125 C -0.796875 -10.128906 -0.90625 -10.015625 -0.90625 -9.859375 C -0.90625 -9.785156 -0.882812 -9.6875 -0.84375 -9.5625 C -0.8125 -9.4375 -0.722656 -9.25 -0.578125 -9 C -0.347656 -8.601562 -0.15625 -8.1875 0 -7.75 C 0.144531 -7.3125 0.21875 -6.851562 0.21875 -6.375 C 0.21875 -5.144531 -0.0078125 -4.101562 -0.46875 -3.25 C -0.925781 -2.40625 -1.582031 -1.765625 -2.4375 -1.328125 C -3.289062 -0.898438 -4.316406 -0.6875 -5.515625 -0.6875 C -6.734375 -0.6875 -7.785156 -0.929688 -8.671875 -1.421875 C -9.566406 -1.921875 -10.265625 -2.601562 -10.765625 -3.46875 C -11.265625 -4.332031 -11.515625 -5.332031 -11.515625 -6.46875 Z M -11.515625 -6.46875 "/></g></g></g><g fill="#1d97bd" fill-opacity="1"><g transform="translate(232.794283, 221.977016)"><g><path d="M -8.421875 -8.328125 L -1.734375 -8.328125 C -1.253906 -8.328125 -0.898438 -8.398438 -0.671875 -8.546875 C -0.441406 -8.703125 -0.328125 -8.96875 -0.328125 -9.34375 L 0 -9.34375 C -0.03125 -9.019531 -0.046875 -8.691406 -0.046875 -8.359375 C -0.046875 -7.910156 -0.03125 -7.492188 0 -7.109375 C 0.03125 -6.734375 0.0859375 -6.375 0.171875 -6.03125 L -1.265625 -6.03125 C -0.734375 -5.769531 -0.351562 -5.414062 -0.125 -4.96875 C 0.101562 -4.519531 0.21875 -4.019531 0.21875 -3.46875 C 0.21875 -3.019531 0.160156 -2.65625 0.046875 -2.375 C -0.0664062 -2.101562 -0.21875 -1.882812 -0.40625 -1.71875 C -0.601562 -1.539062 -0.863281 -1.414062 -1.1875 -1.34375 C -1.519531 -1.269531 -1.945312 -1.234375 -2.46875 -1.234375 L -6.515625 -1.234375 C -6.992188 -1.234375 -7.34375 -1.160156 -7.5625 -1.015625 C -7.789062 -0.867188 -7.90625 -0.597656 -7.90625 -0.203125 L -8.25 -0.203125 C -8.21875 -0.546875 -8.203125 -0.878906 -8.203125 -1.203125 C -8.203125 -1.640625 -8.21875 -2.050781 -8.25 -2.4375 C -8.289062 -2.832031 -8.347656 -3.195312 -8.421875 -3.53125 L -1.8125 -3.53125 C -1.550781 -3.53125 -1.316406 -3.550781 -1.109375 -3.59375 C -0.910156 -3.644531 -0.753906 -3.738281 -0.640625 -3.875 C -0.535156 -4.007812 -0.484375 -4.210938 -0.484375 -4.484375 C -0.484375 -4.765625 -0.5625 -5.019531 -0.71875 -5.25 C -0.875 -5.476562 -1.09375 -5.664062 -1.375 -5.8125 C -1.65625 -5.957031 -1.972656 -6.03125 -2.328125 -6.03125 L -6.515625 -6.03125 C -6.992188 -6.03125 -7.34375 -5.957031 -7.5625 -5.8125 C -7.789062 -5.664062 -7.90625 -5.398438 -7.90625 -5.015625 L -8.25 -5.015625 C -8.21875 -5.347656 -8.203125 -5.675781 -8.203125 -6 C -8.203125 -6.445312 -8.21875 -6.863281 -8.25 -7.25 C -8.289062 -7.632812 -8.347656 -7.992188 -8.421875 -8.328125 Z M -8.421875 -8.328125 "/></g></g></g><g fill="#1d97bd" fill-opacity="1"><g transform="translate(232.794283, 212.309125)"><g><path d="M -8.46875 -6.171875 C -8.46875 -6.617188 -8.410156 -6.976562 -8.296875 -7.25 C -8.191406 -7.53125 -8.039062 -7.753906 -7.84375 -7.921875 C -7.644531 -8.097656 -7.382812 -8.222656 -7.0625 -8.296875 C -6.738281 -8.367188 -6.3125 -8.40625 -5.78125 -8.40625 L -1.484375 -8.40625 C -1.035156 -8.40625 -0.726562 -8.472656 -0.5625 -8.609375 C -0.40625 -8.753906 -0.328125 -8.992188 -0.328125 -9.328125 L 0 -9.328125 C -0.0078125 -9.140625 -0.0195312 -8.847656 -0.03125 -8.453125 C -0.0507812 -8.066406 -0.0625 -7.691406 -0.0625 -7.328125 C -0.0625 -6.941406 -0.0507812 -6.5625 -0.03125 -6.1875 C -0.0195312 -5.8125 -0.0078125 -5.53125 0 -5.34375 L -0.328125 -5.34375 C -0.328125 -5.632812 -0.40625 -5.832031 -0.5625 -5.9375 C -0.726562 -6.050781 -1.035156 -6.109375 -1.484375 -6.109375 L -6.4375 -6.109375 C -6.707031 -6.109375 -6.941406 -6.085938 -7.140625 -6.046875 C -7.335938 -6.003906 -7.488281 -5.921875 -7.59375 -5.796875 C -7.707031 -5.671875 -7.765625 -5.488281 -7.765625 -5.25 C -7.765625 -4.96875 -7.6875 -4.707031 -7.53125 -4.46875 C -7.375 -4.238281 -7.148438 -4.050781 -6.859375 -3.90625 C -6.578125 -3.769531 -6.265625 -3.703125 -5.921875 -3.703125 L -1.484375 -3.703125 C -1.035156 -3.703125 -0.726562 -3.757812 -0.5625 -3.875 C -0.40625 -3.988281 -0.328125 -4.1875 -0.328125 -4.46875 L 0 -4.46875 C -0.0078125 -4.300781 -0.0195312 -4.035156 -0.03125 -3.671875 C -0.0507812 -3.316406 -0.0625 -2.953125 -0.0625 -2.578125 C -0.0625 -2.179688 -0.0507812 -1.769531 -0.03125 -1.34375 C -0.0195312 -0.914062 -0.0078125 -0.597656 0 -0.390625 L -0.328125 -0.390625 C -0.328125 -0.753906 -0.40625 -1.015625 -0.5625 -1.171875 C -0.726562 -1.328125 -1.035156 -1.40625 -1.484375 -1.40625 L -6.515625 -1.40625 C -6.992188 -1.40625 -7.34375 -1.332031 -7.5625 -1.1875 C -7.789062 -1.039062 -7.90625 -0.773438 -7.90625 -0.390625 L -8.25 -0.390625 C -8.21875 -0.722656 -8.203125 -1.050781 -8.203125 -1.375 C -8.203125 -1.820312 -8.21875 -2.238281 -8.25 -2.625 C -8.289062 -3.007812 -8.347656 -3.367188 -8.421875 -3.703125 L -6.984375 -3.703125 C -7.515625 -3.953125 -7.894531 -4.296875 -8.125 -4.734375 C -8.351562 -5.171875 -8.46875 -5.648438 -8.46875 -6.171875 Z M -8.46875 -10.96875 C -8.46875 -11.414062 -8.410156 -11.773438 -8.296875 -12.046875 C -8.191406 -12.328125 -8.039062 -12.554688 -7.84375 -12.734375 C -7.644531 -12.898438 -7.382812 -13.019531 -7.0625 -13.09375 C -6.738281 -13.164062 -6.3125 -13.203125 -5.78125 -13.203125 L -1.484375 -13.203125 C -1.035156 -13.203125 -0.726562 -13.28125 -0.5625 -13.4375 C -0.40625 -13.59375 -0.328125 -13.859375 -0.328125 -14.234375 L 0 -14.234375 C -0.0078125 -14.023438 -0.0195312 -13.71875 -0.03125 -13.3125 C -0.0507812 -12.914062 -0.0625 -12.519531 -0.0625 -12.125 C -0.0625 -11.738281 -0.0507812 -11.359375 -0.03125 -10.984375 C -0.0195312 -10.617188 -0.0078125 -10.335938 0 -10.140625 L -0.328125 -10.140625 C -0.328125 -10.429688 -0.40625 -10.628906 -0.5625 -10.734375 C -0.726562 -10.847656 -1.035156 -10.90625 -1.484375 -10.90625 L -6.4375 -10.90625 C -6.707031 -10.90625 -6.941406 -10.878906 -7.140625 -10.828125 C -7.335938 -10.785156 -7.488281 -10.695312 -7.59375 -10.5625 C -7.707031 -10.4375 -7.765625 -10.234375 -7.765625 -9.953125 C -7.765625 -9.679688 -7.679688 -9.425781 -7.515625 -9.1875 C -7.347656 -8.957031 -7.117188 -8.769531 -6.828125 -8.625 C -6.535156 -8.476562 -6.21875 -8.398438 -5.875 -8.390625 L -6.84375 -8.3125 C -7.476562 -8.601562 -7.90625 -8.984375 -8.125 -9.453125 C -8.351562 -9.921875 -8.46875 -10.425781 -8.46875 -10.96875 Z M -8.46875 -10.96875 "/></g></g></g><g fill="#1d97bd" fill-opacity="1"><g transform="translate(232.794283, 197.871103)"><g><path d="M -8.46875 -5.859375 C -8.46875 -6.679688 -8.128906 -7.367188 -7.453125 -7.921875 C -6.773438 -8.472656 -5.738281 -8.75 -4.34375 -8.75 C -3.238281 -8.75 -2.347656 -8.578125 -1.671875 -8.234375 C -1.003906 -7.898438 -0.519531 -7.457031 -0.21875 -6.90625 C 0.0703125 -6.351562 0.21875 -5.75 0.21875 -5.09375 C 0.21875 -4.65625 0.144531 -4.25 0 -3.875 C -0.144531 -3.5 -0.390625 -3.179688 -0.734375 -2.921875 L -0.8125 -3.140625 C -0.582031 -3.335938 -0.40625 -3.566406 -0.28125 -3.828125 C -0.164062 -4.085938 -0.109375 -4.34375 -0.109375 -4.59375 C -0.109375 -5.175781 -0.4375 -5.609375 -1.09375 -5.890625 C -1.757812 -6.179688 -2.765625 -6.328125 -4.109375 -6.328125 C -5.023438 -6.328125 -5.75 -6.269531 -6.28125 -6.15625 C -6.820312 -6.050781 -7.207031 -5.890625 -7.4375 -5.671875 C -7.664062 -5.460938 -7.78125 -5.207031 -7.78125 -4.90625 C -7.78125 -4.539062 -7.628906 -4.203125 -7.328125 -3.890625 C -7.023438 -3.585938 -6.601562 -3.410156 -6.0625 -3.359375 L -6.625 -3.28125 C -7.226562 -3.476562 -7.6875 -3.804688 -8 -4.265625 C -8.3125 -4.722656 -8.46875 -5.253906 -8.46875 -5.859375 Z M -12.46875 -3.40625 L -0.3125 -3.40625 C -0.363281 -3.144531 -0.363281 -2.875 -0.3125 -2.59375 C -0.269531 -2.320312 -0.195312 -2.066406 -0.09375 -1.828125 C 0 -1.597656 0.113281 -1.40625 0.25 -1.25 L 0.109375 -1 C -0.0351562 -1.039062 -0.179688 -1.066406 -0.328125 -1.078125 C -0.484375 -1.097656 -0.632812 -1.109375 -0.78125 -1.109375 L -10.5625 -1.109375 C -11.039062 -1.109375 -11.394531 -1.035156 -11.625 -0.890625 C -11.851562 -0.753906 -11.96875 -0.488281 -11.96875 -0.09375 L -12.296875 -0.09375 C -12.265625 -0.4375 -12.25 -0.765625 -12.25 -1.078125 C -12.25 -1.515625 -12.265625 -1.929688 -12.296875 -2.328125 C -12.335938 -2.722656 -12.394531 -3.082031 -12.46875 -3.40625 Z M -12.46875 -3.40625 "/></g></g></g><g fill="#1d97bd" fill-opacity="1"><g transform="translate(232.794283, 188.522281)"><g><path d="M -8.46875 -4.5 C -8.46875 -5.269531 -8.320312 -5.945312 -8.03125 -6.53125 C -7.75 -7.125 -7.285156 -7.582031 -6.640625 -7.90625 C -6.003906 -8.238281 -5.160156 -8.40625 -4.109375 -8.40625 C -3.054688 -8.40625 -2.210938 -8.238281 -1.578125 -7.90625 C -0.953125 -7.582031 -0.492188 -7.125 -0.203125 -6.53125 C 0.078125 -5.945312 0.21875 -5.269531 0.21875 -4.5 C 0.21875 -3.738281 0.078125 -3.0625 -0.203125 -2.46875 C -0.492188 -1.882812 -0.953125 -1.425781 -1.578125 -1.09375 C -2.210938 -0.757812 -3.054688 -0.59375 -4.109375 -0.59375 C -5.160156 -0.59375 -6.003906 -0.757812 -6.640625 -1.09375 C -7.285156 -1.425781 -7.75 -1.882812 -8.03125 -2.46875 C -8.320312 -3.0625 -8.46875 -3.738281 -8.46875 -4.5 Z M -8.15625 -4.5 C -8.15625 -4.070312 -7.835938 -3.710938 -7.203125 -3.421875 C -6.566406 -3.140625 -5.535156 -3 -4.109375 -3 C -2.691406 -3 -1.664062 -3.140625 -1.03125 -3.421875 C -0.40625 -3.710938 -0.09375 -4.070312 -0.09375 -4.5 C -0.09375 -4.9375 -0.40625 -5.296875 -1.03125 -5.578125 C -1.664062 -5.859375 -2.691406 -6 -4.109375 -6 C -5.535156 -6 -6.566406 -5.859375 -7.203125 -5.578125 C -7.835938 -5.296875 -8.15625 -4.9375 -8.15625 -4.5 Z M -8.15625 -4.5 "/></g></g></g><g fill="#1d97bd" fill-opacity="1"><g transform="translate(232.794283, 179.508484)"><g><path d="M -8.46875 -4.5 C -8.46875 -5.269531 -8.320312 -5.945312 -8.03125 -6.53125 C -7.75 -7.125 -7.285156 -7.582031 -6.640625 -7.90625 C -6.003906 -8.238281 -5.160156 -8.40625 -4.109375 -8.40625 C -3.054688 -8.40625 -2.210938 -8.238281 -1.578125 -7.90625 C -0.953125 -7.582031 -0.492188 -7.125 -0.203125 -6.53125 C 0.078125 -5.945312 0.21875 -5.269531 0.21875 -4.5 C 0.21875 -3.738281 0.078125 -3.0625 -0.203125 -2.46875 C -0.492188 -1.882812 -0.953125 -1.425781 -1.578125 -1.09375 C -2.210938 -0.757812 -3.054688 -0.59375 -4.109375 -0.59375 C -5.160156 -0.59375 -6.003906 -0.757812 -6.640625 -1.09375 C -7.285156 -1.425781 -7.75 -1.882812 -8.03125 -2.46875 C -8.320312 -3.0625 -8.46875 -3.738281 -8.46875 -4.5 Z M -8.15625 -4.5 C -8.15625 -4.070312 -7.835938 -3.710938 -7.203125 -3.421875 C -6.566406 -3.140625 -5.535156 -3 -4.109375 -3 C -2.691406 -3 -1.664062 -3.140625 -1.03125 -3.421875 C -0.40625 -3.710938 -0.09375 -4.070312 -0.09375 -4.5 C -0.09375 -4.9375 -0.40625 -5.296875 -1.03125 -5.578125 C -1.664062 -5.859375 -2.691406 -6 -4.109375 -6 C -5.535156 -6 -6.566406 -5.859375 -7.203125 -5.578125 C -7.835938 -5.296875 -8.15625 -4.9375 -8.15625 -4.5 Z M -8.15625 -4.5 "/></g></g></g><g fill="#1d97bd" fill-opacity="1"><g transform="translate(232.794283, 170.494687)"><g><path d="M -10.859375 -3.625 L -8.25 -3.625 L -8.25 -5.5 L -7.921875 -5.5 L -7.921875 -3.625 L -1.484375 -3.625 C -1.160156 -3.625 -0.929688 -3.679688 -0.796875 -3.796875 C -0.671875 -3.910156 -0.609375 -4.085938 -0.609375 -4.328125 C -0.609375 -4.515625 -0.675781 -4.703125 -0.8125 -4.890625 C -0.957031 -5.085938 -1.207031 -5.257812 -1.5625 -5.40625 L -1.421875 -5.671875 C -0.941406 -5.503906 -0.546875 -5.25 -0.234375 -4.90625 C 0.0664062 -4.5625 0.21875 -4.09375 0.21875 -3.5 C 0.21875 -3.144531 0.171875 -2.832031 0.078125 -2.5625 C -0.00390625 -2.300781 -0.132812 -2.078125 -0.3125 -1.890625 C -0.550781 -1.660156 -0.84375 -1.507812 -1.1875 -1.4375 C -1.53125 -1.363281 -1.976562 -1.328125 -2.53125 -1.328125 L -7.921875 -1.328125 L -7.921875 0.015625 L -8.25 0.015625 L -8.25 -1.328125 L -10.359375 -1.328125 C -10.359375 -1.773438 -10.394531 -2.1875 -10.46875 -2.5625 C -10.550781 -2.9375 -10.679688 -3.289062 -10.859375 -3.625 Z M -10.859375 -3.625 "/></g></g></g></svg>