<svg xmlns="http://www.w3.org/2000/svg" xmlns:xlink="http://www.w3.org/1999/xlink" width="500" zoomAndPan="magnify" viewBox="0 0 375 281.25" height="375" preserveAspectRatio="xMidYMid meet" version="1.0"><defs><g/><clipPath id="6bcac4b908"><path d="M 28.550781 26.179688 L 347 26.179688 L 347 256.027344 L 28.550781 256.027344 Z M 28.550781 26.179688 " clip-rule="nonzero"/></clipPath><clipPath id="8f47a24b71"><path d="M 42.011719 26.179688 L 332.988281 26.179688 C 336.558594 26.179688 339.984375 27.597656 342.507812 30.121094 C 345.03125 32.644531 346.449219 36.070312 346.449219 39.640625 L 346.449219 242.5625 C 346.449219 246.132812 345.03125 249.558594 342.507812 252.082031 C 339.984375 254.609375 336.558594 256.027344 332.988281 256.027344 L 42.011719 256.027344 C 38.441406 256.027344 35.015625 254.609375 32.492188 252.082031 C 29.96875 249.558594 28.550781 246.132812 28.550781 242.5625 L 28.550781 39.640625 C 28.550781 32.207031 34.578125 26.179688 42.011719 26.179688 Z M 42.011719 26.179688 " clip-rule="nonzero"/></clipPath><clipPath id="c084aa00a1"><path d="M 0.550781 0.179688 L 318.617188 0.179688 L 318.617188 230.027344 L 0.550781 230.027344 Z M 0.550781 0.179688 " clip-rule="nonzero"/></clipPath><clipPath id="8baf57b146"><path d="M 14.011719 0.179688 L 304.988281 0.179688 C 308.558594 0.179688 311.984375 1.597656 314.507812 4.121094 C 317.03125 6.644531 318.449219 10.070312 318.449219 13.640625 L 318.449219 216.5625 C 318.449219 220.132812 317.03125 223.558594 314.507812 226.082031 C 311.984375 228.609375 308.558594 230.027344 304.988281 230.027344 L 14.011719 230.027344 C 10.441406 230.027344 7.015625 228.609375 4.492188 226.082031 C 1.96875 223.558594 0.550781 220.132812 0.550781 216.5625 L 0.550781 13.640625 C 0.550781 6.207031 6.578125 0.179688 14.011719 0.179688 Z M 14.011719 0.179688 " clip-rule="nonzero"/></clipPath><clipPath id="8b3d2b7a02"><rect x="0" width="319" y="0" height="231"/></clipPath><clipPath id="2aa1943319"><rect x="0" width="131" y="0" height="36"/></clipPath><clipPath id="16c78b76b7"><path d="M 232.4375 146.898438 L 337.160156 146.898438 L 337.160156 253.113281 L 232.4375 253.113281 Z M 232.4375 146.898438 " clip-rule="nonzero"/></clipPath><clipPath id="d89ce4951c"><path d="M 53.175781 40.582031 L 334.464844 40.582031 C 352.445312 40.582031 367.027344 55.171875 367.027344 73.164062 L 367.027344 250.632812 C 367.027344 268.628906 352.445312 283.214844 334.464844 283.214844 L 53.175781 283.214844 C 35.191406 283.214844 20.613281 268.628906 20.613281 250.632812 L 20.613281 73.164062 C 20.613281 55.171875 35.191406 40.582031 53.175781 40.582031 " clip-rule="nonzero"/></clipPath><clipPath id="951bd6d4bd"><path d="M 247.574219 156.34375 L 293.3125 156.34375 L 293.3125 208.203125 L 247.574219 208.203125 Z M 247.574219 156.34375 " clip-rule="nonzero"/></clipPath><clipPath id="64030fb2fa"><path d="M 297.015625 213 L 320.316406 213 L 320.316406 248.492188 L 297.015625 248.492188 Z M 297.015625 213 " clip-rule="nonzero"/></clipPath></defs><g clip-path="url(#6bcac4b908)"><g clip-path="url(#8f47a24b71)"><g transform="matrix(1, 0, 0, 1, 28, 26)"><g clip-path="url(#8b3d2b7a02)"><g clip-path="url(#c084aa00a1)"><g clip-path="url(#8baf57b146)"><path fill="#d3d9dd" d="M 0.550781 0.179688 L 318.386719 0.179688 L 318.386719 230.027344 L 0.550781 230.027344 Z M 0.550781 0.179688 " fill-opacity="1" fill-rule="nonzero"/></g></g></g></g></g></g><g transform="matrix(1, 0, 0, 1, 127, 59)"><g clip-path="url(#2aa1943319)"><g fill="#000000" fill-opacity="1"><g transform="translate(0.480369, 24.646627)"><g><path d="M 8.546875 -12.953125 C 9.847656 -12.953125 10.894531 -13.25 11.6875 -13.84375 C 12.476562 -14.445312 12.875 -15.441406 12.875 -16.828125 C 12.875 -18.328125 12.5 -19.359375 11.75 -19.921875 C 11 -20.492188 9.929688 -20.78125 8.546875 -20.78125 L 6.140625 -20.78125 L 6.140625 -12.953125 Z M 2.71875 0 L 2.71875 -23.515625 L 8.390625 -23.515625 C 9.546875 -23.515625 10.628906 -23.414062 11.640625 -23.21875 C 12.648438 -23.03125 13.523438 -22.691406 14.265625 -22.203125 C 15.003906 -21.710938 15.582031 -21.035156 16 -20.171875 C 16.414062 -19.304688 16.625 -18.191406 16.625 -16.828125 C 16.625 -15.691406 16.429688 -14.707031 16.046875 -13.875 C 15.660156 -13.050781 15.128906 -12.363281 14.453125 -11.8125 C 13.785156 -11.269531 13 -10.867188 12.09375 -10.609375 C 11.1875 -10.347656 10.210938 -10.21875 9.171875 -10.21875 L 6.140625 -10.21875 L 6.140625 0 Z M 2.71875 0 "/></g></g></g><g fill="#000000" fill-opacity="1"><g transform="translate(17.517206, 24.646627)"><g><path d="M 2.859375 0 L 2.859375 -23.515625 L 5.921875 -23.515625 L 5.921875 0 Z M 2.859375 0 "/></g></g></g><g fill="#000000" fill-opacity="1"><g transform="translate(26.342295, 24.646627)"><g><path d="M 11.921875 0 L 11.921875 -3.46875 L 11.859375 -3.46875 C 11.453125 -2.3125 10.816406 -1.378906 9.953125 -0.671875 C 9.085938 0.0234375 8.007812 0.375 6.71875 0.375 C 5.894531 0.375 5.203125 0.226562 4.640625 -0.0625 C 4.085938 -0.363281 3.640625 -0.753906 3.296875 -1.234375 C 2.960938 -1.722656 2.71875 -2.289062 2.5625 -2.9375 C 2.414062 -3.59375 2.34375 -4.269531 2.34375 -4.96875 L 2.34375 -16.21875 L 5.421875 -16.21875 L 5.421875 -7.359375 C 5.421875 -7.015625 5.421875 -6.675781 5.421875 -6.34375 C 5.421875 -6.019531 5.429688 -5.6875 5.453125 -5.34375 C 5.492188 -4.570312 5.648438 -3.9375 5.921875 -3.4375 C 6.203125 -2.9375 6.773438 -2.6875 7.640625 -2.6875 C 8.390625 -2.6875 9.035156 -2.921875 9.578125 -3.390625 C 10.117188 -3.859375 10.5625 -4.429688 10.90625 -5.109375 C 11.25 -5.796875 11.503906 -6.523438 11.671875 -7.296875 C 11.835938 -8.066406 11.921875 -8.75 11.921875 -9.34375 L 11.921875 -16.21875 L 15 -16.21875 L 15 0 Z M 11.921875 0 "/></g></g></g><g fill="#000000" fill-opacity="1"><g transform="translate(44.026539, 24.646627)"><g><path d="M 20.34375 0 L 20.34375 -8.859375 C 20.34375 -9.148438 20.34375 -9.453125 20.34375 -9.765625 C 20.34375 -10.085938 20.332031 -10.410156 20.3125 -10.734375 C 20.289062 -11.117188 20.25 -11.484375 20.1875 -11.828125 C 20.132812 -12.171875 20.023438 -12.46875 19.859375 -12.71875 C 19.703125 -12.96875 19.488281 -13.164062 19.21875 -13.3125 C 18.945312 -13.457031 18.570312 -13.53125 18.09375 -13.53125 C 17.5 -13.53125 16.972656 -13.3125 16.515625 -12.875 C 16.066406 -12.445312 15.691406 -11.929688 15.390625 -11.328125 C 15.097656 -10.722656 14.878906 -10.09375 14.734375 -9.4375 C 14.585938 -8.78125 14.515625 -8.222656 14.515625 -7.765625 L 14.515625 0 L 11.453125 0 L 11.453125 -8.859375 C 11.453125 -9.148438 11.453125 -9.453125 11.453125 -9.765625 C 11.453125 -10.085938 11.441406 -10.410156 11.421875 -10.734375 C 11.390625 -11.097656 11.347656 -11.445312 11.296875 -11.78125 C 11.242188 -12.125 11.144531 -12.425781 11 -12.6875 C 10.863281 -12.957031 10.660156 -13.164062 10.390625 -13.3125 C 10.117188 -13.457031 9.753906 -13.53125 9.296875 -13.53125 C 8.617188 -13.53125 8.046875 -13.28125 7.578125 -12.78125 C 7.117188 -12.28125 6.742188 -11.675781 6.453125 -10.96875 C 6.171875 -10.269531 5.960938 -9.539062 5.828125 -8.78125 C 5.691406 -8.019531 5.625 -7.390625 5.625 -6.890625 L 5.625 0 L 2.5625 0 L 2.5625 -16.21875 L 5.625 -16.21875 L 5.625 -12.984375 L 5.6875 -12.984375 C 6.050781 -14.003906 6.601562 -14.859375 7.34375 -15.546875 C 8.082031 -16.242188 9.039062 -16.59375 10.21875 -16.59375 C 11.332031 -16.59375 12.257812 -16.296875 13 -15.703125 C 13.738281 -15.117188 14.1875 -14.269531 14.34375 -13.15625 L 14.421875 -13.15625 C 14.828125 -14.175781 15.414062 -15.003906 16.1875 -15.640625 C 16.957031 -16.273438 17.898438 -16.59375 19.015625 -16.59375 C 19.835938 -16.59375 20.523438 -16.441406 21.078125 -16.140625 C 21.628906 -15.847656 22.082031 -15.457031 22.4375 -14.96875 C 22.789062 -14.488281 23.039062 -13.921875 23.1875 -13.265625 C 23.332031 -12.617188 23.40625 -11.945312 23.40625 -11.25 L 23.40625 0 Z M 20.34375 0 "/></g></g></g><g fill="#000000" fill-opacity="1"><g transform="translate(69.888465, 24.646627)"><g><path d="M 8.3125 -2.015625 C 9.0625 -2.015625 9.65625 -2.222656 10.09375 -2.640625 C 10.539062 -3.054688 10.878906 -3.570312 11.109375 -4.1875 C 11.335938 -4.800781 11.484375 -5.457031 11.546875 -6.15625 C 11.617188 -6.863281 11.65625 -7.492188 11.65625 -8.046875 C 11.65625 -8.523438 11.625 -9.113281 11.5625 -9.8125 C 11.507812 -10.519531 11.378906 -11.195312 11.171875 -11.84375 C 10.972656 -12.488281 10.679688 -13.039062 10.296875 -13.5 C 9.910156 -13.96875 9.375 -14.203125 8.6875 -14.203125 C 8.03125 -14.203125 7.484375 -13.976562 7.046875 -13.53125 C 6.617188 -13.09375 6.269531 -12.554688 6 -11.921875 C 5.726562 -11.285156 5.535156 -10.617188 5.421875 -9.921875 C 5.304688 -9.234375 5.25 -8.640625 5.25 -8.140625 C 5.25 -7.597656 5.257812 -6.96875 5.28125 -6.25 C 5.300781 -5.539062 5.40625 -4.875 5.59375 -4.25 C 5.789062 -3.625 6.09375 -3.09375 6.5 -2.65625 C 6.914062 -2.226562 7.519531 -2.015625 8.3125 -2.015625 Z M 2.1875 -23.515625 L 5.25 -23.515625 L 5.25 -14 L 5.3125 -14 C 5.695312 -14.84375 6.269531 -15.484375 7.03125 -15.921875 C 7.789062 -16.367188 8.628906 -16.59375 9.546875 -16.59375 C 10.722656 -16.59375 11.675781 -16.3125 12.40625 -15.75 C 13.132812 -15.195312 13.691406 -14.492188 14.078125 -13.640625 C 14.460938 -12.796875 14.722656 -11.867188 14.859375 -10.859375 C 14.992188 -9.847656 15.0625 -8.875 15.0625 -7.9375 C 15.0625 -6.800781 14.953125 -5.734375 14.734375 -4.734375 C 14.523438 -3.734375 14.171875 -2.851562 13.671875 -2.09375 C 13.171875 -1.332031 12.492188 -0.726562 11.640625 -0.28125 C 10.785156 0.15625 9.734375 0.375 8.484375 0.375 C 7.328125 0.375 6.34375 0.207031 5.53125 -0.125 C 4.726562 -0.46875 4.078125 -0.953125 3.578125 -1.578125 C 3.078125 -2.203125 2.71875 -2.945312 2.5 -3.8125 C 2.289062 -4.675781 2.1875 -5.644531 2.1875 -6.71875 Z M 2.1875 -23.515625 "/></g></g></g><g fill="#000000" fill-opacity="1"><g transform="translate(86.277906, 24.646627)"><g><path d="M 2.859375 0 L 2.859375 -16.21875 L 5.921875 -16.21875 L 5.921875 0 Z M 2.5625 -20.03125 L 2.5625 -23.515625 L 6.234375 -23.515625 L 6.234375 -20.03125 Z M 2.5625 -20.03125 "/></g></g></g><g fill="#000000" fill-opacity="1"><g transform="translate(95.102995, 24.646627)"><g><path d="M 12.09375 0 L 12.09375 -8.859375 C 12.09375 -9.179688 12.09375 -9.507812 12.09375 -9.84375 C 12.09375 -10.1875 12.082031 -10.53125 12.0625 -10.875 C 12.019531 -11.625 11.859375 -12.253906 11.578125 -12.765625 C 11.304688 -13.273438 10.738281 -13.53125 9.875 -13.53125 C 9.132812 -13.53125 8.488281 -13.296875 7.9375 -12.828125 C 7.394531 -12.359375 6.953125 -11.785156 6.609375 -11.109375 C 6.265625 -10.429688 6.007812 -9.703125 5.84375 -8.921875 C 5.675781 -8.148438 5.59375 -7.472656 5.59375 -6.890625 L 5.59375 0 L 2.515625 0 L 2.515625 -16.21875 L 5.59375 -16.21875 L 5.59375 -12.75 L 5.65625 -12.75 C 6.113281 -13.90625 6.757812 -14.832031 7.59375 -15.53125 C 8.4375 -16.238281 9.503906 -16.59375 10.796875 -16.59375 C 11.617188 -16.59375 12.304688 -16.441406 12.859375 -16.140625 C 13.421875 -15.847656 13.867188 -15.457031 14.203125 -14.96875 C 14.546875 -14.488281 14.789062 -13.921875 14.9375 -13.265625 C 15.09375 -12.617188 15.171875 -11.945312 15.171875 -11.25 L 15.171875 0 Z M 12.09375 0 "/></g></g></g><g fill="#000000" fill-opacity="1"><g transform="translate(112.787239, 24.646627)"><g><path d="M 7.90625 -2.390625 C 8.613281 -2.390625 9.191406 -2.601562 9.640625 -3.03125 C 10.097656 -3.46875 10.460938 -4 10.734375 -4.625 C 11.003906 -5.25 11.195312 -5.910156 11.3125 -6.609375 C 11.425781 -7.316406 11.484375 -7.941406 11.484375 -8.484375 C 11.484375 -9.023438 11.429688 -9.628906 11.328125 -10.296875 C 11.222656 -10.972656 11.035156 -11.597656 10.765625 -12.171875 C 10.492188 -12.753906 10.128906 -13.238281 9.671875 -13.625 C 9.222656 -14.007812 8.644531 -14.203125 7.9375 -14.203125 C 7.238281 -14.203125 6.675781 -13.988281 6.25 -13.5625 C 5.832031 -13.132812 5.515625 -12.609375 5.296875 -11.984375 C 5.078125 -11.359375 4.929688 -10.695312 4.859375 -10 C 4.796875 -9.3125 4.765625 -8.703125 4.765625 -8.171875 C 4.765625 -7.648438 4.796875 -7.0625 4.859375 -6.40625 C 4.929688 -5.75 5.078125 -5.117188 5.296875 -4.515625 C 5.515625 -3.910156 5.832031 -3.40625 6.25 -3 C 6.675781 -2.59375 7.226562 -2.390625 7.90625 -2.390625 Z M 11.484375 -2.765625 L 11.421875 -2.765625 C 11.253906 -2.304688 11.007812 -1.90625 10.6875 -1.5625 C 10.375 -1.226562 10.015625 -0.941406 9.609375 -0.703125 C 9.203125 -0.460938 8.765625 -0.285156 8.296875 -0.171875 C 7.828125 -0.0546875 7.378906 0 6.953125 0 C 5.816406 0 4.890625 -0.25 4.171875 -0.75 C 3.453125 -1.25 2.882812 -1.890625 2.46875 -2.671875 C 2.050781 -3.453125 1.757812 -4.320312 1.59375 -5.28125 C 1.4375 -6.238281 1.359375 -7.179688 1.359375 -8.109375 C 1.359375 -9.035156 1.441406 -10 1.609375 -11 C 1.785156 -12 2.09375 -12.914062 2.53125 -13.75 C 2.976562 -14.582031 3.570312 -15.265625 4.3125 -15.796875 C 5.050781 -16.328125 6 -16.59375 7.15625 -16.59375 C 8.019531 -16.59375 8.863281 -16.363281 9.6875 -15.90625 C 10.519531 -15.457031 11.097656 -14.8125 11.421875 -13.96875 L 11.484375 -13.96875 L 11.484375 -16.21875 L 14.546875 -16.21875 L 14.546875 0.640625 C 14.546875 1.867188 14.367188 2.90625 14.015625 3.75 C 13.671875 4.59375 13.164062 5.273438 12.5 5.796875 C 11.84375 6.316406 11.054688 6.695312 10.140625 6.9375 C 9.222656 7.175781 8.191406 7.296875 7.046875 7.296875 C 6.210938 7.296875 5.378906 7.25 4.546875 7.15625 C 3.722656 7.0625 2.898438 6.914062 2.078125 6.71875 L 2.078125 3.609375 C 2.804688 3.972656 3.554688 4.28125 4.328125 4.53125 C 5.097656 4.78125 5.90625 4.90625 6.75 4.90625 C 7.65625 4.90625 8.414062 4.789062 9.03125 4.5625 C 9.644531 4.332031 10.132812 4.003906 10.5 3.578125 C 10.863281 3.148438 11.117188 2.613281 11.265625 1.96875 C 11.410156 1.332031 11.484375 0.597656 11.484375 -0.234375 Z M 11.484375 -2.765625 "/></g></g></g></g></g><g fill="#000000" fill-opacity="1"><g transform="translate(59.929239, 127.075873)"><g><path d="M 3.234375 -10.375 L 3.234375 0 L 1.609375 0 L 1.609375 -12.5625 L 3.875 -12.5625 L 9.421875 -2.125 L 9.421875 -12.5625 L 11.046875 -12.5625 L 11.046875 0 L 8.8125 0 Z M 3.234375 -10.375 "/></g></g></g><g fill="#000000" fill-opacity="1"><g transform="translate(72.585453, 127.075873)"><g><path d="M 8.359375 -4.671875 C 8.359375 -5.140625 8.285156 -5.582031 8.140625 -6 C 7.992188 -6.414062 7.785156 -6.78125 7.515625 -7.09375 C 7.242188 -7.40625 6.925781 -7.648438 6.5625 -7.828125 C 6.195312 -8.015625 5.800781 -8.109375 5.375 -8.109375 C 4.425781 -8.109375 3.6875 -7.796875 3.15625 -7.171875 C 2.632812 -6.554688 2.375 -5.734375 2.375 -4.703125 C 2.375 -4.234375 2.445312 -3.785156 2.59375 -3.359375 C 2.738281 -2.941406 2.945312 -2.570312 3.21875 -2.25 C 3.488281 -1.9375 3.804688 -1.6875 4.171875 -1.5 C 4.535156 -1.3125 4.9375 -1.21875 5.375 -1.21875 C 5.832031 -1.21875 6.25 -1.300781 6.625 -1.46875 C 7 -1.632812 7.3125 -1.867188 7.5625 -2.171875 C 7.820312 -2.484375 8.019531 -2.847656 8.15625 -3.265625 C 8.289062 -3.679688 8.359375 -4.148438 8.359375 -4.671875 Z M 0.71875 -4.671875 C 0.71875 -5.421875 0.835938 -6.097656 1.078125 -6.703125 C 1.316406 -7.304688 1.640625 -7.816406 2.046875 -8.234375 C 2.460938 -8.660156 2.953125 -8.984375 3.515625 -9.203125 C 4.085938 -9.429688 4.707031 -9.546875 5.375 -9.546875 C 6.019531 -9.546875 6.625 -9.429688 7.1875 -9.203125 C 7.757812 -8.984375 8.253906 -8.660156 8.671875 -8.234375 C 9.085938 -7.816406 9.414062 -7.304688 9.65625 -6.703125 C 9.894531 -6.109375 10.015625 -5.441406 10.015625 -4.703125 C 10.015625 -3.960938 9.894531 -3.289062 9.65625 -2.6875 C 9.425781 -2.082031 9.101562 -1.5625 8.6875 -1.125 C 8.269531 -0.695312 7.773438 -0.363281 7.203125 -0.125 C 6.640625 0.101562 6.03125 0.21875 5.375 0.21875 C 4.695312 0.21875 4.070312 0.0976562 3.5 -0.140625 C 2.9375 -0.378906 2.445312 -0.710938 2.03125 -1.140625 C 1.625 -1.578125 1.300781 -2.09375 1.0625 -2.6875 C 0.832031 -3.289062 0.71875 -3.953125 0.71875 -4.671875 Z M 0.71875 -4.671875 "/></g></g></g><g fill="#000000" fill-opacity="1"><g transform="translate(83.320794, 127.075873)"><g/></g></g><g fill="#000000" fill-opacity="1"><g transform="translate(88.706418, 127.075873)"><g><path d="M 3 -7.78125 C 3.332031 -8.28125 3.753906 -8.695312 4.265625 -9.03125 C 4.773438 -9.375 5.363281 -9.546875 6.03125 -9.546875 C 6.769531 -9.546875 7.375 -9.367188 7.84375 -9.015625 C 8.3125 -8.660156 8.644531 -8.179688 8.84375 -7.578125 C 9.21875 -8.128906 9.660156 -8.59375 10.171875 -8.96875 C 10.679688 -9.351562 11.3125 -9.546875 12.0625 -9.546875 C 12.5625 -9.546875 13 -9.460938 13.375 -9.296875 C 13.757812 -9.128906 14.078125 -8.890625 14.328125 -8.578125 C 14.578125 -8.273438 14.765625 -7.910156 14.890625 -7.484375 C 15.015625 -7.066406 15.078125 -6.601562 15.078125 -6.09375 L 15.078125 0 L 13.46875 0 L 13.46875 -5.953125 C 13.46875 -6.609375 13.316406 -7.132812 13.015625 -7.53125 C 12.710938 -7.925781 12.300781 -8.125 11.78125 -8.125 C 11.5 -8.125 11.234375 -8.070312 10.984375 -7.96875 C 10.734375 -7.863281 10.492188 -7.71875 10.265625 -7.53125 C 10.035156 -7.34375 9.816406 -7.125 9.609375 -6.875 C 9.410156 -6.632812 9.226562 -6.382812 9.0625 -6.125 L 9.0625 0 L 7.453125 0 L 7.453125 -5.953125 C 7.453125 -6.609375 7.300781 -7.132812 7 -7.53125 C 6.695312 -7.925781 6.285156 -8.125 5.765625 -8.125 C 5.503906 -8.125 5.242188 -8.070312 4.984375 -7.96875 C 4.734375 -7.875 4.488281 -7.734375 4.25 -7.546875 C 4.019531 -7.367188 3.800781 -7.160156 3.59375 -6.921875 C 3.394531 -6.691406 3.210938 -6.441406 3.046875 -6.171875 L 3.046875 0 L 1.4375 0 L 1.4375 -9.328125 L 3 -9.328125 Z M 3 -7.78125 "/></g></g></g><g fill="#000000" fill-opacity="1"><g transform="translate(105.132562, 127.075873)"><g><path d="M 8.359375 -4.671875 C 8.359375 -5.140625 8.285156 -5.582031 8.140625 -6 C 7.992188 -6.414062 7.785156 -6.78125 7.515625 -7.09375 C 7.242188 -7.40625 6.925781 -7.648438 6.5625 -7.828125 C 6.195312 -8.015625 5.800781 -8.109375 5.375 -8.109375 C 4.425781 -8.109375 3.6875 -7.796875 3.15625 -7.171875 C 2.632812 -6.554688 2.375 -5.734375 2.375 -4.703125 C 2.375 -4.234375 2.445312 -3.785156 2.59375 -3.359375 C 2.738281 -2.941406 2.945312 -2.570312 3.21875 -2.25 C 3.488281 -1.9375 3.804688 -1.6875 4.171875 -1.5 C 4.535156 -1.3125 4.9375 -1.21875 5.375 -1.21875 C 5.832031 -1.21875 6.25 -1.300781 6.625 -1.46875 C 7 -1.632812 7.3125 -1.867188 7.5625 -2.171875 C 7.820312 -2.484375 8.019531 -2.847656 8.15625 -3.265625 C 8.289062 -3.679688 8.359375 -4.148438 8.359375 -4.671875 Z M 0.71875 -4.671875 C 0.71875 -5.421875 0.835938 -6.097656 1.078125 -6.703125 C 1.316406 -7.304688 1.640625 -7.816406 2.046875 -8.234375 C 2.460938 -8.660156 2.953125 -8.984375 3.515625 -9.203125 C 4.085938 -9.429688 4.707031 -9.546875 5.375 -9.546875 C 6.019531 -9.546875 6.625 -9.429688 7.1875 -9.203125 C 7.757812 -8.984375 8.253906 -8.660156 8.671875 -8.234375 C 9.085938 -7.816406 9.414062 -7.304688 9.65625 -6.703125 C 9.894531 -6.109375 10.015625 -5.441406 10.015625 -4.703125 C 10.015625 -3.960938 9.894531 -3.289062 9.65625 -2.6875 C 9.425781 -2.082031 9.101562 -1.5625 8.6875 -1.125 C 8.269531 -0.695312 7.773438 -0.363281 7.203125 -0.125 C 6.640625 0.101562 6.03125 0.21875 5.375 0.21875 C 4.695312 0.21875 4.070312 0.0976562 3.5 -0.140625 C 2.9375 -0.378906 2.445312 -0.710938 2.03125 -1.140625 C 1.625 -1.578125 1.300781 -2.09375 1.0625 -2.6875 C 0.832031 -3.289062 0.71875 -3.953125 0.71875 -4.671875 Z M 0.71875 -4.671875 "/></g></g></g><g fill="#000000" fill-opacity="1"><g transform="translate(115.867903, 127.075873)"><g><path d="M 6.5 -7.78125 C 6.269531 -7.875 6 -7.921875 5.6875 -7.921875 C 5.351562 -7.921875 5.023438 -7.847656 4.703125 -7.703125 C 4.390625 -7.554688 4.109375 -7.335938 3.859375 -7.046875 C 3.617188 -6.765625 3.421875 -6.398438 3.265625 -5.953125 C 3.117188 -5.503906 3.046875 -4.972656 3.046875 -4.359375 L 3.046875 0 L 1.4375 0 L 1.4375 -9.328125 L 3 -9.328125 L 3 -7.3125 C 3.101562 -7.59375 3.242188 -7.867188 3.421875 -8.140625 C 3.609375 -8.421875 3.820312 -8.660156 4.0625 -8.859375 C 4.3125 -9.066406 4.597656 -9.234375 4.921875 -9.359375 C 5.242188 -9.484375 5.601562 -9.546875 6 -9.546875 C 6.175781 -9.546875 6.347656 -9.535156 6.515625 -9.515625 C 6.691406 -9.503906 6.847656 -9.476562 6.984375 -9.4375 Z M 6.5 -7.78125 "/></g></g></g><g fill="#000000" fill-opacity="1"><g transform="translate(123.030782, 127.075873)"><g><path d="M 2.453125 -4 C 2.566406 -3.125 2.875 -2.441406 3.375 -1.953125 C 3.875 -1.460938 4.539062 -1.21875 5.375 -1.21875 C 5.90625 -1.21875 6.382812 -1.273438 6.8125 -1.390625 C 7.25 -1.503906 7.664062 -1.648438 8.0625 -1.828125 L 8.4375 -0.453125 C 8.007812 -0.242188 7.523438 -0.0820312 6.984375 0.03125 C 6.441406 0.15625 5.835938 0.21875 5.171875 0.21875 C 4.503906 0.21875 3.898438 0.109375 3.359375 -0.109375 C 2.816406 -0.335938 2.359375 -0.65625 1.984375 -1.0625 C 1.609375 -1.476562 1.316406 -1.988281 1.109375 -2.59375 C 0.910156 -3.195312 0.8125 -3.890625 0.8125 -4.671875 C 0.8125 -5.359375 0.910156 -6 1.109375 -6.59375 C 1.316406 -7.195312 1.601562 -7.71875 1.96875 -8.15625 C 2.34375 -8.59375 2.785156 -8.929688 3.296875 -9.171875 C 3.816406 -9.421875 4.394531 -9.546875 5.03125 -9.546875 C 5.695312 -9.546875 6.28125 -9.429688 6.78125 -9.203125 C 7.289062 -8.984375 7.710938 -8.675781 8.046875 -8.28125 C 8.378906 -7.882812 8.628906 -7.421875 8.796875 -6.890625 C 8.960938 -6.367188 9.046875 -5.8125 9.046875 -5.21875 C 9.046875 -4.800781 9.03125 -4.394531 9 -4 Z M 4.984375 -8.15625 C 4.285156 -8.15625 3.707031 -7.914062 3.25 -7.4375 C 2.800781 -6.957031 2.53125 -6.25 2.4375 -5.3125 L 7.5625 -5.3125 C 7.5625 -6.21875 7.332031 -6.914062 6.875 -7.40625 C 6.414062 -7.90625 5.785156 -8.15625 4.984375 -8.15625 Z M 4.984375 -8.15625 "/></g></g></g><g fill="#000000" fill-opacity="1"><g transform="translate(132.796716, 127.075873)"><g/></g></g><g fill="#000000" fill-opacity="1"><g transform="translate(138.182341, 127.075873)"><g><path d="M 2.96875 -3.09375 C 2.96875 -2.445312 3.097656 -1.96875 3.359375 -1.65625 C 3.628906 -1.34375 4.003906 -1.1875 4.484375 -1.1875 C 4.710938 -1.1875 4.929688 -1.210938 5.140625 -1.265625 C 5.359375 -1.316406 5.554688 -1.378906 5.734375 -1.453125 L 6.125 -0.140625 C 5.90625 -0.046875 5.632812 0.0351562 5.3125 0.109375 C 5 0.179688 4.648438 0.21875 4.265625 0.21875 C 3.847656 0.21875 3.460938 0.15625 3.109375 0.03125 C 2.753906 -0.0820312 2.445312 -0.265625 2.1875 -0.515625 C 1.925781 -0.765625 1.71875 -1.085938 1.5625 -1.484375 C 1.414062 -1.878906 1.34375 -2.359375 1.34375 -2.921875 L 1.34375 -13.28125 L 2.96875 -13.28125 Z M 2.96875 -3.09375 "/></g></g></g><g fill="#000000" fill-opacity="1"><g transform="translate(144.393754, 127.075873)"><g><path d="M 2.453125 -4 C 2.566406 -3.125 2.875 -2.441406 3.375 -1.953125 C 3.875 -1.460938 4.539062 -1.21875 5.375 -1.21875 C 5.90625 -1.21875 6.382812 -1.273438 6.8125 -1.390625 C 7.25 -1.503906 7.664062 -1.648438 8.0625 -1.828125 L 8.4375 -0.453125 C 8.007812 -0.242188 7.523438 -0.0820312 6.984375 0.03125 C 6.441406 0.15625 5.835938 0.21875 5.171875 0.21875 C 4.503906 0.21875 3.898438 0.109375 3.359375 -0.109375 C 2.816406 -0.335938 2.359375 -0.65625 1.984375 -1.0625 C 1.609375 -1.476562 1.316406 -1.988281 1.109375 -2.59375 C 0.910156 -3.195312 0.8125 -3.890625 0.8125 -4.671875 C 0.8125 -5.359375 0.910156 -6 1.109375 -6.59375 C 1.316406 -7.195312 1.601562 -7.71875 1.96875 -8.15625 C 2.34375 -8.59375 2.785156 -8.929688 3.296875 -9.171875 C 3.816406 -9.421875 4.394531 -9.546875 5.03125 -9.546875 C 5.695312 -9.546875 6.28125 -9.429688 6.78125 -9.203125 C 7.289062 -8.984375 7.710938 -8.675781 8.046875 -8.28125 C 8.378906 -7.882812 8.628906 -7.421875 8.796875 -6.890625 C 8.960938 -6.367188 9.046875 -5.8125 9.046875 -5.21875 C 9.046875 -4.800781 9.03125 -4.394531 9 -4 Z M 4.984375 -8.15625 C 4.285156 -8.15625 3.707031 -7.914062 3.25 -7.4375 C 2.800781 -6.957031 2.53125 -6.25 2.4375 -5.3125 L 7.5625 -5.3125 C 7.5625 -6.21875 7.332031 -6.914062 6.875 -7.40625 C 6.414062 -7.90625 5.785156 -8.15625 4.984375 -8.15625 Z M 4.984375 -8.15625 "/></g></g></g><g fill="#000000" fill-opacity="1"><g transform="translate(154.159688, 127.075873)"><g><path d="M 0.8125 -4.609375 C 0.8125 -5.304688 0.914062 -5.957031 1.125 -6.5625 C 1.34375 -7.164062 1.644531 -7.6875 2.03125 -8.125 C 2.425781 -8.570312 2.894531 -8.921875 3.4375 -9.171875 C 3.976562 -9.421875 4.570312 -9.546875 5.21875 -9.546875 C 5.757812 -9.546875 6.25 -9.453125 6.6875 -9.265625 C 7.125 -9.085938 7.503906 -8.859375 7.828125 -8.578125 L 7.828125 -9.328125 L 9.296875 -9.328125 L 9.296875 -2.265625 C 9.296875 -1.804688 9.40625 -1.507812 9.625 -1.375 C 9.851562 -1.238281 10.097656 -1.171875 10.359375 -1.171875 L 10.015625 0.09375 C 8.867188 0.09375 8.175781 -0.375 7.9375 -1.3125 C 7.789062 -1.113281 7.625 -0.921875 7.4375 -0.734375 C 7.25 -0.554688 7.035156 -0.394531 6.796875 -0.25 C 6.554688 -0.101562 6.285156 0.0078125 5.984375 0.09375 C 5.691406 0.175781 5.367188 0.21875 5.015625 0.21875 C 4.421875 0.21875 3.867188 0.101562 3.359375 -0.125 C 2.859375 -0.351562 2.414062 -0.675781 2.03125 -1.09375 C 1.65625 -1.507812 1.359375 -2.015625 1.140625 -2.609375 C 0.921875 -3.203125 0.8125 -3.867188 0.8125 -4.609375 Z M 5.375 -1.21875 C 5.820312 -1.21875 6.25 -1.320312 6.65625 -1.53125 C 7.0625 -1.75 7.40625 -2.035156 7.6875 -2.390625 L 7.6875 -7.390625 C 7.363281 -7.617188 7.003906 -7.800781 6.609375 -7.9375 C 6.222656 -8.082031 5.816406 -8.15625 5.390625 -8.15625 C 4.953125 -8.15625 4.550781 -8.066406 4.1875 -7.890625 C 3.832031 -7.722656 3.523438 -7.488281 3.265625 -7.1875 C 3.015625 -6.882812 2.816406 -6.515625 2.671875 -6.078125 C 2.523438 -5.648438 2.453125 -5.179688 2.453125 -4.671875 C 2.453125 -4.160156 2.523438 -3.691406 2.671875 -3.265625 C 2.816406 -2.847656 3.019531 -2.484375 3.28125 -2.171875 C 3.550781 -1.867188 3.859375 -1.632812 4.203125 -1.46875 C 4.554688 -1.300781 4.945312 -1.21875 5.375 -1.21875 Z M 5.375 -1.21875 "/></g></g></g><g fill="#000000" fill-opacity="1"><g transform="translate(165.236115, 127.075873)"><g><path d="M 1.4375 -13.28125 L 3.046875 -13.28125 L 3.046875 -5.6875 L 7.265625 -9.515625 L 8.203125 -8.484375 L 4.59375 -5.296875 L 9 -0.890625 L 7.875 0.171875 L 3.046875 -4.796875 L 3.046875 0 L 1.4375 0 Z M 1.4375 -13.28125 "/></g></g></g><g fill="#000000" fill-opacity="1"><g transform="translate(174.409624, 127.075873)"><g><path d="M 1.671875 4.171875 C 1.304688 4.171875 0.988281 4.132812 0.71875 4.0625 C 0.457031 3.988281 0.25 3.90625 0.09375 3.8125 L 0.453125 2.453125 C 0.597656 2.535156 0.773438 2.609375 0.984375 2.671875 C 1.191406 2.734375 1.429688 2.765625 1.703125 2.765625 C 1.953125 2.765625 2.1875 2.726562 2.40625 2.65625 C 2.632812 2.582031 2.847656 2.457031 3.046875 2.28125 C 3.253906 2.101562 3.445312 1.859375 3.625 1.546875 C 3.8125 1.234375 4 0.84375 4.1875 0.375 L 4.59375 -0.703125 L 3.734375 -0.703125 L 0.09375 -8.90625 L 1.53125 -9.546875 L 5.015625 -1.78125 L 7.71875 -9.484375 L 9.203125 -8.90625 L 5.78125 0.46875 C 5.519531 1.1875 5.238281 1.78125 4.9375 2.25 C 4.644531 2.726562 4.332031 3.109375 4 3.390625 C 3.664062 3.679688 3.300781 3.882812 2.90625 4 C 2.519531 4.113281 2.109375 4.171875 1.671875 4.171875 Z M 1.671875 4.171875 "/></g></g></g><g fill="#000000" fill-opacity="1"><g transform="translate(183.798553, 127.075873)"><g/></g></g><g fill="#000000" fill-opacity="1"><g transform="translate(189.184178, 127.075873)"><g><path d="M 2.171875 -11.9375 L 3.40625 -11.9375 L 3.40625 -9 L 6 -9 L 6 -7.59375 L 3.40625 -7.59375 L 3.40625 -3.09375 C 3.40625 -2.738281 3.441406 -2.441406 3.515625 -2.203125 C 3.597656 -1.960938 3.707031 -1.769531 3.84375 -1.625 C 3.976562 -1.488281 4.132812 -1.382812 4.3125 -1.3125 C 4.5 -1.25 4.695312 -1.21875 4.90625 -1.21875 C 5.195312 -1.21875 5.472656 -1.265625 5.734375 -1.359375 C 6.003906 -1.460938 6.257812 -1.578125 6.5 -1.703125 L 6.953125 -0.40625 C 6.710938 -0.269531 6.390625 -0.132812 5.984375 0 C 5.578125 0.144531 5.148438 0.21875 4.703125 0.21875 C 3.804688 0.21875 3.097656 -0.0703125 2.578125 -0.65625 C 2.054688 -1.25 1.796875 -2.101562 1.796875 -3.21875 L 1.796875 -7.59375 L 0.171875 -7.59375 L 0.171875 -9 L 1.828125 -9 Z M 2.171875 -11.9375 "/></g></g></g><g fill="#000000" fill-opacity="1"><g transform="translate(196.311149, 127.075873)"><g><path d="M 0.8125 -4.609375 C 0.8125 -5.304688 0.914062 -5.957031 1.125 -6.5625 C 1.34375 -7.164062 1.644531 -7.6875 2.03125 -8.125 C 2.425781 -8.570312 2.894531 -8.921875 3.4375 -9.171875 C 3.976562 -9.421875 4.570312 -9.546875 5.21875 -9.546875 C 5.757812 -9.546875 6.25 -9.453125 6.6875 -9.265625 C 7.125 -9.085938 7.503906 -8.859375 7.828125 -8.578125 L 7.828125 -9.328125 L 9.296875 -9.328125 L 9.296875 -2.265625 C 9.296875 -1.804688 9.40625 -1.507812 9.625 -1.375 C 9.851562 -1.238281 10.097656 -1.171875 10.359375 -1.171875 L 10.015625 0.09375 C 8.867188 0.09375 8.175781 -0.375 7.9375 -1.3125 C 7.789062 -1.113281 7.625 -0.921875 7.4375 -0.734375 C 7.25 -0.554688 7.035156 -0.394531 6.796875 -0.25 C 6.554688 -0.101562 6.285156 0.0078125 5.984375 0.09375 C 5.691406 0.175781 5.367188 0.21875 5.015625 0.21875 C 4.421875 0.21875 3.867188 0.101562 3.359375 -0.125 C 2.859375 -0.351562 2.414062 -0.675781 2.03125 -1.09375 C 1.65625 -1.507812 1.359375 -2.015625 1.140625 -2.609375 C 0.921875 -3.203125 0.8125 -3.867188 0.8125 -4.609375 Z M 5.375 -1.21875 C 5.820312 -1.21875 6.25 -1.320312 6.65625 -1.53125 C 7.0625 -1.75 7.40625 -2.035156 7.6875 -2.390625 L 7.6875 -7.390625 C 7.363281 -7.617188 7.003906 -7.800781 6.609375 -7.9375 C 6.222656 -8.082031 5.816406 -8.15625 5.390625 -8.15625 C 4.953125 -8.15625 4.550781 -8.066406 4.1875 -7.890625 C 3.832031 -7.722656 3.523438 -7.488281 3.265625 -7.1875 C 3.015625 -6.882812 2.816406 -6.515625 2.671875 -6.078125 C 2.523438 -5.648438 2.453125 -5.179688 2.453125 -4.671875 C 2.453125 -4.160156 2.523438 -3.691406 2.671875 -3.265625 C 2.816406 -2.847656 3.019531 -2.484375 3.28125 -2.171875 C 3.550781 -1.867188 3.859375 -1.632812 4.203125 -1.46875 C 4.554688 -1.300781 4.945312 -1.21875 5.375 -1.21875 Z M 5.375 -1.21875 "/></g></g></g><g fill="#000000" fill-opacity="1"><g transform="translate(207.387576, 127.075873)"><g><path d="M 1.0625 -9.328125 C 2.15625 -9.328125 2.84375 -8.894531 3.125 -8.03125 C 3.207031 -8.15625 3.332031 -8.304688 3.5 -8.484375 C 3.675781 -8.671875 3.890625 -8.84375 4.140625 -9 C 4.398438 -9.15625 4.691406 -9.285156 5.015625 -9.390625 C 5.335938 -9.492188 5.695312 -9.546875 6.09375 -9.546875 C 6.625 -9.546875 7.140625 -9.4375 7.640625 -9.21875 C 8.140625 -9.007812 8.578125 -8.703125 8.953125 -8.296875 C 9.328125 -7.890625 9.628906 -7.382812 9.859375 -6.78125 C 10.085938 -6.1875 10.203125 -5.507812 10.203125 -4.75 C 10.203125 -4.007812 10.085938 -3.332031 9.859375 -2.71875 C 9.640625 -2.113281 9.34375 -1.59375 8.96875 -1.15625 C 8.59375 -0.71875 8.160156 -0.378906 7.671875 -0.140625 C 7.179688 0.0976562 6.664062 0.21875 6.125 0.21875 C 5.5625 0.21875 5.039062 0.109375 4.5625 -0.109375 C 4.09375 -0.335938 3.703125 -0.59375 3.390625 -0.875 L 3.390625 3.953125 L 1.78125 3.953125 L 1.78125 -6.953125 C 1.78125 -7.359375 1.679688 -7.644531 1.484375 -7.8125 C 1.285156 -7.988281 1.03125 -8.078125 0.71875 -8.078125 Z M 8.546875 -4.703125 C 8.546875 -5.242188 8.46875 -5.722656 8.3125 -6.140625 C 8.164062 -6.566406 7.960938 -6.929688 7.703125 -7.234375 C 7.453125 -7.535156 7.15625 -7.765625 6.8125 -7.921875 C 6.46875 -8.078125 6.109375 -8.15625 5.734375 -8.15625 C 5.210938 -8.15625 4.742188 -8.023438 4.328125 -7.765625 C 3.921875 -7.503906 3.609375 -7.226562 3.390625 -6.9375 L 3.390625 -2.328125 C 3.703125 -2.003906 4.054688 -1.738281 4.453125 -1.53125 C 4.859375 -1.320312 5.304688 -1.21875 5.796875 -1.21875 C 6.203125 -1.21875 6.570312 -1.300781 6.90625 -1.46875 C 7.25 -1.632812 7.539062 -1.867188 7.78125 -2.171875 C 8.03125 -2.484375 8.21875 -2.847656 8.34375 -3.265625 C 8.476562 -3.691406 8.546875 -4.171875 8.546875 -4.703125 Z M 8.546875 -4.703125 "/></g></g></g><g fill="#000000" fill-opacity="1"><g transform="translate(218.3922, 127.075873)"><g><path d="M 1.3125 -2.09375 C 1.625 -1.820312 2.015625 -1.601562 2.484375 -1.4375 C 2.960938 -1.269531 3.46875 -1.1875 4 -1.1875 C 4.675781 -1.1875 5.179688 -1.296875 5.515625 -1.515625 C 5.859375 -1.734375 6.03125 -2.019531 6.03125 -2.375 C 6.03125 -2.550781 5.992188 -2.71875 5.921875 -2.875 C 5.859375 -3.03125 5.738281 -3.175781 5.5625 -3.3125 C 5.394531 -3.457031 5.160156 -3.597656 4.859375 -3.734375 C 4.566406 -3.878906 4.179688 -4.035156 3.703125 -4.203125 C 2.816406 -4.503906 2.15625 -4.859375 1.71875 -5.265625 C 1.289062 -5.679688 1.078125 -6.253906 1.078125 -6.984375 C 1.078125 -7.335938 1.15625 -7.671875 1.3125 -7.984375 C 1.476562 -8.296875 1.710938 -8.566406 2.015625 -8.796875 C 2.328125 -9.035156 2.695312 -9.21875 3.125 -9.34375 C 3.5625 -9.476562 4.0625 -9.546875 4.625 -9.546875 C 5.238281 -9.546875 5.773438 -9.484375 6.234375 -9.359375 C 6.703125 -9.234375 7.117188 -9.078125 7.484375 -8.890625 L 7.03125 -7.5625 C 6.707031 -7.75 6.335938 -7.898438 5.921875 -8.015625 C 5.515625 -8.140625 5.0625 -8.203125 4.5625 -8.203125 C 3.9375 -8.203125 3.460938 -8.078125 3.140625 -7.828125 C 2.816406 -7.578125 2.65625 -7.300781 2.65625 -7 C 2.65625 -6.851562 2.679688 -6.71875 2.734375 -6.59375 C 2.785156 -6.476562 2.882812 -6.367188 3.03125 -6.265625 C 3.175781 -6.160156 3.367188 -6.050781 3.609375 -5.9375 C 3.847656 -5.832031 4.144531 -5.71875 4.5 -5.59375 C 5.09375 -5.394531 5.59375 -5.191406 6 -4.984375 C 6.40625 -4.773438 6.734375 -4.539062 6.984375 -4.28125 C 7.234375 -4.03125 7.410156 -3.757812 7.515625 -3.46875 C 7.628906 -3.175781 7.6875 -2.851562 7.6875 -2.5 C 7.6875 -2.070312 7.59375 -1.691406 7.40625 -1.359375 C 7.226562 -1.023438 6.976562 -0.738281 6.65625 -0.5 C 6.332031 -0.269531 5.941406 -0.09375 5.484375 0.03125 C 5.023438 0.15625 4.515625 0.21875 3.953125 0.21875 C 3.234375 0.21875 2.59375 0.128906 2.03125 -0.046875 C 1.46875 -0.234375 1 -0.46875 0.625 -0.75 Z M 1.3125 -2.09375 "/></g></g></g><g fill="#000000" fill-opacity="1"><g transform="translate(226.793769, 127.075873)"><g><path d="M 1.90625 -13.09375 L 3.703125 -13.09375 L 3.703125 -8.625 L 3.46875 -3.71875 L 2.140625 -3.71875 L 1.90625 -8.625 Z M 1.609375 -0.984375 C 1.609375 -1.359375 1.710938 -1.648438 1.921875 -1.859375 C 2.140625 -2.078125 2.4375 -2.1875 2.8125 -2.1875 C 3.125 -2.1875 3.398438 -2.066406 3.640625 -1.828125 C 3.890625 -1.585938 4.015625 -1.304688 4.015625 -0.984375 C 4.015625 -0.628906 3.898438 -0.335938 3.671875 -0.109375 C 3.453125 0.109375 3.164062 0.21875 2.8125 0.21875 C 2.488281 0.21875 2.207031 0.0976562 1.96875 -0.140625 C 1.726562 -0.378906 1.609375 -0.660156 1.609375 -0.984375 Z M 1.609375 -0.984375 "/></g></g></g><g fill="#000000" fill-opacity="1"><g transform="translate(59.929239, 151.760048)"><g><path d="M 6.71875 -6.65625 L 10.9375 -6.65625 L 10.9375 0 L 9.421875 0 L 9.421875 -1.25 C 9.003906 -0.882812 8.492188 -0.546875 7.890625 -0.234375 C 7.296875 0.0664062 6.632812 0.21875 5.90625 0.21875 C 5.175781 0.21875 4.503906 0.078125 3.890625 -0.203125 C 3.285156 -0.492188 2.757812 -0.910156 2.3125 -1.453125 C 1.875 -1.992188 1.523438 -2.644531 1.265625 -3.40625 C 1.015625 -4.164062 0.890625 -5.015625 0.890625 -5.953125 C 0.890625 -6.960938 1.019531 -7.882812 1.28125 -8.71875 C 1.539062 -9.550781 1.914062 -10.269531 2.40625 -10.875 C 2.894531 -11.476562 3.492188 -11.945312 4.203125 -12.28125 C 4.921875 -12.613281 5.734375 -12.78125 6.640625 -12.78125 C 7.429688 -12.78125 8.128906 -12.679688 8.734375 -12.484375 C 9.335938 -12.296875 9.910156 -12.054688 10.453125 -11.765625 L 9.828125 -10.34375 C 9.316406 -10.613281 8.800781 -10.835938 8.28125 -11.015625 C 7.769531 -11.203125 7.191406 -11.296875 6.546875 -11.296875 C 5.984375 -11.296875 5.460938 -11.179688 4.984375 -10.953125 C 4.503906 -10.722656 4.09375 -10.382812 3.75 -9.9375 C 3.40625 -9.5 3.132812 -8.953125 2.9375 -8.296875 C 2.738281 -7.648438 2.640625 -6.90625 2.640625 -6.0625 C 2.640625 -5.3125 2.726562 -4.640625 2.90625 -4.046875 C 3.082031 -3.453125 3.332031 -2.945312 3.65625 -2.53125 C 3.976562 -2.125 4.363281 -1.8125 4.8125 -1.59375 C 5.269531 -1.382812 5.765625 -1.28125 6.296875 -1.28125 C 6.628906 -1.28125 6.945312 -1.316406 7.25 -1.390625 C 7.550781 -1.472656 7.828125 -1.578125 8.078125 -1.703125 C 8.328125 -1.828125 8.554688 -1.960938 8.765625 -2.109375 C 8.972656 -2.253906 9.15625 -2.40625 9.3125 -2.5625 L 9.3125 -5.3125 L 6.71875 -5.3125 Z M 6.71875 -6.65625 "/></g></g></g><g fill="#000000" fill-opacity="1"><g transform="translate(72.028934, 151.760048)"><g><path d="M 2.453125 -4 C 2.566406 -3.125 2.875 -2.441406 3.375 -1.953125 C 3.875 -1.460938 4.539062 -1.21875 5.375 -1.21875 C 5.90625 -1.21875 6.382812 -1.273438 6.8125 -1.390625 C 7.25 -1.503906 7.664062 -1.648438 8.0625 -1.828125 L 8.4375 -0.453125 C 8.007812 -0.242188 7.523438 -0.0820312 6.984375 0.03125 C 6.441406 0.15625 5.835938 0.21875 5.171875 0.21875 C 4.503906 0.21875 3.898438 0.109375 3.359375 -0.109375 C 2.816406 -0.335938 2.359375 -0.65625 1.984375 -1.0625 C 1.609375 -1.476562 1.316406 -1.988281 1.109375 -2.59375 C 0.910156 -3.195312 0.8125 -3.890625 0.8125 -4.671875 C 0.8125 -5.359375 0.910156 -6 1.109375 -6.59375 C 1.316406 -7.195312 1.601562 -7.71875 1.96875 -8.15625 C 2.34375 -8.59375 2.785156 -8.929688 3.296875 -9.171875 C 3.816406 -9.421875 4.394531 -9.546875 5.03125 -9.546875 C 5.695312 -9.546875 6.28125 -9.429688 6.78125 -9.203125 C 7.289062 -8.984375 7.710938 -8.675781 8.046875 -8.28125 C 8.378906 -7.882812 8.628906 -7.421875 8.796875 -6.890625 C 8.960938 -6.367188 9.046875 -5.8125 9.046875 -5.21875 C 9.046875 -4.800781 9.03125 -4.394531 9 -4 Z M 4.984375 -8.15625 C 4.285156 -8.15625 3.707031 -7.914062 3.25 -7.4375 C 2.800781 -6.957031 2.53125 -6.25 2.4375 -5.3125 L 7.5625 -5.3125 C 7.5625 -6.21875 7.332031 -6.914062 6.875 -7.40625 C 6.414062 -7.90625 5.785156 -8.15625 4.984375 -8.15625 Z M 4.984375 -8.15625 "/></g></g></g><g fill="#000000" fill-opacity="1"><g transform="translate(81.794868, 151.760048)"><g><path d="M 2.171875 -11.9375 L 3.40625 -11.9375 L 3.40625 -9 L 6 -9 L 6 -7.59375 L 3.40625 -7.59375 L 3.40625 -3.09375 C 3.40625 -2.738281 3.441406 -2.441406 3.515625 -2.203125 C 3.597656 -1.960938 3.707031 -1.769531 3.84375 -1.625 C 3.976562 -1.488281 4.132812 -1.382812 4.3125 -1.3125 C 4.5 -1.25 4.695312 -1.21875 4.90625 -1.21875 C 5.195312 -1.21875 5.472656 -1.265625 5.734375 -1.359375 C 6.003906 -1.460938 6.257812 -1.578125 6.5 -1.703125 L 6.953125 -0.40625 C 6.710938 -0.269531 6.390625 -0.132812 5.984375 0 C 5.578125 0.144531 5.148438 0.21875 4.703125 0.21875 C 3.804688 0.21875 3.097656 -0.0703125 2.578125 -0.65625 C 2.054688 -1.25 1.796875 -2.101562 1.796875 -3.21875 L 1.796875 -7.59375 L 0.171875 -7.59375 L 0.171875 -9 L 1.828125 -9 Z M 2.171875 -11.9375 "/></g></g></g><g fill="#000000" fill-opacity="1"><g transform="translate(88.92184, 151.760048)"><g/></g></g><g fill="#000000" fill-opacity="1"><g transform="translate(94.307464, 151.760048)"><g><path d="M 1.4375 -13.28125 L 3.046875 -13.28125 L 3.046875 -8.359375 C 3.171875 -8.492188 3.320312 -8.632812 3.5 -8.78125 C 3.675781 -8.925781 3.875 -9.050781 4.09375 -9.15625 C 4.320312 -9.269531 4.570312 -9.363281 4.84375 -9.4375 C 5.125 -9.507812 5.425781 -9.546875 5.75 -9.546875 C 6.28125 -9.546875 6.796875 -9.4375 7.296875 -9.21875 C 7.796875 -9.007812 8.234375 -8.703125 8.609375 -8.296875 C 8.984375 -7.890625 9.285156 -7.382812 9.515625 -6.78125 C 9.742188 -6.1875 9.859375 -5.507812 9.859375 -4.75 C 9.859375 -4.007812 9.738281 -3.332031 9.5 -2.71875 C 9.257812 -2.113281 8.941406 -1.59375 8.546875 -1.15625 C 8.148438 -0.71875 7.695312 -0.378906 7.1875 -0.140625 C 6.675781 0.0976562 6.160156 0.21875 5.640625 0.21875 C 5.097656 0.21875 4.585938 0.125 4.109375 -0.0625 C 3.640625 -0.257812 3.25 -0.492188 2.9375 -0.765625 L 2.9375 0 L 1.4375 0 Z M 8.203125 -4.703125 C 8.203125 -5.242188 8.125 -5.722656 7.96875 -6.140625 C 7.820312 -6.566406 7.617188 -6.929688 7.359375 -7.234375 C 7.109375 -7.535156 6.8125 -7.765625 6.46875 -7.921875 C 6.125 -8.078125 5.765625 -8.15625 5.390625 -8.15625 C 4.867188 -8.15625 4.398438 -8.023438 3.984375 -7.765625 C 3.578125 -7.503906 3.265625 -7.226562 3.046875 -6.9375 L 3.046875 -1.9375 C 3.328125 -1.71875 3.648438 -1.539062 4.015625 -1.40625 C 4.390625 -1.28125 4.785156 -1.21875 5.203125 -1.21875 C 5.640625 -1.21875 6.039062 -1.300781 6.40625 -1.46875 C 6.78125 -1.632812 7.097656 -1.867188 7.359375 -2.171875 C 7.617188 -2.484375 7.820312 -2.847656 7.96875 -3.265625 C 8.125 -3.691406 8.203125 -4.171875 8.203125 -4.703125 Z M 8.203125 -4.703125 "/></g></g></g><g fill="#000000" fill-opacity="1"><g transform="translate(104.970991, 151.760048)"><g><path d="M 0.8125 -4.609375 C 0.8125 -5.304688 0.914062 -5.957031 1.125 -6.5625 C 1.34375 -7.164062 1.644531 -7.6875 2.03125 -8.125 C 2.425781 -8.570312 2.894531 -8.921875 3.4375 -9.171875 C 3.976562 -9.421875 4.570312 -9.546875 5.21875 -9.546875 C 5.757812 -9.546875 6.25 -9.453125 6.6875 -9.265625 C 7.125 -9.085938 7.503906 -8.859375 7.828125 -8.578125 L 7.828125 -9.328125 L 9.296875 -9.328125 L 9.296875 -2.265625 C 9.296875 -1.804688 9.40625 -1.507812 9.625 -1.375 C 9.851562 -1.238281 10.097656 -1.171875 10.359375 -1.171875 L 10.015625 0.09375 C 8.867188 0.09375 8.175781 -0.375 7.9375 -1.3125 C 7.789062 -1.113281 7.625 -0.921875 7.4375 -0.734375 C 7.25 -0.554688 7.035156 -0.394531 6.796875 -0.25 C 6.554688 -0.101562 6.285156 0.0078125 5.984375 0.09375 C 5.691406 0.175781 5.367188 0.21875 5.015625 0.21875 C 4.421875 0.21875 3.867188 0.101562 3.359375 -0.125 C 2.859375 -0.351562 2.414062 -0.675781 2.03125 -1.09375 C 1.65625 -1.507812 1.359375 -2.015625 1.140625 -2.609375 C 0.921875 -3.203125 0.8125 -3.867188 0.8125 -4.609375 Z M 5.375 -1.21875 C 5.820312 -1.21875 6.25 -1.320312 6.65625 -1.53125 C 7.0625 -1.75 7.40625 -2.035156 7.6875 -2.390625 L 7.6875 -7.390625 C 7.363281 -7.617188 7.003906 -7.800781 6.609375 -7.9375 C 6.222656 -8.082031 5.816406 -8.15625 5.390625 -8.15625 C 4.953125 -8.15625 4.550781 -8.066406 4.1875 -7.890625 C 3.832031 -7.722656 3.523438 -7.488281 3.265625 -7.1875 C 3.015625 -6.882812 2.816406 -6.515625 2.671875 -6.078125 C 2.523438 -5.648438 2.453125 -5.179688 2.453125 -4.671875 C 2.453125 -4.160156 2.523438 -3.691406 2.671875 -3.265625 C 2.816406 -2.847656 3.019531 -2.484375 3.28125 -2.171875 C 3.550781 -1.867188 3.859375 -1.632812 4.203125 -1.46875 C 4.554688 -1.300781 4.945312 -1.21875 5.375 -1.21875 Z M 5.375 -1.21875 "/></g></g></g><g fill="#000000" fill-opacity="1"><g transform="translate(116.047418, 151.760048)"><g><path d="M 7.390625 -7.625 C 7.046875 -7.789062 6.722656 -7.910156 6.421875 -7.984375 C 6.128906 -8.066406 5.796875 -8.109375 5.421875 -8.109375 C 5.003906 -8.109375 4.613281 -8.03125 4.25 -7.875 C 3.882812 -7.71875 3.566406 -7.492188 3.296875 -7.203125 C 3.035156 -6.910156 2.828125 -6.554688 2.671875 -6.140625 C 2.523438 -5.722656 2.453125 -5.242188 2.453125 -4.703125 C 2.453125 -4.210938 2.519531 -3.753906 2.65625 -3.328125 C 2.800781 -2.910156 3 -2.546875 3.25 -2.234375 C 3.5 -1.921875 3.796875 -1.671875 4.140625 -1.484375 C 4.492188 -1.304688 4.882812 -1.21875 5.3125 -1.21875 C 5.769531 -1.21875 6.160156 -1.265625 6.484375 -1.359375 C 6.804688 -1.460938 7.148438 -1.613281 7.515625 -1.8125 L 8.03125 -0.453125 C 7.644531 -0.242188 7.222656 -0.0820312 6.765625 0.03125 C 6.316406 0.15625 5.796875 0.21875 5.203125 0.21875 C 4.535156 0.21875 3.929688 0.0976562 3.390625 -0.140625 C 2.847656 -0.378906 2.382812 -0.710938 2 -1.140625 C 1.625 -1.578125 1.332031 -2.09375 1.125 -2.6875 C 0.914062 -3.289062 0.8125 -3.953125 0.8125 -4.671875 C 0.8125 -5.335938 0.914062 -5.96875 1.125 -6.5625 C 1.332031 -7.15625 1.632812 -7.671875 2.03125 -8.109375 C 2.425781 -8.554688 2.898438 -8.90625 3.453125 -9.15625 C 4.015625 -9.414062 4.640625 -9.546875 5.328125 -9.546875 C 5.867188 -9.546875 6.335938 -9.5 6.734375 -9.40625 C 7.128906 -9.3125 7.507812 -9.175781 7.875 -9 Z M 7.390625 -7.625 "/></g></g></g><g fill="#000000" fill-opacity="1"><g transform="translate(124.520801, 151.760048)"><g><path d="M 1.4375 -13.28125 L 3.046875 -13.28125 L 3.046875 -5.6875 L 7.265625 -9.515625 L 8.203125 -8.484375 L 4.59375 -5.296875 L 9 -0.890625 L 7.875 0.171875 L 3.046875 -4.796875 L 3.046875 0 L 1.4375 0 Z M 1.4375 -13.28125 "/></g></g></g><g fill="#000000" fill-opacity="1"><g transform="translate(133.69431, 151.760048)"><g/></g></g><g fill="#000000" fill-opacity="1"><g transform="translate(139.079934, 151.760048)"><g><path d="M 3.046875 0 L 1.4375 0 L 1.4375 -9.328125 L 3.046875 -9.328125 Z M 2.25 -10.9375 C 1.9375 -10.9375 1.664062 -11.046875 1.4375 -11.265625 C 1.21875 -11.484375 1.109375 -11.75 1.109375 -12.0625 C 1.109375 -12.40625 1.207031 -12.679688 1.40625 -12.890625 C 1.613281 -13.097656 1.894531 -13.203125 2.25 -13.203125 C 2.550781 -13.203125 2.8125 -13.085938 3.03125 -12.859375 C 3.257812 -12.640625 3.375 -12.375 3.375 -12.0625 C 3.375 -11.71875 3.269531 -11.441406 3.0625 -11.234375 C 2.863281 -11.035156 2.59375 -10.9375 2.25 -10.9375 Z M 2.25 -10.9375 "/></g></g></g><g fill="#000000" fill-opacity="1"><g transform="translate(143.567954, 151.760048)"><g><path d="M 3 -7.78125 C 3.332031 -8.28125 3.757812 -8.695312 4.28125 -9.03125 C 4.800781 -9.375 5.421875 -9.546875 6.140625 -9.546875 C 7.191406 -9.546875 7.976562 -9.226562 8.5 -8.59375 C 9.019531 -7.957031 9.28125 -7.125 9.28125 -6.09375 L 9.28125 0 L 7.671875 0 L 7.671875 -5.90625 C 7.671875 -6.59375 7.515625 -7.132812 7.203125 -7.53125 C 6.890625 -7.925781 6.445312 -8.125 5.875 -8.125 C 5.59375 -8.125 5.320312 -8.070312 5.0625 -7.96875 C 4.800781 -7.875 4.546875 -7.734375 4.296875 -7.546875 C 4.054688 -7.367188 3.828125 -7.160156 3.609375 -6.921875 C 3.398438 -6.691406 3.210938 -6.441406 3.046875 -6.171875 L 3.046875 0 L 1.4375 0 L 1.4375 -9.328125 L 3 -9.328125 Z M 3 -7.78125 "/></g></g></g><g fill="#000000" fill-opacity="1"><g transform="translate(154.195585, 151.760048)"><g/></g></g><g fill="#000000" fill-opacity="1"><g transform="translate(159.581209, 151.760048)"><g><path d="M 2.171875 -11.9375 L 3.40625 -11.9375 L 3.40625 -9 L 6 -9 L 6 -7.59375 L 3.40625 -7.59375 L 3.40625 -3.09375 C 3.40625 -2.738281 3.441406 -2.441406 3.515625 -2.203125 C 3.597656 -1.960938 3.707031 -1.769531 3.84375 -1.625 C 3.976562 -1.488281 4.132812 -1.382812 4.3125 -1.3125 C 4.5 -1.25 4.695312 -1.21875 4.90625 -1.21875 C 5.195312 -1.21875 5.472656 -1.265625 5.734375 -1.359375 C 6.003906 -1.460938 6.257812 -1.578125 6.5 -1.703125 L 6.953125 -0.40625 C 6.710938 -0.269531 6.390625 -0.132812 5.984375 0 C 5.578125 0.144531 5.148438 0.21875 4.703125 0.21875 C 3.804688 0.21875 3.097656 -0.0703125 2.578125 -0.65625 C 2.054688 -1.25 1.796875 -2.101562 1.796875 -3.21875 L 1.796875 -7.59375 L 0.171875 -7.59375 L 0.171875 -9 L 1.828125 -9 Z M 2.171875 -11.9375 "/></g></g></g><g fill="#000000" fill-opacity="1"><g transform="translate(166.708181, 151.760048)"><g><path d="M 3.046875 -7.84375 C 3.390625 -8.332031 3.8125 -8.738281 4.3125 -9.0625 C 4.820312 -9.382812 5.429688 -9.546875 6.140625 -9.546875 C 7.191406 -9.546875 7.976562 -9.226562 8.5 -8.59375 C 9.019531 -7.957031 9.28125 -7.125 9.28125 -6.09375 L 9.28125 0 L 7.671875 0 L 7.671875 -5.90625 C 7.671875 -6.59375 7.515625 -7.132812 7.203125 -7.53125 C 6.898438 -7.925781 6.460938 -8.125 5.890625 -8.125 C 5.609375 -8.125 5.332031 -8.070312 5.0625 -7.96875 C 4.800781 -7.875 4.550781 -7.734375 4.3125 -7.546875 C 4.070312 -7.367188 3.84375 -7.160156 3.625 -6.921875 C 3.40625 -6.691406 3.210938 -6.441406 3.046875 -6.171875 L 3.046875 0 L 1.4375 0 L 1.4375 -13.28125 L 3.046875 -13.28125 Z M 3.046875 -7.84375 "/></g></g></g><g fill="#000000" fill-opacity="1"><g transform="translate(177.335812, 151.760048)"><g><path d="M 2.453125 -4 C 2.566406 -3.125 2.875 -2.441406 3.375 -1.953125 C 3.875 -1.460938 4.539062 -1.21875 5.375 -1.21875 C 5.90625 -1.21875 6.382812 -1.273438 6.8125 -1.390625 C 7.25 -1.503906 7.664062 -1.648438 8.0625 -1.828125 L 8.4375 -0.453125 C 8.007812 -0.242188 7.523438 -0.0820312 6.984375 0.03125 C 6.441406 0.15625 5.835938 0.21875 5.171875 0.21875 C 4.503906 0.21875 3.898438 0.109375 3.359375 -0.109375 C 2.816406 -0.335938 2.359375 -0.65625 1.984375 -1.0625 C 1.609375 -1.476562 1.316406 -1.988281 1.109375 -2.59375 C 0.910156 -3.195312 0.8125 -3.890625 0.8125 -4.671875 C 0.8125 -5.359375 0.910156 -6 1.109375 -6.59375 C 1.316406 -7.195312 1.601562 -7.71875 1.96875 -8.15625 C 2.34375 -8.59375 2.785156 -8.929688 3.296875 -9.171875 C 3.816406 -9.421875 4.394531 -9.546875 5.03125 -9.546875 C 5.695312 -9.546875 6.28125 -9.429688 6.78125 -9.203125 C 7.289062 -8.984375 7.710938 -8.675781 8.046875 -8.28125 C 8.378906 -7.882812 8.628906 -7.421875 8.796875 -6.890625 C 8.960938 -6.367188 9.046875 -5.8125 9.046875 -5.21875 C 9.046875 -4.800781 9.03125 -4.394531 9 -4 Z M 4.984375 -8.15625 C 4.285156 -8.15625 3.707031 -7.914062 3.25 -7.4375 C 2.800781 -6.957031 2.53125 -6.25 2.4375 -5.3125 L 7.5625 -5.3125 C 7.5625 -6.21875 7.332031 -6.914062 6.875 -7.40625 C 6.414062 -7.90625 5.785156 -8.15625 4.984375 -8.15625 Z M 4.984375 -8.15625 "/></g></g></g><g fill="#000000" fill-opacity="1"><g transform="translate(187.101746, 151.760048)"><g/></g></g><g fill="#000000" fill-opacity="1"><g transform="translate(192.48737, 151.760048)"><g><path d="M 6.65625 -11.546875 C 6.40625 -11.671875 6.132812 -11.785156 5.84375 -11.890625 C 5.5625 -12.003906 5.25 -12.0625 4.90625 -12.0625 C 4.394531 -12.0625 3.988281 -11.898438 3.6875 -11.578125 C 3.382812 -11.265625 3.234375 -10.804688 3.234375 -10.203125 L 3.234375 -9 L 6 -9 L 6 -7.59375 L 3.234375 -7.59375 L 3.234375 0 L 1.609375 0 L 1.609375 -7.59375 L 0.171875 -7.59375 L 0.171875 -9 L 1.609375 -9 L 1.609375 -10.09375 C 1.609375 -10.613281 1.6875 -11.082031 1.84375 -11.5 C 2 -11.925781 2.210938 -12.285156 2.484375 -12.578125 C 2.765625 -12.878906 3.101562 -13.109375 3.5 -13.265625 C 3.894531 -13.421875 4.328125 -13.5 4.796875 -13.5 C 5.296875 -13.5 5.726562 -13.441406 6.09375 -13.328125 C 6.457031 -13.210938 6.804688 -13.070312 7.140625 -12.90625 Z M 6.65625 -11.546875 "/></g></g></g><g fill="#000000" fill-opacity="1"><g transform="translate(198.734691, 151.760048)"><g><path d="M 2.96875 -3.09375 C 2.96875 -2.445312 3.097656 -1.96875 3.359375 -1.65625 C 3.628906 -1.34375 4.003906 -1.1875 4.484375 -1.1875 C 4.710938 -1.1875 4.929688 -1.210938 5.140625 -1.265625 C 5.359375 -1.316406 5.554688 -1.378906 5.734375 -1.453125 L 6.125 -0.140625 C 5.90625 -0.046875 5.632812 0.0351562 5.3125 0.109375 C 5 0.179688 4.648438 0.21875 4.265625 0.21875 C 3.847656 0.21875 3.460938 0.15625 3.109375 0.03125 C 2.753906 -0.0820312 2.445312 -0.265625 2.1875 -0.515625 C 1.925781 -0.765625 1.71875 -1.085938 1.5625 -1.484375 C 1.414062 -1.878906 1.34375 -2.359375 1.34375 -2.921875 L 1.34375 -13.28125 L 2.96875 -13.28125 Z M 2.96875 -3.09375 "/></g></g></g><g fill="#000000" fill-opacity="1"><g transform="translate(204.946105, 151.760048)"><g><path d="M 8.359375 -4.671875 C 8.359375 -5.140625 8.285156 -5.582031 8.140625 -6 C 7.992188 -6.414062 7.785156 -6.78125 7.515625 -7.09375 C 7.242188 -7.40625 6.925781 -7.648438 6.5625 -7.828125 C 6.195312 -8.015625 5.800781 -8.109375 5.375 -8.109375 C 4.425781 -8.109375 3.6875 -7.796875 3.15625 -7.171875 C 2.632812 -6.554688 2.375 -5.734375 2.375 -4.703125 C 2.375 -4.234375 2.445312 -3.785156 2.59375 -3.359375 C 2.738281 -2.941406 2.945312 -2.570312 3.21875 -2.25 C 3.488281 -1.9375 3.804688 -1.6875 4.171875 -1.5 C 4.535156 -1.3125 4.9375 -1.21875 5.375 -1.21875 C 5.832031 -1.21875 6.25 -1.300781 6.625 -1.46875 C 7 -1.632812 7.3125 -1.867188 7.5625 -2.171875 C 7.820312 -2.484375 8.019531 -2.847656 8.15625 -3.265625 C 8.289062 -3.679688 8.359375 -4.148438 8.359375 -4.671875 Z M 0.71875 -4.671875 C 0.71875 -5.421875 0.835938 -6.097656 1.078125 -6.703125 C 1.316406 -7.304688 1.640625 -7.816406 2.046875 -8.234375 C 2.460938 -8.660156 2.953125 -8.984375 3.515625 -9.203125 C 4.085938 -9.429688 4.707031 -9.546875 5.375 -9.546875 C 6.019531 -9.546875 6.625 -9.429688 7.1875 -9.203125 C 7.757812 -8.984375 8.253906 -8.660156 8.671875 -8.234375 C 9.085938 -7.816406 9.414062 -7.304688 9.65625 -6.703125 C 9.894531 -6.109375 10.015625 -5.441406 10.015625 -4.703125 C 10.015625 -3.960938 9.894531 -3.289062 9.65625 -2.6875 C 9.425781 -2.082031 9.101562 -1.5625 8.6875 -1.125 C 8.269531 -0.695312 7.773438 -0.363281 7.203125 -0.125 C 6.640625 0.101562 6.03125 0.21875 5.375 0.21875 C 4.695312 0.21875 4.070312 0.0976562 3.5 -0.140625 C 2.9375 -0.378906 2.445312 -0.710938 2.03125 -1.140625 C 1.625 -1.578125 1.300781 -2.09375 1.0625 -2.6875 C 0.832031 -3.289062 0.71875 -3.953125 0.71875 -4.671875 Z M 0.71875 -4.671875 "/></g></g></g><g fill="#000000" fill-opacity="1"><g transform="translate(215.681446, 151.760048)"><g><path d="M 12.796875 -9.421875 L 14.234375 -8.90625 L 11.28125 0 L 9.5 0 L 7.34375 -6.953125 L 5.171875 0 L 3.390625 0 L 0.453125 -8.90625 L 1.9375 -9.421875 L 4.34375 -1.828125 L 6.53125 -8.671875 L 8.28125 -8.671875 L 10.40625 -1.828125 Z M 12.796875 -9.421875 "/></g></g></g><g fill="#000000" fill-opacity="1"><g transform="translate(59.929239, 176.444222)"><g><path d="M 12.796875 -9.421875 L 14.234375 -8.90625 L 11.28125 0 L 9.5 0 L 7.34375 -6.953125 L 5.171875 0 L 3.390625 0 L 0.453125 -8.90625 L 1.9375 -9.421875 L 4.34375 -1.828125 L 6.53125 -8.671875 L 8.28125 -8.671875 L 10.40625 -1.828125 Z M 12.796875 -9.421875 "/></g></g></g><g fill="#000000" fill-opacity="1"><g transform="translate(74.614036, 176.444222)"><g><path d="M 3.046875 0 L 1.4375 0 L 1.4375 -9.328125 L 3.046875 -9.328125 Z M 2.25 -10.9375 C 1.9375 -10.9375 1.664062 -11.046875 1.4375 -11.265625 C 1.21875 -11.484375 1.109375 -11.75 1.109375 -12.0625 C 1.109375 -12.40625 1.207031 -12.679688 1.40625 -12.890625 C 1.613281 -13.097656 1.894531 -13.203125 2.25 -13.203125 C 2.550781 -13.203125 2.8125 -13.085938 3.03125 -12.859375 C 3.257812 -12.640625 3.375 -12.375 3.375 -12.0625 C 3.375 -11.71875 3.269531 -11.441406 3.0625 -11.234375 C 2.863281 -11.035156 2.59375 -10.9375 2.25 -10.9375 Z M 2.25 -10.9375 "/></g></g></g><g fill="#000000" fill-opacity="1"><g transform="translate(79.102056, 176.444222)"><g><path d="M 2.171875 -11.9375 L 3.40625 -11.9375 L 3.40625 -9 L 6 -9 L 6 -7.59375 L 3.40625 -7.59375 L 3.40625 -3.09375 C 3.40625 -2.738281 3.441406 -2.441406 3.515625 -2.203125 C 3.597656 -1.960938 3.707031 -1.769531 3.84375 -1.625 C 3.976562 -1.488281 4.132812 -1.382812 4.3125 -1.3125 C 4.5 -1.25 4.695312 -1.21875 4.90625 -1.21875 C 5.195312 -1.21875 5.472656 -1.265625 5.734375 -1.359375 C 6.003906 -1.460938 6.257812 -1.578125 6.5 -1.703125 L 6.953125 -0.40625 C 6.710938 -0.269531 6.390625 -0.132812 5.984375 0 C 5.578125 0.144531 5.148438 0.21875 4.703125 0.21875 C 3.804688 0.21875 3.097656 -0.0703125 2.578125 -0.65625 C 2.054688 -1.25 1.796875 -2.101562 1.796875 -3.21875 L 1.796875 -7.59375 L 0.171875 -7.59375 L 0.171875 -9 L 1.828125 -9 Z M 2.171875 -11.9375 "/></g></g></g><g fill="#000000" fill-opacity="1"><g transform="translate(86.229028, 176.444222)"><g><path d="M 3.046875 -7.84375 C 3.390625 -8.332031 3.8125 -8.738281 4.3125 -9.0625 C 4.820312 -9.382812 5.429688 -9.546875 6.140625 -9.546875 C 7.191406 -9.546875 7.976562 -9.226562 8.5 -8.59375 C 9.019531 -7.957031 9.28125 -7.125 9.28125 -6.09375 L 9.28125 0 L 7.671875 0 L 7.671875 -5.90625 C 7.671875 -6.59375 7.515625 -7.132812 7.203125 -7.53125 C 6.898438 -7.925781 6.460938 -8.125 5.890625 -8.125 C 5.609375 -8.125 5.332031 -8.070312 5.0625 -7.96875 C 4.800781 -7.875 4.550781 -7.734375 4.3125 -7.546875 C 4.070312 -7.367188 3.84375 -7.160156 3.625 -6.921875 C 3.40625 -6.691406 3.210938 -6.441406 3.046875 -6.171875 L 3.046875 0 L 1.4375 0 L 1.4375 -13.28125 L 3.046875 -13.28125 Z M 3.046875 -7.84375 "/></g></g></g><g fill="#000000" fill-opacity="1"><g transform="translate(96.856659, 176.444222)"><g/></g></g><g fill="#000000" fill-opacity="1"><g transform="translate(102.242283, 176.444222)"><g><path d="M 4.578125 -12.5625 L 6.28125 -12.5625 L 6.28125 -4.140625 C 6.28125 -3.378906 6.195312 -2.722656 6.03125 -2.171875 C 5.863281 -1.617188 5.625 -1.164062 5.3125 -0.8125 C 5 -0.457031 4.628906 -0.195312 4.203125 -0.03125 C 3.773438 0.132812 3.296875 0.21875 2.765625 0.21875 C 2.210938 0.21875 1.691406 0.125 1.203125 -0.0625 C 0.722656 -0.257812 0.320312 -0.515625 0 -0.828125 L 0.828125 -2.140625 C 1.066406 -1.890625 1.351562 -1.675781 1.6875 -1.5 C 2.019531 -1.332031 2.359375 -1.25 2.703125 -1.25 C 3.285156 -1.25 3.742188 -1.453125 4.078125 -1.859375 C 4.410156 -2.273438 4.578125 -2.976562 4.578125 -3.96875 Z M 4.578125 -12.5625 "/></g></g></g><g fill="#000000" fill-opacity="1"><g transform="translate(109.96168, 176.444222)"><g><path d="M 8.359375 -4.671875 C 8.359375 -5.140625 8.285156 -5.582031 8.140625 -6 C 7.992188 -6.414062 7.785156 -6.78125 7.515625 -7.09375 C 7.242188 -7.40625 6.925781 -7.648438 6.5625 -7.828125 C 6.195312 -8.015625 5.800781 -8.109375 5.375 -8.109375 C 4.425781 -8.109375 3.6875 -7.796875 3.15625 -7.171875 C 2.632812 -6.554688 2.375 -5.734375 2.375 -4.703125 C 2.375 -4.234375 2.445312 -3.785156 2.59375 -3.359375 C 2.738281 -2.941406 2.945312 -2.570312 3.21875 -2.25 C 3.488281 -1.9375 3.804688 -1.6875 4.171875 -1.5 C 4.535156 -1.3125 4.9375 -1.21875 5.375 -1.21875 C 5.832031 -1.21875 6.25 -1.300781 6.625 -1.46875 C 7 -1.632812 7.3125 -1.867188 7.5625 -2.171875 C 7.820312 -2.484375 8.019531 -2.847656 8.15625 -3.265625 C 8.289062 -3.679688 8.359375 -4.148438 8.359375 -4.671875 Z M 0.71875 -4.671875 C 0.71875 -5.421875 0.835938 -6.097656 1.078125 -6.703125 C 1.316406 -7.304688 1.640625 -7.816406 2.046875 -8.234375 C 2.460938 -8.660156 2.953125 -8.984375 3.515625 -9.203125 C 4.085938 -9.429688 4.707031 -9.546875 5.375 -9.546875 C 6.019531 -9.546875 6.625 -9.429688 7.1875 -9.203125 C 7.757812 -8.984375 8.253906 -8.660156 8.671875 -8.234375 C 9.085938 -7.816406 9.414062 -7.304688 9.65625 -6.703125 C 9.894531 -6.109375 10.015625 -5.441406 10.015625 -4.703125 C 10.015625 -3.960938 9.894531 -3.289062 9.65625 -2.6875 C 9.425781 -2.082031 9.101562 -1.5625 8.6875 -1.125 C 8.269531 -0.695312 7.773438 -0.363281 7.203125 -0.125 C 6.640625 0.101562 6.03125 0.21875 5.375 0.21875 C 4.695312 0.21875 4.070312 0.0976562 3.5 -0.140625 C 2.9375 -0.378906 2.445312 -0.710938 2.03125 -1.140625 C 1.625 -1.578125 1.300781 -2.09375 1.0625 -2.6875 C 0.832031 -3.289062 0.71875 -3.953125 0.71875 -4.671875 Z M 0.71875 -4.671875 "/></g></g></g><g fill="#000000" fill-opacity="1"><g transform="translate(120.697022, 176.444222)"><g><path d="M 1.4375 -13.28125 L 3.046875 -13.28125 L 3.046875 -8.359375 C 3.171875 -8.492188 3.320312 -8.632812 3.5 -8.78125 C 3.675781 -8.925781 3.875 -9.050781 4.09375 -9.15625 C 4.320312 -9.269531 4.570312 -9.363281 4.84375 -9.4375 C 5.125 -9.507812 5.425781 -9.546875 5.75 -9.546875 C 6.28125 -9.546875 6.796875 -9.4375 7.296875 -9.21875 C 7.796875 -9.007812 8.234375 -8.703125 8.609375 -8.296875 C 8.984375 -7.890625 9.285156 -7.382812 9.515625 -6.78125 C 9.742188 -6.1875 9.859375 -5.507812 9.859375 -4.75 C 9.859375 -4.007812 9.738281 -3.332031 9.5 -2.71875 C 9.257812 -2.113281 8.941406 -1.59375 8.546875 -1.15625 C 8.148438 -0.71875 7.695312 -0.378906 7.1875 -0.140625 C 6.675781 0.0976562 6.160156 0.21875 5.640625 0.21875 C 5.097656 0.21875 4.585938 0.125 4.109375 -0.0625 C 3.640625 -0.257812 3.25 -0.492188 2.9375 -0.765625 L 2.9375 0 L 1.4375 0 Z M 8.203125 -4.703125 C 8.203125 -5.242188 8.125 -5.722656 7.96875 -6.140625 C 7.820312 -6.566406 7.617188 -6.929688 7.359375 -7.234375 C 7.109375 -7.535156 6.8125 -7.765625 6.46875 -7.921875 C 6.125 -8.078125 5.765625 -8.15625 5.390625 -8.15625 C 4.867188 -8.15625 4.398438 -8.023438 3.984375 -7.765625 C 3.578125 -7.503906 3.265625 -7.226562 3.046875 -6.9375 L 3.046875 -1.9375 C 3.328125 -1.71875 3.648438 -1.539062 4.015625 -1.40625 C 4.390625 -1.28125 4.785156 -1.21875 5.203125 -1.21875 C 5.640625 -1.21875 6.039062 -1.300781 6.40625 -1.46875 C 6.78125 -1.632812 7.097656 -1.867188 7.359375 -2.171875 C 7.617188 -2.484375 7.820312 -2.847656 7.96875 -3.265625 C 8.125 -3.691406 8.203125 -4.171875 8.203125 -4.703125 Z M 8.203125 -4.703125 "/></g></g></g><g fill="#000000" fill-opacity="1"><g transform="translate(131.360548, 176.444222)"><g><path d="M 1.4375 -13.28125 L 3.046875 -13.28125 L 3.046875 -8.359375 C 3.171875 -8.492188 3.320312 -8.632812 3.5 -8.78125 C 3.675781 -8.925781 3.875 -9.050781 4.09375 -9.15625 C 4.320312 -9.269531 4.570312 -9.363281 4.84375 -9.4375 C 5.125 -9.507812 5.425781 -9.546875 5.75 -9.546875 C 6.28125 -9.546875 6.796875 -9.4375 7.296875 -9.21875 C 7.796875 -9.007812 8.234375 -8.703125 8.609375 -8.296875 C 8.984375 -7.890625 9.285156 -7.382812 9.515625 -6.78125 C 9.742188 -6.1875 9.859375 -5.507812 9.859375 -4.75 C 9.859375 -4.007812 9.738281 -3.332031 9.5 -2.71875 C 9.257812 -2.113281 8.941406 -1.59375 8.546875 -1.15625 C 8.148438 -0.71875 7.695312 -0.378906 7.1875 -0.140625 C 6.675781 0.0976562 6.160156 0.21875 5.640625 0.21875 C 5.097656 0.21875 4.585938 0.125 4.109375 -0.0625 C 3.640625 -0.257812 3.25 -0.492188 2.9375 -0.765625 L 2.9375 0 L 1.4375 0 Z M 8.203125 -4.703125 C 8.203125 -5.242188 8.125 -5.722656 7.96875 -6.140625 C 7.820312 -6.566406 7.617188 -6.929688 7.359375 -7.234375 C 7.109375 -7.535156 6.8125 -7.765625 6.46875 -7.921875 C 6.125 -8.078125 5.765625 -8.15625 5.390625 -8.15625 C 4.867188 -8.15625 4.398438 -8.023438 3.984375 -7.765625 C 3.578125 -7.503906 3.265625 -7.226562 3.046875 -6.9375 L 3.046875 -1.9375 C 3.328125 -1.71875 3.648438 -1.539062 4.015625 -1.40625 C 4.390625 -1.28125 4.785156 -1.21875 5.203125 -1.21875 C 5.640625 -1.21875 6.039062 -1.300781 6.40625 -1.46875 C 6.78125 -1.632812 7.097656 -1.867188 7.359375 -2.171875 C 7.617188 -2.484375 7.820312 -2.847656 7.96875 -3.265625 C 8.125 -3.691406 8.203125 -4.171875 8.203125 -4.703125 Z M 8.203125 -4.703125 "/></g></g></g><g fill="#000000" fill-opacity="1"><g transform="translate(142.024075, 176.444222)"><g><path d="M 3.046875 0 L 1.4375 0 L 1.4375 -9.328125 L 3.046875 -9.328125 Z M 2.25 -10.9375 C 1.9375 -10.9375 1.664062 -11.046875 1.4375 -11.265625 C 1.21875 -11.484375 1.109375 -11.75 1.109375 -12.0625 C 1.109375 -12.40625 1.207031 -12.679688 1.40625 -12.890625 C 1.613281 -13.097656 1.894531 -13.203125 2.25 -13.203125 C 2.550781 -13.203125 2.8125 -13.085938 3.03125 -12.859375 C 3.257812 -12.640625 3.375 -12.375 3.375 -12.0625 C 3.375 -11.71875 3.269531 -11.441406 3.0625 -11.234375 C 2.863281 -11.035156 2.59375 -10.9375 2.25 -10.9375 Z M 2.25 -10.9375 "/></g></g></g><g fill="#000000" fill-opacity="1"><g transform="translate(146.512095, 176.444222)"><g><path d="M 2.453125 -4 C 2.566406 -3.125 2.875 -2.441406 3.375 -1.953125 C 3.875 -1.460938 4.539062 -1.21875 5.375 -1.21875 C 5.90625 -1.21875 6.382812 -1.273438 6.8125 -1.390625 C 7.25 -1.503906 7.664062 -1.648438 8.0625 -1.828125 L 8.4375 -0.453125 C 8.007812 -0.242188 7.523438 -0.0820312 6.984375 0.03125 C 6.441406 0.15625 5.835938 0.21875 5.171875 0.21875 C 4.503906 0.21875 3.898438 0.109375 3.359375 -0.109375 C 2.816406 -0.335938 2.359375 -0.65625 1.984375 -1.0625 C 1.609375 -1.476562 1.316406 -1.988281 1.109375 -2.59375 C 0.910156 -3.195312 0.8125 -3.890625 0.8125 -4.671875 C 0.8125 -5.359375 0.910156 -6 1.109375 -6.59375 C 1.316406 -7.195312 1.601562 -7.71875 1.96875 -8.15625 C 2.34375 -8.59375 2.785156 -8.929688 3.296875 -9.171875 C 3.816406 -9.421875 4.394531 -9.546875 5.03125 -9.546875 C 5.695312 -9.546875 6.28125 -9.429688 6.78125 -9.203125 C 7.289062 -8.984375 7.710938 -8.675781 8.046875 -8.28125 C 8.378906 -7.882812 8.628906 -7.421875 8.796875 -6.890625 C 8.960938 -6.367188 9.046875 -5.8125 9.046875 -5.21875 C 9.046875 -4.800781 9.03125 -4.394531 9 -4 Z M 4.984375 -8.15625 C 4.285156 -8.15625 3.707031 -7.914062 3.25 -7.4375 C 2.800781 -6.957031 2.53125 -6.25 2.4375 -5.3125 L 7.5625 -5.3125 C 7.5625 -6.21875 7.332031 -6.914062 6.875 -7.40625 C 6.414062 -7.90625 5.785156 -8.15625 4.984375 -8.15625 Z M 4.984375 -8.15625 "/></g></g></g><g fill="#000000" fill-opacity="1"><g transform="translate(156.278029, 176.444222)"><g><path d="M 1.484375 -0.984375 C 1.484375 -1.359375 1.585938 -1.648438 1.796875 -1.859375 C 2.015625 -2.078125 2.3125 -2.1875 2.6875 -2.1875 C 3 -2.1875 3.273438 -2.066406 3.515625 -1.828125 C 3.765625 -1.585938 3.890625 -1.304688 3.890625 -0.984375 C 3.890625 -0.628906 3.773438 -0.335938 3.546875 -0.109375 C 3.328125 0.109375 3.039062 0.21875 2.6875 0.21875 C 2.363281 0.21875 2.082031 0.0976562 1.84375 -0.140625 C 1.601562 -0.378906 1.484375 -0.660156 1.484375 -0.984375 Z M 1.484375 -0.984375 "/></g></g></g><g clip-path="url(#16c78b76b7)"><g clip-path="url(#d89ce4951c)"><path fill="#d3d9dd" d="M 20.613281 40.582031 L 367.027344 40.582031 L 367.027344 283.214844 L 20.613281 283.214844 Z M 20.613281 40.582031 " fill-opacity="1" fill-rule="nonzero"/></g></g><path fill="#1d97bd" d="M 286.71875 161.179688 C 286.71875 162.304688 286.320312 163.332031 285.644531 164.125 C 285.238281 164.613281 284.730469 165.007812 284.15625 165.292969 C 283.542969 165.59375 282.847656 165.769531 282.109375 165.769531 C 281.40625 165.769531 280.738281 165.609375 280.140625 165.332031 C 279.53125 165.042969 279 164.632812 278.570312 164.125 C 277.898438 163.332031 277.496094 162.304688 277.496094 161.179688 C 277.496094 160.042969 277.910156 159.003906 278.59375 158.203125 C 279.441406 157.214844 280.703125 156.589844 282.109375 156.589844 C 283.519531 156.589844 284.777344 157.214844 285.625 158.203125 C 286.308594 159.003906 286.71875 160.042969 286.71875 161.179688 Z M 286.71875 161.179688 " fill-opacity="1" fill-rule="nonzero"/><path fill="#1d97bd" d="M 299.683594 162.441406 C 299.238281 163.304688 298.289062 163.824219 297.363281 164.015625 C 296.800781 164.128906 296.222656 164.152344 295.644531 164.179688 C 295.011719 164.21875 294.375 164.257812 293.738281 164.296875 C 292.4375 164.371094 291.140625 164.449219 289.839844 164.496094 C 287.261719 164.59375 284.671875 164.707031 282.09375 164.691406 C 282.015625 164.691406 281.960938 164.65625 281.925781 164.613281 C 280.921875 164.621094 279.910156 164.640625 278.90625 164.644531 C 277.480469 164.652344 276.050781 164.613281 274.621094 164.574219 C 273.339844 164.542969 272.054688 164.511719 270.773438 164.449219 C 269.613281 164.390625 268.410156 164.351562 267.320312 163.914062 C 266.457031 163.566406 265.636719 162.855469 265.425781 161.921875 C 265.21875 160.984375 265.6875 160.0625 266.367188 159.4375 C 268.074219 157.859375 270.773438 158.105469 272.921875 158.152344 C 275.53125 158.207031 278.136719 158.339844 280.75 158.351562 C 281.003906 158.351562 281.03125 158.695312 280.839844 158.78125 L 282.703125 163.003906 L 284.5625 158.558594 C 284.367188 158.484375 284.394531 158.132812 284.648438 158.132812 C 287.578125 158.121094 290.496094 158.261719 293.425781 158.285156 C 295.492188 158.300781 298.125 157.878906 299.460938 159.867188 C 299.96875 160.628906 300.109375 161.609375 299.683594 162.441406 Z M 282.109375 165.769531 C 281.40625 165.769531 280.738281 165.609375 280.140625 165.332031 L 280.140625 168.375 L 284.15625 168.375 L 284.15625 165.292969 C 283.542969 165.59375 282.847656 165.769531 282.109375 165.769531 Z M 306.414062 192.203125 C 299.546875 189.675781 293.792969 188.6875 291.605469 187.21875 C 290.992188 186.808594 290.660156 186.359375 290.660156 185.828125 L 290.660156 181.679688 L 274.402344 181.679688 L 274.402344 184.746094 C 274.402344 186.964844 272.59375 188.761719 270.367188 188.761719 L 257.933594 188.761719 L 257.933594 202.621094 L 274.226562 202.621094 C 275.234375 202.621094 276.191406 203.019531 276.949219 203.679688 C 278.832031 205.324219 281.292969 206.316406 283.988281 206.316406 C 287.027344 206.316406 289.769531 205.046875 291.714844 203.019531 C 292.648438 202.042969 294.003906 201.59375 295.335938 201.835938 C 298.464844 202.402344 303.421875 204.511719 303.421875 212.179688 L 315.660156 212.179688 C 315.660156 212.179688 315.207031 195.441406 306.414062 192.203125 Z M 289.285156 170.953125 L 273.742188 170.953125 L 273.742188 178.644531 L 291.167969 178.644531 L 291.167969 170.953125 Z M 289.285156 170.953125 " fill-opacity="1" fill-rule="nonzero"/><g clip-path="url(#951bd6d4bd)"><path fill="#1d97bd" d="M 274.882812 170.953125 C 274.882812 170.042969 274.878906 169.128906 274.875 168.21875 C 274.875 168.167969 274.894531 168.128906 274.917969 168.09375 C 274.945312 168.015625 275.007812 167.945312 275.121094 167.945312 C 276.203125 167.941406 277.289062 167.90625 278.367188 167.863281 C 282.113281 167.710938 285.851562 167.585938 289.605469 167.613281 C 289.730469 167.613281 289.816406 167.714844 289.828125 167.835938 C 289.90625 168.875 289.941406 169.914062 290.011719 170.953125 Z M 257.902344 190.996094 C 257.917969 189.859375 257.96875 188.726562 258.042969 187.59375 C 258.046875 187.523438 258 187.429688 257.929688 187.402344 C 256.476562 186.785156 255.382812 185.4375 255.125 183.878906 C 255.042969 183.375 255.230469 182.261719 254.445312 182.238281 C 254.25 182.234375 254.0625 182.3125 253.867188 182.332031 C 253.59375 182.351562 253.3125 182.355469 253.039062 182.363281 C 252.523438 182.378906 252.003906 182.382812 251.488281 182.390625 C 250.304688 182.402344 249.128906 182.402344 247.945312 182.464844 C 247.90625 182.46875 247.871094 182.480469 247.839844 182.496094 C 247.742188 182.511719 247.652344 182.578125 247.652344 182.707031 C 247.652344 186.894531 247.726562 191.082031 247.730469 195.269531 C 247.730469 197.355469 247.773438 199.4375 247.84375 201.523438 C 247.878906 202.566406 247.917969 203.609375 247.953125 204.652344 C 247.96875 205.148438 247.980469 205.648438 248 206.152344 C 248.011719 206.503906 248.039062 206.867188 248.164062 207.195312 C 248.304688 207.570312 248.554688 207.820312 248.921875 207.980469 C 249.425781 208.195312 249.933594 208.160156 250.472656 208.148438 C 251.65625 208.125 252.835938 208.066406 254.019531 208.058594 C 254.128906 208.058594 254.191406 207.988281 254.230469 207.894531 C 255.085938 205.851562 256.65625 204.175781 258.472656 202.941406 C 258.535156 202.902344 258.597656 202.828125 258.585938 202.75 C 258.085938 198.839844 257.828125 194.933594 257.902344 190.996094 Z M 292.945312 178.136719 C 292.929688 178.015625 292.855469 177.914062 292.722656 177.914062 C 289.980469 177.898438 287.242188 177.996094 284.5 178.042969 C 281.757812 178.09375 279.003906 178.097656 276.265625 178.253906 C 274.78125 178.335938 273.304688 178.433594 271.816406 178.449219 C 271.707031 178.296875 271.410156 178.332031 271.414062 178.570312 C 271.417969 179.648438 271.417969 180.726562 271.425781 181.808594 C 271.425781 181.929688 271.527344 182.03125 271.648438 182.03125 C 274.4375 182.070312 277.238281 182.058594 280.027344 182.023438 C 282.800781 181.988281 285.570312 181.875 288.347656 181.886719 C 289.921875 181.890625 291.5 181.902344 293.074219 181.859375 C 293.1875 181.855469 293.3125 181.757812 293.300781 181.636719 C 293.167969 180.472656 293.074219 179.300781 292.945312 178.136719 Z M 286.15625 159.109375 C 285.285156 157.324219 283.242188 156.292969 281.285156 156.519531 C 281.253906 156.511719 281.214844 156.507812 281.171875 156.519531 C 281.148438 156.527344 281.125 156.535156 281.101562 156.539062 C 280.957031 156.566406 280.8125 156.59375 280.667969 156.632812 C 280.59375 156.648438 280.550781 156.691406 280.53125 156.742188 C 278.980469 157.386719 277.699219 158.734375 277.382812 160.40625 C 277.03125 162.230469 277.890625 164.222656 279.476562 165.207031 C 280.414062 165.789062 281.5625 166.019531 282.652344 166.015625 C 283.75 166.007812 284.773438 165.683594 285.484375 164.808594 C 286.765625 163.222656 287.054688 160.945312 286.15625 159.109375 Z M 286.15625 159.109375 " fill-opacity="1" fill-rule="nonzero"/></g><g clip-path="url(#64030fb2fa)"><path fill="#1d97bd" d="M 320.128906 235.871094 C 320.023438 237.273438 319.722656 238.765625 319.226562 240.308594 C 318.664062 242.039062 318.023438 243.324219 317.195312 244.363281 C 316.195312 245.617188 314.824219 246.679688 313.238281 247.433594 C 311.777344 248.128906 310.09375 248.5 308.371094 248.5 C 308.363281 248.5 308.359375 248.5 308.355469 248.5 C 306.597656 248.496094 304.90625 248.128906 303.460938 247.441406 C 301.910156 246.695312 300.550781 245.625 299.53125 244.335938 C 298.71875 243.3125 298.097656 242.046875 297.679688 240.582031 C 297.136719 238.675781 297.097656 236.71875 297.566406 234.925781 C 297.894531 233.664062 298.496094 232.382812 299.394531 231.015625 C 300.121094 229.90625 300.980469 228.636719 301.996094 227.550781 C 302.511719 226.988281 303.078125 226.457031 303.628906 225.941406 C 304.117188 225.484375 304.625 225.011719 305.089844 224.519531 C 305.984375 223.589844 306.847656 222.527344 307.808594 221.183594 L 307.90625 221.046875 C 308.640625 220.027344 309.394531 218.976562 309.828125 217.808594 C 310.289062 216.570312 310.492188 215.285156 310.425781 213.988281 L 310.414062 213.734375 L 310.605469 213.898438 C 311.589844 214.703125 312.535156 215.507812 313.386719 216.449219 C 314.226562 217.382812 314.933594 218.441406 315.617188 219.464844 L 315.65625 219.53125 C 316.519531 220.820312 317.210938 222.050781 317.777344 223.28125 C 318.355469 224.546875 318.945312 225.914062 319.328125 227.308594 C 319.699219 228.671875 319.964844 230.101562 320.109375 231.554688 C 320.242188 232.859375 320.25 234.269531 320.128906 235.871094 Z M 298.015625 222.082031 C 298.039062 222.265625 298.066406 222.453125 298.183594 222.605469 C 298.539062 223.054688 299.089844 223.316406 299.488281 223.457031 C 299.890625 223.597656 300.335938 223.667969 300.8125 223.667969 C 301.132812 223.667969 301.46875 223.640625 301.808594 223.570312 C 302.804688 223.382812 303.8125 222.921875 304.804688 222.210938 C 305.792969 221.496094 306.582031 220.722656 307.152344 219.910156 C 307.792969 218.988281 308.246094 217.953125 308.601562 217.058594 C 308.929688 216.222656 309.152344 215.339844 309.367188 214.484375 L 309.480469 214.027344 C 309.484375 214.023438 309.492188 214.019531 309.5 214.015625 C 309.535156 213.988281 309.585938 213.953125 309.597656 213.898438 L 309.609375 213.863281 L 309.59375 213.832031 C 309.578125 213.785156 309.535156 213.746094 309.480469 213.734375 C 309.429688 213.722656 309.382812 213.738281 309.339844 213.777344 C 308.445312 214.6875 307.367188 215.375 306.332031 215.984375 C 305.183594 216.664062 304.070312 217.148438 302.921875 217.472656 C 302.058594 217.714844 301.289062 217.953125 300.566406 218.203125 C 299.808594 218.46875 298.945312 218.804688 298.394531 219.449219 C 297.867188 220.058594 297.703125 220.96875 297.964844 221.828125 C 297.988281 221.902344 298 221.988281 298.015625 222.082031 Z M 298.015625 222.082031 " fill-opacity="1" fill-rule="nonzero"/></g></svg>